P3
39 31
255
0 0 0 0 0 0 0 0 0 0 0 0 0 0 0 0 0 0 0 0 0 0 0 0 0 0 0 0 0 0 0 0 0 0 0 0 0 0 0 0 0 0 0 0 0 0 0 0 0 0 0 0 0 0 0 0 0 0 0 0 0 0 0 0 0 0 0 0 0 0 0 0 0 0 0 0 0 0 0 0 0 0 0 0 0 0 0 0 0 0 0 0 0 0 0 0 0 0 0 0 0 0 0 0 0 0 0 0 0 0 0 0 0 0 0 0 0 
0 0 0 0 0 0 0 0 0 0 0 0 0 0 0 0 0 0 0 0 0 0 0 0 0 0 0 0 0 0 0 0 0 0 0 0 0 0 0 0 0 0 0 0 0 0 0 0 0 0 0 0 0 0 0 0 0 0 0 0 0 0 0 0 0 0 0 0 0 0 0 0 0 0 0 0 0 0 0 0 0 0 0 0 0 0 0 0 0 0 0 0 0 0 0 0 0 0 0 0 0 0 0 0 0 0 0 0 0 0 0 0 0 0 0 0 0 
0 0 0 0 0 0 0 0 0 0 0 0 0 0 0 0 0 0 0 0 0 0 0 0 0 0 0 0 0 0 0 0 0 0 0 0 0 0 0 0 0 0 0 0 0 0 0 0 0 0 0 0 0 0 0 0 0 0 0 0 0 0 0 0 0 0 0 0 0 0 0 0 0 0 0 0 0 0 0 0 0 0 0 0 0 0 0 0 0 0 0 0 0 0 0 0 0 0 0 0 0 0 0 0 0 0 0 0 0 0 0 0 0 0 0 0 0 
0 0 0 0 0 0 0 0 0 0 0 0 0 0 0 0 0 0 0 0 0 0 0 0 0 0 0 0 0 0 0 0 0 0 0 0 0 0 0 0 0 0 0 0 0 1 1 1 6 6 6 0 0 0 0 0 0 0 0 1 0 0 0 0 0 0 0 0 0 0 0 0 0 0 0 0 0 0 0 0 0 0 0 0 0 0 0 0 0 0 0 0 0 0 0 0 0 0 0 0 0 0 0 0 0 0 0 0 0 0 0 0 0 0 0 0 0 
0 0 0 0 0 0 0 0 0 0 0 0 0 0 0 0 0 0 0 0 0 0 0 0 0 0 0 0 0 0 0 0 0 0 0 0 0 0 0 0 0 0 1 1 1 0 0 0 0 0 0 2 2 1 2 2 1 0 0 0 0 0 0 0 0 0 0 0 0 0 0 0 0 0 0 0 0 0 0 0 0 0 0 0 0 0 0 0 0 0 0 0 0 0 0 0 0 0 0 0 0 0 0 0 0 0 0 0 0 0 0 0 0 0 0 0 0 
0 0 0 0 0 0 0 0 0 0 0 0 0 0 0 0 0 0 0 0 0 0 0 0 0 0 0 0 0 0 0 0 0 0 0 0 1 1 1 0 0 0 0 0 0 1 1 1 16 16 16 22 22 26 19 18 28 14 13 17 1 1 0 0 0 0 0 0 0 0 0 0 0 0 0 0 0 0 0 0 0 0 0 0 0 0 0 0 0 0 0 0 0 0 0 0 0 0 0 0 0 0 0 0 0 0 0 0 0 0 0 0 0 0 0 0 0 
0 0 0 0 0 0 0 0 0 0 0 0 0 0 0 0 0 0 0 0 0 0 0 0 0 0 0 0 0 0 1 1 1 0 0 0 0 0 0 1 1 1 15 15 15 24 24 23 14 14 15 57 53 47 91 86 71 27 25 35 0 0 1 7 7 6 2 2 1 0 0 0 0 0 0 0 0 0 0 0 0 0 0 0 0 0 0 0 0 0 0 0 0 0 0 0 0 0 0 0 0 0 0 0 0 0 0 0 0 0 0 0 0 0 0 0 0 
0 0 0 0 0 0 0 0 0 0 0 0 0 0 0 0 0 0 0 0 0 0 0 0 1 1 1 0 0 0 0 0 0 1 1 1 17 17 18 20 20 21 15 15 14 14 13 12 24 21 23 134 126 94 197 187 140 123 116 95 89 83 71 18 18 26 0 1 3 2 2 1 0 0 0 0 0 0 0 0 0 0 0 0 0 0 0 0 0 0 0 0 0 0 0 0 0 0 0 0 0 0 0 0 0 0 0 0 0 0 0 0 0 0 0 0 0 
0 0 0 0 0 0 0 0 0 0 0 0 0 0 0 0 0 0 0 0 0 0 0 0 0 0 0 1 1 1 17 17 18 28 28 29 18 18 19 3 3 3 0 0 0 46 43 35 129 120 83 169 160 121 203 193 153 235 223 176 229 217 170 99 93 80 58 54 49 6 6 9 0 0 0 0 0 0 0 0 0 0 0 0 0 0 0 0 0 0 0 0 0 0 0 0 0 0 0 0 0 0 0 0 0 0 0 0 0 0 0 0 0 0 0 0 0 
0 0 0 0 0 0 0 0 0 0 0 0 0 0 0 0 0 0 0 0 0 1 1 1 19 19 20 29 29 30 20 20 21 4 3 3 0 0 0 2 2 1 49 45 29 97 89 57 146 137 96 180 172 131 218 209 167 242 233 189 241 231 185 224 212 157 180 168 117 44 42 42 0 0 0 1 1 1 0 0 0 0 0 0 0 0 0 0 0 0 0 0 0 0 0 0 0 0 0 0 0 0 0 0 0 0 0 0 0 0 0 0 0 0 0 0 0 
0 0 0 0 0 0 0 0 0 0 0 0 0 0 0 0 0 0 6 6 8 29 29 30 22 22 23 4 4 5 0 0 0 0 0 0 1 1 1 25 23 10 100 90 44 115 105 64 143 134 95 190 180 138 248 237 188 249 246 221 244 237 199 224 211 159 180 169 116 51 49 44 0 0 1 1 1 0 0 0 0 0 0 0 0 0 0 0 0 0 0 0 0 0 0 0 0 0 0 0 0 0 0 0 0 0 0 0 0 0 0 0 0 0 0 0 0 
0 0 0 0 0 0 0 0 0 0 0 0 0 0 0 1 1 0 30 30 34 52 51 57 0 0 0 0 0 0 1 1 1 1 1 1 0 0 0 14 14 12 88 79 44 111 103 61 151 142 99 191 180 138 183 176 144 243 239 216 253 245 204 222 210 154 155 144 102 37 37 50 2 2 3 0 0 0 0 0 0 0 0 0 0 0 0 0 0 0 0 0 0 0 0 0 0 0 0 0 0 0 0 0 0 0 0 0 0 0 0 0 0 0 0 0 0 
0 0 0 0 0 0 0 0 0 0 0 0 0 0 0 0 0 0 37 36 41 34 33 37 0 0 0 0 0 0 0 0 0 1 1 1 0 0 0 14 13 10 88 79 39 121 110 63 104 98 68 43 43 37 9 10 12 138 134 110 250 240 181 205 194 143 180 168 109 61 57 49 1 1 1 3 3 2 2 2 2 2 2 2 1 1 1 0 0 0 0 0 0 0 0 0 0 0 0 0 0 0 0 0 0 0 0 0 0 0 0 0 0 0 0 0 0 
0 0 0 0 0 0 0 0 0 0 0 0 0 0 0 0 0 0 16 15 16 39 38 39 33 32 34 12 12 15 2 2 3 0 0 0 0 0 0 21 19 11 92 82 36 110 98 53 129 120 77 69 65 49 0 0 4 135 128 102 230 217 159 192 181 125 155 143 88 57 54 55 0 0 0 0 0 0 0 0 0 0 0 0 0 0 0 1 1 1 0 0 0 0 0 0 0 0 0 0 0 0 0 0 0 0 0 0 0 0 0 0 0 0 0 0 0 
0 0 0 0 0 0 0 0 0 0 0 0 0 0 0 0 0 0 0 0 0 5 5 4 29 28 27 40 40 40 28 28 30 18 17 20 7 7 9 10 10 10 82 72 28 101 89 40 131 120 70 154 143 95 136 127 94 195 183 131 194 182 127 178 165 105 131 118 71 52 51 65 26 26 30 47 46 49 44 43 46 51 50 53 24 23 25 0 0 0 1 1 1 0 0 0 0 0 0 0 0 0 0 0 0 0 0 0 0 0 0 0 0 0 0 0 0 
0 0 0 0 0 0 0 0 0 0 0 0 0 0 0 0 0 0 0 0 1 0 0 0 0 0 0 11 10 9 29 28 28 29 28 29 20 20 24 38 36 30 84 73 28 97 85 32 114 101 48 138 125 72 169 156 100 169 157 101 164 150 93 157 142 81 137 121 54 71 67 60 120 120 130 116 115 121 115 114 121 121 120 127 105 104 110 18 18 19 1 1 1 1 1 1 0 0 0 0 0 0 0 0 0 0 0 0 0 0 0 0 0 0 0 0 0 
0 0 0 0 0 0 0 0 0 0 0 0 0 0 0 0 0 0 0 0 0 0 0 0 1 1 1 0 0 0 1 1 2 18 17 17 24 24 24 23 22 21 53 47 29 67 61 36 91 81 43 115 104 54 135 121 62 146 132 72 144 130 70 132 118 56 91 80 33 88 87 93 109 108 114 98 97 103 101 100 106 98 97 103 108 106 113 77 76 81 0 0 0 1 1 1 0 0 0 0 0 0 0 0 0 0 0 0 0 0 0 0 0 0 0 0 0 
0 0 0 0 0 0 0 0 0 0 0 0 0 0 0 0 0 0 0 0 0 0 0 0 1 1 1 1 2 2 0 0 0 0 0 0 0 0 0 18 18 16 30 30 34 46 41 24 79 67 19 81 72 36 95 85 49 119 105 50 122 106 42 48 44 36 48 47 56 113 112 119 102 100 106 96 95 101 100 99 105 101 100 106 99 98 104 105 104 110 31 30 33 0 0 0 1 1 1 0 0 0 0 0 0 0 0 0 0 0 0 0 0 0 0 0 0 
0 0 0 0 0 0 0 0 0 0 0 0 0 0 0 0 0 0 1 1 1 1 1 2 0 0 0 0 0 0 10 11 13 26 28 32 46 48 52 70 71 77 89 91 97 74 73 78 56 52 50 86 73 16 97 81 13 60 55 42 60 55 51 48 47 56 58 58 63 94 93 99 84 84 89 89 88 94 94 93 99 96 94 101 95 94 100 102 101 107 80 80 85 0 0 0 1 1 1 0 0 0 0 0 0 0 0 0 0 0 0 0 0 0 0 0 0 
0 0 0 0 0 0 0 0 0 0 0 0 1 1 1 1 1 1 0 0 0 0 0 0 23 24 30 81 85 104 112 118 144 108 115 135 98 105 115 96 97 103 124 124 131 198 197 206 84 84 89 45 41 24 71 64 32 53 51 51 48 47 50 99 98 104 89 90 97 83 84 90 86 87 93 90 89 95 99 99 104 107 106 112 109 108 114 113 111 118 111 111 117 23 24 25 0 0 0 1 1 1 0 0 0 0 0 0 0 0 0 0 0 0 0 0 0 
0 0 0 0 0 0 0 0 0 1 1 1 0 0 0 0 0 0 20 21 24 71 75 89 113 120 144 116 124 148 103 110 128 96 103 118 93 100 114 91 96 106 94 95 100 117 117 122 77 76 73 50 49 47 46 45 44 50 49 42 56 54 47 107 107 115 117 117 128 116 116 124 102 103 109 99 99 105 107 108 116 110 111 118 104 105 114 97 98 107 125 124 133 64 63 69 0 0 0 1 1 1 0 0 0 0 0 0 0 0 0 0 0 0 0 0 0 
0 0 0 0 0 0 0 0 0 0 0 0 13 14 15 59 63 69 101 108 123 111 118 136 104 111 127 103 110 125 106 114 131 107 114 134 113 118 140 116 122 138 117 120 132 117 119 129 110 110 118 108 105 101 112 108 92 107 106 108 109 110 119 119 120 131 118 120 131 116 118 128 112 114 123 117 119 128 118 120 128 102 106 114 122 126 135 127 132 143 162 167 180 125 127 137 10 10 11 0 0 0 1 1 1 0 0 0 0 0 0 0 0 0 0 0 0 
0 0 0 0 0 0 9 8 9 55 54 60 101 105 118 116 122 141 113 119 142 113 119 143 114 121 143 116 122 145 117 122 144 116 121 142 117 122 141 119 124 139 120 123 138 120 124 139 124 130 143 133 141 152 140 149 162 139 149 164 137 146 161 135 143 158 136 142 157 130 133 147 132 132 145 142 140 153 140 138 148 123 118 129 137 128 141 142 130 145 166 147 165 194 177 193 73 68 76 1 2 2 1 1 1 0 0 0 0 0 0 0 0 0 0 0 0 
2 2 2 0 0 0 38 38 40 94 96 105 102 108 126 69 70 86 80 82 97 114 119 135 113 116 130 112 116 129 114 118 132 113 119 132 117 124 137 124 131 145 131 134 149 136 139 154 143 145 160 143 143 158 146 141 157 151 141 157 153 139 156 151 133 152 155 136 157 136 120 136 111 95 105 105 88 99 87 74 83 62 54 60 45 39 43 49 42 48 75 60 69 89 73 82 82 71 81 16 17 19 0 0 0 1 1 1 0 0 0 0 0 0 0 0 0 
2 2 2 0 0 0 65 64 66 83 88 99 91 98 116 55 57 69 80 84 96 118 123 137 113 116 129 119 120 132 126 123 137 139 130 147 154 138 156 162 141 162 155 132 152 142 120 138 147 122 140 170 135 158 175 143 167 176 149 182 137 115 146 132 118 146 126 121 155 70 63 78 0 0 0 0 0 0 0 0 0 0 0 0 0 0 0 0 0 0 0 0 0 0 0 0 17 17 21 16 15 18 0 0 0 0 0 0 0 0 0 0 0 0 0 0 0 
0 0 0 3 3 3 80 78 85 82 78 94 121 109 133 63 57 67 112 100 115 166 140 165 173 141 172 184 145 178 181 140 173 158 120 147 117 89 105 73 56 67 29 23 26 7 5 6 6 4 6 35 31 38 56 53 59 73 68 83 78 65 83 67 53 67 18 15 21 10 9 9 2 2 2 2 2 2 3 2 2 2 2 2 2 2 2 2 2 2 3 2 3 3 2 3 4 4 5 1 1 1 0 0 0 0 0 0 0 0 0 0 0 0 0 0 0 
0 0 0 15 14 14 125 107 127 194 160 199 240 195 241 101 87 106 188 152 195 216 167 216 177 134 173 128 95 121 72 53 66 25 18 23 0 0 0 0 0 0 0 0 0 0 0 0 0 0 0 0 0 0 0 0 0 0 0 0 0 0 0 0 0 0 0 0 0 0 0 0 0 0 0 0 0 0 0 0 0 0 0 0 0 0 0 0 0 0 0 0 0 0 0 0 0 0 0 0 0 0 0 0 0 0 0 0 0 0 0 0 0 0 0 0 0 
1 1 1 4 3 3 32 28 31 110 100 121 174 145 184 145 110 140 113 87 106 84 64 77 43 35 38 2 2 0 0 0 0 0 0 0 0 1 0 2 2 2 1 1 1 0 0 0 0 0 0 2 1 2 2 2 2 2 2 3 2 2 2 2 1 2 1 1 1 0 0 0 0 0 0 0 0 0 0 0 0 0 0 0 0 0 0 0 0 0 0 0 0 0 0 0 0 0 0 0 0 0 0 0 0 0 0 0 0 0 0 0 0 0 0 0 0 
0 0 0 0 0 0 0 0 0 0 0 0 10 9 11 6 4 5 0 0 0 0 0 0 0 0 0 0 0 0 2 1 2 1 1 1 0 0 0 0 0 0 0 0 0 0 0 0 0 0 0 0 0 0 0 0 0 0 0 0 0 0 0 0 0 0 0 0 0 0 0 0 0 0 0 0 0 0 0 0 0 0 0 0 0 0 0 0 0 0 0 0 0 0 0 0 0 0 0 0 0 0 0 0 0 0 0 0 0 0 0 0 0 0 0 0 0 
0 0 0 0 0 0 1 1 1 0 0 0 0 0 0 0 0 0 0 0 0 1 1 1 2 1 2 0 0 0 0 0 0 0 0 0 0 0 0 0 0 0 0 0 0 0 0 0 0 0 0 0 0 0 0 0 0 0 0 0 0 0 0 0 0 0 0 0 0 0 0 0 0 0 0 0 0 0 0 0 0 0 0 0 0 0 0 0 0 0 0 0 0 0 0 0 0 0 0 0 0 0 0 0 0 0 0 0 0 0 0 0 0 0 0 0 0 
0 0 0 0 0 0 0 0 0 0 0 0 1 1 1 1 0 0 0 0 0 0 0 0 0 0 0 0 0 0 0 0 0 0 0 0 0 0 0 0 0 0 0 0 0 0 0 0 0 0 0 0 0 0 0 0 0 0 0 0 0 0 0 0 0 0 0 0 0 0 0 0 0 0 0 0 0 0 0 0 0 0 0 0 0 0 0 0 0 0 0 0 0 0 0 0 0 0 0 0 0 0 0 0 0 0 0 0 0 0 0 0 0 0 0 0 0 
