P3
48 38
255
0 0 0 0 0 0 0 0 0 0 0 0 0 0 0 0 0 0 0 0 0 0 0 0 0 0 0 0 0 0 0 0 0 0 0 0 0 0 0 0 0 0 0 0 0 0 0 0 0 0 0 0 0 0 0 0 0 0 0 0 0 0 0 0 0 0 0 0 0 0 0 0 0 0 0 0 0 0 0 0 0 0 0 0 0 0 0 0 0 0 0 0 0 0 0 0 0 0 0 0 0 0 0 0 0 0 0 0 0 0 0 0 0 0 0 0 0 0 0 0 0 0 0 0 0 0 0 0 0 0 0 0 0 0 0 0 0 0 0 0 0 0 0 0 
0 0 0 0 0 0 0 0 0 0 0 0 0 0 0 0 0 0 0 0 0 0 0 0 0 0 0 0 0 0 0 0 0 0 0 0 0 0 0 0 0 0 0 0 0 0 0 0 0 0 0 0 0 0 0 0 0 0 0 0 0 0 0 0 0 0 0 0 0 0 0 0 0 0 0 0 0 0 0 0 0 0 0 0 0 0 0 0 0 0 0 0 0 0 0 0 0 0 0 0 0 0 0 0 0 0 0 0 0 0 0 0 0 0 0 0 0 0 0 0 0 0 0 0 0 0 0 0 0 0 0 0 0 0 0 0 0 0 0 0 0 0 0 0 
0 0 0 0 0 0 0 0 0 0 0 0 0 0 0 0 0 0 0 0 0 0 0 0 0 0 0 0 0 0 0 0 0 0 0 0 0 0 0 0 0 0 0 0 0 0 0 0 0 0 0 0 0 0 0 0 0 0 0 0 0 0 0 0 0 0 0 0 0 0 0 0 0 0 0 0 0 0 0 0 0 0 0 0 0 0 0 0 0 0 0 0 0 0 0 0 0 0 0 0 0 0 0 0 0 0 0 0 0 0 0 0 0 0 0 0 0 0 0 0 0 0 0 0 0 0 0 0 0 0 0 0 0 0 0 0 0 0 0 0 0 0 0 0 
0 0 0 0 0 0 0 0 0 0 0 0 0 0 0 0 0 0 0 0 0 0 0 0 0 0 0 0 0 0 0 0 0 0 0 0 0 0 0 0 0 0 0 0 0 0 0 0 0 0 0 0 0 0 0 0 0 1 1 1 2 2 2 0 0 0 0 0 0 0 0 0 0 0 0 0 0 0 0 0 0 0 0 0 0 0 0 0 0 0 0 0 0 0 0 0 0 0 0 0 0 0 0 0 0 0 0 0 0 0 0 0 0 0 0 0 0 0 0 0 0 0 0 0 0 0 0 0 0 0 0 0 0 0 0 0 0 0 0 0 0 0 0 0 
0 0 0 0 0 0 0 0 0 0 0 0 0 0 0 0 0 0 0 0 0 0 0 0 0 0 0 0 0 0 0 0 0 0 0 0 0 0 0 0 0 0 0 0 0 0 0 0 0 0 0 0 0 0 0 0 0 3 3 3 6 6 6 0 0 0 0 0 0 1 1 1 0 0 0 0 0 0 0 0 0 0 0 0 0 0 0 0 0 0 0 0 0 0 0 0 0 0 0 0 0 0 0 0 0 0 0 0 0 0 0 0 0 0 0 0 0 0 0 0 0 0 0 0 0 0 0 0 0 0 0 0 0 0 0 0 0 0 0 0 0 0 0 0 
0 0 0 0 0 0 0 0 0 0 0 0 0 0 0 0 0 0 0 0 0 0 0 0 0 0 0 0 0 0 0 0 0 0 0 0 0 0 0 0 0 0 0 0 0 0 0 0 0 0 0 0 0 0 0 0 0 0 0 0 0 0 0 0 0 0 0 0 0 0 0 0 0 0 0 0 0 0 0 0 0 0 0 0 0 0 0 0 0 0 0 0 0 0 0 0 0 0 0 0 0 0 0 0 0 0 0 0 0 0 0 0 0 0 0 0 0 0 0 0 0 0 0 0 0 0 0 0 0 0 0 0 0 0 0 0 0 0 0 0 0 0 0 0 
0 0 0 0 0 0 0 0 0 0 0 0 0 0 0 0 0 0 0 0 0 0 0 0 0 0 0 0 0 0 0 0 0 0 0 0 0 0 0 0 0 0 0 0 0 0 0 0 0 0 0 0 0 0 0 0 0 0 0 0 9 9 10 23 23 23 22 21 26 16 14 20 0 0 0 1 1 1 0 0 0 0 0 0 0 0 0 0 0 0 0 0 0 0 0 0 0 0 0 0 0 0 0 0 0 0 0 0 0 0 0 0 0 0 0 0 0 0 0 0 0 0 0 0 0 0 0 0 0 0 0 0 0 0 0 0 0 0 0 0 0 0 0 0 
0 0 0 0 0 0 0 0 0 0 0 0 0 0 0 0 0 0 0 0 0 0 0 0 0 0 0 0 0 0 0 0 0 0 0 0 0 0 0 0 0 0 0 0 0 0 0 0 0 0 0 0 0 0 8 8 9 24 24 24 28 28 27 35 34 39 34 33 34 42 40 53 10 10 13 0 0 0 0 0 1 0 0 0 0 0 0 0 0 0 0 0 0 0 0 0 0 0 0 0 0 0 0 0 0 0 0 0 0 0 0 0 0 0 0 0 0 0 0 0 0 0 0 0 0 0 0 0 0 0 0 0 0 0 0 0 0 0 0 0 0 0 0 0 
0 0 0 0 0 0 0 0 0 0 0 0 0 0 0 0 0 0 0 0 0 0 0 0 0 0 0 0 0 0 0 0 0 0 0 0 0 0 0 0 0 0 0 0 0 0 0 0 6 6 6 22 22 22 29 29 29 14 13 12 0 0 5 89 82 64 168 160 116 86 82 71 20 17 24 13 13 15 16 16 15 4 3 2 0 0 0 0 0 0 0 0 0 0 0 0 0 0 0 0 0 0 0 0 0 0 0 0 0 0 0 0 0 0 0 0 0 0 0 0 0 0 0 0 0 0 0 0 0 0 0 0 0 0 0 0 0 0 0 0 0 0 0 0 
0 0 0 0 0 0 0 0 0 0 0 0 0 0 0 0 0 0 0 0 0 0 0 0 0 0 0 0 0 0 0 0 0 1 1 1 0 0 0 0 0 0 10 10 10 28 28 30 22 22 24 8 8 7 1 1 1 30 27 25 52 47 43 148 140 104 193 183 139 184 175 137 156 146 116 119 112 94 18 17 29 7 7 12 4 3 3 1 1 1 0 0 0 0 0 0 0 0 0 0 0 0 0 0 0 0 0 0 0 0 0 0 0 0 0 0 0 0 0 0 0 0 0 0 0 0 0 0 0 0 0 0 0 0 0 0 0 0 0 0 0 0 0 0 
0 0 0 0 0 0 0 0 0 0 0 0 0 0 0 0 0 0 0 0 0 0 0 0 0 0 0 1 1 1 0 0 0 0 0 0 11 11 11 29 29 31 31 31 32 12 12 12 0 0 0 0 0 0 9 9 15 88 82 57 143 134 91 169 161 121 198 189 149 222 211 168 243 231 182 219 208 163 91 86 74 77 72 61 20 19 23 0 0 0 0 0 0 0 0 0 0 0 0 0 0 0 0 0 0 0 0 0 0 0 0 0 0 0 0 0 0 0 0 0 0 0 0 0 0 0 0 0 0 0 0 0 0 0 0 0 0 0 0 0 0 0 0 0 
0 0 0 0 0 0 0 0 0 0 0 0 0 0 0 0 0 0 0 0 0 0 0 0 0 0 0 0 0 0 11 11 12 29 29 30 31 31 32 13 13 14 0 0 0 0 0 0 0 0 0 28 26 19 61 56 40 115 107 68 149 140 101 179 170 129 210 201 159 236 225 181 246 236 190 237 226 178 220 208 155 194 182 123 80 77 68 5 6 12 0 0 0 0 0 1 0 0 0 0 0 0 0 0 0 0 0 0 0 0 0 0 0 0 0 0 0 0 0 0 0 0 0 0 0 0 0 0 0 0 0 0 0 0 0 0 0 0 0 0 0 0 0 0 
0 0 0 0 0 0 0 0 0 0 0 0 0 0 0 0 0 0 0 0 0 0 0 0 5 5 5 26 26 26 34 34 35 15 15 16 0 0 0 0 0 0 1 1 1 0 0 0 8 7 3 82 74 35 107 96 53 122 113 73 149 140 101 184 175 133 224 214 170 244 237 196 244 241 211 242 232 184 218 207 158 199 186 129 112 104 74 4 5 13 0 0 0 1 1 1 0 0 0 0 0 0 0 0 0 0 0 0 0 0 0 0 0 0 0 0 0 0 0 0 0 0 0 0 0 0 0 0 0 0 0 0 0 0 0 0 0 0 0 0 0 0 0 0 
0 0 0 0 0 0 0 0 0 0 0 0 0 0 0 0 0 0 0 0 0 2 2 2 39 38 45 38 38 40 0 0 0 0 0 0 0 0 0 0 0 0 1 1 0 0 0 0 15 14 8 87 79 39 101 92 52 123 114 73 155 146 104 194 184 141 241 229 180 255 251 217 251 249 236 246 236 190 220 208 156 186 176 120 66 62 59 17 18 27 0 0 0 1 1 1 0 0 0 0 0 0 0 0 0 0 0 0 0 0 0 0 0 0 0 0 0 0 0 0 0 0 0 0 0 0 0 0 0 0 0 0 0 0 0 0 0 0 0 0 0 0 0 0 
0 0 0 0 0 0 0 0 0 0 0 0 0 0 0 1 1 1 0 0 0 17 17 18 50 48 56 44 42 46 1 1 1 2 2 2 0 0 0 0 0 0 0 0 0 0 0 0 0 0 6 65 59 38 105 95 51 121 112 70 150 140 100 168 159 123 117 113 94 158 155 136 255 255 221 243 231 181 213 201 149 184 171 116 71 68 66 19 20 30 0 0 0 1 1 1 0 0 0 0 0 0 0 0 0 0 0 0 0 0 0 0 0 0 0 0 0 0 0 0 0 0 0 0 0 0 0 0 0 0 0 0 0 0 0 0 0 0 0 0 0 0 0 0 
0 0 0 0 0 0 0 0 0 0 0 0 0 0 0 1 1 1 0 0 0 17 17 19 43 42 49 20 20 21 0 0 0 0 0 0 0 0 0 1 1 1 1 1 1 0 0 0 7 7 6 79 71 34 102 92 47 132 120 74 77 73 53 15 17 18 12 12 11 25 25 27 219 212 162 233 221 164 204 193 142 188 176 114 118 110 75 7 6 14 0 0 0 1 1 1 1 1 1 1 1 1 1 1 1 0 0 0 0 0 0 0 0 0 0 0 0 0 0 0 0 0 0 0 0 0 0 0 0 0 0 0 0 0 0 0 0 0 0 0 0 0 0 0 
0 0 0 0 0 0 0 0 0 0 0 0 0 0 0 0 0 0 0 0 0 6 6 7 30 30 30 45 44 46 31 29 33 12 11 15 2 2 3 0 0 0 0 0 0 1 0 1 13 11 9 85 77 32 101 89 43 118 107 61 131 122 80 72 68 50 0 0 6 38 38 37 216 205 156 214 203 147 191 181 126 173 159 98 88 81 63 24 25 35 0 0 0 0 0 0 0 0 0 0 0 0 0 0 0 1 1 1 0 0 0 0 0 0 0 0 0 0 0 0 0 0 0 0 0 0 0 0 0 0 0 0 0 0 0 0 0 0 0 0 0 0 0 0 
0 0 0 0 0 0 0 0 0 0 0 0 0 0 0 0 0 0 0 0 0 0 0 0 0 0 0 16 15 13 41 40 38 43 42 43 28 27 31 20 19 23 8 8 9 0 0 0 0 0 3 63 56 30 97 86 35 108 97 50 142 131 79 155 145 98 94 88 71 151 142 107 215 202 146 194 182 129 178 167 108 150 136 78 63 60 68 31 32 44 0 0 0 16 16 17 15 15 16 15 15 16 15 15 16 0 0 0 1 1 1 0 0 0 0 0 0 0 0 0 0 0 0 0 0 0 0 0 0 0 0 0 0 0 0 0 0 0 0 0 0 0 0 0 
0 0 0 0 0 0 0 0 0 0 0 0 0 0 0 0 0 0 0 0 0 0 0 0 0 0 0 0 0 0 2 2 1 22 22 19 35 34 33 28 28 30 25 25 28 25 25 28 25 24 25 78 69 23 94 81 27 104 92 41 120 108 59 144 131 81 179 166 109 186 174 118 177 165 110 173 159 101 162 147 91 150 135 70 85 77 54 65 65 79 121 119 125 114 113 119 107 106 113 114 113 119 116 115 122 44 43 46 0 0 0 1 1 1 0 0 0 0 0 0 0 0 0 0 0 0 0 0 0 0 0 0 0 0 0 0 0 0 0 0 0 0 0 0 
0 0 0 0 0 0 0 0 0 0 0 0 0 0 0 0 0 0 0 0 0 0 0 0 0 0 0 1 1 0 0 0 0 0 0 0 8 8 8 28 28 28 29 28 28 15 14 16 26 25 25 68 60 35 81 71 32 96 86 36 115 102 47 129 116 62 142 130 77 152 140 86 160 146 88 154 140 81 147 132 70 141 124 51 74 66 38 102 101 113 111 110 114 97 96 102 107 106 112 106 105 112 105 104 111 109 108 113 23 23 24 0 0 0 1 1 1 0 0 0 0 0 0 0 0 0 0 0 0 0 0 0 0 0 0 0 0 0 0 0 0 0 0 0 
0 0 0 0 0 0 0 0 0 0 0 0 0 0 0 0 0 0 0 0 0 0 0 0 0 0 0 0 0 0 0 0 0 1 1 1 0 0 0 0 0 0 14 14 14 29 29 29 20 20 21 44 38 23 49 45 32 67 60 37 83 75 44 109 97 51 129 115 56 140 125 62 141 127 68 137 122 61 117 104 51 87 76 31 72 70 75 116 115 123 102 101 107 105 104 110 101 100 106 101 100 106 99 98 103 106 105 111 78 77 83 0 0 0 1 1 1 0 0 0 0 0 0 0 0 0 0 0 0 0 0 0 0 0 0 0 0 0 0 0 0 0 0 0 
0 0 0 0 0 0 0 0 0 0 0 0 0 0 0 0 0 0 0 0 0 0 0 0 0 0 0 0 0 0 0 0 0 1 1 1 2 2 2 1 1 1 0 0 0 0 0 0 12 12 11 31 30 31 31 30 38 70 60 18 83 71 19 75 68 35 86 77 48 107 96 51 128 112 46 113 98 38 39 38 40 39 38 50 101 99 107 112 111 118 95 94 100 94 93 99 99 98 104 102 101 107 101 100 106 100 99 105 106 105 110 32 32 34 0 0 0 1 1 1 0 0 0 0 0 0 0 0 0 0 0 0 0 0 0 0 0 0 0 0 0 0 0 0 
0 0 0 0 0 0 0 0 0 0 0 0 0 0 0 0 0 0 0 0 0 0 0 0 0 0 0 1 1 1 1 1 2 0 0 0 0 0 0 0 0 0 14 14 16 35 36 39 55 57 63 77 79 83 65 65 70 45 43 44 56 51 42 92 79 15 101 84 13 75 66 30 61 56 46 66 60 48 40 40 50 40 40 43 97 96 102 90 89 95 86 86 92 91 90 96 95 94 100 96 95 101 96 95 101 93 92 98 100 99 105 81 80 86 1 1 1 1 1 0 0 0 0 0 0 0 0 0 0 0 0 0 0 0 0 0 0 0 0 0 0 0 0 0 
0 0 0 0 0 0 0 0 0 0 0 0 0 0 0 0 0 0 0 0 0 1 1 1 1 1 2 0 0 0 0 0 0 28 29 36 79 83 100 92 98 117 97 104 119 94 99 107 99 98 105 119 119 127 158 159 168 172 170 180 51 52 61 60 53 27 88 74 13 68 60 38 44 43 55 50 49 56 96 95 101 80 80 85 77 77 83 80 81 86 84 84 89 88 86 93 93 92 98 98 97 102 103 102 107 107 106 112 111 109 116 115 115 121 25 26 27 0 0 0 1 1 1 0 0 0 0 0 0 0 0 0 0 0 0 0 0 0 0 0 0 0 0 0 
0 0 0 0 0 0 0 0 0 0 0 0 0 0 0 1 1 1 1 1 1 0 0 0 0 0 0 24 25 30 81 85 103 121 127 157 123 130 158 112 119 142 101 109 128 93 101 113 87 91 98 92 93 98 133 132 139 172 172 176 50 49 42 43 43 39 48 48 44 49 48 46 52 51 44 54 52 46 111 110 119 101 103 112 104 105 113 99 99 107 96 96 101 97 96 102 106 107 113 115 115 121 112 113 118 106 105 114 102 102 109 112 111 118 67 66 71 2 2 2 1 1 1 0 0 0 0 0 0 0 0 0 0 0 0 0 0 0 0 0 0 0 0 0 
0 0 0 0 0 0 0 0 0 1 0 1 1 1 1 0 0 0 0 0 0 23 24 29 72 76 89 112 119 140 116 124 148 104 111 130 98 105 119 95 102 114 94 101 114 95 101 115 98 104 116 101 104 111 103 102 108 97 97 103 79 79 79 67 65 63 56 53 45 59 57 48 57 56 51 71 70 68 115 114 124 117 117 128 121 122 131 110 112 119 100 102 108 101 101 109 106 107 116 104 106 114 106 107 115 105 106 117 104 105 115 143 143 153 103 101 111 17 17 18 0 0 0 1 1 1 0 0 0 0 0 0 0 0 0 0 0 0 0 0 0 0 0 0 
0 0 0 0 0 0 1 1 1 0 0 0 0 0 0 16 17 18 59 64 69 99 106 118 107 115 131 101 108 123 101 107 121 105 111 127 109 115 133 110 118 138 112 118 141 118 124 147 120 127 144 117 121 134 122 125 138 123 124 133 111 111 120 114 112 108 122 119 101 121 119 114 113 115 124 118 120 131 119 120 132 116 118 130 118 120 131 115 116 126 119 120 131 124 125 135 127 127 135 111 114 121 111 115 123 134 138 149 131 136 148 160 165 178 160 163 176 52 51 57 0 0 0 1 1 1 0 0 0 0 0 0 0 0 0 0 0 0 0 0 0 0 0 0 
0 0 0 1 1 1 1 1 1 17 17 18 58 58 64 101 105 117 115 122 140 116 121 144 115 122 146 117 123 149 117 124 150 118 125 150 119 125 149 117 122 144 116 122 142 116 121 139 116 121 136 117 121 136 117 120 135 119 123 136 126 130 143 133 139 151 139 147 160 140 148 164 140 148 163 138 147 162 138 146 161 138 146 162 131 138 153 121 127 138 126 129 141 130 133 144 130 131 140 120 119 128 119 113 124 147 137 151 138 126 142 158 141 158 197 180 197 130 123 133 11 12 15 0 0 0 1 1 1 0 0 0 0 0 0 0 0 0 0 0 0 0 0 0 
0 0 0 2 2 2 0 0 0 72 71 75 91 92 103 107 112 130 92 96 115 69 69 83 108 112 132 109 113 129 111 114 128 108 111 124 111 114 128 114 117 131 115 118 132 118 124 137 126 131 145 130 135 149 128 134 148 127 137 150 132 141 154 135 143 157 136 143 156 142 145 159 141 141 156 145 141 157 143 134 149 149 133 150 148 131 147 141 125 138 141 122 137 143 122 137 132 114 128 107 95 105 89 77 86 81 72 79 91 78 88 124 100 116 133 110 124 131 111 125 61 57 64 3 3 3 1 1 1 0 0 0 0 0 0 0 0 0 0 0 0 0 0 0 
0 0 0 0 0 0 3 3 3 86 86 90 77 80 91 96 101 119 70 73 89 45 45 52 108 114 129 116 120 135 117 122 137 118 123 138 118 124 139 117 122 136 121 125 139 128 130 145 134 133 149 142 136 153 151 139 157 161 146 165 167 147 167 167 143 162 170 140 161 169 139 163 171 140 166 148 120 143 150 129 154 148 134 164 135 124 150 49 41 46 27 21 24 12 9 11 3 2 2 0 0 0 0 0 0 0 0 0 0 0 0 0 0 0 0 0 0 14 11 14 38 36 42 10 10 13 0 0 0 0 0 0 0 0 0 0 0 0 0 0 0 0 0 0 
1 1 1 0 0 0 24 23 23 99 99 106 74 79 93 96 101 119 72 73 87 56 56 66 122 123 137 119 115 129 122 115 128 129 119 132 139 124 140 151 130 150 163 136 157 167 136 157 165 133 156 145 117 135 111 88 102 92 74 86 101 81 93 140 109 130 151 127 150 157 138 160 152 139 181 107 90 117 120 111 140 92 90 119 67 60 77 16 15 16 0 0 0 0 0 0 0 0 0 1 1 1 2 1 2 2 2 2 2 2 2 2 2 2 1 1 1 5 5 7 22 21 27 1 1 1 0 0 0 0 0 0 0 0 0 0 0 0 0 0 0 0 0 0 
2 2 2 0 0 0 49 50 52 86 81 93 92 82 101 139 119 149 91 75 89 68 63 73 171 142 165 176 143 176 192 153 191 196 152 193 190 144 184 167 126 159 130 97 119 83 62 74 38 29 36 4 3 3 0 0 0 0 0 0 0 0 0 4 6 9 20 23 25 32 29 33 48 43 53 63 47 57 46 33 41 2 0 0 0 0 0 4 4 4 1 1 1 1 1 1 0 0 0 0 0 0 0 0 0 0 0 0 0 0 0 0 0 0 0 0 0 0 0 0 0 0 0 0 0 0 0 0 0 0 0 0 0 0 0 0 0 0 0 0 0 0 0 0 
2 2 2 0 0 0 84 73 83 159 133 163 214 175 218 247 202 247 115 100 123 120 103 129 240 192 243 204 156 206 174 131 171 136 101 128 87 64 78 40 29 36 8 6 7 0 0 0 0 0 0 0 0 0 2 2 2 3 2 3 2 2 2 0 0 0 0 0 0 0 0 0 0 0 0 0 0 0 0 0 0 0 0 0 1 1 1 0 0 0 0 0 0 0 0 0 0 0 0 0 0 0 0 0 0 0 0 0 0 0 0 0 0 0 0 0 0 0 0 0 0 0 0 0 0 0 0 0 0 0 0 0 0 0 0 0 0 0 0 0 0 0 0 0 
0 0 0 3 3 3 22 17 19 74 67 76 150 135 164 202 173 211 180 139 180 141 107 130 129 98 123 98 74 87 64 51 57 15 12 13 0 0 0 0 0 0 0 0 0 2 1 2 2 1 2 0 0 0 0 0 0 0 0 0 0 0 0 0 0 1 1 1 1 1 1 1 2 2 2 2 2 2 2 1 2 0 0 0 0 0 0 0 0 0 0 0 0 0 0 0 0 0 0 0 0 0 0 0 0 0 0 0 0 0 0 0 0 0 0 0 0 0 0 0 0 0 0 0 0 0 0 0 0 0 0 0 0 0 0 0 0 0 0 0 0 0 0 0 
0 0 0 1 1 1 0 0 0 1 1 0 25 21 27 44 37 51 52 40 50 24 18 21 23 18 22 7 6 8 0 0 0 0 0 0 1 1 1 2 1 2 1 0 0 0 0 0 0 0 0 0 0 0 0 0 0 0 0 0 0 0 0 0 0 0 0 0 0 0 0 0 0 0 0 0 0 0 0 0 0 0 0 0 0 0 0 0 0 0 0 0 0 0 0 0 0 0 0 0 0 0 0 0 0 0 0 0 0 0 0 0 0 0 0 0 0 0 0 0 0 0 0 0 0 0 0 0 0 0 0 0 0 0 0 0 0 0 0 0 0 0 0 0 
0 0 0 0 0 0 1 1 1 0 0 0 0 0 0 0 0 0 0 0 0 0 0 0 0 0 0 0 0 0 2 1 1 1 1 1 0 0 0 0 0 0 0 0 0 0 0 0 0 0 0 0 0 0 0 0 0 0 0 0 0 0 0 0 0 0 0 0 0 0 0 0 0 0 0 0 0 0 0 0 0 0 0 0 0 0 0 0 0 0 0 0 0 0 0 0 0 0 0 0 0 0 0 0 0 0 0 0 0 0 0 0 0 0 0 0 0 0 0 0 0 0 0 0 0 0 0 0 0 0 0 0 0 0 0 0 0 0 0 0 0 0 0 0 
0 0 0 0 0 0 0 0 0 0 0 0 1 1 1 1 1 2 2 2 2 1 1 1 1 1 1 0 0 0 0 0 0 0 0 0 0 0 0 0 0 0 0 0 0 0 0 0 0 0 0 0 0 0 0 0 0 0 0 0 0 0 0 0 0 0 0 0 0 0 0 0 0 0 0 0 0 0 0 0 0 0 0 0 0 0 0 0 0 0 0 0 0 0 0 0 0 0 0 0 0 0 0 0 0 0 0 0 0 0 0 0 0 0 0 0 0 0 0 0 0 0 0 0 0 0 0 0 0 0 0 0 0 0 0 0 0 0 0 0 0 0 0 0 
0 0 0 0 0 0 0 0 0 0 0 0 0 0 0 0 0 0 0 0 0 0 0 0 0 0 0 0 0 0 0 0 0 0 0 0 0 0 0 0 0 0 0 0 0 0 0 0 0 0 0 0 0 0 0 0 0 0 0 0 0 0 0 0 0 0 0 0 0 0 0 0 0 0 0 0 0 0 0 0 0 0 0 0 0 0 0 0 0 0 0 0 0 0 0 0 0 0 0 0 0 0 0 0 0 0 0 0 0 0 0 0 0 0 0 0 0 0 0 0 0 0 0 0 0 0 0 0 0 0 0 0 0 0 0 0 0 0 0 0 0 0 0 0 
