P3
60 48
255
0 0 0 0 0 0 0 0 0 0 0 0 0 0 0 0 0 0 0 0 0 0 0 0 0 0 0 0 0 0 0 0 0 0 0 0 0 0 0 0 0 0 0 0 0 0 0 0 0 0 0 0 0 0 0 0 0 0 0 0 0 0 0 0 0 0 0 0 0 0 0 0 0 0 0 0 0 0 0 0 0 0 0 0 0 0 0 0 0 0 0 0 0 0 0 0 0 0 0 0 0 0 0 0 0 0 0 0 0 0 0 0 0 0 0 0 0 0 0 0 0 0 0 0 0 0 0 0 0 0 0 0 0 0 0 0 0 0 0 0 0 0 0 0 0 0 0 0 0 0 0 0 0 0 0 0 0 0 0 0 0 0 0 0 0 0 0 0 0 0 0 0 0 0 0 0 0 0 0 0 
0 0 0 0 0 0 0 0 0 0 0 0 0 0 0 0 0 0 0 0 0 0 0 0 0 0 0 0 0 0 0 0 0 0 0 0 0 0 0 0 0 0 0 0 0 0 0 0 0 0 0 0 0 0 0 0 0 0 0 0 0 0 0 0 0 0 0 0 0 0 0 0 0 0 0 0 0 0 0 0 0 0 0 0 0 0 0 0 0 0 0 0 0 0 0 0 0 0 0 0 0 0 0 0 0 0 0 0 0 0 0 0 0 0 0 0 0 0 0 0 0 0 0 0 0 0 0 0 0 0 0 0 0 0 0 0 0 0 0 0 0 0 0 0 0 0 0 0 0 0 0 0 0 0 0 0 0 0 0 0 0 0 0 0 0 0 0 0 0 0 0 0 0 0 0 0 0 0 0 0 
0 0 0 0 0 0 0 0 0 0 0 0 0 0 0 0 0 0 0 0 0 0 0 0 0 0 0 0 0 0 0 0 0 0 0 0 0 0 0 0 0 0 0 0 0 0 0 0 0 0 0 0 0 0 0 0 0 0 0 0 0 0 0 0 0 0 0 0 0 0 0 0 0 0 0 0 0 0 0 0 0 0 0 0 0 0 0 0 0 0 0 0 0 0 0 0 0 0 0 0 0 0 0 0 0 0 0 0 0 0 0 0 0 0 0 0 0 0 0 0 0 0 0 0 0 0 0 0 0 0 0 0 0 0 0 0 0 0 0 0 0 0 0 0 0 0 0 0 0 0 0 0 0 0 0 0 0 0 0 0 0 0 0 0 0 0 0 0 0 0 0 0 0 0 0 0 0 0 0 0 
0 0 0 0 0 0 0 0 0 0 0 0 0 0 0 0 0 0 0 0 0 0 0 0 0 0 0 0 0 0 0 0 0 0 0 0 0 0 0 0 0 0 0 0 0 0 0 0 0 0 0 0 0 0 0 0 0 0 0 0 0 0 0 0 0 0 0 0 0 0 0 0 0 0 0 0 0 0 0 0 0 0 0 0 0 0 0 0 0 0 0 0 0 0 0 0 0 0 0 0 0 0 0 0 0 0 0 0 0 0 0 0 0 0 0 0 0 0 0 0 0 0 0 0 0 0 0 0 0 0 0 0 0 0 0 0 0 0 0 0 0 0 0 0 0 0 0 0 0 0 0 0 0 0 0 0 0 0 0 0 0 0 0 0 0 0 0 0 0 0 0 0 0 0 0 0 0 0 0 0 
0 0 0 0 0 0 0 0 0 0 0 0 0 0 0 0 0 0 0 0 0 0 0 0 0 0 0 0 0 0 0 0 0 0 0 0 0 0 0 0 0 0 0 0 0 0 0 0 0 0 0 0 0 0 0 0 0 0 0 0 0 0 0 0 0 0 0 0 0 0 0 0 1 1 1 3 3 3 0 0 0 0 0 0 0 0 0 0 0 0 0 0 0 0 0 0 0 0 0 0 0 0 0 0 0 0 0 0 0 0 0 0 0 0 0 0 0 0 0 0 0 0 0 0 0 0 0 0 0 0 0 0 0 0 0 0 0 0 0 0 0 0 0 0 0 0 0 0 0 0 0 0 0 0 0 0 0 0 0 0 0 0 0 0 0 0 0 0 0 0 0 0 0 0 0 0 0 0 0 0 
0 0 0 0 0 0 0 0 0 0 0 0 0 0 0 0 0 0 0 0 0 0 0 0 0 0 0 0 0 0 0 0 0 0 0 0 0 0 0 0 0 0 0 0 0 0 0 0 0 0 0 0 0 0 0 0 0 0 0 0 0 0 0 0 0 0 0 0 0 0 0 0 3 3 3 10 10 10 0 0 0 0 0 0 0 0 0 0 0 0 0 0 0 0 0 0 0 0 0 0 0 0 0 0 0 0 0 0 0 0 0 0 0 0 0 0 0 0 0 0 0 0 0 0 0 0 0 0 0 0 0 0 0 0 0 0 0 0 0 0 0 0 0 0 0 0 0 0 0 0 0 0 0 0 0 0 0 0 0 0 0 0 0 0 0 0 0 0 0 0 0 0 0 0 0 0 0 0 0 0 
0 0 0 0 0 0 0 0 0 0 0 0 0 0 0 0 0 0 0 0 0 0 0 0 0 0 0 0 0 0 0 0 0 0 0 0 0 0 0 0 0 0 0 0 0 0 0 0 0 0 0 0 0 0 0 0 0 0 0 0 0 0 0 0 0 0 0 0 0 0 0 0 0 0 0 3 3 3 1 1 1 0 0 0 0 0 0 1 1 1 0 0 0 0 0 0 0 0 0 0 0 0 0 0 0 0 0 0 0 0 0 0 0 0 0 0 0 0 0 0 0 0 0 0 0 0 0 0 0 0 0 0 0 0 0 0 0 0 0 0 0 0 0 0 0 0 0 0 0 0 0 0 0 0 0 0 0 0 0 0 0 0 0 0 0 0 0 0 0 0 0 0 0 0 0 0 0 0 0 0 
0 0 0 0 0 0 0 0 0 0 0 0 0 0 0 0 0 0 0 0 0 0 0 0 0 0 0 0 0 0 0 0 0 0 0 0 0 0 0 0 0 0 0 0 0 0 0 0 0 0 0 0 0 0 0 0 0 0 0 0 0 0 0 0 0 0 0 0 0 0 0 0 0 0 0 1 1 1 1 1 1 8 8 8 3 3 3 0 0 0 0 0 1 0 0 0 0 0 0 0 0 0 0 0 0 0 0 0 0 0 0 0 0 0 0 0 0 0 0 0 0 0 0 0 0 0 0 0 0 0 0 0 0 0 0 0 0 0 0 0 0 0 0 0 0 0 0 0 0 0 0 0 0 0 0 0 0 0 0 0 0 0 0 0 0 0 0 0 0 0 0 0 0 0 0 0 0 0 0 0 
0 0 0 0 0 0 0 0 0 0 0 0 0 0 0 0 0 0 0 0 0 0 0 0 0 0 0 0 0 0 0 0 0 0 0 0 0 0 0 0 0 0 0 0 0 0 0 0 0 0 0 0 0 0 0 0 0 0 0 0 0 0 0 0 0 0 0 0 0 0 0 0 0 0 0 11 12 11 31 31 32 29 29 31 33 31 40 25 22 31 0 0 0 1 1 1 0 0 0 0 0 0 0 0 0 0 0 0 0 0 0 0 0 0 0 0 0 0 0 0 0 0 0 0 0 0 0 0 0 0 0 0 0 0 0 0 0 0 0 0 0 0 0 0 0 0 0 0 0 0 0 0 0 0 0 0 0 0 0 0 0 0 0 0 0 0 0 0 0 0 0 0 0 0 0 0 0 0 0 0 
0 0 0 0 0 0 0 0 0 0 0 0 0 0 0 0 0 0 0 0 0 0 0 0 0 0 0 0 0 0 0 0 0 0 0 0 0 0 0 0 0 0 0 0 0 0 0 0 0 0 0 0 0 0 0 0 0 0 0 0 1 1 1 0 0 0 0 0 0 10 10 11 31 31 31 29 28 28 36 35 41 24 23 29 28 27 31 46 43 58 12 12 16 0 0 0 1 1 1 0 0 0 0 0 0 0 0 0 0 0 0 0 0 0 0 0 0 0 0 0 0 0 0 0 0 0 0 0 0 0 0 0 0 0 0 0 0 0 0 0 0 0 0 0 0 0 0 0 0 0 0 0 0 0 0 0 0 0 0 0 0 0 0 0 0 0 0 0 0 0 0 0 0 0 0 0 0 0 0 0 
0 0 0 0 0 0 0 0 0 0 0 0 0 0 0 0 0 0 0 0 0 0 0 0 0 0 0 0 0 0 0 0 0 0 0 0 0 0 0 0 0 0 0 0 0 0 0 0 0 0 0 0 0 0 1 1 1 0 0 0 0 0 0 10 10 10 31 31 31 32 32 32 13 13 12 0 0 1 39 36 34 130 122 88 148 142 105 50 48 49 28 24 29 6 6 8 11 11 11 10 9 9 1 1 1 1 1 1 0 0 0 0 0 0 0 0 0 0 0 0 0 0 0 0 0 0 0 0 0 0 0 0 0 0 0 0 0 0 0 0 0 0 0 0 0 0 0 0 0 0 0 0 0 0 0 0 0 0 0 0 0 0 0 0 0 0 0 0 0 0 0 0 0 0 0 0 0 0 0 0 
0 0 0 0 0 0 0 0 0 0 0 0 0 0 0 0 0 0 0 0 0 0 0 0 0 0 0 0 0 0 0 0 0 0 0 0 0 0 0 0 0 0 0 0 0 0 0 0 1 1 1 0 0 0 0 0 0 13 13 14 24 24 25 21 21 20 14 14 15 6 5 5 20 17 15 9 7 19 94 87 70 174 164 120 195 186 139 141 135 109 68 62 57 85 80 69 28 27 33 27 27 26 4 3 2 0 1 0 1 1 1 0 0 0 0 0 0 0 0 0 0 0 0 0 0 0 0 0 0 0 0 0 0 0 0 0 0 0 0 0 0 0 0 0 0 0 0 0 0 0 0 0 0 0 0 0 0 0 0 0 0 0 0 0 0 0 0 0 0 0 0 0 0 0 0 0 0 0 0 0 
0 0 0 0 0 0 0 0 0 0 0 0 0 0 0 0 0 0 0 0 0 0 0 0 0 0 0 0 0 0 0 0 0 0 0 0 0 0 0 0 0 1 1 1 1 0 0 0 0 0 0 11 11 12 33 33 33 35 35 36 15 15 16 1 1 1 0 0 0 8 8 10 62 57 47 85 79 59 143 136 99 178 169 129 196 187 146 211 201 156 215 203 159 224 213 163 74 68 66 17 17 32 13 13 20 13 11 11 2 2 2 0 0 0 0 0 0 0 0 0 0 0 0 0 0 0 0 0 0 0 0 0 0 0 0 0 0 0 0 0 0 0 0 0 0 0 0 0 0 0 0 0 0 0 0 0 0 0 0 0 0 0 0 0 0 0 0 0 0 0 0 0 0 0 0 0 0 0 0 0 
0 0 0 0 0 0 0 0 0 0 0 0 0 0 0 0 0 0 0 0 0 0 0 0 0 0 0 0 0 0 0 0 0 0 0 0 0 0 1 0 0 0 0 0 0 12 12 12 33 33 35 37 37 39 18 18 18 1 1 1 0 0 0 0 0 0 4 4 8 30 27 32 110 104 66 146 136 93 164 155 116 185 176 136 213 203 162 224 212 169 233 222 177 237 225 177 179 171 134 99 92 74 110 103 79 28 25 32 0 1 1 0 0 0 0 0 0 0 0 0 0 0 0 0 0 0 0 0 0 0 0 0 0 0 0 0 0 0 0 0 0 0 0 0 0 0 0 0 0 0 0 0 0 0 0 0 0 0 0 0 0 0 0 0 0 0 0 0 0 0 0 0 0 0 0 0 0 0 0 0 
0 0 0 0 0 0 0 0 0 0 0 0 0 0 0 0 0 0 0 0 0 0 0 0 0 0 0 0 0 0 0 0 0 0 0 0 0 0 0 11 11 13 32 32 33 38 38 38 18 18 20 1 1 1 0 0 0 1 1 1 0 0 0 13 12 10 44 42 33 69 63 42 122 114 73 141 132 94 172 163 122 191 182 140 219 209 167 237 226 182 249 239 193 241 231 184 228 216 165 218 206 151 193 180 120 87 83 73 20 21 33 0 0 0 1 1 1 0 0 0 0 0 0 0 0 0 0 0 0 0 0 0 0 0 0 0 0 0 0 0 0 0 0 0 0 0 0 0 0 0 0 0 0 0 0 0 0 0 0 0 0 0 0 0 0 0 0 0 0 0 0 0 0 0 0 0 0 0 0 0 
0 0 0 0 0 0 0 0 0 0 0 0 0 0 0 0 0 0 0 0 0 0 0 0 0 0 0 0 0 0 0 0 0 13 13 13 34 34 35 42 42 44 21 21 22 2 2 2 0 0 0 0 0 0 0 0 0 1 1 0 0 0 0 53 47 23 100 90 45 108 98 56 123 114 75 149 140 101 174 165 124 203 194 151 234 224 181 245 238 193 244 240 206 245 236 190 233 221 170 206 195 147 192 180 125 134 123 82 18 18 26 0 0 0 1 1 1 0 0 0 0 0 0 0 0 0 0 0 0 0 0 0 0 0 0 0 0 0 0 0 0 0 0 0 0 0 0 0 0 0 0 0 0 0 0 0 0 0 0 0 0 0 0 0 0 0 0 0 0 0 0 0 0 0 0 0 0 0 0 0 
0 0 0 0 0 0 0 0 0 0 0 0 0 0 0 0 0 0 0 0 0 0 0 0 0 0 0 0 0 0 19 18 22 33 33 34 21 21 22 2 2 3 0 0 0 0 0 0 0 0 0 0 0 0 0 0 0 0 0 0 6 5 3 79 72 32 93 85 45 107 98 58 126 117 77 146 137 96 172 164 123 209 198 155 240 229 183 248 243 210 245 244 231 248 241 200 235 223 172 213 201 151 196 184 126 96 89 66 25 27 38 0 0 0 1 1 1 0 0 0 0 0 0 0 0 0 0 0 0 0 0 0 0 0 0 0 0 0 0 0 0 0 0 0 0 0 0 0 0 0 0 0 0 0 0 0 0 0 0 0 0 0 0 0 0 0 0 0 0 0 0 0 0 0 0 0 0 0 0 0 
0 0 0 0 0 0 0 0 0 0 0 0 0 0 0 0 0 0 0 0 0 1 1 1 0 0 0 10 9 10 39 38 46 70 68 76 3 3 3 0 0 0 1 1 1 0 0 0 0 0 0 0 0 0 0 0 0 0 0 0 0 0 3 64 58 32 98 88 45 107 98 58 124 115 75 155 146 104 187 177 133 213 202 157 238 228 183 248 243 213 253 252 238 254 246 205 230 218 166 209 197 145 178 168 114 52 48 48 41 41 56 0 0 0 1 1 1 0 0 0 0 0 0 0 0 0 0 0 0 0 0 0 0 0 0 0 0 0 0 0 0 0 0 0 0 0 0 0 0 0 0 0 0 0 0 0 0 0 0 0 0 0 0 0 0 0 0 0 0 0 0 0 0 0 0 0 0 0 0 0 
0 0 0 0 0 0 0 0 0 0 0 0 0 0 0 0 0 0 0 0 0 1 1 1 0 0 0 25 25 27 44 43 49 51 48 55 17 16 15 0 0 0 1 1 1 0 0 0 0 0 0 0 0 0 0 0 0 1 1 0 0 0 1 37 35 32 97 87 44 105 96 55 124 116 72 142 133 93 160 151 114 129 123 100 68 66 60 141 139 123 255 255 219 250 237 189 226 214 162 205 193 142 187 173 116 82 77 67 35 37 52 0 0 0 1 1 1 0 0 0 0 0 0 0 0 0 0 0 0 0 0 0 0 0 0 0 0 0 0 0 0 0 0 0 0 0 0 0 0 0 0 0 0 0 0 0 0 0 0 0 0 0 0 0 0 0 0 0 0 0 0 0 0 0 0 0 0 0 0 0 
0 0 0 0 0 0 0 0 0 0 0 0 0 0 0 0 0 0 0 0 0 1 1 1 0 0 0 20 19 22 44 43 50 25 25 28 8 8 6 0 0 0 1 1 1 1 1 1 0 0 0 0 0 0 0 0 0 1 1 0 0 0 1 57 51 28 99 89 40 105 96 53 135 123 77 86 81 58 10 13 16 24 23 21 9 10 11 30 30 33 221 213 163 240 228 169 217 205 153 199 188 135 181 170 108 137 127 83 24 22 30 0 0 0 0 0 0 0 0 0 0 0 0 0 0 0 0 0 0 0 0 0 0 0 0 0 0 0 0 0 0 0 0 0 0 0 0 0 0 0 0 0 0 0 0 0 0 0 0 0 0 0 0 0 0 0 0 0 0 0 0 0 0 0 0 0 0 0 0 0 
0 0 0 0 0 0 0 0 0 0 0 0 0 0 0 0 0 0 0 0 0 1 1 1 0 0 0 14 14 15 38 38 40 46 45 49 28 27 32 9 9 11 1 1 1 0 0 0 0 0 0 1 1 1 1 1 1 0 0 0 5 4 6 79 72 30 96 85 38 106 94 51 125 114 67 119 110 74 61 58 44 14 15 13 12 12 12 24 24 26 203 194 151 227 216 159 203 192 138 192 181 127 178 166 103 112 103 65 33 33 43 0 0 0 2 2 2 2 2 2 2 2 2 2 2 2 2 2 2 1 1 2 0 0 0 0 0 0 0 0 0 0 0 0 0 0 0 0 0 0 0 0 0 0 0 0 0 0 0 0 0 0 0 0 0 0 0 0 0 0 0 0 0 0 0 0 0 0 0 0 
0 0 0 0 0 0 0 0 0 0 0 0 0 0 0 0 0 0 0 0 0 0 0 0 0 0 0 0 0 0 6 6 6 29 28 25 49 47 45 45 43 47 31 30 36 19 19 23 5 4 7 0 0 0 0 0 0 1 1 0 0 0 2 49 44 26 94 84 33 100 89 44 114 103 57 138 129 79 168 158 105 58 55 48 7 7 19 101 97 79 233 219 163 208 195 143 193 182 126 177 167 108 159 143 85 58 52 49 62 62 82 0 0 0 1 1 1 0 0 0 0 0 0 0 0 0 0 0 0 0 0 0 1 1 1 0 0 0 0 0 0 0 0 0 0 0 0 0 0 0 0 0 0 0 0 0 0 0 0 0 0 0 0 0 0 0 0 0 0 0 0 0 0 0 0 0 0 0 0 0 
0 0 0 0 0 0 0 0 0 0 0 0 0 0 0 0 0 0 0 0 0 0 0 0 0 0 0 0 0 0 0 0 0 0 0 0 10 10 9 36 36 32 41 41 38 30 29 31 31 31 35 28 28 32 10 10 11 0 0 0 0 0 1 42 39 29 89 78 28 97 85 38 110 99 50 128 117 69 149 137 88 156 145 99 159 148 108 189 176 126 198 185 132 195 182 128 180 167 112 170 157 99 151 136 76 61 58 56 61 60 80 0 0 0 28 28 30 44 43 45 44 43 45 43 42 45 47 47 49 36 36 38 0 0 0 1 1 1 0 0 0 0 0 0 0 0 0 0 0 0 0 0 0 0 0 0 0 0 0 0 0 0 0 0 0 0 0 0 0 0 0 0 0 0 0 0 0 0 0 0 
0 0 0 0 0 0 0 0 0 0 0 0 0 0 0 0 0 0 0 0 0 0 0 0 0 0 0 0 0 0 0 0 0 0 0 0 0 0 0 1 1 1 21 20 18 38 37 35 26 26 26 16 16 18 29 29 32 35 34 37 22 22 28 71 62 21 90 78 19 95 82 32 103 91 41 118 106 56 135 123 72 154 142 89 174 162 106 178 167 112 176 164 107 171 158 100 167 153 94 156 141 83 148 133 66 98 87 52 54 55 69 121 119 127 146 145 152 120 119 126 117 116 123 122 120 127 126 125 132 118 117 124 41 41 43 0 0 0 1 1 1 0 0 0 0 0 0 0 0 0 0 0 0 0 0 0 0 0 0 0 0 0 0 0 0 0 0 0 0 0 0 0 0 0 0 0 0 0 0 0 
0 0 0 0 0 0 0 0 0 0 0 0 0 0 0 0 0 0 0 0 0 0 0 0 0 0 0 0 0 0 0 0 0 0 0 0 1 0 1 1 1 1 0 0 0 5 5 5 31 31 31 38 37 37 14 13 13 6 6 6 28 28 29 62 57 43 76 66 34 91 79 29 102 91 33 112 100 46 122 110 60 139 126 74 152 140 86 157 145 89 161 147 91 160 145 88 151 137 77 142 127 68 140 123 55 82 72 30 75 74 86 123 122 127 91 90 96 92 91 97 103 102 109 107 106 112 101 100 106 106 105 111 108 107 112 21 21 22 0 0 0 1 1 1 0 0 0 0 0 0 0 0 0 0 0 0 0 0 0 0 0 0 0 0 0 0 0 0 0 0 0 0 0 0 0 0 0 0 0 0 
0 0 0 0 0 0 0 0 0 0 0 0 0 0 0 0 0 0 0 0 0 0 0 0 0 0 0 0 0 0 0 0 0 0 0 0 0 0 0 0 0 0 1 1 1 1 1 1 0 0 0 10 9 9 36 35 35 32 31 30 2 3 6 39 34 18 61 54 25 58 54 39 74 67 45 99 87 43 121 108 51 127 113 54 134 120 62 141 128 70 148 134 74 144 130 69 139 124 61 134 119 51 115 101 30 55 51 49 113 112 123 102 101 106 104 103 109 109 108 114 104 103 109 101 100 106 103 102 108 98 97 103 107 106 113 77 77 82 0 0 0 1 1 1 0 0 0 0 0 0 0 0 0 0 0 0 0 0 0 0 0 0 0 0 0 0 0 0 0 0 0 0 0 0 0 0 0 0 0 0 
0 0 0 0 0 0 0 0 0 0 0 0 0 0 0 0 0 0 0 0 0 0 0 0 0 0 0 0 0 0 0 0 0 0 0 0 0 0 0 0 0 0 0 0 0 0 0 0 1 1 1 0 0 0 0 0 0 16 16 17 34 34 34 34 32 30 33 31 30 43 40 30 73 62 19 65 59 36 74 67 45 99 89 53 127 112 56 134 119 54 132 118 57 133 118 56 105 93 44 62 57 48 52 47 40 77 76 85 121 120 128 108 107 113 103 102 108 96 95 101 99 98 104 102 101 107 101 100 106 101 100 106 99 98 105 107 106 113 30 29 31 0 0 0 1 1 1 0 0 0 0 0 0 0 0 0 0 0 0 0 0 0 0 0 0 0 0 0 0 0 0 0 0 0 0 0 0 0 0 0 
0 0 0 0 0 0 0 0 0 0 0 0 0 0 0 0 0 0 0 0 0 0 0 0 0 0 0 0 0 0 0 0 0 0 0 0 0 0 0 0 0 0 0 0 1 2 2 2 2 2 2 1 1 1 0 0 0 0 0 0 0 0 1 28 28 28 40 38 41 35 34 42 74 64 19 91 76 15 86 74 21 75 66 33 75 67 44 92 84 50 115 100 43 123 106 35 57 52 36 27 29 42 44 43 52 101 100 106 113 112 118 94 93 99 90 88 95 95 94 100 99 98 104 101 100 106 100 99 105 100 99 105 99 98 104 103 102 108 80 79 84 1 1 3 0 0 0 0 0 0 0 0 0 0 0 0 0 0 0 0 0 0 0 0 0 0 0 0 0 0 0 0 0 0 0 0 0 0 0 0 
0 0 0 0 0 0 0 0 0 0 0 0 0 0 0 0 0 0 0 0 0 0 0 0 0 0 0 0 0 0 0 0 0 0 0 0 1 1 1 2 2 3 0 0 1 0 0 0 0 0 0 2 2 2 18 19 20 42 44 48 64 67 72 80 82 89 79 82 86 61 61 65 42 39 43 46 44 52 78 68 24 106 89 10 104 87 15 73 65 28 49 46 49 66 60 46 52 50 58 35 35 41 37 36 40 97 97 103 91 91 96 85 84 90 89 88 94 91 90 96 95 94 100 96 95 101 96 95 101 96 95 101 95 94 100 96 95 101 108 107 114 34 34 37 0 0 0 1 1 1 0 0 0 0 0 0 0 0 0 0 0 0 0 0 0 0 0 0 0 0 0 0 0 0 0 0 0 0 0 0 
0 0 0 0 0 0 0 0 0 0 0 0 0 0 0 0 0 0 0 0 0 0 0 0 0 0 0 0 0 0 0 0 0 1 1 2 1 1 1 0 0 0 10 10 11 60 62 74 75 81 97 90 96 112 96 103 114 93 97 104 97 96 103 110 110 118 128 128 137 149 149 158 145 143 154 49 49 58 53 47 36 84 71 8 92 76 12 66 57 39 44 42 54 43 41 50 69 69 75 99 97 104 76 74 80 78 78 83 81 83 87 84 85 90 85 85 91 88 87 93 92 91 97 96 95 101 98 97 103 100 99 105 101 100 106 99 98 104 110 109 116 73 75 78 0 0 0 1 1 1 0 0 0 0 0 0 0 0 0 0 0 0 0 0 0 0 0 0 0 0 0 0 0 0 0 0 0 0 0 0 
0 0 0 0 0 0 0 0 0 0 0 0 0 0 0 0 0 0 0 0 0 0 0 0 0 0 0 2 2 2 1 1 1 0 0 0 8 8 10 57 59 73 112 117 145 127 135 163 122 129 156 109 116 137 98 106 121 89 97 106 87 89 95 99 99 106 130 129 137 194 194 202 222 222 226 57 56 50 47 46 42 54 52 40 58 55 40 54 52 51 59 58 54 51 50 45 81 79 79 114 114 122 81 84 90 90 90 97 85 85 92 85 86 92 88 88 93 92 91 97 99 98 104 106 105 110 110 109 114 113 113 119 120 118 125 124 123 130 127 126 133 109 109 116 22 22 23 0 0 0 1 1 1 0 0 0 0 0 0 0 0 0 0 0 0 0 0 0 0 0 0 0 0 0 0 0 0 0 0 0 
0 0 0 0 0 0 0 0 0 0 0 0 0 0 0 0 0 0 0 0 0 1 2 2 1 1 1 0 0 0 6 6 8 49 51 61 102 109 129 124 131 159 116 122 149 107 113 136 103 109 129 100 107 126 99 107 125 97 103 118 93 98 109 87 91 97 83 83 88 97 96 102 105 105 109 44 44 38 46 45 39 45 45 41 45 44 43 45 45 40 48 48 41 39 39 30 87 87 90 117 118 130 115 117 127 124 124 134 116 116 124 110 111 118 103 103 108 104 103 109 110 112 119 115 117 124 117 118 125 104 104 112 90 91 102 78 79 86 93 93 98 102 100 109 58 57 62 1 1 1 0 0 0 0 0 0 0 0 0 0 0 0 0 0 0 0 0 0 0 0 0 0 0 0 0 0 0 0 0 0 
0 0 0 0 0 0 0 0 0 0 0 0 0 0 0 1 1 1 1 1 1 0 0 0 6 5 7 46 48 57 95 101 117 117 125 146 113 120 142 103 110 130 101 108 123 99 106 119 95 104 113 93 101 112 93 99 111 94 100 114 99 105 118 106 110 120 116 116 123 118 118 125 112 112 119 99 99 102 86 85 87 69 66 62 66 62 50 71 68 59 69 69 65 73 72 71 105 104 109 117 116 128 114 113 123 117 118 128 108 110 117 99 103 109 97 99 107 100 100 109 104 104 114 100 102 111 94 97 104 111 112 121 115 117 128 123 125 136 148 149 161 168 168 180 77 74 84 23 23 24 0 0 0 1 1 1 0 0 0 0 0 0 0 0 0 0 0 0 0 0 0 0 0 0 0 0 0 0 0 0 
0 0 0 0 0 0 0 0 0 1 1 1 1 1 1 0 0 0 3 3 3 36 39 42 82 88 96 104 112 124 102 109 125 97 104 117 97 104 116 100 107 119 104 110 124 108 113 131 109 117 136 112 119 142 114 120 146 123 129 153 125 131 149 119 124 137 118 122 134 123 125 138 121 121 130 110 111 119 110 108 110 127 122 103 128 125 105 126 123 118 113 115 125 117 120 131 116 118 129 114 116 128 113 116 127 116 118 130 116 118 127 116 117 128 123 124 134 128 129 138 133 133 140 127 128 136 111 113 122 128 131 140 140 144 155 132 137 148 145 149 162 177 182 196 130 133 143 38 37 42 3 3 2 1 1 1 0 0 0 0 0 0 0 0 0 0 0 0 0 0 0 0 0 0 0 0 0 0 0 0 
0 0 0 0 0 0 0 0 0 2 2 2 7 6 6 35 34 39 79 81 89 102 106 118 107 113 129 112 118 138 112 119 139 117 123 148 120 127 153 121 129 156 123 130 158 125 130 159 122 128 155 120 126 150 119 126 149 118 124 143 115 120 138 115 119 134 112 116 131 111 115 130 113 117 129 118 122 134 124 129 142 129 136 148 134 141 157 135 142 159 139 146 160 141 147 161 144 149 164 146 150 165 143 149 164 138 144 159 129 134 146 125 129 140 130 134 147 124 130 140 118 123 130 112 116 123 95 97 104 109 109 119 133 129 141 118 113 127 135 127 139 158 149 165 201 189 204 103 99 109 4 5 7 0 0 0 1 1 1 0 0 0 0 0 0 0 0 0 0 0 0 0 0 0 0 0 0 0 0 0 
0 0 0 0 0 0 2 2 2 0 0 0 76 74 78 89 89 99 106 110 125 123 129 152 106 110 133 101 103 126 118 124 151 112 118 140 110 116 135 108 112 127 106 111 126 106 110 125 107 110 124 107 111 125 110 114 127 112 117 130 119 124 137 129 131 145 132 134 149 134 137 152 136 142 156 140 146 160 143 149 163 142 150 163 144 152 165 143 151 164 137 146 160 133 142 157 127 135 149 127 133 148 132 135 152 128 129 144 125 123 135 126 120 133 137 127 141 150 136 151 154 140 155 145 132 146 139 123 137 135 116 131 148 132 146 145 126 142 166 136 157 191 157 179 171 147 162 139 124 136 60 58 66 1 2 2 1 1 1 0 0 0 0 0 0 0 0 0 0 0 0 0 0 0 0 0 0 0 0 0 
0 0 0 0 0 0 0 0 0 2 2 2 101 101 105 71 73 83 92 97 110 97 102 121 54 54 65 44 43 50 102 106 121 106 109 121 115 118 132 114 118 130 115 117 131 119 121 136 122 125 140 122 125 140 122 126 141 126 133 147 129 135 150 130 135 150 126 132 146 122 129 142 123 132 145 127 134 148 133 136 151 136 137 152 139 137 152 149 141 158 152 139 156 160 141 159 164 141 160 163 135 154 166 135 155 164 136 155 143 119 133 126 104 117 119 97 110 102 83 95 85 71 80 57 49 55 39 35 38 21 20 22 10 10 11 22 20 22 42 36 41 57 46 53 72 60 68 97 76 90 60 55 62 18 19 21 0 0 0 1 1 1 0 0 0 0 0 0 0 0 0 0 0 0 0 0 0 0 0 0 
0 0 0 1 1 1 0 0 0 26 26 26 100 100 107 70 74 84 92 97 113 98 104 125 56 58 70 54 54 64 112 119 135 116 121 136 116 120 135 117 123 138 117 124 138 118 125 139 116 121 135 117 121 135 124 126 140 130 128 143 134 130 146 139 131 148 152 137 156 164 142 162 173 149 170 178 150 171 177 145 165 177 141 163 178 141 164 171 136 161 176 141 171 147 120 146 132 108 130 141 132 162 125 124 154 128 127 158 43 39 49 0 0 0 1 1 2 0 0 0 0 0 0 0 0 0 0 0 0 0 0 0 0 0 0 0 0 0 0 0 0 0 0 0 0 0 0 3 4 5 33 33 38 19 18 23 0 0 0 0 0 0 0 0 0 0 0 0 0 0 0 0 0 0 0 0 0 0 0 0 
0 0 0 2 2 2 0 0 0 59 58 58 105 104 112 77 80 94 93 96 115 98 102 121 51 52 64 59 60 71 121 126 140 121 120 135 122 118 134 125 119 133 128 117 131 135 121 134 144 125 142 156 132 152 165 136 156 169 137 157 174 139 163 171 136 159 139 111 129 110 88 103 93 75 89 99 81 93 141 113 132 154 118 145 159 143 164 158 139 162 160 148 191 102 97 129 108 90 112 122 122 156 101 92 122 76 66 85 50 42 48 0 0 0 2 2 2 3 2 2 3 2 3 2 2 2 2 2 2 1 1 1 1 1 1 1 1 1 2 2 2 3 2 3 2 1 1 11 11 13 29 28 35 5 4 5 0 0 0 0 0 0 0 0 0 0 0 0 0 0 0 0 0 0 0 0 0 0 0 0 
0 0 0 2 2 2 0 0 0 88 85 91 67 67 78 68 69 81 102 100 120 124 106 127 54 45 55 74 69 79 150 124 141 145 119 137 156 127 149 172 138 165 183 145 178 189 147 185 182 141 177 170 130 162 146 110 133 114 87 104 71 55 67 27 21 26 1 2 0 0 0 0 0 0 1 0 0 0 8 9 12 31 34 41 47 48 52 61 53 61 89 81 100 79 64 80 117 84 102 39 31 41 7 4 5 0 0 0 8 9 9 0 0 0 0 0 0 0 0 0 0 0 0 0 0 0 0 0 0 0 0 0 0 0 0 0 0 0 0 0 0 0 0 0 0 0 0 0 0 0 1 1 1 0 0 0 0 0 0 0 0 0 0 0 0 0 0 0 0 0 0 0 0 0 0 0 0 0 0 0 
0 0 0 0 0 0 4 5 3 106 99 112 122 99 122 172 139 172 186 145 190 193 158 194 54 51 59 113 100 120 230 187 237 223 179 235 226 177 236 208 159 213 185 140 182 157 115 148 120 88 110 75 54 68 32 24 29 3 1 2 0 0 0 0 0 0 1 1 1 3 2 2 3 2 3 3 2 3 1 0 0 0 0 0 0 0 0 0 0 0 0 0 0 0 0 0 0 0 0 0 0 0 0 0 0 2 1 2 1 1 1 0 0 0 0 0 0 0 0 0 0 0 0 0 0 0 0 0 0 0 0 0 0 0 0 0 0 0 0 0 0 0 0 0 0 0 0 0 0 0 0 0 0 0 0 0 0 0 0 0 0 0 0 0 0 0 0 0 0 0 0 0 0 0 0 0 0 0 0 0 
1 1 1 0 0 0 15 15 15 127 103 121 152 131 161 212 179 223 255 214 255 247 198 255 61 57 68 172 140 179 212 164 220 174 130 168 140 102 128 117 88 105 77 55 66 35 26 30 7 5 5 0 0 0 0 0 0 0 0 0 2 2 2 1 1 1 0 0 0 0 0 0 0 0 0 0 0 0 0 0 1 1 1 2 2 2 2 2 2 2 2 2 2 2 2 2 2 1 1 1 1 1 0 0 0 0 0 0 0 0 0 0 0 0 0 0 0 0 0 0 0 0 0 0 0 0 0 0 0 0 0 0 0 0 0 0 0 0 0 0 0 0 0 0 0 0 0 0 0 0 0 0 0 0 0 0 0 0 0 0 0 0 0 0 0 0 0 0 0 0 0 0 0 0 0 0 0 0 0 0 
0 0 0 1 1 1 5 5 5 0 0 0 65 62 66 125 114 141 155 132 167 212 167 221 166 124 155 141 105 126 110 84 101 99 76 88 79 63 74 37 31 36 2 1 1 0 0 0 0 0 0 2 1 2 2 1 1 0 0 0 0 0 0 0 0 0 0 0 0 0 0 0 0 0 0 0 0 0 0 0 0 0 0 0 0 0 0 0 0 0 0 0 0 0 0 0 0 0 0 0 0 0 0 0 0 0 0 0 0 0 0 0 0 0 0 0 0 0 0 0 0 0 0 0 0 0 0 0 0 0 0 0 0 0 0 0 0 0 0 0 0 0 0 0 0 0 0 0 0 0 0 0 0 0 0 0 0 0 0 0 0 0 0 0 0 0 0 0 0 0 0 0 0 0 0 0 0 0 0 0 
0 0 0 0 1 0 0 1 0 0 0 0 4 4 4 28 23 29 46 39 50 59 49 64 42 30 36 18 14 17 30 24 30 11 8 11 0 0 0 0 0 0 2 1 2 2 1 2 0 0 0 0 0 0 0 0 0 0 0 0 0 0 0 0 0 0 0 0 0 0 0 0 0 0 0 0 0 0 0 0 0 0 0 0 0 0 0 0 0 0 0 0 0 0 0 0 0 0 0 0 0 0 0 0 0 0 0 0 0 0 0 0 0 0 0 0 0 0 0 0 0 0 0 0 0 0 0 0 0 0 0 0 0 0 0 0 0 0 0 0 0 0 0 0 0 0 0 0 0 0 0 0 0 0 0 0 0 0 0 0 0 0 0 0 0 0 0 0 0 0 0 0 0 0 0 0 0 0 0 0 
0 0 0 0 0 0 0 0 0 0 0 0 1 1 1 0 0 0 0 0 0 0 0 0 0 0 0 0 0 0 0 0 0 0 0 0 2 1 2 1 1 1 0 0 0 0 0 0 0 0 0 0 0 0 0 0 0 0 0 0 0 0 0 0 0 0 0 0 0 0 0 0 0 0 0 0 0 0 0 0 0 0 0 0 0 0 0 0 0 0 0 0 0 0 0 0 0 0 0 0 0 0 0 0 0 0 0 0 0 0 0 0 0 0 0 0 0 0 0 0 0 0 0 0 0 0 0 0 0 0 0 0 0 0 0 0 0 0 0 0 0 0 0 0 0 0 0 0 0 0 0 0 0 0 0 0 0 0 0 0 0 0 0 0 0 0 0 0 0 0 0 0 0 0 0 0 0 0 0 0 
0 0 0 0 0 0 0 0 0 0 0 0 0 0 0 1 1 1 2 1 2 2 2 2 2 1 2 1 1 1 1 1 1 0 0 0 0 0 0 0 0 0 0 0 0 0 0 0 0 0 0 0 0 0 0 0 0 0 0 0 0 0 0 0 0 0 0 0 0 0 0 0 0 0 0 0 0 0 0 0 0 0 0 0 0 0 0 0 0 0 0 0 0 0 0 0 0 0 0 0 0 0 0 0 0 0 0 0 0 0 0 0 0 0 0 0 0 0 0 0 0 0 0 0 0 0 0 0 0 0 0 0 0 0 0 0 0 0 0 0 0 0 0 0 0 0 0 0 0 0 0 0 0 0 0 0 0 0 0 0 0 0 0 0 0 0 0 0 0 0 0 0 0 0 0 0 0 0 0 0 
0 0 0 0 0 0 0 0 0 0 0 0 0 0 0 0 0 0 0 0 0 0 0 0 0 0 0 0 0 0 0 0 0 0 0 0 0 0 0 0 0 0 0 0 0 0 0 0 0 0 0 0 0 0 0 0 0 0 0 0 0 0 0 0 0 0 0 0 0 0 0 0 0 0 0 0 0 0 0 0 0 0 0 0 0 0 0 0 0 0 0 0 0 0 0 0 0 0 0 0 0 0 0 0 0 0 0 0 0 0 0 0 0 0 0 0 0 0 0 0 0 0 0 0 0 0 0 0 0 0 0 0 0 0 0 0 0 0 0 0 0 0 0 0 0 0 0 0 0 0 0 0 0 0 0 0 0 0 0 0 0 0 0 0 0 0 0 0 0 0 0 0 0 0 0 0 0 0 0 0 
0 0 0 0 0 0 0 0 0 0 0 0 0 0 0 0 0 0 0 0 0 0 0 0 0 0 0 0 0 0 0 0 0 0 0 0 0 0 0 0 0 0 0 0 0 0 0 0 0 0 0 0 0 0 0 0 0 0 0 0 0 0 0 0 0 0 0 0 0 0 0 0 0 0 0 0 0 0 0 0 0 0 0 0 0 0 0 0 0 0 0 0 0 0 0 0 0 0 0 0 0 0 0 0 0 0 0 0 0 0 0 0 0 0 0 0 0 0 0 0 0 0 0 0 0 0 0 0 0 0 0 0 0 0 0 0 0 0 0 0 0 0 0 0 0 0 0 0 0 0 0 0 0 0 0 0 0 0 0 0 0 0 0 0 0 0 0 0 0 0 0 0 0 0 0 0 0 0 0 0 
