P3
54 43
255
0 0 0 0 0 0 0 0 0 0 0 0 0 0 0 0 0 0 0 0 0 0 0 0 0 0 0 0 0 0 0 0 0 0 0 0 0 0 0 0 0 0 0 0 0 0 0 0 0 0 0 0 0 0 0 0 0 0 0 0 0 0 0 0 0 0 0 0 0 0 0 0 0 0 0 0 0 0 0 0 0 0 0 0 0 0 0 0 0 0 0 0 0 0 0 0 0 0 0 0 0 0 0 0 0 0 0 0 0 0 0 0 0 0 0 0 0 0 0 0 0 0 0 0 0 0 0 0 0 0 0 0 0 0 0 0 0 0 0 0 0 0 0 0 0 0 0 0 0 0 0 0 0 0 0 0 0 0 0 0 0 0 
0 0 0 0 0 0 0 0 0 0 0 0 0 0 0 0 0 0 0 0 0 0 0 0 0 0 0 0 0 0 0 0 0 0 0 0 0 0 0 0 0 0 0 0 0 0 0 0 0 0 0 0 0 0 0 0 0 0 0 0 0 0 0 0 0 0 0 0 0 0 0 0 0 0 0 0 0 0 0 0 0 0 0 0 0 0 0 0 0 0 0 0 0 0 0 0 0 0 0 0 0 0 0 0 0 0 0 0 0 0 0 0 0 0 0 0 0 0 0 0 0 0 0 0 0 0 0 0 0 0 0 0 0 0 0 0 0 0 0 0 0 0 0 0 0 0 0 0 0 0 0 0 0 0 0 0 0 0 0 0 0 0 
0 0 0 0 0 0 0 0 0 0 0 0 0 0 0 0 0 0 0 0 0 0 0 0 0 0 0 0 0 0 0 0 0 0 0 0 0 0 0 0 0 0 0 0 0 0 0 0 0 0 0 0 0 0 0 0 0 0 0 0 0 0 0 0 0 0 0 0 0 0 0 0 0 0 0 0 0 0 0 0 0 0 0 0 0 0 0 0 0 0 0 0 0 0 0 0 0 0 0 0 0 0 0 0 0 0 0 0 0 0 0 0 0 0 0 0 0 0 0 0 0 0 0 0 0 0 0 0 0 0 0 0 0 0 0 0 0 0 0 0 0 0 0 0 0 0 0 0 0 0 0 0 0 0 0 0 0 0 0 0 0 0 
0 0 0 0 0 0 0 0 0 0 0 0 0 0 0 0 0 0 0 0 0 0 0 0 0 0 0 0 0 0 0 0 0 0 0 0 0 0 0 0 0 0 0 0 0 0 0 0 0 0 0 0 0 0 0 0 0 0 0 0 0 0 0 0 0 0 0 0 0 0 0 0 0 0 0 0 0 0 0 0 0 0 0 0 0 0 0 0 0 0 0 0 0 0 0 0 0 0 0 0 0 0 0 0 0 0 0 0 0 0 0 0 0 0 0 0 0 0 0 0 0 0 0 0 0 0 0 0 0 0 0 0 0 0 0 0 0 0 0 0 0 0 0 0 0 0 0 0 0 0 0 0 0 0 0 0 0 0 0 0 0 0 
0 0 0 0 0 0 0 0 0 0 0 0 0 0 0 0 0 0 0 0 0 0 0 0 0 0 0 0 0 0 0 0 0 0 0 0 0 0 0 0 0 0 0 0 0 0 0 0 0 0 0 0 0 0 0 0 0 0 0 0 0 0 0 0 0 0 7 7 7 2 2 2 0 0 0 0 0 0 0 0 0 0 0 0 0 0 0 0 0 0 0 0 0 0 0 0 0 0 0 0 0 0 0 0 0 0 0 0 0 0 0 0 0 0 0 0 0 0 0 0 0 0 0 0 0 0 0 0 0 0 0 0 0 0 0 0 0 0 0 0 0 0 0 0 0 0 0 0 0 0 0 0 0 0 0 0 0 0 0 0 0 0 
0 0 0 0 0 0 0 0 0 0 0 0 0 0 0 0 0 0 0 0 0 0 0 0 0 0 0 0 0 0 0 0 0 0 0 0 0 0 0 0 0 0 0 0 0 0 0 0 0 0 0 0 0 0 0 0 0 0 0 0 0 0 0 0 0 0 4 4 4 3 3 3 0 0 0 0 0 0 1 1 1 0 0 0 0 0 0 0 0 0 0 0 0 0 0 0 0 0 0 0 0 0 0 0 0 0 0 0 0 0 0 0 0 0 0 0 0 0 0 0 0 0 0 0 0 0 0 0 0 0 0 0 0 0 0 0 0 0 0 0 0 0 0 0 0 0 0 0 0 0 0 0 0 0 0 0 0 0 0 0 0 0 
0 0 0 0 0 0 0 0 0 0 0 0 0 0 0 0 0 0 0 0 0 0 0 0 0 0 0 0 0 0 0 0 0 0 0 0 0 0 0 0 0 0 0 0 0 0 0 0 0 0 0 0 0 0 0 0 0 0 0 0 0 0 0 1 1 1 0 0 0 0 0 0 2 2 2 2 2 1 0 0 0 0 0 0 0 0 0 0 0 0 0 0 0 0 0 0 0 0 0 0 0 0 0 0 0 0 0 0 0 0 0 0 0 0 0 0 0 0 0 0 0 0 0 0 0 0 0 0 0 0 0 0 0 0 0 0 0 0 0 0 0 0 0 0 0 0 0 0 0 0 0 0 0 0 0 0 0 0 0 0 0 0 
0 0 0 0 0 0 0 0 0 0 0 0 0 0 0 0 0 0 0 0 0 0 0 0 0 0 0 0 0 0 0 0 0 0 0 0 0 0 0 0 0 0 0 0 0 0 0 0 0 0 0 0 0 0 0 0 0 0 0 0 0 0 0 0 0 0 3 3 3 20 20 20 28 28 30 27 26 32 21 19 26 0 0 0 1 1 1 0 0 0 0 0 0 0 0 0 0 0 0 0 0 0 0 0 0 0 0 0 0 0 0 0 0 0 0 0 0 0 0 0 0 0 0 0 0 0 0 0 0 0 0 0 0 0 0 0 0 0 0 0 0 0 0 0 0 0 0 0 0 0 0 0 0 0 0 0 0 0 0 0 0 0 
0 0 0 0 0 0 0 0 0 0 0 0 0 0 0 0 0 0 0 0 0 0 0 0 0 0 0 0 0 0 0 0 0 0 0 0 0 0 0 0 0 0 0 0 0 0 0 0 0 0 0 1 1 1 0 0 0 0 0 0 2 2 2 19 19 20 29 29 28 32 31 34 32 31 36 30 29 31 44 41 55 11 12 15 1 0 0 0 0 0 0 0 0 0 0 0 0 0 0 0 0 0 0 0 0 0 0 0 0 0 0 0 0 0 0 0 0 0 0 0 0 0 0 0 0 0 0 0 0 0 0 0 0 0 0 0 0 0 0 0 0 0 0 0 0 0 0 0 0 0 0 0 0 0 0 0 0 0 0 0 0 0 
0 0 0 0 0 0 0 0 0 0 0 0 0 0 0 0 0 0 0 0 0 0 0 0 0 0 0 0 0 0 0 0 0 0 0 0 0 0 0 0 0 0 0 0 0 1 1 1 0 0 0 0 0 0 1 1 1 17 17 17 32 32 33 23 23 23 3 3 3 14 13 17 115 107 80 160 153 111 67 63 59 21 17 25 8 7 10 14 14 14 6 6 6 1 1 1 0 0 0 0 0 0 0 0 0 0 0 0 0 0 0 0 0 0 0 0 0 0 0 0 0 0 0 0 0 0 0 0 0 0 0 0 0 0 0 0 0 0 0 0 0 0 0 0 0 0 0 0 0 0 0 0 0 0 0 0 0 0 0 0 0 0 
0 0 0 0 0 0 0 0 0 0 0 0 0 0 0 0 0 0 0 0 0 0 0 0 0 0 0 0 0 0 0 0 0 0 0 0 0 0 0 1 1 1 0 0 0 0 0 0 2 2 2 22 22 24 26 26 27 16 16 16 5 5 4 14 12 11 21 18 22 61 57 51 167 157 115 193 184 139 165 157 124 109 101 84 105 100 84 26 25 32 20 20 21 0 0 0 3 3 3 0 0 0 0 0 0 0 0 0 0 0 0 0 0 0 0 0 0 0 0 0 0 0 0 0 0 0 0 0 0 0 0 0 0 0 0 0 0 0 0 0 0 0 0 0 0 0 0 0 0 0 0 0 0 0 0 0 0 0 0 0 0 0 
0 0 0 0 0 0 0 0 0 0 0 0 0 0 0 0 0 0 0 0 0 0 0 0 0 0 0 0 0 0 0 0 0 1 1 1 0 0 0 0 0 0 2 2 2 22 22 24 35 35 36 24 24 25 6 6 6 0 0 0 0 0 1 37 35 32 104 97 66 137 130 93 175 166 126 198 189 148 217 206 162 234 221 174 226 214 165 68 64 64 29 28 36 27 25 28 5 3 3 0 0 0 0 0 0 0 0 0 0 0 0 0 0 0 0 0 0 0 0 0 0 0 0 0 0 0 0 0 0 0 0 0 0 0 0 0 0 0 0 0 0 0 0 0 0 0 0 0 0 0 0 0 0 0 0 0 0 0 0 0 0 0 
0 0 0 0 0 0 0 0 0 0 0 0 0 0 0 0 0 0 0 0 0 0 0 0 0 0 0 0 0 0 0 0 0 0 0 0 2 2 2 22 22 22 36 36 38 26 26 27 6 6 6 0 0 0 0 0 0 3 4 5 16 16 23 75 69 49 136 127 83 158 148 110 182 173 133 210 201 160 230 218 175 239 228 182 236 225 178 195 185 141 175 164 115 108 102 79 14 15 26 1 2 1 0 0 0 0 0 0 0 0 0 0 0 0 0 0 0 0 0 0 0 0 0 0 0 0 0 0 0 0 0 0 0 0 0 0 0 0 0 0 0 0 0 0 0 0 0 0 0 0 0 0 0 0 0 0 0 0 0 0 0 0 
0 0 0 0 0 0 0 0 0 0 0 0 0 0 0 0 0 0 0 0 0 0 0 0 0 0 0 0 0 0 5 5 5 23 23 24 39 39 41 27 27 27 7 7 7 0 0 0 0 0 0 1 1 1 0 0 0 45 42 23 87 79 45 107 97 59 134 125 87 163 154 115 191 182 139 223 213 171 241 232 188 249 242 200 242 232 184 228 215 165 208 195 143 170 158 105 54 52 54 0 0 1 0 0 0 0 0 0 0 0 0 0 0 0 0 0 0 0 0 0 0 0 0 0 0 0 0 0 0 0 0 0 0 0 0 0 0 0 0 0 0 0 0 0 0 0 0 0 0 0 0 0 0 0 0 0 0 0 0 0 0 0 
0 0 0 0 0 0 0 0 0 0 0 0 0 0 0 0 0 0 0 0 0 0 0 0 0 0 1 12 12 13 31 31 31 29 29 30 8 8 9 0 0 0 0 0 0 1 1 1 1 1 0 0 0 0 8 7 4 82 74 34 100 90 48 115 106 65 135 126 86 161 152 112 197 188 145 234 222 178 247 241 203 243 241 222 244 236 191 229 217 167 205 193 142 168 155 102 47 45 44 2 3 5 0 0 0 0 0 0 0 0 0 0 0 0 0 0 0 0 0 0 0 0 0 0 0 0 0 0 0 0 0 0 0 0 0 0 0 0 0 0 0 0 0 0 0 0 0 0 0 0 0 0 0 0 0 0 0 0 0 0 0 0 
0 0 0 0 0 0 0 0 0 0 0 0 0 0 0 0 0 0 0 0 0 0 0 0 5 5 5 42 41 48 52 51 56 0 0 0 0 0 0 1 1 1 0 0 0 0 0 0 0 0 0 0 0 0 7 6 6 77 70 36 99 89 48 114 105 64 137 128 88 173 164 121 206 195 151 243 232 184 253 247 216 252 251 239 251 242 199 223 211 160 210 199 142 116 109 77 39 38 55 9 9 11 0 0 0 0 0 0 0 0 0 0 0 0 0 0 0 0 0 0 0 0 0 0 0 0 0 0 0 0 0 0 0 0 0 0 0 0 0 0 0 0 0 0 0 0 0 0 0 0 0 0 0 0 0 0 0 0 0 0 0 0 
0 0 0 0 0 0 0 0 0 0 0 0 0 0 0 0 0 0 1 1 1 0 0 0 21 21 23 46 45 52 52 50 55 7 7 6 1 1 1 0 0 0 0 0 0 0 0 0 0 0 0 0 0 0 0 0 3 50 46 35 102 92 48 110 101 60 136 127 85 157 147 108 154 146 116 95 94 79 150 147 129 255 255 220 247 235 185 219 207 155 204 191 136 134 123 86 44 45 59 9 9 12 0 0 0 0 0 0 0 0 0 0 0 0 0 0 0 0 0 0 0 0 0 0 0 0 0 0 0 0 0 0 0 0 0 0 0 0 0 0 0 0 0 0 0 0 0 0 0 0 0 0 0 0 0 0 0 0 0 0 0 0 
0 0 0 0 0 0 0 0 0 0 0 0 0 0 0 0 0 0 1 1 1 0 0 0 19 19 20 44 43 50 23 22 24 1 1 0 0 0 0 0 0 0 1 1 1 0 0 0 0 0 0 0 0 0 3 2 3 69 62 31 100 91 43 115 105 61 129 118 77 28 30 27 21 21 20 10 10 11 28 28 30 219 212 162 236 225 167 212 201 149 190 179 124 173 161 99 63 58 51 0 0 3 0 0 0 0 0 0 0 0 0 0 0 0 0 0 0 0 0 0 0 0 0 0 0 0 0 0 0 0 0 0 0 0 0 0 0 0 0 0 0 0 0 0 0 0 0 0 0 0 0 0 0 0 0 0 0 0 0 0 0 0 
0 0 0 0 0 0 0 0 0 0 0 0 0 0 0 0 0 0 0 0 0 0 0 0 10 10 11 34 34 36 46 45 48 29 28 32 12 11 14 1 1 2 0 0 0 0 0 0 1 1 1 0 0 0 9 7 7 83 75 31 98 87 40 112 100 56 128 117 73 104 98 70 30 29 24 2 3 8 30 30 31 211 201 155 221 210 153 198 188 133 186 175 118 147 135 78 57 54 56 9 10 14 3 3 3 2 2 2 1 1 1 1 1 1 1 1 1 1 1 1 0 0 0 0 0 0 0 0 0 0 0 0 0 0 0 0 0 0 0 0 0 0 0 0 0 0 0 0 0 0 0 0 0 0 0 0 0 0 0 0 0 0 
0 0 0 0 0 0 0 0 0 0 0 0 0 0 0 0 0 0 0 0 0 0 0 0 0 0 0 2 2 2 22 21 19 46 44 42 45 43 46 29 29 33 20 20 24 7 7 8 0 0 0 0 0 0 0 0 3 53 49 29 96 84 34 103 92 46 121 111 64 164 153 98 119 111 82 41 39 40 126 118 93 225 212 156 203 190 138 183 173 116 178 164 101 96 86 55 58 57 80 11 11 14 0 0 0 0 0 0 0 0 0 0 0 0 0 0 0 0 0 0 1 1 1 0 0 0 0 0 0 0 0 0 0 0 0 0 0 0 0 0 0 0 0 0 0 0 0 0 0 0 0 0 0 0 0 0 0 0 0 0 0 0 
0 0 0 0 0 0 0 0 0 0 0 0 0 0 0 0 0 0 0 0 0 0 0 0 0 0 0 0 0 0 0 0 0 5 5 5 30 30 26 39 38 35 29 28 29 28 28 32 28 28 31 13 13 14 2 2 7 62 55 24 93 80 27 99 88 40 117 105 55 135 123 74 159 147 95 182 170 116 193 181 126 188 176 122 184 171 115 173 158 102 164 150 87 115 105 59 59 58 74 39 39 45 79 78 82 88 88 92 83 82 87 83 82 86 94 93 98 47 46 49 0 0 0 1 1 1 0 0 0 0 0 0 0 0 0 0 0 0 0 0 0 0 0 0 0 0 0 0 0 0 0 0 0 0 0 0 0 0 0 0 0 0 
0 0 0 0 0 0 0 0 0 0 0 0 0 0 0 0 0 0 0 0 0 0 0 0 0 0 0 0 0 0 1 1 1 0 0 0 0 0 0 14 14 13 34 34 34 28 28 28 17 16 17 24 24 27 39 38 40 76 67 32 87 75 24 99 86 30 107 95 42 121 110 60 140 128 77 157 145 92 165 154 100 168 155 98 163 149 91 157 142 83 144 129 70 132 117 50 56 52 47 122 122 133 132 131 138 106 105 112 111 110 117 119 118 125 115 114 120 114 113 120 33 33 35 0 0 0 1 1 1 0 0 0 0 0 0 0 0 0 0 0 0 0 0 0 0 0 0 0 0 0 0 0 0 0 0 0 0 0 0 0 0 0 
0 0 0 0 0 0 0 0 0 0 0 0 0 0 0 0 0 0 0 0 0 0 0 0 0 0 0 0 0 0 0 0 0 0 0 0 1 1 1 0 0 0 1 1 1 22 22 22 36 34 35 17 17 16 6 7 8 52 46 30 68 60 34 77 70 40 99 88 41 119 106 50 129 116 58 139 126 70 146 134 77 153 139 81 150 135 76 143 128 65 143 126 53 94 82 29 74 72 82 111 110 116 91 90 95 102 101 106 105 104 110 101 100 106 100 99 105 105 104 110 97 96 101 8 7 9 1 1 1 1 1 1 0 0 0 0 0 0 0 0 0 0 0 0 0 0 0 0 0 0 0 0 0 0 0 0 0 0 0 0 0 0 
0 0 0 0 0 0 0 0 0 0 0 0 0 0 0 0 0 0 0 0 0 0 0 0 0 0 0 0 0 0 0 0 0 0 0 0 0 0 0 1 1 1 0 0 0 0 0 0 4 4 4 27 27 27 30 30 31 37 33 23 39 37 28 55 50 29 69 61 34 78 71 46 104 93 51 128 113 55 137 121 57 136 122 62 135 120 58 105 93 47 81 73 43 55 51 42 107 107 119 113 112 117 107 106 112 101 100 106 99 98 104 101 100 106 101 100 106 97 96 102 110 109 116 53 52 55 0 0 0 2 2 2 0 0 0 0 0 0 0 0 0 0 0 0 0 0 0 0 0 0 0 0 0 0 0 0 0 0 0 0 0 0 
0 0 0 0 0 0 0 0 0 0 0 0 0 0 0 0 0 0 0 0 0 0 0 0 0 0 0 0 0 0 0 0 0 0 0 0 0 0 0 1 1 2 2 2 2 1 1 1 0 0 0 0 0 0 4 4 3 31 31 31 32 31 42 50 45 30 88 74 13 82 71 21 75 67 34 81 72 46 99 90 50 121 106 44 120 103 37 45 43 38 28 29 44 69 67 77 118 117 123 101 100 106 91 90 96 94 93 99 99 98 104 101 100 106 101 100 106 101 100 106 101 100 106 96 96 101 13 13 16 0 0 0 1 1 1 0 0 0 0 0 0 0 0 0 0 0 0 0 0 0 0 0 0 0 0 0 0 0 0 0 0 0 
0 0 0 0 0 0 0 0 0 0 0 0 0 0 0 0 0 0 0 0 0 0 0 0 0 0 0 0 0 0 0 0 0 2 2 2 0 0 1 0 0 0 0 0 0 0 0 0 16 17 18 40 41 44 59 62 67 78 80 86 74 75 78 50 49 54 43 40 44 66 59 38 102 86 9 102 85 15 73 65 29 55 51 48 66 60 45 49 48 58 28 28 31 70 69 75 100 100 105 85 84 90 88 87 93 91 90 96 95 94 100 96 95 101 96 95 101 95 94 100 92 92 97 107 105 112 58 58 62 0 0 0 1 1 1 0 0 0 0 0 0 0 0 0 0 0 0 0 0 0 0 0 0 0 0 0 0 0 0 0 0 0 
0 0 0 0 0 0 0 0 0 0 0 0 0 0 0 0 0 0 0 0 0 0 0 0 0 0 0 1 1 2 0 0 0 0 0 0 1 1 2 46 47 56 80 85 103 90 96 113 97 104 117 94 98 106 98 98 104 115 115 123 139 140 148 171 170 181 105 105 113 36 34 39 77 66 18 90 75 12 67 58 38 44 43 55 44 43 51 85 84 90 91 90 96 74 73 79 80 81 86 82 83 88 84 85 90 88 87 93 92 91 97 96 95 101 100 99 105 103 102 108 104 103 109 110 109 116 97 98 103 4 5 5 0 0 0 0 0 1 0 0 0 0 0 0 0 0 0 0 0 0 0 0 0 0 0 0 0 0 0 0 0 0 
0 0 0 0 0 0 0 0 0 0 0 0 0 0 0 0 0 0 0 0 0 1 1 1 0 0 0 0 0 0 0 1 1 41 43 51 98 103 126 125 132 162 122 129 157 111 117 140 100 107 125 91 99 109 86 89 96 96 97 102 126 125 132 208 207 214 129 128 126 33 33 26 52 51 46 55 53 43 53 52 49 58 57 52 49 48 41 100 98 103 102 104 112 91 93 101 93 93 101 90 91 98 91 91 96 94 93 99 103 103 109 111 111 116 113 113 119 113 112 119 115 114 122 116 116 122 115 115 122 44 44 47 0 0 0 1 1 1 0 0 0 0 0 0 0 0 0 0 0 0 0 0 0 0 0 0 0 0 0 0 0 0 
0 0 0 0 0 0 0 0 0 0 0 0 0 0 0 1 1 1 1 1 1 0 0 0 0 0 1 35 36 42 87 92 109 120 127 153 117 124 151 107 113 135 101 108 126 98 105 121 97 104 120 95 102 117 94 100 112 92 96 103 90 89 94 96 96 103 74 74 74 54 53 48 48 47 45 42 42 41 45 44 40 48 47 40 47 47 39 107 107 114 116 117 128 127 127 138 122 122 130 113 114 121 103 104 109 103 103 109 106 108 116 109 111 119 107 108 115 99 100 109 84 86 96 92 93 98 120 119 128 73 72 79 10 10 10 0 0 0 1 1 1 0 0 0 0 0 0 0 0 0 0 0 0 0 0 0 0 0 0 0 0 0 
0 0 0 0 0 0 0 0 0 0 0 0 1 1 1 0 0 0 0 1 1 31 33 36 80 85 97 110 117 135 110 117 136 100 107 123 97 104 116 99 105 116 97 105 115 97 105 118 98 104 120 104 110 127 110 116 130 114 117 128 125 126 134 128 128 137 120 121 127 103 102 107 101 96 86 98 91 70 101 96 83 91 90 93 98 98 103 112 112 120 110 110 121 109 110 121 107 109 118 102 104 112 102 103 112 108 108 117 116 115 125 109 110 119 105 107 115 131 132 143 135 137 150 150 152 165 184 186 200 115 116 126 26 26 28 1 1 1 1 1 1 0 0 0 0 0 0 0 0 0 0 0 0 0 0 0 0 0 0 0 0 0 
0 0 0 0 0 0 0 0 0 1 1 1 0 0 0 26 27 30 67 70 76 98 105 115 107 114 128 102 109 125 105 111 129 110 117 137 115 122 144 120 125 151 122 128 156 123 129 156 122 129 157 126 132 157 123 129 148 116 121 136 112 117 132 111 115 128 110 112 121 111 113 123 125 127 126 132 136 136 131 134 143 129 134 147 132 136 150 133 136 150 132 137 150 133 137 151 131 134 146 127 129 140 134 137 149 133 137 146 128 132 138 117 120 127 98 103 110 126 129 138 119 122 133 122 123 134 148 150 162 180 178 192 80 76 85 0 0 0 0 0 0 0 0 0 0 0 0 0 0 0 0 0 0 0 0 0 0 0 0 0 0 0 
0 0 0 0 0 0 0 0 0 9 9 10 71 70 76 93 95 106 122 127 146 114 120 142 114 118 143 121 127 155 118 125 151 116 122 146 113 119 140 113 118 138 111 115 133 109 113 129 110 114 130 110 115 128 114 119 132 122 125 139 125 127 142 129 132 147 133 138 152 139 145 159 140 148 163 143 151 167 144 152 167 142 150 165 138 147 162 134 142 156 135 143 159 132 138 155 123 128 142 119 121 132 126 124 137 134 130 143 138 134 145 133 126 137 128 116 129 144 128 144 155 139 155 154 132 150 184 155 176 193 169 185 138 127 139 33 33 39 0 0 0 1 1 1 0 0 0 0 0 0 0 0 0 0 0 0 0 0 0 0 0 0 
0 0 0 1 1 1 0 0 0 36 35 37 100 100 107 79 83 95 106 112 131 72 74 89 52 51 60 104 107 124 106 109 123 112 115 128 111 114 125 112 113 128 118 120 134 119 122 136 120 123 137 124 130 144 129 135 150 131 136 151 128 134 148 124 132 146 127 136 149 132 138 152 134 139 154 136 139 153 143 142 157 145 139 154 151 140 157 152 136 154 154 131 149 160 134 153 151 129 144 139 118 131 137 114 129 129 107 121 114 96 108 85 74 82 66 58 64 44 40 44 46 42 45 66 56 64 93 75 87 100 82 93 115 93 108 66 61 69 9 10 11 0 0 0 0 0 0 0 0 0 0 0 0 0 0 0 0 0 0 0 0 0 
0 0 0 2 2 2 0 0 0 63 63 64 84 86 95 82 86 99 98 103 123 63 66 80 49 49 58 110 117 133 116 121 136 116 122 137 118 124 139 119 125 140 118 123 138 116 121 135 123 126 140 129 129 144 133 131 146 140 133 150 152 138 156 162 143 163 171 149 170 173 146 166 172 142 162 175 141 163 171 138 163 174 141 169 148 120 143 143 120 143 144 133 163 137 131 162 96 89 109 15 13 13 8 7 7 0 0 0 0 0 0 0 0 0 0 0 0 0 0 0 0 0 0 0 0 0 0 0 0 0 0 0 1 2 3 34 33 39 15 15 18 0 0 0 0 0 0 0 0 0 0 0 0 0 0 0 0 0 0 0 0 0 
0 0 0 1 1 1 0 0 0 94 92 95 83 85 96 86 91 107 97 101 121 62 63 76 57 57 68 122 125 140 121 118 133 121 116 130 125 117 130 131 119 133 142 125 140 153 131 151 164 136 156 169 137 157 171 137 161 160 128 149 125 100 116 99 80 93 92 75 86 119 97 111 152 116 141 155 135 157 158 139 162 157 145 189 102 91 120 119 104 130 111 111 144 82 74 98 61 52 63 4 4 4 0 0 0 1 1 1 2 2 2 2 2 2 2 2 2 2 2 2 2 2 2 2 2 2 4 3 3 3 2 3 9 9 11 26 25 31 2 2 2 0 0 0 0 0 0 0 0 0 0 0 0 0 0 0 0 0 0 0 0 0 
0 0 0 0 0 0 11 12 11 94 92 101 57 57 66 102 96 116 130 113 136 72 59 70 68 64 73 156 129 148 156 128 152 176 142 172 188 149 184 192 149 189 186 143 179 170 129 161 140 105 127 99 75 90 54 42 52 15 12 14 0 0 0 0 0 0 0 0 0 0 0 0 17 19 24 33 35 38 46 41 46 68 62 76 73 56 68 83 60 74 15 11 15 0 0 0 1 2 1 3 3 3 0 0 0 0 0 0 0 0 0 0 0 0 0 0 0 0 0 0 0 0 0 0 0 0 0 0 0 0 0 0 0 0 0 0 0 0 0 0 0 0 0 0 0 0 0 0 0 0 0 0 0 0 0 0 0 0 0 0 0 0 
2 2 2 0 0 0 40 39 40 139 120 143 169 138 170 213 169 215 218 176 221 76 71 82 117 102 127 244 200 249 224 176 234 205 156 209 180 135 177 147 109 138 106 77 96 58 42 53 20 14 17 0 0 0 0 0 0 0 0 0 2 1 2 3 2 3 3 2 3 1 1 1 0 0 0 0 0 0 0 0 0 0 0 0 0 0 0 0 0 0 0 0 0 1 1 1 0 0 1 0 0 0 0 0 0 0 0 0 0 0 0 0 0 0 0 0 0 0 0 0 0 0 0 0 0 0 0 0 0 0 0 0 0 0 0 0 0 0 0 0 0 0 0 0 0 0 0 0 0 0 0 0 0 0 0 0 0 0 0 0 0 0 
1 1 1 1 1 1 31 26 28 100 82 96 150 134 165 223 191 231 255 208 255 131 106 134 159 126 157 170 130 167 139 103 126 111 85 100 72 55 63 21 16 18 0 0 0 0 0 0 0 0 0 1 1 1 2 2 2 1 1 1 0 0 0 0 0 0 0 0 0 0 0 0 1 1 1 1 1 2 2 2 2 2 2 3 2 2 2 2 2 2 1 1 1 0 0 0 0 0 0 0 0 0 0 0 0 0 0 0 0 0 0 0 0 0 0 0 0 0 0 0 0 0 0 0 0 0 0 0 0 0 0 0 0 0 0 0 0 0 0 0 0 0 0 0 0 0 0 0 0 0 0 0 0 0 0 0 0 0 0 0 0 0 
0 0 0 1 2 1 0 0 0 0 0 0 61 57 65 84 74 97 127 104 138 138 104 130 86 64 75 76 59 71 54 42 50 24 21 24 0 1 1 0 0 0 0 0 0 2 1 2 1 1 1 0 0 0 0 0 0 0 0 0 0 0 0 0 0 0 0 0 0 0 0 0 0 0 0 0 0 0 0 0 0 0 0 0 0 0 0 0 0 0 0 0 0 0 0 0 0 0 0 0 0 0 0 0 0 0 0 0 0 0 0 0 0 0 0 0 0 0 0 0 0 0 0 0 0 0 0 0 0 0 0 0 0 0 0 0 0 0 0 0 0 0 0 0 0 0 0 0 0 0 0 0 0 0 0 0 0 0 0 0 0 0 
0 0 0 0 0 0 1 1 1 1 1 2 0 0 0 7 5 5 9 8 9 0 0 0 0 0 0 0 0 0 0 0 0 0 0 0 1 1 1 1 1 1 0 0 0 0 0 0 0 0 0 0 0 0 0 0 0 0 0 0 0 0 0 0 0 0 0 0 0 0 0 0 0 0 0 0 0 0 0 0 0 0 0 0 0 0 0 0 0 0 0 0 0 0 0 0 0 0 0 0 0 0 0 0 0 0 0 0 0 0 0 0 0 0 0 0 0 0 0 0 0 0 0 0 0 0 0 0 0 0 0 0 0 0 0 0 0 0 0 0 0 0 0 0 0 0 0 0 0 0 0 0 0 0 0 0 0 0 0 0 0 0 
0 0 0 0 0 0 0 0 0 0 0 0 2 2 2 0 0 0 0 0 0 2 2 2 2 2 2 2 2 2 2 2 2 1 1 1 0 0 0 0 0 0 0 0 0 0 0 0 0 0 0 0 0 0 0 0 0 0 0 0 0 0 0 0 0 0 0 0 0 0 0 0 0 0 0 0 0 0 0 0 0 0 0 0 0 0 0 0 0 0 0 0 0 0 0 0 0 0 0 0 0 0 0 0 0 0 0 0 0 0 0 0 0 0 0 0 0 0 0 0 0 0 0 0 0 0 0 0 0 0 0 0 0 0 0 0 0 0 0 0 0 0 0 0 0 0 0 0 0 0 0 0 0 0 0 0 0 0 0 0 0 0 
0 0 0 0 0 0 0 0 0 0 0 0 0 0 0 0 0 0 1 0 1 0 0 0 0 0 0 0 0 0 0 0 0 0 0 0 0 0 0 0 0 0 0 0 0 0 0 0 0 0 0 0 0 0 0 0 0 0 0 0 0 0 0 0 0 0 0 0 0 0 0 0 0 0 0 0 0 0 0 0 0 0 0 0 0 0 0 0 0 0 0 0 0 0 0 0 0 0 0 0 0 0 0 0 0 0 0 0 0 0 0 0 0 0 0 0 0 0 0 0 0 0 0 0 0 0 0 0 0 0 0 0 0 0 0 0 0 0 0 0 0 0 0 0 0 0 0 0 0 0 0 0 0 0 0 0 0 0 0 0 0 0 
0 0 0 0 0 0 0 0 0 0 0 0 0 0 0 0 0 0 0 0 0 0 0 0 0 0 0 0 0 0 0 0 0 0 0 0 0 0 0 0 0 0 0 0 0 0 0 0 0 0 0 0 0 0 0 0 0 0 0 0 0 0 0 0 0 0 0 0 0 0 0 0 0 0 0 0 0 0 0 0 0 0 0 0 0 0 0 0 0 0 0 0 0 0 0 0 0 0 0 0 0 0 0 0 0 0 0 0 0 0 0 0 0 0 0 0 0 0 0 0 0 0 0 0 0 0 0 0 0 0 0 0 0 0 0 0 0 0 0 0 0 0 0 0 0 0 0 0 0 0 0 0 0 0 0 0 0 0 0 0 0 0 
