P3
33 26
255
0 0 0 0 0 0 0 0 0 0 0 0 0 0 0 0 0 0 0 0 0 0 0 0 0 0 0 0 0 0 0 0 0 0 0 0 0 0 0 0 0 0 0 0 0 0 0 0 0 0 0 0 0 0 0 0 0 0 0 0 0 0 0 0 0 0 0 0 0 0 0 0 0 0 0 0 0 0 0 0 0 0 0 0 0 0 0 0 0 0 0 0 0 0 0 0 0 0 0 
0 0 0 0 0 0 0 0 0 0 0 0 0 0 0 0 0 0 0 0 0 0 0 0 0 0 0 0 0 0 0 0 0 0 0 0 0 0 0 0 0 0 0 0 0 0 0 0 0 0 0 0 0 0 0 0 0 0 0 0 0 0 0 0 0 0 0 0 0 0 0 0 0 0 0 0 0 0 0 0 0 0 0 0 0 0 0 0 0 0 0 0 0 0 0 0 0 0 0 
0 0 0 0 0 0 0 0 0 0 0 0 0 0 0 0 0 0 0 0 0 0 0 0 0 0 0 0 0 0 0 0 0 0 0 0 0 0 0 2 2 2 2 2 2 0 0 0 0 0 1 0 0 0 0 0 0 0 0 0 0 0 0 0 0 0 0 0 0 0 0 0 0 0 0 0 0 0 0 0 0 0 0 0 0 0 0 0 0 0 0 0 0 0 0 0 0 0 0 
0 0 0 0 0 0 0 0 0 0 0 0 0 0 0 0 0 0 0 0 0 0 0 0 0 0 0 0 0 0 0 0 0 0 0 0 0 0 0 1 1 1 0 0 0 1 1 0 0 0 0 0 0 0 0 0 0 0 0 0 0 0 0 0 0 0 0 0 0 0 0 0 0 0 0 0 0 0 0 0 0 0 0 0 0 0 0 0 0 0 0 0 0 0 0 0 0 0 0 
0 0 0 0 0 0 0 0 0 0 0 0 0 0 0 0 0 0 0 0 0 0 0 0 0 0 0 0 0 0 0 0 0 0 0 0 0 0 0 6 6 6 18 18 19 14 13 22 9 9 13 1 1 0 0 0 0 0 0 0 0 0 0 0 0 0 0 0 0 0 0 0 0 0 0 0 0 0 0 0 0 0 0 0 0 0 0 0 0 0 0 0 0 0 0 0 0 0 0 
0 0 0 0 0 0 0 0 0 0 0 0 0 0 0 0 0 0 0 0 0 0 0 0 0 0 0 0 0 0 0 0 0 5 5 5 20 20 20 13 13 15 37 35 34 101 96 78 33 31 37 0 0 3 6 6 5 0 0 0 0 0 0 0 0 0 0 0 0 0 0 0 0 0 0 0 0 0 0 0 0 0 0 0 0 0 0 0 0 0 0 0 0 0 0 0 0 0 0 
0 0 0 0 0 0 0 0 0 0 0 0 0 0 0 0 0 0 0 0 0 0 0 0 0 0 0 7 7 8 21 21 22 16 16 17 7 7 8 29 26 24 107 100 76 199 189 142 166 157 124 109 103 87 11 11 20 2 2 3 1 1 0 0 0 0 0 0 0 0 0 0 0 0 0 0 0 0 0 0 0 0 0 0 0 0 0 0 0 0 0 0 0 0 0 0 0 0 0 
0 0 0 0 0 0 0 0 0 0 0 0 0 0 0 0 0 0 0 0 0 8 8 8 22 22 22 22 22 24 9 9 9 0 0 0 20 19 17 108 101 69 167 158 116 200 191 152 246 235 186 229 218 171 150 141 106 64 61 52 0 0 2 1 1 0 0 0 0 0 0 0 0 0 0 0 0 0 0 0 0 0 0 0 0 0 0 0 0 0 0 0 0 0 0 0 0 0 0 
0 0 0 0 0 0 0 0 0 0 0 0 0 0 0 2 2 3 20 20 20 25 25 26 9 9 9 0 0 0 0 0 0 26 23 11 97 88 47 125 116 76 168 160 119 232 221 175 248 242 209 240 231 188 227 214 153 121 113 82 0 0 6 0 0 0 0 0 0 0 0 0 0 0 0 0 0 0 0 0 0 0 0 0 0 0 0 0 0 0 0 0 0 0 0 0 0 0 0 
0 0 0 0 0 0 0 0 0 0 0 0 0 0 0 28 28 32 41 40 44 0 0 0 0 0 0 2 2 1 0 0 0 27 25 16 99 90 49 126 117 76 180 170 127 203 194 156 245 242 219 247 238 196 208 195 138 88 83 72 5 5 14 0 0 0 1 1 1 0 0 0 0 0 0 0 0 0 0 0 0 0 0 0 0 0 0 0 0 0 0 0 0 0 0 0 0 0 0 
0 0 0 0 0 0 0 0 0 0 0 0 0 0 0 36 35 39 31 30 34 0 0 0 0 0 0 0 0 0 0 0 0 24 21 14 99 89 45 124 114 72 71 68 54 13 13 14 139 134 110 247 235 178 200 188 131 118 110 77 4 4 11 2 2 2 1 1 1 1 1 1 1 1 1 0 0 0 0 0 0 0 0 0 0 0 0 0 0 0 0 0 0 0 0 0 0 0 0 
0 0 0 0 0 0 0 0 0 0 0 0 0 0 0 10 10 11 34 33 33 33 32 34 13 12 15 4 3 4 0 0 0 24 22 12 96 85 38 121 110 64 115 108 73 25 24 24 145 137 107 220 208 151 180 168 107 97 90 72 4 5 13 0 0 0 0 0 0 0 0 0 0 0 0 0 0 0 0 0 0 0 0 0 0 0 0 0 0 0 0 0 0 0 0 0 0 0 0 
0 0 0 0 0 0 0 0 0 0 0 0 0 0 0 0 0 0 1 1 1 21 21 19 35 34 34 27 27 29 13 13 17 31 28 21 91 80 28 109 97 45 145 133 80 166 155 107 189 177 122 178 165 110 164 149 85 89 81 58 60 61 73 86 85 89 82 81 86 89 88 93 26 26 28 0 0 0 1 1 1 0 0 0 0 0 0 0 0 0 0 0 0 0 0 0 0 0 0 
0 0 0 0 0 0 0 0 0 0 0 0 0 0 0 0 0 0 0 0 0 0 0 0 6 6 5 23 23 23 23 23 25 36 34 27 73 64 31 90 80 40 116 104 54 145 132 73 154 141 83 151 137 78 141 125 54 87 79 49 109 109 121 111 110 115 110 109 115 113 112 119 95 94 100 8 8 9 1 1 1 1 1 1 0 0 0 0 0 0 0 0 0 0 0 0 0 0 0 
0 0 0 0 0 0 0 0 0 0 0 0 0 0 0 0 0 0 1 1 1 2 2 3 0 0 0 0 0 0 2 2 2 18 18 16 31 29 29 62 53 20 85 75 34 100 89 49 128 113 53 118 104 46 51 46 35 84 82 89 110 109 116 95 94 99 99 98 104 97 96 102 108 107 113 54 53 57 0 0 0 1 1 1 0 0 0 0 0 0 0 0 0 0 0 0 0 0 0 
0 0 0 0 0 0 0 0 0 0 0 0 0 0 1 2 2 2 0 0 0 0 0 0 8 9 10 25 27 31 42 43 47 70 71 76 90 91 97 72 69 71 71 62 27 96 80 14 67 60 42 61 57 53 44 44 55 81 80 86 88 88 93 87 86 93 95 93 99 96 95 101 99 98 104 99 98 104 11 11 12 0 0 0 1 1 1 0 0 0 0 0 0 0 0 0 0 0 0 
0 0 0 0 0 0 0 0 0 1 1 2 0 0 0 0 0 0 11 12 14 62 66 81 109 115 140 110 117 139 99 106 118 93 94 101 143 142 150 150 150 157 38 37 31 61 56 32 47 45 43 56 56 58 106 106 113 91 91 98 90 91 97 91 91 96 102 101 107 109 108 114 105 103 110 114 113 119 48 48 51 0 0 0 1 1 1 0 0 0 0 0 0 0 0 0 0 0 0 
0 0 0 0 0 0 0 0 0 0 0 0 7 7 7 51 54 62 100 106 123 115 122 143 105 112 128 97 105 120 98 105 121 99 105 116 106 106 113 103 103 107 74 72 70 66 63 56 66 64 57 80 79 79 115 114 125 118 118 128 107 109 116 104 104 111 109 110 118 107 110 117 105 108 118 131 134 144 100 101 110 1 1 1 0 0 0 0 0 0 0 0 0 0 0 0 0 0 0 
0 0 0 1 1 1 8 8 9 47 49 53 96 102 114 117 124 145 111 118 139 109 115 135 114 120 141 115 121 143 118 123 145 120 124 140 119 122 136 118 121 134 123 126 133 134 138 136 131 137 147 129 137 150 128 134 147 124 130 143 122 126 137 132 135 146 130 131 140 119 119 129 142 139 152 157 151 167 182 174 189 47 45 51 0 0 0 2 1 2 0 0 0 0 0 0 0 0 0 
1 1 1 0 0 0 63 63 67 107 111 127 92 96 115 89 91 109 116 121 140 113 118 134 112 117 133 112 117 132 113 121 134 122 129 142 130 134 149 136 141 156 141 146 161 142 145 162 147 144 161 148 142 157 150 139 157 148 136 154 125 113 125 123 108 121 108 96 107 82 73 80 75 66 74 96 80 91 128 107 120 88 78 88 8 9 9 1 1 0 0 0 0 0 0 0 0 0 0 
0 0 0 7 6 6 79 81 86 84 91 107 62 64 78 74 77 87 116 120 132 115 116 128 125 123 137 138 130 147 153 139 157 158 140 160 144 126 144 137 118 135 156 128 148 171 141 163 172 146 177 141 117 145 136 123 153 107 97 122 21 16 18 2 0 1 0 0 0 0 0 0 0 0 0 0 0 0 0 0 0 21 19 24 12 11 14 0 0 0 0 0 0 0 0 0 0 0 0 
0 0 0 30 29 30 101 94 109 131 115 141 81 72 86 122 107 127 185 153 185 184 146 181 179 139 172 148 113 138 101 75 90 54 40 49 17 12 15 4 2 3 18 15 19 42 39 44 56 52 63 62 51 65 35 29 38 7 5 8 1 2 2 0 0 0 1 1 1 2 2 2 2 2 2 2 2 2 2 2 2 2 2 3 0 0 0 0 0 0 0 0 0 0 0 0 0 0 0 
1 1 1 33 29 32 141 121 146 239 196 246 159 129 162 171 136 173 179 137 174 116 87 110 52 38 48 11 7 10 0 0 0 0 0 0 0 0 0 0 0 0 0 0 0 0 0 0 0 0 0 0 0 0 0 0 0 0 0 0 0 0 0 0 0 0 0 0 0 0 0 0 0 0 0 0 0 0 0 0 0 0 0 0 0 0 0 0 0 0 0 0 0 0 0 0 0 0 0 
1 1 1 0 0 0 16 16 17 68 59 75 81 62 79 45 34 40 21 16 18 0 0 0 0 0 0 0 0 0 2 1 2 2 2 2 1 1 1 0 0 0 1 1 1 2 2 2 2 2 2 2 2 2 1 1 2 1 0 1 0 0 0 0 0 0 0 0 0 0 0 0 0 0 0 0 0 0 0 0 0 0 0 0 0 0 0 0 0 0 0 0 0 0 0 0 0 0 0 
0 0 0 0 0 0 0 0 0 0 0 0 0 0 0 0 0 0 0 0 0 0 0 0 2 1 2 1 1 1 0 0 0 0 0 0 0 0 0 0 0 0 0 0 0 0 0 0 0 0 0 0 0 0 0 0 0 0 0 0 0 0 0 0 0 0 0 0 0 0 0 0 0 0 0 0 0 0 0 0 0 0 0 0 0 0 0 0 0 0 0 0 0 0 0 0 0 0 0 
0 0 0 0 0 0 1 1 1 2 2 2 3 2 3 2 2 2 1 1 1 0 0 0 0 0 0 0 0 0 0 0 0 0 0 0 0 0 0 0 0 0 0 0 0 0 0 0 0 0 0 0 0 0 0 0 0 0 0 0 0 0 0 0 0 0 0 0 0 0 0 0 0 0 0 0 0 0 0 0 0 0 0 0 0 0 0 0 0 0 0 0 0 0 0 0 0 0 0 
