P3
36 29
255
0 0 0 0 0 0 0 0 0 0 0 0 0 0 0 0 0 0 0 0 0 0 0 0 0 0 0 0 0 0 0 0 0 0 0 0 0 0 0 0 0 0 0 0 0 0 0 0 0 0 0 0 0 0 0 0 0 0 0 0 0 0 0 0 0 0 0 0 0 0 0 0 0 0 0 0 0 0 0 0 0 0 0 0 0 0 0 0 0 0 0 0 0 0 0 0 0 0 0 0 0 0 0 0 0 0 0 0 
0 0 0 0 0 0 0 0 0 0 0 0 0 0 0 0 0 0 0 0 0 0 0 0 0 0 0 0 0 0 0 0 0 0 0 0 0 0 0 0 0 0 0 0 0 0 0 0 0 0 0 0 0 0 0 0 0 0 0 0 0 0 0 0 0 0 0 0 0 0 0 0 0 0 0 0 0 0 0 0 0 0 0 0 0 0 0 0 0 0 0 0 0 0 0 0 0 0 0 0 0 0 0 0 0 0 0 0 
0 0 0 0 0 0 0 0 0 0 0 0 0 0 0 0 0 0 0 0 0 0 0 0 0 0 0 0 0 0 0 0 0 0 0 0 0 0 0 0 0 0 1 1 1 1 1 1 0 0 0 0 0 0 0 0 0 0 0 0 0 0 0 0 0 0 0 0 0 0 0 0 0 0 0 0 0 0 0 0 0 0 0 0 0 0 0 0 0 0 0 0 0 0 0 0 0 0 0 0 0 0 0 0 0 0 0 0 
0 0 0 0 0 0 0 0 0 0 0 0 0 0 0 0 0 0 0 0 0 0 0 0 0 0 0 0 0 0 0 0 0 0 0 0 0 0 0 0 0 0 2 2 2 4 4 4 0 0 0 0 0 0 0 0 0 0 0 0 0 0 0 0 0 0 0 0 0 0 0 0 0 0 0 0 0 0 0 0 0 0 0 0 0 0 0 0 0 0 0 0 0 0 0 0 0 0 0 0 0 0 0 0 0 0 0 0 
0 0 0 0 0 0 0 0 0 0 0 0 0 0 0 0 0 0 0 0 0 0 0 0 0 0 0 0 0 0 0 0 0 0 0 0 0 0 0 0 0 0 0 0 0 3 3 3 9 9 10 4 4 5 0 0 0 0 0 1 0 0 0 0 0 0 0 0 0 0 0 0 0 0 0 0 0 0 0 0 0 0 0 0 0 0 0 0 0 0 0 0 0 0 0 0 0 0 0 0 0 0 0 0 0 0 0 0 
0 0 0 0 0 0 0 0 0 0 0 0 0 0 0 0 0 0 0 0 0 0 0 0 0 0 0 0 0 0 0 0 1 0 0 0 0 0 0 1 1 1 13 13 12 26 26 26 30 29 33 31 29 39 5 5 7 0 0 0 1 1 1 0 0 0 0 0 0 0 0 0 0 0 0 0 0 0 0 0 0 0 0 0 0 0 0 0 0 0 0 0 0 0 0 0 0 0 0 0 0 0 0 0 0 0 0 0 
0 0 0 0 0 0 0 0 0 0 0 0 0 0 0 0 0 0 0 0 0 0 0 0 0 0 0 0 0 0 0 0 0 1 1 2 10 10 10 23 23 23 14 14 15 15 13 18 135 127 94 110 105 86 25 22 27 15 15 16 6 6 5 0 0 0 0 0 0 0 0 0 0 0 0 0 0 0 0 0 0 0 0 0 0 0 0 0 0 0 0 0 0 0 0 0 0 0 0 0 0 0 0 0 0 0 0 0 
0 0 0 0 0 0 0 0 0 0 0 0 0 0 0 0 0 0 0 0 0 0 0 0 0 0 0 1 1 1 15 15 15 25 25 27 14 14 14 0 0 0 34 31 27 101 94 70 183 174 131 201 191 150 197 186 146 91 86 78 12 12 20 6 5 6 0 0 0 0 0 0 0 0 0 0 0 0 0 0 0 0 0 0 0 0 0 0 0 0 0 0 0 0 0 0 0 0 0 0 0 0 0 0 0 0 0 0 
0 0 0 0 0 0 0 0 0 0 0 0 0 0 0 0 0 0 0 0 0 1 1 1 15 15 15 27 27 28 19 19 19 3 3 3 0 1 0 22 21 19 96 89 60 159 150 106 188 180 140 227 216 174 252 240 191 209 198 153 156 146 106 48 46 44 0 0 0 1 1 0 0 0 0 0 0 0 0 0 0 0 0 0 0 0 0 0 0 0 0 0 0 0 0 0 0 0 0 0 0 0 0 0 0 0 0 0 
0 0 0 0 0 0 0 0 0 0 0 0 0 0 0 0 0 0 7 7 8 27 27 28 21 21 22 3 3 3 1 0 0 0 0 0 22 20 10 95 86 44 118 109 69 152 143 105 207 197 152 246 238 197 244 239 206 235 224 173 211 197 138 87 82 63 0 0 1 1 1 0 0 0 0 0 0 0 0 0 0 0 0 0 0 0 0 0 0 0 0 0 0 0 0 0 0 0 0 0 0 0 0 0 0 0 0 0 
0 0 0 0 0 0 0 0 0 0 0 0 0 0 0 4 4 4 48 47 53 20 20 21 0 0 0 1 1 1 2 1 1 0 0 0 25 23 14 96 87 47 117 108 68 169 159 115 210 199 154 235 230 199 255 253 229 234 222 170 186 175 123 57 54 57 4 4 8 0 0 0 0 0 0 0 0 0 0 0 0 0 0 0 0 0 0 0 0 0 0 0 0 0 0 0 0 0 0 0 0 0 0 0 0 0 0 0 
0 0 0 0 0 0 0 0 0 1 1 1 0 0 0 15 15 16 47 45 52 13 12 13 0 0 0 1 1 1 1 1 1 0 0 0 15 13 12 91 82 43 124 114 68 102 97 72 56 54 46 68 67 61 241 231 183 225 213 160 191 179 121 83 78 63 0 0 5 2 2 1 2 2 2 2 2 2 1 1 1 0 0 0 0 0 0 0 0 0 0 0 0 0 0 0 0 0 0 0 0 0 0 0 0 0 0 0 
0 0 0 0 0 0 0 0 0 0 0 0 0 0 0 5 5 6 33 33 34 34 33 35 12 12 15 1 1 2 1 1 0 0 0 0 27 24 13 96 85 38 119 107 61 108 101 69 14 14 15 22 22 25 213 202 152 207 197 141 177 165 104 82 76 61 2 2 8 0 0 0 0 0 0 0 0 0 1 1 1 0 0 0 0 0 0 0 0 0 0 0 0 0 0 0 0 0 0 0 0 0 0 0 0 0 0 0 
0 0 0 0 0 0 0 0 0 0 0 0 0 0 0 0 0 0 1 1 1 22 21 20 41 40 40 30 29 32 16 16 18 4 4 5 15 14 12 86 76 30 104 93 45 148 136 84 135 126 89 151 142 105 206 193 138 184 171 115 153 139 81 65 61 66 24 25 32 38 37 38 38 38 40 43 42 45 13 13 14 0 0 0 1 1 1 0 0 0 0 0 0 0 0 0 0 0 0 0 0 0 0 0 0 0 0 0 
0 0 0 0 0 0 0 0 0 0 0 0 0 0 0 0 0 0 0 0 0 0 0 0 5 5 4 25 25 24 30 30 31 19 19 23 39 37 29 86 75 28 100 88 35 119 107 54 153 140 84 173 161 104 166 153 97 160 145 87 149 133 62 79 73 51 108 108 121 118 117 122 114 113 119 122 121 128 87 87 92 4 4 4 0 0 0 0 0 0 0 0 0 0 0 0 0 0 0 0 0 0 0 0 0 0 0 0 
0 0 0 0 0 0 0 0 0 0 0 0 0 0 0 0 0 0 0 0 0 1 1 1 0 0 0 0 0 0 13 13 13 22 21 22 25 23 20 52 46 29 71 64 36 96 86 45 119 107 57 139 125 65 147 132 71 135 120 60 100 88 37 83 80 79 111 110 118 98 97 102 101 100 106 98 97 102 110 109 116 53 52 56 0 0 0 2 1 2 0 0 0 0 0 0 0 0 0 0 0 0 0 0 0 0 0 0 
0 0 0 0 0 0 0 0 0 0 0 0 0 0 0 0 0 0 0 0 0 1 1 2 1 1 1 0 0 0 0 0 0 0 0 1 21 22 21 33 33 39 48 42 19 79 68 23 85 75 37 99 88 47 121 106 45 70 62 37 31 31 43 104 102 110 103 102 108 94 93 99 99 98 104 100 99 105 100 99 105 94 93 99 11 11 12 0 0 0 1 1 1 0 0 0 0 0 0 0 0 0 0 0 0 0 0 0 
0 0 0 0 0 0 0 0 0 0 0 0 0 0 0 1 1 1 1 1 1 0 0 0 2 2 2 26 27 33 44 47 55 62 64 70 83 84 91 108 109 115 98 97 107 57 53 47 95 79 8 79 68 27 48 45 51 60 58 63 60 59 65 83 83 88 83 83 88 88 87 93 94 92 98 96 95 101 97 96 102 111 110 116 55 55 58 0 0 0 2 2 2 0 0 0 0 0 0 0 0 0 0 0 0 0 0 0 
0 0 0 0 0 0 0 0 0 1 1 1 1 1 1 0 0 0 0 0 0 30 32 39 91 96 118 120 127 154 112 120 141 98 106 118 91 93 99 125 124 132 178 177 183 53 52 50 48 45 32 55 52 44 43 42 41 83 81 83 107 108 117 92 93 100 92 93 99 93 92 98 103 103 109 111 110 116 106 105 113 111 110 116 90 89 95 5 5 5 0 0 0 0 0 0 0 0 0 0 0 0 0 0 0 0 0 0 
0 0 0 0 0 0 1 0 1 0 0 0 0 0 0 23 24 27 77 81 94 113 120 141 111 118 138 99 106 120 95 102 116 97 103 119 99 105 117 103 104 110 104 104 110 80 79 78 65 62 56 65 62 52 62 61 56 95 94 98 117 117 129 118 118 127 105 107 113 104 103 111 110 110 119 107 109 116 107 109 119 116 119 129 135 136 147 32 32 35 0 0 0 1 1 1 0 0 0 0 0 0 0 0 0 0 0 0 
0 0 0 0 0 1 2 1 1 20 19 21 67 70 77 109 116 132 113 121 141 107 114 133 110 116 136 115 121 143 114 121 144 118 124 147 119 124 141 118 122 136 120 122 134 118 119 129 129 129 125 132 134 134 127 132 145 128 133 146 125 131 144 120 126 138 118 122 133 126 129 140 125 128 135 110 113 121 136 136 148 140 139 152 180 177 192 105 102 111 0 0 0 1 1 1 0 0 0 0 0 0 0 0 0 0 0 0 
2 2 2 0 0 0 40 39 41 95 97 108 113 118 138 92 94 113 111 115 137 114 119 139 113 117 135 114 118 136 114 118 134 114 120 134 120 126 139 123 128 142 123 132 145 131 140 153 135 145 160 140 147 163 143 146 161 144 143 158 145 139 155 141 134 149 138 128 142 144 130 145 133 122 135 110 99 110 107 96 106 119 102 116 157 131 149 148 130 144 36 34 39 0 0 0 1 1 1 0 0 0 0 0 0 0 0 0 
1 1 1 0 0 0 71 71 74 90 94 107 85 90 108 49 50 59 105 111 125 113 118 131 112 118 130 114 119 132 120 123 136 133 133 147 146 141 159 154 143 161 157 143 162 165 147 166 171 145 165 172 146 169 163 137 164 144 122 144 154 139 169 121 107 129 43 34 38 30 24 27 17 13 15 4 4 4 0 0 0 1 1 2 4 3 4 24 19 23 37 35 41 1 1 1 0 0 0 0 0 0 0 0 0 0 0 0 
0 0 0 7 7 7 78 78 84 77 81 95 91 88 105 60 58 67 127 120 134 138 124 143 153 132 154 165 138 164 168 136 162 154 122 142 124 98 116 81 65 75 53 41 49 67 52 61 105 86 103 122 108 125 118 105 135 103 86 109 69 66 87 34 31 39 3 3 3 0 0 0 0 0 0 0 0 0 1 1 1 0 0 0 0 0 0 2 3 4 9 9 12 0 0 0 0 0 0 0 0 0 0 0 0 0 0 0 
0 0 0 26 24 26 128 111 132 187 152 191 164 135 167 93 82 100 221 175 224 202 156 202 179 135 174 132 97 124 74 54 68 23 16 20 0 0 0 0 0 0 0 0 0 0 0 0 0 1 0 0 1 1 6 4 4 12 8 9 0 0 0 0 0 0 2 1 2 1 1 1 1 1 1 0 0 0 0 0 0 0 0 0 1 1 1 1 1 1 0 0 0 0 0 0 0 0 0 0 0 0 0 0 0 0 0 0 
0 0 0 11 8 9 79 69 80 179 154 191 200 160 207 137 106 132 142 109 138 93 70 85 32 25 28 0 0 0 0 0 0 0 0 0 1 1 1 3 2 3 2 2 2 2 2 2 2 1 1 1 1 1 0 0 0 0 0 0 1 2 2 1 1 1 0 0 0 0 0 0 0 0 0 0 0 0 0 0 0 0 0 0 0 0 0 0 0 0 0 0 0 0 0 0 0 0 0 0 0 0 0 0 0 0 0 0 
0 0 0 0 0 0 1 1 0 13 12 15 34 27 35 19 13 16 5 5 4 0 0 0 0 0 0 1 0 1 2 2 2 1 1 1 0 0 0 0 0 0 0 0 0 0 0 0 0 0 0 0 0 0 0 0 0 1 0 0 0 0 0 0 0 0 0 0 0 0 0 0 0 0 0 0 0 0 0 0 0 0 0 0 0 0 0 0 0 0 0 0 0 0 0 0 0 0 0 0 0 0 0 0 0 0 0 0 
0 0 0 1 0 1 2 1 2 0 0 0 0 0 0 0 0 0 0 0 0 1 1 1 1 1 1 0 0 0 0 0 0 0 0 0 0 0 0 0 0 0 0 0 0 0 0 0 0 0 0 0 0 0 0 0 0 0 0 0 0 0 0 0 0 0 0 0 0 0 0 0 0 0 0 0 0 0 0 0 0 0 0 0 0 0 0 0 0 0 0 0 0 0 0 0 0 0 0 0 0 0 0 0 0 0 0 0 
0 0 0 0 0 0 0 0 0 1 1 1 2 1 2 1 1 1 1 1 1 0 0 0 0 0 0 0 0 0 0 0 0 0 0 0 0 0 0 0 0 0 0 0 0 0 0 0 0 0 0 0 0 0 0 0 0 0 0 0 0 0 0 0 0 0 0 0 0 0 0 0 0 0 0 0 0 0 0 0 0 0 0 0 0 0 0 0 0 0 0 0 0 0 0 0 0 0 0 0 0 0 0 0 0 0 0 0 
