P3
81 65
255
0 0 0 0 0 0 0 0 0 0 0 0 0 0 0 0 0 0 0 0 0 0 0 0 0 0 0 0 0 0 0 0 0 0 0 0 0 0 0 0 0 0 0 0 0 0 0 0 0 0 0 0 0 0 0 0 0 0 0 0 0 0 0 0 0 0 0 0 0 0 0 0 0 0 0 0 0 0 0 0 0 0 0 0 0 0 0 0 0 0 0 0 0 0 0 0 0 0 0 0 0 0 0 0 0 0 0 0 0 0 0 0 0 0 0 0 0 0 0 0 0 0 0 0 0 0 0 0 0 0 0 0 0 0 0 0 0 0 0 0 0 0 0 0 0 0 0 0 0 0 0 0 0 0 0 0 0 0 0 0 0 0 0 0 0 0 0 0 0 0 0 0 0 0 0 0 0 0 0 0 0 0 0 0 0 0 0 0 0 0 0 0 0 0 0 0 0 0 0 0 0 0 0 0 0 0 0 0 0 0 0 0 0 0 0 0 0 0 0 0 0 0 0 0 0 0 0 0 0 0 0 0 0 0 0 0 0 0 0 0 0 0 0 
0 0 0 0 0 0 0 0 0 0 0 0 0 0 0 0 0 0 0 0 0 0 0 0 0 0 0 0 0 0 0 0 0 0 0 0 0 0 0 0 0 0 0 0 0 0 0 0 0 0 0 0 0 0 0 0 0 0 0 0 0 0 0 0 0 0 0 0 0 0 0 0 0 0 0 0 0 0 0 0 0 0 0 0 0 0 0 0 0 0 0 0 0 0 0 0 0 0 0 0 0 0 0 0 0 0 0 0 0 0 0 0 0 0 0 0 0 0 0 0 0 0 0 0 0 0 0 0 0 0 0 0 0 0 0 0 0 0 0 0 0 0 0 0 0 0 0 0 0 0 0 0 0 0 0 0 0 0 0 0 0 0 0 0 0 0 0 0 0 0 0 0 0 0 0 0 0 0 0 0 0 0 0 0 0 0 0 0 0 0 0 0 0 0 0 0 0 0 0 0 0 0 0 0 0 0 0 0 0 0 0 0 0 0 0 0 0 0 0 0 0 0 0 0 0 0 0 0 0 0 0 0 0 0 0 0 0 0 0 0 0 0 0 
0 0 0 0 0 0 0 0 0 0 0 0 0 0 0 0 0 0 0 0 0 0 0 0 0 0 0 0 0 0 0 0 0 0 0 0 0 0 0 0 0 0 0 0 0 0 0 0 0 0 0 0 0 0 0 0 0 0 0 0 0 0 0 0 0 0 0 0 0 0 0 0 0 0 0 0 0 0 0 0 0 0 0 0 0 0 0 0 0 0 0 0 0 0 0 0 0 0 0 0 0 0 0 0 0 0 0 0 0 0 0 0 0 0 0 0 0 0 0 0 0 0 0 0 0 0 0 0 0 0 0 0 0 0 0 0 0 0 0 0 0 0 0 0 0 0 0 0 0 0 0 0 0 0 0 0 0 0 0 0 0 0 0 0 0 0 0 0 0 0 0 0 0 0 0 0 0 0 0 0 0 0 0 0 0 0 0 0 0 0 0 0 0 0 0 0 0 0 0 0 0 0 0 0 0 0 0 0 0 0 0 0 0 0 0 0 0 0 0 0 0 0 0 0 0 0 0 0 0 0 0 0 0 0 0 0 0 0 0 0 0 0 0 
0 0 0 0 0 0 0 0 0 0 0 0 0 0 0 0 0 0 0 0 0 0 0 0 0 0 0 0 0 0 0 0 0 0 0 0 0 0 0 0 0 0 0 0 0 0 0 0 0 0 0 0 0 0 0 0 0 0 0 0 0 0 0 0 0 0 0 0 0 0 0 0 0 0 0 0 0 0 0 0 0 0 0 0 0 0 0 0 0 0 0 0 0 0 0 0 0 0 0 0 0 0 0 0 0 0 0 0 0 0 0 0 0 0 0 0 0 0 0 0 0 0 0 0 0 0 0 0 0 0 0 0 0 0 0 0 0 0 0 0 0 0 0 0 0 0 0 0 0 0 0 0 0 0 0 0 0 0 0 0 0 0 0 0 0 0 0 0 0 0 0 0 0 0 0 0 0 0 0 0 0 0 0 0 0 0 0 0 0 0 0 0 0 0 0 0 0 0 0 0 0 0 0 0 0 0 0 0 0 0 0 0 0 0 0 0 0 0 0 0 0 0 0 0 0 0 0 0 0 0 0 0 0 0 0 0 0 0 0 0 0 0 0 
0 0 0 0 0 0 0 0 0 0 0 0 0 0 0 0 0 0 0 0 0 0 0 0 0 0 0 0 0 0 0 0 0 0 0 0 0 0 0 0 0 0 0 0 0 0 0 0 0 0 0 0 0 0 0 0 0 0 0 0 0 0 0 0 0 0 0 0 0 0 0 0 0 0 0 0 0 0 0 0 0 0 0 0 0 0 0 0 0 0 0 0 0 0 0 0 0 0 0 0 0 0 0 0 0 0 0 0 0 0 0 0 0 0 0 0 0 0 0 0 0 0 0 0 0 0 0 0 0 0 0 0 0 0 0 0 0 0 0 0 0 0 0 0 0 0 0 0 0 0 0 0 0 0 0 0 0 0 0 0 0 0 0 0 0 0 0 0 0 0 0 0 0 0 0 0 0 0 0 0 0 0 0 0 0 0 0 0 0 0 0 0 0 0 0 0 0 0 0 0 0 0 0 0 0 0 0 0 0 0 0 0 0 0 0 0 0 0 0 0 0 0 0 0 0 0 0 0 0 0 0 0 0 0 0 0 0 0 0 0 0 0 0 
0 0 0 0 0 0 0 0 0 0 0 0 0 0 0 0 0 0 0 0 0 0 0 0 0 0 0 0 0 0 0 0 0 0 0 0 0 0 0 0 0 0 0 0 0 0 0 0 0 0 0 0 0 0 0 0 0 0 0 0 0 0 0 0 0 0 0 0 0 0 0 0 0 0 0 0 0 0 0 0 0 0 0 0 0 0 0 0 0 0 0 0 0 0 0 0 0 0 0 0 0 0 0 0 0 0 0 0 0 0 0 0 0 0 0 0 0 0 0 0 0 0 0 0 0 0 0 0 0 0 0 0 0 0 0 0 0 0 0 0 0 0 0 0 0 0 0 0 0 0 0 0 0 0 0 0 0 0 0 0 0 0 0 0 0 0 0 0 0 0 0 0 0 0 0 0 0 0 0 0 0 0 0 0 0 0 0 0 0 0 0 0 0 0 0 0 0 0 0 0 0 0 0 0 0 0 0 0 0 0 0 0 0 0 0 0 0 0 0 0 0 0 0 0 0 0 0 0 0 0 0 0 0 0 0 0 0 0 0 0 0 0 0 
0 0 0 0 0 0 0 0 0 0 0 0 0 0 0 0 0 0 0 0 0 0 0 0 0 0 0 0 0 0 0 0 0 0 0 0 0 0 0 0 0 0 0 0 0 0 0 0 0 0 0 0 0 0 0 0 0 0 0 0 0 0 0 0 0 0 0 0 0 0 0 0 0 0 0 0 0 0 0 0 0 0 0 0 0 0 0 0 0 0 0 0 0 0 0 0 0 0 0 4 4 4 7 7 7 0 0 0 0 0 0 0 0 0 0 0 0 0 0 0 0 0 0 0 0 0 0 0 0 0 0 0 0 0 0 0 0 0 0 0 0 0 0 0 0 0 0 0 0 0 0 0 0 0 0 0 0 0 0 0 0 0 0 0 0 0 0 0 0 0 0 0 0 0 0 0 0 0 0 0 0 0 0 0 0 0 0 0 0 0 0 0 0 0 0 0 0 0 0 0 0 0 0 0 0 0 0 0 0 0 0 0 0 0 0 0 0 0 0 0 0 0 0 0 0 0 0 0 0 0 0 0 0 0 0 0 0 0 0 0 0 0 0 
0 0 0 0 0 0 0 0 0 0 0 0 0 0 0 0 0 0 0 0 0 0 0 0 0 0 0 0 0 0 0 0 0 0 0 0 0 0 0 0 0 0 0 0 0 0 0 0 0 0 0 0 0 0 0 0 0 0 0 0 0 0 0 0 0 0 0 0 0 0 0 0 0 0 0 0 0 0 0 0 0 0 0 0 0 0 0 0 0 0 0 0 0 0 0 0 0 0 0 7 7 7 12 12 12 0 0 0 0 0 0 0 0 0 0 0 0 0 0 0 0 0 0 0 0 0 0 0 0 0 0 0 0 0 0 0 0 0 0 0 0 0 0 0 0 0 0 0 0 0 0 0 0 0 0 0 0 0 0 0 0 0 0 0 0 0 0 0 0 0 0 0 0 0 0 0 0 0 0 0 0 0 0 0 0 0 0 0 0 0 0 0 0 0 0 0 0 0 0 0 0 0 0 0 0 0 0 0 0 0 0 0 0 0 0 0 0 0 0 0 0 0 0 0 0 0 0 0 0 0 0 0 0 0 0 0 0 0 0 0 0 0 0 
0 0 0 0 0 0 0 0 0 0 0 0 0 0 0 0 0 0 0 0 0 0 0 0 0 0 0 0 0 0 0 0 0 0 0 0 0 0 0 0 0 0 0 0 0 0 0 0 0 0 0 0 0 0 0 0 0 0 0 0 0 0 0 0 0 0 0 0 0 0 0 0 0 0 0 0 0 0 0 0 0 0 0 0 0 0 0 0 0 0 0 0 0 0 0 0 1 1 1 1 1 1 4 4 4 0 0 0 0 0 0 1 1 1 0 0 0 0 0 0 0 0 0 0 0 0 0 0 0 0 0 0 0 0 0 0 0 0 0 0 0 0 0 0 0 0 0 0 0 0 0 0 0 0 0 0 0 0 0 0 0 0 0 0 0 0 0 0 0 0 0 0 0 0 0 0 0 0 0 0 0 0 0 0 0 0 0 0 0 0 0 0 0 0 0 0 0 0 0 0 0 0 0 0 0 0 0 0 0 0 0 0 0 0 0 0 0 0 0 0 0 0 0 0 0 0 0 0 0 0 0 0 0 0 0 0 0 0 0 0 0 0 0 
0 0 0 0 0 0 0 0 0 0 0 0 0 0 0 0 0 0 0 0 0 0 0 0 0 0 0 0 0 0 0 0 0 0 0 0 0 0 0 0 0 0 0 0 0 0 0 0 0 0 0 0 0 0 0 0 0 0 0 0 0 0 0 0 0 0 0 0 0 0 0 0 0 0 0 0 0 0 0 0 0 0 0 0 0 0 0 0 0 0 0 0 0 0 0 0 0 0 0 0 0 0 4 4 4 3 3 3 0 0 0 0 0 0 1 1 0 1 1 1 0 0 0 0 0 0 0 0 0 0 0 0 0 0 0 0 0 0 0 0 0 0 0 0 0 0 0 0 0 0 0 0 0 0 0 0 0 0 0 0 0 0 0 0 0 0 0 0 0 0 0 0 0 0 0 0 0 0 0 0 0 0 0 0 0 0 0 0 0 0 0 0 0 0 0 0 0 0 0 0 0 0 0 0 0 0 0 0 0 0 0 0 0 0 0 0 0 0 0 0 0 0 0 0 0 0 0 0 0 0 0 0 0 0 0 0 0 0 0 0 0 0 0 
0 0 0 0 0 0 0 0 0 0 0 0 0 0 0 0 0 0 0 0 0 0 0 0 0 0 0 0 0 0 0 0 0 0 0 0 0 0 0 0 0 0 0 0 0 0 0 0 0 0 0 0 0 0 0 0 0 0 0 0 0 0 0 0 0 0 0 0 0 0 0 0 0 0 0 0 0 0 0 0 0 0 0 0 0 0 0 0 0 0 0 0 0 0 0 0 0 0 0 1 1 1 1 1 1 1 1 1 7 7 8 17 17 18 3 3 4 0 0 0 1 1 1 0 0 0 0 0 0 0 0 0 0 0 0 0 0 0 0 0 0 0 0 0 0 0 0 0 0 0 0 0 0 0 0 0 0 0 0 0 0 0 0 0 0 0 0 0 0 0 0 0 0 0 0 0 0 0 0 0 0 0 0 0 0 0 0 0 0 0 0 0 0 0 0 0 0 0 0 0 0 0 0 0 0 0 0 0 0 0 0 0 0 0 0 0 0 0 0 0 0 0 0 0 0 0 0 0 0 0 0 0 0 0 0 0 0 0 0 0 0 0 0 
0 0 0 0 0 0 0 0 0 0 0 0 0 0 0 0 0 0 0 0 0 0 0 0 0 0 0 0 0 0 0 0 0 0 0 0 0 0 0 0 0 0 0 0 0 0 0 0 0 0 0 0 0 0 0 0 0 0 0 0 0 0 0 0 0 0 0 0 0 0 0 0 0 0 0 0 0 0 0 0 0 0 0 0 0 0 0 0 0 0 0 0 0 1 1 1 1 1 0 0 0 0 7 7 7 25 25 25 36 35 38 29 28 30 40 38 46 35 32 46 0 0 0 1 1 1 0 0 0 0 0 0 0 0 0 0 0 0 0 0 0 0 0 0 0 0 0 0 0 0 0 0 0 0 0 0 0 0 0 0 0 0 0 0 0 0 0 0 0 0 0 0 0 0 0 0 0 0 0 0 0 0 0 0 0 0 0 0 0 0 0 0 0 0 0 0 0 0 0 0 0 0 0 0 0 0 0 0 0 0 0 0 0 0 0 0 0 0 0 0 0 0 0 0 0 0 0 0 0 0 0 0 0 0 0 0 0 0 0 0 0 0 0 
0 0 0 0 0 0 0 0 0 0 0 0 0 0 0 0 0 0 0 0 0 0 0 0 0 0 0 0 0 0 0 0 0 0 0 0 0 0 0 0 0 0 0 0 0 0 0 0 0 0 0 0 0 0 0 0 0 0 0 0 0 0 0 0 0 0 0 0 0 0 0 0 0 0 0 0 0 0 0 0 0 0 0 0 0 0 0 1 1 1 0 0 0 0 0 0 6 6 6 29 29 29 37 37 36 46 46 49 37 36 43 11 11 18 18 16 26 54 49 66 35 33 46 0 0 0 1 1 2 0 0 0 0 0 0 0 0 0 0 0 0 0 0 0 0 0 0 0 0 0 0 0 0 0 0 0 0 0 0 0 0 0 0 0 0 0 0 0 0 0 0 0 0 0 0 0 0 0 0 0 0 0 0 0 0 0 0 0 0 0 0 0 0 0 0 0 0 0 0 0 0 0 0 0 0 0 0 0 0 0 0 0 0 0 0 0 0 0 0 0 0 0 0 0 0 0 0 0 0 0 0 0 0 0 0 0 0 0 0 0 0 0 0 
0 0 0 0 0 0 0 0 0 0 0 0 0 0 0 0 0 0 0 0 0 0 0 0 0 0 0 0 0 0 0 0 0 0 0 0 0 0 0 0 0 0 0 0 0 0 0 0 0 0 0 0 0 0 0 0 0 0 0 0 0 0 0 0 0 0 0 0 0 0 0 0 0 0 0 0 0 0 0 0 0 1 1 1 1 1 1 0 0 0 6 6 5 28 28 29 41 41 42 30 30 30 7 6 5 14 13 18 46 43 44 60 57 47 77 75 59 31 29 35 38 37 46 2 3 5 2 2 1 3 3 3 2 2 2 2 2 2 0 0 0 0 0 0 0 0 0 0 0 0 0 0 0 0 0 0 0 0 0 0 0 0 0 0 0 0 0 0 0 0 0 0 0 0 0 0 0 0 0 0 0 0 0 0 0 0 0 0 0 0 0 0 0 0 0 0 0 0 0 0 0 0 0 0 0 0 0 0 0 0 0 0 0 0 0 0 0 0 0 0 0 0 0 0 0 0 0 0 0 0 0 0 0 0 0 0 0 0 0 0 0 0 0 
0 0 0 0 0 0 0 0 0 0 0 0 0 0 0 0 0 0 0 0 0 0 0 0 0 0 0 0 0 0 0 0 0 0 0 0 0 0 0 0 0 0 0 0 0 0 0 0 0 0 0 0 0 0 0 0 0 0 0 0 0 0 0 0 0 0 0 0 0 0 0 0 0 0 0 1 1 1 0 0 0 0 0 0 5 5 5 26 26 26 42 42 44 30 30 30 7 8 7 0 0 0 3 4 6 22 21 26 128 120 85 163 154 110 187 179 131 89 86 75 35 30 37 49 44 43 13 12 15 14 14 14 16 16 16 12 12 12 0 0 0 1 1 1 0 0 0 0 0 0 0 0 0 0 0 0 0 0 0 0 0 0 0 0 0 0 0 0 0 0 0 0 0 0 0 0 0 0 0 0 0 0 0 0 0 0 0 0 0 0 0 0 0 0 0 0 0 0 0 0 0 0 0 0 0 0 0 0 0 0 0 0 0 0 0 0 0 0 0 0 0 0 0 0 0 0 0 0 0 0 0 0 0 0 0 0 0 0 0 0 0 0 0 
0 0 0 0 0 0 0 0 0 0 0 0 0 0 0 0 0 0 0 0 0 0 0 0 0 0 0 0 0 0 0 0 0 0 0 0 0 0 0 0 0 0 0 0 0 0 0 0 0 0 0 0 0 0 0 0 0 0 0 0 0 0 0 0 0 0 0 0 0 1 1 1 1 1 1 0 0 0 8 8 9 24 24 26 22 22 22 24 24 24 11 11 11 0 0 0 27 23 21 17 15 13 18 16 27 59 54 51 156 145 104 166 157 119 185 175 131 183 174 134 49 45 49 54 50 44 71 66 59 31 29 36 27 27 29 18 18 17 1 1 1 1 2 2 1 2 1 1 1 1 0 0 0 0 0 0 0 0 0 0 0 0 0 0 0 0 0 0 0 0 0 0 0 0 0 0 0 0 0 0 0 0 0 0 0 0 0 0 0 0 0 0 0 0 0 0 0 0 0 0 0 0 0 0 0 0 0 0 0 0 0 0 0 0 0 0 0 0 0 0 0 0 0 0 0 0 0 0 0 0 0 0 0 0 0 0 0 0 0 0 0 0 0 
0 0 0 0 0 0 0 0 0 0 0 0 0 0 0 0 0 0 0 0 0 0 0 0 0 0 0 0 0 0 0 0 0 0 0 0 0 0 0 0 0 0 0 0 0 0 0 0 0 0 0 0 0 0 0 0 0 0 0 0 0 0 0 1 1 1 0 0 0 0 0 0 6 6 5 29 29 29 46 46 48 31 31 33 7 7 7 1 1 1 0 0 0 0 0 0 25 23 25 50 45 40 39 34 37 107 102 74 171 162 120 179 170 131 190 181 140 207 199 154 191 181 140 196 184 144 215 208 157 82 75 72 23 24 30 45 43 48 9 10 11 3 2 2 6 5 6 0 0 0 0 0 0 0 0 0 0 0 0 0 0 0 0 0 0 0 0 0 0 0 0 0 0 0 0 0 0 0 0 0 0 0 0 0 0 0 0 0 0 0 0 0 0 0 0 0 0 0 0 0 0 0 0 0 0 0 0 0 0 0 0 0 0 0 0 0 0 0 0 0 0 0 0 0 0 0 0 0 0 0 0 0 0 0 0 0 0 0 0 0 0 0 0 
0 0 0 0 0 0 0 0 0 0 0 0 0 0 0 0 0 0 0 0 0 0 0 0 0 0 0 0 0 0 0 0 0 0 0 0 0 0 0 0 0 0 0 0 0 0 0 0 0 0 0 0 0 0 0 0 0 2 2 2 2 2 2 0 0 0 4 4 5 29 29 32 47 47 48 33 33 34 10 10 11 0 0 1 1 1 1 1 2 1 1 1 0 12 12 14 50 48 41 116 108 70 131 124 82 154 147 106 169 160 121 185 177 136 205 196 154 213 203 160 222 209 164 228 216 172 228 216 167 180 170 133 23 22 39 26 24 35 26 26 33 31 28 34 12 10 9 0 1 2 0 0 0 0 0 0 0 0 0 0 0 0 0 0 0 0 0 0 0 0 0 0 0 0 0 0 0 0 0 0 0 0 0 0 0 0 0 0 0 0 0 0 0 0 0 0 0 0 0 0 0 0 0 0 0 0 0 0 0 0 0 0 0 0 0 0 0 0 0 0 0 0 0 0 0 0 0 0 0 0 0 0 0 0 0 0 0 0 0 0 0 0 0 
0 0 0 0 0 0 0 0 0 0 0 0 0 0 0 0 0 0 0 0 0 0 0 0 0 0 0 0 0 0 0 0 0 0 0 0 0 0 0 0 0 0 0 0 0 0 0 0 0 0 0 1 1 1 0 0 0 0 0 0 6 6 5 30 30 31 46 46 48 36 36 37 15 15 15 1 1 1 0 0 0 0 0 0 1 1 1 0 0 0 12 12 13 23 20 34 82 77 49 126 119 76 139 129 92 160 151 112 176 167 128 196 187 146 217 207 167 224 212 170 232 221 176 238 227 182 231 220 176 226 215 167 148 142 107 136 125 94 151 142 97 55 51 54 6 6 11 1 2 1 0 0 0 0 0 0 0 0 0 0 0 0 0 0 0 0 0 0 0 0 0 0 0 0 0 0 0 0 0 0 0 0 0 0 0 0 0 0 0 0 0 0 0 0 0 0 0 0 0 0 0 0 0 0 0 0 0 0 0 0 0 0 0 0 0 0 0 0 0 0 0 0 0 0 0 0 0 0 0 0 0 0 0 0 0 0 0 0 0 0 0 0 0 
0 0 0 0 0 0 0 0 0 0 0 0 0 0 0 0 0 0 0 0 0 0 0 0 0 0 0 0 0 0 0 0 0 0 0 0 0 0 0 0 0 0 0 0 0 2 2 2 2 2 2 0 0 0 4 4 5 27 27 28 46 46 46 38 37 39 14 13 15 1 1 0 0 0 0 1 1 0 0 0 0 1 1 1 0 0 0 19 18 18 36 35 33 44 40 32 106 99 60 129 121 84 141 133 93 166 157 118 182 173 132 194 185 143 217 208 166 230 218 176 246 235 190 245 234 188 241 231 185 226 215 167 226 212 160 210 199 143 197 183 124 115 108 76 45 46 68 16 18 21 0 0 0 1 1 1 0 0 0 0 0 0 0 0 0 0 0 0 0 0 0 0 0 0 0 0 0 0 0 0 0 0 0 0 0 0 0 0 0 0 0 0 0 0 0 0 0 0 0 0 0 0 0 0 0 0 0 0 0 0 0 0 0 0 0 0 0 0 0 0 0 0 0 0 0 0 0 0 0 0 0 0 0 0 0 0 0 0 0 0 0 0 0 
0 0 0 0 0 0 0 0 0 0 0 0 0 0 0 0 0 0 0 0 0 0 0 0 0 0 0 0 0 0 0 0 0 0 0 0 0 0 0 0 0 0 0 0 0 0 0 0 5 5 5 29 29 31 52 52 55 39 39 40 16 16 16 2 2 2 0 0 0 0 0 0 0 0 0 0 0 0 0 0 0 0 0 0 4 4 4 73 67 33 91 84 43 105 95 53 113 102 62 130 121 82 148 139 100 172 163 122 184 175 132 209 200 157 231 222 179 241 230 186 244 238 195 254 246 205 249 239 191 235 223 173 220 208 159 202 190 142 186 175 124 167 154 98 69 65 62 14 14 22 0 0 0 1 1 1 0 0 0 0 0 0 0 0 0 0 0 0 0 0 0 0 0 0 0 0 0 0 0 0 0 0 0 0 0 0 0 0 0 0 0 0 0 0 0 0 0 0 0 0 0 0 0 0 0 0 0 0 0 0 0 0 0 0 0 0 0 0 0 0 0 0 0 0 0 0 0 0 0 0 0 0 0 0 0 0 0 0 0 0 0 0 0 
0 0 0 0 0 0 0 0 0 0 0 0 0 0 0 0 0 0 0 0 0 0 0 0 0 0 0 0 0 0 0 0 0 0 0 0 0 0 0 0 0 1 2 2 2 31 31 32 47 47 49 39 39 41 19 19 20 3 3 3 0 0 0 1 1 1 1 1 1 0 0 0 0 0 0 0 0 0 1 1 0 0 0 0 31 27 15 90 80 36 93 83 45 104 94 53 117 107 69 131 122 82 150 141 101 167 158 118 192 182 140 216 207 163 236 225 183 251 242 196 241 239 205 238 235 212 241 234 189 238 226 176 228 216 166 205 193 143 190 179 127 172 158 101 60 57 46 14 16 23 0 0 0 1 1 1 0 0 0 0 0 0 0 0 0 0 0 0 0 0 0 0 0 0 0 0 0 0 0 0 0 0 0 0 0 0 0 0 0 0 0 0 0 0 0 0 0 0 0 0 0 0 0 0 0 0 0 0 0 0 0 0 0 0 0 0 0 0 0 0 0 0 0 0 0 0 0 0 0 0 0 0 0 0 0 0 0 0 0 0 0 0 0 
0 0 0 0 0 0 0 0 0 0 0 0 0 0 0 0 0 0 0 0 0 0 0 0 0 0 0 0 0 0 0 0 0 0 0 0 0 0 0 7 7 9 33 32 36 28 28 29 19 19 18 3 3 4 0 0 0 0 0 0 0 0 0 0 0 0 0 0 0 0 0 0 0 0 0 0 0 0 1 1 0 0 0 0 59 53 24 90 83 39 93 85 47 104 95 54 121 112 71 130 121 80 147 138 97 167 158 117 193 184 142 217 206 161 236 225 180 248 241 202 245 243 227 252 250 236 252 245 203 237 225 174 229 217 167 206 195 143 199 187 131 136 126 80 41 40 52 33 34 41 0 0 0 1 1 1 0 0 0 0 0 0 0 0 0 0 0 0 0 0 0 0 0 0 0 0 0 0 0 0 0 0 0 0 0 0 0 0 0 0 0 0 0 0 0 0 0 0 0 0 0 0 0 0 0 0 0 0 0 0 0 0 0 0 0 0 0 0 0 0 0 0 0 0 0 0 0 0 0 0 0 0 0 0 0 0 0 0 0 0 0 0 0 
0 0 0 0 0 0 0 0 0 0 0 0 0 0 0 0 0 0 0 0 0 0 0 0 0 0 0 0 0 0 0 0 0 0 0 0 1 1 0 22 22 24 40 39 48 75 74 82 5 5 5 0 0 0 1 1 1 0 0 0 0 0 0 0 0 0 0 0 0 0 0 0 0 0 0 0 0 0 1 1 0 0 0 0 35 33 22 93 83 38 95 84 45 106 97 56 117 108 67 132 123 82 155 146 106 173 164 123 190 180 139 230 218 170 255 245 196 250 246 212 246 244 226 255 253 238 253 245 206 240 228 176 218 206 156 204 192 140 196 186 126 77 70 52 45 43 57 37 37 49 0 0 0 1 1 2 0 0 0 0 0 0 0 0 0 0 0 0 0 0 0 0 0 0 0 0 0 0 0 0 0 0 0 0 0 0 0 0 0 0 0 0 0 0 0 0 0 0 0 0 0 0 0 0 0 0 0 0 0 0 0 0 0 0 0 0 0 0 0 0 0 0 0 0 0 0 0 0 0 0 0 0 0 0 0 0 0 0 0 0 0 0 0 
0 0 0 0 0 0 0 0 0 0 0 0 0 0 0 0 0 0 0 0 0 0 0 0 0 0 0 0 0 0 1 1 1 0 0 0 10 10 10 43 42 48 38 37 43 90 87 98 30 28 29 0 0 0 1 1 1 0 0 0 0 0 0 0 0 0 0 0 0 0 0 0 0 0 0 0 0 0 1 1 1 0 0 0 13 14 22 72 67 40 98 88 45 104 95 55 113 104 63 133 124 83 157 147 105 188 176 128 207 196 151 158 150 122 149 145 120 167 163 142 255 251 223 253 247 224 254 243 195 238 226 174 214 202 150 201 188 138 191 178 122 88 81 64 40 40 54 45 45 59 0 0 0 2 2 2 0 0 0 0 0 0 0 0 0 0 0 0 0 0 0 0 0 0 0 0 0 0 0 0 0 0 0 0 0 0 0 0 0 0 0 0 0 0 0 0 0 0 0 0 0 0 0 0 0 0 0 0 0 0 0 0 0 0 0 0 0 0 0 0 0 0 0 0 0 0 0 0 0 0 0 0 0 0 0 0 0 0 0 0 0 0 0 
0 0 0 0 0 0 0 0 0 0 0 0 0 0 0 0 0 0 0 0 0 0 0 0 0 0 0 0 0 0 1 1 1 0 0 0 12 12 12 46 45 50 39 39 44 24 22 29 27 26 23 0 0 0 1 1 1 0 0 0 0 0 0 0 0 0 0 0 0 0 0 0 0 0 0 0 0 0 1 0 1 0 0 0 11 10 20 66 60 37 98 88 44 104 95 55 113 104 61 135 126 80 128 121 85 97 90 71 115 110 88 55 52 48 44 43 41 27 27 33 219 216 177 255 252 196 250 236 185 230 217 167 216 204 151 202 191 139 188 173 116 151 139 91 49 48 59 33 34 42 0 0 0 1 1 2 0 0 0 0 0 0 0 0 0 0 0 0 0 0 0 0 0 0 0 0 0 0 0 0 0 0 0 0 0 0 0 0 0 0 0 0 0 0 0 0 0 0 0 0 0 0 0 0 0 0 0 0 0 0 0 0 0 0 0 0 0 0 0 0 0 0 0 0 0 0 0 0 0 0 0 0 0 0 0 0 0 0 0 0 0 0 0 
0 0 0 0 0 0 0 0 0 0 0 0 0 0 0 0 0 0 0 0 0 0 0 0 0 0 0 0 0 0 0 0 0 0 0 0 4 4 4 43 42 47 38 37 44 29 28 32 15 16 11 0 0 0 2 2 2 1 0 1 0 0 0 0 0 0 0 0 0 0 0 0 0 0 0 0 0 0 1 1 0 0 0 0 21 19 15 91 81 36 96 86 40 105 97 52 115 105 62 143 130 85 78 73 53 0 5 9 23 23 21 13 12 11 19 19 18 3 4 9 116 113 98 252 242 180 231 220 163 222 210 157 210 199 145 194 183 128 172 163 105 171 158 94 85 78 64 17 15 24 0 0 0 1 1 1 0 0 0 0 0 0 0 0 0 0 0 0 0 0 0 0 0 0 0 0 0 0 0 0 0 0 0 0 0 0 0 0 0 0 0 0 0 0 0 0 0 0 0 0 0 0 0 0 0 0 0 0 0 0 0 0 0 0 0 0 0 0 0 0 0 0 0 0 0 0 0 0 0 0 0 0 0 0 0 0 0 0 0 0 0 0 0 
0 0 0 0 0 0 0 0 0 0 0 0 0 0 0 0 0 0 0 0 0 0 0 0 0 0 0 0 0 0 0 0 0 0 0 0 8 8 8 39 39 42 40 40 44 43 42 49 28 27 32 7 7 8 0 0 0 0 0 0 0 0 0 1 1 1 0 0 0 0 0 0 0 0 0 0 0 0 1 1 0 0 0 1 55 51 27 93 84 32 94 83 39 105 92 48 116 105 61 133 121 74 105 97 67 41 39 36 22 22 17 15 15 14 15 15 15 7 7 12 83 79 71 239 230 174 220 210 154 207 196 143 206 195 141 191 180 126 172 161 105 163 150 88 61 58 43 23 22 30 0 0 0 1 1 1 0 0 0 0 0 0 0 0 0 0 0 0 0 0 0 0 0 0 0 0 0 0 0 0 0 0 0 0 0 0 0 0 0 0 0 0 0 0 0 0 0 0 0 0 0 0 0 0 0 0 0 0 0 0 0 0 0 0 0 0 0 0 0 0 0 0 0 0 0 0 0 0 0 0 0 0 0 0 0 0 0 0 0 0 0 0 0 
0 0 0 0 0 0 0 0 0 0 0 0 0 0 0 0 0 0 0 0 0 0 0 0 0 0 0 0 0 0 0 0 0 0 0 0 1 1 1 9 9 8 27 27 26 45 44 43 50 48 50 43 41 46 35 33 38 16 15 20 1 0 2 0 0 0 1 1 1 1 1 2 0 0 1 0 0 0 1 1 0 0 0 0 32 28 19 92 83 32 93 82 38 103 91 46 113 101 56 122 111 66 142 131 86 160 149 101 72 69 49 11 11 17 22 22 22 8 10 15 170 164 129 240 227 170 217 205 151 204 192 138 191 181 122 182 171 115 174 159 97 116 104 57 49 46 63 66 66 78 0 0 0 3 3 3 1 1 1 2 2 2 2 2 2 2 2 2 2 2 2 2 2 2 2 2 2 0 0 0 0 0 0 0 0 0 0 0 0 0 0 0 0 0 0 0 0 0 0 0 0 0 0 0 0 0 0 0 0 0 0 0 0 0 0 0 0 0 0 0 0 0 0 0 0 0 0 0 0 0 0 0 0 0 0 0 0 0 0 0 0 0 0 
0 0 0 0 0 0 0 0 0 0 0 0 0 0 0 0 0 0 0 0 0 0 0 0 0 0 0 0 0 0 0 0 0 0 0 0 0 0 0 0 0 0 1 1 1 14 13 11 37 36 32 47 46 43 40 38 41 39 37 43 41 41 46 25 24 31 4 4 8 0 0 0 0 0 0 0 0 0 1 1 1 0 0 0 10 9 18 68 63 29 91 80 30 96 86 40 105 95 47 120 110 62 130 121 72 159 149 97 152 142 101 36 35 38 34 32 39 73 68 60 218 206 153 209 195 143 204 191 139 197 186 131 179 169 110 169 158 100 165 149 89 63 55 41 53 52 70 62 61 78 0 0 0 3 3 3 0 0 0 0 0 0 0 0 0 0 0 0 0 0 0 0 0 0 0 0 0 1 1 1 0 0 0 0 0 0 0 0 0 0 0 0 0 0 0 0 0 0 0 0 0 0 0 0 0 0 0 0 0 0 0 0 0 0 0 0 0 0 0 0 0 0 0 0 0 0 0 0 0 0 0 0 0 0 0 0 0 0 0 0 0 0 0 
0 0 0 0 0 0 0 0 0 0 0 0 0 0 0 0 0 0 0 0 0 0 0 0 0 0 0 0 0 0 0 0 0 0 0 0 0 0 0 1 1 1 1 1 1 0 0 0 1 1 2 21 20 19 46 47 42 39 39 35 20 19 18 32 31 33 46 45 50 35 34 40 11 11 12 0 0 0 1 1 1 0 0 0 16 17 23 68 61 33 89 77 25 96 84 38 102 91 42 116 105 56 133 120 73 140 129 81 160 148 98 168 156 105 182 170 122 194 180 128 195 182 128 196 183 131 197 184 130 183 169 115 176 162 106 167 154 97 161 146 80 83 76 53 54 54 71 69 67 85 0 0 0 3 3 4 27 27 28 39 39 40 38 38 40 40 40 42 42 41 44 41 41 43 44 44 47 3 3 4 1 1 0 0 0 0 0 0 0 0 0 0 0 0 0 0 0 0 0 0 0 0 0 0 0 0 0 0 0 0 0 0 0 0 0 0 0 0 0 0 0 0 0 0 0 0 0 0 0 0 0 0 0 0 0 0 0 0 0 0 0 0 0 
0 0 0 0 0 0 0 0 0 0 0 0 0 0 0 0 0 0 0 0 0 0 0 0 0 0 0 0 0 0 0 0 0 0 0 0 0 0 0 0 0 0 0 0 0 0 0 0 0 0 0 0 0 0 5 5 3 33 33 30 49 48 46 26 25 23 4 4 4 23 22 25 44 44 48 42 41 45 23 22 25 0 0 6 31 27 19 86 75 19 87 75 26 95 83 34 102 90 40 108 96 46 124 112 62 137 125 75 146 134 83 162 150 97 173 161 108 182 172 117 179 168 114 182 170 113 178 166 108 170 155 97 170 155 97 155 140 82 148 134 69 124 112 56 54 50 64 63 65 73 81 79 87 151 150 159 150 149 156 124 123 131 128 127 133 123 122 128 122 121 127 133 132 138 129 128 134 63 62 66 0 0 0 1 1 1 0 0 0 0 0 0 0 0 0 0 0 0 0 0 0 0 0 0 0 0 0 0 0 0 0 0 0 0 0 0 0 0 0 0 0 0 0 0 0 0 0 0 0 0 0 0 0 0 0 0 0 0 0 0 0 0 0 
0 0 0 0 0 0 0 0 0 0 0 0 0 0 0 0 0 0 0 0 0 0 0 0 0 0 0 0 0 0 0 0 0 0 0 0 0 0 0 0 0 0 0 0 0 0 0 0 0 0 0 1 1 2 1 1 1 0 0 0 10 10 8 43 43 43 49 49 50 14 14 14 0 0 0 14 14 15 40 39 41 45 45 52 65 60 43 85 73 21 86 74 17 90 76 24 99 87 35 102 90 40 111 100 49 124 112 61 139 126 75 150 137 85 157 145 93 166 154 99 168 155 100 166 153 96 161 148 90 159 145 86 158 144 84 145 130 69 138 123 63 136 119 49 54 49 34 75 75 86 150 149 156 122 121 127 96 95 101 97 96 102 93 92 99 104 103 110 116 115 122 102 101 108 99 98 105 120 119 126 47 46 49 0 0 0 2 2 2 0 0 0 0 0 0 0 0 0 0 0 0 0 0 0 0 0 0 0 0 0 0 0 0 0 0 0 0 0 0 0 0 0 0 0 0 0 0 0 0 0 0 0 0 0 0 0 0 0 0 0 0 0 0 
0 0 0 0 0 0 0 0 0 0 0 0 0 0 0 0 0 0 0 0 0 0 0 0 0 0 0 0 0 0 0 0 0 0 0 0 0 0 0 0 0 0 0 0 0 0 0 0 0 0 0 0 0 0 0 0 0 1 1 1 0 0 0 0 0 0 18 18 18 50 49 50 44 42 43 9 7 8 0 0 0 6 6 6 38 37 37 59 52 49 70 63 45 87 75 32 97 85 30 104 93 34 113 101 49 118 107 57 127 115 63 143 130 75 152 139 84 154 141 85 153 141 84 161 146 89 161 146 89 150 136 75 142 129 68 138 123 64 133 116 52 109 97 34 39 35 40 108 107 115 102 101 106 94 93 98 94 93 99 95 94 100 112 111 117 112 111 117 100 99 105 105 104 110 107 106 112 104 103 109 109 109 114 22 22 23 0 0 0 1 1 1 0 0 0 0 0 0 0 0 0 0 0 0 0 0 0 0 0 0 0 0 0 0 0 0 0 0 0 0 0 0 0 0 0 0 0 0 0 0 0 0 0 0 0 0 0 0 0 0 0 0 0 
0 0 0 0 0 0 0 0 0 0 0 0 0 0 0 0 0 0 0 0 0 0 0 0 0 0 0 0 0 0 0 0 0 0 0 0 0 0 0 0 0 0 0 0 0 0 0 0 0 0 0 0 0 0 0 0 0 1 1 1 1 1 1 1 1 1 0 0 0 1 1 1 26 25 25 49 48 49 33 33 32 0 0 2 16 13 13 67 57 12 57 49 20 55 50 41 65 61 51 87 77 45 107 94 38 121 108 48 121 109 52 123 111 55 134 121 63 138 125 67 147 134 75 146 132 72 143 129 68 139 125 63 139 124 58 133 118 49 131 115 35 62 56 29 73 71 88 124 123 128 103 102 108 100 99 105 107 106 112 114 113 119 103 102 108 97 96 102 105 104 110 104 103 109 100 99 105 98 97 103 108 107 114 77 76 81 0 0 0 1 1 1 1 1 1 0 0 0 0 0 0 0 0 0 0 0 0 0 0 0 0 0 0 0 0 0 0 0 0 0 0 0 0 0 0 0 0 0 0 0 0 0 0 0 0 0 0 0 0 0 0 0 0 
0 0 0 0 0 0 0 0 0 0 0 0 0 0 0 0 0 0 0 0 0 0 0 0 0 0 0 0 0 0 0 0 0 0 0 0 0 0 0 0 0 0 0 0 0 0 0 0 0 0 0 0 0 0 0 0 0 0 0 0 0 0 0 0 0 0 0 0 0 0 0 0 0 0 0 4 4 4 31 31 32 44 44 43 26 25 26 37 33 30 44 40 28 40 40 27 63 54 20 56 51 34 58 55 46 84 76 51 113 99 49 127 111 53 130 115 53 131 116 57 136 121 63 137 123 62 134 119 59 134 115 54 96 86 42 80 72 43 76 67 32 34 32 36 109 108 117 116 115 123 105 104 110 112 111 117 105 104 110 94 93 99 100 99 105 103 102 108 99 98 104 98 97 103 99 98 104 100 99 105 101 100 107 106 105 112 27 26 29 0 0 0 2 2 2 0 0 0 0 0 0 0 0 0 0 0 0 0 0 0 0 0 0 0 0 0 0 0 0 0 0 0 0 0 0 0 0 0 0 0 0 0 0 0 0 0 0 0 0 0 0 0 0 
0 0 0 0 0 0 0 0 0 0 0 0 0 0 0 0 0 0 0 0 0 0 0 0 0 0 0 0 0 0 0 0 0 0 0 0 0 0 0 0 0 0 0 0 0 0 0 0 0 0 0 0 0 0 0 0 0 0 0 0 0 0 0 0 0 0 0 0 0 0 0 0 2 2 2 1 1 1 0 0 0 10 10 10 34 33 31 35 33 31 28 27 33 29 29 46 69 59 19 94 79 12 82 71 24 66 58 30 56 55 44 77 72 53 113 100 59 128 114 51 127 112 45 126 112 51 126 110 51 109 97 38 38 38 41 42 40 57 45 43 57 70 69 77 123 122 130 109 108 115 110 109 115 95 94 100 92 91 97 98 97 103 98 97 103 99 98 104 104 103 109 105 104 110 103 102 108 100 99 105 99 98 105 108 107 114 81 80 83 1 1 2 2 2 2 0 0 0 0 0 0 0 0 0 0 0 0 0 0 0 0 0 0 0 0 0 0 0 0 0 0 0 0 0 0 0 0 0 0 0 0 0 0 0 0 0 0 0 0 0 0 0 0 
0 0 0 0 0 0 0 0 0 0 0 0 0 0 0 0 0 0 0 0 0 0 0 0 0 0 0 0 0 0 0 0 0 0 0 0 0 0 0 0 0 0 0 0 0 0 0 0 0 0 0 0 0 0 0 0 0 0 0 0 0 0 0 1 1 1 1 1 2 2 2 2 1 1 1 0 0 0 0 0 0 0 0 0 5 5 7 40 41 42 44 41 40 41 40 46 47 44 37 81 67 15 84 71 17 97 83 17 98 83 23 79 67 26 62 54 37 67 64 50 98 86 52 113 98 36 125 106 31 69 59 29 33 35 45 32 32 32 44 43 47 79 78 85 115 114 120 106 105 111 89 88 94 89 88 94 93 92 98 94 93 99 99 98 104 102 101 107 99 98 104 96 95 101 99 98 104 102 101 107 100 99 105 94 93 99 103 102 108 36 35 39 0 0 0 1 1 1 0 0 0 0 0 0 0 0 0 0 0 0 0 0 0 0 0 0 0 0 0 0 0 0 0 0 0 0 0 0 0 0 0 0 0 0 0 0 0 0 0 0 0 0 0 
0 0 0 0 0 0 0 0 0 0 0 0 0 0 0 0 0 0 0 0 0 0 0 0 0 0 0 0 0 0 0 0 0 0 0 0 0 0 0 0 0 0 0 0 0 0 0 0 0 0 0 0 0 0 0 0 1 2 2 3 1 1 1 0 0 0 0 0 0 0 0 0 1 1 1 15 16 17 38 40 45 61 65 70 82 84 91 90 92 99 80 84 88 57 58 61 41 40 44 41 39 44 51 49 60 63 57 30 99 85 7 108 91 16 112 92 14 92 80 17 45 43 40 54 50 51 74 68 50 50 47 49 52 51 63 21 21 25 28 27 32 81 80 87 108 107 113 84 83 89 87 86 92 89 88 94 90 89 95 92 91 97 93 92 98 94 93 99 97 96 102 98 97 103 97 96 102 95 94 100 93 92 98 98 97 103 111 110 116 87 86 91 2 2 3 0 0 0 0 0 0 0 0 0 0 0 0 0 0 0 0 0 0 0 0 0 0 0 0 0 0 0 0 0 0 0 0 0 0 0 0 0 0 0 0 0 0 0 0 0 0 0 0 
0 0 0 0 0 0 0 0 0 0 0 0 0 0 0 0 0 0 0 0 0 0 0 0 0 0 0 0 0 0 0 0 0 0 0 0 0 0 0 0 0 0 0 0 0 0 0 0 0 0 0 2 3 3 2 2 4 0 0 0 10 10 11 22 24 29 29 33 38 55 59 68 76 82 91 87 92 98 91 92 98 91 91 98 92 92 100 94 94 101 102 103 110 115 116 121 119 117 128 72 70 78 37 38 48 52 47 50 86 71 7 90 75 13 97 80 15 88 74 24 50 46 49 40 38 50 40 38 49 52 51 60 79 77 88 75 74 80 63 61 68 85 85 91 82 83 88 83 84 89 84 85 90 85 86 91 86 85 91 90 89 95 94 93 99 96 95 101 95 94 100 95 94 100 96 95 101 96 95 101 98 97 103 96 95 101 95 93 101 99 100 106 26 28 28 0 0 0 1 1 1 0 0 0 0 0 0 0 0 0 0 0 0 0 0 0 0 0 0 0 0 0 0 0 0 0 0 0 0 0 0 0 0 0 0 0 0 0 0 0 0 0 0 
0 0 0 0 0 0 0 0 0 0 0 0 0 0 0 0 0 0 0 0 0 0 0 0 0 0 0 0 0 0 0 0 0 0 0 0 0 0 0 0 0 0 0 0 0 1 1 2 1 1 1 0 0 0 2 1 3 39 41 51 96 101 120 124 131 157 122 129 156 117 125 148 106 113 130 95 104 116 88 93 102 93 93 98 109 109 116 132 132 140 155 155 165 171 171 181 198 197 209 182 180 187 40 41 36 45 44 47 66 58 25 76 64 12 82 69 14 58 52 40 48 45 56 54 52 52 56 54 57 51 50 50 111 110 115 107 106 112 84 83 89 71 71 76 81 82 87 82 83 88 83 84 89 85 85 91 87 86 92 89 88 94 91 90 96 96 95 101 100 99 105 104 103 109 106 105 111 108 107 113 109 108 114 110 109 115 115 114 120 122 123 128 61 64 67 0 0 0 2 2 2 0 0 0 0 0 0 0 0 0 0 0 0 0 0 0 0 0 0 0 0 0 0 0 0 0 0 0 0 0 0 0 0 0 0 0 0 0 0 0 0 0 0 
0 0 0 0 0 0 0 0 0 0 0 0 0 0 0 0 0 0 0 0 0 0 0 0 0 0 0 0 0 0 0 0 0 0 0 0 0 0 0 2 2 2 3 3 2 0 0 0 0 1 2 36 36 45 95 99 121 128 135 168 124 131 161 116 123 150 111 116 141 103 110 128 99 106 124 94 103 115 90 97 105 86 89 94 86 87 94 98 97 102 125 124 130 172 171 179 246 245 251 173 173 173 35 34 28 54 53 48 47 46 45 49 49 46 52 51 48 54 53 49 57 56 50 58 57 51 53 52 47 54 52 48 120 117 127 98 100 107 80 84 90 97 99 107 94 94 102 84 84 92 85 86 93 88 89 93 90 89 95 95 94 100 100 99 105 105 104 109 108 107 112 109 108 114 114 114 119 120 118 125 125 122 130 128 127 133 127 126 133 122 121 129 102 102 109 20 20 21 0 0 0 1 1 1 0 0 0 0 0 0 0 0 0 0 0 0 0 0 0 0 0 0 0 0 0 0 0 0 0 0 0 0 0 0 0 0 0 0 0 0 0 0 0 
0 0 0 0 0 0 0 0 0 0 0 0 0 0 0 0 0 0 0 0 0 0 0 0 0 0 0 0 0 0 0 0 0 1 1 1 1 1 1 0 0 0 1 0 2 31 32 39 85 91 107 121 129 154 120 128 155 112 118 145 110 115 140 106 113 134 103 109 129 100 107 126 99 106 125 99 106 123 94 101 115 91 95 107 87 91 100 83 85 91 82 81 86 84 82 88 120 120 127 92 92 91 37 37 29 49 48 43 49 47 42 52 50 44 51 50 44 51 50 44 50 49 44 51 50 45 48 47 42 57 57 52 126 125 139 104 106 116 113 114 126 122 122 135 107 107 114 116 116 125 112 112 120 103 104 108 100 99 105 103 102 108 111 112 119 116 118 125 121 122 130 123 125 133 105 106 113 95 96 106 87 88 100 80 82 88 83 84 89 105 104 112 86 85 92 64 64 67 0 0 0 1 1 1 0 0 0 0 0 0 0 0 0 0 0 0 0 0 0 0 0 0 0 0 0 0 0 0 0 0 0 0 0 0 0 0 0 0 0 0 0 0 0 
0 0 0 0 0 0 0 0 0 0 0 0 0 0 0 0 0 0 0 0 0 0 0 0 0 0 0 2 2 2 3 3 3 1 1 1 0 0 0 28 29 34 77 82 95 111 118 138 115 122 145 110 117 142 109 116 139 108 114 136 106 113 133 104 111 128 103 110 125 100 108 123 98 106 121 97 104 121 98 105 120 100 106 120 103 109 119 103 106 113 107 107 114 104 104 110 92 92 100 84 84 88 67 69 67 63 61 58 53 53 50 43 41 39 43 41 40 43 42 41 45 46 39 50 50 41 48 47 40 70 71 68 127 126 139 113 113 122 121 121 131 135 135 145 128 128 136 119 120 127 108 110 116 104 106 112 106 106 113 104 104 111 104 105 113 102 104 112 99 101 108 96 98 104 101 101 108 107 108 116 88 89 99 92 93 100 105 105 112 144 143 152 115 114 123 62 61 70 30 30 30 0 0 0 1 1 1 0 0 0 0 0 0 0 0 0 0 0 0 0 0 0 0 0 0 0 0 0 0 0 0 0 0 0 0 0 0 0 0 0 0 0 0 
0 0 0 0 0 0 0 0 0 0 0 0 0 0 0 0 0 0 0 0 0 0 0 0 1 2 1 0 0 0 0 0 0 24 24 28 74 79 92 109 114 134 113 120 138 110 117 138 109 116 135 104 111 129 100 107 122 98 106 117 97 104 113 93 101 109 92 101 108 91 99 108 92 97 109 94 99 111 96 101 115 100 106 119 103 108 120 113 114 124 120 120 128 133 133 140 135 135 142 137 138 143 118 118 123 108 107 113 106 103 104 91 85 72 98 92 71 105 97 78 97 94 92 91 91 94 104 103 110 107 106 111 118 117 125 109 108 121 107 107 117 104 105 117 100 102 113 98 101 109 96 100 108 94 97 106 96 96 107 102 102 113 109 109 120 109 109 120 104 106 115 101 104 112 114 117 126 133 135 148 136 138 152 154 158 171 164 167 181 178 180 195 191 192 206 73 71 81 55 55 58 0 0 0 1 1 1 0 0 0 0 0 0 0 0 0 0 0 0 0 0 0 0 0 0 0 0 0 0 0 0 0 0 0 0 0 0 0 0 0 0 0 0 
0 0 0 0 0 0 0 0 0 0 0 0 1 1 1 1 1 1 2 3 2 1 0 0 0 0 0 21 22 24 66 70 77 98 106 116 104 111 121 98 106 120 98 105 121 95 103 114 94 101 111 97 103 113 100 106 117 105 109 124 110 114 133 111 118 138 114 121 144 116 122 150 117 124 152 121 127 156 132 138 164 133 139 159 126 133 147 119 124 136 118 122 135 119 123 138 113 115 127 110 110 119 103 103 110 100 98 106 122 117 98 134 130 105 131 128 111 129 127 118 120 121 127 113 116 126 116 119 130 114 118 129 114 118 131 114 118 129 114 119 130 119 122 134 122 123 134 120 122 131 120 121 131 125 125 135 131 132 141 133 135 142 136 137 142 138 138 144 123 124 133 115 117 126 119 121 130 154 157 166 125 129 139 129 131 143 137 139 151 149 154 167 179 184 196 135 139 149 50 49 57 24 23 25 0 0 0 1 1 1 0 0 0 0 0 0 0 0 0 0 0 0 0 0 0 0 0 0 0 0 0 0 0 0 0 0 0 0 0 0 0 0 0 
0 0 0 0 0 0 0 0 0 0 0 0 2 2 2 4 4 4 1 1 0 17 17 19 57 60 65 88 92 98 92 97 105 93 99 110 98 104 118 104 109 126 106 112 128 112 118 140 118 124 148 122 130 157 124 132 161 124 131 161 127 132 163 126 132 164 127 133 162 126 132 157 124 131 157 122 129 154 120 126 146 114 120 141 114 119 137 113 118 135 111 115 130 109 113 128 111 115 127 112 115 126 116 121 132 121 126 138 120 127 141 122 131 145 126 135 151 126 133 152 131 138 153 134 141 155 137 143 157 141 145 160 144 149 163 143 148 162 144 148 162 144 147 163 140 144 158 133 136 148 134 134 148 139 140 155 144 146 161 133 135 147 124 127 134 123 126 133 107 111 117 92 97 102 92 99 106 120 124 132 112 115 126 107 109 122 124 123 134 140 137 149 164 160 178 208 201 215 129 121 133 32 31 37 0 0 0 2 2 1 0 0 0 0 0 0 0 0 0 0 0 0 0 0 0 0 0 0 0 0 0 0 0 0 0 0 0 0 0 0 0 0 0 
0 0 0 0 0 0 0 0 0 0 0 0 1 1 1 5 5 5 75 71 77 81 81 91 103 105 117 119 122 140 120 127 151 124 130 156 131 135 165 126 134 164 127 135 166 125 132 161 119 126 154 115 122 147 111 117 139 113 121 140 115 121 139 110 114 131 106 111 128 104 109 123 106 111 125 108 113 127 109 114 126 112 117 129 118 120 133 120 122 135 120 123 137 124 127 142 127 132 146 129 135 149 132 138 152 139 144 158 142 149 161 146 154 165 151 156 169 152 158 171 152 157 171 148 154 170 147 153 170 144 150 165 140 145 160 141 147 163 137 144 161 128 135 152 120 127 142 114 122 133 108 115 123 108 112 122 109 113 124 111 116 124 117 121 129 118 119 128 116 112 122 117 109 120 130 114 130 155 135 153 168 147 164 148 127 145 158 134 153 173 144 163 179 155 173 178 154 169 159 148 158 56 57 66 17 15 20 0 0 0 1 1 2 0 0 0 0 0 0 0 0 0 0 0 0 0 0 0 0 0 0 0 0 0 0 0 0 0 0 0 0 0 0 
0 0 0 0 0 0 0 0 0 1 1 1 0 0 0 27 27 28 130 130 137 60 61 70 97 102 115 114 122 141 111 118 138 87 91 108 58 56 68 101 103 123 106 109 130 100 105 120 105 111 125 107 111 123 107 110 121 104 107 120 102 105 120 109 112 126 112 115 129 114 117 131 115 118 133 116 119 134 117 123 137 123 129 143 131 135 150 136 138 154 138 141 156 138 140 156 138 142 156 139 145 159 142 147 162 143 148 162 141 146 161 137 143 158 137 144 158 137 144 157 131 139 152 129 137 151 126 133 147 124 131 144 120 124 138 124 126 141 134 130 147 136 130 147 135 128 141 133 122 135 138 123 138 151 131 148 164 141 159 174 146 166 174 148 166 162 140 157 148 129 143 138 120 133 123 107 119 106 95 106 122 114 123 119 105 118 143 118 137 178 145 167 183 150 172 155 134 149 145 123 137 125 107 122 60 62 67 3 2 3 1 1 1 1 1 1 0 0 0 0 0 0 0 0 0 0 0 0 0 0 0 0 0 0 0 0 0 0 0 0 0 0 0 
0 0 0 0 0 0 0 0 0 2 2 2 0 0 0 66 66 67 107 107 113 59 62 71 91 95 108 93 98 114 90 94 115 56 56 67 26 23 27 89 92 106 102 106 119 108 111 123 117 119 136 114 117 132 115 119 132 116 119 134 119 121 136 123 126 141 123 126 141 123 126 141 123 126 140 128 132 146 131 137 152 133 137 153 133 136 152 130 134 149 127 131 146 123 128 142 121 130 143 123 132 146 125 133 147 128 132 147 131 135 150 132 135 149 138 138 152 146 142 158 152 141 160 155 141 158 163 142 162 168 143 163 173 143 163 173 139 159 175 138 158 176 139 160 169 136 155 151 124 137 132 109 122 128 106 118 106 87 98 90 75 85 75 64 72 48 43 48 31 27 30 18 17 18 8 9 10 0 0 0 0 0 0 7 5 7 22 20 22 25 21 25 40 32 36 62 52 59 93 75 88 86 69 82 35 35 40 25 25 28 0 0 0 1 1 1 0 0 0 0 0 0 0 0 0 0 0 0 0 0 0 0 0 0 0 0 0 0 0 0 0 0 0 
0 0 0 0 0 0 0 0 0 2 2 2 0 0 0 96 96 97 83 84 94 75 79 90 92 96 109 95 100 119 96 102 121 59 61 75 32 30 37 96 102 117 109 115 131 119 122 138 119 121 137 120 122 139 121 123 140 121 124 140 122 125 140 121 125 140 116 121 135 115 121 135 117 124 138 118 125 139 119 126 140 123 126 141 124 127 142 127 127 143 130 127 142 135 127 143 146 133 150 155 139 157 160 139 158 167 142 161 174 148 168 179 147 169 177 141 162 182 143 167 185 146 170 185 145 170 172 136 161 156 124 146 156 129 154 146 130 159 131 124 150 120 121 148 106 109 133 16 15 17 3 4 3 0 0 0 0 0 0 0 0 0 0 0 0 0 0 0 0 0 0 0 0 0 0 0 0 1 0 0 1 1 1 0 0 0 0 0 0 0 0 0 0 0 0 1 1 1 0 0 0 14 14 16 37 36 41 23 22 29 0 0 1 1 1 0 0 0 0 0 0 0 0 0 0 0 0 0 0 0 0 0 0 0 0 0 0 0 0 0 0 0 0 
0 0 0 0 0 0 0 0 0 0 0 0 4 4 4 124 123 126 69 70 80 76 81 92 89 93 111 88 93 113 95 102 122 54 56 67 35 32 41 102 108 123 113 121 135 114 120 134 110 116 129 112 120 132 114 120 132 114 120 133 115 121 135 121 123 137 124 120 136 131 123 141 141 129 145 152 132 150 157 134 153 162 137 157 165 137 158 175 143 166 183 148 171 187 148 172 182 146 169 180 146 169 182 146 169 179 140 163 173 131 153 167 121 146 175 146 170 150 130 156 145 121 149 152 141 186 94 89 119 78 66 83 109 108 135 121 132 167 116 118 156 110 107 137 123 108 137 24 16 20 0 0 0 2 2 2 2 2 2 3 2 3 3 2 3 2 2 2 1 1 1 1 1 1 0 0 1 0 0 0 0 0 0 0 0 0 1 1 1 1 1 1 2 1 2 2 1 2 6 6 7 37 35 42 38 37 44 8 8 9 0 0 0 0 0 1 0 0 0 0 0 0 0 0 0 0 0 0 0 0 0 0 0 0 0 0 0 0 0 0 0 0 0 
0 0 0 0 0 0 1 1 1 0 0 0 32 31 31 127 125 129 67 67 78 89 91 105 100 99 118 96 96 115 102 104 121 49 49 60 38 36 45 110 115 129 123 123 136 130 122 140 134 122 142 138 121 142 141 123 141 144 121 139 149 121 138 151 124 139 158 128 147 169 136 158 170 137 159 168 135 155 163 131 151 165 131 154 165 130 154 139 112 130 87 73 83 56 48 56 36 30 37 31 27 33 41 35 40 90 78 90 141 113 137 133 110 137 145 140 154 161 143 165 161 141 166 160 150 199 109 101 130 112 87 107 137 117 149 111 102 134 90 74 96 56 45 61 34 28 33 48 45 47 0 0 0 2 2 2 0 0 0 0 0 0 0 0 0 0 0 0 0 0 0 0 0 0 0 0 0 0 0 0 0 0 0 0 0 0 0 0 0 0 0 0 0 0 0 0 0 0 0 0 0 11 11 15 19 19 23 0 0 1 0 0 0 0 0 0 0 0 0 0 0 0 0 0 0 0 0 0 0 0 0 0 0 0 0 0 0 0 0 0 0 0 0 
0 0 0 0 0 0 2 2 2 0 0 0 69 67 69 122 115 131 45 50 61 76 78 93 94 96 114 95 95 112 131 102 125 47 41 49 48 48 56 146 120 139 151 119 135 148 120 137 148 118 135 154 124 141 160 127 149 172 138 165 185 147 184 193 152 192 180 142 180 170 131 165 151 114 141 137 103 122 115 87 106 77 59 72 32 24 31 1 1 1 0 0 0 0 0 0 0 0 0 0 0 0 0 0 0 0 0 1 7 10 15 28 36 40 43 43 45 44 40 47 74 64 75 97 89 111 72 57 71 141 98 118 91 68 86 12 10 14 2 2 1 0 0 0 2 3 2 3 4 3 0 0 0 0 0 0 0 0 0 0 0 0 0 0 0 0 0 0 0 0 0 0 0 0 0 0 0 0 0 0 0 0 0 0 0 0 0 0 0 0 0 0 0 0 0 0 0 0 0 0 0 0 0 0 0 0 0 0 0 0 0 0 0 0 0 0 0 0 0 0 0 0 0 0 0 0 0 0 0 0 0 0 0 0 0 0 0 0 0 0 0 0 0 
0 0 0 0 0 0 3 3 4 0 0 0 96 97 101 83 74 92 66 51 62 135 110 131 173 134 174 173 137 175 171 141 167 45 40 48 51 48 57 171 149 173 181 148 184 193 160 204 210 172 224 230 187 245 232 182 243 214 165 219 184 137 183 162 117 153 141 103 129 117 85 105 86 63 78 42 31 38 7 5 6 0 0 0 0 0 0 1 1 1 3 3 3 3 2 2 2 2 2 2 1 2 2 2 3 3 2 2 1 0 0 0 0 0 0 0 0 0 0 0 0 0 0 0 0 0 0 0 0 0 0 0 1 1 0 0 0 0 1 1 2 3 2 2 1 1 2 0 0 1 0 0 0 0 0 0 0 0 0 0 0 0 0 0 0 0 0 0 0 0 0 0 0 0 0 0 0 0 0 0 0 0 0 0 0 0 0 0 0 0 0 0 0 0 0 0 0 0 0 0 0 1 1 1 1 1 1 0 0 0 0 0 0 0 0 0 0 0 0 0 0 0 0 0 0 0 0 0 0 0 0 0 0 0 0 0 0 0 0 0 0 0 0 
0 0 0 0 0 0 0 0 0 9 10 9 120 109 123 168 134 167 209 178 214 236 190 243 216 179 223 212 168 219 211 181 219 38 40 47 98 86 105 255 215 255 252 200 252 247 192 255 224 167 225 173 124 167 140 100 130 127 92 111 115 86 100 89 66 79 51 39 47 14 11 13 0 0 0 0 0 0 0 0 0 2 1 2 1 1 1 0 0 0 0 0 0 0 0 0 0 0 0 0 0 0 0 0 0 0 0 0 0 0 1 1 1 1 1 1 1 2 2 2 1 1 1 2 2 2 2 2 2 2 1 1 1 1 1 1 1 1 0 0 0 0 0 0 0 0 0 0 0 0 0 0 0 0 0 0 0 0 0 0 0 0 0 0 0 0 0 0 0 0 0 0 0 0 0 0 0 0 0 0 0 0 0 0 0 0 0 0 0 0 0 0 0 0 0 0 0 0 0 0 0 0 0 0 0 0 0 0 0 0 0 0 0 0 0 0 0 0 0 0 0 0 0 0 0 0 0 0 0 0 0 0 0 0 0 0 0 0 0 0 0 0 0 
0 0 0 0 0 0 0 0 0 14 13 12 110 86 101 126 105 124 106 97 124 202 171 210 255 228 255 255 209 255 239 189 247 32 31 36 145 121 148 200 156 207 145 110 144 130 95 117 111 80 95 102 80 91 117 91 106 59 43 55 17 13 17 0 0 0 0 0 0 0 0 0 2 2 1 2 2 2 0 0 0 0 0 0 0 0 0 0 0 0 0 0 0 0 0 0 0 0 0 0 0 0 0 0 0 0 0 0 0 0 0 0 0 0 0 0 0 0 0 0 0 0 0 0 0 0 0 0 0 0 0 0 0 0 0 0 0 0 0 0 0 0 0 0 0 0 0 0 0 0 0 0 0 0 0 0 0 0 0 0 0 0 0 0 0 0 0 0 0 0 0 0 0 0 0 0 0 0 0 0 0 0 0 0 0 0 0 0 0 0 0 0 0 0 0 0 0 0 0 0 0 0 0 0 0 0 0 0 0 0 0 0 0 0 0 0 0 0 0 0 0 0 0 0 0 0 0 0 0 0 0 0 0 0 0 0 0 0 0 0 0 0 0 
0 0 0 0 0 0 2 2 2 5 5 5 0 0 0 14 12 12 131 124 134 111 101 132 141 126 156 177 141 186 233 182 240 167 124 154 160 115 139 126 97 117 110 82 97 113 88 104 117 94 111 72 58 71 25 21 24 0 0 0 0 0 1 1 1 1 2 1 2 0 0 0 0 0 0 0 0 0 0 0 0 0 0 0 0 0 0 0 0 0 0 0 0 0 0 0 0 0 0 0 0 0 0 0 0 0 0 0 0 0 0 0 0 0 0 0 0 0 0 0 0 0 0 0 0 0 0 0 0 0 0 0 0 0 0 0 0 0 0 0 0 0 0 0 0 0 0 0 0 0 0 0 0 0 0 0 0 0 0 0 0 0 0 0 0 0 0 0 0 0 0 0 0 0 0 0 0 0 0 0 0 0 0 0 0 0 0 0 0 0 0 0 0 0 0 0 0 0 0 0 0 0 0 0 0 0 0 0 0 0 0 0 0 0 0 0 0 0 0 0 0 0 0 0 0 0 0 0 0 0 0 0 0 0 0 0 0 0 0 0 0 0 0 
0 0 0 0 0 0 1 2 1 1 1 1 5 4 4 0 0 0 26 24 25 67 56 73 83 70 90 77 67 91 122 100 127 89 63 77 49 38 45 69 55 68 68 52 66 30 23 29 2 1 2 0 0 0 2 1 1 4 3 3 0 0 0 0 0 0 0 0 0 0 0 0 0 0 0 0 0 0 0 0 0 0 0 0 0 0 0 0 0 0 0 0 0 0 0 0 0 0 0 0 0 0 0 0 0 0 0 0 0 0 0 0 0 0 0 0 0 0 0 0 0 0 0 0 0 0 0 0 0 0 0 0 0 0 0 0 0 0 0 0 0 0 0 0 0 0 0 0 0 0 0 0 0 0 0 0 0 0 0 0 0 0 0 0 0 0 0 0 0 0 0 0 0 0 0 0 0 0 0 0 0 0 0 0 0 0 0 0 0 0 0 0 0 0 0 0 0 0 0 0 0 0 0 0 0 0 0 0 0 0 0 0 0 0 0 0 0 0 0 0 0 0 0 0 0 0 0 0 0 0 0 0 0 0 0 0 0 0 0 0 0 0 0 
0 0 0 0 0 0 0 0 0 0 0 0 0 0 0 0 0 1 1 1 1 0 0 0 6 6 4 20 16 19 4 2 3 0 0 0 0 0 0 0 0 0 0 0 0 0 0 0 1 1 1 2 2 2 1 0 1 0 0 0 0 0 0 0 0 0 0 0 0 0 0 0 0 0 0 0 0 0 0 0 0 0 0 0 0 0 0 0 0 0 0 0 0 0 0 0 0 0 0 0 0 0 0 0 0 0 0 0 0 0 0 0 0 0 0 0 0 0 0 0 0 0 0 0 0 0 0 0 0 0 0 0 0 0 0 0 0 0 0 0 0 0 0 0 0 0 0 0 0 0 0 0 0 0 0 0 0 0 0 0 0 0 0 0 0 0 0 0 0 0 0 0 0 0 0 0 0 0 0 0 0 0 0 0 0 0 0 0 0 0 0 0 0 0 0 0 0 0 0 0 0 0 0 0 0 0 0 0 0 0 0 0 0 0 0 0 0 0 0 0 0 0 0 0 0 0 0 0 0 0 0 0 0 0 0 0 0 0 0 0 0 0 0 
0 0 0 0 0 0 0 0 0 0 0 0 0 0 0 0 0 0 1 1 1 4 3 4 3 2 3 0 1 0 2 2 3 3 2 3 2 2 2 3 2 3 3 2 3 1 1 1 0 0 0 0 0 0 0 0 0 0 0 0 0 0 0 0 0 0 0 0 0 0 0 0 0 0 0 0 0 0 0 0 0 0 0 0 0 0 0 0 0 0 0 0 0 0 0 0 0 0 0 0 0 0 0 0 0 0 0 0 0 0 0 0 0 0 0 0 0 0 0 0 0 0 0 0 0 0 0 0 0 0 0 0 0 0 0 0 0 0 0 0 0 0 0 0 0 0 0 0 0 0 0 0 0 0 0 0 0 0 0 0 0 0 0 0 0 0 0 0 0 0 0 0 0 0 0 0 0 0 0 0 0 0 0 0 0 0 0 0 0 0 0 0 0 0 0 0 0 0 0 0 0 0 0 0 0 0 0 0 0 0 0 0 0 0 0 0 0 0 0 0 0 0 0 0 0 0 0 0 0 0 0 0 0 0 0 0 0 0 0 0 0 0 0 
0 0 0 0 0 0 0 0 0 0 0 0 0 0 0 0 0 0 0 0 0 0 0 0 0 0 0 0 0 0 0 0 0 0 0 0 0 0 0 0 0 0 0 0 0 0 0 0 0 0 0 0 0 0 0 0 0 0 0 0 0 0 0 0 0 0 0 0 0 0 0 0 0 0 0 0 0 0 0 0 0 0 0 0 0 0 0 0 0 0 0 0 0 0 0 0 0 0 0 0 0 0 0 0 0 0 0 0 0 0 0 0 0 0 0 0 0 0 0 0 0 0 0 0 0 0 0 0 0 0 0 0 0 0 0 0 0 0 0 0 0 0 0 0 0 0 0 0 0 0 0 0 0 0 0 0 0 0 0 0 0 0 0 0 0 0 0 0 0 0 0 0 0 0 0 0 0 0 0 0 0 0 0 0 0 0 0 0 0 0 0 0 0 0 0 0 0 0 0 0 0 0 0 0 0 0 0 0 0 0 0 0 0 0 0 0 0 0 0 0 0 0 0 0 0 0 0 0 0 0 0 0 0 0 0 0 0 0 0 0 0 0 0 
0 0 0 0 0 0 0 0 0 0 0 0 0 0 0 0 0 0 0 0 0 0 0 0 0 0 0 0 0 0 0 0 0 0 0 0 0 0 0 0 0 0 0 0 0 0 0 0 0 0 0 0 0 0 0 0 0 0 0 0 0 0 0 0 0 0 0 0 0 0 0 0 0 0 0 0 0 0 0 0 0 0 0 0 0 0 0 0 0 0 0 0 0 0 0 0 0 0 0 0 0 0 0 0 0 0 0 0 0 0 0 0 0 0 0 0 0 0 0 0 0 0 0 0 0 0 0 0 0 0 0 0 0 0 0 0 0 0 0 0 0 0 0 0 0 0 0 0 0 0 0 0 0 0 0 0 0 0 0 0 0 0 0 0 0 0 0 0 0 0 0 0 0 0 0 0 0 0 0 0 0 0 0 0 0 0 0 0 0 0 0 0 0 0 0 0 0 0 0 0 0 0 0 0 0 0 0 0 0 0 0 0 0 0 0 0 0 0 0 0 0 0 0 0 0 0 0 0 0 0 0 0 0 0 0 0 0 0 0 0 0 0 0 
0 0 0 0 0 0 0 0 0 0 0 0 0 0 0 0 0 0 0 0 0 0 0 0 0 0 0 0 0 0 0 0 0 0 0 0 0 0 0 0 0 0 0 0 0 0 0 0 0 0 0 0 0 0 0 0 0 0 0 0 0 0 0 0 0 0 0 0 0 0 0 0 0 0 0 0 0 0 0 0 0 0 0 0 0 0 0 0 0 0 0 0 0 0 0 0 0 0 0 0 0 0 0 0 0 0 0 0 0 0 0 0 0 0 0 0 0 0 0 0 0 0 0 0 0 0 0 0 0 0 0 0 0 0 0 0 0 0 0 0 0 0 0 0 0 0 0 0 0 0 0 0 0 0 0 0 0 0 0 0 0 0 0 0 0 0 0 0 0 0 0 0 0 0 0 0 0 0 0 0 0 0 0 0 0 0 0 0 0 0 0 0 0 0 0 0 0 0 0 0 0 0 0 0 0 0 0 0 0 0 0 0 0 0 0 0 0 0 0 0 0 0 0 0 0 0 0 0 0 0 0 0 0 0 0 0 0 0 0 0 0 0 0 
0 0 0 0 0 0 0 0 0 0 0 0 0 0 0 0 0 0 0 0 0 0 0 0 0 0 0 0 0 0 0 0 0 0 0 0 0 0 0 0 0 0 0 0 0 0 0 0 0 0 0 0 0 0 0 0 0 0 0 0 0 0 0 0 0 0 0 0 0 0 0 0 0 0 0 0 0 0 0 0 0 0 0 0 0 0 0 0 0 0 0 0 0 0 0 0 0 0 0 0 0 0 0 0 0 0 0 0 0 0 0 0 0 0 0 0 0 0 0 0 0 0 0 0 0 0 0 0 0 0 0 0 0 0 0 0 0 0 0 0 0 0 0 0 0 0 0 0 0 0 0 0 0 0 0 0 0 0 0 0 0 0 0 0 0 0 0 0 0 0 0 0 0 0 0 0 0 0 0 0 0 0 0 0 0 0 0 0 0 0 0 0 0 0 0 0 0 0 0 0 0 0 0 0 0 0 0 0 0 0 0 0 0 0 0 0 0 0 0 0 0 0 0 0 0 0 0 0 0 0 0 0 0 0 0 0 0 0 0 0 0 0 0 
