P3
90 72
255
0 0 0 0 0 0 0 0 0 0 0 0 0 0 0 0 0 0 0 0 0 0 0 0 0 0 0 0 0 0 0 0 0 0 0 0 0 0 0 0 0 0 0 0 0 0 0 0 0 0 0 0 0 0 0 0 0 0 0 0 0 0 0 0 0 0 0 0 0 0 0 0 0 0 0 0 0 0 0 0 0 0 0 0 0 0 0 0 0 0 0 0 0 0 0 0 0 0 0 0 0 0 0 0 0 0 0 0 0 0 0 0 0 0 0 0 0 0 0 0 0 0 0 0 0 0 0 0 0 0 0 0 0 0 0 0 0 0 0 0 0 0 0 0 0 0 0 0 0 0 0 0 0 0 0 0 0 0 0 0 0 0 0 0 0 0 0 0 0 0 0 0 0 0 0 0 0 0 0 0 0 0 0 0 0 0 0 0 0 0 0 0 0 0 0 0 0 0 0 0 0 0 0 0 0 0 0 0 0 0 0 0 0 0 0 0 0 0 0 0 0 0 0 0 0 0 0 0 0 0 0 0 0 0 0 0 0 0 0 0 0 0 0 0 0 0 0 0 0 0 0 0 0 0 0 0 0 0 0 0 0 0 0 0 0 0 0 0 0 0 
0 0 0 0 0 0 0 0 0 0 0 0 0 0 0 0 0 0 0 0 0 0 0 0 0 0 0 0 0 0 0 0 0 0 0 0 0 0 0 0 0 0 0 0 0 0 0 0 0 0 0 0 0 0 0 0 0 0 0 0 0 0 0 0 0 0 0 0 0 0 0 0 0 0 0 0 0 0 0 0 0 0 0 0 0 0 0 0 0 0 0 0 0 0 0 0 0 0 0 0 0 0 0 0 0 0 0 0 0 0 0 0 0 0 0 0 0 0 0 0 0 0 0 0 0 0 0 0 0 0 0 0 0 0 0 0 0 0 0 0 0 0 0 0 0 0 0 0 0 0 0 0 0 0 0 0 0 0 0 0 0 0 0 0 0 0 0 0 0 0 0 0 0 0 0 0 0 0 0 0 0 0 0 0 0 0 0 0 0 0 0 0 0 0 0 0 0 0 0 0 0 0 0 0 0 0 0 0 0 0 0 0 0 0 0 0 0 0 0 0 0 0 0 0 0 0 0 0 0 0 0 0 0 0 0 0 0 0 0 0 0 0 0 0 0 0 0 0 0 0 0 0 0 0 0 0 0 0 0 0 0 0 0 0 0 0 0 0 0 0 
0 0 0 0 0 0 0 0 0 0 0 0 0 0 0 0 0 0 0 0 0 0 0 0 0 0 0 0 0 0 0 0 0 0 0 0 0 0 0 0 0 0 0 0 0 0 0 0 0 0 0 0 0 0 0 0 0 0 0 0 0 0 0 0 0 0 0 0 0 0 0 0 0 0 0 0 0 0 0 0 0 0 0 0 0 0 0 0 0 0 0 0 0 0 0 0 0 0 0 0 0 0 0 0 0 0 0 0 0 0 0 0 0 0 0 0 0 0 0 0 0 0 0 0 0 0 0 0 0 0 0 0 0 0 0 0 0 0 0 0 0 0 0 0 0 0 0 0 0 0 0 0 0 0 0 0 0 0 0 0 0 0 0 0 0 0 0 0 0 0 0 0 0 0 0 0 0 0 0 0 0 0 0 0 0 0 0 0 0 0 0 0 0 0 0 0 0 0 0 0 0 0 0 0 0 0 0 0 0 0 0 0 0 0 0 0 0 0 0 0 0 0 0 0 0 0 0 0 0 0 0 0 0 0 0 0 0 0 0 0 0 0 0 0 0 0 0 0 0 0 0 0 0 0 0 0 0 0 0 0 0 0 0 0 0 0 0 0 0 0 
0 0 0 0 0 0 0 0 0 0 0 0 0 0 0 0 0 0 0 0 0 0 0 0 0 0 0 0 0 0 0 0 0 0 0 0 0 0 0 0 0 0 0 0 0 0 0 0 0 0 0 0 0 0 0 0 0 0 0 0 0 0 0 0 0 0 0 0 0 0 0 0 0 0 0 0 0 0 0 0 0 0 0 0 0 0 0 0 0 0 0 0 0 0 0 0 0 0 0 0 0 0 0 0 0 0 0 0 0 0 0 0 0 0 0 0 0 0 0 0 0 0 0 0 0 0 0 0 0 0 0 0 0 0 0 0 0 0 0 0 0 0 0 0 0 0 0 0 0 0 0 0 0 0 0 0 0 0 0 0 0 0 0 0 0 0 0 0 0 0 0 0 0 0 0 0 0 0 0 0 0 0 0 0 0 0 0 0 0 0 0 0 0 0 0 0 0 0 0 0 0 0 0 0 0 0 0 0 0 0 0 0 0 0 0 0 0 0 0 0 0 0 0 0 0 0 0 0 0 0 0 0 0 0 0 0 0 0 0 0 0 0 0 0 0 0 0 0 0 0 0 0 0 0 0 0 0 0 0 0 0 0 0 0 0 0 0 0 0 0 
0 0 0 0 0 0 0 0 0 0 0 0 0 0 0 0 0 0 0 0 0 0 0 0 0 0 0 0 0 0 0 0 0 0 0 0 0 0 0 0 0 0 0 0 0 0 0 0 0 0 0 0 0 0 0 0 0 0 0 0 0 0 0 0 0 0 0 0 0 0 0 0 0 0 0 0 0 0 0 0 0 0 0 0 0 0 0 0 0 0 0 0 0 0 0 0 0 0 0 0 0 0 0 0 0 0 0 0 0 0 0 0 0 0 0 0 0 0 0 0 0 0 0 0 0 0 0 0 0 0 0 0 0 0 0 0 0 0 0 0 0 0 0 0 0 0 0 0 0 0 0 0 0 0 0 0 0 0 0 0 0 0 0 0 0 0 0 0 0 0 0 0 0 0 0 0 0 0 0 0 0 0 0 0 0 0 0 0 0 0 0 0 0 0 0 0 0 0 0 0 0 0 0 0 0 0 0 0 0 0 0 0 0 0 0 0 0 0 0 0 0 0 0 0 0 0 0 0 0 0 0 0 0 0 0 0 0 0 0 0 0 0 0 0 0 0 0 0 0 0 0 0 0 0 0 0 0 0 0 0 0 0 0 0 0 0 0 0 0 0 
0 0 0 0 0 0 0 0 0 0 0 0 0 0 0 0 0 0 0 0 0 0 0 0 0 0 0 0 0 0 0 0 0 0 0 0 0 0 0 0 0 0 0 0 0 0 0 0 0 0 0 0 0 0 0 0 0 0 0 0 0 0 0 0 0 0 0 0 0 0 0 0 0 0 0 0 0 0 0 0 0 0 0 0 0 0 0 0 0 0 0 0 0 0 0 0 0 0 0 0 0 0 0 0 0 0 0 0 0 0 0 0 0 0 0 0 0 0 0 0 0 0 0 0 0 0 0 0 0 0 0 0 0 0 0 0 0 0 0 0 0 0 0 0 0 0 0 0 0 0 0 0 0 0 0 0 0 0 0 0 0 0 0 0 0 0 0 0 0 0 0 0 0 0 0 0 0 0 0 0 0 0 0 0 0 0 0 0 0 0 0 0 0 0 0 0 0 0 0 0 0 0 0 0 0 0 0 0 0 0 0 0 0 0 0 0 0 0 0 0 0 0 0 0 0 0 0 0 0 0 0 0 0 0 0 0 0 0 0 0 0 0 0 0 0 0 0 0 0 0 0 0 0 0 0 0 0 0 0 0 0 0 0 0 0 0 0 0 0 0 
0 0 0 0 0 0 0 0 0 0 0 0 0 0 0 0 0 0 0 0 0 0 0 0 0 0 0 0 0 0 0 0 0 0 0 0 0 0 0 0 0 0 0 0 0 0 0 0 0 0 0 0 0 0 0 0 0 0 0 0 0 0 0 0 0 0 0 0 0 0 0 0 0 0 0 0 0 0 0 0 0 0 0 0 0 0 0 0 0 0 0 0 0 0 0 0 0 0 0 0 0 0 0 0 0 0 0 0 0 0 0 0 0 0 0 0 0 0 0 0 0 0 0 0 0 0 0 0 0 0 0 0 0 0 0 0 0 0 0 0 0 0 0 0 0 0 0 0 0 0 0 0 0 0 0 0 0 0 0 0 0 0 0 0 0 0 0 0 0 0 0 0 0 0 0 0 0 0 0 0 0 0 0 0 0 0 0 0 0 0 0 0 0 0 0 0 0 0 0 0 0 0 0 0 0 0 0 0 0 0 0 0 0 0 0 0 0 0 0 0 0 0 0 0 0 0 0 0 0 0 0 0 0 0 0 0 0 0 0 0 0 0 0 0 0 0 0 0 0 0 0 0 0 0 0 0 0 0 0 0 0 0 0 0 0 0 0 0 0 0 
0 0 0 0 0 0 0 0 0 0 0 0 0 0 0 0 0 0 0 0 0 0 0 0 0 0 0 0 0 0 0 0 0 0 0 0 0 0 0 0 0 0 0 0 0 0 0 0 0 0 0 0 0 0 0 0 0 0 0 0 0 0 0 0 0 0 0 0 0 0 0 0 0 0 0 0 0 0 0 0 0 0 0 0 0 0 0 0 0 0 0 0 0 0 0 0 0 0 0 0 0 0 0 0 0 0 0 0 0 0 0 11 11 11 9 9 9 0 0 0 0 0 0 0 0 0 0 0 0 0 0 0 0 0 0 0 0 0 0 0 0 0 0 0 0 0 0 0 0 0 0 0 0 0 0 0 0 0 0 0 0 0 0 0 0 0 0 0 0 0 0 0 0 0 0 0 0 0 0 0 0 0 0 0 0 0 0 0 0 0 0 0 0 0 0 0 0 0 0 0 0 0 0 0 0 0 0 0 0 0 0 0 0 0 0 0 0 0 0 0 0 0 0 0 0 0 0 0 0 0 0 0 0 0 0 0 0 0 0 0 0 0 0 0 0 0 0 0 0 0 0 0 0 0 0 0 0 0 0 0 0 0 0 0 0 0 0 0 0 0 
0 0 0 0 0 0 0 0 0 0 0 0 0 0 0 0 0 0 0 0 0 0 0 0 0 0 0 0 0 0 0 0 0 0 0 0 0 0 0 0 0 0 0 0 0 0 0 0 0 0 0 0 0 0 0 0 0 0 0 0 0 0 0 0 0 0 0 0 0 0 0 0 0 0 0 0 0 0 0 0 0 0 0 0 0 0 0 0 0 0 0 0 0 0 0 0 0 0 0 0 0 0 0 0 0 0 0 0 0 0 0 9 9 9 8 8 8 0 0 0 0 0 0 0 0 0 0 0 0 0 0 0 0 0 0 0 0 0 0 0 0 0 0 0 0 0 0 0 0 0 0 0 0 0 0 0 0 0 0 0 0 0 0 0 0 0 0 0 0 0 0 0 0 0 0 0 0 0 0 0 0 0 0 0 0 0 0 0 0 0 0 0 0 0 0 0 0 0 0 0 0 0 0 0 0 0 0 0 0 0 0 0 0 0 0 0 0 0 0 0 0 0 0 0 0 0 0 0 0 0 0 0 0 0 0 0 0 0 0 0 0 0 0 0 0 0 0 0 0 0 0 0 0 0 0 0 0 0 0 0 0 0 0 0 0 0 0 0 0 0 
0 0 0 0 0 0 0 0 0 0 0 0 0 0 0 0 0 0 0 0 0 0 0 0 0 0 0 0 0 0 0 0 0 0 0 0 0 0 0 0 0 0 0 0 0 0 0 0 0 0 0 0 0 0 0 0 0 0 0 0 0 0 0 0 0 0 0 0 0 0 0 0 0 0 0 0 0 0 0 0 0 0 0 0 0 0 0 0 0 0 0 0 0 0 0 0 0 0 0 0 0 0 0 0 0 0 0 0 1 1 1 1 1 1 4 4 4 0 0 0 0 0 0 1 1 1 0 0 0 0 0 0 0 0 0 0 0 0 0 0 0 0 0 0 0 0 0 0 0 0 0 0 0 0 0 0 0 0 0 0 0 0 0 0 0 0 0 0 0 0 0 0 0 0 0 0 0 0 0 0 0 0 0 0 0 0 0 0 0 0 0 0 0 0 0 0 0 0 0 0 0 0 0 0 0 0 0 0 0 0 0 0 0 0 0 0 0 0 0 0 0 0 0 0 0 0 0 0 0 0 0 0 0 0 0 0 0 0 0 0 0 0 0 0 0 0 0 0 0 0 0 0 0 0 0 0 0 0 0 0 0 0 0 0 0 0 0 0 0 0 
0 0 0 0 0 0 0 0 0 0 0 0 0 0 0 0 0 0 0 0 0 0 0 0 0 0 0 0 0 0 0 0 0 0 0 0 0 0 0 0 0 0 0 0 0 0 0 0 0 0 0 0 0 0 0 0 0 0 0 0 0 0 0 0 0 0 0 0 0 0 0 0 0 0 0 0 0 0 0 0 0 0 0 0 0 0 0 0 0 0 0 0 0 0 0 0 0 0 0 0 0 0 0 0 0 0 0 0 0 0 0 0 0 0 4 4 5 2 2 2 1 1 1 0 0 0 1 1 1 1 1 1 0 0 0 0 0 0 0 0 0 0 0 0 0 0 0 0 0 0 0 0 0 0 0 0 0 0 0 0 0 0 0 0 0 0 0 0 0 0 0 0 0 0 0 0 0 0 0 0 0 0 0 0 0 0 0 0 0 0 0 0 0 0 0 0 0 0 0 0 0 0 0 0 0 0 0 0 0 0 0 0 0 0 0 0 0 0 0 0 0 0 0 0 0 0 0 0 0 0 0 0 0 0 0 0 0 0 0 0 0 0 0 0 0 0 0 0 0 0 0 0 0 0 0 0 0 0 0 0 0 0 0 0 0 0 0 0 0 0 
0 0 0 0 0 0 0 0 0 0 0 0 0 0 0 0 0 0 0 0 0 0 0 0 0 0 0 0 0 0 0 0 0 0 0 0 0 0 0 0 0 0 0 0 0 0 0 0 0 0 0 0 0 0 0 0 0 0 0 0 0 0 0 0 0 0 0 0 0 0 0 0 0 0 0 0 0 0 0 0 0 0 0 0 0 0 0 0 0 0 0 0 0 0 0 0 0 0 0 0 0 0 0 0 0 0 0 0 0 0 0 0 0 0 2 3 2 2 2 2 1 1 1 13 13 13 5 5 5 0 0 0 1 1 1 0 0 1 0 0 0 0 0 0 0 0 0 0 0 0 0 0 0 0 0 0 0 0 0 0 0 0 0 0 0 0 0 0 0 0 0 0 0 0 0 0 0 0 0 0 0 0 0 0 0 0 0 0 0 0 0 0 0 0 0 0 0 0 0 0 0 0 0 0 0 0 0 0 0 0 0 0 0 0 0 0 0 0 0 0 0 0 0 0 0 0 0 0 0 0 0 0 0 0 0 0 0 0 0 0 0 0 0 0 0 0 0 0 0 0 0 0 0 0 0 0 0 0 0 0 0 0 0 0 0 0 0 0 0 0 
0 0 0 0 0 0 0 0 0 0 0 0 0 0 0 0 0 0 0 0 0 0 0 0 0 0 0 0 0 0 0 0 0 0 0 0 0 0 0 0 0 0 0 0 0 0 0 0 0 0 0 0 0 0 0 0 0 0 0 0 0 0 0 0 0 0 0 0 0 0 0 0 0 0 0 0 0 0 0 0 0 0 0 0 0 0 0 0 0 0 0 0 0 0 0 0 0 0 0 0 0 0 0 0 0 1 1 1 2 2 2 0 0 0 2 2 1 17 17 17 34 34 36 32 32 35 26 25 31 34 32 43 2 1 3 2 1 1 0 0 0 0 0 0 0 0 0 0 0 0 0 0 0 0 0 0 0 0 0 0 0 0 0 0 0 0 0 0 0 0 0 0 0 0 0 0 0 0 0 0 0 0 0 0 0 0 0 0 0 0 0 0 0 0 0 0 0 0 0 0 0 0 0 0 0 0 0 0 0 0 0 0 0 0 0 0 0 0 0 0 0 0 0 0 0 0 0 0 0 0 0 0 0 0 0 0 0 0 0 0 0 0 0 0 0 0 0 0 0 0 0 0 0 0 0 0 0 0 0 0 0 0 0 0 0 0 0 0 0 0 
0 0 0 0 0 0 0 0 0 0 0 0 0 0 0 0 0 0 0 0 0 0 0 0 0 0 0 0 0 0 0 0 0 0 0 0 0 0 0 0 0 0 0 0 0 0 0 0 0 0 0 0 0 0 0 0 0 0 0 0 0 0 0 0 0 0 0 0 0 0 0 0 0 0 0 0 0 0 0 0 0 0 0 0 0 0 0 0 0 0 0 0 0 0 0 0 0 0 0 1 0 1 0 0 0 0 0 0 1 1 1 19 19 19 37 37 38 47 47 50 38 38 42 21 21 24 27 26 32 55 52 68 45 40 59 2 1 1 0 0 0 0 0 0 0 0 0 0 0 0 0 0 0 0 0 0 0 0 0 0 0 0 0 0 0 0 0 0 0 0 0 0 0 0 0 0 0 0 0 0 0 0 0 0 0 0 0 0 0 0 0 0 0 0 0 0 0 0 0 0 0 0 0 0 0 0 0 0 0 0 0 0 0 0 0 0 0 0 0 0 0 0 0 0 0 0 0 0 0 0 0 0 0 0 0 0 0 0 0 0 0 0 0 0 0 0 0 0 0 0 0 0 0 0 0 0 0 0 0 0 0 0 0 0 0 0 0 0 0 0 
0 0 0 0 0 0 0 0 0 0 0 0 0 0 0 0 0 0 0 0 0 0 0 0 0 0 0 0 0 0 0 0 0 0 0 0 0 0 0 0 0 0 0 0 0 0 0 0 0 0 0 0 0 0 0 0 0 0 0 0 0 0 0 0 0 0 0 0 0 0 0 0 0 0 0 0 0 0 0 0 0 0 0 0 0 0 0 0 0 0 0 0 0 1 1 1 1 1 1 0 0 0 0 1 0 17 16 18 39 39 39 40 40 40 16 15 13 31 30 33 36 35 44 14 13 19 26 26 29 21 19 23 52 50 65 21 23 31 0 0 0 3 4 4 1 1 1 0 0 0 0 0 0 0 0 0 0 0 0 0 0 0 0 0 0 0 0 0 0 0 0 0 0 0 0 0 0 0 0 0 0 0 0 0 0 0 0 0 0 0 0 0 0 0 0 0 0 0 0 0 0 0 0 0 0 0 0 0 0 0 0 0 0 0 0 0 0 0 0 0 0 0 0 0 0 0 0 0 0 0 0 0 0 0 0 0 0 0 0 0 0 0 0 0 0 0 0 0 0 0 0 0 0 0 0 0 0 0 0 0 0 0 0 0 0 0 0 0 0 0 
0 0 0 0 0 0 0 0 0 0 0 0 0 0 0 0 0 0 0 0 0 0 0 0 0 0 0 0 0 0 0 0 0 0 0 0 0 0 0 0 0 0 0 0 0 0 0 0 0 0 0 0 0 0 0 0 0 0 0 0 0 0 0 0 0 0 0 0 0 0 0 0 0 0 0 0 0 0 0 0 0 0 0 0 0 0 0 1 1 1 0 0 0 1 1 1 1 1 1 18 18 18 41 41 41 40 40 40 21 21 21 5 5 5 2 1 3 10 10 15 84 78 61 123 116 85 155 149 107 92 90 77 22 20 27 38 35 36 7 7 9 7 6 7 7 7 7 9 9 8 9 9 9 0 0 0 0 0 0 0 0 0 0 0 0 0 0 0 0 0 0 0 0 0 0 0 0 0 0 0 0 0 0 0 0 0 0 0 0 0 0 0 0 0 0 0 0 0 0 0 0 0 0 0 0 0 0 0 0 0 0 0 0 0 0 0 0 0 0 0 0 0 0 0 0 0 0 0 0 0 0 0 0 0 0 0 0 0 0 0 0 0 0 0 0 0 0 0 0 0 0 0 0 0 0 0 0 0 0 0 0 0 0 0 0 0 0 0 0 0 
0 0 0 0 0 0 0 0 0 0 0 0 0 0 0 0 0 0 0 0 0 0 0 0 0 0 0 0 0 0 0 0 0 0 0 0 0 0 0 0 0 0 0 0 0 0 0 0 0 0 0 0 0 0 0 0 0 0 0 0 0 0 0 0 0 0 0 0 0 0 0 0 0 0 0 0 0 0 0 0 0 1 1 1 0 0 0 0 0 0 1 1 1 10 10 10 31 31 30 43 42 44 21 21 22 7 7 5 3 3 3 0 0 0 11 13 16 38 35 39 145 134 95 163 154 111 175 166 123 178 169 127 48 44 51 50 42 47 48 42 41 19 17 22 21 22 22 20 19 21 14 14 13 1 1 1 1 1 1 1 1 1 0 1 0 0 0 0 0 0 0 0 0 0 0 0 0 0 0 0 0 0 0 0 0 0 0 0 0 0 0 0 0 0 0 0 0 0 0 0 0 0 0 0 0 0 0 0 0 0 0 0 0 0 0 0 0 0 0 0 0 0 0 0 0 0 0 0 0 0 0 0 0 0 0 0 0 0 0 0 0 0 0 0 0 0 0 0 0 0 0 0 0 0 0 0 0 0 0 0 0 0 0 0 0 0 0 0 0 0 
0 0 0 0 0 0 0 0 0 0 0 0 0 0 0 0 0 0 0 0 0 0 0 0 0 0 0 0 0 0 0 0 0 0 0 0 0 0 0 0 0 0 0 0 0 0 0 0 0 0 0 0 0 0 0 0 0 0 0 0 0 0 0 0 0 0 0 0 0 0 0 0 0 0 0 1 1 1 1 1 1 0 0 0 0 0 0 21 21 24 38 38 40 22 22 22 14 14 14 5 5 5 0 0 0 9 8 9 44 38 33 24 20 22 23 18 35 74 68 57 162 151 109 169 160 123 181 172 130 206 196 149 140 135 108 56 52 49 99 94 74 103 97 83 29 26 38 31 31 32 27 26 27 2 2 2 1 2 2 1 2 1 2 2 2 0 0 0 0 0 0 0 0 0 0 0 0 0 0 0 0 0 0 0 0 0 0 0 0 0 0 0 0 0 0 0 0 0 0 0 0 0 0 0 0 0 0 0 0 0 0 0 0 0 0 0 0 0 0 0 0 0 0 0 0 0 0 0 0 0 0 0 0 0 0 0 0 0 0 0 0 0 0 0 0 0 0 0 0 0 0 0 0 0 0 0 0 0 0 0 0 0 0 0 0 0 0 0 0 0 
0 0 0 0 0 0 0 0 0 0 0 0 0 0 0 0 0 0 0 0 0 0 0 0 0 0 0 0 0 0 0 0 0 0 0 0 0 0 0 0 0 0 0 0 0 0 0 0 0 0 0 0 0 0 0 0 0 0 0 0 0 0 0 0 0 0 0 0 0 1 1 1 0 0 1 0 0 0 1 1 1 19 19 19 42 42 43 45 45 47 23 23 25 5 5 5 2 2 2 1 0 0 1 1 0 5 5 8 37 34 33 59 54 44 54 50 43 126 121 85 170 161 120 178 169 130 189 180 137 203 195 153 209 200 153 218 204 161 225 212 165 222 214 161 70 62 63 24 25 32 47 45 52 19 19 23 3 3 2 13 10 11 1 1 1 0 0 0 0 0 0 0 0 0 0 0 0 0 0 0 0 0 0 0 0 0 0 0 0 0 0 0 0 0 0 0 0 0 0 0 0 0 0 0 0 0 0 0 0 0 0 0 0 0 0 0 0 0 0 0 0 0 0 0 0 0 0 0 0 0 0 0 0 0 0 0 0 0 0 0 0 0 0 0 0 0 0 0 0 0 0 0 0 0 0 0 0 0 0 0 0 0 0 0 0 0 0 0 0 0 
0 0 0 0 0 0 0 0 0 0 0 0 0 0 0 0 0 0 0 0 0 0 0 0 0 0 0 0 0 0 0 0 0 0 0 0 0 0 0 0 0 0 0 0 0 0 0 0 0 0 0 0 0 0 0 0 0 0 0 0 0 0 0 1 1 1 3 3 3 0 0 0 0 0 0 18 18 20 45 45 48 46 46 48 23 23 24 5 5 5 0 0 0 1 1 1 1 1 1 0 1 0 8 7 7 23 23 27 87 81 58 129 120 76 143 135 92 156 148 108 168 159 120 184 175 134 200 191 150 216 206 164 214 201 158 225 213 169 221 211 167 227 214 164 171 161 128 19 18 37 26 24 34 29 28 35 33 31 39 24 19 20 0 1 1 1 1 2 0 0 0 0 0 0 0 0 0 0 0 0 0 0 0 0 0 0 0 0 0 0 0 0 0 0 0 0 0 0 0 0 0 0 0 0 0 0 0 0 0 0 0 0 0 0 0 0 0 0 0 0 0 0 0 0 0 0 0 0 0 0 0 0 0 0 0 0 0 0 0 0 0 0 0 0 0 0 0 0 0 0 0 0 0 0 0 0 0 0 0 0 0 0 0 0 0 0 0 0 0 0 
0 0 0 0 0 0 0 0 0 0 0 0 0 0 0 0 0 0 0 0 0 0 0 0 0 0 0 0 0 0 0 0 0 0 0 0 0 0 0 0 0 0 0 0 0 0 0 0 0 0 0 0 0 0 0 0 0 1 1 0 1 1 1 0 0 0 1 1 1 19 19 19 45 44 47 45 45 47 28 28 28 8 8 8 0 0 0 0 0 0 0 0 0 1 1 1 0 0 0 4 4 3 24 22 31 38 33 36 108 104 61 124 116 78 141 132 94 161 152 113 175 166 127 194 185 144 213 204 163 223 211 171 227 216 172 237 226 180 237 226 182 230 218 173 223 212 163 144 139 102 138 127 97 162 152 101 81 77 68 12 10 19 2 3 2 1 1 1 0 0 0 0 0 0 0 0 0 0 0 0 0 0 0 0 0 0 0 0 0 0 0 0 0 0 0 0 0 0 0 0 0 0 0 0 0 0 0 0 0 0 0 0 0 0 0 0 0 0 0 0 0 0 0 0 0 0 0 0 0 0 0 0 0 0 0 0 0 0 0 0 0 0 0 0 0 0 0 0 0 0 0 0 0 0 0 0 0 0 0 0 0 0 0 0 0 0 0 0 0 0 
0 0 0 0 0 0 0 0 0 0 0 0 0 0 0 0 0 0 0 0 0 0 0 0 0 0 0 0 0 0 0 0 0 0 0 0 0 0 0 0 0 0 0 0 0 0 0 0 0 0 0 2 2 2 2 2 2 0 0 0 0 0 0 16 16 17 43 43 43 47 47 48 27 27 30 7 7 7 1 1 0 0 0 0 1 1 1 0 0 0 0 0 0 1 0 0 7 7 9 29 29 31 25 25 28 65 59 40 119 112 71 132 123 87 143 134 94 167 158 119 182 173 132 189 180 138 212 203 161 224 213 171 240 228 184 247 236 190 242 231 185 239 228 182 223 212 163 226 212 160 211 200 143 195 182 126 146 137 90 45 45 61 39 42 54 0 0 0 1 1 1 0 0 0 0 0 0 0 0 0 0 0 0 0 0 0 0 0 0 0 0 0 0 0 0 0 0 0 0 0 0 0 0 0 0 0 0 0 0 0 0 0 0 0 0 0 0 0 0 0 0 0 0 0 0 0 0 0 0 0 0 0 0 0 0 0 0 0 0 0 0 0 0 0 0 0 0 0 0 0 0 0 0 0 0 0 0 0 0 0 0 0 0 0 0 0 0 0 0 0 
0 0 0 0 0 0 0 0 0 0 0 0 0 0 0 0 0 0 0 0 0 0 0 0 0 0 0 0 0 0 0 0 0 0 0 0 0 0 0 0 0 0 0 0 0 0 0 0 1 1 1 1 1 1 0 1 0 19 19 21 49 49 51 48 48 49 28 28 28 10 10 10 1 1 0 0 0 0 0 0 0 0 0 0 0 0 0 0 0 0 1 1 1 0 0 1 50 46 25 84 79 39 91 84 48 108 97 55 117 107 68 136 127 87 148 139 100 173 164 123 183 174 130 203 194 151 224 215 172 239 228 184 238 230 185 253 246 203 252 243 198 247 237 187 230 218 168 218 206 157 203 191 143 187 175 126 178 165 107 94 86 68 36 37 53 1 0 0 1 1 1 0 0 0 0 0 0 0 0 0 0 0 0 0 0 0 0 0 0 0 0 0 0 0 0 0 0 0 0 0 0 0 0 0 0 0 0 0 0 0 0 0 0 0 0 0 0 0 0 0 0 0 0 0 0 0 0 0 0 0 0 0 0 0 0 0 0 0 0 0 0 0 0 0 0 0 0 0 0 0 0 0 0 0 0 0 0 0 0 0 0 0 0 0 0 0 0 0 0 0 
0 0 0 0 0 0 0 0 0 0 0 0 0 0 0 0 0 0 0 0 0 0 0 0 0 0 0 0 0 0 0 0 0 0 0 0 0 0 0 0 0 0 0 0 0 0 0 0 0 0 0 19 19 19 43 43 44 48 48 50 33 33 35 11 11 12 1 1 1 1 1 1 1 0 1 1 1 1 0 0 0 0 0 0 0 0 0 1 0 0 0 0 0 9 8 7 82 72 33 92 81 42 100 89 48 110 99 60 119 109 71 137 128 89 155 146 107 171 162 122 187 178 135 211 202 159 230 220 178 247 236 193 246 241 194 240 236 208 243 238 206 241 231 183 238 226 176 225 213 163 205 193 143 192 181 130 183 169 111 115 105 68 22 23 31 5 4 6 0 0 0 0 0 0 0 0 0 0 0 0 0 0 0 0 0 0 0 0 0 0 0 0 0 0 0 0 0 0 0 0 0 0 0 0 0 0 0 0 0 0 0 0 0 0 0 0 0 0 0 0 0 0 0 0 0 0 0 0 0 0 0 0 0 0 0 0 0 0 0 0 0 0 0 0 0 0 0 0 0 0 0 0 0 0 0 0 0 0 0 0 0 0 0 0 0 0 0 0 0 0 
0 0 0 0 0 0 0 0 0 0 0 0 0 0 0 0 0 0 0 0 0 0 0 0 0 0 0 0 0 0 0 0 0 0 0 0 0 0 0 0 0 0 1 1 2 8 8 10 33 33 35 51 51 52 32 31 33 11 10 12 2 2 2 0 0 0 0 0 0 0 0 0 0 0 0 0 0 0 0 0 0 0 0 0 0 0 0 1 1 1 0 0 0 40 36 18 88 81 35 89 83 43 98 89 49 111 102 62 125 116 75 133 124 83 148 138 98 164 155 114 194 185 143 215 205 160 234 223 178 248 238 194 248 245 211 240 239 227 248 244 218 245 238 189 235 223 173 230 218 168 206 195 143 192 180 129 182 170 111 62 56 43 42 45 57 3 3 4 0 0 0 0 0 0 0 0 0 0 0 0 0 0 0 0 0 0 0 0 0 0 0 0 0 0 0 0 0 0 0 0 0 0 0 0 0 0 0 0 0 0 0 0 0 0 0 0 0 0 0 0 0 0 0 0 0 0 0 0 0 0 0 0 0 0 0 0 0 0 0 0 0 0 0 0 0 0 0 0 0 0 0 0 0 0 0 0 0 0 0 0 0 0 0 0 0 0 0 0 0 0 
0 0 0 0 0 0 0 0 0 0 0 0 0 0 0 0 0 0 0 0 0 0 0 0 0 0 0 0 0 0 0 0 0 0 0 0 0 0 0 0 0 0 4 4 4 28 28 32 37 36 45 12 12 14 2 3 1 0 0 0 0 0 0 0 0 0 0 0 0 0 0 0 0 0 0 0 0 0 0 0 0 0 0 0 0 0 0 1 1 1 0 0 0 40 36 21 91 83 37 91 82 45 99 90 48 113 104 63 122 113 72 136 127 86 158 149 108 175 166 125 189 179 138 212 201 157 234 222 177 249 240 197 243 240 217 252 251 241 255 252 233 252 244 199 234 222 171 225 213 163 209 197 144 200 188 132 150 139 92 35 32 37 62 62 79 2 3 4 0 0 0 0 0 0 0 0 0 0 0 0 0 0 0 0 0 0 0 0 0 0 0 0 0 0 0 0 0 0 0 0 0 0 0 0 0 0 0 0 0 0 0 0 0 0 0 0 0 0 0 0 0 0 0 0 0 0 0 0 0 0 0 0 0 0 0 0 0 0 0 0 0 0 0 0 0 0 0 0 0 0 0 0 0 0 0 0 0 0 0 0 0 0 0 0 0 0 0 0 0 0 
0 0 0 0 0 0 0 0 0 0 0 0 0 0 0 0 0 0 0 0 0 0 0 0 0 0 0 0 0 0 0 0 0 0 0 0 1 1 1 0 0 0 21 21 23 29 29 34 69 67 77 115 112 121 0 0 0 2 2 3 0 0 0 0 0 0 0 0 0 0 0 0 0 0 0 0 0 0 0 0 0 0 0 0 0 0 0 1 1 0 0 0 0 12 11 17 77 70 35 97 85 41 100 91 51 111 102 61 119 110 69 139 130 89 156 146 107 174 165 122 194 184 142 222 210 164 242 233 185 247 240 201 247 242 211 252 251 234 254 249 224 252 242 192 238 225 174 212 200 149 201 188 138 196 187 125 102 96 73 24 22 28 64 62 81 5 6 8 0 0 0 0 0 0 0 0 0 0 0 0 0 0 0 0 0 0 0 0 0 0 0 0 0 0 0 0 0 0 0 0 0 0 0 0 0 0 0 0 0 0 0 0 0 0 0 0 0 0 0 0 0 0 0 0 0 0 0 0 0 0 0 0 0 0 0 0 0 0 0 0 0 0 0 0 0 0 0 0 0 0 0 0 0 0 0 0 0 0 0 0 0 0 0 0 0 0 0 0 0 0 
0 0 0 0 0 0 0 0 0 0 0 0 0 0 0 0 0 0 0 0 0 0 0 0 0 0 0 0 0 0 0 0 0 0 0 0 2 2 2 1 2 1 38 37 41 44 43 50 38 36 43 55 52 61 21 20 18 0 0 0 0 1 0 0 0 0 0 0 0 0 0 0 0 0 0 0 0 0 0 0 0 0 0 0 0 0 0 0 0 1 0 0 0 8 9 17 48 47 41 93 84 41 100 91 51 107 98 57 119 110 67 139 130 88 161 150 107 185 172 127 206 196 151 111 106 89 98 95 83 71 69 64 204 201 174 255 255 226 253 244 207 251 238 188 231 219 167 215 203 151 205 193 141 192 177 125 154 141 97 34 33 42 65 67 83 8 9 13 0 0 0 0 0 0 0 0 0 0 0 0 0 0 0 0 0 0 0 0 0 0 0 0 0 0 0 0 0 0 0 0 0 0 0 0 0 0 0 0 0 0 0 0 0 0 0 0 0 0 0 0 0 0 0 0 0 0 0 0 0 0 0 0 0 0 0 0 0 0 0 0 0 0 0 0 0 0 0 0 0 0 0 0 0 0 0 0 0 0 0 0 0 0 0 0 0 0 0 0 0 0 
0 0 0 0 0 0 0 0 0 0 0 0 0 0 0 0 0 0 0 0 0 0 0 0 0 0 0 0 0 0 0 0 0 0 0 0 1 1 1 0 0 0 31 30 33 48 47 52 32 31 37 30 28 31 22 22 17 0 0 0 1 1 1 0 0 0 0 0 0 0 0 0 0 0 0 0 0 0 0 0 0 0 0 0 0 0 0 0 0 1 0 0 0 5 4 13 56 51 34 96 85 40 98 90 49 111 102 60 116 107 63 143 134 87 99 94 68 53 50 42 81 79 65 50 47 43 52 51 46 15 15 21 94 93 84 255 255 199 251 239 180 246 233 181 225 213 161 214 202 150 202 190 137 181 169 113 177 164 103 82 76 64 41 41 57 6 6 6 0 0 0 0 0 0 0 0 0 0 0 0 0 0 0 0 0 0 0 0 0 0 0 0 0 0 0 0 0 0 0 0 0 0 0 0 0 0 0 0 0 0 0 0 0 0 0 0 0 0 0 0 0 0 0 0 0 0 0 0 0 0 0 0 0 0 0 0 0 0 0 0 0 0 0 0 0 0 0 0 0 0 0 0 0 0 0 0 0 0 0 0 0 0 0 0 0 0 0 0 0 0 
0 0 0 0 0 0 0 0 0 0 0 0 0 0 0 0 0 0 0 0 0 0 0 0 0 0 0 0 0 0 0 0 0 0 0 0 1 1 1 0 0 0 27 26 30 46 45 51 31 30 38 28 28 29 8 9 5 0 0 0 2 2 2 0 0 1 0 0 0 0 0 0 0 0 0 0 0 0 0 0 0 0 0 0 0 0 0 1 0 0 0 0 0 12 11 11 84 75 34 95 85 37 99 90 44 112 103 58 119 107 66 148 134 89 56 53 39 7 13 15 25 25 22 5 5 6 10 10 11 10 11 11 24 23 29 198 192 155 241 231 169 228 217 162 217 206 153 209 199 144 194 183 129 176 166 109 171 158 96 133 123 78 33 29 41 11 9 10 0 0 0 1 1 1 0 0 0 0 0 0 0 0 0 0 0 0 0 0 0 0 0 0 0 0 0 0 0 0 0 0 0 0 0 0 0 0 0 0 0 0 0 0 0 0 0 0 0 0 0 0 0 0 0 0 0 0 0 0 0 0 0 0 0 0 0 0 0 0 0 0 0 0 0 0 0 0 0 0 0 0 0 0 0 0 0 0 0 0 0 0 0 0 0 0 0 0 0 0 0 0 
0 0 0 0 0 0 0 0 0 0 0 0 0 0 0 0 0 0 0 0 0 0 0 0 0 0 0 0 0 0 0 0 0 0 0 0 1 1 1 0 0 0 30 29 31 41 40 43 42 41 45 43 42 49 26 25 30 6 6 7 0 0 0 0 0 0 1 1 0 1 1 1 0 0 0 0 0 0 0 0 0 0 0 0 0 0 0 1 1 0 0 0 0 45 40 25 92 84 32 91 81 35 100 88 44 111 99 54 119 108 63 136 124 76 93 87 62 38 36 34 23 22 17 16 16 15 16 16 16 14 15 16 18 17 24 176 169 134 240 230 170 216 206 152 205 194 140 206 195 141 192 181 126 173 163 107 171 159 95 97 89 54 29 29 37 11 10 12 0 0 0 1 0 1 0 0 0 0 0 0 0 0 0 0 0 0 0 0 0 0 0 0 0 0 0 0 0 0 0 0 0 0 0 0 0 0 0 0 0 0 0 0 0 0 0 0 0 0 0 0 0 0 0 0 0 0 0 0 0 0 0 0 0 0 0 0 0 0 0 0 0 0 0 0 0 0 0 0 0 0 0 0 0 0 0 0 0 0 0 0 0 0 0 0 0 0 0 0 0 0 
0 0 0 0 0 0 0 0 0 0 0 0 0 0 0 0 0 0 0 0 0 0 0 0 0 0 0 0 0 0 0 0 0 0 0 0 0 0 0 0 0 0 6 6 5 17 18 17 37 37 36 48 46 47 48 46 49 44 42 49 35 34 39 14 13 17 0 0 2 0 0 0 1 1 0 2 2 2 1 1 1 0 0 0 0 0 0 1 1 0 0 0 0 21 18 16 87 79 31 92 82 36 98 86 42 108 96 52 116 104 59 127 116 70 147 136 91 158 147 99 71 68 47 14 13 17 26 26 23 10 11 14 68 67 57 238 227 174 226 213 157 219 206 152 200 189 134 192 182 123 185 174 118 169 155 97 158 144 82 37 31 30 90 90 109 12 12 15 0 0 0 1 1 1 0 0 0 1 1 1 0 0 1 0 0 1 1 1 1 1 1 1 1 1 1 0 0 0 0 0 0 0 0 0 0 0 0 0 0 0 0 0 0 0 0 0 0 0 0 0 0 0 0 0 0 0 0 0 0 0 0 0 0 0 0 0 0 0 0 0 0 0 0 0 0 0 0 0 0 0 0 0 0 0 0 0 0 0 0 0 0 0 0 0 0 0 0 0 0 0 
0 0 0 0 0 0 0 0 0 0 0 0 0 0 0 0 0 0 0 0 0 0 0 0 0 0 0 0 0 0 0 0 0 0 0 0 0 0 0 0 0 0 0 0 0 0 0 0 6 6 6 27 25 21 46 44 39 44 43 40 38 36 40 44 42 49 43 43 48 22 21 28 2 2 6 0 0 0 0 0 0 1 1 1 1 1 1 0 0 1 0 0 0 4 2 12 58 54 29 91 82 29 93 83 37 103 93 45 109 99 51 126 115 67 131 123 73 163 153 102 156 146 103 21 22 30 24 23 34 12 11 22 155 147 116 229 215 159 205 192 140 205 192 140 196 185 130 179 169 109 171 161 102 170 153 92 104 92 59 26 23 34 91 90 114 12 12 15 0 0 0 3 3 4 1 1 1 0 0 0 0 0 0 0 0 0 0 0 0 0 0 0 0 0 0 1 1 1 0 0 0 0 0 0 0 0 0 0 0 0 0 0 0 0 0 0 0 0 0 0 0 0 0 0 0 0 0 0 0 0 0 0 0 0 0 0 0 0 0 0 0 0 0 0 0 0 0 0 0 0 0 0 0 0 0 0 0 0 0 0 0 0 0 0 0 0 0 0 0 0 
0 0 0 0 0 0 0 0 0 0 0 0 0 0 0 0 0 0 0 0 0 0 0 0 0 0 0 0 0 0 0 0 0 0 0 0 0 0 0 0 0 0 1 1 1 1 1 1 0 0 0 0 0 0 9 8 9 36 36 33 50 50 46 31 31 29 20 19 19 40 39 42 49 48 55 33 33 38 9 8 11 0 0 0 0 0 0 1 1 1 0 0 0 10 11 15 51 48 39 84 73 21 91 78 34 98 87 40 106 95 46 123 113 63 134 122 74 142 131 82 164 152 103 144 134 91 152 142 105 163 151 111 198 183 128 201 188 137 200 187 134 198 185 132 184 172 117 176 164 107 168 156 98 164 148 84 107 98 68 26 27 33 94 93 117 12 12 16 0 0 0 0 0 0 2 2 2 9 9 9 9 9 10 9 9 10 12 12 13 11 11 12 13 13 14 7 7 8 0 0 0 1 1 1 0 0 0 0 0 0 0 0 0 0 0 0 0 0 0 0 0 0 0 0 0 0 0 0 0 0 0 0 0 0 0 0 0 0 0 0 0 0 0 0 0 0 0 0 0 0 0 0 0 0 0 0 0 0 0 0 0 0 0 0 0 0 0 0 0 0 
0 0 0 0 0 0 0 0 0 0 0 0 0 0 0 0 0 0 0 0 0 0 0 0 0 0 0 0 0 0 0 0 0 0 0 0 0 0 0 0 0 0 0 0 0 0 0 0 0 0 0 0 0 0 0 0 0 0 0 0 16 17 13 48 48 44 47 46 44 15 14 12 7 7 5 32 31 35 50 49 54 42 42 46 19 19 22 2 2 3 0 0 0 12 10 18 73 66 28 89 77 25 93 81 31 101 90 39 103 91 42 116 104 55 130 118 69 139 127 78 149 137 87 171 158 103 184 172 116 196 184 129 184 173 120 185 173 119 188 175 120 184 171 115 173 157 101 173 158 101 163 148 90 150 136 74 140 129 64 49 42 51 80 80 98 23 23 29 43 42 48 110 109 116 129 128 134 113 112 118 115 114 119 118 117 122 112 111 116 112 111 116 129 128 133 92 91 96 4 4 4 0 0 0 0 0 0 0 0 0 0 0 0 0 0 0 0 0 0 0 0 0 0 0 0 0 0 0 0 0 0 0 0 0 0 0 0 0 0 0 0 0 0 0 0 0 0 0 0 0 0 0 0 0 0 0 0 0 0 0 0 0 0 0 0 0 0 0 0 0 
0 0 0 0 0 0 0 0 0 0 0 0 0 0 0 0 0 0 0 0 0 0 0 0 0 0 0 0 0 0 0 0 0 0 0 0 0 0 0 0 0 0 0 0 0 0 0 0 0 0 0 0 0 0 0 0 0 1 1 3 0 0 0 2 1 1 25 24 22 55 54 53 41 41 42 5 5 5 0 0 0 21 21 23 44 43 48 50 49 53 29 28 36 45 40 30 86 73 11 83 72 19 85 74 25 97 84 36 102 90 37 106 94 43 119 107 56 132 120 68 141 129 77 150 138 86 157 145 94 166 155 100 175 164 108 174 162 105 171 159 100 164 151 93 165 150 90 164 150 90 148 133 73 141 127 68 140 125 54 90 78 52 39 42 53 118 116 124 163 162 171 159 158 166 115 114 121 111 110 117 110 109 117 103 102 109 113 112 119 127 126 133 105 104 111 114 113 120 82 81 86 0 0 0 1 1 1 0 0 0 0 0 0 0 0 0 0 0 0 0 0 0 0 0 0 0 0 0 0 0 0 0 0 0 0 0 0 0 0 0 0 0 0 0 0 0 0 0 0 0 0 0 0 0 0 0 0 0 0 0 0 0 0 0 0 0 0 0 0 0 
0 0 0 0 0 0 0 0 0 0 0 0 0 0 0 0 0 0 0 0 0 0 0 0 0 0 0 0 0 0 0 0 0 0 0 0 0 0 0 0 0 0 0 0 0 0 0 0 0 0 0 0 0 0 0 0 0 0 0 0 1 1 1 1 0 0 0 0 0 4 4 4 35 35 36 57 58 58 33 32 32 2 1 1 0 0 0 13 13 13 36 36 38 57 55 51 72 64 46 84 74 29 90 75 19 92 80 23 98 87 35 103 93 41 113 101 51 119 107 57 134 122 71 147 134 81 156 143 90 160 147 93 162 150 95 159 145 90 166 151 94 160 145 89 155 140 81 151 137 77 143 128 67 137 121 60 134 117 48 80 71 31 39 38 51 121 120 126 107 106 111 87 86 92 94 93 99 90 89 95 93 92 98 114 113 119 114 113 119 97 96 102 103 102 109 107 106 112 117 116 122 57 57 60 0 0 0 3 3 2 0 0 0 0 0 0 0 0 0 0 0 0 0 0 0 0 0 0 0 0 0 0 0 0 0 0 0 0 0 0 0 0 0 0 0 0 0 0 0 0 0 0 0 0 0 0 0 0 0 0 0 0 0 0 0 0 0 0 0 0 
0 0 0 0 0 0 0 0 0 0 0 0 0 0 0 0 0 0 0 0 0 0 0 0 0 0 0 0 0 0 0 0 0 0 0 0 0 0 0 0 0 0 0 0 0 0 0 0 0 0 0 0 0 0 0 0 0 0 0 0 0 0 0 0 0 0 1 1 1 1 1 1 0 0 0 10 10 10 44 42 43 55 53 54 23 22 22 0 0 0 0 0 0 19 19 19 54 47 33 53 48 44 67 61 50 88 76 40 96 86 34 107 95 35 113 100 47 119 108 57 122 111 58 134 122 65 144 131 76 149 137 79 147 135 77 156 143 84 157 142 83 155 140 81 144 130 68 138 125 63 136 120 61 128 112 48 118 107 36 34 29 32 100 98 110 116 115 120 98 97 103 101 100 106 93 92 98 106 105 111 118 117 123 103 102 108 98 97 103 108 107 113 106 105 111 102 101 107 103 102 108 110 109 115 24 23 26 0 0 0 1 1 1 0 0 0 0 0 0 0 0 0 0 0 0 0 0 0 0 0 0 0 0 0 0 0 0 0 0 0 0 0 0 0 0 0 0 0 0 0 0 0 0 0 0 0 0 0 0 0 0 0 0 0 0 0 0 0 0 0 
0 0 0 0 0 0 0 0 0 0 0 0 0 0 0 0 0 0 0 0 0 0 0 0 0 0 0 0 0 0 0 0 0 0 0 0 0 0 0 0 0 0 0 0 0 0 0 0 0 0 0 0 0 0 0 0 0 0 0 0 0 0 0 0 0 0 1 1 1 0 0 0 1 1 1 0 0 0 0 0 0 16 15 15 47 46 47 45 44 44 12 13 12 2 0 8 61 52 17 68 58 6 53 45 20 47 47 41 59 55 53 81 73 47 103 91 39 120 106 46 123 109 50 120 106 51 128 115 57 134 120 62 141 127 69 146 132 73 140 126 64 140 126 65 136 121 59 138 122 56 129 115 45 130 114 35 71 63 26 54 53 68 120 118 126 110 110 115 103 102 108 101 100 106 115 114 120 109 108 114 97 96 102 100 99 105 104 103 109 102 101 107 100 99 105 98 97 103 96 95 101 108 107 114 77 76 81 0 0 0 2 2 2 1 1 1 0 0 0 0 0 0 0 0 0 0 0 0 0 0 0 0 0 0 0 0 0 0 0 0 0 0 0 0 0 0 0 0 0 0 0 0 0 0 0 0 0 0 0 0 0 0 0 0 0 0 0 0 0 0 
0 0 0 0 0 0 0 0 0 0 0 0 0 0 0 0 0 0 0 0 0 0 0 0 0 0 0 0 0 0 0 0 0 0 0 0 0 0 0 0 0 0 0 0 0 0 0 0 0 0 0 0 0 0 0 0 0 0 0 0 0 0 0 0 0 0 0 0 0 0 0 0 0 0 0 0 0 0 0 1 0 0 0 0 1 1 1 23 23 23 47 47 46 36 35 33 27 26 30 36 31 35 34 37 37 54 48 24 72 61 14 54 50 32 53 51 46 75 69 53 105 94 49 125 109 54 131 115 54 129 114 53 132 117 59 135 120 61 135 122 60 132 117 57 130 112 50 79 72 39 66 60 46 67 60 37 33 30 31 83 82 92 128 127 135 105 104 111 109 108 114 113 112 118 97 96 102 94 93 99 102 101 107 102 101 107 99 98 104 97 96 102 98 97 103 101 100 106 101 100 106 101 100 107 106 105 111 27 27 29 0 0 0 2 2 2 0 0 0 0 0 0 0 0 0 0 0 0 0 0 0 0 0 0 0 0 0 0 0 0 0 0 0 0 0 0 0 0 0 0 0 0 0 0 0 0 0 0 0 0 0 0 0 0 0 0 0 0 0 0 
0 0 0 0 0 0 0 0 0 0 0 0 0 0 0 0 0 0 0 0 0 0 0 0 0 0 0 0 0 0 0 0 0 0 0 0 0 0 0 0 0 0 0 0 0 0 0 0 0 0 0 0 0 0 0 0 0 0 0 0 0 0 0 0 0 0 0 0 0 0 0 0 0 0 0 0 0 0 1 1 1 2 2 2 1 1 2 0 0 0 4 4 4 29 28 28 40 39 33 32 30 30 29 27 38 37 35 41 85 72 11 93 79 18 86 74 23 68 58 27 52 52 42 66 64 51 103 90 58 126 114 55 127 112 44 125 112 47 124 110 53 125 110 48 98 87 36 33 34 42 44 42 57 49 48 62 56 55 64 118 117 124 112 111 119 111 110 116 105 104 110 89 88 94 94 93 99 98 97 103 97 96 102 98 97 103 104 103 109 107 106 112 105 104 110 100 99 105 99 98 104 99 98 105 109 108 113 82 81 84 2 2 3 2 2 2 0 0 0 0 0 0 0 0 0 0 0 0 0 0 0 0 0 0 0 0 0 0 0 0 0 0 0 0 0 0 0 0 0 0 0 0 0 0 0 0 0 0 0 0 0 0 0 0 0 0 0 0 0 0 
0 0 0 0 0 0 0 0 0 0 0 0 0 0 0 0 0 0 0 0 0 0 0 0 0 0 0 0 0 0 0 0 0 0 0 0 0 0 0 0 0 0 0 0 0 0 0 0 0 0 0 0 0 0 0 0 0 0 0 0 0 0 0 0 0 0 0 0 0 0 0 0 0 0 0 1 1 1 2 2 3 2 2 2 0 0 0 0 0 0 0 0 0 0 0 0 25 26 27 44 42 42 43 39 40 42 41 52 61 54 24 84 68 11 86 73 15 100 85 18 100 85 25 81 69 25 59 52 36 58 56 47 86 79 57 112 97 42 117 101 33 123 103 29 57 50 31 33 35 45 34 33 35 39 39 42 69 68 75 106 105 111 114 113 119 99 98 104 87 86 92 91 90 96 92 91 97 94 93 99 100 99 105 103 102 108 100 99 105 95 94 100 97 96 102 101 100 106 103 102 108 99 98 104 95 94 100 103 102 109 36 36 40 0 0 0 1 1 2 0 0 0 0 0 0 0 0 0 0 0 0 0 0 0 0 0 0 0 0 0 0 0 0 0 0 0 0 0 0 0 0 0 0 0 0 0 0 0 0 0 0 0 0 0 0 0 0 0 0 0 
0 0 0 0 0 0 0 0 0 0 0 0 0 0 0 0 0 0 0 0 0 0 0 0 0 0 0 0 0 0 0 0 0 0 0 0 0 0 0 0 0 0 0 0 0 0 0 0 0 0 0 0 0 0 0 0 0 0 0 0 0 0 0 0 0 1 1 1 2 1 1 0 0 0 0 0 0 0 0 0 0 0 0 0 7 7 9 26 28 33 51 53 58 76 78 84 89 91 98 86 89 94 58 60 63 43 42 46 36 35 37 54 51 52 51 49 56 67 60 25 100 86 7 108 91 15 114 94 13 101 85 13 58 56 31 45 42 49 72 65 49 81 74 48 44 40 44 53 52 64 18 19 22 25 24 27 63 62 69 112 110 117 94 93 99 85 84 90 89 88 94 89 88 94 91 90 96 93 92 98 93 92 98 93 92 98 95 94 100 98 97 103 98 97 103 96 95 101 92 91 97 91 90 96 96 95 101 109 108 114 89 88 93 5 5 7 0 0 0 0 0 0 0 0 0 0 0 0 0 0 0 0 0 0 0 0 0 0 0 0 0 0 0 0 0 0 0 0 0 0 0 0 0 0 0 0 0 0 0 0 0 0 0 0 0 0 0 0 0 0 
0 0 0 0 0 0 0 0 0 0 0 0 0 0 0 0 0 0 0 0 0 0 0 0 0 0 0 0 0 0 0 0 0 0 0 0 0 0 0 0 0 0 0 0 0 0 0 0 0 0 0 0 0 0 0 0 0 1 1 1 3 3 6 1 2 2 2 2 1 6 6 6 0 1 2 15 17 19 39 42 48 63 67 73 80 83 89 90 91 97 89 91 98 87 88 95 86 87 94 91 92 99 104 105 110 109 109 114 84 80 93 40 39 46 41 42 55 56 50 46 88 74 5 91 77 17 94 79 19 105 88 20 72 64 32 43 41 53 37 36 47 42 42 53 54 53 62 68 66 77 62 61 67 44 43 50 82 82 89 91 92 97 82 82 87 85 85 90 84 85 90 85 85 91 86 85 91 90 89 95 94 93 99 97 96 102 97 96 102 97 96 102 97 96 102 98 97 103 100 99 105 102 101 107 102 101 107 100 98 106 102 102 109 29 31 31 0 0 0 1 1 1 0 0 0 0 0 0 0 0 0 0 0 0 0 0 0 0 0 0 0 0 0 0 0 0 0 0 0 0 0 0 0 0 0 0 0 0 0 0 0 0 0 0 0 0 0 0 0 0 
0 0 0 0 0 0 0 0 0 0 0 0 0 0 0 0 0 0 0 0 0 0 0 0 0 0 0 0 0 0 0 0 0 0 0 0 0 0 0 0 0 0 0 0 0 0 0 0 0 0 0 0 0 0 2 2 2 2 2 2 0 0 0 2 2 3 42 44 52 99 102 122 102 109 131 111 119 140 112 120 139 103 111 124 94 101 109 85 87 95 92 91 96 108 107 115 121 121 130 134 134 143 141 141 151 148 148 158 182 181 192 126 125 130 31 32 32 47 44 51 74 63 17 83 70 3 91 74 6 76 63 16 48 43 55 43 41 49 53 50 55 50 47 52 55 55 58 115 113 121 105 104 109 91 90 96 73 72 78 73 75 79 82 83 88 84 85 89 85 86 91 86 86 92 87 86 92 89 88 94 90 89 95 92 91 97 93 92 98 95 94 100 96 95 101 96 95 101 96 95 101 95 94 100 94 93 99 100 99 105 112 112 118 65 68 71 0 0 0 1 1 1 0 0 0 0 0 0 0 0 0 0 0 0 0 0 0 0 0 0 0 0 0 0 0 0 0 0 0 0 0 0 0 0 0 0 0 0 0 0 0 0 0 0 0 0 0 0 0 0 
0 0 0 0 0 0 0 0 0 0 0 0 0 0 0 0 0 0 0 0 0 0 0 0 0 0 0 0 0 0 0 0 0 0 0 0 0 0 0 0 0 0 0 0 0 1 1 0 2 2 2 2 2 2 0 0 0 1 1 2 41 43 53 103 107 134 127 135 164 124 134 160 122 128 158 113 120 144 104 111 131 98 106 123 94 103 117 92 100 108 89 92 97 93 94 100 111 110 117 140 140 147 178 178 187 217 217 225 255 255 255 139 139 139 33 32 24 52 52 49 50 48 41 55 52 36 61 57 38 59 55 45 55 54 54 59 57 52 60 59 54 53 52 50 55 54 50 111 109 115 99 99 105 76 78 84 78 79 84 95 96 102 83 84 90 80 80 87 82 83 88 85 85 90 88 87 93 92 91 97 97 96 102 104 103 109 109 108 114 115 114 119 121 120 126 125 125 130 131 128 135 133 131 137 135 134 140 135 134 141 130 129 135 101 103 109 17 17 17 0 0 0 1 1 1 0 0 0 0 0 0 0 0 0 0 0 0 0 0 0 0 0 0 0 0 0 0 0 0 0 0 0 0 0 0 0 0 0 0 0 0 0 0 0 0 0 0 0 0 0 
0 0 0 0 0 0 0 0 0 0 0 0 0 0 0 0 0 0 0 0 0 0 0 0 0 0 0 0 0 0 0 0 0 0 0 0 0 0 0 0 0 0 2 2 2 3 3 3 0 0 0 1 1 2 38 41 51 98 101 122 125 131 159 121 129 160 116 120 149 112 118 144 108 114 138 103 110 129 99 106 124 98 105 121 94 102 113 87 93 102 84 88 95 82 86 92 81 83 88 88 88 92 104 103 109 143 142 147 209 210 212 94 93 91 40 39 34 53 52 47 49 49 45 49 48 46 48 48 46 50 50 46 52 51 45 52 52 47 53 52 47 49 48 43 63 61 57 141 138 154 100 102 110 96 100 107 109 111 123 96 96 104 95 95 103 97 96 106 99 100 106 95 95 100 94 93 100 97 96 102 103 103 109 106 105 111 106 106 111 105 105 111 97 97 103 98 99 104 98 96 106 101 100 109 102 102 109 103 103 110 109 108 117 105 103 111 66 66 69 0 0 0 2 2 2 0 0 0 0 0 0 0 0 0 0 0 0 0 0 0 0 0 0 0 0 0 0 0 0 0 0 0 0 0 0 0 0 0 0 0 0 0 0 0 0 0 0 0 0 0 
0 0 0 0 0 0 0 0 0 0 0 0 0 0 0 0 0 0 0 0 0 0 0 0 0 0 0 0 0 0 0 0 0 0 0 0 1 1 2 1 1 1 0 0 0 0 0 1 32 33 41 85 90 105 115 122 143 116 125 150 111 119 144 111 117 141 109 115 137 105 112 131 103 110 128 102 109 129 101 108 127 101 108 127 101 109 129 101 108 125 99 105 118 96 102 111 91 95 102 88 89 94 87 86 92 81 80 87 92 92 101 57 57 54 43 43 35 46 45 40 46 44 38 51 49 43 51 50 42 50 49 42 50 48 42 49 48 42 49 48 42 43 42 36 66 67 63 119 120 133 107 109 117 113 113 125 135 135 148 124 124 132 127 127 135 122 122 131 109 110 115 105 105 109 106 105 110 107 106 112 113 116 123 120 123 130 122 125 133 135 138 146 125 127 135 111 111 121 97 101 112 85 87 98 75 77 81 81 83 86 112 111 119 85 84 92 73 72 78 32 32 34 0 0 0 1 1 1 0 0 0 0 0 0 0 0 0 0 0 0 0 0 0 0 0 0 0 0 0 0 0 0 0 0 0 0 0 0 0 0 0 0 0 0 0 0 0 0 0 0 
0 0 0 0 0 0 0 0 0 0 0 0 0 0 0 0 0 0 0 0 0 0 0 0 0 0 0 0 0 0 2 2 3 3 3 3 2 1 1 0 0 1 32 32 39 84 87 101 110 118 135 114 121 143 111 117 141 111 118 142 109 115 137 106 113 132 105 113 131 103 110 129 102 109 123 99 107 119 96 103 116 94 101 114 92 99 112 93 99 111 95 102 115 101 107 119 106 110 119 111 112 120 117 118 125 111 112 119 104 104 111 101 102 105 82 83 86 79 76 76 66 67 68 44 43 42 44 43 44 46 44 45 49 50 46 52 54 46 60 59 53 58 57 53 90 90 91 134 132 146 113 112 122 120 119 128 125 125 134 123 123 133 113 113 120 107 110 115 103 106 111 103 104 111 102 102 111 100 101 109 99 100 109 94 95 104 91 91 99 79 80 86 78 79 85 106 107 112 100 101 109 95 95 105 112 113 122 127 127 138 155 155 166 166 165 175 58 57 68 64 64 67 0 0 0 1 1 1 1 1 0 0 0 0 0 0 0 0 0 0 0 0 0 0 0 0 0 0 0 0 0 0 0 0 0 0 0 0 0 0 0 0 0 0 0 0 0 0 0 0 
0 0 0 0 0 0 0 0 0 0 0 0 0 0 0 0 0 0 0 0 0 0 0 0 0 1 0 1 2 1 0 0 0 0 0 0 25 26 30 76 81 92 107 114 132 109 115 134 107 114 133 109 116 137 106 113 129 101 108 124 97 105 118 97 105 114 97 103 111 93 100 107 92 100 107 92 101 110 94 100 113 95 100 114 99 104 119 102 108 124 107 113 127 105 111 123 112 115 125 118 118 126 126 126 133 138 138 145 136 136 144 137 138 143 116 115 120 109 108 115 116 111 109 108 100 83 114 108 80 121 111 80 119 112 101 102 100 105 103 102 108 116 115 125 109 109 115 113 113 121 108 108 121 105 106 117 103 104 116 102 104 117 100 103 113 98 102 110 95 99 107 95 97 107 99 99 109 107 107 117 115 115 125 118 118 129 114 116 125 114 118 126 118 121 130 135 138 151 142 144 160 150 153 167 160 164 177 165 168 183 172 174 190 199 201 216 111 109 120 58 56 64 30 30 32 0 0 0 1 1 1 0 0 0 0 0 0 0 0 0 0 0 0 0 0 0 0 0 0 0 0 0 0 0 0 0 0 0 0 0 0 0 0 0 0 0 0 0 0 0 
0 0 0 0 0 0 0 0 0 0 0 0 0 0 0 1 1 1 2 2 2 3 3 2 2 0 0 0 0 0 24 25 27 69 74 81 98 106 117 103 110 118 98 106 117 99 107 122 97 104 119 94 101 111 94 101 111 98 104 114 102 107 118 105 110 125 112 116 137 114 120 142 116 123 146 118 124 151 119 125 154 119 126 156 123 129 159 134 140 166 134 141 161 129 136 150 121 127 140 117 121 136 118 123 139 114 118 134 107 108 118 105 105 114 100 100 108 100 98 105 121 117 98 131 129 105 128 126 113 126 125 119 121 122 125 114 118 127 113 117 127 115 119 129 115 119 131 117 120 135 116 120 131 117 121 133 120 124 135 124 125 137 123 124 133 123 124 133 125 125 136 130 131 141 135 137 145 135 137 144 137 137 143 139 139 144 127 128 135 112 113 122 110 111 120 132 133 142 151 154 162 111 114 125 128 129 141 135 137 149 149 153 166 171 174 186 170 175 186 64 65 73 48 46 52 2 2 2 2 2 1 0 0 0 0 0 0 0 0 0 0 0 0 0 0 0 0 0 0 0 0 0 0 0 0 0 0 0 0 0 0 0 0 0 0 0 0 0 0 0 
0 0 0 0 0 0 0 0 0 0 0 0 0 0 0 3 3 3 4 4 4 0 0 0 17 18 21 58 62 68 90 94 100 90 95 102 90 96 106 95 101 114 100 105 121 103 108 124 107 112 130 113 119 143 119 124 148 123 130 158 125 133 162 125 132 162 126 131 162 127 133 164 127 132 163 128 134 161 126 132 158 125 132 158 123 130 154 120 126 146 113 119 141 113 118 136 113 118 135 111 116 132 109 113 127 110 114 128 112 116 126 114 118 128 118 123 135 122 127 140 120 126 142 121 130 145 126 135 150 126 134 151 129 135 152 133 139 154 135 141 155 138 144 158 141 145 159 144 149 163 143 147 161 144 148 162 144 148 163 143 147 163 135 140 152 133 134 147 136 136 151 143 144 159 146 147 164 133 135 148 125 127 135 124 126 134 114 118 125 93 98 103 94 100 106 97 104 112 128 131 140 104 110 120 109 112 124 120 120 130 134 134 144 155 153 171 196 192 207 172 164 175 57 54 63 13 14 17 0 0 0 1 1 1 0 0 0 0 0 0 0 0 0 0 0 0 0 0 0 0 0 0 0 0 0 0 0 0 0 0 0 0 0 0 0 0 0 0 0 0 
0 0 0 0 0 0 0 0 0 0 0 0 1 1 1 0 0 0 20 20 20 74 69 76 87 88 98 106 107 119 112 114 130 115 121 144 118 125 149 130 134 163 130 137 167 126 135 166 129 137 168 127 134 164 122 128 158 117 124 151 112 119 142 113 121 142 118 125 144 113 118 135 110 115 133 105 110 127 104 109 124 106 111 126 107 112 126 110 115 127 112 117 129 117 120 132 120 122 134 118 121 134 120 123 138 124 127 142 125 131 145 127 133 147 130 135 149 137 142 155 140 146 158 143 152 162 149 155 167 150 156 169 151 158 171 150 156 170 148 155 171 148 155 171 146 152 167 144 149 164 146 151 167 143 149 165 134 140 157 126 130 147 119 126 139 113 120 129 108 114 122 108 113 123 107 113 122 109 116 123 115 121 129 114 118 126 112 111 120 109 105 114 117 109 121 132 116 132 162 143 160 152 131 148 147 127 145 161 137 156 171 143 162 184 159 177 183 156 174 204 182 197 102 100 109 31 30 39 0 0 1 1 1 1 1 1 1 0 0 0 0 0 0 0 0 0 0 0 0 0 0 0 0 0 0 0 0 0 0 0 0 0 0 0 0 0 0 0 0 0 
0 0 0 0 0 0 0 0 0 0 0 0 2 2 2 0 0 0 68 67 69 121 121 130 53 55 63 96 102 114 126 134 154 122 130 151 112 119 141 78 78 96 91 93 111 113 117 142 104 109 129 101 107 123 104 111 125 107 112 124 107 110 122 106 109 122 103 106 120 105 108 122 110 112 126 110 112 126 113 116 131 113 116 131 114 117 132 113 119 132 118 124 137 126 129 144 131 134 150 134 137 152 136 139 154 137 140 155 138 143 157 141 147 161 145 150 165 146 152 166 146 151 166 143 149 163 144 149 163 144 149 163 140 145 159 135 141 155 132 138 154 128 134 149 123 132 145 116 122 136 119 125 140 125 129 144 127 128 144 124 127 140 122 121 133 121 117 128 128 118 131 140 126 141 153 134 152 161 138 157 163 142 158 162 142 158 154 135 150 150 130 145 145 124 140 133 113 128 140 127 140 153 141 152 135 118 133 152 125 146 186 151 174 190 158 180 152 132 146 127 116 123 107 91 104 96 93 102 30 30 34 0 0 0 2 2 2 0 0 0 0 0 0 0 0 0 0 0 0 0 0 0 0 0 0 0 0 0 0 0 0 0 0 0 0 0 0 0 0 0 
0 0 0 0 0 0 0 0 0 0 0 0 3 3 3 0 0 0 104 104 106 82 83 88 73 74 86 95 99 114 91 96 112 84 88 107 71 72 87 20 17 18 61 60 69 103 106 122 102 104 116 109 112 125 114 117 133 110 114 127 111 115 127 110 113 127 111 114 129 116 120 135 119 123 138 120 124 139 121 124 139 121 124 139 128 132 147 131 137 152 135 140 156 138 141 156 138 140 155 137 139 154 131 134 149 130 133 148 127 134 148 127 135 148 127 134 148 128 133 148 128 134 148 125 133 146 127 134 148 132 138 152 136 137 153 137 137 153 140 138 154 145 136 153 150 136 154 155 138 156 161 137 157 167 137 158 175 141 162 173 138 156 169 137 152 161 132 148 159 130 147 160 132 149 148 122 138 142 118 133 131 109 123 100 86 98 77 68 75 58 52 56 44 43 46 24 25 27 11 11 13 16 14 16 38 32 37 64 54 62 75 62 71 90 71 83 118 96 110 134 111 128 168 132 154 71 60 71 39 42 45 8 8 8 0 0 0 0 0 0 0 0 0 0 0 0 0 0 0 0 0 0 0 0 0 0 0 0 0 0 0 0 0 0 0 0 0 0 0 0 
0 0 0 0 0 0 0 0 0 0 0 0 0 0 1 3 3 3 124 124 125 69 71 82 76 80 89 86 91 102 100 105 122 99 104 124 79 83 101 27 25 31 65 68 79 105 112 127 104 109 123 117 120 135 121 123 140 120 123 139 121 125 141 124 126 142 125 127 142 127 129 144 126 129 144 121 124 139 122 125 140 121 125 138 121 127 140 122 128 142 124 127 142 121 126 141 120 126 141 120 125 140 120 125 137 122 126 139 128 129 144 135 135 151 140 136 152 149 139 156 156 143 161 162 143 163 165 142 160 172 145 165 180 148 170 182 146 168 185 145 165 188 148 171 180 143 165 181 141 164 168 134 158 160 132 153 148 127 150 142 130 154 97 86 100 52 46 48 40 35 38 30 26 28 9 7 8 1 1 1 0 0 0 0 0 0 0 0 0 0 0 0 0 0 0 0 0 0 0 0 0 0 0 0 0 0 0 0 0 0 0 0 0 0 0 0 0 0 0 0 0 0 1 2 2 27 27 30 37 36 41 19 18 24 0 0 0 1 1 1 0 0 0 0 0 0 0 0 0 0 0 0 0 0 0 0 0 0 0 0 0 0 0 0 0 0 0 0 0 0 
0 0 0 0 0 0 0 0 0 1 1 1 0 0 0 34 35 34 128 127 133 53 55 64 85 89 99 92 96 113 91 96 116 93 99 118 72 76 91 24 21 27 73 75 88 111 116 135 117 122 138 120 123 137 113 116 130 117 120 134 116 120 134 115 120 134 112 120 134 112 120 134 110 116 131 112 117 131 117 122 136 124 127 142 128 128 144 132 128 145 138 131 149 142 133 150 147 132 150 155 134 154 163 137 157 174 141 164 182 149 170 185 150 172 184 146 168 180 142 162 179 144 164 180 141 164 182 141 165 173 136 163 169 135 161 170 138 168 164 141 177 114 98 122 112 92 112 120 114 141 124 131 163 112 122 156 96 106 136 121 128 160 51 45 59 0 0 0 2 2 2 0 0 0 0 0 0 0 0 0 2 1 1 3 2 2 2 2 2 2 2 2 2 2 2 1 1 1 1 1 1 1 1 1 1 1 1 3 2 2 3 2 3 3 2 3 4 3 4 2 1 1 17 16 19 36 35 41 34 33 38 6 6 9 1 1 1 0 0 0 0 0 0 0 0 0 0 0 0 0 0 0 0 0 0 0 0 0 0 0 0 0 0 0 0 0 0 0 0 0 
0 0 0 0 0 0 0 0 0 3 3 3 0 0 0 77 76 76 117 114 121 62 65 76 83 87 102 92 95 114 88 92 111 92 99 119 71 76 90 24 20 27 75 79 91 113 122 134 110 119 131 112 118 132 112 119 132 115 121 135 119 122 135 123 123 136 128 122 138 137 127 143 142 127 144 145 126 144 152 129 147 162 134 152 171 137 156 172 138 157 174 139 160 175 139 162 182 146 170 180 145 168 166 134 154 152 123 143 132 109 127 137 114 132 143 117 135 162 129 151 171 128 153 152 103 131 169 147 170 152 141 163 142 125 150 141 126 162 138 135 185 66 66 85 84 71 89 116 113 140 125 128 162 124 116 152 115 98 128 100 85 111 90 71 84 7 7 7 2 2 2 2 2 2 1 0 1 0 0 0 0 0 0 0 0 0 0 0 0 0 0 0 0 0 0 0 0 0 0 0 0 0 0 0 0 0 0 0 0 0 0 0 0 0 0 0 1 1 1 0 0 0 17 17 21 39 38 46 25 24 29 0 0 0 1 1 1 0 0 0 0 0 0 0 0 0 0 0 0 0 0 0 0 0 0 0 0 0 0 0 0 0 0 0 0 0 0 0 0 0 
0 0 0 0 0 0 0 0 0 3 3 3 0 0 0 112 112 113 100 98 108 74 76 88 91 92 106 101 101 120 98 97 117 118 110 127 70 67 81 22 21 27 92 91 106 134 126 142 137 123 141 146 124 144 148 123 144 151 121 143 151 121 141 151 120 139 153 120 139 154 123 138 157 128 147 170 137 161 175 141 167 163 132 155 156 128 147 150 120 141 148 118 141 140 111 133 105 83 98 51 42 47 15 14 17 2 4 4 0 0 0 0 0 0 3 4 3 47 45 51 101 88 107 112 103 125 107 108 120 152 134 151 149 129 149 165 148 180 153 143 190 107 89 112 157 113 140 134 111 143 89 79 105 60 48 61 32 28 36 0 0 2 38 38 37 12 11 12 0 0 0 0 0 0 0 0 0 0 0 0 0 0 0 0 0 0 0 0 0 0 0 0 0 0 0 0 0 0 0 0 0 0 0 0 0 0 0 0 0 0 0 0 0 0 0 0 0 0 0 0 0 0 0 0 0 8 8 11 6 6 8 0 0 0 0 0 0 0 0 0 0 0 0 0 0 0 0 0 0 0 0 0 0 0 0 0 0 0 0 0 0 0 0 0 0 0 0 0 0 0 
0 0 0 0 0 0 0 0 0 0 0 0 2 3 2 144 136 148 63 58 73 43 49 58 78 76 92 101 99 119 95 95 113 134 103 128 76 58 70 20 25 28 114 98 115 156 120 139 150 120 136 146 119 137 148 121 139 158 131 151 166 135 160 182 149 180 194 156 198 208 162 211 192 149 193 171 131 169 154 115 146 140 102 126 125 91 109 96 71 87 52 39 47 10 7 10 0 0 0 0 0 0 0 0 0 1 2 0 3 2 3 4 1 3 1 1 2 1 0 1 0 0 0 8 10 10 23 25 25 13 13 15 16 15 18 66 57 67 50 46 57 56 40 46 119 83 99 55 41 51 0 0 0 1 1 1 0 0 0 4 3 4 4 3 4 0 0 0 0 0 0 0 0 0 0 0 0 0 0 0 0 0 0 0 0 0 0 0 0 0 0 0 0 0 0 0 0 0 0 0 0 0 0 0 0 0 0 0 0 0 0 0 0 0 0 0 0 0 0 0 0 0 1 1 1 1 1 1 0 0 0 0 0 0 0 0 0 0 0 0 0 0 0 0 0 0 0 0 0 0 0 0 0 0 0 0 0 0 0 0 0 0 0 0 0 0 0 0 0 0 
0 0 0 0 0 0 3 3 3 0 0 0 39 39 38 121 120 133 61 47 63 104 83 98 161 129 156 187 143 188 183 142 184 192 160 189 81 72 83 16 17 23 139 125 143 191 162 195 194 159 204 209 172 223 227 184 244 242 193 255 239 185 250 217 165 223 181 135 178 152 109 144 138 99 124 123 90 110 99 73 89 62 48 58 19 15 18 0 0 0 0 0 0 0 0 0 2 2 2 2 2 2 0 1 1 0 0 1 0 0 1 0 0 1 0 0 1 2 2 2 3 2 1 1 0 0 0 0 0 0 0 0 0 0 0 0 0 0 0 0 0 0 0 0 0 0 0 0 0 0 0 0 1 2 2 2 2 1 1 0 0 1 1 1 2 0 0 0 0 0 0 0 0 0 0 0 0 0 0 0 0 0 0 0 0 0 0 0 0 0 0 0 0 0 0 0 0 0 0 0 0 0 0 0 0 0 0 0 0 0 0 0 0 0 0 0 0 0 0 0 0 0 0 0 0 0 0 0 0 0 0 0 0 0 0 0 0 0 0 0 0 0 0 0 0 0 0 0 0 0 0 0 0 0 0 0 0 0 0 0 0 0 0 0 0 0 0 0 0 0 
0 0 0 0 0 0 3 3 3 0 0 0 68 69 72 148 121 147 187 155 188 225 190 231 230 184 239 214 179 221 208 164 215 221 187 229 85 79 95 27 28 34 222 185 231 255 207 255 250 197 254 244 189 252 218 161 216 168 119 160 132 94 121 121 87 105 121 90 104 104 79 93 71 53 65 29 22 27 3 1 2 0 0 0 0 0 0 1 1 1 2 2 2 1 0 1 0 0 0 0 0 0 0 0 0 0 0 0 0 0 0 0 0 0 0 0 0 0 0 0 0 0 0 0 0 1 1 1 1 1 1 1 0 1 1 2 2 2 2 2 2 2 1 2 3 2 3 1 1 1 0 0 0 0 0 0 0 0 0 0 0 0 0 0 0 0 0 0 0 0 0 0 0 0 0 0 0 0 0 0 0 0 0 0 0 0 0 0 0 0 0 0 0 0 0 0 0 0 0 0 0 0 0 0 0 0 0 0 0 0 0 0 0 0 0 0 0 0 0 0 0 0 0 0 0 0 0 0 0 0 0 0 0 0 0 0 0 0 0 0 0 0 0 0 0 0 0 0 0 0 0 0 0 0 0 0 0 0 0 0 0 0 0 0 0 0 0 0 0 0 
0 0 0 0 0 0 3 3 3 0 0 0 83 69 78 141 108 129 122 110 131 111 97 128 236 200 242 255 227 255 249 202 251 255 203 255 74 65 79 57 54 61 236 189 242 178 137 186 159 119 154 127 93 113 102 73 88 95 75 84 126 98 114 80 59 73 31 23 30 2 2 2 0 0 0 0 0 0 2 2 1 3 2 2 1 1 1 0 0 0 0 0 0 0 0 0 0 0 0 0 0 0 0 0 0 0 0 0 0 0 0 0 0 0 0 0 0 0 0 0 0 0 0 0 0 0 0 0 0 0 0 0 0 0 0 0 0 0 0 0 0 0 0 0 0 0 0 0 0 0 0 0 0 0 0 0 0 0 0 0 0 0 0 0 0 0 0 0 0 0 0 0 0 0 0 0 0 0 0 0 0 0 0 0 0 0 0 0 0 0 0 0 0 0 0 0 0 0 0 0 0 0 0 0 0 0 0 0 0 0 0 0 0 0 0 0 0 0 0 0 0 0 0 0 0 0 0 0 0 0 0 0 0 0 0 0 0 0 0 0 0 0 0 0 0 0 0 0 0 0 0 0 0 0 0 0 0 0 0 0 0 0 0 0 0 0 0 0 0 0 
0 0 0 0 0 0 2 1 1 4 4 4 6 5 5 0 0 0 75 68 74 136 130 148 115 102 134 172 153 183 208 165 213 241 186 248 169 130 166 133 95 114 165 123 150 74 57 67 109 82 94 111 87 103 136 108 128 92 74 90 44 37 43 0 0 0 0 0 0 1 1 1 2 2 2 1 1 1 0 0 0 0 0 0 0 0 0 0 0 0 0 0 0 0 0 0 0 0 0 0 0 0 0 0 0 0 0 0 0 0 0 0 0 0 0 0 0 0 0 0 0 0 0 0 0 0 0 0 0 0 0 0 0 0 0 0 0 0 0 0 0 0 0 0 0 0 0 0 0 0 0 0 0 0 0 0 0 0 0 0 0 0 0 0 0 0 0 0 0 0 0 0 0 0 0 0 0 0 0 0 0 0 0 0 0 0 0 0 0 0 0 0 0 0 0 0 0 0 0 0 0 0 0 0 0 0 0 0 0 0 0 0 0 0 0 0 0 0 0 0 0 0 0 0 0 0 0 0 0 0 0 0 0 0 0 0 0 0 0 0 0 0 0 0 0 0 0 0 0 0 0 0 0 0 0 0 0 0 0 0 0 0 0 0 0 0 0 0 0 0 
0 0 0 0 0 0 1 2 2 2 2 2 2 3 2 6 6 5 0 0 0 81 76 81 90 77 105 92 80 106 78 67 96 155 128 166 169 127 156 93 66 78 110 87 105 118 92 113 104 79 99 51 39 48 15 12 15 0 0 0 2 1 1 5 3 3 1 1 1 0 0 0 0 0 0 0 0 0 0 0 0 0 0 0 0 0 0 0 0 0 0 0 0 0 0 0 0 0 0 0 0 0 0 0 0 0 0 0 0 0 0 0 0 0 0 0 0 0 0 0 0 0 0 0 0 0 0 0 0 0 0 0 0 0 0 0 0 0 0 0 0 0 0 0 0 0 0 0 0 0 0 0 0 0 0 0 0 0 0 0 0 0 0 0 0 0 0 0 0 0 0 0 0 0 0 0 0 0 0 0 0 0 0 0 0 0 0 0 0 0 0 0 0 0 0 0 0 0 0 0 0 0 0 0 0 0 0 0 0 0 0 0 0 0 0 0 0 0 0 0 0 0 0 0 0 0 0 0 0 0 0 0 0 0 0 0 0 0 0 0 0 0 0 0 0 0 0 0 0 0 0 0 0 0 0 0 0 0 0 0 0 0 0 0 0 0 0 0 0 0 
0 0 0 0 0 0 0 0 0 0 0 0 0 0 0 0 0 0 1 1 1 0 0 0 8 4 4 39 32 33 54 47 56 31 23 29 1 0 0 0 0 0 0 0 0 0 0 0 0 0 0 0 0 0 0 0 0 3 2 2 1 1 1 0 0 0 0 0 0 0 0 0 0 0 0 0 0 0 0 0 0 0 0 0 0 0 0 0 0 0 0 0 0 0 0 0 0 0 0 0 0 0 0 0 0 0 0 0 0 0 0 0 0 0 0 0 0 0 0 0 0 0 0 0 0 0 0 0 0 0 0 0 0 0 0 0 0 0 0 0 0 0 0 0 0 0 0 0 0 0 0 0 0 0 0 0 0 0 0 0 0 0 0 0 0 0 0 0 0 0 0 0 0 0 0 0 0 0 0 0 0 0 0 0 0 0 0 0 0 0 0 0 0 0 0 0 0 0 0 0 0 0 0 0 0 0 0 0 0 0 0 0 0 0 0 0 0 0 0 0 0 0 0 0 0 0 0 0 0 0 0 0 0 0 0 0 0 0 0 0 0 0 0 0 0 0 0 0 0 0 0 0 0 0 0 0 0 0 0 0 0 0 0 0 0 0 0 0 0 0 
0 0 0 0 0 0 0 0 0 0 0 0 0 0 0 0 0 0 0 0 0 4 4 4 1 2 1 0 0 0 0 0 0 0 0 0 2 1 2 3 2 2 4 3 3 4 3 3 3 3 3 2 2 2 1 0 1 0 0 0 0 0 0 0 0 0 0 0 0 0 0 0 0 0 0 0 0 0 0 0 0 0 0 0 0 0 0 0 0 0 0 0 0 0 0 0 0 0 0 0 0 0 0 0 0 0 0 0 0 0 0 0 0 0 0 0 0 0 0 0 0 0 0 0 0 0 0 0 0 0 0 0 0 0 0 0 0 0 0 0 0 0 0 0 0 0 0 0 0 0 0 0 0 0 0 0 0 0 0 0 0 0 0 0 0 0 0 0 0 0 0 0 0 0 0 0 0 0 0 0 0 0 0 0 0 0 0 0 0 0 0 0 0 0 0 0 0 0 0 0 0 0 0 0 0 0 0 0 0 0 0 0 0 0 0 0 0 0 0 0 0 0 0 0 0 0 0 0 0 0 0 0 0 0 0 0 0 0 0 0 0 0 0 0 0 0 0 0 0 0 0 0 0 0 0 0 0 0 0 0 0 0 0 0 0 0 0 0 0 0 
0 0 0 0 0 0 0 0 0 0 0 0 0 0 0 0 0 0 0 0 0 0 0 0 1 0 1 3 1 2 2 3 2 1 2 2 0 0 0 0 0 0 0 0 0 0 0 0 0 0 0 0 0 0 0 0 0 0 0 0 0 0 0 0 0 0 0 0 0 0 0 0 0 0 0 0 0 0 0 0 0 0 0 0 0 0 0 0 0 0 0 0 0 0 0 0 0 0 0 0 0 0 0 0 0 0 0 0 0 0 0 0 0 0 0 0 0 0 0 0 0 0 0 0 0 0 0 0 0 0 0 0 0 0 0 0 0 0 0 0 0 0 0 0 0 0 0 0 0 0 0 0 0 0 0 0 0 0 0 0 0 0 0 0 0 0 0 0 0 0 0 0 0 0 0 0 0 0 0 0 0 0 0 0 0 0 0 0 0 0 0 0 0 0 0 0 0 0 0 0 0 0 0 0 0 0 0 0 0 0 0 0 0 0 0 0 0 0 0 0 0 0 0 0 0 0 0 0 0 0 0 0 0 0 0 0 0 0 0 0 0 0 0 0 0 0 0 0 0 0 0 0 0 0 0 0 0 0 0 0 0 0 0 0 0 0 0 0 0 0 
0 0 0 0 0 0 0 0 0 0 0 0 0 0 0 0 0 0 0 0 0 0 0 0 0 0 0 0 0 0 0 0 0 0 0 0 0 0 0 0 0 0 0 0 0 0 0 0 0 0 0 0 0 0 0 0 0 0 0 0 0 0 0 0 0 0 0 0 0 0 0 0 0 0 0 0 0 0 0 0 0 0 0 0 0 0 0 0 0 0 0 0 0 0 0 0 0 0 0 0 0 0 0 0 0 0 0 0 0 0 0 0 0 0 0 0 0 0 0 0 0 0 0 0 0 0 0 0 0 0 0 0 0 0 0 0 0 0 0 0 0 0 0 0 0 0 0 0 0 0 0 0 0 0 0 0 0 0 0 0 0 0 0 0 0 0 0 0 0 0 0 0 0 0 0 0 0 0 0 0 0 0 0 0 0 0 0 0 0 0 0 0 0 0 0 0 0 0 0 0 0 0 0 0 0 0 0 0 0 0 0 0 0 0 0 0 0 0 0 0 0 0 0 0 0 0 0 0 0 0 0 0 0 0 0 0 0 0 0 0 0 0 0 0 0 0 0 0 0 0 0 0 0 0 0 0 0 0 0 0 0 0 0 0 0 0 0 0 0 0 
0 0 0 0 0 0 0 0 0 0 0 0 0 0 0 0 0 0 0 0 0 0 0 0 0 0 0 0 0 0 0 0 0 0 0 0 0 0 0 0 0 0 0 0 0 0 0 0 0 0 0 0 0 0 0 0 0 0 0 0 0 0 0 0 0 0 0 0 0 0 0 0 0 0 0 0 0 0 0 0 0 0 0 0 0 0 0 0 0 0 0 0 0 0 0 0 0 0 0 0 0 0 0 0 0 0 0 0 0 0 0 0 0 0 0 0 0 0 0 0 0 0 0 0 0 0 0 0 0 0 0 0 0 0 0 0 0 0 0 0 0 0 0 0 0 0 0 0 0 0 0 0 0 0 0 0 0 0 0 0 0 0 0 0 0 0 0 0 0 0 0 0 0 0 0 0 0 0 0 0 0 0 0 0 0 0 0 0 0 0 0 0 0 0 0 0 0 0 0 0 0 0 0 0 0 0 0 0 0 0 0 0 0 0 0 0 0 0 0 0 0 0 0 0 0 0 0 0 0 0 0 0 0 0 0 0 0 0 0 0 0 0 0 0 0 0 0 0 0 0 0 0 0 0 0 0 0 0 0 0 0 0 0 0 0 0 0 0 0 0 
0 0 0 0 0 0 0 0 0 0 0 0 0 0 0 0 0 0 0 0 0 0 0 0 0 0 0 0 0 0 0 0 0 0 0 0 0 0 0 0 0 0 0 0 0 0 0 0 0 0 0 0 0 0 0 0 0 0 0 0 0 0 0 0 0 0 0 0 0 0 0 0 0 0 0 0 0 0 0 0 0 0 0 0 0 0 0 0 0 0 0 0 0 0 0 0 0 0 0 0 0 0 0 0 0 0 0 0 0 0 0 0 0 0 0 0 0 0 0 0 0 0 0 0 0 0 0 0 0 0 0 0 0 0 0 0 0 0 0 0 0 0 0 0 0 0 0 0 0 0 0 0 0 0 0 0 0 0 0 0 0 0 0 0 0 0 0 0 0 0 0 0 0 0 0 0 0 0 0 0 0 0 0 0 0 0 0 0 0 0 0 0 0 0 0 0 0 0 0 0 0 0 0 0 0 0 0 0 0 0 0 0 0 0 0 0 0 0 0 0 0 0 0 0 0 0 0 0 0 0 0 0 0 0 0 0 0 0 0 0 0 0 0 0 0 0 0 0 0 0 0 0 0 0 0 0 0 0 0 0 0 0 0 0 0 0 0 0 0 0 
0 0 0 0 0 0 0 0 0 0 0 0 0 0 0 0 0 0 0 0 0 0 0 0 0 0 0 0 0 0 0 0 0 0 0 0 0 0 0 0 0 0 0 0 0 0 0 0 0 0 0 0 0 0 0 0 0 0 0 0 0 0 0 0 0 0 0 0 0 0 0 0 0 0 0 0 0 0 0 0 0 0 0 0 0 0 0 0 0 0 0 0 0 0 0 0 0 0 0 0 0 0 0 0 0 0 0 0 0 0 0 0 0 0 0 0 0 0 0 0 0 0 0 0 0 0 0 0 0 0 0 0 0 0 0 0 0 0 0 0 0 0 0 0 0 0 0 0 0 0 0 0 0 0 0 0 0 0 0 0 0 0 0 0 0 0 0 0 0 0 0 0 0 0 0 0 0 0 0 0 0 0 0 0 0 0 0 0 0 0 0 0 0 0 0 0 0 0 0 0 0 0 0 0 0 0 0 0 0 0 0 0 0 0 0 0 0 0 0 0 0 0 0 0 0 0 0 0 0 0 0 0 0 0 0 0 0 0 0 0 0 0 0 0 0 0 0 0 0 0 0 0 0 0 0 0 0 0 0 0 0 0 0 0 0 0 0 0 0 0 
