P3
57 46
255
0 0 0 0 0 0 0 0 0 0 0 0 0 0 0 0 0 0 0 0 0 0 0 0 0 0 0 0 0 0 0 0 0 0 0 0 0 0 0 0 0 0 0 0 0 0 0 0 0 0 0 0 0 0 0 0 0 0 0 0 0 0 0 0 0 0 0 0 0 0 0 0 0 0 0 0 0 0 0 0 0 0 0 0 0 0 0 0 0 0 0 0 0 0 0 0 0 0 0 0 0 0 0 0 0 0 0 0 0 0 0 0 0 0 0 0 0 0 0 0 0 0 0 0 0 0 0 0 0 0 0 0 0 0 0 0 0 0 0 0 0 0 0 0 0 0 0 0 0 0 0 0 0 0 0 0 0 0 0 0 0 0 0 0 0 0 0 0 0 0 0 
0 0 0 0 0 0 0 0 0 0 0 0 0 0 0 0 0 0 0 0 0 0 0 0 0 0 0 0 0 0 0 0 0 0 0 0 0 0 0 0 0 0 0 0 0 0 0 0 0 0 0 0 0 0 0 0 0 0 0 0 0 0 0 0 0 0 0 0 0 0 0 0 0 0 0 0 0 0 0 0 0 0 0 0 0 0 0 0 0 0 0 0 0 0 0 0 0 0 0 0 0 0 0 0 0 0 0 0 0 0 0 0 0 0 0 0 0 0 0 0 0 0 0 0 0 0 0 0 0 0 0 0 0 0 0 0 0 0 0 0 0 0 0 0 0 0 0 0 0 0 0 0 0 0 0 0 0 0 0 0 0 0 0 0 0 0 0 0 0 0 0 
0 0 0 0 0 0 0 0 0 0 0 0 0 0 0 0 0 0 0 0 0 0 0 0 0 0 0 0 0 0 0 0 0 0 0 0 0 0 0 0 0 0 0 0 0 0 0 0 0 0 0 0 0 0 0 0 0 0 0 0 0 0 0 0 0 0 0 0 0 0 0 0 0 0 0 0 0 0 0 0 0 0 0 0 0 0 0 0 0 0 0 0 0 0 0 0 0 0 0 0 0 0 0 0 0 0 0 0 0 0 0 0 0 0 0 0 0 0 0 0 0 0 0 0 0 0 0 0 0 0 0 0 0 0 0 0 0 0 0 0 0 0 0 0 0 0 0 0 0 0 0 0 0 0 0 0 0 0 0 0 0 0 0 0 0 0 0 0 0 0 0 
0 0 0 0 0 0 0 0 0 0 0 0 0 0 0 0 0 0 0 0 0 0 0 0 0 0 0 0 0 0 0 0 0 0 0 0 0 0 0 0 0 0 0 0 0 0 0 0 0 0 0 0 0 0 0 0 0 0 0 0 0 0 0 0 0 0 0 0 0 0 0 0 0 0 0 0 0 0 0 0 0 0 0 0 0 0 0 0 0 0 0 0 0 0 0 0 0 0 0 0 0 0 0 0 0 0 0 0 0 0 0 0 0 0 0 0 0 0 0 0 0 0 0 0 0 0 0 0 0 0 0 0 0 0 0 0 0 0 0 0 0 0 0 0 0 0 0 0 0 0 0 0 0 0 0 0 0 0 0 0 0 0 0 0 0 0 0 0 0 0 0 
0 0 0 0 0 0 0 0 0 0 0 0 0 0 0 0 0 0 0 0 0 0 0 0 0 0 0 0 0 0 0 0 0 0 0 0 0 0 0 0 0 0 0 0 0 0 0 0 0 0 0 0 0 0 0 0 0 0 0 0 0 0 0 0 0 0 0 0 0 3 3 3 3 3 3 0 0 0 0 0 0 0 0 0 0 0 0 0 0 0 0 0 0 0 0 0 0 0 0 0 0 0 0 0 0 0 0 0 0 0 0 0 0 0 0 0 0 0 0 0 0 0 0 0 0 0 0 0 0 0 0 0 0 0 0 0 0 0 0 0 0 0 0 0 0 0 0 0 0 0 0 0 0 0 0 0 0 0 0 0 0 0 0 0 0 0 0 0 0 0 0 
0 0 0 0 0 0 0 0 0 0 0 0 0 0 0 0 0 0 0 0 0 0 0 0 0 0 0 0 0 0 0 0 0 0 0 0 0 0 0 0 0 0 0 0 0 0 0 0 0 0 0 0 0 0 0 0 0 0 0 0 0 0 0 0 0 0 0 0 0 5 5 5 5 5 5 0 0 0 1 1 1 0 0 0 0 0 0 0 0 0 0 0 0 0 0 0 0 0 0 0 0 0 0 0 0 0 0 0 0 0 0 0 0 0 0 0 0 0 0 0 0 0 0 0 0 0 0 0 0 0 0 0 0 0 0 0 0 0 0 0 0 0 0 0 0 0 0 0 0 0 0 0 0 0 0 0 0 0 0 0 0 0 0 0 0 0 0 0 0 0 0 
0 0 0 0 0 0 0 0 0 0 0 0 0 0 0 0 0 0 0 0 0 0 0 0 0 0 0 0 0 0 0 0 0 0 0 0 0 0 0 0 0 0 0 0 0 0 0 0 0 0 0 0 0 0 0 0 0 0 0 0 0 0 0 0 0 0 0 0 0 1 1 1 3 3 4 0 0 0 0 0 0 0 0 0 0 0 0 0 0 0 0 0 0 0 0 0 0 0 0 0 0 0 0 0 0 0 0 0 0 0 0 0 0 0 0 0 0 0 0 0 0 0 0 0 0 0 0 0 0 0 0 0 0 0 0 0 0 0 0 0 0 0 0 0 0 0 0 0 0 0 0 0 0 0 0 0 0 0 0 0 0 0 0 0 0 0 0 0 0 0 0 
0 0 0 0 0 0 0 0 0 0 0 0 0 0 0 0 0 0 0 0 0 0 0 0 0 0 0 0 0 0 0 0 0 0 0 0 0 0 0 0 0 0 0 0 0 0 0 0 0 0 0 0 0 0 0 0 0 0 0 0 0 0 0 0 0 0 1 1 1 0 0 0 1 1 1 11 11 11 19 19 19 7 7 9 0 0 0 0 0 0 0 0 0 0 0 0 0 0 0 0 0 0 0 0 0 0 0 0 0 0 0 0 0 0 0 0 0 0 0 0 0 0 0 0 0 0 0 0 0 0 0 0 0 0 0 0 0 0 0 0 0 0 0 0 0 0 0 0 0 0 0 0 0 0 0 0 0 0 0 0 0 0 0 0 0 0 0 0 0 0 0 
0 0 0 0 0 0 0 0 0 0 0 0 0 0 0 0 0 0 0 0 0 0 0 0 0 0 0 0 0 0 0 0 0 0 0 0 0 0 0 0 0 0 0 0 0 0 0 0 0 0 0 0 0 0 0 0 0 0 0 0 0 0 0 0 0 0 0 0 0 12 12 12 31 31 31 38 38 42 16 16 23 41 38 53 20 18 26 0 0 0 1 1 1 0 0 0 0 0 0 0 0 0 0 0 0 0 0 0 0 0 0 0 0 0 0 0 0 0 0 0 0 0 0 0 0 0 0 0 0 0 0 0 0 0 0 0 0 0 0 0 0 0 0 0 0 0 0 0 0 0 0 0 0 0 0 0 0 0 0 0 0 0 0 0 0 0 0 0 0 0 0 
0 0 0 0 0 0 0 0 0 0 0 0 0 0 0 0 0 0 0 0 0 0 0 0 0 0 0 0 0 0 0 0 0 0 0 0 0 0 0 0 0 0 0 0 0 0 0 0 0 0 0 0 0 0 0 0 0 0 0 0 0 0 0 11 11 11 28 28 29 29 29 28 13 13 14 40 38 40 68 65 52 54 52 50 33 32 42 4 5 4 2 3 2 3 3 3 1 1 1 0 0 0 0 0 0 0 0 0 0 0 0 0 0 0 0 0 0 0 0 0 0 0 0 0 0 0 0 0 0 0 0 0 0 0 0 0 0 0 0 0 0 0 0 0 0 0 0 0 0 0 0 0 0 0 0 0 0 0 0 0 0 0 0 0 0 0 0 0 0 0 0 
0 0 0 0 0 0 0 0 0 0 0 0 0 0 0 0 0 0 0 0 0 0 0 0 0 0 0 0 0 0 0 0 0 0 0 0 0 0 0 0 0 0 0 0 0 0 0 0 1 1 1 0 0 0 0 0 0 6 6 7 22 22 22 31 31 32 17 17 16 4 4 2 4 4 13 105 97 73 182 172 124 156 149 115 38 34 40 32 28 30 17 17 20 20 20 20 5 4 4 0 0 0 0 1 1 0 0 0 0 0 0 0 0 0 0 0 0 0 0 0 0 0 0 0 0 0 0 0 0 0 0 0 0 0 0 0 0 0 0 0 0 0 0 0 0 0 0 0 0 0 0 0 0 0 0 0 0 0 0 0 0 0 0 0 0 0 0 0 0 0 0 
0 0 0 0 0 0 0 0 0 0 0 0 0 0 0 0 0 0 0 0 0 0 0 0 0 0 0 0 0 0 0 0 0 0 0 0 0 0 0 0 0 0 0 0 0 0 0 0 0 0 0 10 10 10 33 33 34 27 27 29 9 9 9 0 0 0 11 10 11 39 34 33 51 47 44 151 143 105 178 169 129 202 193 148 155 147 118 168 159 124 92 87 78 21 21 31 15 15 18 2 2 1 4 4 4 0 0 0 0 0 0 0 0 0 0 0 0 0 0 0 0 0 0 0 0 0 0 0 0 0 0 0 0 0 0 0 0 0 0 0 0 0 0 0 0 0 0 0 0 0 0 0 0 0 0 0 0 0 0 0 0 0 0 0 0 0 0 0 0 0 0 
0 0 0 0 0 0 0 0 0 0 0 0 0 0 0 0 0 0 0 0 0 0 0 0 0 0 0 0 0 0 0 0 0 0 0 0 1 1 1 0 0 0 0 0 0 10 10 10 32 32 34 35 35 37 15 15 15 1 1 1 0 0 0 2 2 3 29 28 29 106 99 66 139 131 91 167 159 119 192 183 142 212 202 161 229 216 170 243 231 181 192 182 142 46 43 48 51 49 48 29 26 30 2 1 2 0 0 0 0 0 0 0 0 0 0 0 0 0 0 0 0 0 0 0 0 0 0 0 0 0 0 0 0 0 0 0 0 0 0 0 0 0 0 0 0 0 0 0 0 0 0 0 0 0 0 0 0 0 0 0 0 0 0 0 0 0 0 0 0 0 0 
0 0 0 0 0 0 0 0 0 0 0 0 0 0 0 0 0 0 0 0 0 0 0 0 0 0 0 0 0 0 1 1 1 0 0 0 0 0 0 8 8 9 32 32 32 36 36 38 18 18 18 2 2 1 0 0 0 0 0 0 5 5 5 19 19 24 63 58 43 128 120 77 148 139 101 175 166 127 199 190 149 224 213 171 239 227 182 240 229 184 229 219 171 196 185 137 188 176 120 85 80 68 13 15 26 0 0 0 0 0 1 0 0 0 0 0 0 0 0 0 0 0 0 0 0 0 0 0 0 0 0 0 0 0 0 0 0 0 0 0 0 0 0 0 0 0 0 0 0 0 0 0 0 0 0 0 0 0 0 0 0 0 0 0 0 0 0 0 0 0 0 
0 0 0 0 0 0 0 0 0 0 0 0 0 0 0 0 0 0 0 0 0 0 0 0 0 0 0 0 0 0 1 1 1 10 10 10 33 33 35 39 39 41 19 19 19 2 2 2 0 0 0 0 0 0 1 1 1 0 0 0 44 40 21 89 82 44 104 94 55 128 119 80 155 147 107 182 173 130 210 202 159 237 227 183 245 238 195 249 241 198 237 225 175 219 207 157 198 186 132 151 140 95 35 35 42 0 0 0 1 1 1 0 0 0 0 0 0 0 0 0 0 0 0 0 0 0 0 0 0 0 0 0 0 0 0 0 0 0 0 0 0 0 0 0 0 0 0 0 0 0 0 0 0 0 0 0 0 0 0 0 0 0 0 0 0 0 0 0 0 0 0 
0 0 0 0 0 0 0 0 0 0 0 0 0 0 0 0 0 0 0 0 0 0 0 0 0 0 0 3 3 3 20 20 21 36 36 37 22 22 23 3 3 3 0 0 0 0 0 0 1 1 1 0 0 0 0 0 0 5 5 2 78 70 32 98 88 46 111 102 62 130 121 81 153 144 104 184 175 134 219 209 165 245 235 191 243 241 216 245 241 212 240 230 178 221 209 160 201 189 135 143 132 88 30 30 36 1 1 1 0 0 0 0 0 0 0 0 0 0 0 0 0 0 0 0 0 0 0 0 0 0 0 0 0 0 0 0 0 0 0 0 0 0 0 0 0 0 0 0 0 0 0 0 0 0 0 0 0 0 0 0 0 0 0 0 0 0 0 0 0 0 0 
0 0 0 0 0 0 0 0 0 0 0 0 0 0 0 0 0 0 0 0 0 0 0 0 0 0 0 17 16 19 58 56 65 23 23 23 0 0 0 1 1 1 0 0 0 0 0 0 0 0 0 0 0 0 0 0 0 5 5 5 76 69 34 97 88 46 111 102 61 130 121 81 160 151 110 190 180 138 233 221 172 254 248 205 248 247 232 255 252 228 242 231 180 215 203 153 201 190 132 85 79 61 38 38 55 2 2 2 0 0 0 0 0 0 0 0 0 0 0 0 0 0 0 0 0 0 0 0 0 0 0 0 0 0 0 0 0 0 0 0 0 0 0 0 0 0 0 0 0 0 0 0 0 0 0 0 0 0 0 0 0 0 0 0 0 0 0 0 0 0 0 
0 0 0 0 0 0 0 0 0 0 0 0 0 0 0 0 0 0 0 0 0 0 0 0 5 5 5 36 35 40 58 56 64 41 39 42 0 0 0 1 1 1 0 0 0 0 0 0 0 0 0 0 0 0 1 1 0 0 0 3 45 42 34 100 90 46 107 98 58 130 122 79 160 150 108 184 174 133 136 130 107 121 118 103 235 232 204 255 251 212 239 226 174 210 198 147 198 185 128 94 87 69 39 40 58 4 4 4 0 0 0 0 0 0 0 0 0 0 0 0 0 0 0 0 0 0 0 0 0 0 0 0 0 0 0 0 0 0 0 0 0 0 0 0 0 0 0 0 0 0 0 0 0 0 0 0 0 0 0 0 0 0 0 0 0 0 0 0 0 0 0 
0 0 0 0 0 0 0 0 0 0 0 0 0 0 0 0 0 0 0 0 0 0 0 0 2 2 2 41 40 45 32 31 37 16 16 14 0 0 0 1 1 1 1 1 1 0 0 0 0 0 0 0 0 0 1 1 0 0 0 1 56 50 30 100 90 43 107 99 56 137 126 81 65 63 47 36 36 32 28 27 25 0 0 8 146 142 116 255 247 185 225 213 161 208 197 145 187 176 117 153 142 91 40 38 44 0 0 1 0 0 0 0 0 0 0 0 0 0 0 0 0 0 0 0 0 0 0 0 0 0 0 0 0 0 0 0 0 0 0 0 0 0 0 0 0 0 0 0 0 0 0 0 0 0 0 0 0 0 0 0 0 0 0 0 0 0 0 0 0 0 0 
0 0 0 0 0 0 0 0 0 0 0 0 0 0 0 0 0 0 0 0 0 0 0 0 1 1 1 31 31 33 45 44 48 33 32 37 9 8 11 1 1 1 0 0 0 0 0 0 1 1 1 1 1 1 0 0 0 7 6 6 82 75 31 97 86 39 109 98 54 131 119 73 90 84 61 26 26 22 14 14 13 1 2 6 100 96 82 242 231 172 208 197 144 200 189 135 182 171 112 143 132 78 41 39 42 2 2 4 1 1 0 2 2 2 1 1 2 1 1 2 2 2 2 1 1 1 0 0 0 0 0 0 0 0 0 0 0 0 0 0 0 0 0 0 0 0 0 0 0 0 0 0 0 0 0 0 0 0 0 0 0 0 0 0 0 0 0 0 0 0 0 
0 0 0 0 0 0 0 0 0 0 0 0 0 0 0 0 0 0 0 0 0 0 0 0 0 0 0 3 3 3 21 21 19 46 44 43 47 45 48 32 30 36 18 17 22 4 4 7 0 0 0 0 0 0 1 1 0 0 0 3 58 53 27 96 85 35 103 92 47 118 107 61 155 144 92 132 124 87 18 18 25 18 18 24 182 173 132 227 213 157 200 189 135 181 172 114 175 160 99 82 72 50 59 59 80 6 7 6 0 0 0 0 0 0 0 0 0 0 0 0 0 0 0 0 0 0 1 1 1 0 0 0 0 0 0 0 0 0 0 0 0 0 0 0 0 0 0 0 0 0 0 0 0 0 0 0 0 0 0 0 0 0 0 0 0 0 0 0 0 0 0 
0 0 0 0 0 0 0 0 0 0 0 0 0 0 0 0 0 0 0 0 0 0 0 0 0 0 0 0 0 0 0 0 0 6 5 5 30 30 27 43 43 41 33 32 33 30 29 34 27 26 30 10 10 11 0 0 0 0 0 2 46 42 29 91 80 29 98 87 40 115 104 55 134 123 75 157 145 96 144 135 96 162 151 111 199 186 132 198 185 132 188 175 120 172 160 103 165 150 86 75 69 53 62 61 84 4 4 4 18 18 19 37 37 39 37 37 39 36 36 38 42 42 44 24 23 25 0 0 0 1 1 1 0 0 0 0 0 0 0 0 0 0 0 0 0 0 0 0 0 0 0 0 0 0 0 0 0 0 0 0 0 0 0 0 0 0 0 0 0 0 0 
0 0 0 0 0 0 0 0 0 0 0 0 0 0 0 0 0 0 0 0 0 0 0 0 0 0 0 0 0 0 0 0 0 0 0 0 0 0 0 14 14 12 36 35 32 30 30 29 18 18 19 28 27 30 33 32 35 23 22 28 73 64 21 90 78 21 97 84 34 106 94 44 124 111 62 141 129 78 166 153 98 180 169 112 177 165 110 175 162 105 168 154 96 162 147 89 150 135 71 117 104 55 52 52 62 107 107 115 143 142 149 120 119 126 116 115 122 121 120 127 126 125 132 107 106 113 21 21 22 0 0 0 1 1 1 0 0 0 0 0 0 0 0 0 0 0 0 0 0 0 0 0 0 0 0 0 0 0 0 0 0 0 0 0 0 0 0 0 0 0 0 
0 0 0 0 0 0 0 0 0 0 0 0 0 0 0 0 0 0 0 0 0 0 0 0 0 0 0 0 0 0 0 0 0 0 0 0 1 1 1 0 0 0 2 2 2 24 24 25 37 37 37 18 16 17 7 7 7 27 27 28 64 57 41 77 67 33 92 80 30 105 93 36 116 103 50 127 115 64 144 131 79 154 142 87 158 145 89 162 147 90 154 140 80 145 131 71 142 125 60 101 88 33 65 63 70 123 123 129 94 93 99 92 91 97 104 103 109 107 106 112 100 99 106 111 110 116 92 91 96 5 5 5 0 0 0 0 0 0 0 0 0 0 0 0 0 0 0 0 0 0 0 0 0 0 0 0 0 0 0 0 0 0 0 0 0 0 0 0 0 0 0 
0 0 0 0 0 0 0 0 0 0 0 0 0 0 0 0 0 0 0 0 0 0 0 0 0 0 0 0 0 0 0 0 0 0 0 0 0 0 0 1 1 1 1 1 1 0 0 0 6 5 5 31 30 31 33 33 32 6 6 10 42 36 19 59 52 27 58 54 40 76 69 44 102 91 46 123 110 52 130 116 56 136 123 64 144 131 73 145 131 71 140 125 64 132 118 54 123 108 36 60 54 36 103 102 116 107 106 110 103 102 108 108 107 113 104 103 108 101 100 106 102 101 107 97 96 102 110 109 116 52 51 55 0 0 0 2 2 2 0 0 0 0 0 0 0 0 0 0 0 0 0 0 0 0 0 0 0 0 0 0 0 0 0 0 0 0 0 0 0 0 0 
0 0 0 0 0 0 0 0 0 0 0 0 0 0 0 0 0 0 0 0 0 0 0 0 0 0 0 0 0 0 0 0 0 0 0 0 0 0 0 0 0 0 0 0 0 1 1 1 0 0 0 0 0 0 12 12 12 30 30 29 32 30 28 30 29 32 50 45 29 77 66 19 68 61 36 77 70 46 104 93 55 129 114 55 133 118 53 132 118 56 121 106 46 62 58 45 52 48 46 66 65 71 120 120 127 108 107 113 102 101 107 96 95 101 99 98 104 102 101 107 102 101 107 100 99 105 103 102 109 96 95 100 10 10 10 0 0 0 0 0 0 0 0 0 0 0 0 0 0 0 0 0 0 0 0 0 0 0 0 0 0 0 0 0 0 0 0 0 0 0 0 
0 0 0 0 0 0 0 0 0 0 0 0 0 0 0 0 0 0 0 0 0 0 0 0 0 0 0 0 0 0 0 0 0 0 0 0 0 0 0 1 1 1 1 1 2 0 0 0 0 0 0 0 0 0 0 0 0 3 3 4 37 37 38 44 43 46 37 36 38 75 64 19 87 74 19 87 76 22 78 67 31 77 70 43 94 84 47 120 103 38 83 72 34 27 29 41 32 31 39 88 87 94 114 113 119 93 92 98 89 88 94 95 94 100 98 97 103 100 99 105 99 98 104 100 99 105 97 96 102 105 104 110 58 57 61 0 0 0 1 1 1 0 0 0 0 0 0 0 0 0 0 0 0 0 0 0 0 0 0 0 0 0 0 0 0 0 0 0 0 0 0 
0 0 0 0 0 0 0 0 0 0 0 0 0 0 0 0 0 0 0 0 0 0 0 0 0 0 0 0 0 0 0 0 0 1 1 1 2 2 3 0 0 0 1 1 1 0 0 0 10 11 13 33 35 38 57 58 63 77 79 86 89 90 98 85 88 92 70 70 75 45 44 53 45 44 53 88 75 14 107 89 11 100 84 15 50 46 42 50 47 50 55 52 55 53 52 62 36 35 39 85 84 91 91 91 97 84 84 89 88 87 93 90 89 95 94 93 99 95 94 100 95 94 100 95 94 100 93 92 98 99 98 104 96 95 101 10 11 11 0 0 0 0 1 1 0 0 0 0 0 0 0 0 0 0 0 0 0 0 0 0 0 0 0 0 0 0 0 0 0 0 0 
0 0 0 0 0 0 0 0 0 0 0 0 0 0 0 0 0 0 0 0 0 0 0 0 0 0 0 1 1 1 1 1 1 0 1 1 0 0 0 17 18 22 75 79 94 99 105 127 104 111 130 103 110 124 94 99 107 96 95 101 115 114 122 143 143 152 183 182 193 155 154 160 37 37 42 63 55 31 82 69 10 76 65 27 51 47 54 49 47 52 54 53 57 104 103 109 87 86 92 75 75 80 81 82 87 82 83 88 85 85 90 88 87 93 93 92 98 97 96 102 101 100 106 106 105 111 108 107 113 108 107 113 118 118 124 44 46 47 0 0 0 2 2 2 0 0 0 0 0 0 0 0 0 0 0 0 0 0 0 0 0 0 0 0 0 0 0 0 0 0 0 
0 0 0 0 0 0 0 0 0 0 0 0 0 0 0 0 0 0 0 0 0 0 0 0 1 1 1 1 1 1 0 0 0 13 14 18 69 72 87 118 123 153 125 132 161 117 123 149 106 112 133 97 105 122 91 98 109 86 89 96 91 92 98 114 113 119 189 189 196 165 165 166 37 35 28 50 50 46 51 50 45 53 52 48 56 54 50 55 54 48 59 57 54 115 114 124 91 94 102 98 99 108 93 93 101 92 93 100 92 92 97 95 94 100 104 104 110 112 111 117 114 114 120 111 111 118 114 113 122 114 114 120 118 117 124 85 84 90 7 7 6 0 0 0 0 0 0 0 0 0 0 0 0 0 0 0 0 0 0 0 0 0 0 0 0 0 0 0 0 0 0 
0 0 0 0 0 0 0 0 0 0 0 0 0 0 0 0 0 0 2 2 2 1 1 1 0 0 0 11 11 13 58 61 73 107 114 135 122 130 157 112 119 143 105 112 132 102 109 126 99 106 123 98 105 122 96 103 118 95 101 113 93 97 105 90 90 95 91 91 98 80 81 83 54 54 49 51 50 47 43 42 40 43 42 40 46 45 39 45 44 36 64 64 60 120 120 132 116 116 127 130 130 141 121 121 129 112 114 120 104 104 110 104 103 110 107 109 116 109 111 119 108 110 117 101 102 110 86 88 98 82 83 89 115 115 122 97 96 105 36 35 39 0 0 0 1 1 1 0 0 0 0 0 0 0 0 0 0 0 0 0 0 0 0 0 0 0 0 0 0 0 0 
0 0 0 0 0 0 0 0 0 0 0 0 1 1 1 1 1 1 0 0 0 9 9 10 53 56 64 99 105 122 114 122 141 107 114 133 99 106 121 98 105 117 98 104 115 95 104 113 95 103 115 96 102 116 101 107 123 107 113 127 112 116 126 123 124 132 129 130 138 125 126 132 107 106 112 101 97 95 93 87 69 99 92 72 93 90 86 90 90 94 103 103 108 114 114 124 108 108 119 109 110 121 104 107 115 99 102 110 99 101 109 105 105 115 113 112 122 108 108 118 101 103 111 126 128 138 133 135 148 146 148 161 175 177 191 160 160 173 53 52 59 9 9 9 0 0 0 0 0 0 0 0 0 0 0 0 0 0 0 0 0 0 0 0 0 0 0 0 0 0 0 
0 0 0 0 0 0 0 0 0 2 2 2 1 1 1 7 6 7 41 43 46 82 88 95 103 110 120 101 108 122 99 106 121 103 110 125 109 116 133 113 120 141 118 124 149 121 128 154 123 129 157 123 129 158 128 134 160 126 132 152 118 123 138 113 118 133 113 116 130 110 111 121 107 109 119 118 118 118 130 132 124 130 132 133 126 129 140 125 130 142 128 132 145 128 131 145 128 132 144 131 134 148 129 131 143 128 129 140 137 138 150 136 139 148 133 134 141 123 126 132 101 105 113 122 127 135 123 128 138 117 121 132 135 139 150 177 180 193 124 122 133 23 22 26 0 0 0 1 1 1 0 0 0 0 0 0 0 0 0 0 0 0 0 0 0 0 0 0 0 0 0 
0 0 0 0 0 0 1 1 1 0 0 0 46 44 47 78 79 88 113 117 131 116 122 142 117 122 147 120 127 154 122 129 156 120 127 155 118 124 150 116 123 147 117 123 144 113 118 138 110 116 133 111 116 133 110 115 129 112 116 130 118 121 135 119 122 136 123 126 140 127 132 145 134 139 153 138 145 160 141 149 164 145 152 168 145 152 167 144 151 167 141 149 164 139 147 162 139 147 163 131 139 155 120 128 141 114 119 129 120 122 134 123 124 136 125 126 136 123 120 130 117 110 121 136 123 138 157 142 157 145 128 145 168 144 163 187 165 184 180 165 177 62 61 69 4 4 6 0 0 0 0 0 0 0 0 0 0 0 0 0 0 0 0 0 0 0 0 0 0 0 0 
0 0 0 0 0 0 0 0 0 9 9 9 105 104 110 77 79 90 107 112 130 103 108 129 59 58 70 91 93 110 106 110 127 106 111 125 108 112 124 107 110 122 108 110 124 114 117 130 116 118 132 118 120 135 122 127 141 129 134 148 135 138 153 134 138 153 131 137 152 131 140 153 134 142 156 135 142 156 133 141 154 137 144 157 136 140 155 135 137 152 138 135 151 137 130 146 147 132 150 152 133 150 149 131 145 147 128 143 153 131 147 156 131 149 147 126 141 121 106 118 104 91 100 82 72 81 81 74 81 95 81 92 130 105 123 141 116 131 138 116 130 118 101 115 30 32 35 0 0 0 1 1 1 0 0 0 0 0 0 0 0 0 0 0 0 0 0 0 0 0 0 
0 0 0 1 1 1 0 0 0 35 35 36 96 97 104 73 77 87 95 100 116 87 91 110 34 32 39 83 86 99 113 117 132 119 121 136 118 121 137 119 123 138 121 125 141 120 125 141 118 123 138 119 126 139 123 130 144 125 130 145 125 128 143 129 128 143 136 132 147 146 139 156 151 139 156 155 140 157 160 140 159 165 139 159 173 143 165 175 142 164 168 135 157 165 135 159 152 130 155 149 135 161 100 87 102 48 39 42 40 32 37 20 16 19 9 8 9 0 0 1 0 0 0 0 0 0 0 0 0 0 0 0 0 0 0 1 1 1 12 9 11 32 28 33 34 33 39 5 4 6 0 0 0 0 0 0 0 0 0 0 0 0 0 0 0 0 0 0 0 0 0 
0 0 0 2 2 2 0 0 0 66 65 66 92 93 102 80 84 98 95 99 119 86 94 111 37 36 45 92 99 113 118 125 140 115 119 134 117 121 135 119 120 134 120 120 133 125 119 133 134 124 139 148 132 149 156 134 152 165 140 161 175 145 168 170 139 161 160 129 150 155 126 146 165 132 152 180 138 161 177 136 162 172 147 171 163 138 170 139 127 168 85 74 93 122 121 151 120 123 160 108 104 135 63 55 68 0 0 0 1 1 1 0 0 0 0 0 0 0 0 0 1 1 1 2 2 2 2 2 2 2 1 2 2 1 1 1 1 1 0 0 0 27 27 32 25 25 29 0 0 0 0 0 1 0 0 0 0 0 0 0 0 0 0 0 0 0 0 0 0 0 0 
0 0 0 2 1 2 0 0 0 95 92 97 72 75 86 79 83 97 97 98 116 98 87 104 37 36 44 115 105 120 137 120 134 136 116 132 144 120 137 155 127 147 169 135 161 174 139 168 176 138 168 166 129 153 151 117 138 124 96 116 82 64 76 33 28 31 11 10 12 4 3 5 16 15 16 64 55 68 84 80 94 102 95 106 127 113 135 116 108 140 125 93 114 107 88 113 47 40 53 19 13 18 24 22 22 6 5 6 1 1 1 1 1 1 1 1 1 0 0 0 0 0 0 0 0 0 0 0 0 0 0 0 0 0 0 0 0 0 0 0 0 6 5 8 5 5 6 0 0 0 0 0 0 0 0 0 0 0 0 0 0 0 0 0 0 0 0 0 0 0 0 
0 0 0 0 0 0 9 10 9 101 96 109 85 71 87 138 114 142 163 133 169 137 112 133 36 36 41 165 138 164 196 157 197 206 166 214 215 170 221 205 159 207 188 141 185 161 119 153 121 89 112 76 55 68 30 21 26 2 1 2 0 0 0 0 0 0 0 0 0 0 0 0 0 0 0 0 0 0 2 3 2 0 0 0 6 5 5 6 5 5 20 14 16 8 6 7 0 0 0 0 0 1 1 1 1 0 0 0 0 0 0 0 0 0 0 0 0 0 0 0 0 0 0 0 0 0 0 0 0 0 0 0 0 0 0 0 0 0 0 0 0 0 0 0 0 0 0 0 0 0 0 0 0 0 0 0 0 0 0 0 0 0 0 0 0 0 0 0 0 0 0 
1 1 1 0 0 0 29 27 28 149 123 146 176 147 184 239 196 243 255 205 255 169 142 178 55 53 62 239 192 252 220 170 227 188 140 184 151 111 142 122 89 110 78 57 67 37 27 32 7 5 6 0 0 0 0 0 0 1 0 1 3 2 2 1 1 1 1 0 1 0 0 0 1 1 1 2 2 2 2 1 1 1 1 1 1 1 1 0 0 0 0 0 0 1 1 1 2 1 2 1 1 1 1 1 0 0 0 0 0 0 0 0 0 0 0 0 0 0 0 0 0 0 0 0 0 0 0 0 0 0 0 0 0 0 0 0 0 0 0 0 0 0 0 0 0 0 0 0 0 0 0 0 0 0 0 0 0 0 0 0 0 0 0 0 0 0 0 0 0 0 0 
0 0 0 0 0 0 11 9 9 31 25 27 99 94 108 160 143 175 214 176 223 210 163 213 139 104 125 151 115 144 109 82 98 103 80 92 73 59 68 21 17 19 0 0 0 1 1 1 0 0 0 2 1 2 2 1 2 0 0 0 0 0 0 0 0 0 0 0 0 0 0 0 0 0 0 0 0 0 0 0 0 0 0 0 0 0 0 0 0 0 1 1 1 0 0 0 0 0 0 0 0 0 0 0 0 0 0 0 0 0 0 0 0 0 0 0 0 0 0 0 0 0 0 0 0 0 0 0 0 0 0 0 0 0 0 0 0 0 0 0 0 0 0 0 0 0 0 0 0 0 0 0 0 0 0 0 0 0 0 0 0 0 0 0 0 0 0 0 0 0 0 
0 0 0 0 1 1 1 2 1 0 0 0 21 20 21 51 43 56 66 57 75 95 75 95 55 39 47 47 37 44 43 33 41 12 10 12 0 0 0 0 0 0 2 1 1 2 1 2 0 0 0 0 0 0 0 0 0 0 0 0 0 0 0 0 0 0 0 0 0 0 0 0 0 0 0 0 0 0 0 0 0 0 0 0 0 0 0 0 0 0 0 0 0 0 0 0 0 0 0 0 0 0 0 0 0 0 0 0 0 0 0 0 0 0 0 0 0 0 0 0 0 0 0 0 0 0 0 0 0 0 0 0 0 0 0 0 0 0 0 0 0 0 0 0 0 0 0 0 0 0 0 0 0 0 0 0 0 0 0 0 0 0 0 0 0 0 0 0 0 0 0 
0 0 0 0 0 0 0 0 0 1 1 1 1 1 1 0 0 0 2 2 2 1 0 0 0 0 0 0 0 0 0 0 0 0 0 0 1 1 1 1 1 1 0 0 0 0 0 0 0 0 0 0 0 0 0 0 0 0 0 0 0 0 0 0 0 0 0 0 0 0 0 0 0 0 0 0 0 0 0 0 0 0 0 0 0 0 0 0 0 0 0 0 0 0 0 0 0 0 0 0 0 0 0 0 0 0 0 0 0 0 0 0 0 0 0 0 0 0 0 0 0 0 0 0 0 0 0 0 0 0 0 0 0 0 0 0 0 0 0 0 0 0 0 0 0 0 0 0 0 0 0 0 0 0 0 0 0 0 0 0 0 0 0 0 0 0 0 0 0 0 0 
0 0 0 0 0 0 0 0 0 0 0 0 1 1 1 2 2 2 1 1 1 2 2 3 2 2 2 2 2 2 2 1 2 1 0 0 0 0 0 0 0 0 0 0 0 0 0 0 0 0 0 0 0 0 0 0 0 0 0 0 0 0 0 0 0 0 0 0 0 0 0 0 0 0 0 0 0 0 0 0 0 0 0 0 0 0 0 0 0 0 0 0 0 0 0 0 0 0 0 0 0 0 0 0 0 0 0 0 0 0 0 0 0 0 0 0 0 0 0 0 0 0 0 0 0 0 0 0 0 0 0 0 0 0 0 0 0 0 0 0 0 0 0 0 0 0 0 0 0 0 0 0 0 0 0 0 0 0 0 0 0 0 0 0 0 0 0 0 0 0 0 
0 0 0 0 0 0 0 0 0 0 0 0 0 0 0 0 0 0 0 0 0 0 0 0 0 0 0 0 0 0 0 0 0 0 0 0 0 0 0 0 0 0 0 0 0 0 0 0 0 0 0 0 0 0 0 0 0 0 0 0 0 0 0 0 0 0 0 0 0 0 0 0 0 0 0 0 0 0 0 0 0 0 0 0 0 0 0 0 0 0 0 0 0 0 0 0 0 0 0 0 0 0 0 0 0 0 0 0 0 0 0 0 0 0 0 0 0 0 0 0 0 0 0 0 0 0 0 0 0 0 0 0 0 0 0 0 0 0 0 0 0 0 0 0 0 0 0 0 0 0 0 0 0 0 0 0 0 0 0 0 0 0 0 0 0 0 0 0 0 0 0 
0 0 0 0 0 0 0 0 0 0 0 0 0 0 0 0 0 0 0 0 0 0 0 0 0 0 0 0 0 0 0 0 0 0 0 0 0 0 0 0 0 0 0 0 0 0 0 0 0 0 0 0 0 0 0 0 0 0 0 0 0 0 0 0 0 0 0 0 0 0 0 0 0 0 0 0 0 0 0 0 0 0 0 0 0 0 0 0 0 0 0 0 0 0 0 0 0 0 0 0 0 0 0 0 0 0 0 0 0 0 0 0 0 0 0 0 0 0 0 0 0 0 0 0 0 0 0 0 0 0 0 0 0 0 0 0 0 0 0 0 0 0 0 0 0 0 0 0 0 0 0 0 0 0 0 0 0 0 0 0 0 0 0 0 0 0 0 0 0 0 0 
