P3
72 58
255
0 0 0 0 0 0 0 0 0 0 0 0 0 0 0 0 0 0 0 0 0 0 0 0 0 0 0 0 0 0 0 0 0 0 0 0 0 0 0 0 0 0 0 0 0 0 0 0 0 0 0 0 0 0 0 0 0 0 0 0 0 0 0 0 0 0 0 0 0 0 0 0 0 0 0 0 0 0 0 0 0 0 0 0 0 0 0 0 0 0 0 0 0 0 0 0 0 0 0 0 0 0 0 0 0 0 0 0 0 0 0 0 0 0 0 0 0 0 0 0 0 0 0 0 0 0 0 0 0 0 0 0 0 0 0 0 0 0 0 0 0 0 0 0 0 0 0 0 0 0 0 0 0 0 0 0 0 0 0 0 0 0 0 0 0 0 0 0 0 0 0 0 0 0 0 0 0 0 0 0 0 0 0 0 0 0 0 0 0 0 0 0 0 0 0 0 0 0 0 0 0 0 0 0 0 0 0 0 0 0 0 0 0 0 0 0 
0 0 0 0 0 0 0 0 0 0 0 0 0 0 0 0 0 0 0 0 0 0 0 0 0 0 0 0 0 0 0 0 0 0 0 0 0 0 0 0 0 0 0 0 0 0 0 0 0 0 0 0 0 0 0 0 0 0 0 0 0 0 0 0 0 0 0 0 0 0 0 0 0 0 0 0 0 0 0 0 0 0 0 0 0 0 0 0 0 0 0 0 0 0 0 0 0 0 0 0 0 0 0 0 0 0 0 0 0 0 0 0 0 0 0 0 0 0 0 0 0 0 0 0 0 0 0 0 0 0 0 0 0 0 0 0 0 0 0 0 0 0 0 0 0 0 0 0 0 0 0 0 0 0 0 0 0 0 0 0 0 0 0 0 0 0 0 0 0 0 0 0 0 0 0 0 0 0 0 0 0 0 0 0 0 0 0 0 0 0 0 0 0 0 0 0 0 0 0 0 0 0 0 0 0 0 0 0 0 0 0 0 0 0 0 0 
0 0 0 0 0 0 0 0 0 0 0 0 0 0 0 0 0 0 0 0 0 0 0 0 0 0 0 0 0 0 0 0 0 0 0 0 0 0 0 0 0 0 0 0 0 0 0 0 0 0 0 0 0 0 0 0 0 0 0 0 0 0 0 0 0 0 0 0 0 0 0 0 0 0 0 0 0 0 0 0 0 0 0 0 0 0 0 0 0 0 0 0 0 0 0 0 0 0 0 0 0 0 0 0 0 0 0 0 0 0 0 0 0 0 0 0 0 0 0 0 0 0 0 0 0 0 0 0 0 0 0 0 0 0 0 0 0 0 0 0 0 0 0 0 0 0 0 0 0 0 0 0 0 0 0 0 0 0 0 0 0 0 0 0 0 0 0 0 0 0 0 0 0 0 0 0 0 0 0 0 0 0 0 0 0 0 0 0 0 0 0 0 0 0 0 0 0 0 0 0 0 0 0 0 0 0 0 0 0 0 0 0 0 0 0 0 
0 0 0 0 0 0 0 0 0 0 0 0 0 0 0 0 0 0 0 0 0 0 0 0 0 0 0 0 0 0 0 0 0 0 0 0 0 0 0 0 0 0 0 0 0 0 0 0 0 0 0 0 0 0 0 0 0 0 0 0 0 0 0 0 0 0 0 0 0 0 0 0 0 0 0 0 0 0 0 0 0 0 0 0 0 0 0 0 0 0 0 0 0 0 0 0 0 0 0 0 0 0 0 0 0 0 0 0 0 0 0 0 0 0 0 0 0 0 0 0 0 0 0 0 0 0 0 0 0 0 0 0 0 0 0 0 0 0 0 0 0 0 0 0 0 0 0 0 0 0 0 0 0 0 0 0 0 0 0 0 0 0 0 0 0 0 0 0 0 0 0 0 0 0 0 0 0 0 0 0 0 0 0 0 0 0 0 0 0 0 0 0 0 0 0 0 0 0 0 0 0 0 0 0 0 0 0 0 0 0 0 0 0 0 0 0 
0 0 0 0 0 0 0 0 0 0 0 0 0 0 0 0 0 0 0 0 0 0 0 0 0 0 0 0 0 0 0 0 0 0 0 0 0 0 0 0 0 0 0 0 0 0 0 0 0 0 0 0 0 0 0 0 0 0 0 0 0 0 0 0 0 0 0 0 0 0 0 0 0 0 0 0 0 0 0 0 0 0 0 0 0 0 0 0 0 0 0 0 0 0 0 0 0 0 0 0 0 0 0 0 0 0 0 0 0 0 0 0 0 0 0 0 0 0 0 0 0 0 0 0 0 0 0 0 0 0 0 0 0 0 0 0 0 0 0 0 0 0 0 0 0 0 0 0 0 0 0 0 0 0 0 0 0 0 0 0 0 0 0 0 0 0 0 0 0 0 0 0 0 0 0 0 0 0 0 0 0 0 0 0 0 0 0 0 0 0 0 0 0 0 0 0 0 0 0 0 0 0 0 0 0 0 0 0 0 0 0 0 0 0 0 0 
0 0 0 0 0 0 0 0 0 0 0 0 0 0 0 0 0 0 0 0 0 0 0 0 0 0 0 0 0 0 0 0 0 0 0 0 0 0 0 0 0 0 0 0 0 0 0 0 0 0 0 0 0 0 0 0 0 0 0 0 0 0 0 0 0 0 0 0 0 0 0 0 0 0 0 0 0 0 0 0 0 0 0 0 0 0 0 1 1 1 3 3 3 0 0 0 0 0 0 0 0 0 0 0 0 0 0 0 0 0 0 0 0 0 0 0 0 0 0 0 0 0 0 0 0 0 0 0 0 0 0 0 0 0 0 0 0 0 0 0 0 0 0 0 0 0 0 0 0 0 0 0 0 0 0 0 0 0 0 0 0 0 0 0 0 0 0 0 0 0 0 0 0 0 0 0 0 0 0 0 0 0 0 0 0 0 0 0 0 0 0 0 0 0 0 0 0 0 0 0 0 0 0 0 0 0 0 0 0 0 0 0 0 0 0 0 
0 0 0 0 0 0 0 0 0 0 0 0 0 0 0 0 0 0 0 0 0 0 0 0 0 0 0 0 0 0 0 0 0 0 0 0 0 0 0 0 0 0 0 0 0 0 0 0 0 0 0 0 0 0 0 0 0 0 0 0 0 0 0 0 0 0 0 0 0 0 0 0 0 0 0 0 0 0 0 0 0 0 0 0 0 0 0 3 3 3 14 14 14 0 0 0 0 0 0 0 0 0 0 0 0 0 0 0 0 0 0 0 0 0 0 0 0 0 0 0 0 0 0 0 0 0 0 0 0 0 0 0 0 0 0 0 0 0 0 0 0 0 0 0 0 0 0 0 0 0 0 0 0 0 0 0 0 0 0 0 0 0 0 0 0 0 0 0 0 0 0 0 0 0 0 0 0 0 0 0 0 0 0 0 0 0 0 0 0 0 0 0 0 0 0 0 0 0 0 0 0 0 0 0 0 0 0 0 0 0 0 0 0 0 0 0 
0 0 0 0 0 0 0 0 0 0 0 0 0 0 0 0 0 0 0 0 0 0 0 0 0 0 0 0 0 0 0 0 0 0 0 0 0 0 0 0 0 0 0 0 0 0 0 0 0 0 0 0 0 0 0 0 0 0 0 0 0 0 0 0 0 0 0 0 0 0 0 0 0 0 0 0 0 0 0 0 0 0 0 0 0 0 0 1 1 1 3 3 3 1 1 1 0 0 1 1 1 1 0 0 0 0 0 0 0 0 0 0 0 0 0 0 0 0 0 0 0 0 0 0 0 0 0 0 0 0 0 0 0 0 0 0 0 0 0 0 0 0 0 0 0 0 0 0 0 0 0 0 0 0 0 0 0 0 0 0 0 0 0 0 0 0 0 0 0 0 0 0 0 0 0 0 0 0 0 0 0 0 0 0 0 0 0 0 0 0 0 0 0 0 0 0 0 0 0 0 0 0 0 0 0 0 0 0 0 0 0 0 0 0 0 0 
0 0 0 0 0 0 0 0 0 0 0 0 0 0 0 0 0 0 0 0 0 0 0 0 0 0 0 0 0 0 0 0 0 0 0 0 0 0 0 0 0 0 0 0 0 0 0 0 0 0 0 0 0 0 0 0 0 0 0 0 0 0 0 0 0 0 0 0 0 0 0 0 0 0 0 0 0 0 0 0 0 0 0 0 0 0 0 0 0 0 3 3 3 3 3 3 0 0 0 0 0 0 0 0 0 0 0 1 0 0 0 0 0 0 0 0 0 0 0 0 0 0 0 0 0 0 0 0 0 0 0 0 0 0 0 0 0 0 0 0 0 0 0 0 0 0 0 0 0 0 0 0 0 0 0 0 0 0 0 0 0 0 0 0 0 0 0 0 0 0 0 0 0 0 0 0 0 0 0 0 0 0 0 0 0 0 0 0 0 0 0 0 0 0 0 0 0 0 0 0 0 0 0 0 0 0 0 0 0 0 0 0 0 0 0 0 
0 0 0 0 0 0 0 0 0 0 0 0 0 0 0 0 0 0 0 0 0 0 0 0 0 0 0 0 0 0 0 0 0 0 0 0 0 0 0 0 0 0 0 0 0 0 0 0 0 0 0 0 0 0 0 0 0 0 0 0 0 0 0 0 0 0 0 0 0 0 0 0 0 0 0 0 0 0 0 0 0 0 0 0 1 1 1 1 1 1 0 0 0 2 2 1 14 14 15 19 18 20 5 5 7 0 0 1 1 0 1 0 0 0 0 0 0 0 0 0 0 0 0 0 0 0 0 0 0 0 0 0 0 0 0 0 0 0 0 0 0 0 0 0 0 0 0 0 0 0 0 0 0 0 0 0 0 0 0 0 0 0 0 0 0 0 0 0 0 0 0 0 0 0 0 0 0 0 0 0 0 0 0 0 0 0 0 0 0 0 0 0 0 0 0 0 0 0 0 0 0 0 0 0 0 0 0 0 0 0 0 0 0 0 0 0 
0 0 0 0 0 0 0 0 0 0 0 0 0 0 0 0 0 0 0 0 0 0 0 0 0 0 0 0 0 0 0 0 0 0 0 0 0 0 0 0 0 0 0 0 0 0 0 0 0 0 0 0 0 0 0 0 0 0 0 0 0 0 0 0 0 0 0 0 0 0 0 0 0 0 0 0 0 0 0 0 0 0 0 0 0 0 0 1 1 1 15 15 15 35 35 36 38 37 40 25 25 28 48 45 58 30 26 39 0 0 0 0 0 1 0 0 0 0 0 0 0 0 0 0 0 0 0 0 0 0 0 0 0 0 0 0 0 0 0 0 0 0 0 0 0 0 0 0 0 0 0 0 0 0 0 0 0 0 0 0 0 0 0 0 0 0 0 0 0 0 0 0 0 0 0 0 0 0 0 0 0 0 0 0 0 0 0 0 0 0 0 0 0 0 0 0 0 0 0 0 0 0 0 0 0 0 0 0 0 0 0 0 0 0 0 0 
0 0 0 0 0 0 0 0 0 0 0 0 0 0 0 0 0 0 0 0 0 0 0 0 0 0 0 0 0 0 0 0 0 0 0 0 0 0 0 0 0 0 0 0 0 0 0 0 0 0 0 0 0 0 0 0 0 0 0 0 0 0 0 0 0 0 0 0 0 0 0 0 0 0 1 1 1 1 0 0 0 0 0 0 13 13 14 35 35 36 31 30 30 34 33 37 30 29 38 15 15 21 24 22 28 51 48 64 14 14 20 0 0 0 1 1 2 0 0 0 0 0 0 0 0 0 0 0 0 0 0 0 0 0 0 0 0 0 0 0 0 0 0 0 0 0 0 0 0 0 0 0 0 0 0 0 0 0 0 0 0 0 0 0 0 0 0 0 0 0 0 0 0 0 0 0 0 0 0 0 0 0 0 0 0 0 0 0 0 0 0 0 0 0 0 0 0 0 0 0 0 0 0 0 0 0 0 0 0 0 0 0 0 0 0 0 
0 0 0 0 0 0 0 0 0 0 0 0 0 0 0 0 0 0 0 0 0 0 0 0 0 0 0 0 0 0 0 0 0 0 0 0 0 0 0 0 0 0 0 0 0 0 0 0 0 0 0 0 0 0 0 0 0 0 0 0 0 0 0 0 0 0 0 0 0 0 0 0 0 0 0 1 1 1 14 14 14 36 36 36 34 34 34 14 15 15 1 1 1 10 10 14 88 81 64 133 126 91 122 118 91 30 28 35 38 35 36 8 8 8 7 7 7 9 9 8 7 7 7 0 0 0 0 0 0 0 0 0 0 0 0 0 0 0 0 0 0 0 0 0 0 0 0 0 0 0 0 0 0 0 0 0 0 0 0 0 0 0 0 0 0 0 0 0 0 0 0 0 0 0 0 0 0 0 0 0 0 0 0 0 0 0 0 0 0 0 0 0 0 0 0 0 0 0 0 0 0 0 0 0 0 0 0 0 0 0 0 0 0 0 0 0 
0 0 0 0 0 0 0 0 0 0 0 0 0 0 0 0 0 0 0 0 0 0 0 0 0 0 0 0 0 0 0 0 0 0 0 0 0 0 0 0 0 0 0 0 0 0 0 0 0 0 0 0 0 0 0 0 0 0 0 0 1 1 1 1 1 1 0 0 0 1 1 1 10 10 11 20 20 20 34 34 34 16 16 17 10 9 8 8 7 5 8 9 13 44 40 43 152 141 100 171 162 119 195 185 138 90 85 77 33 28 34 45 41 39 24 23 27 24 24 26 13 13 12 1 1 0 1 2 2 1 1 1 0 0 0 0 0 0 0 0 0 0 0 0 0 0 0 0 0 0 0 0 0 0 0 0 0 0 0 0 0 0 0 0 0 0 0 0 0 0 0 0 0 0 0 0 0 0 0 0 0 0 0 0 0 0 0 0 0 0 0 0 0 0 0 0 0 0 0 0 0 0 0 0 0 0 0 0 0 0 0 0 0 0 0 0 
0 0 0 0 0 0 0 0 0 0 0 0 0 0 0 0 0 0 0 0 0 0 0 0 0 0 0 0 0 0 0 0 0 0 0 0 0 0 0 0 0 0 0 0 0 0 0 0 0 0 0 0 0 0 0 0 0 0 0 1 0 0 0 0 0 0 14 14 14 39 39 41 34 34 36 10 10 10 3 2 2 0 0 0 13 12 13 42 37 35 28 23 32 88 82 64 170 160 118 177 168 129 198 189 145 188 180 139 142 133 107 184 177 135 92 86 79 23 22 30 37 36 39 3 3 4 2 2 2 3 3 3 0 0 0 0 0 0 0 0 0 0 0 0 0 0 0 0 0 0 0 0 0 0 0 0 0 0 0 0 0 0 0 0 0 0 0 0 0 0 0 0 0 0 0 0 0 0 0 0 0 0 0 0 0 0 0 0 0 0 0 0 0 0 0 0 0 0 0 0 0 0 0 0 0 0 0 0 0 0 0 0 0 0 0 0 
0 0 0 0 0 0 0 0 0 0 0 0 0 0 0 0 0 0 0 0 0 0 0 0 0 0 0 0 0 0 0 0 0 0 0 0 0 0 0 0 0 0 0 0 0 0 0 0 1 1 1 2 2 2 0 0 0 0 0 0 13 12 14 38 38 40 39 39 40 19 19 20 2 2 3 1 1 1 0 1 0 5 4 3 23 22 25 90 84 59 118 111 73 147 140 100 171 162 122 188 179 138 207 198 156 216 204 160 233 219 174 235 223 173 190 179 139 29 27 41 25 24 36 22 22 30 25 21 24 3 3 3 0 1 1 0 0 0 0 0 0 0 0 0 0 0 0 0 0 0 0 0 0 0 0 0 0 0 0 0 0 0 0 0 0 0 0 0 0 0 0 0 0 0 0 0 0 0 0 0 0 0 0 0 0 0 0 0 0 0 0 0 0 0 0 0 0 0 0 0 0 0 0 0 0 0 0 0 0 0 0 0 0 0 0 0 
0 0 0 0 0 0 0 0 0 0 0 0 0 0 0 0 0 0 0 0 0 0 0 0 0 0 0 0 0 0 0 0 0 0 0 0 0 0 0 0 0 0 0 0 0 1 1 1 0 0 0 0 0 0 14 14 14 38 38 40 41 41 43 24 24 24 3 3 3 0 0 0 0 0 0 1 1 0 1 1 1 14 13 23 50 45 40 121 115 70 138 129 90 159 150 111 177 168 128 199 191 150 220 209 169 226 214 171 235 224 179 232 221 177 230 218 170 152 146 111 134 124 92 134 126 90 33 30 38 3 4 5 0 1 0 0 0 0 0 0 0 0 0 0 0 0 0 0 0 0 0 0 0 0 0 0 0 0 0 0 0 0 0 0 0 0 0 0 0 0 0 0 0 0 0 0 0 0 0 0 0 0 0 0 0 0 0 0 0 0 0 0 0 0 0 0 0 0 0 0 0 0 0 0 0 0 0 0 0 0 0 0 0 0 0 0 
0 0 0 0 0 0 0 0 0 0 0 0 0 0 0 0 0 0 0 0 0 0 0 0 0 0 0 0 0 0 0 0 0 0 0 0 0 0 0 2 2 2 1 1 1 0 0 0 12 12 13 36 36 36 43 43 43 24 23 25 3 3 3 0 0 0 1 1 0 1 1 0 0 0 1 3 2 3 35 34 27 43 41 34 83 76 47 126 118 78 138 129 91 165 156 116 183 174 132 201 192 150 223 213 171 238 227 183 249 238 192 245 234 187 230 220 172 226 212 160 211 199 144 190 178 118 90 86 71 36 38 56 0 0 0 1 0 1 0 0 0 0 0 0 0 0 0 0 0 0 0 0 0 0 0 0 0 0 0 0 0 0 0 0 0 0 0 0 0 0 0 0 0 0 0 0 0 0 0 0 0 0 0 0 0 0 0 0 0 0 0 0 0 0 0 0 0 0 0 0 0 0 0 0 0 0 0 0 0 0 0 0 0 0 0 0 
0 0 0 0 0 0 0 0 0 0 0 0 0 0 0 0 0 0 0 0 0 0 0 0 0 0 0 0 0 0 0 0 0 0 0 0 0 0 0 1 1 1 13 13 13 38 38 39 48 48 51 25 25 26 5 5 5 0 0 0 0 0 0 0 0 0 0 0 0 1 1 0 0 0 0 23 21 12 90 81 39 100 91 48 111 100 59 124 114 76 147 138 99 170 161 121 187 178 135 215 207 164 239 228 185 243 235 189 247 242 205 249 241 197 239 228 177 222 210 161 201 189 141 188 176 122 147 135 88 35 35 41 2 2 3 0 0 0 0 0 0 0 0 0 0 0 0 0 0 0 0 0 0 0 0 0 0 0 0 0 0 0 0 0 0 0 0 0 0 0 0 0 0 0 0 0 0 0 0 0 0 0 0 0 0 0 0 0 0 0 0 0 0 0 0 0 0 0 0 0 0 0 0 0 0 0 0 0 0 0 0 0 0 0 0 0 
0 0 0 0 0 0 0 0 0 0 0 0 0 0 0 0 0 0 0 0 0 0 0 0 0 0 0 0 0 0 0 0 0 1 1 1 5 5 6 30 30 31 46 46 47 27 27 29 6 6 7 0 0 0 0 0 0 1 1 1 0 0 0 0 0 0 0 0 0 1 1 0 0 0 0 57 51 23 92 83 40 96 87 48 112 103 63 127 118 78 144 135 94 164 155 114 195 186 143 221 211 167 242 231 187 248 244 205 239 237 220 245 239 203 239 228 177 230 218 168 203 191 142 195 183 127 126 116 75 31 33 41 5 5 6 0 0 0 0 0 0 0 0 0 0 0 0 0 0 0 0 0 0 0 0 0 0 0 0 0 0 0 0 0 0 0 0 0 0 0 0 0 0 0 0 0 0 0 0 0 0 0 0 0 0 0 0 0 0 0 0 0 0 0 0 0 0 0 0 0 0 0 0 0 0 0 0 0 0 0 0 0 0 0 0 0 
0 0 0 0 0 0 0 0 0 0 0 0 0 0 0 0 0 0 0 0 0 0 0 0 0 0 0 0 0 0 0 0 0 3 3 3 29 29 33 41 40 46 10 10 8 0 0 0 0 0 0 0 0 0 0 0 0 0 0 0 0 0 0 0 0 0 0 0 0 0 0 0 0 0 1 64 59 28 93 85 42 97 88 49 114 105 64 127 118 76 147 138 97 169 160 120 192 182 140 228 216 169 252 242 196 246 243 217 252 250 241 255 251 221 242 231 180 225 213 163 206 195 142 192 181 122 71 65 50 48 47 66 6 6 7 0 0 0 0 0 0 0 0 0 0 0 0 0 0 0 0 0 0 0 0 0 0 0 0 0 0 0 0 0 0 0 0 0 0 0 0 0 0 0 0 0 0 0 0 0 0 0 0 0 0 0 0 0 0 0 0 0 0 0 0 0 0 0 0 0 0 0 0 0 0 0 0 0 0 0 0 0 0 0 0 0 
0 0 0 0 0 0 0 0 0 0 0 0 0 0 0 0 0 0 0 0 0 0 0 0 0 0 0 1 1 1 0 0 0 20 20 22 32 31 37 91 89 99 44 43 45 0 0 0 1 1 1 0 0 0 0 0 0 0 0 0 0 0 0 0 0 0 0 0 0 1 1 0 0 0 0 31 30 26 92 82 40 100 90 50 110 101 60 126 117 76 152 143 102 182 172 126 203 192 148 205 196 155 211 205 169 239 234 203 254 252 235 253 246 210 244 232 179 215 204 152 202 190 137 174 164 113 44 40 40 54 53 71 8 9 12 0 0 0 0 0 0 0 0 0 0 0 0 0 0 0 0 0 0 0 0 0 0 0 0 0 0 0 0 0 0 0 0 0 0 0 0 0 0 0 0 0 0 0 0 0 0 0 0 0 0 0 0 0 0 0 0 0 0 0 0 0 0 0 0 0 0 0 0 0 0 0 0 0 0 0 0 0 0 0 0 0 
0 0 0 0 0 0 0 0 0 0 0 0 0 0 0 0 0 0 0 0 0 0 0 0 0 0 0 1 1 1 0 0 0 31 30 33 46 45 51 34 32 39 33 32 32 0 0 0 0 0 0 0 0 0 0 0 0 0 0 0 0 0 0 0 0 0 0 0 0 1 0 1 0 0 0 18 18 27 79 72 40 101 91 49 108 99 58 126 117 73 143 134 93 140 130 98 146 139 109 74 71 64 41 40 40 134 133 118 255 255 217 252 239 191 237 224 173 217 205 152 201 189 138 191 175 116 96 89 69 44 46 64 10 10 12 0 0 0 0 0 0 0 0 0 0 0 0 0 0 0 0 0 0 0 0 0 0 0 0 0 0 0 0 0 0 0 0 0 0 0 0 0 0 0 0 0 0 0 0 0 0 0 0 0 0 0 0 0 0 0 0 0 0 0 0 0 0 0 0 0 0 0 0 0 0 0 0 0 0 0 0 0 0 0 0 0 
0 0 0 0 0 0 0 0 0 0 0 0 0 0 0 0 0 0 0 0 0 0 0 0 0 0 0 1 1 1 0 0 0 21 21 24 46 45 51 29 28 33 20 20 17 0 0 0 1 1 1 1 1 1 0 0 0 0 0 0 0 0 0 0 0 0 0 0 0 1 1 0 0 0 0 32 29 20 95 84 37 98 90 45 111 102 58 134 122 77 102 95 67 5 10 13 27 27 24 21 20 18 14 14 15 36 36 38 225 218 168 244 232 171 226 214 162 211 200 147 193 183 128 175 165 104 150 139 87 43 40 47 5 4 6 0 0 0 0 0 0 0 0 0 0 0 0 0 0 0 0 0 0 0 0 0 0 0 0 0 0 0 0 0 0 0 0 0 0 0 0 0 0 0 0 0 0 0 0 0 0 0 0 0 0 0 0 0 0 0 0 0 0 0 0 0 0 0 0 0 0 0 0 0 0 0 0 0 0 0 0 0 0 0 0 0 
0 0 0 0 0 0 0 0 0 0 0 0 0 0 0 0 0 0 0 0 0 0 0 0 0 0 0 1 1 1 0 0 0 23 22 24 42 41 45 43 42 47 30 30 35 8 7 9 0 0 0 0 0 0 0 0 0 1 1 1 0 0 0 0 0 0 0 0 0 0 0 0 0 0 2 66 60 28 94 84 34 98 86 43 111 99 55 129 117 71 114 106 71 43 42 37 20 19 16 13 13 13 14 14 13 16 17 22 186 179 142 236 225 166 208 197 145 205 195 140 189 179 124 174 163 103 137 126 74 38 36 39 9 8 11 0 0 0 0 0 0 0 0 0 0 0 0 0 0 0 0 0 0 0 0 0 0 0 0 0 0 0 0 0 0 0 0 0 0 0 0 0 0 0 0 0 0 0 0 0 0 0 0 0 0 0 0 0 0 0 0 0 0 0 0 0 0 0 0 0 0 0 0 0 0 0 0 0 0 0 0 0 0 0 0 0 
0 0 0 0 0 0 0 0 0 0 0 0 0 0 0 0 0 0 0 0 0 0 0 0 0 0 0 0 0 0 0 0 0 3 3 3 16 16 15 38 37 36 51 49 49 44 42 46 34 32 37 18 17 22 1 1 3 0 0 0 0 0 0 1 1 1 0 0 1 1 1 0 0 0 0 44 39 22 94 85 33 96 85 41 108 97 51 118 107 61 137 126 81 161 150 101 73 70 51 9 9 17 4 5 12 69 68 59 235 224 169 220 207 153 206 195 141 190 180 122 180 168 112 172 157 93 73 65 42 69 68 90 16 16 18 0 0 0 3 3 3 2 2 2 2 2 2 2 2 2 2 2 2 2 2 2 1 1 1 0 0 0 0 0 0 0 0 0 0 0 0 0 0 0 0 0 0 0 0 0 0 0 0 0 0 0 0 0 0 0 0 0 0 0 0 0 0 0 0 0 0 0 0 0 0 0 0 0 0 0 0 0 0 0 0 0 
0 0 0 0 0 0 0 0 0 0 0 0 0 0 0 0 0 0 0 0 0 0 0 0 0 0 0 0 0 0 0 0 0 0 0 0 0 0 0 5 4 3 25 24 21 45 44 40 44 42 43 35 34 38 38 37 42 27 26 33 7 6 8 0 0 0 0 0 0 1 1 1 0 0 0 20 19 24 78 70 29 92 81 33 100 89 43 114 104 55 128 119 70 155 145 93 149 139 98 63 59 54 63 59 54 160 150 113 219 206 150 201 188 137 197 185 131 178 169 110 170 159 99 151 135 82 39 36 36 76 74 97 14 14 18 0 0 0 0 0 1 0 0 0 0 0 0 0 0 0 0 0 0 0 0 0 0 0 0 1 1 1 0 0 0 0 0 0 0 0 0 0 0 0 0 0 0 0 0 0 0 0 0 0 0 0 0 0 0 0 0 0 0 0 0 0 0 0 0 0 0 0 0 0 0 0 0 0 0 0 0 0 0 0 0 0 
0 0 0 0 0 0 0 0 0 0 0 0 0 0 0 0 0 0 0 0 0 0 0 0 0 0 0 0 0 0 0 0 0 0 0 0 0 0 0 0 0 0 0 0 0 8 8 7 36 37 32 42 42 38 24 22 21 25 24 25 40 39 45 35 34 39 14 14 15 1 1 1 0 0 0 30 28 26 83 73 28 92 80 30 100 88 40 109 97 48 129 116 68 138 127 79 157 145 94 181 168 112 199 186 131 194 181 126 189 177 124 194 181 126 181 167 112 174 160 104 164 150 92 155 141 75 68 62 49 72 71 94 16 16 20 24 24 27 74 74 77 76 76 80 77 76 80 78 77 81 74 73 77 88 88 92 47 47 50 0 0 0 1 1 2 0 0 0 0 0 0 0 0 0 0 0 0 0 0 0 0 0 0 0 0 0 0 0 0 0 0 0 0 0 0 0 0 0 0 0 0 0 0 0 0 0 0 0 0 0 0 0 0 0 0 0 
0 0 0 0 0 0 0 0 0 0 0 0 0 0 0 0 0 0 0 0 0 0 0 0 0 0 0 0 0 0 0 0 0 0 0 0 0 0 0 0 0 0 0 0 0 0 0 1 0 0 0 18 17 15 44 43 41 34 34 34 7 7 8 14 14 15 37 37 41 42 41 44 23 23 32 60 52 23 89 77 14 86 74 24 98 86 36 103 91 40 114 102 52 131 119 68 143 131 80 154 142 91 165 153 100 175 164 109 175 163 106 170 158 100 165 151 92 166 151 91 148 133 75 145 130 64 112 98 52 45 45 56 106 106 114 159 158 167 143 142 149 118 117 124 117 116 123 116 115 122 128 127 134 121 120 127 115 114 120 38 37 40 0 0 0 1 1 1 0 0 0 0 0 0 0 0 0 0 0 0 0 0 0 0 0 0 0 0 0 0 0 0 0 0 0 0 0 0 0 0 0 0 0 0 0 0 0 0 0 0 0 0 0 0 0 0 
0 0 0 0 0 0 0 0 0 0 0 0 0 0 0 0 0 0 0 0 0 0 0 0 0 0 0 0 0 0 0 0 0 0 0 0 0 0 0 0 0 0 0 0 0 0 0 1 1 1 1 0 0 0 1 1 1 27 27 28 49 49 49 26 25 25 0 0 0 8 8 8 32 33 34 59 55 47 73 65 40 86 74 27 95 83 25 101 90 34 109 98 47 119 107 57 133 121 70 150 137 83 158 145 91 160 147 92 160 147 91 164 149 93 155 141 82 149 135 75 140 125 66 137 121 56 99 87 32 48 46 54 122 121 128 101 100 106 88 87 92 90 89 95 100 99 105 111 110 117 102 101 108 100 99 105 109 108 114 106 105 110 17 17 18 0 0 0 1 1 1 0 0 0 0 0 0 0 0 0 0 0 0 0 0 0 0 0 0 0 0 0 0 0 0 0 0 0 0 0 0 0 0 0 0 0 0 0 0 0 0 0 0 0 0 0 
0 0 0 0 0 0 0 0 0 0 0 0 0 0 0 0 0 0 0 0 0 0 0 0 0 0 0 0 0 0 0 0 0 0 0 0 0 0 0 0 0 0 0 0 0 0 0 0 0 0 0 1 1 1 1 1 1 0 0 0 5 5 5 36 34 35 46 44 45 17 17 16 0 0 0 31 27 20 63 55 25 59 53 39 72 65 46 90 81 42 111 97 39 121 109 50 122 110 55 131 118 62 141 129 71 145 132 74 152 139 79 150 136 76 144 130 69 140 126 61 137 121 54 129 114 37 55 49 34 94 92 107 114 113 117 97 96 102 101 100 106 110 109 115 109 108 114 99 98 104 104 103 109 105 104 110 99 98 103 109 108 115 76 76 80 0 0 0 1 1 1 0 0 0 0 0 0 0 0 0 0 0 0 0 0 0 0 0 0 0 0 0 0 0 0 0 0 0 0 0 0 0 0 0 0 0 0 0 0 0 0 0 0 0 0 0 
0 0 0 0 0 0 0 0 0 0 0 0 0 0 0 0 0 0 0 0 0 0 0 0 0 0 0 0 0 0 0 0 0 0 0 0 0 0 0 0 0 0 0 0 0 0 0 0 0 0 0 0 0 0 0 0 0 1 1 1 0 0 0 0 0 0 10 10 10 38 38 38 35 35 35 25 23 22 51 44 23 44 41 24 50 47 28 60 53 36 64 60 45 92 83 50 118 104 50 128 112 52 130 115 54 135 120 63 139 125 66 135 122 61 136 119 57 112 99 46 96 87 41 76 67 26 48 47 55 122 121 129 107 106 113 108 107 113 110 109 115 100 99 104 98 97 103 103 102 108 100 99 105 98 97 103 99 98 104 99 98 105 107 106 112 26 26 28 0 0 0 2 2 2 0 0 0 0 0 0 0 0 0 0 0 0 0 0 0 0 0 0 0 0 0 0 0 0 0 0 0 0 0 0 0 0 0 0 0 0 0 0 0 0 0 0 
0 0 0 0 0 0 0 0 0 0 0 0 0 0 0 0 0 0 0 0 0 0 0 0 0 0 0 0 0 0 0 0 0 0 0 0 0 0 0 0 0 0 0 0 0 0 0 0 0 0 0 0 0 0 0 0 0 0 0 0 0 0 0 2 2 2 1 1 1 0 0 1 17 16 16 34 34 31 29 27 30 26 26 41 51 45 33 90 75 8 79 69 23 66 58 33 63 60 45 89 80 55 120 107 58 128 114 48 128 114 49 127 112 53 119 104 42 47 45 39 42 40 57 43 41 53 88 87 94 121 120 128 109 108 114 102 101 107 92 91 97 96 95 101 99 98 104 100 99 105 104 103 109 103 102 108 101 100 106 100 99 105 108 107 114 79 79 82 0 0 1 1 1 2 0 0 0 0 0 0 0 0 0 0 0 0 0 0 0 0 0 0 0 0 0 0 0 0 0 0 0 0 0 0 0 0 0 0 0 0 0 0 0 0 0 0 
0 0 0 0 0 0 0 0 0 0 0 0 0 0 0 0 0 0 0 0 0 0 0 0 0 0 0 0 0 0 0 0 0 0 0 0 0 0 0 0 0 0 0 0 0 0 0 0 0 0 0 0 0 0 1 1 1 2 2 2 1 1 2 0 0 0 0 0 0 0 0 0 0 0 0 18 18 21 50 49 49 43 40 41 38 37 43 70 60 21 85 71 20 93 80 17 95 82 22 77 66 27 65 59 38 79 73 51 103 90 43 122 105 34 82 70 29 33 34 45 31 30 32 47 47 52 95 94 100 115 114 120 95 94 100 88 86 93 92 91 97 95 94 100 99 98 104 100 99 105 98 97 103 97 96 102 100 99 105 100 99 105 94 93 99 103 102 108 35 34 38 0 0 0 1 1 1 0 0 0 0 0 0 0 0 0 0 0 0 0 0 0 0 0 0 0 0 0 0 0 0 0 0 0 0 0 0 0 0 0 0 0 0 0 0 0 
0 0 0 0 0 0 0 0 0 0 0 0 0 0 0 0 0 0 0 0 0 0 0 0 0 0 0 0 0 0 0 0 0 0 0 0 0 0 0 0 0 0 0 0 0 0 0 0 2 2 3 1 1 2 0 0 0 0 0 0 0 0 0 5 6 6 25 26 28 50 51 57 71 74 80 85 87 95 89 91 97 76 79 82 59 58 63 38 36 43 44 44 58 60 55 37 98 84 7 106 89 17 111 92 14 72 65 25 41 39 50 61 57 50 54 51 52 53 51 63 25 25 30 38 37 43 97 96 103 94 93 99 83 83 89 88 87 93 89 88 94 91 90 96 93 92 98 95 94 100 97 96 102 97 96 102 96 95 101 95 94 100 98 97 103 110 109 116 83 82 87 0 0 1 0 0 0 0 0 0 0 0 0 0 0 0 0 0 0 0 0 0 0 0 0 0 0 0 0 0 0 0 0 0 0 0 0 0 0 0 0 0 0 0 0 0 
0 0 0 0 0 0 0 0 0 0 0 0 0 0 0 0 0 0 0 0 0 0 0 0 0 0 0 0 0 0 0 0 0 0 0 0 0 0 0 0 0 0 1 1 2 2 2 2 0 0 0 0 0 0 41 42 49 56 61 73 72 78 92 91 97 110 95 101 109 92 93 100 93 92 99 101 101 109 110 110 118 122 123 130 136 136 145 125 123 133 47 47 53 46 42 48 82 69 11 89 74 8 93 77 12 63 55 42 43 41 53 43 41 51 48 47 55 89 88 97 89 88 94 75 74 80 79 79 84 81 82 87 84 85 90 85 86 91 86 85 91 89 88 94 92 91 97 94 93 99 94 93 99 95 94 100 95 94 100 96 95 101 94 93 99 96 94 101 101 102 108 22 24 24 0 0 0 1 1 1 0 0 0 0 0 0 0 0 0 0 0 0 0 0 0 0 0 0 0 0 0 0 0 0 0 0 0 0 0 0 0 0 0 0 0 0 
0 0 0 0 0 0 0 0 0 0 0 0 0 0 0 0 0 0 0 0 0 0 0 0 0 0 0 0 0 0 0 0 0 0 0 0 2 2 1 1 2 1 0 0 0 0 0 0 34 35 44 94 99 122 125 133 159 129 136 165 119 126 151 106 114 132 96 104 118 90 97 106 91 93 98 105 105 112 133 133 140 170 170 179 215 214 224 228 227 234 61 61 55 43 43 41 56 52 36 65 58 27 65 59 33 53 50 53 56 54 52 59 58 56 50 49 46 106 105 109 104 104 110 75 76 81 84 85 90 84 85 91 80 81 87 83 84 89 87 86 92 90 89 95 95 94 99 101 100 106 106 105 111 113 112 117 118 117 123 123 121 127 125 124 130 129 128 134 128 128 135 62 63 67 0 0 0 2 2 2 0 0 0 0 0 0 0 0 0 0 0 0 0 0 0 0 0 0 0 0 0 0 0 0 0 0 0 0 0 0 0 0 0 0 0 0 
0 0 0 0 0 0 0 0 0 0 0 0 0 0 0 0 0 0 0 0 0 0 0 0 0 0 0 0 0 0 1 1 1 1 2 1 0 0 0 0 0 0 28 31 37 88 92 111 123 130 158 123 130 161 113 119 145 107 113 136 101 108 127 98 105 123 96 104 118 90 97 107 85 89 97 81 84 90 85 85 90 101 100 105 158 157 163 169 169 170 43 41 36 51 50 44 48 48 46 49 49 49 51 50 48 54 52 46 54 53 48 53 52 47 52 50 45 121 118 130 100 103 112 101 104 114 106 107 116 97 97 105 100 100 109 98 99 104 95 94 99 98 97 103 107 107 113 111 111 117 115 115 121 109 110 115 103 103 110 103 102 113 103 103 110 103 103 109 109 107 116 93 92 99 24 24 25 0 0 0 1 1 1 0 0 0 0 0 0 0 0 0 0 0 0 0 0 0 0 0 0 0 0 0 0 0 0 0 0 0 0 0 0 0 0 0 
0 0 0 0 0 0 0 0 0 0 0 0 0 0 0 0 0 0 0 0 0 0 0 0 1 1 1 2 2 3 0 0 1 0 0 0 23 24 29 76 80 94 113 120 141 118 126 151 111 118 143 108 114 137 106 113 134 104 111 129 102 109 127 100 108 125 100 107 126 100 107 124 99 105 119 98 104 113 95 97 103 93 93 98 84 84 92 79 79 84 54 54 50 51 50 45 47 46 40 45 44 39 44 42 39 43 43 38 46 46 38 44 44 36 54 55 49 119 119 131 112 113 122 126 126 137 134 134 143 126 126 133 119 119 127 107 108 113 106 106 112 106 106 112 109 111 118 110 113 120 114 116 123 110 111 118 105 106 114 88 91 101 78 79 86 86 87 91 124 123 131 86 85 93 56 55 60 0 0 0 1 1 1 0 0 0 0 0 0 0 0 0 0 0 0 0 0 0 0 0 0 0 0 0 0 0 0 0 0 0 0 0 0 0 0 0 
0 0 0 0 0 0 0 0 0 0 0 0 0 0 0 0 0 0 0 0 0 1 1 1 0 0 0 0 0 0 21 22 27 73 77 91 110 116 133 115 123 144 111 118 139 106 113 133 102 109 126 100 108 120 98 105 117 94 103 111 92 101 109 91 98 108 92 97 108 93 99 111 97 103 116 104 108 120 114 115 124 125 125 131 130 130 137 129 129 135 115 116 120 101 100 104 91 89 90 74 70 60 82 76 61 85 81 72 79 78 77 87 86 88 97 96 99 121 120 128 112 110 122 111 110 120 109 110 122 102 105 113 98 102 108 96 99 106 96 96 106 100 100 110 104 104 114 101 102 112 94 96 104 94 96 104 120 122 132 122 123 136 139 141 154 154 155 169 183 184 198 155 154 167 59 57 65 27 27 28 0 0 0 1 1 1 0 0 0 0 0 0 0 0 0 0 0 0 0 0 0 0 0 0 0 0 0 0 0 0 0 0 0 0 0 0 
0 0 0 0 0 0 0 0 0 0 0 0 1 1 1 2 2 2 0 1 0 0 0 0 18 19 20 62 66 73 99 105 115 105 113 125 99 107 122 97 104 118 95 103 113 96 103 113 99 106 116 104 109 123 107 113 130 108 116 134 112 119 141 114 120 146 117 123 150 128 133 158 129 136 154 122 129 142 118 122 134 120 123 137 120 123 136 116 117 126 108 109 116 102 101 108 124 118 100 133 128 103 132 128 108 128 125 121 114 116 125 115 118 128 116 118 130 112 115 127 112 116 127 112 116 127 117 119 131 117 119 129 116 117 127 118 119 129 125 126 135 130 131 138 135 135 142 135 135 142 120 122 131 116 118 127 142 144 154 141 145 156 131 134 146 141 144 157 155 159 173 182 187 198 94 96 105 38 37 42 3 3 2 1 1 1 0 0 0 0 0 0 0 0 0 0 0 0 0 0 0 0 0 0 0 0 0 0 0 0 0 0 0 0 0 0 
0 0 0 0 0 0 0 0 0 0 0 0 3 4 3 1 1 0 15 15 17 55 58 64 88 92 98 95 100 110 98 104 116 103 109 125 106 112 129 111 117 138 117 123 147 121 128 155 123 131 159 124 130 160 127 132 163 126 132 163 126 132 158 123 130 155 122 129 154 121 127 147 116 122 141 115 120 137 112 117 133 110 114 129 110 114 127 111 114 124 114 118 129 120 124 137 121 127 139 124 133 146 127 134 152 128 135 153 133 140 154 136 142 156 140 145 159 144 148 163 144 148 163 144 148 162 143 146 162 135 139 152 132 133 146 135 137 150 141 144 158 132 135 147 123 126 134 120 124 131 99 104 109 89 95 101 109 113 121 121 122 132 105 106 119 125 123 134 141 138 150 176 171 188 199 189 203 81 76 86 8 8 10 0 0 0 0 0 1 0 0 0 0 0 0 0 0 0 0 0 0 0 0 0 0 0 0 0 0 0 0 0 0 0 0 0 
0 0 0 0 0 0 0 0 0 2 2 2 0 0 0 62 60 64 84 83 93 99 102 113 123 127 147 123 130 154 123 128 155 124 129 158 124 132 163 122 129 158 117 124 151 114 120 143 110 116 136 112 119 137 111 116 132 108 112 128 104 109 124 106 111 125 108 112 126 109 114 126 112 117 129 120 122 135 122 124 138 124 127 142 129 132 147 131 137 152 135 141 155 141 147 161 144 151 164 148 155 167 152 157 170 151 157 170 148 153 168 145 151 167 140 148 163 134 141 156 136 143 158 132 140 156 123 130 146 116 123 136 109 116 125 109 111 121 114 115 127 119 119 129 126 125 135 128 124 135 125 117 129 131 117 131 146 126 143 173 152 169 155 135 152 159 134 153 182 151 172 179 153 171 174 154 167 109 105 113 40 40 48 2 2 2 1 1 1 0 0 0 0 0 0 0 0 0 0 0 0 0 0 0 0 0 0 0 0 0 0 0 0 0 0 0 
0 0 0 0 0 0 0 0 0 1 1 1 0 0 0 114 114 119 71 72 81 91 96 109 105 112 130 100 106 125 56 56 67 63 62 73 107 109 129 100 103 117 106 110 124 108 112 123 108 111 121 104 107 120 107 110 124 114 117 131 116 119 134 118 120 135 120 122 138 123 128 143 129 134 149 136 138 154 138 141 156 137 140 155 135 139 154 134 141 155 136 143 157 137 143 157 134 141 155 131 139 152 133 141 154 132 139 153 129 136 151 129 133 149 131 131 146 130 128 143 136 129 146 148 133 152 151 134 150 151 132 145 150 130 145 158 134 152 167 140 159 171 142 161 165 138 156 141 122 136 121 106 116 105 93 103 79 71 79 78 74 80 88 79 88 114 95 110 148 120 138 156 128 146 145 124 139 155 125 144 89 83 92 20 22 23 0 0 0 1 1 1 0 0 0 0 0 0 0 0 0 0 0 0 0 0 0 0 0 0 0 0 0 0 0 0 
0 0 0 0 0 0 1 1 1 0 0 0 24 24 24 112 112 116 63 65 76 90 94 105 95 99 117 91 95 116 39 37 45 53 54 62 104 109 125 108 112 125 120 121 138 118 121 137 119 122 137 122 124 139 125 126 142 125 128 143 122 125 140 121 125 140 123 128 142 126 133 147 127 132 147 125 130 145 123 128 143 119 125 138 119 125 138 125 130 144 130 132 147 138 134 150 146 140 157 150 140 156 157 141 158 168 146 166 172 144 164 178 145 165 180 146 168 179 143 164 172 136 159 165 134 155 159 134 158 128 109 125 88 73 80 77 64 71 56 46 52 36 31 35 24 21 24 8 8 10 1 1 1 0 0 0 0 0 0 0 0 0 0 0 0 0 0 0 0 0 0 5 5 5 20 16 18 42 33 40 36 33 38 33 33 37 3 2 4 0 0 0 0 0 0 0 0 0 0 0 0 0 0 0 0 0 0 0 0 0 0 0 0 0 0 0 
0 0 0 0 0 0 2 2 2 0 0 0 59 58 59 101 101 109 67 72 82 92 97 112 92 97 117 93 99 118 38 38 47 62 63 74 113 119 136 117 122 137 115 119 133 115 120 134 116 121 136 114 121 135 114 122 136 114 120 134 115 118 134 122 124 138 128 126 141 133 128 144 139 131 148 142 131 148 153 135 155 166 141 162 177 146 169 184 153 175 187 152 174 183 145 166 177 140 161 181 139 162 177 139 164 166 132 158 171 140 171 147 125 157 112 91 111 125 113 139 126 131 164 109 116 148 119 125 157 69 64 82 0 0 0 2 2 3 0 0 0 0 0 0 0 0 0 0 0 0 0 0 0 1 1 1 2 2 2 2 2 2 2 2 2 1 1 1 1 1 1 1 1 1 0 0 0 7 8 10 37 37 43 25 24 29 0 0 1 1 1 0 0 0 0 0 0 0 0 0 0 0 0 0 0 0 0 0 0 0 0 0 0 0 0 0 
0 0 0 0 0 0 3 3 3 0 0 0 94 92 93 91 90 99 75 79 90 95 96 114 94 96 116 91 98 115 34 33 42 65 68 79 116 124 137 117 120 134 120 120 136 124 121 138 128 123 138 132 121 137 137 122 136 142 123 138 151 127 145 162 135 154 169 138 157 169 136 156 174 139 162 180 143 167 166 133 154 133 107 124 110 89 104 94 77 91 102 84 97 134 110 127 164 124 150 153 122 148 163 152 173 155 136 160 156 143 185 119 116 158 76 65 81 123 112 142 123 122 157 110 96 127 81 68 90 75 62 72 12 11 11 1 1 1 3 2 2 2 2 2 1 1 1 1 1 1 0 0 0 0 0 0 0 0 0 0 0 0 0 0 0 0 0 0 0 0 0 1 1 1 0 0 0 11 11 14 33 31 39 10 10 12 0 0 0 0 0 1 0 0 0 0 0 0 0 0 0 0 0 0 0 0 0 0 0 0 0 0 0 0 0 0 
0 0 0 0 0 0 0 0 0 0 0 0 122 117 125 71 73 85 73 77 90 91 94 112 98 97 114 115 94 114 29 29 35 89 82 96 149 125 141 144 119 135 146 118 135 149 119 136 154 122 141 164 131 155 178 141 170 180 143 175 177 140 173 166 128 157 150 117 138 135 105 126 105 82 100 63 50 61 19 16 17 0 0 0 0 0 0 0 0 1 0 0 0 9 10 12 42 41 52 59 64 73 79 74 81 92 80 92 128 115 141 100 89 115 139 99 119 123 93 118 37 32 43 15 12 14 0 0 0 12 13 12 5 5 5 0 0 0 0 0 0 0 0 0 0 0 0 0 0 0 0 0 0 0 0 0 0 0 0 0 0 0 0 0 0 0 0 0 0 0 0 0 0 0 0 0 0 0 0 0 2 2 3 1 1 1 0 0 0 0 0 0 0 0 0 0 0 0 0 0 0 0 0 0 0 0 0 0 0 0 0 0 0 0 0 0 
0 0 0 1 1 1 0 0 0 26 27 26 112 108 122 50 39 51 107 90 106 155 124 159 162 132 166 145 118 139 23 23 28 105 95 108 178 147 174 178 146 183 195 160 204 217 177 228 222 175 230 208 162 213 187 139 186 166 122 158 138 101 128 109 79 98 67 49 60 24 17 21 1 0 0 0 0 0 0 0 0 2 1 1 3 3 3 4 3 4 3 2 4 1 1 1 0 0 0 2 1 1 1 1 0 0 0 0 5 4 4 0 0 0 10 8 7 10 7 8 0 0 0 1 0 0 2 1 2 2 1 3 0 0 0 0 0 0 0 0 0 0 0 0 0 0 0 0 0 0 0 0 0 0 0 0 0 0 0 0 0 0 0 0 0 0 0 0 0 0 0 0 0 0 0 0 0 1 1 0 1 1 1 0 0 0 0 0 0 0 0 0 0 0 0 0 0 0 0 0 0 0 0 0 0 0 0 0 0 0 0 0 0 0 0 0 
0 0 0 2 2 2 0 0 0 56 55 57 155 129 155 183 153 186 232 188 237 221 180 226 220 175 226 182 158 190 17 22 26 187 158 195 255 213 255 245 192 253 227 172 231 180 130 177 150 108 141 132 96 117 107 79 93 72 53 64 33 25 30 3 3 3 0 0 0 0 0 0 1 1 1 2 2 2 1 1 1 0 0 0 0 0 0 0 0 0 0 0 0 0 0 0 2 2 2 1 1 1 2 2 2 2 2 2 1 1 1 1 1 1 0 0 0 1 1 1 1 1 2 0 0 0 0 0 0 0 0 0 0 0 0 0 0 0 0 0 0 0 0 0 0 0 0 0 0 0 0 0 0 0 0 0 0 0 0 0 0 0 0 0 0 0 0 0 0 0 0 0 0 0 0 0 0 0 0 0 0 0 0 0 0 0 0 0 0 0 0 0 0 0 0 0 0 0 0 0 0 0 0 0 0 0 0 0 0 0 0 0 0 0 0 0 
0 0 0 2 2 2 0 0 0 50 41 46 111 87 103 113 104 126 168 144 181 255 219 255 255 212 255 200 159 208 47 42 48 197 157 199 148 113 151 131 97 120 118 87 103 107 84 95 101 79 91 39 28 36 7 6 7 0 0 0 0 0 0 0 0 0 2 2 2 1 1 1 0 0 0 0 0 0 0 0 0 0 0 0 0 0 0 0 0 0 0 0 0 0 0 0 0 0 0 0 0 0 0 0 0 0 0 0 0 0 0 0 0 0 1 0 0 1 0 0 0 0 0 0 0 0 0 0 0 0 0 0 0 0 0 0 0 0 0 0 0 0 0 0 0 0 0 0 0 0 0 0 0 0 0 0 0 0 0 0 0 0 0 0 0 0 0 0 0 0 0 0 0 0 0 0 0 0 0 0 0 0 0 0 0 0 0 0 0 0 0 0 0 0 0 0 0 0 0 0 0 0 0 0 0 0 0 0 0 0 0 0 0 0 0 0 
0 0 0 0 0 0 3 3 3 4 4 4 0 0 0 79 73 77 116 106 132 117 104 135 155 125 167 220 172 224 155 111 135 143 107 128 113 87 104 110 84 100 92 74 88 52 42 51 10 9 11 0 0 0 0 1 1 2 1 2 1 1 1 0 0 0 0 0 0 0 0 0 0 0 0 0 0 0 0 0 0 0 0 0 0 0 0 0 0 0 0 0 0 0 0 0 0 0 0 0 0 0 0 0 0 0 0 0 0 0 0 0 0 0 0 0 0 0 0 0 0 0 0 0 0 0 0 0 0 0 0 0 0 0 0 0 0 0 0 0 0 0 0 0 0 0 0 0 0 0 0 0 0 0 0 0 0 0 0 0 0 0 0 0 0 0 0 0 0 0 0 0 0 0 0 0 0 0 0 0 0 0 0 0 0 0 0 0 0 0 0 0 0 0 0 0 0 0 0 0 0 0 0 0 0 0 0 0 0 0 0 0 0 0 0 0 
0 0 0 0 0 0 0 1 0 2 1 1 3 3 3 2 3 2 28 23 29 57 47 57 62 54 70 65 51 64 23 16 19 18 16 19 29 23 29 12 9 12 0 0 0 0 0 0 2 1 1 2 2 2 0 0 0 0 0 0 0 0 0 0 0 0 0 0 0 0 0 0 0 0 0 0 0 0 0 0 0 0 0 0 0 0 0 0 0 0 0 0 0 0 0 0 0 0 0 0 0 0 0 0 0 0 0 0 0 0 0 0 0 0 0 0 0 0 0 0 0 0 0 0 0 0 0 0 0 0 0 0 0 0 0 0 0 0 0 0 0 0 0 0 0 0 0 0 0 0 0 0 0 0 0 0 0 0 0 0 0 0 0 0 0 0 0 0 0 0 0 0 0 0 0 0 0 0 0 0 0 0 0 0 0 0 0 0 0 0 0 0 0 0 0 0 0 0 0 0 0 0 0 0 0 0 0 0 0 0 0 0 0 0 0 0 
0 0 0 0 0 0 0 0 0 0 0 0 0 0 0 2 2 2 0 0 1 0 0 0 1 1 1 0 0 0 0 0 0 0 0 0 0 0 0 0 0 0 2 2 2 2 1 2 0 0 0 0 0 0 0 0 0 0 0 0 0 0 0 0 0 0 0 0 0 0 0 0 0 0 0 0 0 0 0 0 0 0 0 0 0 0 0 0 0 0 0 0 0 0 0 0 0 0 0 0 0 0 0 0 0 0 0 0 0 0 0 0 0 0 0 0 0 0 0 0 0 0 0 0 0 0 0 0 0 0 0 0 0 0 0 0 0 0 0 0 0 0 0 0 0 0 0 0 0 0 0 0 0 0 0 0 0 0 0 0 0 0 0 0 0 0 0 0 0 0 0 0 0 0 0 0 0 0 0 0 0 0 0 0 0 0 0 0 0 0 0 0 0 0 0 0 0 0 0 0 0 0 0 0 0 0 0 0 0 0 0 0 0 0 0 0 
0 0 0 0 0 0 0 0 0 0 0 0 0 0 0 0 0 0 2 1 2 3 2 3 2 2 2 2 2 3 1 1 1 1 1 1 1 1 1 0 0 0 0 0 0 0 0 0 0 0 0 0 0 0 0 0 0 0 0 0 0 0 0 0 0 0 0 0 0 0 0 0 0 0 0 0 0 0 0 0 0 0 0 0 0 0 0 0 0 0 0 0 0 0 0 0 0 0 0 0 0 0 0 0 0 0 0 0 0 0 0 0 0 0 0 0 0 0 0 0 0 0 0 0 0 0 0 0 0 0 0 0 0 0 0 0 0 0 0 0 0 0 0 0 0 0 0 0 0 0 0 0 0 0 0 0 0 0 0 0 0 0 0 0 0 0 0 0 0 0 0 0 0 0 0 0 0 0 0 0 0 0 0 0 0 0 0 0 0 0 0 0 0 0 0 0 0 0 0 0 0 0 0 0 0 0 0 0 0 0 0 0 0 0 0 0 
0 0 0 0 0 0 0 0 0 0 0 0 0 0 0 0 0 0 0 0 0 0 0 0 0 0 0 0 0 0 0 0 0 0 0 0 0 0 0 0 0 0 0 0 0 0 0 0 0 0 0 0 0 0 0 0 0 0 0 0 0 0 0 0 0 0 0 0 0 0 0 0 0 0 0 0 0 0 0 0 0 0 0 0 0 0 0 0 0 0 0 0 0 0 0 0 0 0 0 0 0 0 0 0 0 0 0 0 0 0 0 0 0 0 0 0 0 0 0 0 0 0 0 0 0 0 0 0 0 0 0 0 0 0 0 0 0 0 0 0 0 0 0 0 0 0 0 0 0 0 0 0 0 0 0 0 0 0 0 0 0 0 0 0 0 0 0 0 0 0 0 0 0 0 0 0 0 0 0 0 0 0 0 0 0 0 0 0 0 0 0 0 0 0 0 0 0 0 0 0 0 0 0 0 0 0 0 0 0 0 0 0 0 0 0 0 
0 0 0 0 0 0 0 0 0 0 0 0 0 0 0 0 0 0 0 0 0 0 0 0 0 0 0 0 0 0 0 0 0 0 0 0 0 0 0 0 0 0 0 0 0 0 0 0 0 0 0 0 0 0 0 0 0 0 0 0 0 0 0 0 0 0 0 0 0 0 0 0 0 0 0 0 0 0 0 0 0 0 0 0 0 0 0 0 0 0 0 0 0 0 0 0 0 0 0 0 0 0 0 0 0 0 0 0 0 0 0 0 0 0 0 0 0 0 0 0 0 0 0 0 0 0 0 0 0 0 0 0 0 0 0 0 0 0 0 0 0 0 0 0 0 0 0 0 0 0 0 0 0 0 0 0 0 0 0 0 0 0 0 0 0 0 0 0 0 0 0 0 0 0 0 0 0 0 0 0 0 0 0 0 0 0 0 0 0 0 0 0 0 0 0 0 0 0 0 0 0 0 0 0 0 0 0 0 0 0 0 0 0 0 0 0 
0 0 0 0 0 0 0 0 0 0 0 0 0 0 0 0 0 0 0 0 0 0 0 0 0 0 0 0 0 0 0 0 0 0 0 0 0 0 0 0 0 0 0 0 0 0 0 0 0 0 0 0 0 0 0 0 0 0 0 0 0 0 0 0 0 0 0 0 0 0 0 0 0 0 0 0 0 0 0 0 0 0 0 0 0 0 0 0 0 0 0 0 0 0 0 0 0 0 0 0 0 0 0 0 0 0 0 0 0 0 0 0 0 0 0 0 0 0 0 0 0 0 0 0 0 0 0 0 0 0 0 0 0 0 0 0 0 0 0 0 0 0 0 0 0 0 0 0 0 0 0 0 0 0 0 0 0 0 0 0 0 0 0 0 0 0 0 0 0 0 0 0 0 0 0 0 0 0 0 0 0 0 0 0 0 0 0 0 0 0 0 0 0 0 0 0 0 0 0 0 0 0 0 0 0 0 0 0 0 0 0 0 0 0 0 0 
