P3
75 60
255
0 0 0 0 0 0 0 0 0 0 0 0 0 0 0 0 0 0 0 0 0 0 0 0 0 0 0 0 0 0 0 0 0 0 0 0 0 0 0 0 0 0 0 0 0 0 0 0 0 0 0 0 0 0 0 0 0 0 0 0 0 0 0 0 0 0 0 0 0 0 0 0 0 0 0 0 0 0 0 0 0 0 0 0 0 0 0 0 0 0 0 0 0 0 0 0 0 0 0 0 0 0 0 0 0 0 0 0 0 0 0 0 0 0 0 0 0 0 0 0 0 0 0 0 0 0 0 0 0 0 0 0 0 0 0 0 0 0 0 0 0 0 0 0 0 0 0 0 0 0 0 0 0 0 0 0 0 0 0 0 0 0 0 0 0 0 0 0 0 0 0 0 0 0 0 0 0 0 0 0 0 0 0 0 0 0 0 0 0 0 0 0 0 0 0 0 0 0 0 0 0 0 0 0 0 0 0 0 0 0 0 0 0 0 0 0 0 0 0 0 0 0 0 0 0 
0 0 0 0 0 0 0 0 0 0 0 0 0 0 0 0 0 0 0 0 0 0 0 0 0 0 0 0 0 0 0 0 0 0 0 0 0 0 0 0 0 0 0 0 0 0 0 0 0 0 0 0 0 0 0 0 0 0 0 0 0 0 0 0 0 0 0 0 0 0 0 0 0 0 0 0 0 0 0 0 0 0 0 0 0 0 0 0 0 0 0 0 0 0 0 0 0 0 0 0 0 0 0 0 0 0 0 0 0 0 0 0 0 0 0 0 0 0 0 0 0 0 0 0 0 0 0 0 0 0 0 0 0 0 0 0 0 0 0 0 0 0 0 0 0 0 0 0 0 0 0 0 0 0 0 0 0 0 0 0 0 0 0 0 0 0 0 0 0 0 0 0 0 0 0 0 0 0 0 0 0 0 0 0 0 0 0 0 0 0 0 0 0 0 0 0 0 0 0 0 0 0 0 0 0 0 0 0 0 0 0 0 0 0 0 0 0 0 0 0 0 0 0 0 0 
0 0 0 0 0 0 0 0 0 0 0 0 0 0 0 0 0 0 0 0 0 0 0 0 0 0 0 0 0 0 0 0 0 0 0 0 0 0 0 0 0 0 0 0 0 0 0 0 0 0 0 0 0 0 0 0 0 0 0 0 0 0 0 0 0 0 0 0 0 0 0 0 0 0 0 0 0 0 0 0 0 0 0 0 0 0 0 0 0 0 0 0 0 0 0 0 0 0 0 0 0 0 0 0 0 0 0 0 0 0 0 0 0 0 0 0 0 0 0 0 0 0 0 0 0 0 0 0 0 0 0 0 0 0 0 0 0 0 0 0 0 0 0 0 0 0 0 0 0 0 0 0 0 0 0 0 0 0 0 0 0 0 0 0 0 0 0 0 0 0 0 0 0 0 0 0 0 0 0 0 0 0 0 0 0 0 0 0 0 0 0 0 0 0 0 0 0 0 0 0 0 0 0 0 0 0 0 0 0 0 0 0 0 0 0 0 0 0 0 0 0 0 0 0 0 
0 0 0 0 0 0 0 0 0 0 0 0 0 0 0 0 0 0 0 0 0 0 0 0 0 0 0 0 0 0 0 0 0 0 0 0 0 0 0 0 0 0 0 0 0 0 0 0 0 0 0 0 0 0 0 0 0 0 0 0 0 0 0 0 0 0 0 0 0 0 0 0 0 0 0 0 0 0 0 0 0 0 0 0 0 0 0 0 0 0 0 0 0 0 0 0 0 0 0 0 0 0 0 0 0 0 0 0 0 0 0 0 0 0 0 0 0 0 0 0 0 0 0 0 0 0 0 0 0 0 0 0 0 0 0 0 0 0 0 0 0 0 0 0 0 0 0 0 0 0 0 0 0 0 0 0 0 0 0 0 0 0 0 0 0 0 0 0 0 0 0 0 0 0 0 0 0 0 0 0 0 0 0 0 0 0 0 0 0 0 0 0 0 0 0 0 0 0 0 0 0 0 0 0 0 0 0 0 0 0 0 0 0 0 0 0 0 0 0 0 0 0 0 0 0 
0 0 0 0 0 0 0 0 0 0 0 0 0 0 0 0 0 0 0 0 0 0 0 0 0 0 0 0 0 0 0 0 0 0 0 0 0 0 0 0 0 0 0 0 0 0 0 0 0 0 0 0 0 0 0 0 0 0 0 0 0 0 0 0 0 0 0 0 0 0 0 0 0 0 0 0 0 0 0 0 0 0 0 0 0 0 0 0 0 0 0 0 0 0 0 0 0 0 0 0 0 0 0 0 0 0 0 0 0 0 0 0 0 0 0 0 0 0 0 0 0 0 0 0 0 0 0 0 0 0 0 0 0 0 0 0 0 0 0 0 0 0 0 0 0 0 0 0 0 0 0 0 0 0 0 0 0 0 0 0 0 0 0 0 0 0 0 0 0 0 0 0 0 0 0 0 0 0 0 0 0 0 0 0 0 0 0 0 0 0 0 0 0 0 0 0 0 0 0 0 0 0 0 0 0 0 0 0 0 0 0 0 0 0 0 0 0 0 0 0 0 0 0 0 0 
0 0 0 0 0 0 0 0 0 0 0 0 0 0 0 0 0 0 0 0 0 0 0 0 0 0 0 0 0 0 0 0 0 0 0 0 0 0 0 0 0 0 0 0 0 0 0 0 0 0 0 0 0 0 0 0 0 0 0 0 0 0 0 0 0 0 0 0 0 0 0 0 0 0 0 0 0 0 0 0 0 0 0 0 0 0 0 0 0 0 0 0 0 0 0 0 0 0 0 0 0 0 0 0 0 0 0 0 0 0 0 0 0 0 0 0 0 0 0 0 0 0 0 0 0 0 0 0 0 0 0 0 0 0 0 0 0 0 0 0 0 0 0 0 0 0 0 0 0 0 0 0 0 0 0 0 0 0 0 0 0 0 0 0 0 0 0 0 0 0 0 0 0 0 0 0 0 0 0 0 0 0 0 0 0 0 0 0 0 0 0 0 0 0 0 0 0 0 0 0 0 0 0 0 0 0 0 0 0 0 0 0 0 0 0 0 0 0 0 0 0 0 0 0 0 
0 0 0 0 0 0 0 0 0 0 0 0 0 0 0 0 0 0 0 0 0 0 0 0 0 0 0 0 0 0 0 0 0 0 0 0 0 0 0 0 0 0 0 0 0 0 0 0 0 0 0 0 0 0 0 0 0 0 0 0 0 0 0 0 0 0 0 0 0 0 0 0 0 0 0 0 0 0 0 0 0 0 0 0 0 0 0 0 0 0 0 0 0 15 15 15 2 2 2 0 0 0 0 0 0 0 0 0 0 0 0 0 0 0 0 0 0 0 0 0 0 0 0 0 0 0 0 0 0 0 0 0 0 0 0 0 0 0 0 0 0 0 0 0 0 0 0 0 0 0 0 0 0 0 0 0 0 0 0 0 0 0 0 0 0 0 0 0 0 0 0 0 0 0 0 0 0 0 0 0 0 0 0 0 0 0 0 0 0 0 0 0 0 0 0 0 0 0 0 0 0 0 0 0 0 0 0 0 0 0 0 0 0 0 0 0 0 0 0 0 0 0 0 0 0 
0 0 0 0 0 0 0 0 0 0 0 0 0 0 0 0 0 0 0 0 0 0 0 0 0 0 0 0 0 0 0 0 0 0 0 0 0 0 0 0 0 0 0 0 0 0 0 0 0 0 0 0 0 0 0 0 0 0 0 0 0 0 0 0 0 0 0 0 0 0 0 0 0 0 0 0 0 0 0 0 0 0 0 0 0 0 0 0 0 0 1 1 1 5 5 5 2 2 2 0 0 0 0 0 0 0 0 0 0 0 0 0 0 0 0 0 0 0 0 0 0 0 0 0 0 0 0 0 0 0 0 0 0 0 0 0 0 0 0 0 0 0 0 0 0 0 0 0 0 0 0 0 0 0 0 0 0 0 0 0 0 0 0 0 0 0 0 0 0 0 0 0 0 0 0 0 0 0 0 0 0 0 0 0 0 0 0 0 0 0 0 0 0 0 0 0 0 0 0 0 0 0 0 0 0 0 0 0 0 0 0 0 0 0 0 0 0 0 0 0 0 0 0 0 0 
0 0 0 0 0 0 0 0 0 0 0 0 0 0 0 0 0 0 0 0 0 0 0 0 0 0 0 0 0 0 0 0 0 0 0 0 0 0 0 0 0 0 0 0 0 0 0 0 0 0 0 0 0 0 0 0 0 0 0 0 0 0 0 0 0 0 0 0 0 0 0 0 0 0 0 0 0 0 0 0 0 0 0 0 0 0 0 0 0 0 0 0 0 1 1 1 4 4 4 0 0 0 0 0 0 1 1 1 1 1 1 0 0 0 0 0 0 0 0 0 0 0 0 0 0 0 0 0 0 0 0 0 0 0 0 0 0 0 0 0 0 0 0 0 0 0 0 0 0 0 0 0 0 0 0 0 0 0 0 0 0 0 0 0 0 0 0 0 0 0 0 0 0 0 0 0 0 0 0 0 0 0 0 0 0 0 0 0 0 0 0 0 0 0 0 0 0 0 0 0 0 0 0 0 0 0 0 0 0 0 0 0 0 0 0 0 0 0 0 0 0 0 0 0 0 
0 0 0 0 0 0 0 0 0 0 0 0 0 0 0 0 0 0 0 0 0 0 0 0 0 0 0 0 0 0 0 0 0 0 0 0 0 0 0 0 0 0 0 0 0 0 0 0 0 0 0 0 0 0 0 0 0 0 0 0 0 0 0 0 0 0 0 0 0 0 0 0 0 0 0 0 0 0 0 0 0 0 0 0 0 0 0 0 0 0 0 0 1 0 0 0 2 2 2 1 1 1 10 10 11 3 3 4 0 0 0 1 1 1 0 0 0 0 0 0 0 0 0 0 0 0 0 0 0 0 0 0 0 0 0 0 0 0 0 0 0 0 0 0 0 0 0 0 0 0 0 0 0 0 0 0 0 0 0 0 0 0 0 0 0 0 0 0 0 0 0 0 0 0 0 0 0 0 0 0 0 0 0 0 0 0 0 0 0 0 0 0 0 0 0 0 0 0 0 0 0 0 0 0 0 0 0 0 0 0 0 0 0 0 0 0 0 0 0 0 0 0 0 0 0 
0 0 0 0 0 0 0 0 0 0 0 0 0 0 0 0 0 0 0 0 0 0 0 0 0 0 0 0 0 0 0 0 0 0 0 0 0 0 0 0 0 0 0 0 0 0 0 0 0 0 0 0 0 0 0 0 0 0 0 0 0 0 0 0 0 0 0 0 0 0 0 0 0 0 0 0 0 0 0 0 0 0 0 0 1 1 1 1 1 1 0 0 0 0 0 0 14 14 14 30 30 31 32 32 34 33 32 37 31 28 39 0 0 0 1 1 1 0 0 0 0 0 0 0 0 0 0 0 0 0 0 0 0 0 0 0 0 0 0 0 0 0 0 0 0 0 0 0 0 0 0 0 0 0 0 0 0 0 0 0 0 0 0 0 0 0 0 0 0 0 0 0 0 0 0 0 0 0 0 0 0 0 0 0 0 0 0 0 0 0 0 0 0 0 0 0 0 0 0 0 0 0 0 0 0 0 0 0 0 0 0 0 0 0 0 0 0 0 0 0 0 0 0 0 0 
0 0 0 0 0 0 0 0 0 0 0 0 0 0 0 0 0 0 0 0 0 0 0 0 0 0 0 0 0 0 0 0 0 0 0 0 0 0 0 0 0 0 0 0 0 0 0 0 0 0 0 0 0 0 0 0 0 0 0 0 0 0 0 0 0 0 0 0 0 0 0 0 0 0 0 0 0 0 0 0 0 0 0 0 0 0 0 0 0 0 14 14 14 35 34 34 39 39 40 46 45 51 12 12 19 17 16 25 51 47 64 33 31 43 0 0 0 1 1 2 0 0 0 0 0 0 0 0 0 0 0 0 0 0 0 0 0 0 0 0 0 0 0 0 0 0 0 0 0 0 0 0 0 0 0 0 0 0 0 0 0 0 0 0 0 0 0 0 0 0 0 0 0 0 0 0 0 0 0 0 0 0 0 0 0 0 0 0 0 0 0 0 0 0 0 0 0 0 0 0 0 0 0 0 0 0 0 0 0 0 0 0 0 0 0 0 0 0 0 0 0 0 0 0 0 
0 0 0 0 0 0 0 0 0 0 0 0 0 0 0 0 0 0 0 0 0 0 0 0 0 0 0 0 0 0 0 0 0 0 0 0 0 0 0 0 0 0 0 0 0 0 0 0 0 0 0 0 0 0 0 0 0 0 0 0 0 0 0 0 0 0 0 0 0 0 0 0 1 1 0 1 1 1 1 1 1 0 0 0 14 15 14 35 34 36 37 37 37 18 17 16 5 4 6 41 38 41 63 59 50 84 82 63 37 35 39 37 36 44 4 5 6 3 3 2 3 3 3 3 3 3 1 1 1 0 0 0 0 0 0 0 0 0 0 0 0 0 0 0 0 0 0 0 0 0 0 0 0 0 0 0 0 0 0 0 0 0 0 0 0 0 0 0 0 0 0 0 0 0 0 0 0 0 0 0 0 0 0 0 0 0 0 0 0 0 0 0 0 0 0 0 0 0 0 0 0 0 0 0 0 0 0 0 0 0 0 0 0 0 0 0 0 0 0 0 0 0 0 0 0 
0 0 0 0 0 0 0 0 0 0 0 0 0 0 0 0 0 0 0 0 0 0 0 0 0 0 0 0 0 0 0 0 0 0 0 0 0 0 0 0 0 0 0 0 0 0 0 0 0 0 0 0 0 0 0 0 0 0 0 0 0 0 0 0 0 0 1 1 1 0 0 0 0 0 0 0 0 1 9 9 9 33 33 34 38 38 39 19 19 18 2 2 2 2 2 1 9 10 18 98 90 68 165 155 110 187 178 130 113 108 90 31 26 35 44 39 39 12 11 15 16 17 17 17 17 18 6 6 6 0 0 0 1 1 1 0 0 0 0 0 0 0 0 0 0 0 0 0 0 0 0 0 0 0 0 0 0 0 0 0 0 0 0 0 0 0 0 0 0 0 0 0 0 0 0 0 0 0 0 0 0 0 0 0 0 0 0 0 0 0 0 0 0 0 0 0 0 0 0 0 0 0 0 0 0 0 0 0 0 0 0 0 0 0 0 0 0 0 0 0 0 0 0 0 0 
0 0 0 0 0 0 0 0 0 0 0 0 0 0 0 0 0 0 0 0 0 0 0 0 0 0 0 0 0 0 0 0 0 0 0 0 0 0 0 0 0 0 0 0 0 0 0 0 0 0 0 0 0 0 0 0 0 0 0 0 1 1 1 1 1 1 0 0 0 0 0 0 17 17 19 31 31 33 20 20 20 16 16 16 1 1 1 7 6 7 31 27 24 18 15 21 34 30 39 140 130 94 169 159 120 182 173 131 195 186 142 79 74 68 83 77 64 95 89 77 28 27 35 31 30 31 14 14 14 0 0 0 1 2 1 2 2 2 0 0 0 0 0 0 0 0 0 0 0 0 0 0 0 0 0 0 0 0 0 0 0 0 0 0 0 0 0 0 0 0 0 0 0 0 0 0 0 0 0 0 0 0 0 0 0 0 0 0 0 0 0 0 0 0 0 0 0 0 0 0 0 0 0 0 0 0 0 0 0 0 0 0 0 0 0 0 0 0 0 0 0 0 0 0 0 
0 0 0 0 0 0 0 0 0 0 0 0 0 0 0 0 0 0 0 0 0 0 0 0 0 0 0 0 0 0 0 0 0 0 0 0 0 0 0 0 0 0 0 0 0 0 0 0 0 0 0 0 0 0 1 1 1 1 1 1 0 0 0 0 0 0 15 15 15 37 37 38 40 40 42 19 19 21 3 3 3 1 1 1 0 0 0 6 6 9 49 45 40 68 62 49 94 89 65 164 156 114 177 168 129 191 182 141 207 199 155 212 201 155 220 208 163 223 213 161 71 65 64 25 25 36 30 29 38 5 5 7 15 12 12 2 2 2 0 0 0 0 0 0 0 0 0 0 0 0 0 0 0 0 0 0 0 0 0 0 0 0 0 0 0 0 0 0 0 0 0 0 0 0 0 0 0 0 0 0 0 0 0 0 0 0 0 0 0 0 0 0 0 0 0 0 0 0 0 0 0 0 0 0 0 0 0 0 0 0 0 0 0 0 0 0 0 0 0 0 0 0 0 0 0 
0 0 0 0 0 0 0 0 0 0 0 0 0 0 0 0 0 0 0 0 0 0 0 0 0 0 0 0 0 0 0 0 0 0 0 0 0 0 0 0 0 0 0 0 0 0 0 0 1 1 1 1 1 1 1 1 1 0 0 0 15 15 15 38 38 41 44 44 46 20 20 22 2 2 2 0 0 0 1 1 1 0 0 0 9 8 8 27 26 30 98 92 61 136 127 82 154 145 104 166 157 118 186 177 136 209 199 158 218 207 165 223 211 167 228 217 173 232 219 170 172 164 130 37 35 43 61 56 51 54 52 52 20 16 21 0 0 0 1 1 1 0 0 0 0 0 0 0 0 0 0 0 0 0 0 0 0 0 0 0 0 0 0 0 0 0 0 0 0 0 0 0 0 0 0 0 0 0 0 0 0 0 0 0 0 0 0 0 0 0 0 0 0 0 0 0 0 0 0 0 0 0 0 0 0 0 0 0 0 0 0 0 0 0 0 0 0 0 0 0 0 0 0 0 0 
0 0 0 0 0 0 0 0 0 0 0 0 0 0 0 0 0 0 0 0 0 0 0 0 0 0 0 0 0 0 0 0 0 0 0 0 0 0 0 0 0 0 1 1 1 1 1 1 0 0 0 0 0 0 14 14 14 39 39 39 43 42 46 22 22 23 5 5 4 0 0 0 1 1 1 1 1 1 1 0 0 6 5 9 17 17 26 45 40 36 116 110 67 131 122 85 152 143 104 176 167 127 189 180 139 213 204 163 226 214 172 240 228 183 241 230 184 235 224 179 222 211 162 196 185 135 196 184 127 148 139 95 31 31 44 15 16 21 0 0 0 0 0 1 0 0 0 0 0 0 0 0 0 0 0 0 0 0 0 0 0 0 0 0 0 0 0 0 0 0 0 0 0 0 0 0 0 0 0 0 0 0 0 0 0 0 0 0 0 0 0 0 0 0 0 0 0 0 0 0 0 0 0 0 0 0 0 0 0 0 0 0 0 0 0 0 0 0 0 0 0 0 0 0 0 
0 0 0 0 0 0 0 0 0 0 0 0 0 0 0 0 0 0 0 0 0 0 0 0 0 0 0 0 0 0 0 0 0 0 0 0 0 0 0 0 0 1 1 1 1 0 0 0 15 15 17 40 40 42 42 42 42 25 25 25 4 4 4 0 0 0 0 0 0 0 0 0 0 0 0 0 0 0 5 4 5 57 54 32 69 65 40 93 84 49 121 111 72 138 129 90 158 149 109 182 173 130 195 186 143 222 213 170 234 224 180 246 237 193 252 242 196 245 235 186 227 215 166 218 205 156 195 183 134 180 168 110 94 89 75 33 34 49 0 0 0 1 1 1 0 0 0 0 0 0 0 0 0 0 0 0 0 0 0 0 0 0 0 0 0 0 0 0 0 0 0 0 0 0 0 0 0 0 0 0 0 0 0 0 0 0 0 0 0 0 0 0 0 0 0 0 0 0 0 0 0 0 0 0 0 0 0 0 0 0 0 0 0 0 0 0 0 0 0 0 0 0 0 0 0 
0 0 0 0 0 0 0 0 0 0 0 0 0 0 0 0 0 0 0 0 0 0 0 0 0 0 0 0 0 0 0 0 0 0 0 0 0 0 0 0 0 0 16 16 16 38 38 39 46 46 48 29 29 31 5 5 5 0 0 0 0 0 0 1 1 1 0 0 0 0 0 0 1 1 0 0 0 0 29 26 14 93 83 38 100 89 47 111 100 59 120 111 72 142 133 94 163 153 114 182 173 130 208 199 155 232 222 180 248 238 192 242 238 200 244 239 209 243 234 186 237 225 174 217 205 156 198 187 137 188 175 118 124 114 74 19 20 28 2 1 2 0 0 0 0 0 0 0 0 0 0 0 0 0 0 0 0 0 0 0 0 0 0 0 0 0 0 0 0 0 0 0 0 0 0 0 0 0 0 0 0 0 0 0 0 0 0 0 0 0 0 0 0 0 0 0 0 0 0 0 0 0 0 0 0 0 0 0 0 0 0 0 0 0 0 0 0 0 0 0 0 0 0 0 0 
0 0 0 0 0 0 0 0 0 0 0 0 0 0 0 0 0 0 0 0 0 0 0 0 0 0 0 0 0 0 0 0 0 0 0 0 4 4 6 25 25 27 38 38 38 28 28 29 6 5 6 0 0 0 0 0 0 0 0 0 0 0 0 0 0 0 0 0 0 0 0 0 1 1 0 0 0 0 62 56 25 90 83 40 94 86 47 109 100 60 126 117 76 138 129 88 157 148 107 184 175 134 212 202 158 233 221 177 248 241 199 243 242 222 247 244 227 246 239 193 236 224 173 223 211 161 198 186 136 190 178 118 79 73 55 34 36 49 0 0 0 0 0 0 0 0 0 0 0 0 0 0 0 0 0 0 0 0 0 0 0 0 0 0 0 0 0 0 0 0 0 0 0 0 0 0 0 0 0 0 0 0 0 0 0 0 0 0 0 0 0 0 0 0 0 0 0 0 0 0 0 0 0 0 0 0 0 0 0 0 0 0 0 0 0 0 0 0 0 0 0 0 0 0 0 
0 0 0 0 0 0 0 0 0 0 0 0 0 0 0 0 0 0 0 0 0 0 0 0 0 0 0 0 0 0 0 0 0 0 0 0 18 17 19 45 43 53 47 46 51 0 0 0 1 1 1 0 0 0 0 0 0 0 0 0 0 0 0 0 0 0 0 0 0 0 0 0 1 1 0 0 0 0 52 48 26 95 85 40 96 87 47 111 102 61 123 114 73 143 134 93 166 157 117 182 173 132 218 206 160 251 240 191 251 247 211 246 244 228 255 254 239 253 244 202 233 222 170 216 204 155 204 193 136 159 150 101 41 37 40 52 51 68 0 0 0 0 0 0 0 0 0 0 0 0 0 0 0 0 0 0 0 0 0 0 0 0 0 0 0 0 0 0 0 0 0 0 0 0 0 0 0 0 0 0 0 0 0 0 0 0 0 0 0 0 0 0 0 0 0 0 0 0 0 0 0 0 0 0 0 0 0 0 0 0 0 0 0 0 0 0 0 0 0 0 0 0 0 0 0 
0 0 0 0 0 0 0 0 0 0 0 0 0 0 0 0 0 0 0 0 0 0 0 0 0 0 0 0 0 0 0 0 0 7 7 7 38 37 43 46 44 52 94 91 101 12 11 11 0 0 0 0 0 0 0 0 0 0 0 0 0 0 0 0 0 0 0 0 0 0 0 0 1 1 0 0 0 0 21 21 25 84 76 40 100 90 48 107 98 58 121 112 70 146 137 95 174 163 118 207 196 149 181 172 137 170 164 134 184 179 154 253 249 223 253 248 224 253 242 192 232 220 168 209 197 145 200 188 134 151 141 98 35 33 40 56 56 73 1 1 2 0 0 0 0 0 0 0 0 0 0 0 0 0 0 0 0 0 0 0 0 0 0 0 0 0 0 0 0 0 0 0 0 0 0 0 0 0 0 0 0 0 0 0 0 0 0 0 0 0 0 0 0 0 0 0 0 0 0 0 0 0 0 0 0 0 0 0 0 0 0 0 0 0 0 0 0 0 0 0 0 0 0 0 0 
0 0 0 0 0 0 0 0 0 0 0 0 0 0 0 0 0 0 0 0 0 0 0 0 0 0 0 0 0 0 0 0 0 10 10 10 46 45 50 37 35 41 28 26 31 20 19 16 0 0 0 1 1 1 0 0 0 0 0 0 0 0 0 0 0 0 0 0 0 0 0 0 1 1 1 0 0 0 15 15 24 76 69 39 99 90 47 107 98 57 120 111 67 142 133 90 105 98 73 123 117 92 72 69 59 44 44 42 30 30 34 217 213 177 255 252 198 248 234 184 225 213 162 213 202 149 193 181 128 184 169 109 83 78 66 40 42 57 2 2 1 0 0 0 0 0 0 0 0 0 0 0 0 0 0 0 0 0 0 0 0 0 0 0 0 0 0 0 0 0 0 0 0 0 0 0 0 0 0 0 0 0 0 0 0 0 0 0 0 0 0 0 0 0 0 0 0 0 0 0 0 0 0 0 0 0 0 0 0 0 0 0 0 0 0 0 0 0 0 0 0 0 0 0 0 
0 0 0 0 0 0 0 0 0 0 0 0 0 0 0 0 0 0 0 0 0 0 0 0 0 0 0 0 0 0 0 0 0 3 3 3 42 41 46 37 36 43 29 29 30 8 9 6 0 0 0 1 1 1 1 1 1 0 0 0 0 0 0 0 0 0 0 0 0 0 0 0 1 1 0 0 0 0 33 30 19 95 85 36 97 88 42 110 101 56 125 114 70 130 119 80 11 13 15 17 19 19 14 13 12 19 19 18 2 3 8 113 110 95 250 240 179 229 217 162 218 207 153 206 195 141 184 174 118 173 162 100 135 124 80 29 26 36 4 3 3 0 0 0 0 0 0 0 0 0 0 0 0 0 0 0 0 0 0 0 0 0 0 0 0 0 0 0 0 0 0 0 0 0 0 0 0 0 0 0 0 0 0 0 0 0 0 0 0 0 0 0 0 0 0 0 0 0 0 0 0 0 0 0 0 0 0 0 0 0 0 0 0 0 0 0 0 0 0 0 0 0 0 0 0 
0 0 0 0 0 0 0 0 0 0 0 0 0 0 0 0 0 0 0 0 0 0 0 0 0 0 0 0 0 0 0 0 0 6 6 6 36 35 38 42 41 44 44 43 49 27 26 31 8 8 9 0 0 0 0 0 0 0 0 0 1 1 1 0 0 0 0 0 0 0 0 0 1 1 0 0 0 2 63 58 28 93 84 33 96 85 41 109 97 53 122 110 65 130 120 76 77 71 56 32 31 24 15 15 13 18 18 16 5 6 10 93 89 78 242 232 175 218 207 152 205 194 141 202 191 136 181 170 116 174 162 99 104 95 58 33 32 42 5 4 5 0 0 0 0 0 0 0 0 0 0 0 0 0 0 0 0 0 0 0 0 0 0 0 0 0 0 0 0 0 0 0 0 0 0 0 0 0 0 0 0 0 0 0 0 0 0 0 0 0 0 0 0 0 0 0 0 0 0 0 0 0 0 0 0 0 0 0 0 0 0 0 0 0 0 0 0 0 0 0 0 0 0 0 0 
0 0 0 0 0 0 0 0 0 0 0 0 0 0 0 0 0 0 0 0 0 0 0 0 0 0 0 0 0 0 0 0 0 0 0 0 5 5 4 22 22 21 43 42 40 50 48 48 43 40 46 35 33 39 18 17 22 1 1 3 0 0 0 0 0 0 1 1 1 0 0 1 1 1 0 0 0 0 33 30 20 92 83 32 95 84 39 106 95 49 115 104 58 130 120 73 162 151 100 132 124 85 15 15 20 14 14 20 10 11 18 183 175 137 234 220 163 213 200 147 198 187 131 186 176 117 175 161 105 156 141 80 48 42 40 79 79 100 3 3 3 1 1 1 3 3 3 2 2 2 2 2 2 2 2 2 1 1 1 2 2 2 1 1 1 0 0 0 0 0 0 0 0 0 0 0 0 0 0 0 0 0 0 0 0 0 0 0 0 0 0 0 0 0 0 0 0 0 0 0 0 0 0 0 0 0 0 0 0 0 0 0 0 0 0 0 0 0 0 0 0 0 0 0 0 
0 0 0 0 0 0 0 0 0 0 0 0 0 0 0 0 0 0 0 0 0 0 0 0 0 0 0 0 0 0 0 0 0 0 0 0 0 0 1 0 0 0 9 8 6 31 30 27 47 46 42 39 37 40 34 34 37 40 39 45 27 27 33 7 6 8 0 0 0 0 0 0 1 1 1 0 0 0 17 16 24 73 66 29 91 80 31 98 87 41 109 99 50 128 117 69 136 127 78 170 158 108 93 87 68 72 67 61 110 101 80 213 200 146 204 191 139 202 189 136 189 178 122 173 164 105 171 157 95 124 111 70 32 31 40 79 77 99 2 2 2 0 0 0 0 0 0 0 0 0 0 0 0 0 0 0 0 0 0 0 0 0 0 0 0 1 1 1 0 0 0 0 0 0 0 0 0 0 0 0 0 0 0 0 0 0 0 0 0 0 0 0 0 0 0 0 0 0 0 0 0 0 0 0 0 0 0 0 0 0 0 0 0 0 0 0 0 0 0 0 0 0 0 0 0 
0 0 0 0 0 0 0 0 0 0 0 0 0 0 0 0 0 0 0 0 0 0 0 0 0 0 0 0 0 0 0 0 0 0 0 0 0 0 0 0 0 0 0 0 0 0 0 0 14 14 12 42 43 37 39 39 36 19 19 17 25 25 26 42 41 47 36 35 40 15 14 16 1 1 1 0 0 0 27 25 25 81 72 28 91 79 29 99 88 39 105 94 45 124 112 63 136 124 75 148 136 88 174 161 105 195 182 126 201 188 132 187 174 121 192 179 125 190 177 122 176 161 105 173 159 102 159 145 85 144 132 69 55 51 52 75 75 95 6 6 9 38 37 41 83 83 87 83 82 86 83 82 86 84 84 88 80 79 83 93 92 96 68 67 71 0 0 0 1 1 1 0 0 0 0 0 0 0 0 0 0 0 0 0 0 0 0 0 0 0 0 0 0 0 0 0 0 0 0 0 0 0 0 0 0 0 0 0 0 0 0 0 0 0 0 0 0 0 0 0 0 0 0 0 0 
0 0 0 0 0 0 0 0 0 0 0 0 0 0 0 0 0 0 0 0 0 0 0 0 0 0 0 0 0 0 0 0 0 0 0 0 0 0 0 0 0 0 0 0 0 0 0 1 0 0 1 1 1 0 24 23 22 47 47 45 30 30 30 4 4 4 15 15 16 39 38 42 43 42 45 24 23 33 57 50 24 89 77 13 85 73 23 96 83 35 102 90 39 110 98 48 127 115 63 139 127 76 150 138 87 158 147 95 170 160 105 175 164 109 174 162 103 166 154 95 166 152 92 161 146 86 144 129 71 144 129 60 93 82 51 47 48 61 121 119 127 163 162 171 139 138 145 117 116 123 116 115 122 114 113 120 127 126 133 121 120 127 118 117 124 61 61 65 0 0 0 1 1 1 0 0 0 0 0 0 0 0 0 0 0 0 0 0 0 0 0 0 0 0 0 0 0 0 0 0 0 0 0 0 0 0 0 0 0 0 0 0 0 0 0 0 0 0 0 0 0 0 0 0 0 
0 0 0 0 0 0 0 0 0 0 0 0 0 0 0 0 0 0 0 0 0 0 0 0 0 0 0 0 0 0 0 0 0 0 0 0 0 0 0 0 0 0 0 0 0 0 0 0 1 1 1 1 1 1 0 0 0 4 4 4 35 34 35 49 49 50 21 20 20 0 0 0 9 9 9 33 33 34 58 55 48 73 64 41 85 73 27 94 81 24 99 89 32 107 96 44 116 104 55 128 116 65 145 132 79 155 142 89 160 147 93 159 146 91 164 149 93 161 146 89 154 139 79 146 132 72 139 123 64 136 120 51 79 70 28 57 56 68 126 124 130 97 96 101 88 87 93 90 89 94 99 98 104 112 111 117 104 103 109 100 99 105 105 104 110 115 114 120 38 38 40 0 0 0 2 2 1 0 0 0 0 0 0 0 0 0 0 0 0 0 0 0 0 0 0 0 0 0 0 0 0 0 0 0 0 0 0 0 0 0 0 0 0 0 0 0 0 0 0 0 0 0 0 0 0 
0 0 0 0 0 0 0 0 0 0 0 0 0 0 0 0 0 0 0 0 0 0 0 0 0 0 0 0 0 0 0 0 0 0 0 0 0 0 0 0 0 0 0 0 0 0 0 0 0 0 0 0 0 0 1 1 1 1 1 1 0 0 0 9 9 9 42 40 41 45 43 44 13 13 13 0 0 0 29 25 21 62 54 25 58 53 39 72 65 46 88 79 43 108 95 38 118 106 47 121 110 55 127 114 59 140 127 70 143 131 73 149 137 78 153 138 79 150 135 75 141 127 65 140 125 61 135 118 51 119 106 34 45 41 42 108 106 118 109 108 112 98 97 103 100 99 105 110 109 115 111 110 115 99 98 104 103 102 108 106 105 111 101 100 106 104 103 110 97 96 102 8 8 9 0 0 0 1 1 1 0 0 0 0 0 0 0 0 0 0 0 0 0 0 0 0 0 0 0 0 0 0 0 0 0 0 0 0 0 0 0 0 0 0 0 0 0 0 0 0 0 0 0 0 0 
0 0 0 0 0 0 0 0 0 0 0 0 0 0 0 0 0 0 0 0 0 0 0 0 0 0 0 0 0 0 0 0 0 0 0 0 0 0 0 0 0 0 0 0 0 0 0 0 0 0 0 0 0 0 0 0 0 0 0 0 1 1 1 0 0 0 0 0 0 15 15 15 42 42 42 33 33 33 20 18 18 53 46 22 49 43 21 47 45 28 58 52 37 63 58 44 88 79 48 117 103 49 125 109 50 128 114 54 132 117 59 140 125 67 138 124 63 136 121 61 132 115 54 109 98 46 104 93 37 65 57 24 60 59 72 124 123 130 105 104 110 108 107 113 111 110 116 100 99 105 98 97 103 103 102 108 100 99 105 98 97 103 98 97 103 98 97 103 111 109 116 51 50 54 0 0 0 3 3 3 0 0 0 0 0 0 0 0 0 0 0 0 0 0 0 0 0 0 0 0 0 0 0 0 0 0 0 0 0 0 0 0 0 0 0 0 0 0 0 0 0 0 0 0 0 
0 0 0 0 0 0 0 0 0 0 0 0 0 0 0 0 0 0 0 0 0 0 0 0 0 0 0 0 0 0 0 0 0 0 0 0 0 0 0 0 0 0 0 0 0 0 0 0 0 0 0 0 0 0 0 0 0 0 0 0 0 0 0 0 0 0 1 1 1 0 0 0 2 2 2 22 22 22 39 38 36 30 28 32 25 26 39 43 39 36 87 72 8 78 69 23 65 58 34 61 57 44 83 78 54 118 104 58 131 117 52 128 114 48 128 114 55 129 114 52 100 89 39 37 36 45 48 45 58 43 41 51 101 100 107 119 118 126 109 108 114 104 103 109 92 91 97 96 95 101 99 98 104 99 98 104 103 102 108 104 103 109 102 101 107 100 99 105 104 103 109 98 97 101 13 13 13 0 0 0 1 1 1 0 0 0 0 0 0 0 0 0 0 0 0 0 0 0 0 0 0 0 0 0 0 0 0 0 0 0 0 0 0 0 0 0 0 0 0 0 0 0 0 0 0 
0 0 0 0 0 0 0 0 0 0 0 0 0 0 0 0 0 0 0 0 0 0 0 0 0 0 0 0 0 0 0 0 0 0 0 0 0 0 0 0 0 0 0 0 0 0 0 0 0 0 0 0 0 0 0 0 0 1 1 1 1 1 2 2 2 2 2 2 2 0 0 0 0 0 0 0 0 0 9 9 10 42 41 40 41 37 37 38 37 47 67 58 22 89 73 15 94 80 15 94 81 23 76 66 28 64 56 39 74 69 51 103 91 49 117 102 37 123 104 32 56 50 32 34 35 45 35 35 37 60 59 66 105 104 110 113 112 118 96 95 101 88 87 93 93 92 98 95 94 100 99 98 104 102 101 107 100 99 105 98 97 103 100 99 105 102 101 107 96 95 101 104 103 109 59 58 63 0 0 0 1 1 2 0 0 0 0 0 0 0 0 0 0 0 0 0 0 0 0 0 0 0 0 0 0 0 0 0 0 0 0 0 0 0 0 0 0 0 0 0 0 0 0 0 0 
0 0 0 0 0 0 0 0 0 0 0 0 0 0 0 0 0 0 0 0 0 0 0 0 0 0 0 0 0 0 0 0 0 0 0 0 0 0 0 0 0 0 0 0 0 0 0 0 0 0 0 1 1 2 2 2 2 0 0 0 0 0 0 0 0 0 0 0 0 12 12 14 34 36 41 58 61 66 78 80 87 87 89 96 71 74 77 51 51 55 37 35 38 50 48 52 54 50 45 93 80 10 108 91 15 109 90 15 90 78 18 48 46 42 60 55 50 75 68 47 47 44 50 45 45 55 14 13 16 53 52 58 104 103 110 93 92 98 85 84 90 89 88 94 89 88 94 92 91 97 94 93 99 94 93 99 96 95 101 98 97 103 97 96 102 95 93 100 95 94 100 104 103 109 104 102 109 16 16 19 0 0 0 1 1 1 0 0 0 0 0 0 0 0 0 0 0 0 0 0 0 0 0 0 0 0 0 0 0 0 0 0 0 0 0 0 0 0 0 0 0 0 0 0 0 
0 0 0 0 0 0 0 0 0 0 0 0 0 0 0 0 0 0 0 0 0 0 0 0 0 0 0 0 0 0 0 0 0 0 0 0 0 0 0 0 0 0 0 0 0 1 1 1 3 3 4 0 0 0 1 1 1 25 26 31 30 34 41 52 57 65 75 80 90 87 92 99 91 92 98 92 93 99 95 96 103 99 99 107 108 109 116 119 119 127 108 105 117 51 51 57 40 39 54 76 64 19 90 75 7 97 80 13 90 75 22 49 46 49 39 37 51 41 40 51 59 58 67 86 85 94 68 66 72 74 73 80 84 85 90 82 83 88 85 85 90 85 86 91 86 85 91 89 88 94 93 92 98 95 94 100 95 94 100 95 94 100 95 94 100 96 95 101 96 95 101 94 92 99 104 103 111 49 52 53 0 0 0 1 1 1 0 0 0 0 0 0 0 0 0 0 0 0 0 0 0 0 0 0 0 0 0 0 0 0 0 0 0 0 0 0 0 0 0 0 0 0 0 0 0 
0 0 0 0 0 0 0 0 0 0 0 0 0 0 0 0 0 0 0 0 0 0 0 0 0 0 0 0 0 0 0 0 0 0 0 0 0 0 0 1 1 1 1 2 2 0 0 1 0 0 0 24 24 32 80 85 103 121 128 153 125 132 161 119 127 151 108 115 134 97 105 118 89 95 104 93 93 98 109 109 116 136 136 143 164 164 174 187 187 198 226 224 236 101 100 98 33 33 32 58 54 40 70 61 17 77 66 18 59 53 40 49 47 56 57 55 54 53 51 51 64 63 63 116 115 121 96 95 101 73 73 78 80 81 86 82 83 88 81 82 88 84 85 90 86 86 92 89 88 94 93 92 98 98 97 103 103 102 108 109 108 114 112 111 117 115 113 119 115 114 120 118 117 124 126 125 131 89 91 96 2 2 3 0 0 0 0 0 0 0 0 0 0 0 0 0 0 0 0 0 0 0 0 0 0 0 0 0 0 0 0 0 0 0 0 0 0 0 0 0 0 0 0 0 0 
0 0 0 0 0 0 0 0 0 0 0 0 0 0 0 0 0 0 0 0 0 0 0 0 0 0 0 0 0 0 0 0 0 1 1 1 2 2 2 1 1 1 0 0 0 20 22 28 78 80 98 121 127 157 127 133 165 116 123 149 110 116 141 103 109 128 98 105 123 95 103 116 89 96 104 84 88 94 83 85 91 93 93 98 119 118 125 176 175 182 227 228 231 73 72 68 45 44 38 50 49 47 48 48 47 50 49 48 53 52 49 56 55 49 57 56 51 48 47 42 73 71 69 125 123 136 87 91 96 94 97 106 100 100 108 89 89 97 90 90 99 92 92 97 91 90 96 96 95 101 103 102 107 107 106 112 109 109 114 108 108 113 109 110 115 114 111 120 118 117 124 118 118 124 118 117 124 110 110 117 44 44 46 0 0 0 1 1 1 0 0 0 0 0 0 0 0 0 0 0 0 0 0 0 0 0 0 0 0 0 0 0 0 0 0 0 0 0 0 0 0 0 0 0 0 
0 0 0 0 0 0 0 0 0 0 0 0 0 0 0 0 0 0 0 0 0 0 0 0 0 0 0 1 1 1 1 2 2 0 0 0 0 0 0 16 17 22 67 71 84 111 118 139 121 129 156 113 120 145 109 115 139 107 113 134 104 111 130 102 109 128 100 108 127 101 108 127 99 106 122 96 102 114 93 98 106 87 89 95 84 84 89 83 82 88 97 97 103 50 50 45 45 44 37 46 44 37 50 48 41 49 48 41 47 46 41 47 46 40 48 47 41 40 40 32 76 76 76 123 124 138 106 108 116 129 130 143 124 123 132 122 122 130 117 118 126 106 107 112 105 104 109 105 105 110 112 114 121 116 118 126 122 125 132 120 122 130 105 105 113 91 94 105 78 79 88 74 76 79 101 100 107 93 92 100 69 68 74 13 13 14 0 0 0 1 0 1 0 0 0 0 0 0 0 0 0 0 0 0 0 0 0 0 0 0 0 0 0 0 0 0 0 0 0 0 0 0 0 0 0 
0 0 0 0 0 0 0 0 0 0 0 0 0 0 0 0 0 0 0 0 0 0 1 1 3 3 3 1 1 1 0 0 0 15 16 21 67 69 80 105 111 128 117 124 147 113 119 142 108 115 138 106 113 133 104 111 128 101 108 124 98 106 118 95 103 114 93 100 112 92 99 111 92 99 111 96 102 115 102 107 119 109 111 120 117 117 124 117 117 124 109 110 116 102 103 106 85 84 86 78 78 81 52 51 52 52 50 48 57 55 51 59 59 54 64 64 58 66 65 62 100 99 102 125 123 135 113 112 122 120 119 129 120 121 131 110 112 119 103 106 112 99 102 109 100 101 110 100 100 110 100 100 110 97 98 107 91 93 100 86 88 95 109 110 117 106 108 118 110 111 122 128 129 139 152 152 164 166 165 176 68 66 77 45 44 46 0 0 0 2 2 2 0 0 0 0 0 0 0 0 0 0 0 0 0 0 0 0 0 0 0 0 0 0 0 0 0 0 0 0 0 0 0 0 0 
0 0 0 0 0 0 0 0 0 0 0 0 0 0 0 1 1 1 2 1 2 1 1 1 0 0 0 11 12 13 57 60 67 99 106 118 109 117 135 105 113 131 103 110 126 99 107 119 96 103 115 95 103 112 99 104 114 98 104 114 98 106 117 100 107 123 101 107 126 105 110 130 113 118 139 117 124 138 115 120 131 117 120 129 123 124 134 131 132 142 130 130 139 124 124 129 105 104 111 116 111 105 124 115 90 125 118 87 129 121 96 116 113 113 105 105 113 115 115 126 110 111 120 110 111 122 107 109 120 106 108 119 106 108 120 105 108 116 103 106 115 102 105 114 106 107 115 114 115 123 124 124 133 125 125 134 116 119 128 115 118 127 136 138 149 148 150 164 145 148 161 156 159 173 164 167 182 196 198 212 122 121 132 50 49 56 13 12 13 0 0 0 0 0 0 0 0 0 0 0 0 0 0 0 0 0 0 0 0 0 0 0 0 0 0 0 0 0 0 0 0 0 0 0 0 
0 0 0 0 0 0 0 0 0 0 0 0 2 2 2 3 3 3 0 0 0 8 8 10 48 51 55 87 92 99 98 105 114 96 102 112 96 103 115 97 104 117 99 106 121 105 111 127 112 118 137 116 122 145 120 124 152 123 129 159 125 132 162 127 133 162 127 133 163 127 133 163 131 137 162 126 133 155 122 128 145 115 121 138 112 117 134 109 114 130 105 107 118 106 108 117 108 110 121 115 117 120 123 127 125 123 128 134 121 126 138 121 127 140 123 129 141 125 130 142 129 132 146 131 134 148 129 133 146 133 136 149 136 138 152 132 135 145 133 133 145 140 140 153 148 149 163 142 143 153 134 134 141 133 134 140 111 114 121 99 102 109 113 118 125 130 135 143 102 108 118 117 120 130 129 134 144 153 157 171 178 182 194 88 86 95 27 25 30 0 0 0 1 1 1 0 0 0 0 0 0 0 0 0 0 0 0 0 0 0 0 0 0 0 0 0 0 0 0 0 0 0 0 0 0 
0 0 0 0 0 0 0 0 0 1 1 1 0 0 0 16 15 15 50 48 53 86 88 98 106 108 119 105 109 125 109 115 135 123 128 153 121 128 155 124 131 158 127 133 164 125 131 162 121 129 158 118 126 153 121 129 153 119 125 147 116 121 143 112 118 137 111 117 134 111 117 134 110 115 129 110 114 128 114 117 130 115 118 131 114 117 131 118 121 135 122 127 140 124 130 143 130 136 149 133 140 154 136 145 159 144 150 163 145 152 166 147 153 168 147 153 168 148 155 170 148 153 168 148 153 169 149 154 170 142 148 165 134 139 156 124 131 144 117 123 133 116 121 132 116 122 134 112 119 127 113 119 127 111 116 124 102 103 111 101 100 109 116 110 122 148 136 151 133 120 136 141 127 143 156 136 151 173 155 173 204 181 198 179 165 178 45 45 54 3 2 5 0 0 0 0 0 0 0 0 0 0 0 0 0 0 0 0 0 0 0 0 0 0 0 0 0 0 0 0 0 0 0 0 0 
0 0 0 0 0 0 0 0 0 3 3 3 0 0 0 79 78 81 101 100 110 77 80 90 119 125 144 126 133 156 110 116 139 87 88 108 110 115 139 112 118 142 105 111 130 106 112 129 107 110 124 105 109 122 104 108 122 105 108 122 107 111 124 107 111 124 111 114 128 112 115 129 114 119 132 120 125 138 128 131 146 132 135 150 134 137 153 137 140 156 137 143 157 141 146 161 144 149 164 146 151 165 144 150 163 144 150 164 144 150 164 138 145 159 134 141 157 130 138 153 124 133 146 119 126 140 125 130 145 128 129 146 124 126 140 122 121 132 122 117 129 131 120 134 145 131 146 156 138 155 161 143 159 156 139 154 149 131 146 146 126 142 137 116 132 148 132 146 150 134 147 146 123 141 179 144 168 191 158 180 156 134 149 136 121 131 105 95 107 46 47 51 0 0 0 2 2 2 0 0 0 0 0 0 0 0 0 0 0 0 0 0 0 0 0 0 0 0 0 0 0 0 0 0 0 
0 0 0 0 0 0 0 0 0 2 2 2 0 0 0 108 108 110 71 72 80 82 85 97 94 99 114 90 95 114 64 65 78 24 21 23 87 89 103 102 105 118 107 110 122 115 117 133 112 116 128 113 117 129 112 115 130 118 121 136 122 125 140 123 125 141 122 125 140 126 129 143 130 135 150 133 138 153 135 138 153 134 137 152 130 134 148 126 132 145 124 133 147 126 135 149 127 134 148 129 135 149 128 134 148 132 136 150 138 139 154 142 138 155 145 138 154 152 138 156 158 139 158 162 138 157 166 136 156 173 139 159 172 138 157 164 134 149 149 123 138 147 122 137 135 111 126 123 101 115 109 90 102 78 67 76 56 50 54 40 38 41 22 22 24 9 10 11 18 16 18 41 35 41 60 50 58 74 59 68 94 79 89 122 98 114 108 87 102 41 42 46 16 16 17 0 0 0 1 1 1 0 0 0 0 0 0 0 0 0 0 0 0 0 0 0 0 0 0 0 0 0 0 0 0 
0 0 0 0 0 0 0 0 0 0 0 0 16 16 16 113 113 117 64 67 78 87 91 101 95 99 116 99 104 124 68 71 87 31 30 36 93 99 114 109 115 131 119 122 137 120 122 138 120 123 139 122 124 140 123 125 141 123 126 141 119 124 138 116 121 135 118 124 138 119 126 139 120 127 141 123 127 142 123 127 142 125 126 142 127 126 140 133 127 143 145 135 152 151 138 156 158 139 157 165 144 163 173 147 168 173 141 161 180 144 167 184 146 170 185 145 169 175 138 162 164 130 152 162 133 160 149 130 156 132 123 147 129 128 154 62 58 69 16 15 14 13 12 13 2 2 2 0 0 0 0 0 0 0 0 0 0 0 0 0 0 0 0 0 0 0 0 0 0 0 0 0 0 0 0 0 0 0 0 0 0 0 1 0 0 0 13 13 16 37 35 41 19 19 24 0 0 0 1 1 0 0 0 0 0 0 0 0 0 0 0 0 0 0 0 0 0 0 0 0 0 0 0 0 0 
0 0 0 0 0 0 2 2 2 0 0 0 51 50 50 113 111 119 61 65 75 88 92 107 90 94 114 93 99 120 63 67 80 33 30 38 100 106 121 114 122 136 114 120 133 110 117 130 113 121 133 114 121 133 115 120 134 119 122 137 122 120 135 127 121 137 137 128 143 149 132 149 154 133 152 160 137 156 165 139 159 177 145 168 183 148 171 184 147 170 178 144 167 183 147 170 180 143 164 181 139 162 169 122 147 178 144 169 155 133 159 149 124 153 152 139 183 87 82 107 87 75 94 114 120 150 122 131 168 108 109 142 122 116 148 61 48 61 0 0 0 2 1 2 0 0 0 2 1 1 3 2 2 3 2 2 2 2 2 2 2 2 1 1 1 1 1 1 1 1 1 2 1 2 3 2 2 3 2 3 3 2 3 5 5 6 35 34 41 36 35 42 5 5 6 0 0 0 0 0 0 0 0 0 0 0 0 0 0 0 0 0 0 0 0 0 0 0 0 0 0 0 0 0 0 
0 0 0 0 0 0 3 3 3 0 0 0 85 84 85 104 102 111 75 79 91 96 97 114 95 96 116 105 105 122 60 61 73 35 34 42 113 114 129 127 124 138 132 122 140 135 121 140 138 120 139 140 120 137 144 119 136 150 123 138 157 128 147 168 136 158 170 137 159 167 134 154 164 131 151 164 129 153 157 124 147 121 98 112 71 59 68 45 39 46 29 25 31 33 29 34 59 51 58 124 102 122 129 105 131 137 131 147 156 140 160 158 139 165 158 149 198 103 92 118 133 101 125 126 114 146 98 86 113 71 58 76 32 25 33 51 46 48 5 5 6 0 0 0 0 0 0 0 0 0 0 0 0 0 0 0 0 0 0 0 0 0 0 0 0 0 0 0 0 0 0 0 0 0 0 0 0 0 0 0 0 0 0 0 0 0 11 11 15 16 16 20 0 0 0 0 0 0 0 0 0 0 0 0 0 0 0 0 0 0 0 0 0 0 0 0 0 0 0 0 0 0 0 0 0 
0 0 0 0 0 0 2 1 2 0 0 0 119 114 122 64 62 76 50 55 64 95 91 109 100 100 119 131 105 128 65 52 62 40 42 48 142 117 135 151 119 136 148 121 139 153 124 143 165 133 156 177 141 171 189 151 189 196 153 196 183 143 183 170 131 165 153 115 143 131 98 118 102 77 94 59 45 56 17 13 17 0 0 0 0 0 0 0 0 0 0 0 0 0 0 0 0 0 0 1 2 5 15 21 25 32 33 34 30 27 32 60 51 60 75 69 85 65 49 59 124 87 105 44 33 43 1 1 2 0 0 0 0 1 0 1 2 2 0 0 0 0 0 0 0 0 0 0 0 0 0 0 0 0 0 0 0 0 0 0 0 0 0 0 0 0 0 0 0 0 0 0 0 0 0 0 0 0 0 0 0 0 0 0 0 0 0 0 0 0 0 0 0 0 0 0 0 0 0 0 0 0 0 0 0 0 0 0 0 0 0 0 0 0 0 0 0 0 0 0 0 0 0 0 0 
0 0 0 1 1 1 0 0 0 17 17 16 110 107 120 91 73 91 141 115 137 181 141 181 184 142 187 191 159 190 68 62 72 47 44 53 190 164 194 202 165 211 216 176 231 233 187 248 235 184 246 213 163 219 184 138 180 158 115 150 137 99 124 105 76 94 67 50 61 27 20 24 0 0 0 0 0 0 0 0 0 2 2 2 3 2 3 2 2 2 1 1 2 2 1 2 2 2 2 2 1 1 0 0 0 0 0 0 0 0 0 0 0 0 0 0 0 0 0 0 0 0 0 0 0 0 0 0 1 2 2 2 1 1 2 0 0 1 0 0 0 0 0 0 0 0 0 0 0 0 0 0 0 0 0 0 0 0 0 0 0 0 0 0 0 0 0 0 0 0 0 0 0 0 0 0 0 0 0 0 0 0 0 0 0 0 0 0 0 1 1 1 0 0 0 0 0 0 0 0 0 0 0 0 0 0 0 0 0 0 0 0 0 0 0 0 0 0 0 0 0 0 0 0 0 
0 0 0 2 2 2 0 0 0 45 44 46 165 134 160 172 144 177 214 177 224 244 203 249 225 182 231 233 192 242 59 58 68 94 84 101 255 215 255 243 187 248 217 165 218 169 122 161 130 92 118 121 87 107 103 76 89 71 54 63 34 26 30 5 4 5 0 0 0 0 0 0 0 0 0 2 2 2 1 1 1 0 0 0 0 0 0 0 0 0 0 0 0 0 0 0 0 0 0 0 0 0 1 1 1 1 1 1 1 1 1 1 1 2 2 2 3 2 2 2 3 2 2 1 1 1 0 0 0 0 0 0 0 0 0 0 0 0 0 0 0 0 0 0 0 0 0 0 0 0 0 0 0 0 0 0 0 0 0 0 0 0 0 0 0 0 0 0 0 0 0 0 0 0 0 0 0 0 0 0 0 0 0 0 0 0 0 0 0 0 0 0 0 0 0 0 0 0 0 0 0 0 0 0 0 0 0 0 0 0 0 0 0 0 0 0 0 0 0 0 0 0 0 0 0 
0 0 0 1 1 1 0 0 0 25 20 23 57 44 51 98 92 105 127 115 144 218 187 224 248 204 249 255 200 255 100 80 101 141 110 134 156 121 154 104 78 95 112 83 97 115 89 103 106 87 100 65 51 60 3 2 4 0 0 0 0 0 0 0 1 1 2 2 2 1 1 1 0 0 0 0 0 0 0 0 0 0 0 0 0 0 0 0 0 0 0 0 0 0 0 0 0 0 0 0 0 0 0 0 0 0 0 0 0 0 0 0 0 0 0 0 0 0 0 0 0 0 0 0 0 0 0 0 0 0 0 0 0 0 0 0 0 0 0 0 0 0 0 0 0 0 0 0 0 0 0 0 0 0 0 0 0 0 0 0 0 0 0 0 0 0 0 0 0 0 0 0 0 0 0 0 0 0 0 0 0 0 0 0 0 0 0 0 0 0 0 0 0 0 0 0 0 0 0 0 0 0 0 0 0 0 0 0 0 0 0 0 0 0 0 0 0 0 0 0 0 0 0 0 0 
0 0 0 0 0 0 2 3 3 3 3 3 0 0 0 33 30 29 110 101 118 91 81 111 107 92 122 178 142 188 184 138 171 123 88 105 121 94 113 116 88 107 87 68 82 55 44 54 10 9 12 0 0 0 1 0 0 2 2 2 1 1 1 0 0 0 0 0 0 0 0 0 0 0 0 0 0 0 0 0 0 0 0 0 0 0 0 0 0 0 0 0 0 0 0 0 0 0 0 0 0 0 0 0 0 0 0 0 0 0 0 0 0 0 0 0 0 0 0 0 0 0 0 0 0 0 0 0 0 0 0 0 0 0 0 0 0 0 0 0 0 0 0 0 0 0 0 0 0 0 0 0 0 0 0 0 0 0 0 0 0 0 0 0 0 0 0 0 0 0 0 0 0 0 0 0 0 0 0 0 0 0 0 0 0 0 0 0 0 0 0 0 0 0 0 0 0 0 0 0 0 0 0 0 0 0 0 0 0 0 0 0 0 0 0 0 0 0 0 0 0 0 0 0 0 
0 0 0 0 0 0 0 0 0 1 0 1 3 2 3 0 1 1 6 4 5 35 27 31 53 47 56 44 35 45 12 8 9 0 0 0 3 3 4 2 2 2 0 0 0 0 0 0 0 0 0 2 2 2 0 0 0 0 0 0 0 0 0 0 0 0 0 0 0 0 0 0 0 0 0 0 0 0 0 0 0 0 0 0 0 0 0 0 0 0 0 0 0 0 0 0 0 0 0 0 0 0 0 0 0 0 0 0 0 0 0 0 0 0 0 0 0 0 0 0 0 0 0 0 0 0 0 0 0 0 0 0 0 0 0 0 0 0 0 0 0 0 0 0 0 0 0 0 0 0 0 0 0 0 0 0 0 0 0 0 0 0 0 0 0 0 0 0 0 0 0 0 0 0 0 0 0 0 0 0 0 0 0 0 0 0 0 0 0 0 0 0 0 0 0 0 0 0 0 0 0 0 0 0 0 0 0 0 0 0 0 0 0 0 0 0 0 0 0 0 0 0 0 0 0 
0 0 0 0 0 0 0 0 0 0 0 0 0 0 0 1 1 1 2 2 2 0 0 0 0 0 0 0 0 0 0 0 0 1 1 1 0 0 0 0 0 0 2 2 2 2 2 2 0 0 0 0 0 0 0 0 0 0 0 0 0 0 0 0 0 0 0 0 0 0 0 0 0 0 0 0 0 0 0 0 0 0 0 0 0 0 0 0 0 0 0 0 0 0 0 0 0 0 0 0 0 0 0 0 0 0 0 0 0 0 0 0 0 0 0 0 0 0 0 0 0 0 0 0 0 0 0 0 0 0 0 0 0 0 0 0 0 0 0 0 0 0 0 0 0 0 0 0 0 0 0 0 0 0 0 0 0 0 0 0 0 0 0 0 0 0 0 0 0 0 0 0 0 0 0 0 0 0 0 0 0 0 0 0 0 0 0 0 0 0 0 0 0 0 0 0 0 0 0 0 0 0 0 0 0 0 0 0 0 0 0 0 0 0 0 0 0 0 0 0 0 0 0 0 0 
0 0 0 0 0 0 0 0 0 0 0 0 0 0 0 0 0 0 0 0 0 2 1 2 2 2 2 2 2 2 1 1 1 0 0 0 0 0 0 0 0 0 0 0 0 0 0 0 0 0 0 0 0 0 0 0 0 0 0 0 0 0 0 0 0 0 0 0 0 0 0 0 0 0 0 0 0 0 0 0 0 0 0 0 0 0 0 0 0 0 0 0 0 0 0 0 0 0 0 0 0 0 0 0 0 0 0 0 0 0 0 0 0 0 0 0 0 0 0 0 0 0 0 0 0 0 0 0 0 0 0 0 0 0 0 0 0 0 0 0 0 0 0 0 0 0 0 0 0 0 0 0 0 0 0 0 0 0 0 0 0 0 0 0 0 0 0 0 0 0 0 0 0 0 0 0 0 0 0 0 0 0 0 0 0 0 0 0 0 0 0 0 0 0 0 0 0 0 0 0 0 0 0 0 0 0 0 0 0 0 0 0 0 0 0 0 0 0 0 0 0 0 0 0 0 
0 0 0 0 0 0 0 0 0 0 0 0 0 0 0 0 0 0 0 0 0 0 0 0 0 0 0 0 0 0 0 0 0 0 0 0 0 0 0 0 0 0 0 0 0 0 0 0 0 0 0 0 0 0 0 0 0 0 0 0 0 0 0 0 0 0 0 0 0 0 0 0 0 0 0 0 0 0 0 0 0 0 0 0 0 0 0 0 0 0 0 0 0 0 0 0 0 0 0 0 0 0 0 0 0 0 0 0 0 0 0 0 0 0 0 0 0 0 0 0 0 0 0 0 0 0 0 0 0 0 0 0 0 0 0 0 0 0 0 0 0 0 0 0 0 0 0 0 0 0 0 0 0 0 0 0 0 0 0 0 0 0 0 0 0 0 0 0 0 0 0 0 0 0 0 0 0 0 0 0 0 0 0 0 0 0 0 0 0 0 0 0 0 0 0 0 0 0 0 0 0 0 0 0 0 0 0 0 0 0 0 0 0 0 0 0 0 0 0 0 0 0 0 0 0 
0 0 0 0 0 0 0 0 0 0 0 0 0 0 0 0 0 0 0 0 0 0 0 0 0 0 0 0 0 0 0 0 0 0 0 0 0 0 0 0 0 0 0 0 0 0 0 0 0 0 0 0 0 0 0 0 0 0 0 0 0 0 0 0 0 0 0 0 0 0 0 0 0 0 0 0 0 0 0 0 0 0 0 0 0 0 0 0 0 0 0 0 0 0 0 0 0 0 0 0 0 0 0 0 0 0 0 0 0 0 0 0 0 0 0 0 0 0 0 0 0 0 0 0 0 0 0 0 0 0 0 0 0 0 0 0 0 0 0 0 0 0 0 0 0 0 0 0 0 0 0 0 0 0 0 0 0 0 0 0 0 0 0 0 0 0 0 0 0 0 0 0 0 0 0 0 0 0 0 0 0 0 0 0 0 0 0 0 0 0 0 0 0 0 0 0 0 0 0 0 0 0 0 0 0 0 0 0 0 0 0 0 0 0 0 0 0 0 0 0 0 0 0 0 0 
0 0 0 0 0 0 0 0 0 0 0 0 0 0 0 0 0 0 0 0 0 0 0 0 0 0 0 0 0 0 0 0 0 0 0 0 0 0 0 0 0 0 0 0 0 0 0 0 0 0 0 0 0 0 0 0 0 0 0 0 0 0 0 0 0 0 0 0 0 0 0 0 0 0 0 0 0 0 0 0 0 0 0 0 0 0 0 0 0 0 0 0 0 0 0 0 0 0 0 0 0 0 0 0 0 0 0 0 0 0 0 0 0 0 0 0 0 0 0 0 0 0 0 0 0 0 0 0 0 0 0 0 0 0 0 0 0 0 0 0 0 0 0 0 0 0 0 0 0 0 0 0 0 0 0 0 0 0 0 0 0 0 0 0 0 0 0 0 0 0 0 0 0 0 0 0 0 0 0 0 0 0 0 0 0 0 0 0 0 0 0 0 0 0 0 0 0 0 0 0 0 0 0 0 0 0 0 0 0 0 0 0 0 0 0 0 0 0 0 0 0 0 0 0 0 
