P3
84 67
255
0 0 0 0 0 0 0 0 0 0 0 0 0 0 0 0 0 0 0 0 0 0 0 0 0 0 0 0 0 0 0 0 0 0 0 0 0 0 0 0 0 0 0 0 0 0 0 0 0 0 0 0 0 0 0 0 0 0 0 0 0 0 0 0 0 0 0 0 0 0 0 0 0 0 0 0 0 0 0 0 0 0 0 0 0 0 0 0 0 0 0 0 0 0 0 0 0 0 0 0 0 0 0 0 0 0 0 0 0 0 0 0 0 0 0 0 0 0 0 0 0 0 0 0 0 0 0 0 0 0 0 0 0 0 0 0 0 0 0 0 0 0 0 0 0 0 0 0 0 0 0 0 0 0 0 0 0 0 0 0 0 0 0 0 0 0 0 0 0 0 0 0 0 0 0 0 0 0 0 0 0 0 0 0 0 0 0 0 0 0 0 0 0 0 0 0 0 0 0 0 0 0 0 0 0 0 0 0 0 0 0 0 0 0 0 0 0 0 0 0 0 0 0 0 0 0 0 0 0 0 0 0 0 0 0 0 0 0 0 0 0 0 0 0 0 0 0 0 0 0 0 0 
0 0 0 0 0 0 0 0 0 0 0 0 0 0 0 0 0 0 0 0 0 0 0 0 0 0 0 0 0 0 0 0 0 0 0 0 0 0 0 0 0 0 0 0 0 0 0 0 0 0 0 0 0 0 0 0 0 0 0 0 0 0 0 0 0 0 0 0 0 0 0 0 0 0 0 0 0 0 0 0 0 0 0 0 0 0 0 0 0 0 0 0 0 0 0 0 0 0 0 0 0 0 0 0 0 0 0 0 0 0 0 0 0 0 0 0 0 0 0 0 0 0 0 0 0 0 0 0 0 0 0 0 0 0 0 0 0 0 0 0 0 0 0 0 0 0 0 0 0 0 0 0 0 0 0 0 0 0 0 0 0 0 0 0 0 0 0 0 0 0 0 0 0 0 0 0 0 0 0 0 0 0 0 0 0 0 0 0 0 0 0 0 0 0 0 0 0 0 0 0 0 0 0 0 0 0 0 0 0 0 0 0 0 0 0 0 0 0 0 0 0 0 0 0 0 0 0 0 0 0 0 0 0 0 0 0 0 0 0 0 0 0 0 0 0 0 0 0 0 0 0 0 
0 0 0 0 0 0 0 0 0 0 0 0 0 0 0 0 0 0 0 0 0 0 0 0 0 0 0 0 0 0 0 0 0 0 0 0 0 0 0 0 0 0 0 0 0 0 0 0 0 0 0 0 0 0 0 0 0 0 0 0 0 0 0 0 0 0 0 0 0 0 0 0 0 0 0 0 0 0 0 0 0 0 0 0 0 0 0 0 0 0 0 0 0 0 0 0 0 0 0 0 0 0 0 0 0 0 0 0 0 0 0 0 0 0 0 0 0 0 0 0 0 0 0 0 0 0 0 0 0 0 0 0 0 0 0 0 0 0 0 0 0 0 0 0 0 0 0 0 0 0 0 0 0 0 0 0 0 0 0 0 0 0 0 0 0 0 0 0 0 0 0 0 0 0 0 0 0 0 0 0 0 0 0 0 0 0 0 0 0 0 0 0 0 0 0 0 0 0 0 0 0 0 0 0 0 0 0 0 0 0 0 0 0 0 0 0 0 0 0 0 0 0 0 0 0 0 0 0 0 0 0 0 0 0 0 0 0 0 0 0 0 0 0 0 0 0 0 0 0 0 0 0 
0 0 0 0 0 0 0 0 0 0 0 0 0 0 0 0 0 0 0 0 0 0 0 0 0 0 0 0 0 0 0 0 0 0 0 0 0 0 0 0 0 0 0 0 0 0 0 0 0 0 0 0 0 0 0 0 0 0 0 0 0 0 0 0 0 0 0 0 0 0 0 0 0 0 0 0 0 0 0 0 0 0 0 0 0 0 0 0 0 0 0 0 0 0 0 0 0 0 0 0 0 0 0 0 0 0 0 0 0 0 0 0 0 0 0 0 0 0 0 0 0 0 0 0 0 0 0 0 0 0 0 0 0 0 0 0 0 0 0 0 0 0 0 0 0 0 0 0 0 0 0 0 0 0 0 0 0 0 0 0 0 0 0 0 0 0 0 0 0 0 0 0 0 0 0 0 0 0 0 0 0 0 0 0 0 0 0 0 0 0 0 0 0 0 0 0 0 0 0 0 0 0 0 0 0 0 0 0 0 0 0 0 0 0 0 0 0 0 0 0 0 0 0 0 0 0 0 0 0 0 0 0 0 0 0 0 0 0 0 0 0 0 0 0 0 0 0 0 0 0 0 0 
0 0 0 0 0 0 0 0 0 0 0 0 0 0 0 0 0 0 0 0 0 0 0 0 0 0 0 0 0 0 0 0 0 0 0 0 0 0 0 0 0 0 0 0 0 0 0 0 0 0 0 0 0 0 0 0 0 0 0 0 0 0 0 0 0 0 0 0 0 0 0 0 0 0 0 0 0 0 0 0 0 0 0 0 0 0 0 0 0 0 0 0 0 0 0 0 0 0 0 0 0 0 0 0 0 0 0 0 0 0 0 0 0 0 0 0 0 0 0 0 0 0 0 0 0 0 0 0 0 0 0 0 0 0 0 0 0 0 0 0 0 0 0 0 0 0 0 0 0 0 0 0 0 0 0 0 0 0 0 0 0 0 0 0 0 0 0 0 0 0 0 0 0 0 0 0 0 0 0 0 0 0 0 0 0 0 0 0 0 0 0 0 0 0 0 0 0 0 0 0 0 0 0 0 0 0 0 0 0 0 0 0 0 0 0 0 0 0 0 0 0 0 0 0 0 0 0 0 0 0 0 0 0 0 0 0 0 0 0 0 0 0 0 0 0 0 0 0 0 0 0 0 
0 0 0 0 0 0 0 0 0 0 0 0 0 0 0 0 0 0 0 0 0 0 0 0 0 0 0 0 0 0 0 0 0 0 0 0 0 0 0 0 0 0 0 0 0 0 0 0 0 0 0 0 0 0 0 0 0 0 0 0 0 0 0 0 0 0 0 0 0 0 0 0 0 0 0 0 0 0 0 0 0 0 0 0 0 0 0 0 0 0 0 0 0 0 0 0 0 0 0 0 0 0 0 0 0 0 0 0 0 0 0 0 0 0 0 0 0 0 0 0 0 0 0 0 0 0 0 0 0 0 0 0 0 0 0 0 0 0 0 0 0 0 0 0 0 0 0 0 0 0 0 0 0 0 0 0 0 0 0 0 0 0 0 0 0 0 0 0 0 0 0 0 0 0 0 0 0 0 0 0 0 0 0 0 0 0 0 0 0 0 0 0 0 0 0 0 0 0 0 0 0 0 0 0 0 0 0 0 0 0 0 0 0 0 0 0 0 0 0 0 0 0 0 0 0 0 0 0 0 0 0 0 0 0 0 0 0 0 0 0 0 0 0 0 0 0 0 0 0 0 0 0 
0 0 0 0 0 0 0 0 0 0 0 0 0 0 0 0 0 0 0 0 0 0 0 0 0 0 0 0 0 0 0 0 0 0 0 0 0 0 0 0 0 0 0 0 0 0 0 0 0 0 0 0 0 0 0 0 0 0 0 0 0 0 0 0 0 0 0 0 0 0 0 0 0 0 0 0 0 0 0 0 0 0 0 0 0 0 0 0 0 0 0 0 0 0 0 0 0 0 0 0 0 0 1 1 1 4 4 4 0 0 0 0 0 0 0 0 0 0 0 0 0 0 0 0 0 0 0 0 0 0 0 0 0 0 0 0 0 0 0 0 0 0 0 0 0 0 0 0 0 0 0 0 0 0 0 0 0 0 0 0 0 0 0 0 0 0 0 0 0 0 0 0 0 0 0 0 0 0 0 0 0 0 0 0 0 0 0 0 0 0 0 0 0 0 0 0 0 0 0 0 0 0 0 0 0 0 0 0 0 0 0 0 0 0 0 0 0 0 0 0 0 0 0 0 0 0 0 0 0 0 0 0 0 0 0 0 0 0 0 0 0 0 0 0 0 0 0 0 0 0 0 0 
0 0 0 0 0 0 0 0 0 0 0 0 0 0 0 0 0 0 0 0 0 0 0 0 0 0 0 0 0 0 0 0 0 0 0 0 0 0 0 0 0 0 0 0 0 0 0 0 0 0 0 0 0 0 0 0 0 0 0 0 0 0 0 0 0 0 0 0 0 0 0 0 0 0 0 0 0 0 0 0 0 0 0 0 0 0 0 0 0 0 0 0 0 0 0 0 0 0 0 0 0 0 3 3 3 18 18 18 0 0 0 0 0 0 0 0 0 0 0 0 0 0 0 0 0 0 0 0 0 0 0 0 0 0 0 0 0 0 0 0 0 0 0 0 0 0 0 0 0 0 0 0 0 0 0 0 0 0 0 0 0 0 0 0 0 0 0 0 0 0 0 0 0 0 0 0 0 0 0 0 0 0 0 0 0 0 0 0 0 0 0 0 0 0 0 0 0 0 0 0 0 0 0 0 0 0 0 0 0 0 0 0 0 0 0 0 0 0 0 0 0 0 0 0 0 0 0 0 0 0 0 0 0 0 0 0 0 0 0 0 0 0 0 0 0 0 0 0 0 0 0 0 
0 0 0 0 0 0 0 0 0 0 0 0 0 0 0 0 0 0 0 0 0 0 0 0 0 0 0 0 0 0 0 0 0 0 0 0 0 0 0 0 0 0 0 0 0 0 0 0 0 0 0 0 0 0 0 0 0 0 0 0 0 0 0 0 0 0 0 0 0 0 0 0 0 0 0 0 0 0 0 0 0 0 0 0 0 0 0 0 0 0 0 0 0 0 0 0 0 0 0 1 1 1 1 1 1 4 4 4 1 1 1 0 0 0 0 0 0 0 0 0 0 0 0 0 0 0 0 0 0 0 0 0 0 0 0 0 0 0 0 0 0 0 0 0 0 0 0 0 0 0 0 0 0 0 0 0 0 0 0 0 0 0 0 0 0 0 0 0 0 0 0 0 0 0 0 0 0 0 0 0 0 0 0 0 0 0 0 0 0 0 0 0 0 0 0 0 0 0 0 0 0 0 0 0 0 0 0 0 0 0 0 0 0 0 0 0 0 0 0 0 0 0 0 0 0 0 0 0 0 0 0 0 0 0 0 0 0 0 0 0 0 0 0 0 0 0 0 0 0 0 0 0 
0 0 0 0 0 0 0 0 0 0 0 0 0 0 0 0 0 0 0 0 0 0 0 0 0 0 0 0 0 0 0 0 0 0 0 0 0 0 0 0 0 0 0 0 0 0 0 0 0 0 0 0 0 0 0 0 0 0 0 0 0 0 0 0 0 0 0 0 0 0 0 0 0 0 0 0 0 0 0 0 0 0 0 0 0 0 0 0 0 0 0 0 0 0 0 0 0 0 0 0 0 0 0 0 0 3 3 3 4 4 4 1 1 1 0 0 0 0 0 0 1 1 1 0 0 0 0 0 0 0 0 0 0 0 0 0 0 0 0 0 0 0 0 0 0 0 0 0 0 0 0 0 0 0 0 0 0 0 0 0 0 0 0 0 0 0 0 0 0 0 0 0 0 0 0 0 0 0 0 0 0 0 0 0 0 0 0 0 0 0 0 0 0 0 0 0 0 0 0 0 0 0 0 0 0 0 0 0 0 0 0 0 0 0 0 0 0 0 0 0 0 0 0 0 0 0 0 0 0 0 0 0 0 0 0 0 0 0 0 0 0 0 0 0 0 0 0 0 0 0 0 0 
0 0 0 0 0 0 0 0 0 0 0 0 0 0 0 0 0 0 0 0 0 0 0 0 0 0 0 0 0 0 0 0 0 0 0 0 0 0 0 0 0 0 0 0 0 0 0 0 0 0 0 0 0 0 0 0 0 0 0 0 0 0 0 0 0 0 0 0 0 0 0 0 0 0 0 0 0 0 0 0 0 0 0 0 0 0 0 0 0 0 0 0 0 0 0 0 0 0 0 0 0 0 0 0 0 1 1 1 3 3 3 0 0 0 5 5 5 4 4 4 0 0 0 0 0 0 0 0 0 0 0 0 0 0 0 0 0 0 0 0 0 0 0 0 0 0 0 0 0 0 0 0 0 0 0 0 0 0 0 0 0 0 0 0 0 0 0 0 0 0 0 0 0 0 0 0 0 0 0 0 0 0 0 0 0 0 0 0 0 0 0 0 0 0 0 0 0 0 0 0 0 0 0 0 0 0 0 0 0 0 0 0 0 0 0 0 0 0 0 0 0 0 0 0 0 0 0 0 0 0 0 0 0 0 0 0 0 0 0 0 0 0 0 0 0 0 0 0 0 0 0 0 
0 0 0 0 0 0 0 0 0 0 0 0 0 0 0 0 0 0 0 0 0 0 0 0 0 0 0 0 0 0 0 0 0 0 0 0 0 0 0 0 0 0 0 0 0 0 0 0 0 0 0 0 0 0 0 0 0 0 0 0 0 0 0 0 0 0 0 0 0 0 0 0 0 0 0 0 0 0 0 0 0 0 0 0 0 0 0 0 0 0 0 0 0 0 0 0 0 0 0 1 1 1 0 0 0 0 0 0 8 8 7 24 24 25 35 34 36 23 22 26 27 26 34 1 0 1 1 0 1 0 0 0 0 0 0 0 0 0 0 0 0 0 0 0 0 0 0 0 0 0 0 0 0 0 0 0 0 0 0 0 0 0 0 0 0 0 0 0 0 0 0 0 0 0 0 0 0 0 0 0 0 0 0 0 0 0 0 0 0 0 0 0 0 0 0 0 0 0 0 0 0 0 0 0 0 0 0 0 0 0 0 0 0 0 0 0 0 0 0 0 0 0 0 0 0 0 0 0 0 0 0 0 0 0 0 0 0 0 0 0 0 0 0 0 0 0 0 0 0 0 0 0 
0 0 0 0 0 0 0 0 0 0 0 0 0 0 0 0 0 0 0 0 0 0 0 0 0 0 0 0 0 0 0 0 0 0 0 0 0 0 0 0 0 0 0 0 0 0 0 0 0 0 0 0 0 0 0 0 0 0 0 0 0 0 0 0 0 0 0 0 0 0 0 0 0 0 0 0 0 0 0 0 0 0 0 0 0 0 0 0 0 0 0 0 0 1 1 1 0 0 0 0 0 0 7 7 7 29 29 30 41 41 43 46 45 49 23 23 26 25 24 29 53 50 65 43 39 56 3 2 3 0 1 1 0 0 0 0 0 0 0 0 0 0 0 0 0 0 0 0 0 0 0 0 0 0 0 0 0 0 0 0 0 0 0 0 0 0 0 0 0 0 0 0 0 0 0 0 0 0 0 0 0 0 0 0 0 0 0 0 0 0 0 0 0 0 0 0 0 0 0 0 0 0 0 0 0 0 0 0 0 0 0 0 0 0 0 0 0 0 0 0 0 0 0 0 0 0 0 0 0 0 0 0 0 0 0 0 0 0 0 0 0 0 0 0 0 0 0 0 0 0 0 0 
0 0 0 0 0 0 0 0 0 0 0 0 0 0 0 0 0 0 0 0 0 0 0 0 0 0 0 0 0 0 0 0 0 0 0 0 0 0 0 0 0 0 0 0 0 0 0 0 0 0 0 0 0 0 0 0 0 0 0 0 0 0 0 0 0 0 0 0 0 0 0 0 0 0 0 0 0 0 0 0 0 0 0 0 0 0 0 1 1 1 0 0 0 0 0 0 6 6 6 28 28 30 41 42 42 29 28 27 17 15 17 42 41 49 17 15 22 29 29 31 23 21 24 50 48 62 19 20 27 0 0 0 3 3 3 0 0 1 0 0 0 0 0 0 0 0 0 0 0 0 0 0 0 0 0 0 0 0 0 0 0 0 0 0 0 0 0 0 0 0 0 0 0 0 0 0 0 0 0 0 0 0 0 0 0 0 0 0 0 0 0 0 0 0 0 0 0 0 0 0 0 0 0 0 0 0 0 0 0 0 0 0 0 0 0 0 0 0 0 0 0 0 0 0 0 0 0 0 0 0 0 0 0 0 0 0 0 0 0 0 0 0 0 0 0 0 0 0 0 0 0 0 
0 0 0 0 0 0 0 0 0 0 0 0 0 0 0 0 0 0 0 0 0 0 0 0 0 0 0 0 0 0 0 0 0 0 0 0 0 0 0 0 0 0 0 0 0 0 0 0 0 0 0 0 0 0 0 0 0 0 0 0 0 0 0 0 0 0 0 0 0 0 0 0 0 0 0 0 0 0 0 0 0 1 1 1 0 0 0 0 0 0 8 8 8 29 29 30 43 43 43 28 28 29 10 11 11 0 0 0 3 2 9 61 56 46 126 118 86 154 148 106 112 109 88 23 21 29 43 39 39 11 12 12 8 8 8 7 7 7 12 12 12 5 5 5 0 0 0 0 0 0 0 0 0 0 0 0 0 0 0 0 0 0 0 0 0 0 0 0 0 0 0 0 0 0 0 0 0 0 0 0 0 0 0 0 0 0 0 0 0 0 0 0 0 0 0 0 0 0 0 0 0 0 0 0 0 0 0 0 0 0 0 0 0 0 0 0 0 0 0 0 0 0 0 0 0 0 0 0 0 0 0 0 0 0 0 0 0 0 0 0 0 0 0 0 0 0 0 0 0 0 0 0 
0 0 0 0 0 0 0 0 0 0 0 0 0 0 0 0 0 0 0 0 0 0 0 0 0 0 0 0 0 0 0 0 0 0 0 0 0 0 0 0 0 0 0 0 0 0 0 0 0 0 0 0 0 0 0 0 0 0 0 0 0 0 0 0 0 0 0 0 0 0 0 0 0 0 0 1 1 1 0 0 0 0 0 0 5 5 6 16 16 16 34 34 34 33 33 34 10 10 10 10 9 8 2 2 1 10 11 10 22 22 31 118 108 80 166 156 112 172 163 121 189 180 134 66 61 62 37 31 39 45 39 38 22 19 25 24 25 26 20 19 21 8 9 7 1 1 1 2 2 2 1 1 1 1 0 0 0 0 0 0 0 0 0 0 0 0 0 0 0 0 0 0 0 0 0 0 0 0 0 0 0 0 0 0 0 0 0 0 0 0 0 0 0 0 0 0 0 0 0 0 0 0 0 0 0 0 0 0 0 0 0 0 0 0 0 0 0 0 0 0 0 0 0 0 0 0 0 0 0 0 0 0 0 0 0 0 0 0 0 0 0 0 0 0 0 0 0 0 0 0 0 0 
0 0 0 0 0 0 0 0 0 0 0 0 0 0 0 0 0 0 0 0 0 0 0 0 0 0 0 0 0 0 0 0 0 0 0 0 0 0 0 0 0 0 0 0 0 0 0 0 0 0 0 0 0 0 0 0 0 0 0 0 0 0 0 0 0 0 0 0 0 1 1 1 0 0 0 0 0 0 8 8 8 33 33 35 40 40 42 17 17 17 8 8 8 1 1 0 0 0 0 24 21 21 38 33 30 24 19 31 45 40 43 152 143 101 170 160 123 181 173 132 203 194 149 166 160 125 100 95 80 140 135 105 119 113 95 23 21 32 37 37 36 23 21 24 0 0 0 0 0 0 2 2 2 1 1 1 0 0 0 0 0 0 0 0 0 0 0 0 0 0 0 0 0 0 0 0 0 0 0 0 0 0 0 0 0 0 0 0 0 0 0 0 0 0 0 0 0 0 0 0 0 0 0 0 0 0 0 0 0 0 0 0 0 0 0 0 0 0 0 0 0 0 0 0 0 0 0 0 0 0 0 0 0 0 0 0 0 0 0 0 0 0 0 0 0 0 0 0 0 0 0 0 
0 0 0 0 0 0 0 0 0 0 0 0 0 0 0 0 0 0 0 0 0 0 0 0 0 0 0 0 0 0 0 0 0 0 0 0 0 0 0 0 0 0 0 0 0 0 0 0 0 0 0 0 0 0 0 0 0 0 0 0 0 0 0 1 1 1 0 0 0 0 0 0 7 7 8 32 32 32 45 45 46 34 34 35 12 12 13 2 2 2 1 1 1 1 1 1 3 3 2 19 19 23 72 66 50 84 79 56 116 112 78 165 157 116 176 167 127 188 179 138 204 196 154 213 202 156 230 215 170 229 217 169 218 208 157 61 55 58 25 25 37 34 34 43 8 9 15 21 17 17 8 6 7 0 0 1 0 0 0 0 0 0 0 0 0 0 0 0 0 0 0 0 0 0 0 0 0 0 0 0 0 0 0 0 0 0 0 0 0 0 0 0 0 0 0 0 0 0 0 0 0 0 0 0 0 0 0 0 0 0 0 0 0 0 0 0 0 0 0 0 0 0 0 0 0 0 0 0 0 0 0 0 0 0 0 0 0 0 0 0 0 0 0 0 0 0 0 0 0 0 0 0 
0 0 0 0 0 0 0 0 0 0 0 0 0 0 0 0 0 0 0 0 0 0 0 0 0 0 0 0 0 0 0 0 0 0 0 0 0 0 0 0 0 0 0 0 0 0 0 0 0 0 0 0 0 0 0 0 0 1 1 1 1 1 1 0 0 0 7 7 7 30 30 32 48 48 51 37 37 39 12 11 13 0 0 0 0 0 0 1 1 1 1 1 0 2 3 0 20 18 24 51 48 40 123 116 73 138 128 86 156 147 107 165 156 117 185 176 135 204 195 154 220 209 168 218 206 163 228 217 172 226 215 172 232 219 169 162 154 124 36 33 41 63 57 51 63 61 55 31 27 36 0 0 0 1 2 3 0 0 0 0 0 0 0 0 0 0 0 0 0 0 0 0 0 0 0 0 0 0 0 0 0 0 0 0 0 0 0 0 0 0 0 0 0 0 0 0 0 0 0 0 0 0 0 0 0 0 0 0 0 0 0 0 0 0 0 0 0 0 0 0 0 0 0 0 0 0 0 0 0 0 0 0 0 0 0 0 0 0 0 0 0 0 0 0 0 0 0 0 0 0 0 0 
0 0 0 0 0 0 0 0 0 0 0 0 0 0 0 0 0 0 0 0 0 0 0 0 0 0 0 0 0 0 0 0 0 0 0 0 0 0 0 0 0 0 0 0 0 0 0 0 0 0 0 1 1 1 0 0 0 0 0 0 7 7 7 32 32 32 48 47 50 36 36 38 14 14 14 2 2 1 0 0 0 1 1 1 1 1 1 1 1 0 0 0 3 16 16 20 19 17 30 78 72 47 123 116 75 134 125 87 154 145 106 175 166 127 186 177 136 208 199 158 221 210 169 234 222 178 242 230 185 239 228 184 233 222 177 220 209 159 197 187 135 196 184 128 175 164 108 48 46 50 21 22 32 2 3 2 0 0 0 0 0 0 0 0 0 0 0 0 0 0 0 0 0 0 0 0 0 0 0 0 0 0 0 0 0 0 0 0 0 0 0 0 0 0 0 0 0 0 0 0 0 0 0 0 0 0 0 0 0 0 0 0 0 0 0 0 0 0 0 0 0 0 0 0 0 0 0 0 0 0 0 0 0 0 0 0 0 0 0 0 0 0 0 0 0 0 0 0 0 0 0 0 
0 0 0 0 0 0 0 0 0 0 0 0 0 0 0 0 0 0 0 0 0 0 0 0 0 0 0 0 0 0 0 0 0 0 0 0 0 0 0 0 0 0 0 0 0 1 1 1 2 2 2 0 0 0 7 7 8 33 33 35 46 46 47 38 38 37 15 15 16 1 1 1 0 0 0 0 0 0 0 0 0 0 0 0 1 1 1 0 0 1 36 34 23 59 57 38 66 61 39 105 96 57 126 117 80 140 131 92 158 149 110 183 174 131 190 181 138 215 206 163 230 220 176 239 228 185 251 242 196 247 236 190 241 231 181 223 211 162 218 204 155 194 183 134 186 174 117 113 105 75 51 53 74 11 12 14 0 0 0 0 0 0 0 0 0 0 0 0 0 0 0 0 0 0 0 0 0 0 0 0 0 0 0 0 0 0 0 0 0 0 0 0 0 0 0 0 0 0 0 0 0 0 0 0 0 0 0 0 0 0 0 0 0 0 0 0 0 0 0 0 0 0 0 0 0 0 0 0 0 0 0 0 0 0 0 0 0 0 0 0 0 0 0 0 0 0 0 0 0 0 0 0 
0 0 0 0 0 0 0 0 0 0 0 0 0 0 0 0 0 0 0 0 0 0 0 0 0 0 0 0 0 0 0 0 0 0 0 0 0 0 0 0 0 0 0 0 0 0 0 0 7 7 7 31 31 31 51 51 53 43 43 45 16 16 16 3 3 3 0 0 0 0 0 0 1 1 1 0 0 0 0 0 0 0 0 0 0 0 0 6 7 5 81 72 33 96 87 43 108 97 53 112 101 62 125 116 77 146 137 98 166 157 117 181 172 129 201 192 149 225 217 174 243 232 190 243 236 190 246 242 207 249 243 203 243 232 182 234 222 172 216 204 154 202 189 139 184 173 119 162 148 93 49 47 45 8 8 13 0 0 0 0 0 0 0 0 0 0 0 0 0 0 0 0 0 0 0 0 0 0 0 0 0 0 0 0 0 0 0 0 0 0 0 0 0 0 0 0 0 0 0 0 0 0 0 0 0 0 0 0 0 0 0 0 0 0 0 0 0 0 0 0 0 0 0 0 0 0 0 0 0 0 0 0 0 0 0 0 0 0 0 0 0 0 0 0 0 0 0 0 0 0 0 0 
0 0 0 0 0 0 0 0 0 0 0 0 0 0 0 0 0 0 0 0 0 0 0 0 0 0 0 0 0 0 0 0 0 0 0 0 0 0 0 1 1 2 3 3 3 29 28 29 52 52 53 39 38 41 17 17 18 3 3 4 0 0 0 0 0 0 1 1 1 0 0 0 0 0 0 0 0 0 0 0 0 1 1 1 0 0 0 38 34 18 89 80 35 91 82 44 100 91 51 116 107 68 128 119 79 142 133 93 158 149 108 184 175 133 210 200 156 230 219 175 246 236 192 249 246 206 237 234 218 243 239 208 239 230 181 237 225 175 220 208 158 200 188 138 191 180 124 138 126 81 37 39 43 17 17 22 0 0 0 1 1 1 0 0 0 0 0 0 0 0 0 0 0 0 0 0 0 0 0 0 0 0 0 0 0 0 0 0 0 0 0 0 0 0 0 0 0 0 0 0 0 0 0 0 0 0 0 0 0 0 0 0 0 0 0 0 0 0 0 0 0 0 0 0 0 0 0 0 0 0 0 0 0 0 0 0 0 0 0 0 0 0 0 0 0 0 0 0 0 0 0 0 
0 0 0 0 0 0 0 0 0 0 0 0 0 0 0 0 0 0 0 0 0 0 0 0 0 0 0 0 0 0 0 0 0 0 0 0 0 0 0 2 2 2 27 27 30 33 32 39 11 12 11 5 5 4 0 0 0 0 0 0 0 0 0 0 0 0 0 0 0 0 0 0 0 0 0 0 0 0 0 0 0 1 1 0 0 0 0 53 48 23 91 83 39 92 84 46 102 93 52 118 109 68 127 118 77 145 136 94 166 157 116 183 174 134 207 196 152 229 218 173 246 237 193 245 241 217 251 250 241 255 252 229 249 240 192 231 219 169 224 212 161 199 188 136 197 185 126 85 77 53 48 48 66 24 24 29 0 0 0 1 1 1 0 0 0 0 0 0 0 0 0 0 0 0 0 0 0 0 0 0 0 0 0 0 0 0 0 0 0 0 0 0 0 0 0 0 0 0 0 0 0 0 0 0 0 0 0 0 0 0 0 0 0 0 0 0 0 0 0 0 0 0 0 0 0 0 0 0 0 0 0 0 0 0 0 0 0 0 0 0 0 0 0 0 0 0 0 0 0 0 0 0 
0 0 0 0 0 0 0 0 0 0 0 0 0 0 0 0 0 0 0 0 0 0 0 0 0 0 0 0 0 0 0 0 0 1 1 1 0 0 0 16 16 17 27 26 32 77 75 86 78 77 82 0 0 0 2 2 3 0 0 0 0 0 0 0 0 0 0 0 0 0 0 0 0 0 0 0 0 0 0 0 0 1 1 0 0 0 0 22 20 20 88 79 37 96 84 43 104 95 54 115 105 65 127 118 77 150 141 101 167 158 117 186 176 135 215 203 158 245 234 185 255 247 204 248 243 214 252 251 235 253 249 223 251 240 190 230 218 167 210 198 148 200 188 133 173 165 113 39 35 32 56 53 68 26 26 35 0 0 0 1 1 1 0 0 0 0 0 0 0 0 0 0 0 0 0 0 0 0 0 0 0 0 0 0 0 0 0 0 0 0 0 0 0 0 0 0 0 0 0 0 0 0 0 0 0 0 0 0 0 0 0 0 0 0 0 0 0 0 0 0 0 0 0 0 0 0 0 0 0 0 0 0 0 0 0 0 0 0 0 0 0 0 0 0 0 0 0 0 0 0 0 0 
0 0 0 0 0 0 0 0 0 0 0 0 0 0 0 0 0 0 0 0 0 0 0 0 0 0 0 0 0 0 0 0 0 2 2 2 1 1 1 35 34 38 42 41 48 46 45 53 63 60 68 10 9 7 0 0 0 0 0 0 0 0 0 0 0 0 0 0 0 0 0 0 0 0 0 0 0 0 0 0 0 1 0 1 0 0 0 10 11 20 60 57 40 97 87 44 102 93 53 110 101 60 128 119 76 151 142 99 174 162 117 210 198 151 148 141 114 115 112 95 93 91 81 205 201 174 254 254 228 253 244 206 249 236 184 227 214 163 212 200 146 197 184 135 186 171 115 72 67 57 48 50 66 33 34 45 0 0 0 1 1 2 0 0 0 0 0 0 0 0 0 0 0 0 0 0 0 0 0 0 0 0 0 0 0 0 0 0 0 0 0 0 0 0 0 0 0 0 0 0 0 0 0 0 0 0 0 0 0 0 0 0 0 0 0 0 0 0 0 0 0 0 0 0 0 0 0 0 0 0 0 0 0 0 0 0 0 0 0 0 0 0 0 0 0 0 0 0 0 0 0 0 
0 0 0 0 0 0 0 0 0 0 0 0 0 0 0 0 0 0 0 0 0 0 0 0 0 0 0 0 0 0 0 0 0 1 1 1 1 1 0 29 29 32 48 47 53 29 27 34 30 29 29 13 13 10 0 0 0 0 0 0 0 0 0 0 0 0 0 0 0 0 0 0 0 0 0 0 0 0 0 0 0 0 0 1 0 0 0 8 7 17 66 59 35 97 87 42 102 94 52 113 104 61 128 118 73 135 127 87 62 58 45 84 81 66 57 55 47 47 46 42 18 18 21 93 92 82 255 255 200 251 239 181 244 230 180 220 208 156 212 201 149 192 181 127 184 170 110 134 125 83 46 45 60 21 22 26 0 0 0 1 1 1 0 0 0 0 0 0 0 0 0 0 0 0 0 0 0 0 0 0 0 0 0 0 0 0 0 0 0 0 0 0 0 0 0 0 0 0 0 0 0 0 0 0 0 0 0 0 0 0 0 0 0 0 0 0 0 0 0 0 0 0 0 0 0 0 0 0 0 0 0 0 0 0 0 0 0 0 0 0 0 0 0 0 0 0 0 0 0 0 0 0 
0 0 0 0 0 0 0 0 0 0 0 0 0 0 0 0 0 0 0 0 0 0 0 0 0 0 0 0 0 0 0 0 0 1 1 1 0 0 0 25 24 28 46 45 51 31 30 38 27 27 26 0 1 0 0 0 0 1 1 1 0 0 1 0 0 0 0 0 0 0 0 0 0 0 0 0 0 0 0 0 0 1 1 0 0 0 0 22 20 15 90 81 35 95 85 38 103 94 48 115 105 61 134 121 77 114 105 72 2 7 12 25 26 23 8 8 8 11 11 11 12 12 12 22 21 28 197 189 152 240 230 168 224 213 160 215 203 150 205 194 141 187 176 121 169 159 101 166 153 90 62 58 53 15 12 19 0 0 0 1 1 1 0 0 0 0 0 0 0 0 0 0 0 0 0 0 0 0 0 0 0 0 0 0 0 0 0 0 0 0 0 0 0 0 0 0 0 0 0 0 0 0 0 0 0 0 0 0 0 0 0 0 0 0 0 0 0 0 0 0 0 0 0 0 0 0 0 0 0 0 0 0 0 0 0 0 0 0 0 0 0 0 0 0 0 0 0 0 0 0 0 0 
0 0 0 0 0 0 0 0 0 0 0 0 0 0 0 0 0 0 0 0 0 0 0 0 0 0 0 0 0 0 0 0 0 1 1 1 0 0 0 25 25 27 40 39 41 44 43 47 43 42 49 26 25 31 7 7 8 0 0 0 0 0 0 0 1 0 1 1 1 0 0 0 0 0 0 0 0 0 0 0 0 1 1 0 0 0 1 53 48 27 93 84 32 93 82 38 103 90 46 115 103 59 125 114 67 127 117 76 69 64 51 31 30 23 16 16 14 17 17 16 14 14 15 21 21 25 187 180 141 236 228 169 214 203 149 204 192 139 202 191 137 184 173 118 171 160 101 140 128 74 42 41 41 24 23 29 0 0 0 1 1 1 0 0 0 0 0 0 0 0 0 0 0 0 0 0 0 0 0 0 0 0 0 0 0 0 0 0 0 0 0 0 0 0 0 0 0 0 0 0 0 0 0 0 0 0 0 0 0 0 0 0 0 0 0 0 0 0 0 0 0 0 0 0 0 0 0 0 0 0 0 0 0 0 0 0 0 0 0 0 0 0 0 0 0 0 0 0 0 0 0 0 
0 0 0 0 0 0 0 0 0 0 0 0 0 0 0 0 0 0 0 0 0 0 0 0 0 0 0 0 0 0 0 0 0 0 0 0 0 0 0 2 2 2 12 13 12 33 33 31 48 46 45 47 46 47 43 41 47 37 34 40 17 16 21 0 0 1 0 0 0 0 0 0 2 2 2 0 0 0 0 0 0 1 1 0 0 0 0 22 20 17 88 80 31 93 82 36 101 89 44 110 99 54 119 108 62 135 125 79 165 153 103 130 123 84 18 17 20 22 21 24 5 7 13 80 79 67 240 228 174 220 206 152 214 202 148 195 184 128 189 178 119 175 162 107 173 157 92 76 67 39 66 63 87 51 52 61 0 0 0 2 2 3 1 1 2 2 2 2 2 2 2 2 2 2 2 2 2 2 2 2 2 2 2 1 1 1 0 0 0 0 0 0 0 0 0 0 0 0 0 0 0 0 0 0 0 0 0 0 0 0 0 0 0 0 0 0 0 0 0 0 0 0 0 0 0 0 0 0 0 0 0 0 0 0 0 0 0 0 0 0 0 0 0 0 0 0 0 0 0 0 0 0 
0 0 0 0 0 0 0 0 0 0 0 0 0 0 0 0 0 0 0 0 0 0 0 0 0 0 0 0 0 0 0 0 0 0 0 0 0 0 0 0 0 0 0 0 0 3 3 2 20 19 16 42 41 37 46 45 42 36 34 38 39 38 43 43 43 48 26 25 32 5 5 7 0 0 0 0 0 0 1 1 0 1 1 1 0 0 0 8 8 17 62 57 30 90 80 28 94 84 38 103 92 45 115 105 56 130 120 71 138 130 80 177 165 114 75 71 58 43 40 45 43 39 41 167 157 120 221 208 152 203 190 138 203 190 137 189 178 122 174 165 105 168 155 96 150 134 81 37 32 32 69 68 87 45 44 57 3 3 3 1 1 1 0 0 0 0 0 0 0 0 0 0 0 0 0 0 0 0 0 0 0 0 0 0 0 0 0 0 0 0 0 0 0 0 0 0 0 0 0 0 0 0 0 0 0 0 0 0 0 0 0 0 0 0 0 0 0 0 0 0 0 0 0 0 0 0 0 0 0 0 0 0 0 0 0 0 0 0 0 0 0 0 0 0 0 0 0 0 0 0 0 0 
0 0 0 0 0 0 0 0 0 0 0 0 0 0 0 0 0 0 0 0 0 0 0 0 0 0 0 0 0 0 0 0 0 0 0 0 0 0 0 0 0 0 1 1 1 0 0 0 0 0 0 4 3 4 28 28 25 49 50 45 33 33 30 18 17 17 33 33 35 48 47 52 35 34 41 12 12 14 0 0 0 0 0 0 0 0 0 14 15 21 66 60 35 89 76 23 95 83 36 101 89 41 111 100 51 130 118 70 136 125 76 153 141 93 168 155 102 183 170 119 196 183 131 195 181 126 194 181 130 197 184 131 192 179 125 177 163 108 175 162 105 163 149 90 155 141 77 58 54 44 71 70 90 46 46 58 0 0 0 4 4 5 36 35 37 45 45 47 45 44 47 47 46 49 49 48 51 46 46 48 56 55 59 10 10 11 0 0 0 1 1 1 0 0 0 0 0 0 0 0 0 0 0 0 0 0 0 0 0 0 0 0 0 0 0 0 0 0 0 0 0 0 0 0 0 0 0 0 0 0 0 0 0 0 0 0 0 0 0 0 0 0 0 0 0 0 0 0 0 0 0 0 
0 0 0 0 0 0 0 0 0 0 0 0 0 0 0 0 0 0 0 0 0 0 0 0 0 0 0 0 0 0 0 0 0 0 0 0 0 0 0 0 0 0 0 0 0 0 0 0 0 0 0 0 0 0 0 0 0 9 10 7 40 39 37 49 48 46 21 21 19 3 3 4 25 24 27 45 45 49 42 42 46 24 24 26 2 2 6 28 24 19 85 74 19 87 75 26 93 81 32 102 90 39 105 93 43 120 108 57 134 121 71 142 130 80 154 143 91 166 154 102 178 167 113 180 169 116 180 169 113 181 169 111 173 161 103 170 155 96 167 152 93 149 134 76 149 135 66 106 94 54 52 49 68 65 66 73 95 93 102 161 160 168 150 149 156 125 124 132 129 128 134 125 124 130 121 120 127 134 133 139 131 130 137 85 85 89 4 4 5 1 1 1 0 0 0 0 0 0 0 0 0 0 0 0 0 0 0 0 0 0 0 0 0 0 0 0 0 0 0 0 0 0 0 0 0 0 0 0 0 0 0 0 0 0 0 0 0 0 0 0 0 0 0 0 0 0 0 0 0 0 0 0 
0 0 0 0 0 0 0 0 0 0 0 0 0 0 0 0 0 0 0 0 0 0 0 0 0 0 0 0 0 0 0 0 0 0 0 0 0 0 0 0 0 0 0 0 0 0 0 0 0 0 0 0 0 0 1 1 2 0 0 0 0 0 0 16 16 14 49 49 49 47 47 48 10 10 9 0 0 0 16 15 17 41 40 42 46 46 52 64 59 45 84 73 21 85 74 16 88 74 22 97 86 34 101 89 38 108 96 46 120 108 57 134 122 71 146 134 82 155 143 91 162 149 95 169 157 102 166 153 97 166 152 95 158 144 86 162 147 87 153 138 78 143 128 67 136 121 60 128 112 46 38 36 35 95 94 103 149 148 155 117 116 122 95 94 100 97 96 102 92 91 98 102 101 108 117 116 123 104 103 110 96 95 102 120 119 125 71 71 75 0 0 0 2 2 2 0 0 0 0 0 0 0 0 0 0 0 0 0 0 0 0 0 0 0 0 0 0 0 0 0 0 0 0 0 0 0 0 0 0 0 0 0 0 0 0 0 0 0 0 0 0 0 0 0 0 0 0 0 0 0 0 0 
0 0 0 0 0 0 0 0 0 0 0 0 0 0 0 0 0 0 0 0 0 0 0 0 0 0 0 0 0 0 0 0 0 0 0 0 0 0 0 0 0 0 0 0 0 0 0 0 0 0 0 0 0 0 0 0 0 0 0 0 1 1 1 0 0 0 0 0 0 25 25 25 53 52 53 41 39 40 5 4 4 0 0 0 7 7 6 37 36 36 58 52 50 69 62 46 86 74 33 96 84 28 101 91 32 111 99 46 117 105 55 123 112 61 137 124 70 150 137 82 155 142 86 153 141 85 157 143 87 164 148 91 158 143 85 147 133 72 141 127 67 137 121 62 133 117 48 91 81 30 42 39 51 116 115 121 98 97 103 95 94 100 94 93 99 94 93 99 111 110 116 114 113 119 100 99 105 104 103 109 109 108 113 101 100 106 116 115 121 43 43 45 0 0 0 1 1 1 0 0 0 0 0 0 0 0 0 0 0 0 0 0 0 0 0 0 0 0 0 0 0 0 0 0 0 0 0 0 0 0 0 0 0 0 0 0 0 0 0 0 0 0 0 0 0 0 0 0 0 0 0 0 
0 0 0 0 0 0 0 0 0 0 0 0 0 0 0 0 0 0 0 0 0 0 0 0 0 0 0 0 0 0 0 0 0 0 0 0 0 0 0 0 0 0 0 0 0 0 0 0 0 0 0 0 0 0 0 0 0 0 0 0 1 1 1 1 1 1 1 1 1 0 0 0 3 3 3 33 31 32 51 49 50 29 29 29 0 0 0 11 9 12 67 57 13 57 50 18 55 50 40 64 60 51 84 76 47 105 92 37 117 104 44 122 110 53 121 109 53 131 118 61 138 125 66 142 130 71 150 137 77 144 130 69 143 130 69 138 123 60 140 125 58 131 115 46 125 110 33 48 43 34 89 87 103 121 120 125 102 101 107 99 98 104 106 105 111 115 114 120 104 103 109 96 95 101 104 103 109 105 104 110 101 100 106 99 98 104 103 102 108 98 97 103 8 8 10 1 1 1 1 1 1 0 0 0 0 0 0 0 0 0 0 0 0 0 0 0 0 0 0 0 0 0 0 0 0 0 0 0 0 0 0 0 0 0 0 0 0 0 0 0 0 0 0 0 0 0 0 0 0 0 0 0 
0 0 0 0 0 0 0 0 0 0 0 0 0 0 0 0 0 0 0 0 0 0 0 0 0 0 0 0 0 0 0 0 0 0 0 0 0 0 0 0 0 0 0 0 0 0 0 0 0 0 0 0 0 0 0 0 0 0 0 0 0 0 0 0 0 0 0 0 0 1 1 1 0 0 0 0 0 0 8 8 8 37 36 37 44 44 43 21 21 21 37 34 29 49 43 26 40 40 26 58 51 22 56 50 33 57 54 45 80 73 50 111 98 49 124 108 50 128 113 53 129 114 55 135 120 63 138 123 64 136 123 61 136 119 60 126 110 49 93 85 43 89 79 38 70 62 29 38 36 47 120 119 127 112 111 118 105 104 110 113 112 118 107 106 112 95 94 100 99 98 104 104 103 109 100 99 105 98 97 103 98 97 103 99 98 104 99 98 105 111 110 116 50 49 53 0 0 0 3 3 3 0 0 0 0 0 0 0 0 0 0 0 0 0 0 0 0 0 0 0 0 0 0 0 0 0 0 0 0 0 0 0 0 0 0 0 0 0 0 0 0 0 0 0 0 0 0 0 0 0 0 0 
0 0 0 0 0 0 0 0 0 0 0 0 0 0 0 0 0 0 0 0 0 0 0 0 0 0 0 0 0 0 0 0 0 0 0 0 0 0 0 0 0 0 0 0 0 0 0 0 0 0 0 0 0 0 0 0 0 0 0 0 0 0 0 0 0 0 0 0 0 0 0 0 0 0 0 2 2 2 0 0 0 0 0 0 14 14 14 40 39 37 36 35 33 27 26 33 26 27 45 62 53 25 93 78 9 80 71 25 65 57 31 55 53 42 73 70 53 109 96 58 131 116 55 128 113 46 127 113 50 126 112 55 128 112 48 87 78 37 32 32 46 47 44 60 42 40 53 82 81 88 125 124 132 107 106 113 111 110 116 96 95 101 92 91 97 98 97 103 98 97 103 98 97 103 103 102 108 105 104 110 104 103 109 101 100 106 99 98 105 104 103 109 99 98 102 13 13 13 1 1 1 1 1 1 0 0 0 0 0 0 0 0 0 0 0 0 0 0 0 0 0 0 0 0 0 0 0 0 0 0 0 0 0 0 0 0 0 0 0 0 0 0 0 0 0 0 0 0 0 0 0 0 
0 0 0 0 0 0 0 0 0 0 0 0 0 0 0 0 0 0 0 0 0 0 0 0 0 0 0 0 0 0 0 0 0 0 0 0 0 0 0 0 0 0 0 0 0 0 0 0 0 0 0 0 0 0 0 0 0 0 0 0 0 0 0 0 0 0 0 0 1 1 1 1 2 2 2 2 2 2 0 1 1 0 0 0 0 0 0 0 0 0 32 32 31 41 37 36 43 40 44 43 42 42 81 67 13 88 72 14 98 83 14 97 83 24 78 67 27 60 52 37 64 61 50 93 84 55 116 100 41 121 104 35 117 100 30 45 42 33 37 39 46 35 34 35 55 54 61 90 89 96 116 115 121 106 105 112 90 89 95 89 88 94 93 92 98 94 93 99 99 98 104 103 102 108 101 100 106 97 96 102 97 96 102 101 100 106 102 101 108 96 95 101 105 104 110 59 59 64 0 0 0 2 2 2 0 0 0 0 0 0 0 0 0 0 0 0 0 0 0 0 0 0 0 0 0 0 0 0 0 0 0 0 0 0 0 0 0 0 0 0 0 0 0 0 0 0 0 0 0 0 0 0 
0 0 0 0 0 0 0 0 0 0 0 0 0 0 0 0 0 0 0 0 0 0 0 0 0 0 0 0 0 0 0 0 0 0 0 0 0 0 0 0 0 0 0 0 0 0 0 0 0 0 0 0 0 0 0 0 0 0 0 0 1 1 2 0 0 0 0 0 0 0 0 0 0 0 0 0 0 0 6 6 7 25 26 30 48 51 54 72 74 80 86 88 95 77 80 84 51 51 55 39 38 42 43 40 38 58 55 55 56 51 38 95 83 9 108 91 15 111 92 14 98 82 14 60 57 32 50 46 49 79 71 47 77 69 45 42 39 47 47 47 57 8 8 10 42 41 47 90 89 96 109 108 114 85 84 90 88 87 93 90 89 95 91 90 96 93 92 98 94 93 99 93 92 98 95 94 100 98 97 103 98 97 103 96 95 101 92 91 97 94 93 98 103 102 108 104 103 109 19 19 22 0 0 0 1 1 1 0 0 0 0 0 0 0 0 0 0 0 0 0 0 0 0 0 0 0 0 0 0 0 0 0 0 0 0 0 0 0 0 0 0 0 0 0 0 0 0 0 0 0 0 0 
0 0 0 0 0 0 0 0 0 0 0 0 0 0 0 0 0 0 0 0 0 0 0 0 0 0 0 0 0 0 0 0 0 0 0 0 0 0 0 0 0 0 0 0 0 0 0 0 0 0 0 0 0 0 2 2 4 3 3 5 0 0 0 4 3 3 3 5 6 14 15 17 37 39 45 61 65 72 78 82 87 89 90 96 90 92 98 89 90 97 88 89 96 95 97 103 105 107 111 105 104 112 63 60 71 39 39 48 46 43 58 80 67 14 92 77 11 94 78 19 105 88 18 73 64 32 41 40 53 37 35 48 44 44 55 58 57 67 73 71 81 52 51 57 60 59 66 93 93 99 84 84 90 83 84 89 85 85 90 85 86 91 86 85 91 90 89 95 94 93 99 97 96 102 97 96 102 96 95 101 96 96 101 97 96 102 100 99 105 101 100 105 99 98 104 105 104 113 52 54 56 0 0 0 1 1 1 0 0 0 0 0 0 0 0 0 0 0 0 0 0 0 0 0 0 0 0 0 0 0 0 0 0 0 0 0 0 0 0 0 0 0 0 0 0 0 0 0 0 0 0 0 
0 0 0 0 0 0 0 0 0 0 0 0 0 0 0 0 0 0 0 0 0 0 0 0 0 0 0 0 0 0 0 0 0 0 0 0 0 0 0 0 0 0 0 0 0 0 0 0 1 1 1 2 2 2 0 0 0 0 0 0 28 29 35 87 90 107 109 115 139 111 119 142 114 122 143 106 113 128 95 103 113 87 90 98 93 91 97 109 108 116 126 126 135 142 142 151 151 152 161 167 166 178 186 184 193 62 62 60 36 36 43 64 56 33 80 68 5 88 72 9 77 64 16 49 44 55 46 43 50 56 53 57 47 45 47 70 70 73 118 117 124 99 97 103 82 80 86 70 71 76 80 81 86 83 84 89 84 86 90 85 86 91 87 86 92 89 88 94 90 89 95 93 92 98 95 94 100 98 97 103 99 98 104 99 98 104 99 99 105 98 97 103 102 101 107 113 112 118 88 91 95 1 2 2 1 0 1 0 0 0 0 0 0 0 0 0 0 0 0 0 0 0 0 0 0 0 0 0 0 0 0 0 0 0 0 0 0 0 0 0 0 0 0 0 0 0 0 0 0 0 0 0 
0 0 0 0 0 0 0 0 0 0 0 0 0 0 0 0 0 0 0 0 0 0 0 0 0 0 0 0 0 0 0 0 0 0 0 0 0 0 0 0 0 0 2 2 1 3 3 2 0 0 0 0 0 0 26 27 33 86 89 110 126 132 163 125 134 161 121 128 157 114 120 146 105 112 132 99 106 124 94 103 116 91 99 107 88 91 96 91 92 99 108 108 114 139 138 145 184 184 192 236 236 242 228 228 233 53 52 46 49 48 42 48 48 44 51 49 41 56 54 42 57 54 46 56 54 52 59 58 52 59 58 53 48 47 43 73 71 71 117 115 123 89 91 97 73 75 81 96 97 103 90 90 97 80 81 88 82 83 89 85 86 90 89 88 94 93 92 98 98 97 103 105 103 109 109 108 113 114 112 118 120 120 124 125 124 130 131 128 136 133 132 138 135 133 140 130 129 136 116 117 124 39 39 42 0 0 0 2 2 2 0 0 0 0 0 0 0 0 0 0 0 0 0 0 0 0 0 0 0 0 0 0 0 0 0 0 0 0 0 0 0 0 0 0 0 0 0 0 0 0 0 0 
0 0 0 0 0 0 0 0 0 0 0 0 0 0 0 0 0 0 0 0 0 0 0 0 0 0 0 0 0 0 0 0 0 0 0 0 1 1 1 2 3 2 0 0 0 0 0 0 24 26 30 80 85 101 121 126 152 123 131 159 115 121 149 112 117 143 107 113 136 103 110 130 99 106 124 98 105 123 96 103 117 89 95 106 86 89 98 82 86 94 81 82 88 84 83 88 96 94 100 144 144 149 148 148 149 40 39 33 51 50 45 50 49 44 50 49 45 49 49 46 51 50 46 51 50 45 52 51 47 54 53 48 45 44 38 86 85 85 132 130 148 94 97 103 112 114 127 108 108 119 98 98 105 105 105 115 105 106 113 99 99 104 96 95 101 99 98 105 107 107 114 111 111 118 112 113 120 113 114 120 100 100 106 96 96 104 93 92 103 92 93 101 91 93 97 104 103 111 100 99 108 82 81 86 10 10 11 1 1 1 0 0 0 0 0 0 0 0 0 0 0 0 0 0 0 0 0 0 0 0 0 0 0 0 0 0 0 0 0 0 0 0 0 0 0 0 0 0 0 0 0 0 
0 0 0 0 0 0 0 0 0 0 0 0 0 0 0 0 0 0 0 0 0 0 0 0 0 0 0 0 0 0 1 1 1 3 3 4 0 0 0 0 0 0 20 22 25 69 73 85 108 115 134 116 123 146 111 119 144 109 116 140 109 115 137 106 113 133 104 111 129 104 111 128 102 109 128 101 109 127 101 109 128 103 110 127 102 108 122 101 107 117 97 101 107 96 97 102 93 93 98 84 84 92 77 77 82 52 53 48 51 49 45 47 45 38 47 46 39 47 45 39 45 44 39 44 44 38 46 45 37 47 47 39 39 39 30 90 91 94 120 121 133 111 112 120 127 127 139 139 139 148 130 130 137 125 125 133 110 111 117 106 107 112 108 107 113 107 107 113 110 112 119 112 115 122 114 116 123 119 121 129 112 112 119 108 109 118 89 92 103 79 80 88 82 83 87 108 107 115 117 117 124 64 63 71 51 51 54 0 0 0 2 2 2 0 0 0 0 0 0 0 0 0 0 0 0 0 0 0 0 0 0 0 0 0 0 0 0 0 0 0 0 0 0 0 0 0 0 0 0 0 0 0 
0 0 0 0 0 0 0 0 0 0 0 0 0 0 0 0 0 0 0 0 0 0 0 0 0 1 1 3 3 3 0 0 0 0 0 0 19 20 25 70 72 86 108 113 130 113 122 141 113 119 142 111 117 140 108 115 136 104 111 129 102 110 124 100 107 122 96 104 116 93 102 110 91 99 107 91 96 106 90 96 105 89 95 107 93 99 112 99 104 117 109 111 122 118 118 126 127 127 134 125 126 133 126 127 131 115 117 121 98 97 101 97 97 103 65 63 65 63 61 57 69 66 58 74 72 66 71 72 68 80 79 79 85 83 85 113 112 115 124 121 133 111 110 121 113 111 121 111 111 123 103 105 114 100 103 110 99 102 109 97 99 107 97 97 108 99 99 109 100 100 111 97 97 108 93 94 102 85 87 94 94 96 103 120 121 131 112 113 125 133 135 147 149 151 163 163 164 178 194 194 205 94 92 105 59 58 63 14 14 14 0 0 0 1 1 1 0 0 0 0 0 0 0 0 0 0 0 0 0 0 0 0 0 0 0 0 0 0 0 0 0 0 0 0 0 0 0 0 0 0 0 0 
0 0 0 0 0 0 0 0 0 0 0 0 0 0 0 0 0 0 1 1 1 3 2 2 0 0 0 0 0 0 15 16 17 59 64 71 99 105 115 106 114 129 102 110 128 103 110 127 100 108 121 96 104 115 95 102 112 95 102 110 99 104 114 100 106 117 100 108 119 103 110 126 105 111 133 106 112 135 111 117 140 121 126 148 124 131 146 119 126 137 118 122 131 119 121 130 126 128 138 126 127 137 124 124 134 114 114 119 101 100 107 114 109 99 133 123 92 134 126 93 136 128 95 130 124 114 112 111 118 110 111 120 117 118 129 108 110 120 110 112 124 108 111 123 108 111 122 110 113 125 110 113 123 108 111 119 106 108 117 108 110 118 113 113 121 120 121 128 129 129 137 132 132 140 122 124 133 119 121 131 123 126 136 151 153 165 144 147 160 143 146 158 150 153 165 159 161 176 184 187 201 166 166 177 59 57 67 42 41 44 0 0 0 2 2 1 0 0 0 0 0 0 0 0 0 0 0 0 0 0 0 0 0 0 0 0 0 0 0 0 0 0 0 0 0 0 0 0 0 0 0 0 
0 0 0 0 0 0 0 0 0 0 0 0 1 1 1 3 3 3 0 0 0 0 0 0 11 11 13 54 57 62 90 95 103 97 104 113 95 102 111 96 102 114 97 104 116 97 103 117 100 107 122 106 112 129 113 119 139 117 124 147 121 125 153 124 130 160 125 132 163 127 133 162 127 133 162 127 134 164 127 134 163 131 137 162 126 132 156 122 128 147 116 122 140 113 118 135 111 116 133 107 111 125 105 107 116 107 109 119 110 113 124 116 118 124 120 125 127 119 127 135 119 125 141 119 125 140 122 129 141 124 130 142 126 131 143 131 134 148 132 135 149 130 133 146 132 136 149 136 138 152 135 137 149 132 134 145 136 136 149 144 144 157 151 152 166 142 143 154 133 134 140 134 135 141 118 120 127 102 104 111 99 102 110 129 134 141 118 123 131 103 109 120 116 119 130 127 133 142 144 148 162 177 183 195 122 124 133 46 44 51 9 9 10 1 1 1 0 0 0 0 0 0 0 0 0 0 0 0 0 0 0 0 0 0 0 0 0 0 0 0 0 0 0 0 0 0 0 0 0 0 0 0 
0 0 0 0 0 0 0 0 0 0 0 0 2 2 2 3 3 3 18 16 17 52 50 56 91 94 103 100 103 112 97 101 115 101 107 124 116 121 142 120 126 151 120 127 153 126 133 161 128 134 166 127 133 164 123 131 161 119 128 155 121 129 154 122 128 151 118 123 147 116 122 144 112 118 137 112 118 136 111 117 134 109 115 128 109 114 128 113 116 129 114 117 130 114 116 129 115 117 130 119 122 135 121 126 140 123 128 142 129 135 147 131 137 151 133 142 155 142 149 160 143 149 162 145 152 165 146 152 167 146 152 168 148 155 170 148 154 169 150 155 171 151 156 172 147 152 168 140 144 162 130 135 151 122 128 139 118 122 133 119 123 135 117 123 134 113 119 128 114 120 128 111 116 125 104 107 114 93 96 102 102 102 111 122 116 129 142 131 146 123 112 128 143 130 146 156 137 152 176 158 176 201 178 197 226 202 220 101 96 107 16 15 22 0 0 0 1 1 1 0 0 0 0 0 0 0 0 0 0 0 0 0 0 0 0 0 0 0 0 0 0 0 0 0 0 0 0 0 0 0 0 0 
0 0 0 0 0 0 0 0 0 0 0 0 2 2 2 0 0 0 111 109 115 82 81 92 82 85 94 122 127 146 136 142 168 125 133 158 108 111 137 110 113 139 119 126 154 112 118 143 107 113 135 106 113 131 107 111 126 106 110 124 108 112 127 105 108 123 106 109 123 104 108 121 107 110 123 110 113 127 111 115 129 112 118 130 117 122 135 124 127 142 128 130 146 129 132 148 133 136 153 135 139 155 136 143 157 141 147 161 145 150 165 148 153 168 147 154 166 148 154 168 150 155 169 147 153 166 142 147 162 139 144 161 134 141 156 126 135 148 122 128 142 124 131 146 125 130 146 119 125 140 117 122 134 113 117 126 114 113 123 122 116 128 132 124 138 140 129 143 145 134 147 147 135 148 144 129 144 146 127 143 150 126 143 150 128 145 175 157 172 157 137 152 151 127 147 175 140 164 188 157 178 152 130 145 132 122 128 96 90 98 75 74 83 13 13 15 0 0 0 2 2 2 0 0 0 0 0 0 0 0 0 0 0 0 0 0 0 0 0 0 0 0 0 0 0 0 0 0 0 0 0 0 
0 0 0 0 0 0 0 0 0 0 0 0 0 0 0 13 13 15 128 127 132 59 60 69 92 95 109 97 103 119 87 92 109 82 84 101 27 25 28 59 57 66 104 106 124 100 103 115 107 111 123 111 115 129 109 113 124 109 113 124 105 108 123 110 113 128 116 120 135 119 122 137 120 123 138 119 122 137 124 127 142 127 133 148 132 138 152 137 140 155 139 141 156 138 141 156 134 136 151 132 137 151 131 138 152 132 139 153 132 138 152 131 137 151 127 135 148 127 135 148 130 137 151 131 136 151 131 135 150 132 135 150 135 132 148 139 132 149 142 132 150 151 134 152 161 137 157 165 138 156 162 135 150 159 133 148 159 132 150 167 138 156 165 136 154 165 135 153 156 129 146 127 109 123 104 91 100 85 77 83 67 63 68 41 40 44 40 39 42 53 48 54 83 70 81 112 93 106 128 102 118 145 119 136 149 125 142 174 136 159 85 76 86 36 39 41 3 3 2 1 1 1 0 0 0 0 0 0 0 0 0 0 0 0 0 0 0 0 0 0 0 0 0 0 0 0 0 0 0 0 0 0 
0 0 0 0 0 0 0 0 0 2 2 1 0 0 0 48 48 47 117 117 123 57 60 71 85 89 98 95 99 115 100 104 124 84 88 107 30 28 34 61 63 74 104 110 126 105 110 123 118 120 135 120 122 140 118 121 137 121 124 140 124 126 141 126 127 142 127 129 144 123 126 141 123 126 140 122 126 140 124 129 143 125 131 145 126 130 145 123 128 144 121 127 143 120 126 139 119 125 137 120 126 139 126 131 145 132 134 149 138 135 151 147 139 157 153 141 160 156 141 158 165 144 162 174 147 169 177 145 167 182 145 165 186 148 171 181 145 166 181 141 164 170 134 156 163 133 154 156 132 156 134 117 137 88 74 80 66 57 62 56 48 53 32 26 29 17 15 17 7 8 8 0 0 0 0 0 0 0 0 0 0 0 0 0 0 0 0 0 0 0 0 0 0 0 0 0 0 0 0 0 0 0 0 0 0 0 0 17 15 18 29 27 33 37 36 41 12 12 16 0 0 0 0 0 0 0 0 0 0 0 0 0 0 0 0 0 0 0 0 0 0 0 0 0 0 0 0 0 0 0 0 0 
0 0 0 0 0 0 0 0 0 3 3 3 0 0 0 88 88 89 92 92 101 66 71 80 92 96 109 93 98 117 93 98 117 81 86 103 27 24 31 69 71 83 111 117 135 117 122 138 120 122 137 115 118 132 118 121 136 116 120 135 114 121 135 113 121 135 113 119 133 111 116 131 115 120 135 121 126 140 126 126 142 129 127 143 136 130 147 139 132 148 145 131 149 153 134 153 163 138 158 174 144 166 182 150 171 183 148 170 182 144 165 178 143 163 180 143 165 182 141 164 176 137 163 171 136 161 173 140 169 163 138 171 119 100 122 122 100 123 126 123 152 124 129 162 105 114 145 110 120 150 91 90 114 0 0 0 0 0 0 0 0 0 0 0 0 0 0 0 0 0 0 1 1 1 2 1 1 2 2 2 2 2 2 2 2 2 2 2 2 2 2 2 3 2 2 3 3 3 3 2 3 2 2 2 1 0 0 10 10 13 36 35 41 32 31 37 4 4 7 1 1 1 0 0 0 0 0 0 0 0 0 0 0 0 0 0 0 0 0 0 0 0 0 0 0 0 0 0 0 0 0 0 
0 0 0 0 0 0 0 0 0 1 2 2 0 0 0 122 119 122 77 76 86 74 79 90 88 90 107 92 95 115 90 96 116 79 85 101 25 22 30 71 75 87 112 122 134 111 119 131 112 118 132 113 119 133 117 122 136 122 123 136 126 122 137 132 124 140 139 126 142 141 124 141 149 128 145 160 134 151 170 137 156 170 137 156 173 138 160 177 141 164 183 147 171 174 140 162 159 128 149 142 115 134 130 107 125 141 116 134 148 120 139 177 137 162 155 107 134 168 140 164 157 146 168 145 127 152 144 130 168 133 130 177 59 59 75 96 81 102 117 122 151 128 126 163 119 106 140 103 89 116 101 81 101 32 26 29 3 3 3 4 3 4 2 1 1 1 1 1 1 1 1 0 0 0 0 0 0 0 0 0 0 0 0 0 0 0 0 0 0 0 0 0 0 0 0 0 0 0 0 0 0 1 1 1 0 0 0 17 16 20 39 38 46 21 20 24 0 0 0 1 1 1 0 0 0 0 0 0 0 0 0 0 0 0 0 0 0 0 0 0 0 0 0 0 0 0 0 0 0 0 0 0 
0 0 0 0 0 0 0 0 0 0 0 0 16 17 16 134 132 138 76 76 88 86 89 103 97 98 115 93 96 115 114 107 124 86 80 95 22 21 27 93 89 104 139 128 143 140 123 141 147 123 143 147 120 141 149 119 139 148 119 137 150 119 138 155 123 141 160 129 149 170 137 163 176 141 169 164 131 155 156 126 145 150 120 141 144 114 137 128 101 121 86 69 80 33 29 32 8 9 10 0 0 0 0 0 0 0 0 0 20 19 20 79 71 85 101 91 112 99 101 114 137 123 138 141 122 140 162 146 178 144 133 175 113 90 110 169 123 153 109 95 124 71 61 80 42 35 43 12 11 15 14 15 11 27 27 27 0 0 0 1 1 1 0 0 0 0 0 0 0 0 0 0 0 0 0 0 0 0 0 0 0 0 0 0 0 0 0 0 0 0 0 0 0 0 0 0 0 0 0 0 0 0 0 0 0 0 0 0 0 0 7 7 10 4 4 6 0 0 0 0 0 0 0 0 0 0 0 0 0 0 0 0 0 0 0 0 0 0 0 0 0 0 0 0 0 0 0 0 0 0 0 0 
0 0 0 0 0 0 2 2 2 0 0 0 52 53 54 129 120 137 20 22 30 62 62 72 105 95 115 110 105 126 133 107 131 95 72 87 18 23 25 107 94 109 155 122 141 151 122 140 149 123 144 159 132 154 174 144 171 187 151 186 202 163 205 206 160 211 195 150 195 170 130 167 155 115 146 139 101 125 116 84 101 80 59 72 35 27 32 3 2 2 0 0 0 0 0 0 1 0 0 2 2 1 3 2 3 2 2 3 0 0 0 0 0 0 0 0 0 15 16 15 5 6 6 7 8 9 48 41 49 32 29 36 50 36 40 90 65 77 17 12 15 0 0 0 0 0 0 0 0 0 3 2 4 0 0 0 0 0 0 0 0 0 0 0 0 0 0 0 0 0 0 0 0 0 0 0 0 0 0 0 0 0 0 0 0 0 0 0 0 0 0 0 0 0 0 0 0 0 0 0 0 0 0 0 0 0 0 1 1 1 1 1 1 0 0 0 0 0 0 0 0 0 0 0 0 0 0 0 0 0 0 0 0 0 0 0 0 0 0 0 0 0 0 0 0 0 0 0 0 0 0 0 
0 0 0 0 0 0 4 4 4 0 0 0 77 78 80 103 94 114 120 96 115 170 138 167 195 152 195 191 145 194 205 169 205 112 101 116 11 13 19 150 133 156 210 179 214 214 174 228 232 186 246 243 192 255 240 185 250 214 162 220 179 133 174 150 109 140 134 96 121 116 85 104 84 62 75 47 37 44 9 9 9 0 0 0 0 0 0 0 0 0 3 2 2 1 1 1 0 0 0 0 0 0 0 0 0 0 0 0 1 1 1 3 2 2 2 1 0 0 0 0 0 0 0 0 0 0 0 0 0 0 0 0 0 0 0 0 0 0 0 0 0 2 1 2 1 1 1 1 0 1 0 0 1 1 1 1 0 0 0 0 0 0 0 0 0 0 0 0 0 0 0 0 0 0 0 0 0 0 0 0 0 0 0 0 0 0 0 0 0 0 0 0 0 0 0 0 0 0 0 0 0 0 0 0 0 0 0 0 0 0 0 0 0 0 0 0 0 0 0 0 0 0 0 0 0 0 0 0 0 0 0 0 0 0 0 0 0 0 0 0 0 0 0 0 0 0 0 0 0 0 0 0 
0 0 0 0 0 0 1 1 1 2 3 2 122 109 122 181 141 174 174 152 185 230 185 238 233 196 239 220 178 226 232 190 238 116 104 126 23 27 28 231 191 245 255 204 255 240 184 247 213 161 211 162 115 152 122 85 108 116 83 101 113 82 97 90 69 80 55 40 49 16 12 15 0 0 0 0 0 0 0 0 0 2 2 2 2 1 1 0 0 0 0 0 0 0 0 0 0 0 0 0 0 0 0 0 0 0 0 0 0 0 0 0 0 0 0 0 0 1 1 1 0 0 1 0 0 0 2 2 2 1 1 2 2 1 2 3 2 3 1 0 1 0 0 0 0 0 0 0 0 0 0 0 0 0 0 0 0 0 0 0 0 0 0 0 0 0 0 0 0 0 0 0 0 0 0 0 0 0 0 0 0 0 0 0 0 0 0 0 0 0 0 0 0 0 0 0 0 0 0 0 0 0 0 0 0 0 0 0 0 0 0 0 0 0 0 0 0 0 0 0 0 0 0 0 0 0 0 0 0 0 0 0 0 0 0 0 0 0 0 0 0 0 0 0 0 0 0 0 0 0 0 0 
0 0 0 0 0 0 1 2 2 4 4 3 67 51 60 82 69 78 109 103 124 141 124 156 251 214 250 255 214 255 255 209 255 129 104 134 64 53 63 203 158 200 112 87 113 112 83 101 106 78 91 111 85 99 115 95 108 90 70 83 20 15 20 0 0 0 0 0 0 0 0 0 2 2 2 2 2 2 0 1 1 0 0 0 0 0 0 0 0 0 0 0 0 0 0 0 0 0 0 0 0 0 0 0 0 0 0 0 0 0 0 0 0 0 0 0 0 0 0 0 0 0 0 0 0 0 0 0 0 0 0 0 0 0 0 0 0 0 0 0 0 0 0 0 0 0 0 0 0 0 0 0 0 0 0 0 0 0 0 0 0 0 0 0 0 0 0 0 0 0 0 0 0 0 0 0 0 0 0 0 0 0 0 0 0 0 0 0 0 0 0 0 0 0 0 0 0 0 0 0 0 0 0 0 0 0 0 0 0 0 0 0 0 0 0 0 0 0 0 0 0 0 0 0 0 0 0 0 0 0 0 0 0 0 0 0 0 0 0 0 0 0 0 0 0 0 0 0 0 0 0 0 
0 0 0 0 0 0 2 2 2 3 3 3 0 0 0 0 0 0 96 89 93 120 111 136 99 89 120 124 106 139 189 147 199 221 172 216 148 103 124 154 116 139 118 91 109 129 97 118 105 85 100 82 68 79 28 25 28 1 0 0 0 0 0 2 2 2 2 2 2 0 0 0 0 0 0 0 0 0 0 0 0 0 0 0 0 0 0 0 0 0 0 0 0 0 0 0 0 0 0 0 0 0 0 0 0 0 0 0 0 0 0 0 0 0 0 0 0 0 0 0 0 0 0 0 0 0 0 0 0 0 0 0 0 0 0 0 0 0 0 0 0 0 0 0 0 0 0 0 0 0 0 0 0 0 0 0 0 0 0 0 0 0 0 0 0 0 0 0 0 0 0 0 0 0 0 0 0 0 0 0 0 0 0 0 0 0 0 0 0 0 0 0 0 0 0 0 0 0 0 0 0 0 0 0 0 0 0 0 0 0 0 0 0 0 0 0 0 0 0 0 0 0 0 0 0 0 0 0 0 0 0 0 0 0 0 0 0 0 0 0 0 0 0 0 0 0 0 0 0 0 0 0 
0 0 0 0 0 0 0 1 1 0 0 0 3 2 2 3 3 3 0 0 0 40 34 42 70 57 72 78 69 87 82 69 91 75 58 69 25 17 21 29 25 31 38 31 38 24 18 24 0 0 0 0 0 0 0 0 0 3 3 3 1 1 1 0 0 0 0 0 0 0 0 0 0 0 0 0 0 0 0 0 0 0 0 0 0 0 0 0 0 0 0 0 0 0 0 0 0 0 0 0 0 0 0 0 0 0 0 0 0 0 0 0 0 0 0 0 0 0 0 0 0 0 0 0 0 0 0 0 0 0 0 0 0 0 0 0 0 0 0 0 0 0 0 0 0 0 0 0 0 0 0 0 0 0 0 0 0 0 0 0 0 0 0 0 0 0 0 0 0 0 0 0 0 0 0 0 0 0 0 0 0 0 0 0 0 0 0 0 0 0 0 0 0 0 0 0 0 0 0 0 0 0 0 0 0 0 0 0 0 0 0 0 0 0 0 0 0 0 0 0 0 0 0 0 0 0 0 0 0 0 0 0 0 0 0 0 0 0 0 0 0 0 0 0 0 0 0 0 0 0 0 0 
0 0 0 0 0 0 0 0 0 0 0 0 0 0 0 0 0 0 1 1 2 0 0 0 0 0 0 4 4 3 2 0 0 0 0 0 0 0 0 0 0 0 0 0 0 0 0 0 1 1 0 2 2 2 1 0 1 0 0 0 0 0 0 0 0 0 0 0 0 0 0 0 0 0 0 0 0 0 0 0 0 0 0 0 0 0 0 0 0 0 0 0 0 0 0 0 0 0 0 0 0 0 0 0 0 0 0 0 0 0 0 0 0 0 0 0 0 0 0 0 0 0 0 0 0 0 0 0 0 0 0 0 0 0 0 0 0 0 0 0 0 0 0 0 0 0 0 0 0 0 0 0 0 0 0 0 0 0 0 0 0 0 0 0 0 0 0 0 0 0 0 0 0 0 0 0 0 0 0 0 0 0 0 0 0 0 0 0 0 0 0 0 0 0 0 0 0 0 0 0 0 0 0 0 0 0 0 0 0 0 0 0 0 0 0 0 0 0 0 0 0 0 0 0 0 0 0 0 0 0 0 0 0 0 0 0 0 0 0 0 0 0 0 0 0 0 0 0 0 0 0 0 
0 0 0 0 0 0 0 0 0 0 0 0 0 0 0 0 0 0 0 0 0 2 2 2 5 3 4 3 2 3 2 2 2 3 2 3 1 1 1 1 1 1 1 1 1 1 1 1 0 0 0 0 0 0 0 0 0 0 0 0 0 0 0 0 0 0 0 0 0 0 0 0 0 0 0 0 0 0 0 0 0 0 0 0 0 0 0 0 0 0 0 0 0 0 0 0 0 0 0 0 0 0 0 0 0 0 0 0 0 0 0 0 0 0 0 0 0 0 0 0 0 0 0 0 0 0 0 0 0 0 0 0 0 0 0 0 0 0 0 0 0 0 0 0 0 0 0 0 0 0 0 0 0 0 0 0 0 0 0 0 0 0 0 0 0 0 0 0 0 0 0 0 0 0 0 0 0 0 0 0 0 0 0 0 0 0 0 0 0 0 0 0 0 0 0 0 0 0 0 0 0 0 0 0 0 0 0 0 0 0 0 0 0 0 0 0 0 0 0 0 0 0 0 0 0 0 0 0 0 0 0 0 0 0 0 0 0 0 0 0 0 0 0 0 0 0 0 0 0 0 0 0 
0 0 0 0 0 0 0 0 0 0 0 0 0 0 0 0 0 0 0 0 0 0 0 0 0 0 0 0 0 0 0 0 0 0 0 0 0 0 0 0 0 0 0 0 0 0 0 0 0 0 0 0 0 0 0 0 0 0 0 0 0 0 0 0 0 0 0 0 0 0 0 0 0 0 0 0 0 0 0 0 0 0 0 0 0 0 0 0 0 0 0 0 0 0 0 0 0 0 0 0 0 0 0 0 0 0 0 0 0 0 0 0 0 0 0 0 0 0 0 0 0 0 0 0 0 0 0 0 0 0 0 0 0 0 0 0 0 0 0 0 0 0 0 0 0 0 0 0 0 0 0 0 0 0 0 0 0 0 0 0 0 0 0 0 0 0 0 0 0 0 0 0 0 0 0 0 0 0 0 0 0 0 0 0 0 0 0 0 0 0 0 0 0 0 0 0 0 0 0 0 0 0 0 0 0 0 0 0 0 0 0 0 0 0 0 0 0 0 0 0 0 0 0 0 0 0 0 0 0 0 0 0 0 0 0 0 0 0 0 0 0 0 0 0 0 0 0 0 0 0 0 0 
0 0 0 0 0 0 0 0 0 0 0 0 0 0 0 0 0 0 0 0 0 0 0 0 0 0 0 0 0 0 0 0 0 0 0 0 0 0 0 0 0 0 0 0 0 0 0 0 0 0 0 0 0 0 0 0 0 0 0 0 0 0 0 0 0 0 0 0 0 0 0 0 0 0 0 0 0 0 0 0 0 0 0 0 0 0 0 0 0 0 0 0 0 0 0 0 0 0 0 0 0 0 0 0 0 0 0 0 0 0 0 0 0 0 0 0 0 0 0 0 0 0 0 0 0 0 0 0 0 0 0 0 0 0 0 0 0 0 0 0 0 0 0 0 0 0 0 0 0 0 0 0 0 0 0 0 0 0 0 0 0 0 0 0 0 0 0 0 0 0 0 0 0 0 0 0 0 0 0 0 0 0 0 0 0 0 0 0 0 0 0 0 0 0 0 0 0 0 0 0 0 0 0 0 0 0 0 0 0 0 0 0 0 0 0 0 0 0 0 0 0 0 0 0 0 0 0 0 0 0 0 0 0 0 0 0 0 0 0 0 0 0 0 0 0 0 0 0 0 0 0 0 
0 0 0 0 0 0 0 0 0 0 0 0 0 0 0 0 0 0 0 0 0 0 0 0 0 0 0 0 0 0 0 0 0 0 0 0 0 0 0 0 0 0 0 0 0 0 0 0 0 0 0 0 0 0 0 0 0 0 0 0 0 0 0 0 0 0 0 0 0 0 0 0 0 0 0 0 0 0 0 0 0 0 0 0 0 0 0 0 0 0 0 0 0 0 0 0 0 0 0 0 0 0 0 0 0 0 0 0 0 0 0 0 0 0 0 0 0 0 0 0 0 0 0 0 0 0 0 0 0 0 0 0 0 0 0 0 0 0 0 0 0 0 0 0 0 0 0 0 0 0 0 0 0 0 0 0 0 0 0 0 0 0 0 0 0 0 0 0 0 0 0 0 0 0 0 0 0 0 0 0 0 0 0 0 0 0 0 0 0 0 0 0 0 0 0 0 0 0 0 0 0 0 0 0 0 0 0 0 0 0 0 0 0 0 0 0 0 0 0 0 0 0 0 0 0 0 0 0 0 0 0 0 0 0 0 0 0 0 0 0 0 0 0 0 0 0 0 0 0 0 0 0 
0 0 0 0 0 0 0 0 0 0 0 0 0 0 0 0 0 0 0 0 0 0 0 0 0 0 0 0 0 0 0 0 0 0 0 0 0 0 0 0 0 0 0 0 0 0 0 0 0 0 0 0 0 0 0 0 0 0 0 0 0 0 0 0 0 0 0 0 0 0 0 0 0 0 0 0 0 0 0 0 0 0 0 0 0 0 0 0 0 0 0 0 0 0 0 0 0 0 0 0 0 0 0 0 0 0 0 0 0 0 0 0 0 0 0 0 0 0 0 0 0 0 0 0 0 0 0 0 0 0 0 0 0 0 0 0 0 0 0 0 0 0 0 0 0 0 0 0 0 0 0 0 0 0 0 0 0 0 0 0 0 0 0 0 0 0 0 0 0 0 0 0 0 0 0 0 0 0 0 0 0 0 0 0 0 0 0 0 0 0 0 0 0 0 0 0 0 0 0 0 0 0 0 0 0 0 0 0 0 0 0 0 0 0 0 0 0 0 0 0 0 0 0 0 0 0 0 0 0 0 0 0 0 0 0 0 0 0 0 0 0 0 0 0 0 0 0 0 0 0 0 0 
