P3
42 34
255
0 0 0 0 0 0 0 0 0 0 0 0 0 0 0 0 0 0 0 0 0 0 0 0 0 0 0 0 0 0 0 0 0 0 0 0 0 0 0 0 0 0 0 0 0 0 0 0 0 0 0 0 0 0 0 0 0 0 0 0 0 0 0 0 0 0 0 0 0 0 0 0 0 0 0 0 0 0 0 0 0 0 0 0 0 0 0 0 0 0 0 0 0 0 0 0 0 0 0 0 0 0 0 0 0 0 0 0 0 0 0 0 0 0 0 0 0 0 0 0 0 0 0 0 0 0 
0 0 0 0 0 0 0 0 0 0 0 0 0 0 0 0 0 0 0 0 0 0 0 0 0 0 0 0 0 0 0 0 0 0 0 0 0 0 0 0 0 0 0 0 0 0 0 0 0 0 0 0 0 0 0 0 0 0 0 0 0 0 0 0 0 0 0 0 0 0 0 0 0 0 0 0 0 0 0 0 0 0 0 0 0 0 0 0 0 0 0 0 0 0 0 0 0 0 0 0 0 0 0 0 0 0 0 0 0 0 0 0 0 0 0 0 0 0 0 0 0 0 0 0 0 0 
0 0 0 0 0 0 0 0 0 0 0 0 0 0 0 0 0 0 0 0 0 0 0 0 0 0 0 0 0 0 0 0 0 0 0 0 0 0 0 0 0 0 0 0 0 0 0 0 0 0 0 0 0 0 0 0 0 0 0 0 0 0 0 0 0 0 0 0 0 0 0 0 0 0 0 0 0 0 0 0 0 0 0 0 0 0 0 0 0 0 0 0 0 0 0 0 0 0 0 0 0 0 0 0 0 0 0 0 0 0 0 0 0 0 0 0 0 0 0 0 0 0 0 0 0 0 
0 0 0 0 0 0 0 0 0 0 0 0 0 0 0 0 0 0 0 0 0 0 0 0 0 0 0 0 0 0 0 0 0 0 0 0 0 0 0 0 0 0 0 0 0 0 0 0 0 0 0 5 5 5 1 1 1 0 0 0 0 0 0 0 0 0 0 0 0 0 0 0 0 0 0 0 0 0 0 0 0 0 0 0 0 0 0 0 0 0 0 0 0 0 0 0 0 0 0 0 0 0 0 0 0 0 0 0 0 0 0 0 0 0 0 0 0 0 0 0 0 0 0 0 0 0 
0 0 0 0 0 0 0 0 0 0 0 0 0 0 0 0 0 0 0 0 0 0 0 0 0 0 0 0 0 0 0 0 0 0 0 0 0 0 0 0 0 0 0 0 0 0 0 0 0 0 0 3 3 3 1 1 1 0 0 0 0 0 0 0 0 0 0 0 0 0 0 0 0 0 0 0 0 0 0 0 0 0 0 0 0 0 0 0 0 0 0 0 0 0 0 0 0 0 0 0 0 0 0 0 0 0 0 0 0 0 0 0 0 0 0 0 0 0 0 0 0 0 0 0 0 0 
0 0 0 0 0 0 0 0 0 0 0 0 0 0 0 0 0 0 0 0 0 0 0 0 0 0 0 0 0 0 0 0 0 0 0 0 0 0 0 0 0 0 0 0 0 0 0 0 0 0 0 0 0 0 9 9 9 15 15 17 7 6 8 0 0 0 0 0 1 0 0 0 0 0 0 0 0 0 0 0 0 0 0 0 0 0 0 0 0 0 0 0 0 0 0 0 0 0 0 0 0 0 0 0 0 0 0 0 0 0 0 0 0 0 0 0 0 0 0 0 0 0 0 0 0 0 
0 0 0 0 0 0 0 0 0 0 0 0 0 0 0 0 0 0 0 0 0 0 0 0 0 0 0 0 0 0 0 0 0 0 0 0 0 0 0 0 0 0 0 0 0 0 0 0 7 8 8 23 22 22 32 32 35 26 26 31 35 33 46 7 7 8 0 0 0 0 0 0 0 0 0 0 0 0 0 0 0 0 0 0 0 0 0 0 0 0 0 0 0 0 0 0 0 0 0 0 0 0 0 0 0 0 0 0 0 0 0 0 0 0 0 0 0 0 0 0 0 0 0 0 0 0 
0 0 0 0 0 0 0 0 0 0 0 0 0 0 0 0 0 0 0 0 0 0 0 0 0 0 0 0 0 0 0 0 0 1 1 1 0 0 0 0 0 0 5 5 5 22 22 22 27 26 26 2 2 6 41 38 35 145 137 100 87 83 72 14 12 19 10 10 11 12 12 10 0 0 0 0 0 0 0 0 0 0 0 0 0 0 0 0 0 0 0 0 0 0 0 0 0 0 0 0 0 0 0 0 0 0 0 0 0 0 0 0 0 0 0 0 0 0 0 0 0 0 0 0 0 0 
0 0 0 0 0 0 0 0 0 0 0 0 0 0 0 0 0 0 0 0 0 0 0 0 0 0 0 1 1 1 0 0 0 0 0 0 7 7 7 25 25 27 20 20 22 6 6 5 11 10 9 37 33 31 111 104 79 194 184 138 183 174 136 157 148 117 92 87 77 7 8 19 5 5 5 2 2 2 0 0 0 0 0 0 0 0 0 0 0 0 0 0 0 0 0 0 0 0 0 0 0 0 0 0 0 0 0 0 0 0 0 0 0 0 0 0 0 0 0 0 0 0 0 0 0 0 
0 0 0 0 0 0 0 0 0 0 0 0 0 0 0 0 0 0 0 0 0 0 0 0 0 0 0 0 0 0 8 8 8 25 25 26 29 28 30 11 11 11 0 0 0 0 0 2 36 34 32 126 118 78 162 153 112 192 183 144 223 212 169 250 237 187 197 187 148 102 96 77 65 60 53 1 1 6 0 0 0 0 0 0 0 0 0 0 0 0 0 0 0 0 0 0 0 0 0 0 0 0 0 0 0 0 0 0 0 0 0 0 0 0 0 0 0 0 0 0 0 0 0 0 0 0 
0 0 0 0 0 0 0 0 0 0 0 0 0 0 0 0 0 0 0 0 0 0 0 0 8 8 8 26 26 28 30 30 30 13 13 14 0 0 0 0 0 0 2 2 1 51 47 29 91 83 52 135 126 86 169 160 120 205 196 154 236 227 183 245 236 193 236 225 175 222 209 151 157 147 104 26 26 32 0 0 0 1 1 1 0 0 0 0 0 0 0 0 0 0 0 0 0 0 0 0 0 0 0 0 0 0 0 0 0 0 0 0 0 0 0 0 0 0 0 0 0 0 0 0 0 0 
0 0 0 0 0 0 0 0 0 0 0 0 0 0 0 0 0 0 0 0 0 16 16 18 30 30 31 16 16 16 0 0 0 0 0 0 1 1 1 0 0 0 21 19 9 96 87 41 111 101 60 135 126 86 170 161 121 226 215 168 250 245 207 245 242 219 239 229 180 213 201 150 157 146 100 30 29 32 0 0 0 1 1 1 0 0 0 0 0 0 0 0 0 0 0 0 0 0 0 0 0 0 0 0 0 0 0 0 0 0 0 0 0 0 0 0 0 0 0 0 0 0 0 0 0 0 
0 0 0 0 0 0 0 0 0 0 0 0 0 0 0 0 0 0 7 7 7 53 52 60 32 31 34 0 0 0 1 1 1 0 0 0 1 1 1 0 0 0 13 13 11 85 77 42 108 99 57 139 130 88 191 180 135 201 192 151 224 220 192 255 255 233 238 227 178 215 202 145 117 110 83 27 27 44 0 0 0 0 0 1 0 0 0 0 0 0 0 0 0 0 0 0 0 0 0 0 0 0 0 0 0 0 0 0 0 0 0 0 0 0 0 0 0 0 0 0 0 0 0 0 0 0 
0 0 0 0 0 0 0 0 0 0 0 0 1 1 1 0 0 0 17 17 19 45 44 51 19 19 20 0 0 0 1 1 1 1 1 1 1 1 1 0 0 0 6 6 8 80 72 39 112 103 57 124 115 76 78 75 60 44 43 37 62 62 57 243 234 184 232 220 167 203 191 136 156 145 97 35 34 39 0 0 0 1 1 1 0 0 0 0 0 1 0 0 0 0 0 0 0 0 0 0 0 0 0 0 0 0 0 0 0 0 0 0 0 0 0 0 0 0 0 0 0 0 0 0 0 0 
0 0 0 0 0 0 0 0 0 0 0 0 0 0 0 0 0 0 9 8 9 38 38 40 35 34 37 11 10 13 1 1 2 0 0 0 1 1 0 0 0 0 22 19 11 93 83 35 109 97 52 125 115 73 61 58 44 0 0 3 19 19 22 209 200 152 216 205 148 191 180 124 150 138 85 41 38 41 0 0 0 1 1 0 0 0 0 0 0 0 1 1 1 1 1 1 0 0 0 0 0 0 0 0 0 0 0 0 0 0 0 0 0 0 0 0 0 0 0 0 0 0 0 0 0 0 
0 0 0 0 0 0 0 0 0 0 0 0 0 0 0 0 0 0 0 0 0 4 4 4 29 28 26 46 44 45 31 30 34 16 16 20 7 6 7 0 0 0 6 6 8 76 68 32 101 89 41 125 114 66 161 150 99 81 76 62 122 114 90 219 206 151 192 180 127 180 167 103 104 94 65 47 46 67 0 0 0 5 5 5 7 7 7 7 7 7 4 4 5 0 0 0 0 0 0 0 0 0 0 0 0 0 0 0 0 0 0 0 0 0 0 0 0 0 0 0 0 0 0 0 0 0 
0 0 0 0 0 0 0 0 0 0 0 0 0 0 0 0 0 0 0 0 0 0 0 0 0 0 0 10 11 9 32 32 29 33 32 33 24 24 26 19 19 23 28 26 24 83 72 24 98 85 31 112 100 50 135 123 74 172 159 104 188 176 120 179 167 111 172 158 101 161 146 86 121 108 59 56 55 65 99 98 104 108 107 113 100 99 105 110 109 115 91 90 95 9 9 9 0 0 0 0 0 1 0 0 0 0 0 0 0 0 0 0 0 0 0 0 0 0 0 0 0 0 0 0 0 0 
0 0 0 0 0 0 0 0 0 0 0 0 0 0 0 0 0 0 0 0 0 0 0 0 1 1 1 0 0 0 1 1 1 18 18 18 29 28 28 18 17 19 29 27 25 72 63 33 84 74 33 103 92 42 124 112 56 140 127 72 151 139 84 158 144 87 152 137 77 149 133 63 105 92 34 82 80 87 118 117 124 100 99 105 108 107 114 106 105 111 113 112 119 73 72 76 0 0 0 1 1 1 0 0 0 0 0 0 0 0 0 0 0 0 0 0 0 0 0 0 0 0 0 0 0 0 
0 0 0 0 0 0 0 0 0 0 0 0 0 0 0 0 0 0 0 0 0 0 0 0 0 0 0 1 1 0 1 1 1 0 0 0 7 7 7 22 22 22 22 21 20 38 34 24 52 48 33 76 68 34 91 82 47 117 104 55 136 121 60 141 127 63 128 113 54 94 84 44 67 61 49 108 108 120 105 104 109 102 101 107 100 99 105 101 100 106 98 98 103 107 106 113 28 28 30 0 0 0 1 1 1 0 0 0 0 0 0 0 0 0 0 0 0 0 0 0 0 0 0 0 0 0 
0 0 0 0 0 0 0 0 0 0 0 0 0 0 0 0 0 0 0 0 0 0 0 0 0 0 0 2 2 2 0 0 1 0 0 0 0 0 0 0 0 0 18 18 19 39 40 45 38 35 32 72 61 16 81 71 25 84 73 35 91 82 45 114 100 43 84 74 38 18 20 35 69 68 77 114 113 119 92 91 97 93 92 98 99 98 104 100 99 105 99 98 104 103 102 109 78 77 82 0 0 0 0 0 0 0 0 0 0 0 0 0 0 0 0 0 0 0 0 0 0 0 0 0 0 0 
0 0 0 0 0 0 0 0 0 0 0 0 0 0 0 0 0 0 0 0 0 1 1 2 1 1 1 0 0 0 8 8 9 26 28 34 45 48 54 65 68 73 85 86 93 103 104 110 101 101 108 61 61 75 64 57 29 105 86 5 77 66 27 44 41 50 58 56 60 59 58 64 71 70 74 88 88 93 83 83 89 89 88 94 93 92 98 95 94 100 96 95 101 96 95 101 106 106 112 28 29 30 0 0 0 1 1 1 0 0 0 0 0 0 0 0 0 0 0 0 0 0 0 0 0 0 
0 0 0 0 0 0 0 0 0 0 0 0 0 0 0 1 1 1 1 1 1 0 0 0 3 4 4 49 51 63 106 112 137 120 127 153 110 118 138 97 104 115 92 94 99 114 114 121 198 197 206 132 132 133 33 31 26 65 59 34 59 55 46 49 48 49 66 65 65 109 109 116 85 86 93 86 87 94 87 88 94 91 90 96 101 100 105 109 108 113 111 110 116 113 111 118 120 120 126 68 69 73 0 0 0 1 1 1 0 0 0 0 0 0 0 0 0 0 0 0 0 0 0 0 0 0 
0 0 0 0 0 0 0 0 0 1 1 1 1 1 1 0 0 0 3 3 3 41 42 50 96 102 121 121 128 155 111 118 140 100 107 123 95 102 117 93 100 114 91 97 107 91 92 97 109 108 114 86 86 85 53 52 48 46 45 45 48 47 42 47 46 37 73 72 71 116 117 128 119 119 130 115 116 124 102 104 109 100 99 106 107 108 116 109 111 118 105 106 114 92 93 103 113 113 121 103 101 110 16 16 17 0 0 0 1 1 1 0 0 0 0 0 0 0 0 0 0 0 0 0 0 0 
0 0 0 0 0 0 1 1 1 1 1 1 0 0 0 29 31 33 81 86 96 109 116 133 107 114 130 100 107 121 103 109 123 104 112 128 105 112 131 111 117 138 115 122 137 118 121 132 121 122 133 114 114 122 105 103 105 107 103 85 107 104 93 100 101 107 111 112 120 116 116 128 115 116 128 113 115 124 110 112 121 116 117 126 120 120 129 104 107 114 118 123 131 128 132 144 151 156 168 159 163 176 48 48 53 0 0 0 1 1 1 0 0 0 0 0 0 0 0 0 0 0 0 0 0 0 
0 0 0 0 0 0 2 2 2 30 29 31 75 78 86 111 117 132 117 123 144 112 119 142 113 120 144 116 123 147 119 125 150 118 124 148 117 123 146 118 124 144 118 123 139 117 120 136 117 121 135 120 124 136 128 133 144 138 145 154 140 147 161 138 146 162 136 144 159 136 144 158 133 141 156 124 130 143 126 129 141 133 136 147 133 134 142 118 117 126 131 125 137 143 135 149 145 133 148 193 179 196 132 125 136 7 7 10 0 0 0 1 1 1 0 0 0 0 0 0 0 0 0 0 0 0 
1 1 1 0 0 0 16 16 16 92 92 99 99 104 119 101 106 126 72 72 87 109 112 132 112 116 132 111 114 128 110 113 128 114 117 131 114 117 131 116 122 135 123 130 143 127 132 147 126 133 147 130 139 153 135 143 157 136 143 157 142 145 159 145 142 157 148 141 158 146 134 150 150 134 151 139 126 139 135 118 132 136 117 132 123 108 121 98 86 96 81 70 79 81 72 80 108 88 102 130 106 121 128 108 122 53 49 56 0 0 0 1 0 0 0 0 0 0 0 0 0 0 0 0 0 0 
2 2 2 0 0 0 40 40 41 90 92 100 87 92 108 79 83 101 46 47 55 108 115 130 116 121 135 115 121 135 116 122 135 117 121 135 123 125 139 134 132 148 145 138 155 154 141 160 159 142 161 166 146 165 173 146 166 175 143 165 174 143 168 167 138 168 138 114 137 148 133 161 145 134 166 77 67 80 15 11 12 10 7 9 1 0 1 0 0 0 0 0 0 0 0 0 0 0 0 0 0 0 10 8 10 36 34 40 5 5 6 0 0 0 0 0 0 0 0 0 0 0 0 0 0 0 
2 2 2 0 0 0 65 64 67 76 80 90 87 92 108 83 80 96 57 56 65 124 119 131 127 116 131 138 123 140 151 129 151 163 136 160 169 137 161 161 128 149 141 111 131 100 80 92 64 50 59 54 43 50 90 71 84 119 101 120 132 118 136 129 119 153 110 90 114 95 89 115 52 48 64 28 25 29 0 0 0 0 0 0 0 0 0 1 1 1 2 2 2 2 2 2 2 2 2 1 0 0 4 4 5 14 13 17 0 0 0 0 0 0 0 0 0 0 0 0 0 0 0 0 0 0 
0 0 1 0 0 0 94 87 99 121 102 125 173 142 179 119 100 120 78 71 85 210 170 212 203 160 207 202 155 201 184 139 178 145 107 137 91 67 84 39 28 34 4 3 4 0 0 0 0 0 0 0 0 0 0 0 0 2 2 2 4 4 4 14 12 14 27 19 22 6 4 5 0 0 0 1 1 1 1 1 1 1 0 0 0 0 0 0 0 0 0 0 0 0 0 0 0 0 0 0 0 0 0 0 0 0 0 0 0 0 0 0 0 0 0 0 0 0 0 0 0 0 0 0 0 0 
0 0 0 5 5 4 92 76 89 172 149 182 255 210 255 185 150 190 138 112 139 202 156 204 153 115 146 106 79 97 44 32 38 8 6 6 0 0 0 0 0 0 0 0 0 2 2 2 2 2 2 2 2 2 2 2 2 1 0 0 0 0 0 0 0 0 0 0 0 1 1 1 2 2 2 1 0 1 0 0 0 0 0 0 0 0 0 0 0 0 0 0 0 0 0 0 0 0 0 0 0 0 0 0 0 0 0 0 0 0 0 0 0 0 0 0 0 0 0 0 0 0 0 0 0 0 
0 0 0 2 2 2 0 0 0 45 42 49 92 80 103 125 97 126 81 59 70 57 44 52 32 25 29 5 5 5 0 0 0 0 0 0 2 1 1 2 1 2 0 0 0 0 0 0 0 0 0 0 0 0 0 0 0 0 0 0 0 0 0 1 1 1 1 1 1 0 0 0 0 0 0 0 0 0 0 0 0 0 0 0 0 0 0 0 0 0 0 0 0 0 0 0 0 0 0 0 0 0 0 0 0 0 0 0 0 0 0 0 0 0 0 0 0 0 0 0 0 0 0 0 0 0 
0 0 0 0 0 0 1 1 1 0 0 0 0 0 0 0 0 0 0 0 0 0 0 0 0 0 0 0 0 0 2 1 2 1 1 1 0 0 0 0 0 0 0 0 0 0 0 0 0 0 0 0 0 0 0 0 0 0 0 0 0 0 0 0 0 0 0 0 0 0 0 0 0 0 0 0 0 0 0 0 0 0 0 0 0 0 0 0 0 0 0 0 0 0 0 0 0 0 0 0 0 0 0 0 0 0 0 0 0 0 0 0 0 0 0 0 0 0 0 0 0 0 0 0 0 0 
0 0 0 0 0 0 0 0 0 2 2 2 1 1 1 2 1 2 3 2 2 2 2 2 2 1 2 0 0 0 0 0 0 0 0 0 0 0 0 0 0 0 0 0 0 0 0 0 0 0 0 0 0 0 0 0 0 0 0 0 0 0 0 0 0 0 0 0 0 0 0 0 0 0 0 0 0 0 0 0 0 0 0 0 0 0 0 0 0 0 0 0 0 0 0 0 0 0 0 0 0 0 0 0 0 0 0 0 0 0 0 0 0 0 0 0 0 0 0 0 0 0 0 0 0 0 
0 0 0 0 0 0 0 0 0 0 0 0 0 0 0 0 0 0 0 0 0 0 0 0 0 0 0 0 0 0 0 0 0 0 0 0 0 0 0 0 0 0 0 0 0 0 0 0 0 0 0 0 0 0 0 0 0 0 0 0 0 0 0 0 0 0 0 0 0 0 0 0 0 0 0 0 0 0 0 0 0 0 0 0 0 0 0 0 0 0 0 0 0 0 0 0 0 0 0 0 0 0 0 0 0 0 0 0 0 0 0 0 0 0 0 0 0 0 0 0 0 0 0 0 0 0 
