P3
63 50
255
0 0 0 0 0 0 0 0 0 0 0 0 0 0 0 0 0 0 0 0 0 0 0 0 0 0 0 0 0 0 0 0 0 0 0 0 0 0 0 0 0 0 0 0 0 0 0 0 0 0 0 0 0 0 0 0 0 0 0 0 0 0 0 0 0 0 0 0 0 0 0 0 0 0 0 0 0 0 0 0 0 0 0 0 0 0 0 0 0 0 0 0 0 0 0 0 0 0 0 0 0 0 0 0 0 0 0 0 0 0 0 0 0 0 0 0 0 0 0 0 0 0 0 0 0 0 0 0 0 0 0 0 0 0 0 0 0 0 0 0 0 0 0 0 0 0 0 0 0 0 0 0 0 0 0 0 0 0 0 0 0 0 0 0 0 0 0 0 0 0 0 0 0 0 0 0 0 0 0 0 0 0 0 0 0 0 0 0 0 
0 0 0 0 0 0 0 0 0 0 0 0 0 0 0 0 0 0 0 0 0 0 0 0 0 0 0 0 0 0 0 0 0 0 0 0 0 0 0 0 0 0 0 0 0 0 0 0 0 0 0 0 0 0 0 0 0 0 0 0 0 0 0 0 0 0 0 0 0 0 0 0 0 0 0 0 0 0 0 0 0 0 0 0 0 0 0 0 0 0 0 0 0 0 0 0 0 0 0 0 0 0 0 0 0 0 0 0 0 0 0 0 0 0 0 0 0 0 0 0 0 0 0 0 0 0 0 0 0 0 0 0 0 0 0 0 0 0 0 0 0 0 0 0 0 0 0 0 0 0 0 0 0 0 0 0 0 0 0 0 0 0 0 0 0 0 0 0 0 0 0 0 0 0 0 0 0 0 0 0 0 0 0 0 0 0 0 0 0 
0 0 0 0 0 0 0 0 0 0 0 0 0 0 0 0 0 0 0 0 0 0 0 0 0 0 0 0 0 0 0 0 0 0 0 0 0 0 0 0 0 0 0 0 0 0 0 0 0 0 0 0 0 0 0 0 0 0 0 0 0 0 0 0 0 0 0 0 0 0 0 0 0 0 0 0 0 0 0 0 0 0 0 0 0 0 0 0 0 0 0 0 0 0 0 0 0 0 0 0 0 0 0 0 0 0 0 0 0 0 0 0 0 0 0 0 0 0 0 0 0 0 0 0 0 0 0 0 0 0 0 0 0 0 0 0 0 0 0 0 0 0 0 0 0 0 0 0 0 0 0 0 0 0 0 0 0 0 0 0 0 0 0 0 0 0 0 0 0 0 0 0 0 0 0 0 0 0 0 0 0 0 0 0 0 0 0 0 0 
0 0 0 0 0 0 0 0 0 0 0 0 0 0 0 0 0 0 0 0 0 0 0 0 0 0 0 0 0 0 0 0 0 0 0 0 0 0 0 0 0 0 0 0 0 0 0 0 0 0 0 0 0 0 0 0 0 0 0 0 0 0 0 0 0 0 0 0 0 0 0 0 0 0 0 0 0 0 0 0 0 0 0 0 0 0 0 0 0 0 0 0 0 0 0 0 0 0 0 0 0 0 0 0 0 0 0 0 0 0 0 0 0 0 0 0 0 0 0 0 0 0 0 0 0 0 0 0 0 0 0 0 0 0 0 0 0 0 0 0 0 0 0 0 0 0 0 0 0 0 0 0 0 0 0 0 0 0 0 0 0 0 0 0 0 0 0 0 0 0 0 0 0 0 0 0 0 0 0 0 0 0 0 0 0 0 0 0 0 
0 0 0 0 0 0 0 0 0 0 0 0 0 0 0 0 0 0 0 0 0 0 0 0 0 0 0 0 0 0 0 0 0 0 0 0 0 0 0 0 0 0 0 0 0 0 0 0 0 0 0 0 0 0 0 0 0 0 0 0 0 0 0 0 0 0 0 0 0 0 0 0 0 0 0 0 0 0 0 0 0 0 0 0 0 0 0 0 0 0 0 0 0 0 0 0 0 0 0 0 0 0 0 0 0 0 0 0 0 0 0 0 0 0 0 0 0 0 0 0 0 0 0 0 0 0 0 0 0 0 0 0 0 0 0 0 0 0 0 0 0 0 0 0 0 0 0 0 0 0 0 0 0 0 0 0 0 0 0 0 0 0 0 0 0 0 0 0 0 0 0 0 0 0 0 0 0 0 0 0 0 0 0 0 0 0 0 0 0 
0 0 0 0 0 0 0 0 0 0 0 0 0 0 0 0 0 0 0 0 0 0 0 0 0 0 0 0 0 0 0 0 0 0 0 0 0 0 0 0 0 0 0 0 0 0 0 0 0 0 0 0 0 0 0 0 0 0 0 0 0 0 0 0 0 0 0 0 0 0 0 0 0 0 0 0 0 0 11 11 11 1 1 1 0 0 0 0 0 0 0 0 0 0 0 0 0 0 0 0 0 0 0 0 0 0 0 0 0 0 0 0 0 0 0 0 0 0 0 0 0 0 0 0 0 0 0 0 0 0 0 0 0 0 0 0 0 0 0 0 0 0 0 0 0 0 0 0 0 0 0 0 0 0 0 0 0 0 0 0 0 0 0 0 0 0 0 0 0 0 0 0 0 0 0 0 0 0 0 0 0 0 0 0 0 0 0 0 0 
0 0 0 0 0 0 0 0 0 0 0 0 0 0 0 0 0 0 0 0 0 0 0 0 0 0 0 0 0 0 0 0 0 0 0 0 0 0 0 0 0 0 0 0 0 0 0 0 0 0 0 0 0 0 0 0 0 0 0 0 0 0 0 0 0 0 0 0 0 0 0 0 0 0 0 1 1 1 3 3 3 2 2 2 0 0 0 0 0 0 1 1 1 0 0 0 0 0 0 0 0 0 0 0 0 0 0 0 0 0 0 0 0 0 0 0 0 0 0 0 0 0 0 0 0 0 0 0 0 0 0 0 0 0 0 0 0 0 0 0 0 0 0 0 0 0 0 0 0 0 0 0 0 0 0 0 0 0 0 0 0 0 0 0 0 0 0 0 0 0 0 0 0 0 0 0 0 0 0 0 0 0 0 0 0 0 0 0 0 
0 0 0 0 0 0 0 0 0 0 0 0 0 0 0 0 0 0 0 0 0 0 0 0 0 0 0 0 0 0 0 0 0 0 0 0 0 0 0 0 0 0 0 0 0 0 0 0 0 0 0 0 0 0 0 0 0 0 0 0 0 0 0 0 0 0 0 0 0 0 0 0 0 0 0 0 0 0 1 1 1 1 1 1 0 0 0 1 1 1 0 0 0 0 0 0 0 0 0 0 0 0 0 0 0 0 0 0 0 0 0 0 0 0 0 0 0 0 0 0 0 0 0 0 0 0 0 0 0 0 0 0 0 0 0 0 0 0 0 0 0 0 0 0 0 0 0 0 0 0 0 0 0 0 0 0 0 0 0 0 0 0 0 0 0 0 0 0 0 0 0 0 0 0 0 0 0 0 0 0 0 0 0 0 0 0 0 0 0 
0 0 0 0 0 0 0 0 0 0 0 0 0 0 0 0 0 0 0 0 0 0 0 0 0 0 0 0 0 0 0 0 0 0 0 0 0 0 0 0 0 0 0 0 0 0 0 0 0 0 0 0 0 0 0 0 0 0 0 0 0 0 0 0 0 0 0 0 0 0 0 0 1 1 1 0 0 0 0 0 0 10 10 10 26 26 26 26 26 28 20 19 24 0 0 0 0 0 1 0 0 0 0 0 0 0 0 0 0 0 0 0 0 0 0 0 0 0 0 0 0 0 0 0 0 0 0 0 0 0 0 0 0 0 0 0 0 0 0 0 0 0 0 0 0 0 0 0 0 0 0 0 0 0 0 0 0 0 0 0 0 0 0 0 0 0 0 0 0 0 0 0 0 0 0 0 0 0 0 0 0 0 0 0 0 0 0 0 0 
0 0 0 0 0 0 0 0 0 0 0 0 0 0 0 0 0 0 0 0 0 0 0 0 0 0 0 0 0 0 0 0 0 0 0 0 0 0 0 0 0 0 0 0 0 0 0 0 0 0 0 0 0 0 0 0 0 0 0 0 0 0 0 0 0 0 0 0 0 0 0 0 0 0 0 12 12 13 29 29 28 42 42 44 30 30 37 12 11 19 45 41 57 28 26 37 0 0 0 1 1 1 0 0 0 0 0 0 0 0 0 0 0 0 0 0 0 0 0 0 0 0 0 0 0 0 0 0 0 0 0 0 0 0 0 0 0 0 0 0 0 0 0 0 0 0 0 0 0 0 0 0 0 0 0 0 0 0 0 0 0 0 0 0 0 0 0 0 0 0 0 0 0 0 0 0 0 0 0 0 0 0 0 0 0 0 0 0 0 
0 0 0 0 0 0 0 0 0 0 0 0 0 0 0 0 0 0 0 0 0 0 0 0 0 0 0 0 0 0 0 0 0 0 0 0 0 0 0 0 0 0 0 0 0 0 0 0 0 0 0 0 0 0 0 0 0 0 0 0 0 0 0 0 0 0 1 1 1 12 12 12 31 31 31 31 31 32 13 13 12 12 11 15 62 58 52 95 91 68 57 56 51 33 32 41 10 10 10 4 4 3 5 5 4 3 3 3 0 0 0 0 0 0 0 0 0 0 0 0 0 0 0 0 0 0 0 0 0 0 0 0 0 0 0 0 0 0 0 0 0 0 0 0 0 0 0 0 0 0 0 0 0 0 0 0 0 0 0 0 0 0 0 0 0 0 0 0 0 0 0 0 0 0 0 0 0 0 0 0 0 0 0 0 0 0 0 0 0 
0 0 0 0 0 0 0 0 0 0 0 0 0 0 0 0 0 0 0 0 0 0 0 0 0 0 0 0 0 0 0 0 0 0 0 0 0 0 0 0 0 0 0 0 0 0 0 0 0 0 0 0 0 0 1 1 1 0 0 0 0 0 0 9 9 9 21 21 21 33 33 34 17 17 17 9 8 6 1 1 4 33 31 34 146 136 97 185 176 128 158 151 117 37 33 40 39 35 35 21 20 24 22 22 23 11 11 10 1 1 0 0 1 1 1 0 0 0 0 0 0 0 0 0 0 0 0 0 0 0 0 0 0 0 0 0 0 0 0 0 0 0 0 0 0 0 0 0 0 0 0 0 0 0 0 0 0 0 0 0 0 0 0 0 0 0 0 0 0 0 0 0 0 0 0 0 0 0 0 0 0 0 0 0 0 0 0 0 0 
0 0 0 0 0 0 0 0 0 0 0 0 0 0 0 0 0 0 0 0 0 0 0 0 0 0 0 0 0 0 0 0 0 0 0 0 0 0 0 0 0 0 0 0 0 0 0 0 0 0 1 0 0 0 0 0 0 13 13 13 35 35 37 30 30 31 9 9 9 1 1 0 0 0 0 35 31 30 35 31 34 83 78 63 170 160 118 178 169 130 203 195 149 154 146 117 167 159 123 121 115 97 22 21 31 30 29 33 1 1 1 5 5 4 1 1 1 0 0 0 0 0 0 0 0 0 0 0 0 0 0 0 0 0 0 0 0 0 0 0 0 0 0 0 0 0 0 0 0 0 0 0 0 0 0 0 0 0 0 0 0 0 0 0 0 0 0 0 0 0 0 0 0 0 0 0 0 0 0 0 0 0 0 0 0 0 0 0 0 
0 0 0 0 0 0 0 0 0 0 0 0 0 0 0 0 0 0 0 0 0 0 0 0 0 0 0 0 0 0 0 0 0 0 0 0 0 0 0 0 0 0 1 1 1 0 0 0 0 0 0 13 13 14 36 35 38 36 37 38 16 16 17 1 1 2 0 0 0 1 1 0 12 11 16 71 67 50 123 116 76 148 140 101 173 164 125 196 187 146 212 202 160 228 215 169 238 226 178 217 205 158 58 55 58 33 31 38 37 35 39 15 11 13 0 0 0 0 0 0 0 0 0 0 0 0 0 0 0 0 0 0 0 0 0 0 0 0 0 0 0 0 0 0 0 0 0 0 0 0 0 0 0 0 0 0 0 0 0 0 0 0 0 0 0 0 0 0 0 0 0 0 0 0 0 0 0 0 0 0 0 0 0 0 0 0 0 0 0 
0 0 0 0 0 0 0 0 0 0 0 0 0 0 0 0 0 0 0 0 0 0 0 0 0 0 0 0 0 0 0 0 0 0 0 0 1 1 1 0 0 0 0 0 0 14 14 14 35 35 36 37 37 40 19 19 19 1 1 1 0 0 0 0 0 0 0 0 1 10 10 15 30 27 32 106 99 62 137 127 87 159 150 111 180 171 131 204 196 154 224 213 171 236 225 180 237 226 181 233 222 175 192 183 137 176 165 116 138 130 92 25 25 37 7 8 9 0 0 0 0 0 0 0 0 0 0 0 0 0 0 0 0 0 0 0 0 0 0 0 0 0 0 0 0 0 0 0 0 0 0 0 0 0 0 0 0 0 0 0 0 0 0 0 0 0 0 0 0 0 0 0 0 0 0 0 0 0 0 0 0 0 0 0 0 0 0 0 0 
0 0 0 0 0 0 0 0 0 0 0 0 0 0 0 0 0 0 0 0 0 0 0 0 0 0 0 0 0 0 0 0 0 0 0 0 0 0 0 14 14 15 38 38 40 38 38 38 20 20 20 1 1 1 0 0 0 0 0 0 1 1 1 0 0 0 22 20 13 71 67 40 85 77 46 117 108 68 139 130 92 166 157 117 187 178 135 213 204 162 234 224 181 246 237 193 251 242 197 238 227 178 225 212 162 207 195 144 182 169 111 90 86 75 14 16 25 0 0 0 1 1 1 0 0 0 0 0 0 0 0 0 0 0 0 0 0 0 0 0 0 0 0 0 0 0 0 0 0 0 0 0 0 0 0 0 0 0 0 0 0 0 0 0 0 0 0 0 0 0 0 0 0 0 0 0 0 0 0 0 0 0 0 0 0 0 0 0 0 
0 0 0 0 0 0 0 0 0 0 0 0 0 0 0 0 0 0 0 0 0 0 0 0 0 0 0 0 0 0 0 0 0 11 11 11 37 36 37 40 40 41 22 22 24 2 2 2 0 0 0 0 0 0 1 1 1 0 0 0 1 1 0 1 1 1 60 54 25 99 89 43 107 96 55 120 111 72 141 132 92 165 156 115 195 185 142 224 215 172 246 237 191 242 240 207 243 239 208 241 231 180 228 216 166 201 189 140 191 178 120 98 91 63 10 11 19 0 0 0 1 1 1 0 0 0 0 0 0 0 0 0 0 0 0 0 0 0 0 0 0 0 0 0 0 0 0 0 0 0 0 0 0 0 0 0 0 0 0 0 0 0 0 0 0 0 0 0 0 0 0 0 0 0 0 0 0 0 0 0 0 0 0 0 0 0 0 0 0 
0 0 0 0 0 0 0 0 0 0 0 0 0 0 0 0 0 0 0 0 0 0 0 0 0 0 0 0 0 0 11 11 13 39 38 44 24 24 24 2 2 3 0 0 0 0 0 0 0 0 0 0 0 0 0 0 0 0 0 0 0 0 0 4 3 3 77 70 32 93 85 44 104 95 55 123 114 73 141 132 91 164 156 116 195 185 143 235 223 175 254 245 203 246 244 229 253 250 231 245 235 186 227 215 165 208 197 143 173 162 107 58 54 54 28 29 39 0 0 0 1 1 1 0 0 0 0 0 0 0 0 0 0 0 0 0 0 0 0 0 0 0 0 0 0 0 0 0 0 0 0 0 0 0 0 0 0 0 0 0 0 0 0 0 0 0 0 0 0 0 0 0 0 0 0 0 0 0 0 0 0 0 0 0 0 0 0 0 0 
0 0 0 0 0 0 0 0 0 0 0 0 0 0 0 0 0 0 0 0 0 0 0 0 0 0 0 3 3 3 27 26 30 65 63 73 59 57 62 0 0 0 2 2 2 0 0 0 0 0 0 0 0 0 0 0 0 0 0 0 1 0 0 0 0 2 49 45 31 97 87 43 104 95 55 119 110 69 147 137 96 184 174 128 204 193 149 204 196 156 217 211 177 251 248 226 255 250 225 248 236 185 218 205 155 207 194 139 145 136 94 39 37 48 39 39 51 0 0 0 1 1 2 0 0 0 0 0 0 0 0 0 0 0 0 0 0 0 0 0 0 0 0 0 0 0 0 0 0 0 0 0 0 0 0 0 0 0 0 0 0 0 0 0 0 0 0 0 0 0 0 0 0 0 0 0 0 0 0 0 0 0 0 0 0 0 0 0 0 
0 0 0 0 0 0 0 0 0 0 0 0 0 0 0 0 0 0 0 0 0 0 0 0 0 0 0 6 6 6 44 43 48 37 36 42 34 33 34 4 3 2 0 0 0 0 0 0 0 0 0 0 0 0 0 0 0 0 0 0 1 1 0 0 0 0 31 29 29 93 84 43 104 95 54 119 110 66 137 129 87 122 114 86 120 114 92 59 59 53 43 43 43 215 209 175 255 253 201 240 227 176 217 205 153 199 187 135 176 162 106 73 70 67 27 29 40 0 0 0 1 1 1 0 0 0 0 0 0 0 0 0 0 0 0 0 0 0 0 0 0 0 0 0 0 0 0 0 0 0 0 0 0 0 0 0 0 0 0 0 0 0 0 0 0 0 0 0 0 0 0 0 0 0 0 0 0 0 0 0 0 0 0 0 0 0 0 0 0 
0 0 0 0 0 0 0 0 0 0 0 0 0 0 0 0 0 0 0 0 0 0 0 0 0 0 0 1 1 1 40 40 44 37 36 43 22 22 22 0 0 0 0 0 0 0 0 0 1 1 1 0 0 0 0 0 0 0 0 0 1 1 0 1 1 1 59 53 27 98 88 38 103 95 50 126 115 70 116 107 72 6 10 14 14 15 14 17 16 15 1 1 6 108 105 89 245 239 177 221 210 157 211 200 147 189 179 125 177 166 102 115 106 72 12 11 20 0 0 0 1 1 1 0 0 0 0 0 0 0 0 0 0 0 0 0 0 0 0 0 0 0 0 0 0 0 0 0 0 0 0 0 0 0 0 0 0 0 0 0 0 0 0 0 0 0 0 0 0 0 0 0 0 0 0 0 0 0 0 0 0 0 0 0 0 0 0 0 0 
0 0 0 0 0 0 0 0 0 0 0 0 0 0 0 0 0 0 0 0 0 0 0 0 0 0 0 2 2 3 25 25 26 42 41 43 45 44 49 27 26 30 12 11 13 0 0 1 0 0 0 0 0 0 1 1 1 1 1 1 0 0 0 3 2 5 74 67 29 96 85 36 104 91 48 119 107 62 130 119 76 102 95 69 32 31 24 15 15 15 1 3 8 118 114 94 241 231 173 209 198 144 200 189 134 185 174 119 169 156 92 81 75 56 32 33 44 0 0 0 3 3 3 2 2 2 2 2 2 2 2 2 2 2 2 2 2 2 0 0 0 0 0 0 0 0 0 0 0 0 0 0 0 0 0 0 0 0 0 0 0 0 0 0 0 0 0 0 0 0 0 0 0 0 0 0 0 0 0 0 0 0 0 0 0 0 0 0 0 
0 0 0 0 0 0 0 0 0 0 0 0 0 0 0 0 0 0 0 0 0 0 0 0 0 0 0 0 0 0 0 0 0 11 10 9 35 34 30 50 48 47 43 41 45 31 30 36 21 21 25 5 5 7 0 0 0 0 0 0 1 1 0 0 0 1 40 36 25 92 82 32 98 87 41 110 100 53 127 118 70 169 159 103 114 107 79 20 20 29 41 39 39 199 189 143 219 205 150 203 191 138 183 174 115 176 164 103 131 117 69 48 45 57 59 59 74 0 0 0 0 0 0 0 0 0 0 0 0 0 0 0 0 0 0 0 0 0 0 0 0 0 0 0 0 0 0 0 0 0 0 0 0 0 0 0 0 0 0 0 0 0 0 0 0 0 0 0 0 0 0 0 0 0 0 0 0 0 0 0 0 0 0 0 0 0 0 0 0 
0 0 0 0 0 0 0 0 0 0 0 0 0 0 0 0 0 0 0 0 0 0 0 0 0 0 0 0 0 0 1 1 1 0 0 0 0 0 0 17 17 15 40 41 36 37 37 35 28 28 30 34 33 38 30 29 34 12 11 13 0 0 0 0 0 0 38 36 29 87 76 27 96 84 36 105 94 45 125 114 65 139 127 80 159 147 97 162 151 106 182 170 122 196 183 129 196 183 130 189 176 121 175 162 106 168 154 93 131 119 66 56 54 65 52 52 67 2 1 2 39 38 41 50 50 52 50 50 52 50 49 52 52 52 54 50 50 53 0 0 0 1 1 1 0 0 0 0 0 0 0 0 0 0 0 0 0 0 0 0 0 0 0 0 0 0 0 0 0 0 0 0 0 0 0 0 0 0 0 0 0 0 0 0 0 0 0 0 0 
0 0 0 0 0 0 0 0 0 0 0 0 0 0 0 0 0 0 0 0 0 0 0 0 0 0 0 0 0 0 0 0 0 0 0 0 0 0 0 0 0 0 4 4 3 27 27 25 39 39 37 23 23 24 16 16 18 32 31 35 36 36 39 23 22 29 68 59 22 90 78 18 93 80 30 102 90 39 112 100 50 131 118 68 146 134 82 165 152 98 176 165 110 176 164 110 175 162 105 167 154 95 166 151 92 149 135 76 146 131 62 79 70 51 62 64 77 133 132 139 147 146 153 120 119 126 118 117 123 121 120 127 127 126 133 123 122 129 63 63 67 0 0 0 1 1 1 0 0 0 0 0 0 0 0 0 0 0 0 0 0 0 0 0 0 0 0 0 0 0 0 0 0 0 0 0 0 0 0 0 0 0 0 0 0 0 0 0 0 
0 0 0 0 0 0 0 0 0 0 0 0 0 0 0 0 0 0 0 0 0 0 0 0 0 0 0 0 0 0 0 0 0 0 0 0 0 0 0 1 1 1 0 0 0 0 0 0 9 9 9 36 36 37 37 36 36 11 10 10 7 6 7 29 29 30 61 56 44 74 65 36 89 77 29 100 89 31 109 97 42 118 106 56 133 121 69 149 136 83 157 144 89 158 146 90 163 148 92 157 142 83 148 134 74 139 124 65 136 120 50 65 57 30 89 88 100 119 118 123 89 88 94 91 90 96 103 102 108 108 107 113 101 100 106 102 101 108 116 115 121 41 41 43 0 0 0 1 1 1 0 0 0 0 0 0 0 0 0 0 0 0 0 0 0 0 0 0 0 0 0 0 0 0 0 0 0 0 0 0 0 0 0 0 0 0 0 0 0 
0 0 0 0 0 0 0 0 0 0 0 0 0 0 0 0 0 0 0 0 0 0 0 0 0 0 0 0 0 0 0 0 0 0 0 0 0 0 0 0 0 0 0 0 0 1 1 1 0 0 0 0 0 0 15 15 15 40 38 39 30 30 29 1 2 3 36 31 17 63 55 24 58 53 38 72 66 46 95 84 42 118 106 49 126 112 53 131 117 60 138 125 68 147 133 75 148 133 73 143 128 68 138 123 58 136 120 48 101 89 27 57 55 64 119 118 125 99 98 104 104 103 109 109 108 114 105 104 110 100 99 105 104 103 109 100 99 105 102 101 107 98 97 103 8 8 9 1 1 1 1 1 1 0 0 0 0 0 0 0 0 0 0 0 0 0 0 0 0 0 0 0 0 0 0 0 0 0 0 0 0 0 0 0 0 0 0 0 0 
0 0 0 0 0 0 0 0 0 0 0 0 0 0 0 0 0 0 0 0 0 0 0 0 0 0 0 0 0 0 0 0 0 0 0 0 0 0 0 0 0 0 0 0 0 0 0 0 0 0 0 1 1 1 0 0 0 0 0 0 21 21 21 37 37 37 35 33 31 37 34 29 38 37 31 69 59 21 63 58 35 71 65 46 95 86 51 123 109 55 135 119 54 134 119 57 132 119 60 133 116 54 89 80 43 69 63 48 49 44 36 90 90 100 119 118 125 108 107 113 105 104 110 97 96 102 99 98 104 101 100 106 101 100 106 101 100 106 98 97 103 110 109 116 53 53 56 0 0 0 2 2 2 0 0 0 0 0 0 0 0 0 0 0 0 0 0 0 0 0 0 0 0 0 0 0 0 0 0 0 0 0 0 0 0 0 0 0 0 
0 0 0 0 0 0 0 0 0 0 0 0 0 0 0 0 0 0 0 0 0 0 0 0 0 0 0 0 0 0 0 0 0 0 0 0 0 0 0 0 0 0 0 0 0 0 0 0 1 1 2 2 2 2 2 2 2 0 0 0 0 0 0 0 0 0 24 23 22 36 34 35 33 32 44 70 61 22 94 78 12 86 73 19 73 66 33 72 64 44 89 82 53 113 100 47 127 110 41 110 95 34 37 37 39 34 34 47 56 55 65 111 110 116 111 110 117 95 94 100 90 89 95 96 95 101 99 98 104 102 101 107 101 100 106 100 99 105 101 100 106 100 99 106 97 96 101 14 14 16 0 0 1 1 1 1 0 0 0 0 0 0 0 0 0 0 0 0 0 0 0 0 0 0 0 0 0 0 0 0 0 0 0 0 0 0 0 0 0 
0 0 0 0 0 0 0 0 0 0 0 0 0 0 0 0 0 0 0 0 0 0 0 0 0 0 0 0 0 0 0 0 0 0 0 0 0 0 0 0 0 0 2 2 3 0 0 0 0 0 0 0 0 0 0 0 0 8 8 8 29 30 33 49 52 56 70 72 78 76 78 81 55 55 59 40 37 38 50 46 44 70 63 33 104 88 10 102 85 17 87 75 21 56 52 43 73 66 46 68 61 43 44 43 55 21 21 23 51 50 55 105 104 111 91 90 96 86 85 91 90 89 95 92 91 97 95 94 100 96 95 101 97 96 102 97 96 102 96 95 101 94 93 99 109 108 115 63 62 67 0 0 0 1 1 1 0 0 0 0 0 0 0 0 0 0 0 0 0 0 0 0 0 0 0 0 0 0 0 0 0 0 0 0 0 0 0 0 0 
0 0 0 0 0 0 0 0 0 0 0 0 0 0 0 0 0 0 0 0 0 0 0 0 0 0 0 0 0 0 0 0 0 0 0 0 1 2 2 0 1 1 0 0 0 4 4 3 40 42 50 51 55 66 73 77 89 86 92 100 91 93 99 96 96 103 104 104 112 113 113 121 123 124 131 122 120 131 57 58 69 44 40 45 84 70 10 96 79 10 92 77 19 48 45 48 39 38 53 45 44 54 81 80 89 79 78 84 72 71 77 82 83 88 82 83 88 85 86 91 86 85 91 89 88 94 92 91 97 95 94 100 96 95 101 96 95 101 96 95 101 96 95 101 100 98 106 93 94 99 7 8 8 0 0 0 0 1 1 0 0 0 0 0 0 0 0 0 0 0 0 0 0 0 0 0 0 0 0 0 0 0 0 0 0 0 0 0 0 
0 0 0 0 0 0 0 0 0 0 0 0 0 0 0 0 0 0 0 0 0 0 0 0 0 0 0 0 0 0 2 2 2 1 1 0 0 0 0 3 3 3 48 49 61 102 107 132 127 134 162 124 131 158 112 120 140 99 107 122 89 97 105 90 91 96 107 107 113 140 140 147 186 186 195 242 241 249 98 98 94 37 36 34 58 54 37 66 59 29 59 54 41 53 51 55 60 58 54 50 48 45 102 101 105 103 104 110 77 78 83 85 86 92 81 81 88 82 83 89 86 86 91 90 89 95 96 94 100 102 100 106 106 105 110 113 112 117 119 117 124 123 121 128 126 125 132 125 125 132 44 45 48 0 0 0 1 1 1 0 0 0 0 0 0 0 0 0 0 0 0 0 0 0 0 0 0 0 0 0 0 0 0 0 0 0 0 0 0 
0 0 0 0 0 0 0 0 0 0 0 0 0 0 0 0 0 0 0 0 0 0 0 0 1 1 1 0 0 0 0 0 0 3 2 3 41 43 51 97 102 123 124 131 160 120 126 155 109 115 139 103 110 131 99 106 125 98 106 123 94 101 114 88 93 102 83 86 92 85 85 90 109 108 114 155 155 159 60 59 54 42 41 35 47 47 43 48 48 47 50 49 45 52 51 44 51 50 45 46 45 39 112 110 120 104 106 116 111 113 124 110 110 119 106 106 115 104 104 111 98 98 103 101 100 106 110 111 117 115 116 123 119 120 127 108 108 115 100 100 110 94 94 102 93 94 99 104 103 111 80 79 84 11 11 12 0 0 0 1 1 1 0 0 0 0 0 0 0 0 0 0 0 0 0 0 0 0 0 0 0 0 0 0 0 0 0 0 0 
0 0 0 0 0 0 0 0 0 0 0 0 0 0 0 0 0 0 1 1 2 1 1 1 0 0 0 1 1 3 40 41 48 87 93 108 117 124 147 116 123 149 107 114 137 105 112 130 102 109 126 99 107 120 96 104 117 95 102 116 95 102 116 97 103 117 101 106 115 105 106 112 102 102 108 93 93 100 81 82 82 69 69 67 57 56 55 46 44 41 49 47 44 51 51 45 55 54 48 62 62 57 117 117 125 115 115 125 125 125 135 125 126 135 116 117 124 105 107 113 102 103 110 102 102 110 103 105 114 102 104 112 99 101 108 104 105 112 102 103 113 94 96 106 109 110 118 148 147 157 94 92 102 39 39 42 0 0 0 1 1 1 0 0 0 0 0 0 0 0 0 0 0 0 0 0 0 0 0 0 0 0 0 0 0 0 0 0 0 
0 0 0 0 0 0 0 0 0 0 0 0 1 1 1 1 1 1 0 0 0 1 2 2 34 36 40 81 87 97 108 116 133 109 116 134 102 109 125 98 105 118 97 104 114 99 105 115 98 105 116 98 106 118 99 106 123 102 107 125 109 115 133 114 120 135 114 119 130 120 122 131 130 131 141 131 132 140 122 122 128 106 105 111 114 108 96 113 106 81 118 111 89 108 105 104 102 103 110 110 111 119 112 113 122 109 110 121 106 108 119 106 108 119 103 106 114 102 105 114 105 106 115 112 112 121 121 121 130 118 118 127 107 109 118 122 124 134 143 144 157 143 146 158 156 159 173 183 186 200 155 156 168 52 51 58 12 12 12 0 0 0 0 0 1 0 0 0 0 0 0 0 0 0 0 0 0 0 0 0 0 0 0 0 0 0 0 0 0 
0 0 0 0 0 0 0 0 0 2 2 2 0 0 0 0 0 0 28 30 33 69 72 77 95 101 110 101 108 119 99 106 120 101 108 123 106 112 130 112 119 139 116 124 146 120 126 153 124 130 159 125 132 161 125 132 160 125 131 160 128 134 159 124 130 151 118 124 140 113 117 133 110 115 130 108 110 122 107 109 119 111 113 123 122 124 125 128 133 135 127 132 141 126 132 145 128 134 146 131 135 149 134 138 152 134 138 151 136 140 153 137 140 153 131 133 145 133 134 146 142 144 157 137 140 150 130 133 139 124 127 133 100 104 111 103 109 116 128 132 140 106 110 121 121 123 133 138 141 152 184 184 199 131 126 137 25 24 29 0 0 0 1 1 1 0 0 0 0 0 0 0 0 0 0 0 0 0 0 0 0 0 0 0 0 0 0 0 0 
0 0 0 0 0 0 1 1 1 1 1 1 24 24 25 73 72 79 95 97 108 120 125 142 116 123 145 121 125 152 122 129 157 123 130 159 121 127 156 118 124 150 114 121 144 115 122 143 113 118 137 109 114 132 108 113 128 109 114 130 108 114 127 111 116 129 118 121 134 120 122 136 123 126 140 128 132 147 132 137 151 139 144 158 140 148 163 145 152 166 149 154 169 148 154 168 145 152 168 143 151 166 138 146 160 139 147 162 134 142 158 124 132 147 115 122 133 111 116 126 117 119 131 120 121 132 125 125 135 125 122 132 120 113 124 129 116 130 159 142 158 154 137 153 154 132 151 179 152 171 187 163 181 173 158 169 63 63 71 8 7 10 0 0 0 1 1 1 0 0 0 0 0 0 0 0 0 0 0 0 0 0 0 0 0 0 0 0 0 
0 0 0 0 0 0 3 3 3 0 0 0 74 74 78 93 93 102 83 88 100 109 116 135 96 101 120 52 51 61 92 94 111 105 108 125 104 109 123 108 112 124 107 111 121 105 108 122 110 113 127 115 118 132 117 119 134 119 121 136 123 128 142 129 134 149 136 138 154 136 139 155 134 138 153 132 139 153 134 142 156 135 143 157 134 141 155 132 140 154 135 143 156 134 139 153 132 136 151 135 134 150 134 130 145 140 130 146 151 133 152 151 132 147 150 131 145 151 130 146 159 135 152 162 136 153 154 131 147 128 112 125 111 97 107 91 79 88 78 71 78 86 78 86 108 89 104 142 115 133 143 119 134 141 120 134 124 105 120 37 39 42 3 3 3 1 1 1 0 0 0 0 0 0 0 0 0 0 0 0 0 0 0 0 0 0 0 0 0 
0 0 0 0 0 0 1 1 1 0 0 0 93 93 96 74 76 86 86 90 102 96 100 118 81 84 102 30 28 33 85 89 102 110 114 129 119 120 136 119 121 138 120 123 138 121 124 140 123 127 142 120 125 140 119 124 139 120 127 140 123 130 144 125 131 145 123 128 144 123 126 141 125 126 139 133 132 147 139 135 151 145 136 152 153 142 159 158 140 158 166 141 161 174 145 166 177 144 164 175 141 163 172 138 161 164 134 158 153 131 154 143 128 151 82 69 78 59 49 54 44 36 41 25 21 23 14 13 14 2 2 3 0 0 0 0 0 0 0 0 0 0 0 0 0 0 0 0 0 0 4 3 3 19 15 18 34 29 35 36 35 40 9 9 12 0 0 0 0 0 0 0 0 0 0 0 0 0 0 0 0 0 0 0 0 0 0 0 0 
0 0 0 1 1 1 0 0 0 16 16 15 107 105 111 67 71 81 91 95 111 94 99 119 80 87 103 34 32 40 94 100 114 115 124 139 113 119 133 114 120 134 117 122 136 117 121 135 119 121 136 121 118 133 129 123 139 142 131 147 148 132 149 155 136 155 165 141 162 175 146 168 177 144 166 175 142 164 178 144 166 183 145 167 181 136 160 180 139 164 169 141 167 160 132 162 149 133 173 89 77 97 111 104 129 126 134 169 112 114 148 114 109 138 21 17 21 0 0 0 0 0 0 0 0 0 0 0 0 0 0 0 1 1 1 2 1 1 2 2 2 2 2 2 1 1 1 2 1 1 0 0 0 0 0 0 27 27 32 32 31 37 2 2 3 0 0 0 0 0 0 0 0 0 0 0 0 0 0 0 0 0 0 0 0 0 0 0 0 
0 0 0 2 2 2 0 0 0 46 45 45 113 111 119 71 75 88 91 94 111 98 99 117 85 82 97 34 33 41 113 110 124 131 123 137 132 118 134 134 116 133 137 118 132 146 121 138 157 130 148 165 135 158 172 138 163 168 133 155 164 130 151 155 122 145 133 104 123 82 67 77 47 40 45 29 24 29 30 26 30 65 56 64 113 91 113 118 109 127 137 127 143 150 133 160 140 133 176 112 89 111 137 112 142 90 83 108 60 49 64 34 27 33 35 32 33 2 2 2 3 2 3 1 1 1 1 1 1 0 0 0 0 0 0 0 0 0 0 0 0 0 0 0 0 0 0 0 0 0 0 0 0 1 1 1 11 11 15 10 10 13 0 0 0 0 0 0 0 0 0 0 0 0 0 0 0 0 0 0 0 0 0 0 0 0 0 0 0 
0 0 0 3 3 3 0 0 0 75 75 79 74 70 83 63 60 71 120 106 131 139 118 145 107 84 100 32 34 39 142 120 137 162 130 154 168 137 166 189 154 189 202 160 202 200 156 201 192 145 190 171 130 166 147 110 138 113 83 102 71 53 64 27 20 26 0 0 0 0 0 0 0 0 0 0 0 0 0 0 0 0 0 0 0 0 0 11 14 13 10 9 10 30 26 31 35 31 38 55 39 45 52 37 45 0 0 0 0 0 0 0 0 0 0 0 0 0 0 0 0 0 0 0 0 0 0 0 0 0 0 0 0 0 0 0 0 0 0 0 0 0 0 0 0 0 0 0 0 0 0 0 0 0 0 0 0 0 0 0 0 0 0 0 0 0 0 0 0 0 0 0 0 0 0 0 0 0 0 0 0 0 0 0 0 0 0 0 0 
0 0 0 1 1 1 1 2 1 108 98 111 151 124 153 201 164 202 215 171 218 219 175 223 129 115 136 44 44 53 236 195 246 244 193 255 233 181 242 203 153 206 175 129 171 148 109 137 114 84 103 75 55 67 34 25 30 6 5 5 0 0 0 0 0 0 0 1 0 3 2 2 2 1 2 1 1 1 1 1 1 2 2 2 1 0 0 0 0 0 0 0 0 0 0 0 0 0 0 0 0 0 0 0 0 0 1 1 2 1 2 1 1 1 0 0 0 0 0 0 0 0 0 0 0 0 0 0 0 0 0 0 0 0 0 0 0 0 0 0 0 0 0 0 0 0 0 0 0 0 0 0 0 0 0 0 0 0 0 0 0 0 0 0 0 0 0 0 0 0 0 0 0 0 0 0 0 0 0 0 0 0 0 0 0 0 0 0 0 
0 0 0 0 0 0 5 6 5 90 71 83 123 107 127 162 142 178 244 208 246 255 214 255 151 122 159 99 82 98 202 157 202 146 109 141 135 99 121 111 85 99 91 70 80 37 28 33 7 7 8 0 0 0 0 0 0 0 0 0 2 2 2 1 1 1 0 0 0 0 0 0 0 0 0 0 0 0 0 0 0 0 0 0 0 0 0 1 1 1 1 1 1 1 1 1 2 1 2 2 1 2 2 1 2 0 0 0 0 0 0 0 0 0 0 0 0 0 0 0 0 0 0 0 0 0 0 0 0 0 0 0 0 0 0 0 0 0 0 0 0 0 0 0 0 0 0 0 0 0 0 0 0 0 0 0 0 0 0 0 0 0 0 0 0 0 0 0 0 0 0 0 0 0 0 0 0 0 0 0 0 0 0 0 0 0 0 0 0 
0 0 0 1 1 1 4 4 4 0 0 0 26 25 24 105 97 115 110 97 126 154 126 166 193 149 191 131 94 112 113 88 104 97 73 88 78 62 73 46 38 45 8 8 8 0 0 0 0 0 0 2 1 2 1 1 1 0 0 0 0 0 0 0 0 0 0 0 0 0 0 0 0 0 0 0 0 0 0 0 0 0 0 0 0 0 0 0 0 0 0 0 0 0 0 0 0 0 0 0 0 0 0 0 0 0 0 0 0 0 0 0 0 0 0 0 0 0 0 0 0 0 0 0 0 0 0 0 0 0 0 0 0 0 0 0 0 0 0 0 0 0 0 0 0 0 0 0 0 0 0 0 0 0 0 0 0 0 0 0 0 0 0 0 0 0 0 0 0 0 0 0 0 0 0 0 0 0 0 0 0 0 0 0 0 0 0 0 0 
0 0 0 0 0 0 0 0 0 3 2 3 0 0 0 6 5 6 31 26 30 39 34 43 24 18 22 1 1 2 7 6 7 5 4 6 0 0 0 0 0 0 0 0 0 2 1 2 0 0 0 0 0 0 0 0 0 0 0 0 0 0 0 0 0 0 0 0 0 0 0 0 0 0 0 0 0 0 0 0 0 0 0 0 0 0 0 0 0 0 0 0 0 0 0 0 0 0 0 0 0 0 0 0 0 0 0 0 0 0 0 0 0 0 0 0 0 0 0 0 0 0 0 0 0 0 0 0 0 0 0 0 0 0 0 0 0 0 0 0 0 0 0 0 0 0 0 0 0 0 0 0 0 0 0 0 0 0 0 0 0 0 0 0 0 0 0 0 0 0 0 0 0 0 0 0 0 0 0 0 0 0 0 0 0 0 0 0 0 
0 0 0 0 0 0 0 0 0 0 0 0 1 1 1 0 0 0 0 0 0 0 0 0 0 0 0 0 0 0 0 0 0 0 0 0 2 2 2 2 1 2 0 0 0 0 0 0 0 0 0 0 0 0 0 0 0 0 0 0 0 0 0 0 0 0 0 0 0 0 0 0 0 0 0 0 0 0 0 0 0 0 0 0 0 0 0 0 0 0 0 0 0 0 0 0 0 0 0 0 0 0 0 0 0 0 0 0 0 0 0 0 0 0 0 0 0 0 0 0 0 0 0 0 0 0 0 0 0 0 0 0 0 0 0 0 0 0 0 0 0 0 0 0 0 0 0 0 0 0 0 0 0 0 0 0 0 0 0 0 0 0 0 0 0 0 0 0 0 0 0 0 0 0 0 0 0 0 0 0 0 0 0 0 0 0 0 0 0 
0 0 0 0 0 0 0 0 0 0 0 0 0 0 0 0 0 0 1 1 1 2 1 2 1 1 1 0 0 0 0 0 0 0 0 0 0 0 0 0 0 0 0 0 0 0 0 0 0 0 0 0 0 0 0 0 0 0 0 0 0 0 0 0 0 0 0 0 0 0 0 0 0 0 0 0 0 0 0 0 0 0 0 0 0 0 0 0 0 0 0 0 0 0 0 0 0 0 0 0 0 0 0 0 0 0 0 0 0 0 0 0 0 0 0 0 0 0 0 0 0 0 0 0 0 0 0 0 0 0 0 0 0 0 0 0 0 0 0 0 0 0 0 0 0 0 0 0 0 0 0 0 0 0 0 0 0 0 0 0 0 0 0 0 0 0 0 0 0 0 0 0 0 0 0 0 0 0 0 0 0 0 0 0 0 0 0 0 0 
0 0 0 0 0 0 0 0 0 0 0 0 0 0 0 0 0 0 0 0 0 0 0 0 0 0 0 0 0 0 0 0 0 0 0 0 0 0 0 0 0 0 0 0 0 0 0 0 0 0 0 0 0 0 0 0 0 0 0 0 0 0 0 0 0 0 0 0 0 0 0 0 0 0 0 0 0 0 0 0 0 0 0 0 0 0 0 0 0 0 0 0 0 0 0 0 0 0 0 0 0 0 0 0 0 0 0 0 0 0 0 0 0 0 0 0 0 0 0 0 0 0 0 0 0 0 0 0 0 0 0 0 0 0 0 0 0 0 0 0 0 0 0 0 0 0 0 0 0 0 0 0 0 0 0 0 0 0 0 0 0 0 0 0 0 0 0 0 0 0 0 0 0 0 0 0 0 0 0 0 0 0 0 0 0 0 0 0 0 
0 0 0 0 0 0 0 0 0 0 0 0 0 0 0 0 0 0 0 0 0 0 0 0 0 0 0 0 0 0 0 0 0 0 0 0 0 0 0 0 0 0 0 0 0 0 0 0 0 0 0 0 0 0 0 0 0 0 0 0 0 0 0 0 0 0 0 0 0 0 0 0 0 0 0 0 0 0 0 0 0 0 0 0 0 0 0 0 0 0 0 0 0 0 0 0 0 0 0 0 0 0 0 0 0 0 0 0 0 0 0 0 0 0 0 0 0 0 0 0 0 0 0 0 0 0 0 0 0 0 0 0 0 0 0 0 0 0 0 0 0 0 0 0 0 0 0 0 0 0 0 0 0 0 0 0 0 0 0 0 0 0 0 0 0 0 0 0 0 0 0 0 0 0 0 0 0 0 0 0 0 0 0 0 0 0 0 0 0 
