P3
51 41
255
0 0 0 0 0 0 0 0 0 0 0 0 0 0 0 0 0 0 0 0 0 0 0 0 0 0 0 0 0 0 0 0 0 0 0 0 0 0 0 0 0 0 0 0 0 0 0 0 0 0 0 0 0 0 0 0 0 0 0 0 0 0 0 0 0 0 0 0 0 0 0 0 0 0 0 0 0 0 0 0 0 0 0 0 0 0 0 0 0 0 0 0 0 0 0 0 0 0 0 0 0 0 0 0 0 0 0 0 0 0 0 0 0 0 0 0 0 0 0 0 0 0 0 0 0 0 0 0 0 0 0 0 0 0 0 0 0 0 0 0 0 0 0 0 0 0 0 0 0 0 0 0 0 
0 0 0 0 0 0 0 0 0 0 0 0 0 0 0 0 0 0 0 0 0 0 0 0 0 0 0 0 0 0 0 0 0 0 0 0 0 0 0 0 0 0 0 0 0 0 0 0 0 0 0 0 0 0 0 0 0 0 0 0 0 0 0 0 0 0 0 0 0 0 0 0 0 0 0 0 0 0 0 0 0 0 0 0 0 0 0 0 0 0 0 0 0 0 0 0 0 0 0 0 0 0 0 0 0 0 0 0 0 0 0 0 0 0 0 0 0 0 0 0 0 0 0 0 0 0 0 0 0 0 0 0 0 0 0 0 0 0 0 0 0 0 0 0 0 0 0 0 0 0 0 0 0 
0 0 0 0 0 0 0 0 0 0 0 0 0 0 0 0 0 0 0 0 0 0 0 0 0 0 0 0 0 0 0 0 0 0 0 0 0 0 0 0 0 0 0 0 0 0 0 0 0 0 0 0 0 0 0 0 0 0 0 0 0 0 0 0 0 0 0 0 0 0 0 0 0 0 0 0 0 0 0 0 0 0 0 0 0 0 0 0 0 0 0 0 0 0 0 0 0 0 0 0 0 0 0 0 0 0 0 0 0 0 0 0 0 0 0 0 0 0 0 0 0 0 0 0 0 0 0 0 0 0 0 0 0 0 0 0 0 0 0 0 0 0 0 0 0 0 0 0 0 0 0 0 0 
0 0 0 0 0 0 0 0 0 0 0 0 0 0 0 0 0 0 0 0 0 0 0 0 0 0 0 0 0 0 0 0 0 0 0 0 0 0 0 0 0 0 0 0 0 0 0 0 0 0 0 0 0 0 0 0 0 0 0 0 0 0 0 0 0 0 0 0 0 0 0 0 0 0 0 0 0 0 0 0 0 0 0 0 0 0 0 0 0 0 0 0 0 0 0 0 0 0 0 0 0 0 0 0 0 0 0 0 0 0 0 0 0 0 0 0 0 0 0 0 0 0 0 0 0 0 0 0 0 0 0 0 0 0 0 0 0 0 0 0 0 0 0 0 0 0 0 0 0 0 0 0 0 
0 0 0 0 0 0 0 0 0 0 0 0 0 0 0 0 0 0 0 0 0 0 0 0 0 0 0 0 0 0 0 0 0 0 0 0 0 0 0 0 0 0 0 0 0 0 0 0 0 0 0 0 0 0 0 0 0 0 0 0 1 1 1 8 8 8 0 0 0 0 0 0 0 0 0 0 0 0 0 0 0 0 0 0 0 0 0 0 0 0 0 0 0 0 0 0 0 0 0 0 0 0 0 0 0 0 0 0 0 0 0 0 0 0 0 0 0 0 0 0 0 0 0 0 0 0 0 0 0 0 0 0 0 0 0 0 0 0 0 0 0 0 0 0 0 0 0 0 0 0 0 0 0 
0 0 0 0 0 0 0 0 0 0 0 0 0 0 0 0 0 0 0 0 0 0 0 0 0 0 0 0 0 0 0 0 0 0 0 0 0 0 0 0 0 0 0 0 0 0 0 0 0 0 0 0 0 0 0 0 0 0 0 0 0 0 0 3 3 3 1 1 1 0 0 0 0 0 0 0 0 1 0 0 0 0 0 0 0 0 0 0 0 0 0 0 0 0 0 0 0 0 0 0 0 0 0 0 0 0 0 0 0 0 0 0 0 0 0 0 0 0 0 0 0 0 0 0 0 0 0 0 0 0 0 0 0 0 0 0 0 0 0 0 0 0 0 0 0 0 0 0 0 0 0 0 0 
0 0 0 0 0 0 0 0 0 0 0 0 0 0 0 0 0 0 0 0 0 0 0 0 0 0 0 0 0 0 0 0 0 0 0 0 0 0 0 0 0 0 0 0 0 0 0 0 0 0 0 0 0 0 0 0 0 1 1 1 0 0 0 0 0 0 4 4 4 13 13 13 6 5 6 0 0 0 0 0 0 0 0 0 0 0 0 0 0 0 0 0 0 0 0 0 0 0 0 0 0 0 0 0 0 0 0 0 0 0 0 0 0 0 0 0 0 0 0 0 0 0 0 0 0 0 0 0 0 0 0 0 0 0 0 0 0 0 0 0 0 0 0 0 0 0 0 0 0 0 0 0 0 
0 0 0 0 0 0 0 0 0 0 0 0 0 0 0 0 0 0 0 0 0 0 0 0 0 0 0 0 0 0 0 0 0 0 0 0 0 0 0 0 0 0 0 0 0 0 0 0 0 0 0 0 0 0 0 0 0 0 0 0 4 4 4 19 19 18 36 36 38 20 20 26 33 30 44 19 17 24 0 0 0 1 1 1 0 0 0 0 0 0 0 0 0 0 0 0 0 0 0 0 0 0 0 0 0 0 0 0 0 0 0 0 0 0 0 0 0 0 0 0 0 0 0 0 0 0 0 0 0 0 0 0 0 0 0 0 0 0 0 0 0 0 0 0 0 0 0 0 0 0 0 0 0 
0 0 0 0 0 0 0 0 0 0 0 0 0 0 0 0 0 0 0 0 0 0 0 0 0 0 0 0 0 0 0 0 0 0 0 0 0 0 0 0 0 0 0 0 0 1 1 1 0 0 0 0 0 0 3 3 3 19 19 19 29 29 29 17 17 16 29 28 31 71 67 55 64 62 56 30 29 39 3 3 3 3 3 3 3 3 3 0 0 0 0 0 0 0 0 0 0 0 0 0 0 0 0 0 0 0 0 0 0 0 0 0 0 0 0 0 0 0 0 0 0 0 0 0 0 0 0 0 0 0 0 0 0 0 0 0 0 0 0 0 0 0 0 0 0 0 0 0 0 0 0 0 0 
0 0 0 0 0 0 0 0 0 0 0 0 0 0 0 0 0 0 0 0 0 0 0 0 0 0 0 0 0 0 0 0 0 0 0 0 0 0 0 1 1 1 0 0 0 0 0 0 3 3 4 13 13 13 24 24 24 22 22 23 13 12 10 0 0 5 68 63 53 178 167 120 173 165 125 56 52 51 44 40 38 23 23 26 19 19 18 1 1 0 1 1 1 0 0 0 0 0 0 0 0 0 0 0 0 0 0 0 0 0 0 0 0 0 0 0 0 0 0 0 0 0 0 0 0 0 0 0 0 0 0 0 0 0 0 0 0 0 0 0 0 0 0 0 0 0 0 0 0 0 0 0 0 
0 0 0 0 0 0 0 0 0 0 0 0 0 0 0 0 0 0 0 0 0 0 0 0 0 0 0 0 0 0 0 0 0 1 1 1 0 0 0 0 0 0 2 2 2 20 20 20 33 33 35 19 19 21 3 3 3 0 0 0 34 31 29 65 59 49 130 123 91 180 171 130 202 193 149 189 179 141 203 192 149 87 82 75 12 12 26 9 9 12 7 6 5 0 0 0 0 0 0 0 0 0 0 0 0 0 0 0 0 0 0 0 0 0 0 0 0 0 0 0 0 0 0 0 0 0 0 0 0 0 0 0 0 0 0 0 0 0 0 0 0 0 0 0 0 0 0 0 0 0 0 0 0 
0 0 0 0 0 0 0 0 0 0 0 0 0 0 0 0 0 0 0 0 0 0 0 0 0 0 0 1 1 1 0 0 0 0 0 0 3 3 3 20 20 21 34 34 36 26 26 26 4 4 5 0 0 0 0 1 0 7 7 16 76 72 51 141 133 87 163 154 114 189 180 140 215 205 164 233 221 176 244 232 183 187 177 140 101 95 76 90 84 69 11 10 17 0 0 0 0 0 0 0 0 0 0 0 0 0 0 0 0 0 0 0 0 0 0 0 0 0 0 0 0 0 0 0 0 0 0 0 0 0 0 0 0 0 0 0 0 0 0 0 0 0 0 0 0 0 0 0 0 0 0 0 0 
0 0 0 0 0 0 0 0 0 0 0 0 0 0 0 0 0 0 0 0 0 0 0 0 0 0 0 0 0 0 2 2 2 20 20 22 35 35 35 27 27 27 6 6 6 0 0 0 1 1 1 0 0 0 30 28 19 62 57 39 106 98 61 140 131 92 170 161 121 198 189 146 227 217 175 244 234 189 245 236 190 232 220 170 220 207 151 178 166 112 61 59 60 2 3 6 0 0 0 0 0 0 0 0 0 0 0 0 0 0 0 0 0 0 0 0 0 0 0 0 0 0 0 0 0 0 0 0 0 0 0 0 0 0 0 0 0 0 0 0 0 0 0 0 0 0 0 0 0 0 0 0 0 
0 0 0 0 0 0 0 0 0 0 0 0 0 0 0 0 0 0 0 0 0 0 0 0 0 0 0 12 12 12 35 35 36 30 30 32 8 8 8 0 0 0 0 0 0 1 1 1 0 0 0 4 4 2 78 70 33 105 95 50 118 108 68 142 133 93 173 164 122 209 200 157 240 230 186 244 240 208 245 239 202 236 225 173 208 196 149 190 177 119 80 75 58 0 1 7 0 0 0 0 0 0 0 0 0 0 0 0 0 0 0 0 0 0 0 0 0 0 0 0 0 0 0 0 0 0 0 0 0 0 0 0 0 0 0 0 0 0 0 0 0 0 0 0 0 0 0 0 0 0 0 0 0 
0 0 0 0 0 0 0 0 0 0 0 0 0 0 0 0 0 0 0 0 0 0 0 0 14 14 16 49 49 55 15 15 15 0 0 0 0 0 0 0 0 0 0 0 0 1 1 0 0 0 0 13 12 7 86 78 37 99 90 50 119 110 69 144 135 94 176 167 126 223 211 164 255 248 202 247 247 232 253 248 221 236 224 172 215 204 150 162 152 102 50 47 54 13 13 18 0 0 0 1 1 1 0 0 0 0 0 0 0 0 0 0 0 0 0 0 0 0 0 0 0 0 0 0 0 0 0 0 0 0 0 0 0 0 0 0 0 0 0 0 0 0 0 0 0 0 0 0 0 0 0 0 0 
0 0 0 0 0 0 0 0 0 0 0 0 0 0 0 0 0 0 0 0 0 3 3 3 33 32 36 63 61 69 25 24 25 0 0 0 1 1 1 0 0 0 0 0 0 0 0 0 0 0 0 0 0 5 61 56 37 104 93 50 114 106 65 146 137 95 184 173 130 163 155 124 140 136 116 235 232 207 255 252 212 231 219 167 210 197 144 154 143 98 48 47 59 17 17 23 0 0 0 1 1 1 0 0 0 0 0 0 0 0 0 0 0 0 0 0 0 0 0 0 0 0 0 0 0 0 0 0 0 0 0 0 0 0 0 0 0 0 0 0 0 0 0 0 0 0 0 0 0 0 0 0 0 
0 0 0 0 0 0 0 0 0 0 0 0 0 0 0 0 0 0 0 0 0 1 1 1 40 39 44 32 31 37 11 11 10 0 0 0 1 1 1 1 1 1 0 0 0 0 0 0 0 0 0 1 1 4 68 61 33 101 92 46 123 113 68 110 102 70 37 37 34 35 34 30 0 0 7 143 138 113 255 245 184 220 208 157 199 188 136 181 169 107 86 81 65 3 3 9 0 0 0 0 0 1 0 0 0 0 0 0 0 0 0 0 0 0 0 0 0 0 0 0 0 0 0 0 0 0 0 0 0 0 0 0 0 0 0 0 0 0 0 0 0 0 0 0 0 0 0 0 0 0 0 0 0 
0 0 0 0 0 0 0 0 0 0 0 0 0 0 0 0 0 0 0 0 0 0 0 0 26 26 28 45 44 47 32 31 35 10 9 11 1 1 2 0 0 0 0 0 0 1 1 1 0 0 0 12 11 8 87 79 32 99 88 42 119 107 61 123 113 74 60 57 44 12 12 12 0 0 3 111 106 89 240 228 169 204 193 139 191 181 126 169 156 94 79 73 58 11 11 18 1 1 0 3 3 3 2 2 2 1 1 2 2 2 2 1 1 1 0 0 0 0 0 0 0 0 0 0 0 0 0 0 0 0 0 0 0 0 0 0 0 0 0 0 0 0 0 0 0 0 0 0 0 0 0 0 0 
0 0 0 0 0 0 0 0 0 0 0 0 0 0 0 0 0 0 0 0 0 0 0 0 0 1 0 15 15 13 42 40 38 47 45 47 30 29 34 18 17 22 6 6 8 0 0 0 0 0 0 0 0 5 62 56 30 97 86 36 106 96 50 133 123 74 164 154 102 68 64 54 44 42 42 189 179 134 219 205 151 192 181 126 181 169 108 129 116 68 56 54 71 29 28 36 0 0 0 1 1 1 0 0 0 0 0 0 0 0 0 0 0 0 1 1 1 0 0 0 0 0 0 0 0 0 0 0 0 0 0 0 0 0 0 0 0 0 0 0 0 0 0 0 0 0 0 0 0 0 0 0 0 
0 0 0 0 0 0 0 0 0 0 0 0 0 0 0 0 0 0 0 0 0 0 0 0 0 0 0 0 0 0 1 1 1 23 24 21 40 39 36 32 31 32 26 26 30 26 25 28 12 12 12 3 3 8 65 58 24 94 82 29 102 90 43 122 110 61 143 132 82 166 154 102 185 173 122 192 179 125 188 176 121 178 164 108 168 154 94 133 121 65 65 62 71 39 39 48 65 64 67 83 82 87 77 76 80 78 77 81 86 85 89 28 28 30 0 0 0 1 1 1 0 0 0 0 0 0 0 0 0 0 0 0 0 0 0 0 0 0 0 0 0 0 0 0 0 0 0 0 0 0 0 0 0 
0 0 0 0 0 0 0 0 0 0 0 0 0 0 0 0 0 0 0 0 0 0 0 0 0 0 0 0 0 0 0 0 0 0 0 0 8 8 7 30 30 29 30 30 30 17 16 17 22 22 25 39 38 38 77 68 31 89 76 25 101 88 32 111 99 46 127 115 65 148 136 84 164 151 97 167 155 100 166 152 95 160 145 86 147 133 75 142 126 57 67 60 41 106 106 119 136 135 141 108 107 114 113 112 119 120 119 125 117 116 123 103 102 108 14 14 15 0 0 0 1 1 1 0 0 0 0 0 0 0 0 0 0 0 0 0 0 0 0 0 0 0 0 0 0 0 0 0 0 0 0 0 0 
0 0 0 0 0 0 0 0 0 0 0 0 0 0 0 0 0 0 0 0 0 0 0 0 0 0 0 0 0 0 0 0 0 1 1 0 0 0 0 0 0 0 16 16 16 34 32 33 19 18 18 8 8 10 54 47 30 68 60 34 78 71 41 102 91 43 122 110 53 133 120 61 142 129 72 149 136 79 152 137 78 144 130 68 143 127 57 110 96 31 68 65 67 112 111 118 92 91 97 101 100 106 104 103 109 101 100 105 99 98 104 109 108 114 76 76 80 0 0 0 1 1 1 0 0 0 0 0 0 0 0 0 0 0 0 0 0 0 0 0 0 0 0 0 0 0 0 0 0 0 0 0 0 
0 0 0 0 0 0 0 0 0 0 0 0 0 0 0 0 0 0 0 0 0 0 0 0 0 0 0 0 0 0 0 0 0 0 0 0 1 1 0 1 1 1 0 0 0 2 2 2 23 23 23 28 28 29 36 32 23 37 35 30 62 55 28 71 63 34 82 75 46 108 96 53 131 116 56 136 122 58 136 121 59 117 103 48 78 71 46 57 52 39 96 96 107 116 115 121 105 104 110 100 99 105 99 98 104 102 101 107 101 100 106 99 98 104 107 106 113 29 28 30 0 0 0 1 1 1 0 0 0 0 0 0 0 0 0 0 0 0 0 0 0 0 0 0 0 0 0 0 0 0 0 0 0 
0 0 0 0 0 0 0 0 0 0 0 0 0 0 0 0 0 0 0 0 0 0 0 0 0 0 0 0 0 0 0 0 0 0 0 0 1 2 2 0 0 0 0 0 0 0 0 0 0 0 0 7 7 7 37 37 38 35 34 44 54 48 25 86 72 16 82 72 23 78 69 34 83 75 45 101 91 46 124 107 39 70 63 36 21 23 39 52 52 61 113 112 118 102 100 107 90 89 95 94 93 99 99 98 104 101 100 106 100 99 105 99 98 104 103 102 109 80 79 83 1 1 2 0 0 0 0 0 0 0 0 0 0 0 0 0 0 0 0 0 0 0 0 0 0 0 0 0 0 0 0 0 0 
0 0 0 0 0 0 0 0 0 0 0 0 0 0 0 0 0 0 0 0 0 0 0 0 0 0 0 0 0 0 2 2 2 0 1 1 1 1 1 1 1 1 8 9 11 30 32 35 54 55 60 74 76 83 88 90 97 83 84 88 60 58 65 43 42 54 73 64 28 106 88 7 98 82 15 52 48 42 53 49 48 57 55 60 45 44 51 57 55 60 96 96 101 84 84 90 87 87 92 90 89 95 94 93 99 95 94 100 95 94 100 94 93 99 93 92 98 105 104 111 30 31 33 0 0 0 1 1 1 0 0 0 0 0 0 0 0 0 0 0 0 0 0 0 0 0 0 0 0 0 0 0 0 
0 0 0 0 0 0 0 0 0 0 0 0 0 0 0 0 0 0 0 0 0 0 0 0 2 2 2 1 1 1 0 0 0 7 6 9 57 60 73 101 107 129 105 112 134 104 112 127 95 100 108 96 96 102 118 118 125 157 157 166 205 203 213 87 87 91 43 39 33 77 66 19 75 65 28 53 50 54 47 45 50 68 67 71 107 105 112 77 77 82 79 80 85 81 82 87 84 84 90 88 87 93 94 93 98 99 98 103 104 103 108 110 109 115 112 111 117 122 122 129 73 75 78 0 0 0 1 1 1 0 0 0 0 0 0 0 0 0 0 0 0 0 0 0 0 0 0 0 0 0 0 0 0 
0 0 0 0 0 0 0 0 0 0 0 0 0 0 0 0 0 0 1 1 1 1 1 1 0 0 0 5 5 6 48 51 61 105 111 135 126 132 163 117 124 150 107 113 136 99 107 125 93 101 113 87 91 99 89 90 95 113 112 118 174 174 180 73 72 67 39 38 32 48 48 46 48 48 46 53 52 47 46 46 37 75 74 74 113 114 125 101 104 112 106 106 114 100 100 108 97 97 102 98 97 103 107 108 114 116 116 122 114 114 120 106 105 114 101 101 108 106 106 112 97 96 103 22 22 23 0 0 0 1 1 1 0 0 0 0 0 0 0 0 0 0 0 0 0 0 0 0 0 0 0 0 0 
0 0 0 0 0 0 0 0 0 0 0 0 1 1 1 1 1 1 0 0 0 4 4 6 43 45 53 94 100 117 119 126 150 111 119 142 102 109 126 98 106 119 95 103 115 94 101 114 94 101 115 97 103 116 101 104 112 103 102 108 98 98 104 83 84 84 70 69 68 56 53 49 55 52 44 57 56 50 56 55 49 90 90 92 119 118 130 120 120 130 121 121 130 109 111 118 100 102 108 101 101 109 104 106 115 103 105 113 103 105 112 105 106 117 99 100 110 129 129 138 133 132 143 49 48 53 1 2 1 0 0 0 0 0 0 0 0 0 0 0 0 0 0 0 0 0 0 0 0 0 0 0 0 
0 0 0 0 0 0 0 0 0 1 1 1 0 0 0 1 1 1 32 34 37 81 86 94 106 114 129 104 111 127 98 105 119 100 107 119 104 110 124 106 113 129 108 115 134 109 115 138 117 122 145 120 126 143 117 121 133 123 126 138 126 127 137 116 116 124 109 107 110 119 115 96 121 117 100 113 112 115 110 112 122 116 118 128 114 116 127 113 115 126 114 116 127 112 113 123 116 117 128 123 123 132 127 127 135 115 117 125 109 113 121 136 140 150 133 138 150 151 155 168 178 183 196 92 93 101 13 12 14 0 0 0 1 1 1 0 0 0 0 0 0 0 0 0 0 0 0 0 0 0 0 0 0 
0 0 0 0 0 0 0 0 0 6 6 6 33 32 35 77 80 88 107 112 126 114 121 140 112 119 141 114 121 144 117 124 150 119 126 152 121 128 155 122 127 154 119 125 149 118 125 148 118 124 144 116 121 138 115 119 134 113 117 132 114 118 131 118 122 134 126 131 142 134 141 151 138 145 159 139 145 161 140 147 161 140 147 161 141 147 162 139 146 161 131 138 152 122 127 138 126 130 143 126 131 142 123 127 134 114 116 124 105 105 114 138 132 144 130 123 137 138 128 141 174 163 179 179 168 182 43 42 49 0 0 0 1 1 1 0 0 0 0 0 0 0 0 0 0 0 0 0 0 0 0 0 0 
0 0 0 2 2 2 0 0 0 45 44 46 96 96 104 100 105 119 116 122 144 84 86 104 102 104 127 112 117 139 110 115 132 108 113 126 106 110 125 109 112 126 111 114 128 113 115 129 116 120 133 124 128 142 132 134 149 132 136 150 132 138 153 135 143 157 138 146 160 137 146 159 140 149 161 138 145 159 135 141 157 134 137 152 135 133 148 142 135 152 139 130 144 138 128 141 145 129 144 154 135 152 151 134 149 132 118 131 119 103 116 114 100 112 121 107 119 145 119 138 170 139 158 159 136 151 111 98 111 17 19 20 0 0 0 1 1 1 0 0 0 0 0 0 0 0 0 0 0 0 0 0 0 
0 0 0 2 2 2 0 0 0 72 72 74 82 84 93 87 92 105 93 97 117 38 36 44 77 80 91 112 116 130 117 119 133 117 120 135 118 122 137 120 125 140 119 124 139 119 125 139 123 130 145 126 132 146 127 130 146 130 131 145 138 136 151 145 140 157 147 138 155 152 139 156 157 137 156 165 141 161 168 139 160 165 135 157 161 133 156 156 134 158 139 121 141 80 66 73 68 55 62 49 39 45 33 27 31 15 13 15 4 4 5 0 0 0 1 1 1 7 6 7 15 13 14 32 26 30 50 42 50 31 31 36 1 1 1 0 0 0 0 0 0 0 0 0 0 0 0 0 0 0 0 0 0 
0 0 0 0 0 0 1 1 1 94 93 97 79 82 94 92 96 114 92 99 118 43 43 54 90 96 109 119 126 142 115 119 134 117 120 134 118 119 132 122 120 133 130 122 137 144 131 147 154 135 153 165 140 161 171 143 165 162 133 154 153 124 144 155 126 145 174 137 159 179 137 163 176 147 171 171 144 177 136 122 159 101 86 107 130 131 165 114 113 147 89 83 104 7 5 5 0 0 0 0 0 0 0 0 0 0 0 0 0 0 0 1 1 1 1 0 1 0 0 0 0 0 0 0 0 0 22 23 28 22 21 25 0 0 0 0 0 0 0 0 0 0 0 0 0 0 0 0 0 0 0 0 0 
1 1 1 0 0 0 23 22 22 95 94 102 60 64 75 96 97 115 106 95 113 43 40 49 110 100 113 139 120 134 142 120 138 157 130 151 169 136 163 178 141 171 178 139 170 167 128 153 143 110 129 108 84 101 62 49 57 21 18 20 6 5 7 5 4 5 39 34 41 71 66 79 85 82 90 111 100 121 101 92 119 119 88 109 72 62 80 26 20 27 17 14 16 13 12 12 0 0 0 2 2 2 1 1 1 1 1 1 0 0 0 0 0 0 0 0 0 1 0 1 1 1 1 1 1 1 6 5 7 3 3 5 0 0 0 0 0 0 0 0 0 0 0 0 0 0 0 0 0 0 0 0 0 
2 2 2 0 0 0 49 48 51 118 103 123 141 114 141 181 145 187 163 134 163 42 42 48 181 151 186 219 175 226 215 169 223 206 158 209 187 141 183 154 114 146 107 79 99 58 42 52 15 11 13 0 0 0 0 0 0 0 0 0 0 0 0 0 0 0 0 0 0 0 0 0 0 0 0 1 1 1 2 1 1 8 5 6 1 1 1 0 0 0 0 0 1 0 0 0 0 0 0 0 0 0 0 0 0 0 0 0 0 0 0 0 0 0 0 0 0 0 0 0 0 0 0 0 0 0 0 0 0 0 0 0 0 0 0 0 0 0 0 0 0 0 0 0 0 0 0 0 0 0 0 0 0 
2 2 2 0 0 0 57 47 53 140 117 140 194 167 207 255 213 255 217 175 225 87 75 90 211 167 218 181 137 180 151 112 141 114 85 103 60 44 52 19 15 16 1 0 0 0 0 0 0 0 0 1 1 1 2 2 2 1 1 1 0 0 0 0 0 0 2 1 2 2 2 2 2 2 2 1 1 2 0 0 1 0 0 0 1 1 2 1 1 1 0 0 0 0 0 0 0 0 0 0 0 0 0 0 0 0 0 0 0 0 0 0 0 0 0 0 0 0 0 0 0 0 0 0 0 0 0 0 0 0 0 0 0 0 0 0 0 0 0 0 0 0 0 0 0 0 0 0 0 0 0 0 0 
0 0 0 2 3 2 0 0 0 19 19 18 93 86 102 127 109 141 178 140 184 133 98 119 102 78 93 80 61 72 55 45 52 19 16 18 0 0 0 0 0 0 1 0 1 2 1 2 1 1 1 0 0 0 0 0 0 0 0 0 0 0 0 0 0 0 0 0 0 0 0 0 0 0 0 0 0 0 0 0 0 0 0 0 0 0 0 0 0 0 0 0 0 0 0 0 0 0 0 0 0 0 0 0 0 0 0 0 0 0 0 0 0 0 0 0 0 0 0 0 0 0 0 0 0 0 0 0 0 0 0 0 0 0 0 0 0 0 0 0 0 0 0 0 0 0 0 0 0 0 0 0 0 
0 0 0 0 0 0 1 1 1 1 1 1 4 2 2 18 15 18 16 14 17 1 1 0 2 2 2 1 1 2 0 0 0 0 0 0 2 1 2 1 1 1 0 0 0 0 0 0 0 0 0 0 0 0 0 0 0 0 0 0 0 0 0 0 0 0 0 0 0 0 0 0 0 0 0 0 0 0 0 0 0 0 0 0 0 0 0 0 0 0 0 0 0 0 0 0 0 0 0 0 0 0 0 0 0 0 0 0 0 0 0 0 0 0 0 0 0 0 0 0 0 0 0 0 0 0 0 0 0 0 0 0 0 0 0 0 0 0 0 0 0 0 0 0 0 0 0 0 0 0 0 0 0 
0 0 0 0 0 0 0 0 0 1 1 1 1 1 1 0 0 0 0 0 0 0 0 0 0 0 0 1 1 1 2 2 2 1 1 1 0 0 0 0 0 0 0 0 0 0 0 0 0 0 0 0 0 0 0 0 0 0 0 0 0 0 0 0 0 0 0 0 0 0 0 0 0 0 0 0 0 0 0 0 0 0 0 0 0 0 0 0 0 0 0 0 0 0 0 0 0 0 0 0 0 0 0 0 0 0 0 0 0 0 0 0 0 0 0 0 0 0 0 0 0 0 0 0 0 0 0 0 0 0 0 0 0 0 0 0 0 0 0 0 0 0 0 0 0 0 0 0 0 0 0 0 0 
0 0 0 0 0 0 0 0 0 0 0 0 0 0 0 1 1 1 1 1 1 0 0 0 0 0 0 0 0 0 0 0 0 0 0 0 0 0 0 0 0 0 0 0 0 0 0 0 0 0 0 0 0 0 0 0 0 0 0 0 0 0 0 0 0 0 0 0 0 0 0 0 0 0 0 0 0 0 0 0 0 0 0 0 0 0 0 0 0 0 0 0 0 0 0 0 0 0 0 0 0 0 0 0 0 0 0 0 0 0 0 0 0 0 0 0 0 0 0 0 0 0 0 0 0 0 0 0 0 0 0 0 0 0 0 0 0 0 0 0 0 0 0 0 0 0 0 0 0 0 0 0 0 
0 0 0 0 0 0 0 0 0 0 0 0 0 0 0 0 0 0 0 0 0 0 0 0 0 0 0 0 0 0 0 0 0 0 0 0 0 0 0 0 0 0 0 0 0 0 0 0 0 0 0 0 0 0 0 0 0 0 0 0 0 0 0 0 0 0 0 0 0 0 0 0 0 0 0 0 0 0 0 0 0 0 0 0 0 0 0 0 0 0 0 0 0 0 0 0 0 0 0 0 0 0 0 0 0 0 0 0 0 0 0 0 0 0 0 0 0 0 0 0 0 0 0 0 0 0 0 0 0 0 0 0 0 0 0 0 0 0 0 0 0 0 0 0 0 0 0 0 0 0 0 0 0 
