P3
45 36
255
0 0 0 0 0 0 0 0 0 0 0 0 0 0 0 0 0 0 0 0 0 0 0 0 0 0 0 0 0 0 0 0 0 0 0 0 0 0 0 0 0 0 0 0 0 0 0 0 0 0 0 0 0 0 0 0 0 0 0 0 0 0 0 0 0 0 0 0 0 0 0 0 0 0 0 0 0 0 0 0 0 0 0 0 0 0 0 0 0 0 0 0 0 0 0 0 0 0 0 0 0 0 0 0 0 0 0 0 0 0 0 0 0 0 0 0 0 0 0 0 0 0 0 0 0 0 0 0 0 0 0 0 0 0 0 
0 0 0 0 0 0 0 0 0 0 0 0 0 0 0 0 0 0 0 0 0 0 0 0 0 0 0 0 0 0 0 0 0 0 0 0 0 0 0 0 0 0 0 0 0 0 0 0 0 0 0 0 0 0 0 0 0 0 0 0 0 0 0 0 0 0 0 0 0 0 0 0 0 0 0 0 0 0 0 0 0 0 0 0 0 0 0 0 0 0 0 0 0 0 0 0 0 0 0 0 0 0 0 0 0 0 0 0 0 0 0 0 0 0 0 0 0 0 0 0 0 0 0 0 0 0 0 0 0 0 0 0 0 0 0 
0 0 0 0 0 0 0 0 0 0 0 0 0 0 0 0 0 0 0 0 0 0 0 0 0 0 0 0 0 0 0 0 0 0 0 0 0 0 0 0 0 0 0 0 0 0 0 0 0 0 0 0 0 0 0 0 0 0 0 0 0 0 0 0 0 0 0 0 0 0 0 0 0 0 0 0 0 0 0 0 0 0 0 0 0 0 0 0 0 0 0 0 0 0 0 0 0 0 0 0 0 0 0 0 0 0 0 0 0 0 0 0 0 0 0 0 0 0 0 0 0 0 0 0 0 0 0 0 0 0 0 0 0 0 0 
0 0 0 0 0 0 0 0 0 0 0 0 0 0 0 0 0 0 0 0 0 0 0 0 0 0 0 0 0 0 0 0 0 0 0 0 0 0 0 0 0 0 0 0 0 0 0 0 0 0 0 0 0 0 3 3 3 2 2 2 0 0 0 0 0 0 0 0 0 0 0 0 0 0 0 0 0 0 0 0 0 0 0 0 0 0 0 0 0 0 0 0 0 0 0 0 0 0 0 0 0 0 0 0 0 0 0 0 0 0 0 0 0 0 0 0 0 0 0 0 0 0 0 0 0 0 0 0 0 0 0 0 0 0 0 
0 0 0 0 0 0 0 0 0 0 0 0 0 0 0 0 0 0 0 0 0 0 0 0 0 0 0 0 0 0 0 0 0 0 0 0 0 0 0 0 0 0 0 0 0 0 0 0 0 0 0 0 0 0 4 4 4 4 4 4 0 0 0 0 0 0 0 0 1 0 0 0 0 0 0 0 0 0 0 0 0 0 0 0 0 0 0 0 0 0 0 0 0 0 0 0 0 0 0 0 0 0 0 0 0 0 0 0 0 0 0 0 0 0 0 0 0 0 0 0 0 0 0 0 0 0 0 0 0 0 0 0 0 0 0 
0 0 0 0 0 0 0 0 0 0 0 0 0 0 0 0 0 0 0 0 0 0 0 0 0 0 0 0 0 0 0 0 0 0 0 0 0 0 0 0 0 0 0 0 0 0 0 0 0 0 0 0 0 0 0 0 0 1 1 1 7 7 7 4 4 4 0 0 0 0 0 0 0 0 0 0 0 0 0 0 0 0 0 0 0 0 0 0 0 0 0 0 0 0 0 0 0 0 0 0 0 0 0 0 0 0 0 0 0 0 0 0 0 0 0 0 0 0 0 0 0 0 0 0 0 0 0 0 0 0 0 0 0 0 0 
0 0 0 0 0 0 0 0 0 0 0 0 0 0 0 0 0 0 0 0 0 0 0 0 0 0 0 0 0 0 0 0 0 0 0 0 0 0 0 0 0 0 0 0 0 0 0 0 0 0 0 0 0 0 8 8 8 27 27 28 23 23 28 25 23 35 17 15 21 0 0 0 1 1 1 0 0 0 0 0 0 0 0 0 0 0 0 0 0 0 0 0 0 0 0 0 0 0 0 0 0 0 0 0 0 0 0 0 0 0 0 0 0 0 0 0 0 0 0 0 0 0 0 0 0 0 0 0 0 0 0 0 0 0 0 
0 0 0 0 0 0 0 0 0 0 0 0 0 0 0 0 0 0 0 0 0 0 0 0 0 0 0 0 0 0 0 0 0 0 0 0 0 0 0 1 1 1 0 0 0 0 0 0 8 8 8 24 24 24 22 22 21 19 18 21 68 64 54 77 74 63 28 26 37 1 1 1 5 5 4 2 2 2 0 0 0 0 0 0 0 0 0 0 0 0 0 0 0 0 0 0 0 0 0 0 0 0 0 0 0 0 0 0 0 0 0 0 0 0 0 0 0 0 0 0 0 0 0 0 0 0 0 0 0 0 0 0 0 0 0 
0 0 0 0 0 0 0 0 0 0 0 0 0 0 0 0 0 0 0 0 0 0 0 0 0 0 0 0 0 0 0 0 0 0 0 0 0 0 0 0 0 0 9 9 10 18 18 19 21 21 21 15 15 14 6 5 8 34 31 32 163 153 111 186 178 134 86 80 70 64 60 53 26 26 29 12 12 12 0 0 0 1 2 2 0 0 0 0 0 0 0 0 0 0 0 0 0 0 0 0 0 0 0 0 0 0 0 0 0 0 0 0 0 0 0 0 0 0 0 0 0 0 0 0 0 0 0 0 0 0 0 0 0 0 0 
0 0 0 0 0 0 0 0 0 0 0 0 0 0 0 0 0 0 0 0 0 0 0 0 0 0 0 0 0 0 0 0 0 0 0 0 8 8 8 27 27 28 28 28 29 10 10 11 0 0 0 8 8 10 74 68 52 123 116 84 176 167 127 203 193 152 215 204 160 223 211 164 80 76 71 22 21 30 16 14 16 1 1 1 0 0 0 0 0 0 0 0 0 0 0 0 0 0 0 0 0 0 0 0 0 0 0 0 0 0 0 0 0 0 0 0 0 0 0 0 0 0 0 0 0 0 0 0 0 0 0 0 0 0 0 
0 0 0 0 0 0 0 0 0 0 0 0 0 0 0 0 0 0 0 0 0 0 0 0 0 0 0 0 0 0 7 7 8 27 27 28 30 30 31 13 13 13 0 0 0 0 0 0 9 10 11 44 41 35 123 115 74 159 149 108 185 176 136 217 207 166 238 227 182 243 232 184 200 190 146 168 158 111 78 74 65 3 4 11 0 0 0 0 0 1 0 0 0 0 0 0 0 0 0 0 0 0 0 0 0 0 0 0 0 0 0 0 0 0 0 0 0 0 0 0 0 0 0 0 0 0 0 0 0 0 0 0 0 0 0 
0 0 0 0 0 0 0 0 0 0 0 0 0 0 0 0 0 0 0 0 0 0 0 0 6 6 6 28 28 30 33 33 34 14 14 14 0 0 0 0 0 0 0 0 0 4 4 3 71 65 34 102 93 53 126 117 78 159 150 111 196 187 144 231 221 178 245 239 199 244 236 193 231 219 168 211 198 142 143 133 93 14 15 22 0 0 0 1 1 1 0 0 0 0 0 0 0 0 0 0 0 0 0 0 0 0 0 0 0 0 0 0 0 0 0 0 0 0 0 0 0 0 0 0 0 0 0 0 0 0 0 0 0 0 0 
0 0 0 0 0 0 0 0 0 0 0 0 0 0 0 0 0 0 0 0 0 10 10 12 39 39 42 16 16 16 0 0 0 0 0 0 0 0 0 1 1 1 0 0 0 20 18 9 93 84 40 106 96 56 129 120 80 160 151 111 209 198 153 253 244 197 247 246 228 248 243 211 229 217 166 206 194 138 110 102 76 17 18 27 0 0 0 1 1 1 0 0 0 0 0 0 0 0 0 0 0 0 0 0 0 0 0 0 0 0 0 0 0 0 0 0 0 0 0 0 0 0 0 0 0 0 0 0 0 0 0 0 0 0 0 
0 0 0 0 0 0 0 0 0 0 0 0 0 0 0 0 0 0 1 1 1 31 31 35 61 59 67 9 9 9 0 0 0 1 1 1 0 0 0 0 0 0 0 0 0 5 5 8 76 69 40 106 97 54 127 119 77 173 163 119 183 174 136 161 156 130 237 234 212 255 250 210 224 211 159 201 188 131 87 82 70 25 25 39 0 0 0 1 1 1 0 0 0 0 0 0 0 0 0 0 0 0 0 0 0 0 0 0 0 0 0 0 0 0 0 0 0 0 0 0 0 0 0 0 0 0 0 0 0 0 0 0 0 0 0 
0 0 0 0 0 0 0 0 0 0 0 0 0 0 0 0 0 0 0 1 0 38 37 42 33 32 37 6 6 5 0 0 0 0 0 0 1 1 1 1 1 1 0 0 0 6 6 7 79 71 36 106 97 51 131 120 77 63 61 48 37 37 32 2 3 8 140 136 111 255 243 183 213 202 151 195 183 125 140 130 87 19 18 25 0 0 0 1 1 1 1 1 1 1 1 1 1 1 1 0 0 0 0 0 0 0 0 0 0 0 0 0 0 0 0 0 0 0 0 0 0 0 0 0 0 0 0 0 0 0 0 0 0 0 0 
0 0 0 0 0 0 0 0 0 0 0 0 0 0 0 0 0 0 0 0 0 21 21 22 43 42 44 32 31 34 11 10 13 1 1 2 0 0 0 1 1 0 0 0 0 17 16 10 90 81 34 103 92 47 126 114 69 105 98 68 27 26 22 0 0 0 122 117 95 236 224 165 197 187 133 185 173 112 119 109 71 29 28 37 0 0 0 1 1 1 0 0 0 0 0 0 0 0 0 1 1 1 0 0 0 0 0 0 0 0 0 0 0 0 0 0 0 0 0 0 0 0 0 0 0 0 0 0 0 0 0 0 0 0 0 
0 0 0 0 0 0 0 0 0 0 0 0 0 0 0 0 0 0 0 0 0 0 0 0 9 9 7 36 35 33 45 44 45 29 28 32 18 17 21 7 7 8 0 0 0 3 3 7 70 62 30 99 87 38 113 103 56 158 147 93 125 117 85 87 82 68 194 183 134 209 196 142 183 172 116 169 155 91 78 72 63 43 43 62 0 0 0 10 10 11 11 11 11 11 11 12 9 9 10 0 0 0 0 0 0 0 0 0 0 0 0 0 0 0 0 0 0 0 0 0 0 0 0 0 0 0 0 0 0 0 0 0 0 0 0 
0 0 0 0 0 0 0 0 0 0 0 0 0 0 0 0 0 0 0 0 0 0 0 0 0 0 0 0 0 0 16 16 13 35 34 32 30 30 31 24 23 26 22 21 25 27 25 25 80 70 23 96 83 29 108 96 45 125 114 66 158 145 92 187 174 117 182 170 115 176 163 106 167 152 96 156 141 78 103 93 55 58 58 71 110 109 115 111 110 116 104 103 109 112 111 117 106 105 111 24 24 26 0 0 0 1 1 1 0 0 0 0 0 0 0 0 0 0 0 0 0 0 0 0 0 0 0 0 0 0 0 0 0 0 0 
0 0 0 0 0 0 0 0 0 0 0 0 0 0 0 0 0 0 0 0 0 0 0 0 0 0 0 1 1 1 0 0 0 4 3 3 23 23 23 29 28 28 16 15 16 27 26 25 70 61 34 83 72 32 99 88 39 119 107 51 134 121 67 146 134 80 156 143 87 157 143 85 149 135 73 146 130 57 89 78 34 91 90 101 116 115 120 98 97 103 108 107 113 106 105 111 109 108 115 94 93 98 6 6 7 0 0 0 0 0 0 0 0 0 0 0 0 0 0 0 0 0 0 0 0 0 0 0 0 0 0 0 0 0 0 
0 0 0 0 0 0 0 0 0 0 0 0 0 0 0 0 0 0 0 0 0 0 0 0 0 0 0 0 0 0 1 1 1 1 1 1 0 0 0 10 10 10 26 26 26 22 21 21 41 37 23 49 46 33 71 64 35 87 79 45 112 100 53 133 118 58 140 126 64 140 125 63 120 107 53 92 81 38 68 64 60 114 113 124 103 102 107 104 103 109 101 100 105 101 100 106 98 97 102 109 108 115 53 53 57 0 0 0 2 2 2 0 0 0 0 0 0 0 0 0 0 0 0 0 0 0 0 0 0 0 0 0 0 0 0 
0 0 0 0 0 0 0 0 0 0 0 0 0 0 0 0 0 0 0 0 0 0 0 0 0 0 0 0 0 0 1 2 2 1 1 1 0 0 0 0 0 0 0 0 0 13 13 12 35 34 37 35 33 36 73 62 15 81 70 23 79 70 36 90 80 47 110 98 47 125 108 40 57 52 37 25 25 41 88 86 94 114 113 119 93 92 98 93 92 98 99 98 104 101 100 106 100 99 105 101 100 107 96 95 100 13 13 14 0 0 0 1 1 1 0 0 0 0 0 0 0 0 0 0 0 0 0 0 0 0 0 0 0 0 0 
0 0 0 0 0 0 0 0 0 0 0 0 0 0 0 0 0 0 0 0 0 0 0 0 1 1 2 1 1 1 0 0 0 2 2 2 8 9 10 27 29 32 50 52 56 71 73 79 89 91 96 78 78 83 53 51 60 59 53 40 100 83 8 97 81 14 56 51 42 56 52 48 55 54 61 43 42 47 83 82 88 90 90 95 85 85 90 90 89 95 94 93 99 95 94 100 95 94 101 92 91 97 105 104 111 56 56 59 0 0 0 1 1 1 0 0 0 0 0 0 0 0 0 0 0 0 0 0 0 0 0 0 0 0 0 
0 0 0 0 0 0 0 0 0 0 0 0 0 0 0 0 0 0 1 1 1 1 1 1 0 0 0 1 1 1 38 39 49 95 100 121 109 116 139 105 113 130 96 102 111 96 96 102 119 119 126 184 184 194 169 169 175 37 37 38 67 60 28 74 65 29 55 52 54 46 45 49 86 85 89 97 97 104 76 77 83 81 82 88 84 85 90 88 87 93 96 95 101 103 101 107 108 107 112 113 111 118 120 119 126 98 99 104 6 6 6 0 0 0 0 0 0 0 0 0 0 0 0 0 0 0 0 0 0 0 0 0 0 0 0 
0 0 0 0 0 0 0 0 0 0 0 0 1 1 1 1 1 1 0 0 0 0 0 0 31 33 39 89 94 114 123 129 159 118 124 151 107 113 134 99 106 124 93 101 115 88 93 102 87 88 94 121 120 127 116 117 117 42 41 34 44 44 45 42 42 43 49 48 42 44 43 33 94 93 97 113 115 126 115 116 125 109 109 117 101 101 107 100 99 105 107 108 115 114 115 121 108 108 115 95 95 105 96 96 102 108 107 115 40 40 43 0 0 0 1 1 1 0 0 0 0 0 0 0 0 0 0 0 0 0 0 0 0 0 0 
0 0 0 0 0 0 0 0 0 1 1 1 0 0 0 0 0 0 26 27 31 78 82 95 111 118 137 110 118 137 99 106 121 97 104 116 96 104 116 96 103 117 100 106 123 106 113 126 112 114 123 115 115 123 107 108 114 94 93 96 84 79 70 82 76 59 79 77 72 79 79 80 107 106 113 113 113 124 115 116 126 109 111 118 102 104 111 106 106 115 112 112 122 104 105 114 112 114 123 120 122 134 133 136 147 165 167 180 74 74 82 4 4 4 0 0 0 0 0 0 0 0 0 0 0 0 0 0 0 0 0 0 0 0 0 
0 0 0 0 0 0 2 2 2 2 2 2 22 22 24 66 69 75 104 111 124 111 118 135 105 112 130 108 115 134 113 120 141 118 124 148 119 125 150 119 125 151 122 128 152 121 127 144 115 119 134 116 119 134 116 118 129 114 116 126 129 130 127 135 137 136 131 134 145 131 136 150 132 135 149 129 134 147 127 132 146 121 125 137 124 128 139 127 132 142 126 129 136 108 112 119 114 118 126 134 135 147 127 128 140 164 165 179 154 152 164 27 26 30 0 0 0 1 1 1 0 0 0 0 0 0 0 0 0 0 0 0 0 0 0 
0 0 0 1 1 1 0 0 0 62 60 64 93 95 107 120 127 146 103 107 129 109 114 138 116 122 147 114 120 141 112 117 136 112 116 135 112 115 132 112 116 131 113 118 132 119 123 137 126 128 143 126 130 145 128 135 149 135 143 157 137 146 161 139 150 165 139 149 163 137 146 161 135 141 156 139 141 157 137 136 152 132 130 142 136 130 144 147 137 152 145 136 149 130 120 132 126 112 125 138 124 138 145 124 141 179 149 170 184 162 177 95 87 97 5 5 6 0 0 0 0 0 0 0 0 0 0 0 0 0 0 0 0 0 0 
0 0 0 0 0 0 9 9 9 91 91 97 81 84 96 101 106 125 50 49 60 76 77 89 112 116 130 114 117 130 114 117 131 116 120 135 118 123 137 117 122 136 121 129 143 126 132 147 129 133 148 133 135 149 140 141 156 144 141 157 146 140 155 150 138 155 157 139 158 160 138 157 158 134 154 156 131 153 155 135 157 113 96 108 91 75 84 80 65 74 61 51 58 38 33 36 21 19 21 12 12 13 27 23 26 42 34 40 55 44 51 68 58 67 25 26 29 0 0 0 0 0 0 0 0 0 0 0 0 0 0 0 0 0 0 
1 1 1 0 0 0 34 33 33 95 96 104 81 85 100 96 102 122 49 50 62 86 91 104 120 126 141 115 117 132 117 119 132 121 120 133 127 122 137 141 130 146 154 136 154 164 141 162 164 139 160 152 126 145 147 121 140 162 131 150 178 138 163 177 146 170 176 148 182 135 117 151 119 104 129 129 128 164 108 103 132 34 29 35 0 0 0 1 1 1 0 0 0 0 0 0 0 0 0 0 0 0 0 0 0 0 0 0 0 0 0 19 20 24 18 18 21 0 0 0 0 0 0 0 0 0 0 0 0 0 0 0 0 0 0 
2 2 2 0 0 0 58 57 60 76 76 85 83 83 99 114 103 123 53 47 57 108 98 110 148 127 145 157 131 155 171 139 168 181 142 175 180 140 172 164 125 151 131 100 118 90 69 84 44 34 39 12 10 11 2 1 3 18 15 19 54 49 60 70 67 74 93 85 103 90 78 100 97 74 92 39 35 47 14 10 13 14 13 13 1 1 1 3 3 3 2 2 2 2 1 2 1 1 1 1 1 1 1 1 1 2 2 2 2 2 2 6 5 7 2 2 3 0 0 0 0 0 0 0 0 0 0 0 0 0 0 0 0 0 0 
2 1 2 0 0 0 95 86 97 148 123 151 201 161 203 199 161 202 58 56 64 190 157 199 227 178 234 205 157 207 182 137 179 142 106 135 90 66 84 39 29 36 5 3 4 0 0 0 0 0 0 0 0 0 0 0 0 0 0 0 0 0 0 0 0 0 0 0 0 0 0 0 0 0 0 0 0 0 0 0 0 0 0 0 0 0 0 0 0 0 0 0 0 0 0 0 0 0 0 0 0 0 0 0 0 0 0 0 0 0 0 0 0 0 0 0 0 0 0 0 0 0 0 0 0 0 0 0 0 0 0 0 0 0 0 
0 0 0 1 2 1 52 41 47 126 112 134 206 177 217 236 190 243 137 108 133 171 133 169 141 106 133 106 81 96 51 39 45 5 3 3 0 0 0 0 0 0 0 0 0 2 2 2 2 2 2 1 1 1 0 0 0 1 1 1 2 2 2 2 2 2 2 2 2 1 1 1 1 1 1 2 1 2 1 1 1 0 0 0 0 0 0 0 0 0 0 0 0 0 0 0 0 0 0 0 0 0 0 0 0 0 0 0 0 0 0 0 0 0 0 0 0 0 0 0 0 0 0 0 0 0 0 0 0 0 0 0 0 0 0 
0 0 0 1 2 2 0 0 0 18 17 18 49 43 56 83 68 89 72 52 64 40 30 35 31 24 29 7 6 8 0 0 0 0 0 0 1 1 1 2 1 2 0 0 0 0 0 0 0 0 0 0 0 0 0 0 0 0 0 0 0 0 0 0 0 0 0 0 0 0 0 0 0 0 0 0 0 0 0 0 0 0 0 0 0 0 0 0 0 0 0 0 0 0 0 0 0 0 0 0 0 0 0 0 0 0 0 0 0 0 0 0 0 0 0 0 0 0 0 0 0 0 0 0 0 0 0 0 0 0 0 0 0 0 0 
0 0 0 0 0 0 2 1 2 1 1 1 0 0 0 0 0 0 0 0 0 0 0 0 0 0 0 0 0 0 1 1 1 1 1 1 0 0 0 0 0 0 0 0 0 0 0 0 0 0 0 0 0 0 0 0 0 0 0 0 0 0 0 0 0 0 0 0 0 0 0 0 0 0 0 0 0 0 0 0 0 0 0 0 0 0 0 0 0 0 0 0 0 0 0 0 0 0 0 0 0 0 0 0 0 0 0 0 0 0 0 0 0 0 0 0 0 0 0 0 0 0 0 0 0 0 0 0 0 0 0 0 0 0 0 
0 0 0 0 0 0 0 0 0 1 1 1 1 1 2 2 1 2 3 2 2 2 2 2 2 1 2 0 0 0 0 0 0 0 0 0 0 0 0 0 0 0 0 0 0 0 0 0 0 0 0 0 0 0 0 0 0 0 0 0 0 0 0 0 0 0 0 0 0 0 0 0 0 0 0 0 0 0 0 0 0 0 0 0 0 0 0 0 0 0 0 0 0 0 0 0 0 0 0 0 0 0 0 0 0 0 0 0 0 0 0 0 0 0 0 0 0 0 0 0 0 0 0 0 0 0 0 0 0 0 0 0 0 0 0 
0 0 0 0 0 0 0 0 0 0 0 0 0 0 0 0 0 0 0 0 0 0 0 0 0 0 0 0 0 0 0 0 0 0 0 0 0 0 0 0 0 0 0 0 0 0 0 0 0 0 0 0 0 0 0 0 0 0 0 0 0 0 0 0 0 0 0 0 0 0 0 0 0 0 0 0 0 0 0 0 0 0 0 0 0 0 0 0 0 0 0 0 0 0 0 0 0 0 0 0 0 0 0 0 0 0 0 0 0 0 0 0 0 0 0 0 0 0 0 0 0 0 0 0 0 0 0 0 0 0 0 0 0 0 0 
