P3
69 55
255
0 0 0 0 0 0 0 0 0 0 0 0 0 0 0 0 0 0 0 0 0 0 0 0 0 0 0 0 0 0 0 0 0 0 0 0 0 0 0 0 0 0 0 0 0 0 0 0 0 0 0 0 0 0 0 0 0 0 0 0 0 0 0 0 0 0 0 0 0 0 0 0 0 0 0 0 0 0 0 0 0 0 0 0 0 0 0 0 0 0 0 0 0 0 0 0 0 0 0 0 0 0 0 0 0 0 0 0 0 0 0 0 0 0 0 0 0 0 0 0 0 0 0 0 0 0 0 0 0 0 0 0 0 0 0 0 0 0 0 0 0 0 0 0 0 0 0 0 0 0 0 0 0 0 0 0 0 0 0 0 0 0 0 0 0 0 0 0 0 0 0 0 0 0 0 0 0 0 0 0 0 0 0 0 0 0 0 0 0 0 0 0 0 0 0 0 0 0 0 0 0 0 0 0 0 0 0 
0 0 0 0 0 0 0 0 0 0 0 0 0 0 0 0 0 0 0 0 0 0 0 0 0 0 0 0 0 0 0 0 0 0 0 0 0 0 0 0 0 0 0 0 0 0 0 0 0 0 0 0 0 0 0 0 0 0 0 0 0 0 0 0 0 0 0 0 0 0 0 0 0 0 0 0 0 0 0 0 0 0 0 0 0 0 0 0 0 0 0 0 0 0 0 0 0 0 0 0 0 0 0 0 0 0 0 0 0 0 0 0 0 0 0 0 0 0 0 0 0 0 0 0 0 0 0 0 0 0 0 0 0 0 0 0 0 0 0 0 0 0 0 0 0 0 0 0 0 0 0 0 0 0 0 0 0 0 0 0 0 0 0 0 0 0 0 0 0 0 0 0 0 0 0 0 0 0 0 0 0 0 0 0 0 0 0 0 0 0 0 0 0 0 0 0 0 0 0 0 0 0 0 0 0 0 0 
0 0 0 0 0 0 0 0 0 0 0 0 0 0 0 0 0 0 0 0 0 0 0 0 0 0 0 0 0 0 0 0 0 0 0 0 0 0 0 0 0 0 0 0 0 0 0 0 0 0 0 0 0 0 0 0 0 0 0 0 0 0 0 0 0 0 0 0 0 0 0 0 0 0 0 0 0 0 0 0 0 0 0 0 0 0 0 0 0 0 0 0 0 0 0 0 0 0 0 0 0 0 0 0 0 0 0 0 0 0 0 0 0 0 0 0 0 0 0 0 0 0 0 0 0 0 0 0 0 0 0 0 0 0 0 0 0 0 0 0 0 0 0 0 0 0 0 0 0 0 0 0 0 0 0 0 0 0 0 0 0 0 0 0 0 0 0 0 0 0 0 0 0 0 0 0 0 0 0 0 0 0 0 0 0 0 0 0 0 0 0 0 0 0 0 0 0 0 0 0 0 0 0 0 0 0 0 
0 0 0 0 0 0 0 0 0 0 0 0 0 0 0 0 0 0 0 0 0 0 0 0 0 0 0 0 0 0 0 0 0 0 0 0 0 0 0 0 0 0 0 0 0 0 0 0 0 0 0 0 0 0 0 0 0 0 0 0 0 0 0 0 0 0 0 0 0 0 0 0 0 0 0 0 0 0 0 0 0 0 0 0 0 0 0 0 0 0 0 0 0 0 0 0 0 0 0 0 0 0 0 0 0 0 0 0 0 0 0 0 0 0 0 0 0 0 0 0 0 0 0 0 0 0 0 0 0 0 0 0 0 0 0 0 0 0 0 0 0 0 0 0 0 0 0 0 0 0 0 0 0 0 0 0 0 0 0 0 0 0 0 0 0 0 0 0 0 0 0 0 0 0 0 0 0 0 0 0 0 0 0 0 0 0 0 0 0 0 0 0 0 0 0 0 0 0 0 0 0 0 0 0 0 0 0 
0 0 0 0 0 0 0 0 0 0 0 0 0 0 0 0 0 0 0 0 0 0 0 0 0 0 0 0 0 0 0 0 0 0 0 0 0 0 0 0 0 0 0 0 0 0 0 0 0 0 0 0 0 0 0 0 0 0 0 0 0 0 0 0 0 0 0 0 0 0 0 0 0 0 0 0 0 0 0 0 0 0 0 0 0 0 0 0 0 0 0 0 0 0 0 0 0 0 0 0 0 0 0 0 0 0 0 0 0 0 0 0 0 0 0 0 0 0 0 0 0 0 0 0 0 0 0 0 0 0 0 0 0 0 0 0 0 0 0 0 0 0 0 0 0 0 0 0 0 0 0 0 0 0 0 0 0 0 0 0 0 0 0 0 0 0 0 0 0 0 0 0 0 0 0 0 0 0 0 0 0 0 0 0 0 0 0 0 0 0 0 0 0 0 0 0 0 0 0 0 0 0 0 0 0 0 0 
0 0 0 0 0 0 0 0 0 0 0 0 0 0 0 0 0 0 0 0 0 0 0 0 0 0 0 0 0 0 0 0 0 0 0 0 0 0 0 0 0 0 0 0 0 0 0 0 0 0 0 0 0 0 0 0 0 0 0 0 0 0 0 0 0 0 0 0 0 0 0 0 0 0 0 0 0 0 0 0 0 0 0 0 4 4 4 5 5 5 0 0 0 0 0 0 0 0 0 0 0 0 0 0 0 0 0 0 0 0 0 0 0 0 0 0 0 0 0 0 0 0 0 0 0 0 0 0 0 0 0 0 0 0 0 0 0 0 0 0 0 0 0 0 0 0 0 0 0 0 0 0 0 0 0 0 0 0 0 0 0 0 0 0 0 0 0 0 0 0 0 0 0 0 0 0 0 0 0 0 0 0 0 0 0 0 0 0 0 0 0 0 0 0 0 0 0 0 0 0 0 0 0 0 0 0 0 
0 0 0 0 0 0 0 0 0 0 0 0 0 0 0 0 0 0 0 0 0 0 0 0 0 0 0 0 0 0 0 0 0 0 0 0 0 0 0 0 0 0 0 0 0 0 0 0 0 0 0 0 0 0 0 0 0 0 0 0 0 0 0 0 0 0 0 0 0 0 0 0 0 0 0 0 0 0 0 0 0 0 0 0 6 6 6 8 8 8 0 0 0 0 0 0 0 0 0 0 0 0 0 0 0 0 0 0 0 0 0 0 0 0 0 0 0 0 0 0 0 0 0 0 0 0 0 0 0 0 0 0 0 0 0 0 0 0 0 0 0 0 0 0 0 0 0 0 0 0 0 0 0 0 0 0 0 0 0 0 0 0 0 0 0 0 0 0 0 0 0 0 0 0 0 0 0 0 0 0 0 0 0 0 0 0 0 0 0 0 0 0 0 0 0 0 0 0 0 0 0 0 0 0 0 0 0 
0 0 0 0 0 0 0 0 0 0 0 0 0 0 0 0 0 0 0 0 0 0 0 0 0 0 0 0 0 0 0 0 0 0 0 0 0 0 0 0 0 0 0 0 0 0 0 0 0 0 0 0 0 0 0 0 0 0 0 0 0 0 0 0 0 0 0 0 0 0 0 0 0 0 0 0 0 0 0 0 0 0 0 0 0 0 0 3 3 3 1 1 1 0 0 0 0 0 0 1 1 1 0 0 0 0 0 0 0 0 0 0 0 0 0 0 0 0 0 0 0 0 0 0 0 0 0 0 0 0 0 0 0 0 0 0 0 0 0 0 0 0 0 0 0 0 0 0 0 0 0 0 0 0 0 0 0 0 0 0 0 0 0 0 0 0 0 0 0 0 0 0 0 0 0 0 0 0 0 0 0 0 0 0 0 0 0 0 0 0 0 0 0 0 0 0 0 0 0 0 0 0 0 0 0 0 0 
0 0 0 0 0 0 0 0 0 0 0 0 0 0 0 0 0 0 0 0 0 0 0 0 0 0 0 0 0 0 0 0 0 0 0 0 0 0 0 0 0 0 0 0 0 0 0 0 0 0 0 0 0 0 0 0 0 0 0 0 0 0 0 0 0 0 0 0 0 0 0 0 0 0 0 0 0 0 0 0 0 0 0 0 1 1 1 2 2 2 0 0 0 4 4 4 2 2 2 0 0 0 1 1 1 0 0 0 0 0 0 0 0 0 0 0 0 0 0 0 0 0 0 0 0 0 0 0 0 0 0 0 0 0 0 0 0 0 0 0 0 0 0 0 0 0 0 0 0 0 0 0 0 0 0 0 0 0 0 0 0 0 0 0 0 0 0 0 0 0 0 0 0 0 0 0 0 0 0 0 0 0 0 0 0 0 0 0 0 0 0 0 0 0 0 0 0 0 0 0 0 0 0 0 0 0 0 
0 0 0 0 0 0 0 0 0 0 0 0 0 0 0 0 0 0 0 0 0 0 0 0 0 0 0 0 0 0 0 0 0 0 0 0 0 0 0 0 0 0 0 0 0 0 0 0 0 0 0 0 0 0 0 0 0 0 0 0 0 0 0 0 0 0 0 0 0 0 0 0 0 0 0 0 0 0 1 1 1 0 0 0 0 0 0 5 5 5 20 20 21 32 32 33 29 28 32 26 24 32 0 0 0 1 1 1 0 0 0 0 0 0 0 0 0 0 0 0 0 0 0 0 0 0 0 0 0 0 0 0 0 0 0 0 0 0 0 0 0 0 0 0 0 0 0 0 0 0 0 0 0 0 0 0 0 0 0 0 0 0 0 0 0 0 0 0 0 0 0 0 0 0 0 0 0 0 0 0 0 0 0 0 0 0 0 0 0 0 0 0 0 0 0 0 0 0 0 0 0 0 0 0 0 0 0 
0 0 0 0 0 0 0 0 0 0 0 0 0 0 0 0 0 0 0 0 0 0 0 0 0 0 0 0 0 0 0 0 0 0 0 0 0 0 0 0 0 0 0 0 0 0 0 0 0 0 0 0 0 0 0 0 0 0 0 0 0 0 0 0 0 0 0 0 0 0 0 0 0 0 0 0 0 0 0 0 0 4 4 4 25 25 25 34 34 34 47 46 51 20 20 27 14 14 22 48 44 61 31 29 40 0 0 0 1 1 2 0 0 0 0 0 0 0 0 0 0 0 0 0 0 0 0 0 0 0 0 0 0 0 0 0 0 0 0 0 0 0 0 0 0 0 0 0 0 0 0 0 0 0 0 0 0 0 0 0 0 0 0 0 0 0 0 0 0 0 0 0 0 0 0 0 0 0 0 0 0 0 0 0 0 0 0 0 0 0 0 0 0 0 0 0 0 0 0 0 0 0 0 0 0 0 0 
0 0 0 0 0 0 0 0 0 0 0 0 0 0 0 0 0 0 0 0 0 0 0 0 0 0 0 0 0 0 0 0 0 0 0 0 0 0 0 0 0 0 0 0 0 0 0 0 0 0 0 0 0 0 0 0 0 0 0 0 0 0 0 0 0 0 1 1 1 0 0 0 0 0 0 5 5 4 25 25 25 36 36 37 27 27 27 6 4 5 27 26 29 66 61 52 90 87 66 46 44 44 35 34 43 8 8 8 4 4 3 3 3 3 4 4 4 0 0 0 0 0 0 0 0 0 0 0 0 0 0 0 0 0 0 0 0 0 0 0 0 0 0 0 0 0 0 0 0 0 0 0 0 0 0 0 0 0 0 0 0 0 0 0 0 0 0 0 0 0 0 0 0 0 0 0 0 0 0 0 0 0 0 0 0 0 0 0 0 0 0 0 0 0 0 0 0 0 0 0 0 0 0 0 0 0 0 
0 0 0 0 0 0 0 0 0 0 0 0 0 0 0 0 0 0 0 0 0 0 0 0 0 0 0 0 0 0 0 0 0 0 0 0 0 0 0 0 0 0 0 0 0 0 0 0 0 0 0 0 0 0 0 0 0 0 0 0 1 1 1 0 0 0 0 0 0 3 3 3 16 16 16 37 37 37 28 28 28 12 11 10 0 0 0 5 6 11 64 58 50 161 151 106 185 176 128 137 131 104 30 26 35 38 33 34 15 13 18 20 20 21 15 15 15 2 2 1 1 1 1 0 1 1 0 0 0 0 0 0 0 0 0 0 0 0 0 0 0 0 0 0 0 0 0 0 0 0 0 0 0 0 0 0 0 0 0 0 0 0 0 0 0 0 0 0 0 0 0 0 0 0 0 0 0 0 0 0 0 0 0 0 0 0 0 0 0 0 0 0 0 0 0 0 0 0 0 0 0 0 0 0 0 0 0 
0 0 0 0 0 0 0 0 0 0 0 0 0 0 0 0 0 0 0 0 0 0 0 0 0 0 0 0 0 0 0 0 0 0 0 0 0 0 0 0 0 0 0 0 0 0 0 0 0 0 0 0 0 0 1 1 1 0 0 0 0 0 0 5 5 5 28 28 29 33 33 35 15 15 15 8 8 7 0 0 0 20 17 17 32 27 28 21 17 30 112 105 79 172 162 121 180 171 130 201 192 147 116 110 92 123 116 92 113 107 91 25 23 32 35 35 35 8 8 8 0 0 0 2 3 2 1 0 0 0 0 0 0 0 0 0 0 0 0 0 0 0 0 0 0 0 0 0 0 0 0 0 0 0 0 0 0 0 0 0 0 0 0 0 0 0 0 0 0 0 0 0 0 0 0 0 0 0 0 0 0 0 0 0 0 0 0 0 0 0 0 0 0 0 0 0 0 0 0 0 0 0 0 0 0 0 0 
0 0 0 0 0 0 0 0 0 0 0 0 0 0 0 0 0 0 0 0 0 0 0 0 0 0 0 0 0 0 0 0 0 0 0 0 0 0 0 0 0 0 0 0 0 0 0 0 1 1 1 0 0 0 0 0 0 4 4 5 27 27 28 40 40 41 29 29 31 8 8 10 1 1 1 0 0 0 3 3 2 27 26 27 88 81 58 104 99 69 153 146 105 177 167 128 193 184 143 209 199 156 223 211 164 233 221 173 222 210 160 62 57 60 19 19 34 17 18 27 19 16 19 8 6 6 0 0 1 0 0 0 0 0 0 0 0 0 0 0 0 0 0 0 0 0 0 0 0 0 0 0 0 0 0 0 0 0 0 0 0 0 0 0 0 0 0 0 0 0 0 0 0 0 0 0 0 0 0 0 0 0 0 0 0 0 0 0 0 0 0 0 0 0 0 0 0 0 0 0 0 0 0 0 0 0 0 
0 0 0 0 0 0 0 0 0 0 0 0 0 0 0 0 0 0 0 0 0 0 0 0 0 0 0 0 0 0 0 0 0 0 0 0 0 0 0 0 0 0 1 1 1 0 0 0 0 0 0 6 6 6 27 27 28 41 41 44 33 33 34 9 9 10 0 0 0 0 0 0 0 0 0 0 1 1 14 13 23 61 58 45 128 121 76 147 137 96 164 155 116 183 174 134 209 200 159 222 210 169 228 217 172 231 220 177 235 222 174 172 164 128 98 91 73 124 116 85 49 46 49 2 2 4 0 1 1 0 0 0 0 0 0 0 0 0 0 0 0 0 0 0 0 0 0 0 0 0 0 0 0 0 0 0 0 0 0 0 0 0 0 0 0 0 0 0 0 0 0 0 0 0 0 0 0 0 0 0 0 0 0 0 0 0 0 0 0 0 0 0 0 0 0 0 0 0 0 0 0 0 0 0 0 0 0 
0 0 0 0 0 0 0 0 0 0 0 0 0 0 0 0 0 0 0 0 0 0 0 0 0 0 0 0 0 0 0 0 0 0 0 0 1 1 1 1 1 1 0 0 0 4 4 5 26 26 26 42 42 42 33 33 34 10 10 10 0 0 0 0 0 0 1 1 1 1 1 1 3 3 3 31 31 26 40 37 33 91 84 52 129 121 81 143 134 95 173 164 124 187 178 136 211 202 160 228 217 175 245 234 189 246 235 189 237 226 180 225 213 162 218 206 150 202 189 128 111 104 77 36 38 57 4 5 4 0 0 0 0 0 0 0 0 0 0 0 0 0 0 0 0 0 0 0 0 0 0 0 0 0 0 0 0 0 0 0 0 0 0 0 0 0 0 0 0 0 0 0 0 0 0 0 0 0 0 0 0 0 0 0 0 0 0 0 0 0 0 0 0 0 0 0 0 0 0 0 0 0 0 0 0 0 0 
0 0 0 0 0 0 0 0 0 0 0 0 0 0 0 0 0 0 0 0 0 0 0 0 0 0 0 0 0 0 0 0 0 0 0 0 0 0 0 6 6 6 27 27 27 47 47 50 35 35 36 11 11 11 0 0 0 0 0 0 0 0 0 0 0 0 1 1 0 0 0 0 26 24 13 91 82 40 100 91 49 112 102 61 129 120 82 153 144 105 176 167 125 196 187 144 226 217 174 242 232 187 244 238 196 250 243 204 244 233 184 229 217 167 207 195 147 190 178 127 165 152 97 54 52 51 3 3 7 0 0 0 0 0 0 0 0 0 0 0 0 0 0 0 0 0 0 0 0 0 0 0 0 0 0 0 0 0 0 0 0 0 0 0 0 0 0 0 0 0 0 0 0 0 0 0 0 0 0 0 0 0 0 0 0 0 0 0 0 0 0 0 0 0 0 0 0 0 0 0 0 0 0 0 0 0 0 
0 0 0 0 0 0 0 0 0 0 0 0 0 0 0 0 0 0 0 0 0 0 0 0 0 0 0 0 0 0 0 0 0 2 2 3 18 18 19 41 41 42 35 35 37 13 13 14 0 0 0 0 0 0 1 1 1 0 0 0 0 0 0 0 0 0 1 1 0 1 1 0 61 55 25 93 84 41 98 89 50 115 106 66 131 122 81 149 140 100 173 164 123 205 196 152 229 218 175 248 239 195 243 240 215 243 239 217 242 233 184 235 223 173 212 200 150 197 185 132 153 141 91 42 42 44 9 9 13 0 0 0 0 0 0 0 0 0 0 0 0 0 0 0 0 0 0 0 0 0 0 0 0 0 0 0 0 0 0 0 0 0 0 0 0 0 0 0 0 0 0 0 0 0 0 0 0 0 0 0 0 0 0 0 0 0 0 0 0 0 0 0 0 0 0 0 0 0 0 0 0 0 0 0 0 0 0 
0 0 0 0 0 0 0 0 0 0 0 0 0 0 0 0 0 0 0 0 0 0 0 0 0 0 0 0 0 0 0 0 0 14 14 16 44 43 51 29 29 30 0 0 0 0 0 0 0 0 0 0 0 0 0 0 0 0 0 0 0 0 0 0 0 0 0 0 0 1 1 1 67 61 29 94 85 42 99 91 50 117 108 67 131 122 80 154 146 105 174 166 126 206 195 151 244 232 183 255 248 208 246 244 230 255 254 237 250 241 195 230 217 167 212 200 149 201 190 131 98 90 62 45 44 61 15 15 19 0 0 0 1 1 1 0 0 0 0 0 0 0 0 0 0 0 0 0 0 0 0 0 0 0 0 0 0 0 0 0 0 0 0 0 0 0 0 0 0 0 0 0 0 0 0 0 0 0 0 0 0 0 0 0 0 0 0 0 0 0 0 0 0 0 0 0 0 0 0 0 0 0 0 0 0 0 0 
0 0 0 0 0 0 0 0 0 0 0 0 0 0 0 0 0 0 0 0 0 0 0 0 0 0 0 0 0 0 5 5 5 32 31 36 56 55 64 82 79 87 4 3 3 1 1 2 0 0 0 0 0 0 0 0 0 0 0 0 0 0 0 0 0 0 1 1 0 0 0 1 33 32 28 92 83 41 101 92 51 112 103 62 132 123 82 162 151 109 198 187 139 198 188 147 191 185 149 201 196 166 252 248 224 254 248 224 251 240 189 225 213 161 204 192 141 194 183 126 74 68 55 47 46 64 20 20 26 0 0 0 1 1 1 0 0 0 0 0 0 0 0 0 0 0 0 0 0 0 0 0 0 0 0 0 0 0 0 0 0 0 0 0 0 0 0 0 0 0 0 0 0 0 0 0 0 0 0 0 0 0 0 0 0 0 0 0 0 0 0 0 0 0 0 0 0 0 0 0 0 0 0 0 0 0 0 
0 0 0 0 0 0 0 0 0 0 0 0 0 0 0 0 0 0 0 0 0 0 0 0 0 0 0 0 0 0 8 8 8 45 45 49 35 34 40 32 30 33 11 10 8 0 0 0 0 0 0 0 0 0 0 0 0 0 0 0 0 0 0 0 0 0 1 1 0 0 0 0 22 21 26 86 77 40 102 92 50 110 101 59 134 126 80 125 117 83 122 115 89 97 93 77 51 51 46 36 36 38 217 212 176 255 253 200 244 231 181 221 209 157 206 195 143 192 178 121 136 125 85 47 47 62 16 16 20 0 0 0 1 1 1 0 0 0 0 0 0 0 0 0 0 0 0 0 0 0 0 0 0 0 0 0 0 0 0 0 0 0 0 0 0 0 0 0 0 0 0 0 0 0 0 0 0 0 0 0 0 0 0 0 0 0 0 0 0 0 0 0 0 0 0 0 0 0 0 0 0 0 0 0 0 0 0 
0 0 0 0 0 0 0 0 0 0 0 0 0 0 0 0 0 0 0 0 0 0 0 0 0 0 0 0 0 0 2 2 2 41 40 45 37 36 43 27 27 27 1 2 0 0 0 0 1 1 1 1 1 1 0 0 0 0 0 0 0 0 0 0 0 0 1 1 0 0 0 0 46 41 23 97 87 37 100 91 46 113 103 60 142 129 83 60 58 43 2 6 11 17 17 15 17 17 16 2 3 7 110 107 92 246 240 177 225 214 160 214 203 150 200 189 135 175 166 108 168 155 93 63 58 52 6 4 10 0 0 0 1 0 1 0 0 0 0 0 0 0 0 0 0 0 0 0 0 0 0 0 0 0 0 0 0 0 0 0 0 0 0 0 0 0 0 0 0 0 0 0 0 0 0 0 0 0 0 0 0 0 0 0 0 0 0 0 0 0 0 0 0 0 0 0 0 0 0 0 0 0 0 0 0 0 0 
0 0 0 0 0 0 0 0 0 0 0 0 0 0 0 0 0 0 0 0 0 0 0 0 0 0 0 0 0 0 4 4 4 31 30 32 42 42 44 45 44 49 26 25 31 10 9 11 0 0 0 0 0 0 0 0 0 1 1 1 0 0 0 0 0 0 0 0 0 1 1 4 70 63 29 95 84 35 100 87 44 113 101 57 129 118 71 115 106 74 60 57 43 17 17 14 20 20 17 4 5 9 105 101 85 242 232 174 214 203 148 203 192 138 195 184 129 177 166 107 143 132 76 51 49 51 17 17 22 0 0 0 1 1 1 1 1 1 1 1 1 1 1 1 1 1 1 1 1 1 0 0 0 0 0 0 0 0 0 0 0 0 0 0 0 0 0 0 0 0 0 0 0 0 0 0 0 0 0 0 0 0 0 0 0 0 0 0 0 0 0 0 0 0 0 0 0 0 0 0 0 0 0 0 0 0 0 
0 0 0 0 0 0 0 0 0 0 0 0 0 0 0 0 0 0 0 0 0 0 0 0 0 0 0 0 0 0 0 0 0 2 2 1 16 16 15 40 39 36 50 49 48 43 41 46 34 32 39 19 19 23 2 2 5 0 0 0 0 0 0 1 1 1 2 1 1 0 0 0 36 33 22 92 82 32 96 85 40 107 97 50 120 109 63 143 134 84 171 161 108 53 50 43 7 7 19 19 19 25 193 184 141 226 212 157 208 196 143 191 181 124 178 168 109 174 158 97 81 71 43 64 63 86 33 33 39 3 3 3 2 2 2 0 0 0 0 0 0 0 0 0 0 0 0 0 0 0 0 0 0 0 0 0 0 0 0 0 0 0 0 0 0 0 0 0 0 0 0 0 0 0 0 0 0 0 0 0 0 0 0 0 0 0 0 0 0 0 0 0 0 0 0 0 0 0 0 0 0 0 0 0 0 0 0 
0 0 0 0 0 0 0 0 0 0 0 0 0 0 0 0 0 0 0 0 0 0 0 0 0 0 0 0 0 0 0 0 0 1 1 1 0 0 0 4 3 3 24 23 21 45 44 40 38 38 37 31 30 32 37 36 42 29 29 33 9 8 10 0 0 0 0 0 0 0 0 0 25 24 29 80 71 28 93 81 33 100 90 42 118 107 58 130 120 72 155 144 94 144 134 93 121 113 87 151 140 105 205 191 137 200 187 136 197 184 131 181 169 113 170 159 101 165 149 87 65 60 45 66 66 87 25 24 32 0 0 0 0 0 0 11 11 11 11 11 12 13 13 14 13 13 14 15 15 16 1 1 1 0 0 0 0 0 0 0 0 0 0 0 0 0 0 0 0 0 0 0 0 0 0 0 0 0 0 0 0 0 0 0 0 0 0 0 0 0 0 0 0 0 0 0 0 0 0 0 0 0 0 0 0 0 0 
0 0 0 0 0 0 0 0 0 0 0 0 0 0 0 0 0 0 0 0 0 0 0 0 0 0 0 0 0 0 0 0 0 0 0 0 0 0 0 0 0 0 0 0 0 8 9 7 35 35 31 40 38 36 21 21 20 21 20 23 37 37 41 37 36 40 19 18 19 1 1 6 46 40 21 89 77 22 91 80 31 101 89 40 110 97 48 128 116 66 140 128 78 160 147 94 184 171 114 192 181 124 181 170 116 185 173 116 178 165 108 172 156 99 163 148 91 153 139 73 111 100 55 59 57 75 53 54 61 94 93 99 133 132 139 115 114 120 115 114 120 111 110 116 115 114 120 125 124 130 67 67 71 0 0 0 1 1 1 0 0 0 0 0 0 0 0 0 0 0 0 0 0 0 0 0 0 0 0 0 0 0 0 0 0 0 0 0 0 0 0 0 0 0 0 0 0 0 0 0 0 0 0 0 0 0 0 
0 0 0 0 0 0 0 0 0 0 0 0 0 0 0 0 0 0 0 0 0 0 0 0 0 0 0 0 0 0 0 0 0 0 0 0 0 0 0 0 0 0 1 1 1 0 0 0 0 0 0 16 16 15 43 43 43 35 35 35 7 7 7 10 9 11 34 34 36 42 42 47 69 62 37 85 74 22 88 75 21 97 85 31 102 91 39 113 102 52 129 117 66 144 131 80 153 141 89 163 151 97 168 156 100 167 153 96 160 147 89 160 146 86 148 134 73 139 124 64 130 114 48 44 42 38 111 111 121 144 142 150 110 109 116 99 98 104 100 99 106 112 111 118 114 113 120 102 101 108 118 117 124 52 51 54 0 0 0 2 2 1 0 0 0 0 0 0 0 0 0 0 0 0 0 0 0 0 0 0 0 0 0 0 0 0 0 0 0 0 0 0 0 0 0 0 0 0 0 0 0 0 0 0 0 0 0 
0 0 0 0 0 0 0 0 0 0 0 0 0 0 0 0 0 0 0 0 0 0 0 0 0 0 0 0 0 0 0 0 0 0 0 0 0 0 0 0 0 0 0 0 0 0 0 0 1 1 1 0 0 0 0 0 0 24 25 25 47 45 46 28 26 27 0 0 0 3 3 4 44 40 36 63 56 40 74 66 40 90 80 36 104 93 36 116 103 46 120 109 57 131 119 65 146 133 78 151 138 82 152 140 83 159 144 86 155 140 81 144 130 68 140 124 64 137 121 51 92 82 30 59 56 67 116 115 120 92 92 97 92 91 97 100 99 105 110 109 115 105 104 110 102 101 106 106 105 111 103 102 108 110 109 114 24 23 25 0 0 0 1 1 1 0 0 0 0 0 0 0 0 0 0 0 0 0 0 0 0 0 0 0 0 0 0 0 0 0 0 0 0 0 0 0 0 0 0 0 0 0 0 0 0 0 0 
0 0 0 0 0 0 0 0 0 0 0 0 0 0 0 0 0 0 0 0 0 0 0 0 0 0 0 0 0 0 0 0 0 0 0 0 0 0 0 0 0 0 0 0 0 0 0 0 0 0 0 1 1 1 1 1 1 0 0 0 3 2 2 30 29 30 43 43 42 17 17 18 25 21 13 62 54 16 49 45 26 55 51 41 69 62 46 91 82 44 119 106 50 125 110 50 128 114 55 133 120 62 143 129 71 141 128 66 139 124 64 134 119 56 123 110 47 115 101 31 49 45 33 100 99 113 115 114 119 103 102 108 109 108 114 108 107 113 100 99 105 101 100 106 102 101 107 99 98 104 97 96 101 107 106 113 77 76 82 0 0 0 2 2 2 0 0 0 0 0 0 0 0 0 0 0 0 0 0 0 0 0 0 0 0 0 0 0 0 0 0 0 0 0 0 0 0 0 0 0 0 0 0 0 0 0 0 
0 0 0 0 0 0 0 0 0 0 0 0 0 0 0 0 0 0 0 0 0 0 0 0 0 0 0 0 0 0 0 0 0 0 0 0 0 0 0 0 0 0 0 0 0 0 0 0 0 0 0 0 0 0 0 0 0 1 1 1 0 0 0 0 0 0 9 9 9 33 33 32 37 36 36 31 29 32 29 30 39 63 53 20 77 67 18 63 57 37 66 61 44 89 82 52 122 107 57 134 118 53 131 116 52 130 116 58 132 116 53 91 81 40 48 45 49 51 46 47 58 56 64 121 121 129 109 108 115 109 108 114 98 97 103 95 94 100 100 99 105 100 99 105 102 101 107 102 101 107 101 100 106 100 99 106 108 107 113 29 29 30 0 0 0 1 1 1 0 0 0 0 0 0 0 0 0 0 0 0 0 0 0 0 0 0 0 0 0 0 0 0 0 0 0 0 0 0 0 0 0 0 0 0 0 0 0 
0 0 0 0 0 0 0 0 0 0 0 0 0 0 0 0 0 0 0 0 0 0 0 0 0 0 0 0 0 0 0 0 0 0 0 0 0 0 0 0 0 0 0 0 0 0 0 0 0 0 0 1 1 1 2 2 2 2 2 2 2 2 2 0 0 0 0 0 0 0 0 0 16 16 15 41 39 36 36 33 40 46 44 38 88 73 13 92 77 14 90 77 21 74 66 31 68 60 41 81 75 52 108 96 48 122 106 39 118 101 33 46 44 36 33 34 44 42 42 49 85 83 91 117 116 123 103 102 108 90 89 95 91 90 96 96 95 101 99 98 104 102 101 107 101 100 106 99 98 104 101 100 106 99 98 104 102 101 107 81 80 85 3 2 4 1 1 1 0 0 0 0 0 0 0 0 0 0 0 0 0 0 0 0 0 0 0 0 0 0 0 0 0 0 0 0 0 0 0 0 0 0 0 0 0 0 0 
0 0 0 0 0 0 0 0 0 0 0 0 0 0 0 0 0 0 0 0 0 0 0 0 0 0 0 0 0 0 0 0 0 0 0 0 0 0 0 0 0 0 0 0 0 1 1 1 2 2 3 0 0 0 0 0 0 0 0 0 0 0 0 10 10 11 33 34 37 54 57 62 74 76 82 82 84 90 63 65 67 44 43 47 42 39 38 53 50 52 81 71 19 107 91 12 105 88 16 88 77 20 52 49 43 67 60 48 72 65 44 47 45 55 32 32 38 22 21 25 85 84 91 104 103 109 84 83 89 88 87 93 90 89 95 92 91 97 95 94 100 95 94 100 97 96 102 98 97 103 97 96 102 95 94 100 98 97 103 111 110 116 38 37 41 0 0 0 1 1 1 0 0 0 0 0 0 0 0 0 0 0 0 0 0 0 0 0 0 0 0 0 0 0 0 0 0 0 0 0 0 0 0 0 0 0 0 
0 0 0 0 0 0 0 0 0 0 0 0 0 0 0 0 0 0 0 0 0 0 0 0 0 0 0 0 0 0 0 0 0 0 0 0 0 0 0 0 0 1 2 2 2 0 0 0 0 0 0 18 18 20 37 40 48 51 55 64 74 79 90 86 92 99 91 92 99 94 94 101 99 100 107 105 106 113 115 116 122 124 122 132 87 85 95 36 37 51 61 53 36 89 74 4 96 79 12 91 76 20 49 45 48 39 37 52 42 41 52 70 69 78 85 84 92 67 65 72 81 81 87 81 82 87 84 85 90 85 86 91 86 85 91 89 88 94 92 91 98 95 94 100 95 94 100 95 94 100 95 94 100 96 95 101 94 93 99 103 101 109 73 75 78 0 0 0 1 1 1 0 0 0 0 0 0 0 0 0 0 0 0 0 0 0 0 0 0 0 0 0 0 0 0 0 0 0 0 0 0 0 0 0 0 0 0 
0 0 0 0 0 0 0 0 0 0 0 0 0 0 0 0 0 0 0 0 0 0 0 0 0 0 0 0 0 0 0 0 0 0 0 0 2 2 2 0 0 0 0 0 0 12 12 15 65 68 85 113 120 143 128 135 164 121 129 155 110 118 137 98 106 120 90 96 105 92 92 98 108 108 115 139 138 146 172 172 182 220 219 229 190 189 194 38 39 34 51 49 45 63 56 25 72 63 24 60 54 40 51 49 55 60 58 55 49 47 46 82 81 83 115 114 121 82 82 88 77 78 83 84 85 91 80 81 86 83 84 89 86 86 91 90 89 95 94 93 99 100 99 105 105 104 109 111 110 116 116 115 121 120 118 124 122 120 127 127 126 132 112 113 119 17 18 19 0 0 0 1 1 1 0 0 0 0 0 0 0 0 0 0 0 0 0 0 0 0 0 0 0 0 0 0 0 0 0 0 0 0 0 0 0 0 0 
0 0 0 0 0 0 0 0 0 0 0 0 0 0 0 0 0 0 0 0 0 0 0 0 0 0 0 0 0 0 2 2 2 0 0 0 0 0 0 11 11 13 60 63 76 111 116 141 126 134 165 118 124 152 109 115 140 103 109 129 98 105 124 96 104 119 90 97 107 85 89 96 82 84 91 89 89 93 111 110 116 182 181 187 142 142 142 36 34 28 52 51 46 48 48 47 49 49 49 53 52 48 55 54 48 56 55 50 45 44 37 95 93 97 114 115 127 92 96 103 107 108 118 97 97 104 97 97 107 97 97 103 94 93 98 98 97 103 106 106 112 111 111 117 115 115 121 109 110 116 106 105 113 107 106 116 106 106 112 108 108 115 109 107 116 66 66 69 1 1 2 1 1 1 0 0 0 0 0 0 0 0 0 0 0 0 0 0 0 0 0 0 0 0 0 0 0 0 0 0 0 0 0 0 0 0 0 
0 0 0 0 0 0 0 0 0 0 0 0 0 0 0 0 0 0 0 0 0 0 1 1 2 2 2 0 0 1 0 0 0 9 9 11 51 54 63 100 106 124 120 127 152 114 122 148 108 115 138 107 114 135 104 111 129 102 109 127 100 107 125 99 107 125 99 106 122 99 104 118 97 103 111 94 96 102 91 90 96 86 86 93 74 74 77 52 52 47 52 50 45 46 45 40 44 43 39 42 42 39 44 44 38 48 47 40 42 41 33 100 100 106 118 119 130 119 119 129 134 134 145 126 125 133 120 121 128 107 109 114 106 106 111 105 105 111 108 110 118 110 112 120 113 115 122 107 108 115 102 103 111 83 85 96 78 79 85 99 99 105 119 118 126 72 71 79 28 28 29 0 0 0 1 1 1 0 0 0 0 0 0 0 0 0 0 0 0 0 0 0 0 0 0 0 0 0 0 0 0 0 0 0 0 0 0 
0 0 0 0 0 0 0 0 0 0 0 0 0 0 0 0 0 0 1 1 1 0 0 0 0 0 0 8 8 10 49 52 61 97 102 119 115 122 142 113 120 142 107 113 133 102 109 127 100 107 120 98 105 116 95 102 112 93 101 110 92 98 109 92 98 110 94 100 113 99 105 118 106 110 121 116 116 125 127 127 134 129 129 137 128 129 134 108 108 113 101 100 104 86 81 77 80 76 60 89 83 67 85 83 78 84 83 84 93 92 95 114 113 119 115 114 126 109 109 119 109 110 121 104 106 115 99 102 109 96 99 106 96 97 106 100 100 110 106 105 116 103 103 113 95 97 105 100 102 110 125 127 137 126 128 141 146 148 161 159 161 175 193 194 207 108 106 118 48 46 50 4 4 4 1 1 1 0 0 0 0 0 0 0 0 0 0 0 0 0 0 0 0 0 0 0 0 0 0 0 0 0 0 0 0 0 0 
0 0 0 0 0 0 0 0 0 0 0 0 1 1 1 0 1 0 0 0 0 4 5 6 43 46 49 84 90 99 104 111 121 100 108 122 97 104 118 95 103 114 96 104 114 100 107 119 105 110 125 110 114 134 111 119 139 115 121 145 117 123 150 119 125 153 129 135 161 130 136 155 122 128 142 117 121 134 119 123 137 117 119 132 113 114 122 105 105 114 108 106 108 130 125 104 131 129 110 130 128 118 121 122 128 115 118 129 119 122 133 115 118 130 115 118 130 114 118 130 119 122 134 121 123 133 119 121 130 122 123 134 130 131 141 133 134 142 136 136 142 135 135 142 118 120 129 115 117 126 144 147 157 131 136 147 129 133 144 139 143 155 164 169 182 161 166 177 62 63 70 20 19 21 0 1 0 1 1 1 0 0 0 0 0 0 0 0 0 0 0 0 0 0 0 0 0 0 0 0 0 0 0 0 0 0 0 
0 0 0 0 0 0 0 0 0 1 1 1 3 3 3 5 4 4 39 40 44 79 82 90 97 101 110 99 104 118 107 112 130 110 116 136 113 120 141 119 125 151 122 129 156 123 131 160 123 131 159 126 132 161 124 130 159 123 129 154 120 127 150 119 126 149 117 123 142 114 119 137 114 119 134 112 116 132 110 114 129 112 116 129 114 117 129 119 123 136 124 129 142 125 133 146 130 139 154 131 139 157 136 143 158 139 146 160 142 148 162 146 150 165 147 152 167 146 151 165 143 147 163 135 140 154 128 132 144 130 132 145 134 138 152 125 131 141 118 123 130 115 119 126 96 100 106 91 95 102 119 118 128 122 119 131 115 112 125 135 128 139 152 145 160 200 189 206 167 156 169 34 34 41 0 0 0 1 1 1 0 0 0 0 0 0 0 0 0 0 0 0 0 0 0 0 0 0 0 0 0 0 0 0 0 0 0 
0 0 0 0 0 0 0 0 0 1 1 1 3 3 4 93 91 98 82 83 92 110 114 128 127 133 156 120 127 152 112 115 141 119 125 154 120 127 155 114 120 144 111 118 138 109 113 131 108 114 130 108 112 128 107 110 125 105 109 123 106 110 124 108 112 126 110 115 127 115 120 132 124 126 140 127 129 143 130 133 148 133 137 152 136 141 156 140 146 160 145 150 164 146 153 165 149 155 167 150 156 169 146 152 165 141 147 163 137 145 160 129 138 151 128 135 150 130 137 153 123 130 146 117 123 136 113 116 126 115 113 124 125 120 133 134 127 140 142 134 146 141 131 144 138 125 138 141 123 138 151 130 147 170 151 166 153 131 149 171 140 162 194 161 182 172 147 163 150 138 147 84 80 90 25 25 29 0 0 0 2 2 2 0 0 0 0 0 0 0 0 0 0 0 0 0 0 0 0 0 0 0 0 0 0 0 0 
0 0 0 0 0 0 1 1 1 0 0 0 27 26 28 113 113 119 63 65 75 98 103 118 97 103 121 78 80 96 31 29 33 87 88 103 102 105 119 105 109 121 111 115 128 110 114 125 109 112 125 110 112 127 117 120 135 120 123 138 121 123 138 123 126 141 127 132 147 132 137 152 136 139 154 136 139 154 132 136 151 129 135 149 129 138 151 131 139 152 131 138 152 129 136 150 129 136 150 134 139 154 136 137 152 137 136 151 142 135 152 146 135 151 149 132 150 159 135 154 165 137 155 162 136 150 154 130 145 156 130 147 155 129 145 150 123 140 137 114 129 107 92 103 85 74 81 66 60 66 41 39 43 43 41 43 58 51 58 88 73 85 109 88 102 120 100 113 136 112 128 122 99 115 43 45 48 8 8 8 1 1 1 0 0 0 0 0 0 0 0 0 0 0 0 0 0 0 0 0 0 0 0 0 0 0 0 
0 0 0 0 0 0 2 2 2 0 0 0 58 58 58 96 96 104 70 74 84 93 97 111 99 103 123 76 78 96 31 29 35 89 95 109 110 115 130 119 121 137 120 122 139 120 123 139 122 125 141 123 126 141 122 126 141 118 123 137 118 124 138 119 127 140 121 129 143 124 129 143 123 127 142 124 126 141 125 125 139 133 129 144 142 136 152 148 136 153 155 140 157 164 145 165 166 141 160 174 143 165 181 146 169 183 145 167 176 140 163 170 135 158 165 135 161 149 128 152 142 130 156 110 101 120 46 39 42 34 30 32 18 15 17 4 4 4 0 0 0 0 0 0 0 0 0 0 0 0 0 0 0 0 0 0 0 0 0 0 0 0 0 0 0 0 0 0 0 0 0 18 17 21 36 35 40 14 14 18 0 0 0 0 0 0 0 0 0 0 0 0 0 0 0 0 0 0 0 0 0 0 0 0 0 0 0 
0 0 0 0 0 0 2 2 2 0 0 0 94 92 95 81 82 92 76 81 93 92 96 114 92 99 119 72 77 92 32 29 37 97 103 118 114 123 137 113 120 133 111 118 132 115 122 135 115 121 134 117 121 136 121 121 136 123 119 135 133 126 141 145 131 148 151 132 151 157 136 155 165 140 160 177 146 169 181 146 169 179 144 167 178 145 167 181 144 166 184 144 166 174 128 153 179 141 166 162 137 163 154 128 157 151 136 178 85 78 99 98 88 109 121 130 163 118 122 159 113 112 145 95 84 107 0 0 0 0 0 0 0 0 0 0 0 0 1 1 1 2 2 2 2 2 2 2 2 2 2 2 2 2 2 2 2 2 2 3 2 3 3 3 3 3 2 3 2 2 3 32 31 37 34 34 40 3 3 4 0 0 0 0 0 0 0 0 0 0 0 0 0 0 0 0 0 0 0 0 0 0 0 0 0 0 0 
0 0 0 0 0 0 0 0 0 4 4 3 117 115 119 80 81 92 88 91 106 93 95 114 103 102 120 73 72 86 33 32 41 114 113 128 130 124 138 133 120 138 135 119 137 137 118 135 140 118 134 148 122 138 157 129 147 167 136 159 171 137 161 167 134 154 165 131 151 161 127 150 147 115 137 101 82 94 60 50 57 36 31 36 28 24 30 41 36 40 95 81 95 124 100 125 127 121 137 148 135 153 155 137 163 152 143 190 105 88 111 143 111 139 109 101 131 83 69 90 46 37 49 42 36 39 23 21 22 1 1 1 2 2 2 0 0 0 0 0 0 0 0 0 0 0 0 0 0 0 0 0 0 0 0 0 0 0 0 0 0 0 0 0 0 0 0 0 1 1 1 11 11 15 13 13 17 0 0 0 0 0 0 0 0 0 0 0 0 0 0 0 0 0 0 0 0 0 0 0 0 0 0 0 0 0 0 
0 0 0 1 1 1 0 0 0 30 30 30 114 109 122 34 37 44 85 81 95 111 104 127 133 111 134 85 66 79 34 37 42 141 117 135 154 123 141 153 125 147 167 136 162 184 147 180 195 155 194 197 154 198 187 145 185 170 130 165 152 114 142 123 91 111 88 66 80 42 32 40 7 5 6 0 0 0 0 0 0 0 0 0 0 0 0 0 0 0 0 0 0 4 9 11 21 23 23 21 17 20 45 38 45 54 49 60 61 44 52 91 65 78 13 9 12 0 0 0 0 0 0 0 0 0 0 0 0 0 0 0 0 0 0 0 0 0 0 0 0 0 0 0 0 0 0 0 0 0 0 0 0 0 0 0 0 0 0 0 0 0 0 0 0 0 0 0 0 0 0 0 0 0 0 0 0 0 0 0 0 0 0 0 0 0 0 0 0 0 0 0 0 0 0 0 0 0 0 0 0 0 0 0 0 0 0 
0 0 0 2 2 2 0 0 0 57 58 60 123 108 130 148 121 146 194 155 194 193 149 196 207 168 209 97 88 103 45 42 52 214 181 220 228 184 240 236 189 250 234 182 245 209 158 214 181 135 178 155 113 144 128 92 116 91 67 82 51 38 46 15 12 14 0 0 0 0 0 0 0 0 0 2 2 2 2 2 2 1 1 2 1 1 1 2 1 2 2 2 2 0 0 0 0 0 0 0 0 0 0 0 0 0 0 0 0 0 0 0 0 0 0 0 0 1 1 2 2 1 2 0 0 1 0 0 0 0 0 0 0 0 0 0 0 0 0 0 0 0 0 0 0 0 0 0 0 0 0 0 0 0 0 0 0 0 0 0 0 0 0 0 0 0 0 0 0 0 0 0 0 0 0 0 0 0 0 0 0 0 0 0 0 0 0 0 0 0 0 0 0 0 0 0 0 0 0 0 0 0 0 0 0 0 0 
0 0 0 2 2 2 0 1 0 85 73 82 162 130 156 152 133 167 233 194 240 254 212 255 252 205 255 92 81 100 88 79 94 243 191 247 196 149 199 169 125 160 127 91 113 117 87 103 93 67 80 55 42 49 22 16 19 0 0 0 0 0 0 0 0 0 2 1 1 2 1 2 1 0 1 0 0 0 0 0 0 0 0 0 0 0 0 0 0 0 0 0 0 0 0 1 1 1 1 1 1 1 1 1 2 2 2 2 2 2 2 3 2 2 1 0 1 0 0 0 0 0 0 0 0 0 0 0 0 0 0 0 0 0 0 0 0 0 0 0 0 0 0 0 0 0 0 0 0 0 0 0 0 0 0 0 0 0 0 0 0 0 0 0 0 0 0 0 0 0 0 0 0 0 0 0 0 0 0 0 0 0 0 0 0 0 0 0 0 0 0 0 0 0 0 0 0 0 0 0 0 0 0 0 0 0 0 
0 0 0 1 1 1 3 4 3 9 7 7 20 19 19 111 106 119 138 124 156 181 156 191 229 180 234 180 139 178 147 108 130 138 107 129 103 77 92 110 86 100 100 81 94 61 52 59 9 7 8 0 0 0 0 0 0 1 1 1 2 1 2 1 0 1 0 0 0 0 0 0 0 0 0 0 0 0 0 0 0 0 0 0 0 0 0 0 0 0 0 0 0 0 0 0 0 0 0 0 0 0 0 0 0 0 0 0 0 0 0 0 0 0 0 0 0 0 0 0 0 0 0 0 0 0 0 0 0 0 0 0 0 0 0 0 0 0 0 0 0 0 0 0 0 0 0 0 0 0 0 0 0 0 0 0 0 0 0 0 0 0 0 0 0 0 0 0 0 0 0 0 0 0 0 0 0 0 0 0 0 0 0 0 0 0 0 0 0 0 0 0 0 0 0 0 0 0 0 0 0 0 0 0 0 0 0 
0 0 0 0 1 0 1 2 1 1 1 1 0 0 0 28 26 26 63 54 70 71 62 81 96 80 108 113 87 106 57 42 49 65 52 63 63 48 60 26 20 26 1 1 1 0 0 0 1 1 0 2 2 2 1 1 1 0 0 0 0 0 0 0 0 0 0 0 0 0 0 0 0 0 0 0 0 0 0 0 0 0 0 0 0 0 0 0 0 0 0 0 0 0 0 0 0 0 0 0 0 0 0 0 0 0 0 0 0 0 0 0 0 0 0 0 0 0 0 0 0 0 0 0 0 0 0 0 0 0 0 0 0 0 0 0 0 0 0 0 0 0 0 0 0 0 0 0 0 0 0 0 0 0 0 0 0 0 0 0 0 0 0 0 0 0 0 0 0 0 0 0 0 0 0 0 0 0 0 0 0 0 0 0 0 0 0 0 0 0 0 0 0 0 0 0 0 0 0 0 0 0 0 0 0 0 0 
0 0 0 0 0 0 0 0 0 0 0 0 1 1 1 0 0 0 0 0 0 10 9 8 7 5 6 0 0 0 0 0 0 0 0 0 0 0 0 0 0 0 0 0 0 2 1 2 0 0 0 0 0 0 0 0 0 0 0 0 0 0 0 0 0 0 0 0 0 0 0 0 0 0 0 0 0 0 0 0 0 0 0 0 0 0 0 0 0 0 0 0 0 0 0 0 0 0 0 0 0 0 0 0 0 0 0 0 0 0 0 0 0 0 0 0 0 0 0 0 0 0 0 0 0 0 0 0 0 0 0 0 0 0 0 0 0 0 0 0 0 0 0 0 0 0 0 0 0 0 0 0 0 0 0 0 0 0 0 0 0 0 0 0 0 0 0 0 0 0 0 0 0 0 0 0 0 0 0 0 0 0 0 0 0 0 0 0 0 0 0 0 0 0 0 0 0 0 0 0 0 0 0 0 0 0 0 
0 0 0 0 0 0 0 0 0 0 0 0 0 0 0 1 1 1 3 2 3 1 0 1 0 1 0 3 3 3 2 2 2 3 2 3 3 2 2 1 1 1 0 0 0 0 0 0 0 0 0 0 0 0 0 0 0 0 0 0 0 0 0 0 0 0 0 0 0 0 0 0 0 0 0 0 0 0 0 0 0 0 0 0 0 0 0 0 0 0 0 0 0 0 0 0 0 0 0 0 0 0 0 0 0 0 0 0 0 0 0 0 0 0 0 0 0 0 0 0 0 0 0 0 0 0 0 0 0 0 0 0 0 0 0 0 0 0 0 0 0 0 0 0 0 0 0 0 0 0 0 0 0 0 0 0 0 0 0 0 0 0 0 0 0 0 0 0 0 0 0 0 0 0 0 0 0 0 0 0 0 0 0 0 0 0 0 0 0 0 0 0 0 0 0 0 0 0 0 0 0 0 0 0 0 0 0 
0 0 0 0 0 0 0 0 0 0 0 0 0 0 0 0 0 0 0 0 0 0 0 0 0 0 0 0 0 0 0 0 0 0 0 0 0 0 0 0 0 0 0 0 0 0 0 0 0 0 0 0 0 0 0 0 0 0 0 0 0 0 0 0 0 0 0 0 0 0 0 0 0 0 0 0 0 0 0 0 0 0 0 0 0 0 0 0 0 0 0 0 0 0 0 0 0 0 0 0 0 0 0 0 0 0 0 0 0 0 0 0 0 0 0 0 0 0 0 0 0 0 0 0 0 0 0 0 0 0 0 0 0 0 0 0 0 0 0 0 0 0 0 0 0 0 0 0 0 0 0 0 0 0 0 0 0 0 0 0 0 0 0 0 0 0 0 0 0 0 0 0 0 0 0 0 0 0 0 0 0 0 0 0 0 0 0 0 0 0 0 0 0 0 0 0 0 0 0 0 0 0 0 0 0 0 0 
0 0 0 0 0 0 0 0 0 0 0 0 0 0 0 0 0 0 0 0 0 0 0 0 0 0 0 0 0 0 0 0 0 0 0 0 0 0 0 0 0 0 0 0 0 0 0 0 0 0 0 0 0 0 0 0 0 0 0 0 0 0 0 0 0 0 0 0 0 0 0 0 0 0 0 0 0 0 0 0 0 0 0 0 0 0 0 0 0 0 0 0 0 0 0 0 0 0 0 0 0 0 0 0 0 0 0 0 0 0 0 0 0 0 0 0 0 0 0 0 0 0 0 0 0 0 0 0 0 0 0 0 0 0 0 0 0 0 0 0 0 0 0 0 0 0 0 0 0 0 0 0 0 0 0 0 0 0 0 0 0 0 0 0 0 0 0 0 0 0 0 0 0 0 0 0 0 0 0 0 0 0 0 0 0 0 0 0 0 0 0 0 0 0 0 0 0 0 0 0 0 0 0 0 0 0 0 
0 0 0 0 0 0 0 0 0 0 0 0 0 0 0 0 0 0 0 0 0 0 0 0 0 0 0 0 0 0 0 0 0 0 0 0 0 0 0 0 0 0 0 0 0 0 0 0 0 0 0 0 0 0 0 0 0 0 0 0 0 0 0 0 0 0 0 0 0 0 0 0 0 0 0 0 0 0 0 0 0 0 0 0 0 0 0 0 0 0 0 0 0 0 0 0 0 0 0 0 0 0 0 0 0 0 0 0 0 0 0 0 0 0 0 0 0 0 0 0 0 0 0 0 0 0 0 0 0 0 0 0 0 0 0 0 0 0 0 0 0 0 0 0 0 0 0 0 0 0 0 0 0 0 0 0 0 0 0 0 0 0 0 0 0 0 0 0 0 0 0 0 0 0 0 0 0 0 0 0 0 0 0 0 0 0 0 0 0 0 0 0 0 0 0 0 0 0 0 0 0 0 0 0 0 0 0 
