P3
30 24
255
0 0 0 0 0 0 0 0 0 0 0 0 0 0 0 0 0 0 0 0 0 0 0 0 0 0 0 0 0 0 0 0 0 0 0 0 0 0 0 0 0 0 0 0 0 0 0 0 0 0 0 0 0 0 0 0 0 0 0 0 0 0 0 0 0 0 0 0 0 0 0 0 0 0 0 0 0 0 0 0 0 0 0 0 0 0 0 0 0 0 
0 0 0 0 0 0 0 0 0 0 0 0 0 0 0 0 0 0 0 0 0 0 0 0 0 0 0 0 0 0 0 0 0 0 0 0 0 0 0 0 0 0 0 0 0 0 0 0 0 0 0 0 0 0 0 0 0 0 0 0 0 0 0 0 0 0 0 0 0 0 0 0 0 0 0 0 0 0 0 0 0 0 0 0 0 0 0 0 0 0 
0 0 0 0 0 0 0 0 0 0 0 0 0 0 0 0 0 0 0 0 0 0 0 0 0 0 0 0 0 0 0 0 0 0 0 0 3 3 3 0 0 0 0 0 0 0 0 0 0 0 0 0 0 0 0 0 0 0 0 0 0 0 0 0 0 0 0 0 0 0 0 0 0 0 0 0 0 0 0 0 0 0 0 0 0 0 0 0 0 0 
0 0 0 0 0 0 0 0 0 0 0 0 0 0 0 0 0 0 0 0 0 0 0 0 0 0 0 0 0 0 0 0 0 0 0 0 1 1 1 4 4 4 2 2 2 1 1 1 0 0 0 0 0 0 0 0 0 0 0 0 0 0 0 0 0 0 0 0 0 0 0 0 0 0 0 0 0 0 0 0 0 0 0 0 0 0 0 0 0 0 
0 0 0 0 0 0 0 0 0 0 0 0 0 0 0 0 0 0 0 0 0 0 0 0 0 0 0 0 0 0 0 0 0 5 5 5 15 15 15 28 28 30 28 26 34 2 2 4 0 1 0 1 1 1 0 0 0 0 0 0 0 0 0 0 0 0 0 0 0 0 0 0 0 0 0 0 0 0 0 0 0 0 0 0 0 0 0 0 0 0 
0 0 0 0 0 0 0 0 0 0 0 0 0 0 0 0 0 0 0 0 1 0 0 0 0 0 0 6 6 6 14 14 14 19 19 18 8 7 12 109 103 79 137 130 103 47 44 43 12 12 15 0 0 0 0 0 0 0 0 0 0 0 0 0 0 0 0 0 0 0 0 0 0 0 0 0 0 0 0 0 0 0 0 0 0 0 0 0 0 0 
0 0 0 0 0 0 0 0 0 0 0 0 0 0 0 0 0 0 0 0 0 6 6 6 19 19 20 21 21 21 3 3 4 9 8 10 95 88 63 171 162 122 215 205 161 224 212 166 107 102 86 35 33 32 0 0 1 0 0 0 0 0 0 0 0 0 0 0 0 0 0 0 0 0 0 0 0 0 0 0 0 0 0 0 0 0 0 0 0 0 
0 0 0 0 0 0 0 0 0 0 0 0 0 0 0 2 2 2 20 20 21 22 22 23 9 9 9 0 0 0 17 15 8 81 74 44 136 127 86 184 175 134 235 225 183 246 238 195 232 219 163 149 139 101 6 7 11 0 0 0 1 1 1 0 0 0 0 0 0 0 0 0 0 0 0 0 0 0 0 0 0 0 0 0 0 0 0 0 0 0 
0 0 0 0 0 0 0 0 0 0 0 0 2 2 3 38 37 41 15 15 15 0 0 0 2 1 1 0 0 0 37 34 18 108 98 53 138 129 88 204 192 146 245 238 203 252 247 220 229 216 160 132 123 93 10 10 18 0 0 0 1 1 1 0 0 0 0 0 0 0 0 0 0 0 0 0 0 0 0 0 0 0 0 0 0 0 0 0 0 0 
0 0 0 0 0 0 1 1 1 0 0 0 13 12 14 46 45 51 6 5 5 0 0 0 1 1 1 0 0 0 26 24 15 105 95 51 122 114 76 72 69 56 74 73 66 237 228 182 221 209 151 141 132 93 14 14 19 0 0 0 2 2 2 1 1 2 1 1 1 0 0 0 0 0 0 0 0 0 0 0 0 0 0 0 0 0 0 0 0 0 
0 0 0 0 0 0 0 0 0 0 0 0 3 3 3 27 26 27 33 32 34 13 13 15 3 2 3 0 0 0 31 28 14 102 91 43 126 116 72 60 57 42 38 36 34 211 200 149 200 188 128 129 119 82 19 19 27 0 0 0 1 1 1 0 0 0 0 0 1 0 0 0 0 0 0 0 0 0 0 0 0 0 0 0 0 0 0 0 0 0 
0 0 0 0 0 0 0 0 0 0 0 0 0 0 0 0 0 0 15 15 14 34 33 33 28 28 30 11 11 15 34 31 20 95 82 30 120 108 55 153 141 91 173 162 114 188 175 121 173 159 96 111 100 62 55 55 66 77 77 80 78 78 82 77 76 80 13 13 13 0 0 0 1 1 1 0 0 0 0 0 0 0 0 0 0 0 0 0 0 0 
0 0 0 0 0 0 0 0 0 0 0 0 0 0 0 0 0 1 0 0 0 3 3 3 20 20 19 23 23 26 37 34 25 73 65 31 94 84 42 125 113 61 152 139 79 153 139 80 146 130 63 98 87 44 103 102 112 115 114 119 109 108 115 116 115 122 75 74 79 0 0 0 1 1 1 0 0 0 0 0 0 0 0 0 0 0 0 0 0 0 
0 0 0 0 0 0 0 0 0 0 0 0 0 0 0 1 1 1 2 2 2 0 0 0 0 0 0 1 1 1 22 22 22 33 31 29 65 56 19 89 78 37 106 94 48 125 110 49 61 54 34 66 65 72 110 109 116 93 92 98 98 97 103 97 96 102 104 103 109 30 29 31 0 0 0 1 1 1 0 0 0 0 0 0 0 0 0 0 0 0 
0 0 0 0 0 0 0 0 0 1 1 1 1 1 1 0 0 0 0 0 0 20 21 26 45 49 58 58 61 67 82 83 89 115 115 122 80 78 82 75 64 14 82 71 27 54 50 52 58 57 64 72 72 79 86 86 91 86 86 92 95 94 100 98 97 102 108 107 113 80 79 84 0 0 0 1 1 1 0 0 0 0 0 0 0 0 0 0 0 0 
0 0 0 0 0 0 1 1 1 0 0 1 0 0 0 15 16 19 71 75 91 114 120 145 112 120 141 99 107 120 90 93 100 142 142 148 112 112 114 37 36 29 51 49 40 44 43 40 98 97 102 107 107 116 96 96 103 94 93 99 105 105 111 109 109 116 104 104 111 109 108 115 20 20 22 0 0 0 1 1 1 0 0 0 0 0 0 0 0 0 
0 0 0 1 1 1 0 0 0 10 10 10 59 63 71 104 111 128 114 121 141 106 113 129 102 109 126 106 112 132 110 115 129 109 110 119 102 102 109 96 93 89 95 92 84 94 95 98 113 115 125 120 122 134 112 115 124 111 114 122 112 115 122 110 113 122 121 125 136 155 158 171 74 75 81 0 0 0 1 1 2 0 0 0 0 0 0 0 0 0 
0 0 0 0 0 0 48 47 51 99 104 117 111 116 136 112 118 140 112 117 137 115 120 141 116 121 141 115 122 140 118 124 139 120 126 140 123 131 144 132 142 152 140 149 160 141 148 162 139 142 157 136 136 151 135 133 146 145 139 153 136 130 141 120 113 124 130 120 134 167 148 166 155 141 155 17 16 19 0 0 0 1 1 1 0 0 0 0 0 0 
0 0 0 13 12 12 89 91 99 92 98 116 59 61 73 102 108 122 110 116 129 109 116 127 116 120 133 130 131 145 146 142 159 151 143 161 157 146 164 165 148 168 169 149 171 159 138 162 149 131 155 150 134 161 81 69 78 51 41 47 38 32 37 19 16 18 15 12 14 28 21 24 47 39 45 36 34 39 0 0 0 0 0 0 0 0 0 0 0 0 
0 0 0 33 33 34 87 86 98 92 89 107 64 62 72 136 125 143 155 134 159 168 140 168 166 135 161 143 114 134 105 84 98 63 50 58 51 39 46 85 67 80 109 95 111 107 92 117 87 74 95 46 44 58 10 9 10 0 0 0 0 0 1 0 0 0 0 0 0 0 0 0 2 2 2 6 6 8 0 0 0 0 0 0 0 0 0 0 0 0 
0 0 0 53 47 53 174 146 179 211 171 215 126 105 130 210 164 211 174 132 169 115 85 108 55 39 50 10 7 8 0 0 0 0 0 0 0 0 0 0 0 0 0 0 0 1 1 1 2 1 1 0 0 0 2 1 2 2 2 2 2 1 2 1 1 1 1 1 1 2 1 1 2 1 1 0 0 0 0 0 0 0 0 0 0 0 0 0 0 0 
0 1 1 4 3 2 61 55 65 125 103 133 95 72 90 63 48 58 22 18 20 0 0 0 0 0 0 0 0 0 2 2 2 3 2 2 2 2 2 2 2 2 2 2 2 1 0 1 1 1 1 2 2 2 0 0 0 0 0 0 0 0 0 0 0 0 0 0 0 0 0 0 0 0 0 0 0 0 0 0 0 0 0 0 0 0 0 0 0 0 
0 0 0 0 0 0 0 0 0 0 0 0 0 0 0 0 0 0 0 0 0 2 1 2 2 2 2 1 1 1 0 0 0 0 0 0 0 0 0 0 0 0 0 0 0 0 0 0 0 0 0 0 0 0 0 0 0 0 0 0 0 0 0 0 0 0 0 0 0 0 0 0 0 0 0 0 0 0 0 0 0 0 0 0 0 0 0 0 0 0 
0 0 0 0 0 0 2 2 2 2 2 2 2 2 2 2 2 2 1 1 1 0 0 0 0 0 0 0 0 0 0 0 0 0 0 0 0 0 0 0 0 0 0 0 0 0 0 0 0 0 0 0 0 0 0 0 0 0 0 0 0 0 0 0 0 0 0 0 0 0 0 0 0 0 0 0 0 0 0 0 0 0 0 0 0 0 0 0 0 0 
