P3
78 62
255
0 0 0 0 0 0 0 0 0 0 0 0 0 0 0 0 0 0 0 0 0 0 0 0 0 0 0 0 0 0 0 0 0 0 0 0 0 0 0 0 0 0 0 0 0 0 0 0 0 0 0 0 0 0 0 0 0 0 0 0 0 0 0 0 0 0 0 0 0 0 0 0 0 0 0 0 0 0 0 0 0 0 0 0 0 0 0 0 0 0 0 0 0 0 0 0 0 0 0 0 0 0 0 0 0 0 0 0 0 0 0 0 0 0 0 0 0 0 0 0 0 0 0 0 0 0 0 0 0 0 0 0 0 0 0 0 0 0 0 0 0 0 0 0 0 0 0 0 0 0 0 0 0 0 0 0 0 0 0 0 0 0 0 0 0 0 0 0 0 0 0 0 0 0 0 0 0 0 0 0 0 0 0 0 0 0 0 0 0 0 0 0 0 0 0 0 0 0 0 0 0 0 0 0 0 0 0 0 0 0 0 0 0 0 0 0 0 0 0 0 0 0 0 0 0 0 0 0 0 0 0 0 0 0 
0 0 0 0 0 0 0 0 0 0 0 0 0 0 0 0 0 0 0 0 0 0 0 0 0 0 0 0 0 0 0 0 0 0 0 0 0 0 0 0 0 0 0 0 0 0 0 0 0 0 0 0 0 0 0 0 0 0 0 0 0 0 0 0 0 0 0 0 0 0 0 0 0 0 0 0 0 0 0 0 0 0 0 0 0 0 0 0 0 0 0 0 0 0 0 0 0 0 0 0 0 0 0 0 0 0 0 0 0 0 0 0 0 0 0 0 0 0 0 0 0 0 0 0 0 0 0 0 0 0 0 0 0 0 0 0 0 0 0 0 0 0 0 0 0 0 0 0 0 0 0 0 0 0 0 0 0 0 0 0 0 0 0 0 0 0 0 0 0 0 0 0 0 0 0 0 0 0 0 0 0 0 0 0 0 0 0 0 0 0 0 0 0 0 0 0 0 0 0 0 0 0 0 0 0 0 0 0 0 0 0 0 0 0 0 0 0 0 0 0 0 0 0 0 0 0 0 0 0 0 0 0 0 0 
0 0 0 0 0 0 0 0 0 0 0 0 0 0 0 0 0 0 0 0 0 0 0 0 0 0 0 0 0 0 0 0 0 0 0 0 0 0 0 0 0 0 0 0 0 0 0 0 0 0 0 0 0 0 0 0 0 0 0 0 0 0 0 0 0 0 0 0 0 0 0 0 0 0 0 0 0 0 0 0 0 0 0 0 0 0 0 0 0 0 0 0 0 0 0 0 0 0 0 0 0 0 0 0 0 0 0 0 0 0 0 0 0 0 0 0 0 0 0 0 0 0 0 0 0 0 0 0 0 0 0 0 0 0 0 0 0 0 0 0 0 0 0 0 0 0 0 0 0 0 0 0 0 0 0 0 0 0 0 0 0 0 0 0 0 0 0 0 0 0 0 0 0 0 0 0 0 0 0 0 0 0 0 0 0 0 0 0 0 0 0 0 0 0 0 0 0 0 0 0 0 0 0 0 0 0 0 0 0 0 0 0 0 0 0 0 0 0 0 0 0 0 0 0 0 0 0 0 0 0 0 0 0 0 
0 0 0 0 0 0 0 0 0 0 0 0 0 0 0 0 0 0 0 0 0 0 0 0 0 0 0 0 0 0 0 0 0 0 0 0 0 0 0 0 0 0 0 0 0 0 0 0 0 0 0 0 0 0 0 0 0 0 0 0 0 0 0 0 0 0 0 0 0 0 0 0 0 0 0 0 0 0 0 0 0 0 0 0 0 0 0 0 0 0 0 0 0 0 0 0 0 0 0 0 0 0 0 0 0 0 0 0 0 0 0 0 0 0 0 0 0 0 0 0 0 0 0 0 0 0 0 0 0 0 0 0 0 0 0 0 0 0 0 0 0 0 0 0 0 0 0 0 0 0 0 0 0 0 0 0 0 0 0 0 0 0 0 0 0 0 0 0 0 0 0 0 0 0 0 0 0 0 0 0 0 0 0 0 0 0 0 0 0 0 0 0 0 0 0 0 0 0 0 0 0 0 0 0 0 0 0 0 0 0 0 0 0 0 0 0 0 0 0 0 0 0 0 0 0 0 0 0 0 0 0 0 0 0 
0 0 0 0 0 0 0 0 0 0 0 0 0 0 0 0 0 0 0 0 0 0 0 0 0 0 0 0 0 0 0 0 0 0 0 0 0 0 0 0 0 0 0 0 0 0 0 0 0 0 0 0 0 0 0 0 0 0 0 0 0 0 0 0 0 0 0 0 0 0 0 0 0 0 0 0 0 0 0 0 0 0 0 0 0 0 0 0 0 0 0 0 0 0 0 0 0 0 0 0 0 0 0 0 0 0 0 0 0 0 0 0 0 0 0 0 0 0 0 0 0 0 0 0 0 0 0 0 0 0 0 0 0 0 0 0 0 0 0 0 0 0 0 0 0 0 0 0 0 0 0 0 0 0 0 0 0 0 0 0 0 0 0 0 0 0 0 0 0 0 0 0 0 0 0 0 0 0 0 0 0 0 0 0 0 0 0 0 0 0 0 0 0 0 0 0 0 0 0 0 0 0 0 0 0 0 0 0 0 0 0 0 0 0 0 0 0 0 0 0 0 0 0 0 0 0 0 0 0 0 0 0 0 0 
0 0 0 0 0 0 0 0 0 0 0 0 0 0 0 0 0 0 0 0 0 0 0 0 0 0 0 0 0 0 0 0 0 0 0 0 0 0 0 0 0 0 0 0 0 0 0 0 0 0 0 0 0 0 0 0 0 0 0 0 0 0 0 0 0 0 0 0 0 0 0 0 0 0 0 0 0 0 0 0 0 0 0 0 0 0 0 0 0 0 0 0 0 0 0 0 0 0 0 0 0 0 0 0 0 0 0 0 0 0 0 0 0 0 0 0 0 0 0 0 0 0 0 0 0 0 0 0 0 0 0 0 0 0 0 0 0 0 0 0 0 0 0 0 0 0 0 0 0 0 0 0 0 0 0 0 0 0 0 0 0 0 0 0 0 0 0 0 0 0 0 0 0 0 0 0 0 0 0 0 0 0 0 0 0 0 0 0 0 0 0 0 0 0 0 0 0 0 0 0 0 0 0 0 0 0 0 0 0 0 0 0 0 0 0 0 0 0 0 0 0 0 0 0 0 0 0 0 0 0 0 0 0 0 
0 0 0 0 0 0 0 0 0 0 0 0 0 0 0 0 0 0 0 0 0 0 0 0 0 0 0 0 0 0 0 0 0 0 0 0 0 0 0 0 0 0 0 0 0 0 0 0 0 0 0 0 0 0 0 0 0 0 0 0 0 0 0 0 0 0 0 0 0 0 0 0 0 0 0 0 0 0 0 0 0 0 0 0 0 0 0 0 0 0 0 0 0 0 0 0 11 11 11 6 6 6 0 0 0 0 0 0 0 0 0 0 0 0 0 0 0 0 0 0 0 0 0 0 0 0 0 0 0 0 0 0 0 0 0 0 0 0 0 0 0 0 0 0 0 0 0 0 0 0 0 0 0 0 0 0 0 0 0 0 0 0 0 0 0 0 0 0 0 0 0 0 0 0 0 0 0 0 0 0 0 0 0 0 0 0 0 0 0 0 0 0 0 0 0 0 0 0 0 0 0 0 0 0 0 0 0 0 0 0 0 0 0 0 0 0 0 0 0 0 0 0 0 0 0 0 0 0 0 0 0 0 0 0 
0 0 0 0 0 0 0 0 0 0 0 0 0 0 0 0 0 0 0 0 0 0 0 0 0 0 0 0 0 0 0 0 0 0 0 0 0 0 0 0 0 0 0 0 0 0 0 0 0 0 0 0 0 0 0 0 0 0 0 0 0 0 0 0 0 0 0 0 0 0 0 0 0 0 0 0 0 0 0 0 0 0 0 0 0 0 0 0 0 0 0 0 0 1 1 1 7 7 7 4 4 4 0 0 0 0 0 0 0 0 0 0 0 0 0 0 0 0 0 0 0 0 0 0 0 0 0 0 0 0 0 0 0 0 0 0 0 0 0 0 0 0 0 0 0 0 0 0 0 0 0 0 0 0 0 0 0 0 0 0 0 0 0 0 0 0 0 0 0 0 0 0 0 0 0 0 0 0 0 0 0 0 0 0 0 0 0 0 0 0 0 0 0 0 0 0 0 0 0 0 0 0 0 0 0 0 0 0 0 0 0 0 0 0 0 0 0 0 0 0 0 0 0 0 0 0 0 0 0 0 0 0 0 0 
0 0 0 0 0 0 0 0 0 0 0 0 0 0 0 0 0 0 0 0 0 0 0 0 0 0 0 0 0 0 0 0 0 0 0 0 0 0 0 0 0 0 0 0 0 0 0 0 0 0 0 0 0 0 0 0 0 0 0 0 0 0 0 0 0 0 0 0 0 0 0 0 0 0 0 0 0 0 0 0 0 0 0 0 0 0 0 0 0 0 0 0 0 0 0 0 0 0 0 4 4 4 1 1 1 1 1 1 0 0 0 1 1 1 0 0 0 0 0 0 0 0 0 0 0 0 0 0 0 0 0 0 0 0 0 0 0 0 0 0 0 0 0 0 0 0 0 0 0 0 0 0 0 0 0 0 0 0 0 0 0 0 0 0 0 0 0 0 0 0 0 0 0 0 0 0 0 0 0 0 0 0 0 0 0 0 0 0 0 0 0 0 0 0 0 0 0 0 0 0 0 0 0 0 0 0 0 0 0 0 0 0 0 0 0 0 0 0 0 0 0 0 0 0 0 0 0 0 0 0 0 0 0 0 
0 0 0 0 0 0 0 0 0 0 0 0 0 0 0 0 0 0 0 0 0 0 0 0 0 0 0 0 0 0 0 0 0 0 0 0 0 0 0 0 0 0 0 0 0 0 0 0 0 0 0 0 0 0 0 0 0 0 0 0 0 0 0 0 0 0 0 0 0 0 0 0 0 0 0 0 0 0 0 0 0 0 0 0 0 0 0 0 0 0 0 0 0 0 0 0 0 0 0 4 4 4 0 0 0 0 0 0 3 3 3 0 0 0 0 0 0 0 0 0 0 0 0 0 0 0 0 0 0 0 0 0 0 0 0 0 0 0 0 0 0 0 0 0 0 0 0 0 0 0 0 0 0 0 0 0 0 0 0 0 0 0 0 0 0 0 0 0 0 0 0 0 0 0 0 0 0 0 0 0 0 0 0 0 0 0 0 0 0 0 0 0 0 0 0 0 0 0 0 0 0 0 0 0 0 0 0 0 0 0 0 0 0 0 0 0 0 0 0 0 0 0 0 0 0 0 0 0 0 0 0 0 0 0 
0 0 0 0 0 0 0 0 0 0 0 0 0 0 0 0 0 0 0 0 0 0 0 0 0 0 0 0 0 0 0 0 0 0 0 0 0 0 0 0 0 0 0 0 0 0 0 0 0 0 0 0 0 0 0 0 0 0 0 0 0 0 0 0 0 0 0 0 0 0 0 0 0 0 0 0 0 0 0 0 0 0 0 0 0 0 0 0 0 0 1 1 1 1 1 1 0 0 0 1 1 0 12 12 12 30 30 31 23 22 25 20 19 24 0 0 0 1 0 1 0 0 0 0 0 0 0 0 0 0 0 0 0 0 0 0 0 0 0 0 0 0 0 0 0 0 0 0 0 0 0 0 0 0 0 0 0 0 0 0 0 0 0 0 0 0 0 0 0 0 0 0 0 0 0 0 0 0 0 0 0 0 0 0 0 0 0 0 0 0 0 0 0 0 0 0 0 0 0 0 0 0 0 0 0 0 0 0 0 0 0 0 0 0 0 0 0 0 0 0 0 0 0 0 0 0 0 0 0 0 0 0 0 0 
0 0 0 0 0 0 0 0 0 0 0 0 0 0 0 0 0 0 0 0 0 0 0 0 0 0 0 0 0 0 0 0 0 0 0 0 0 0 0 0 0 0 0 0 0 0 0 0 0 0 0 0 0 0 0 0 0 0 0 0 0 0 0 0 0 0 0 0 0 0 0 0 0 0 0 0 0 0 0 0 0 0 0 0 0 0 0 0 0 0 0 0 0 0 0 0 16 16 16 33 33 34 47 46 50 30 30 33 22 21 26 50 47 62 41 37 53 2 2 3 1 1 1 0 0 0 0 0 0 0 0 0 0 0 0 0 0 0 0 0 0 0 0 0 0 0 0 0 0 0 0 0 0 0 0 0 0 0 0 0 0 0 0 0 0 0 0 0 0 0 0 0 0 0 0 0 0 0 0 0 0 0 0 0 0 0 0 0 0 0 0 0 0 0 0 0 0 0 0 0 0 0 0 0 0 0 0 0 0 0 0 0 0 0 0 0 0 0 0 0 0 0 0 0 0 0 0 0 0 0 0 0 0 0 
0 0 0 0 0 0 0 0 0 0 0 0 0 0 0 0 0 0 0 0 0 0 0 0 0 0 0 0 0 0 0 0 0 0 0 0 0 0 0 0 0 0 0 0 0 0 0 0 0 0 0 0 0 0 0 0 0 0 0 0 0 0 0 0 0 0 0 0 0 0 0 0 0 0 0 0 0 0 0 0 1 1 1 1 0 0 0 0 0 0 15 15 16 35 35 36 38 38 38 16 15 14 36 36 42 25 23 30 30 29 31 27 25 27 48 45 60 16 18 24 0 0 0 3 3 3 0 0 0 0 0 0 0 0 0 0 0 0 0 0 0 0 0 0 0 0 0 0 0 0 0 0 0 0 0 0 0 0 0 0 0 0 0 0 0 0 0 0 0 0 0 0 0 0 0 0 0 0 0 0 0 0 0 0 0 0 0 0 0 0 0 0 0 0 0 0 0 0 0 0 0 0 0 0 0 0 0 0 0 0 0 0 0 0 0 0 0 0 0 0 0 0 0 0 0 0 0 0 0 0 0 0 0 0 
0 0 0 0 0 0 0 0 0 0 0 0 0 0 0 0 0 0 0 0 0 0 0 0 0 0 0 0 0 0 0 0 0 0 0 0 0 0 0 0 0 0 0 0 0 0 0 0 0 0 0 0 0 0 0 0 0 0 0 0 0 0 0 0 0 0 0 0 0 0 0 0 1 1 0 0 0 0 0 0 0 2 2 2 15 15 15 37 37 37 38 38 37 16 16 17 2 2 2 0 0 3 35 33 31 123 115 84 153 146 105 131 127 99 27 25 33 45 40 41 14 13 14 8 8 9 9 9 9 12 12 12 1 1 1 0 0 0 0 0 0 0 0 0 0 0 0 0 0 0 0 0 0 0 0 0 0 0 0 0 0 0 0 0 0 0 0 0 0 0 0 0 0 0 0 0 0 0 0 0 0 0 0 0 0 0 0 0 0 0 0 0 0 0 0 0 0 0 0 0 0 0 0 0 0 0 0 0 0 0 0 0 0 0 0 0 0 0 0 0 0 0 0 0 0 0 0 0 0 0 0 0 0 0 
0 0 0 0 0 0 0 0 0 0 0 0 0 0 0 0 0 0 0 0 0 0 0 0 0 0 0 0 0 0 0 0 0 0 0 0 0 0 0 0 0 0 0 0 0 0 0 0 0 0 0 0 0 0 0 0 0 0 0 0 0 0 0 0 0 0 1 1 1 1 1 1 0 0 0 0 0 0 13 13 14 20 20 20 33 33 33 20 20 21 5 5 5 16 13 11 8 8 6 15 15 25 85 77 64 166 155 110 169 161 120 196 186 138 89 83 76 32 28 35 50 45 42 28 26 31 25 25 28 19 19 19 3 3 3 1 2 2 1 2 1 1 1 1 0 0 0 0 0 0 0 0 0 0 0 0 0 0 0 0 0 0 0 0 0 0 0 0 0 0 0 0 0 0 0 0 0 0 0 0 0 0 0 0 0 0 0 0 0 0 0 0 0 0 0 0 0 0 0 0 0 0 0 0 0 0 0 0 0 0 0 0 0 0 0 0 0 0 0 0 0 0 0 0 0 0 0 0 0 0 0 0 0 0 
0 0 0 0 0 0 0 0 0 0 0 0 0 0 0 0 0 0 0 0 0 0 0 0 0 0 0 0 0 0 0 0 0 0 0 0 0 0 0 0 0 0 0 0 0 0 0 0 0 0 0 0 0 0 0 0 0 0 0 0 0 0 0 0 0 0 0 0 0 0 0 0 17 17 17 41 41 43 36 36 38 11 11 11 2 2 2 0 0 0 2 2 3 35 31 30 38 32 34 33 28 36 129 122 87 173 163 123 181 172 132 200 191 148 187 180 139 144 137 110 181 175 134 123 116 99 20 18 28 43 42 44 16 15 17 0 0 0 3 3 3 1 1 1 0 0 0 0 0 0 0 0 0 0 0 0 0 0 0 0 0 0 0 0 0 0 0 0 0 0 0 0 0 0 0 0 0 0 0 0 0 0 0 0 0 0 0 0 0 0 0 0 0 0 0 0 0 0 0 0 0 0 0 0 0 0 0 0 0 0 0 0 0 0 0 0 0 0 0 0 0 0 0 0 0 0 0 0 0 0 0 0 0 0 
0 0 0 0 0 0 0 0 0 0 0 0 0 0 0 0 0 0 0 0 0 0 0 0 0 0 0 0 0 0 0 0 0 0 0 0 0 0 0 0 0 0 0 0 0 0 0 0 0 0 0 0 0 0 1 1 1 2 2 2 0 0 0 0 0 0 18 17 20 41 41 42 40 40 41 20 20 21 3 3 4 1 1 1 1 2 1 2 2 0 10 10 13 56 53 44 108 100 66 123 117 80 158 150 110 175 165 126 190 181 139 208 199 157 215 203 159 232 218 173 230 218 170 214 202 154 53 49 56 19 18 33 22 22 32 22 20 26 20 15 15 0 1 1 0 0 1 0 0 0 0 0 0 0 0 0 0 0 0 0 0 0 0 0 0 0 0 0 0 0 0 0 0 0 0 0 0 0 0 0 0 0 0 0 0 0 0 0 0 0 0 0 0 0 0 0 0 0 0 0 0 0 0 0 0 0 0 0 0 0 0 0 0 0 0 0 0 0 0 0 0 0 0 0 0 0 0 0 0 0 0 0 0 0 
0 0 0 0 0 0 0 0 0 0 0 0 0 0 0 0 0 0 0 0 0 0 0 0 0 0 0 0 0 0 0 0 0 0 0 0 0 0 0 0 0 0 0 0 0 0 0 0 1 1 0 0 0 0 0 0 0 1 1 1 18 18 18 41 40 42 42 42 44 24 24 25 3 3 4 0 0 0 0 0 0 1 1 1 0 0 0 12 12 13 27 24 34 95 90 56 131 123 80 148 138 99 164 155 116 182 173 133 204 196 155 221 210 170 224 212 169 233 223 177 231 220 176 234 221 173 164 157 122 100 93 75 133 124 88 73 69 64 8 6 12 0 1 0 0 0 0 0 0 0 0 0 0 0 0 0 0 0 0 0 0 0 0 0 0 0 0 0 0 0 0 0 0 0 0 0 0 0 0 0 0 0 0 0 0 0 0 0 0 0 0 0 0 0 0 0 0 0 0 0 0 0 0 0 0 0 0 0 0 0 0 0 0 0 0 0 0 0 0 0 0 0 0 0 0 0 0 0 0 0 0 0 0 0 
0 0 0 0 0 0 0 0 0 0 0 0 0 0 0 0 0 0 0 0 0 0 0 0 0 0 0 0 0 0 0 0 0 0 0 0 0 0 0 0 0 0 1 1 1 2 2 2 0 0 0 0 0 0 17 17 18 40 40 40 44 44 44 23 23 25 4 4 4 0 0 0 1 0 0 1 1 1 1 1 1 1 0 1 17 17 17 31 30 32 48 43 34 113 106 65 131 122 85 146 137 97 174 165 125 183 174 133 204 196 154 222 212 169 238 226 183 247 235 189 242 231 185 232 222 175 224 211 160 218 207 150 203 191 131 140 131 88 43 44 62 22 24 30 0 0 0 1 1 1 0 0 0 0 0 0 0 0 0 0 0 0 0 0 0 0 0 0 0 0 0 0 0 0 0 0 0 0 0 0 0 0 0 0 0 0 0 0 0 0 0 0 0 0 0 0 0 0 0 0 0 0 0 0 0 0 0 0 0 0 0 0 0 0 0 0 0 0 0 0 0 0 0 0 0 0 0 0 0 0 0 0 0 0 
0 0 0 0 0 0 0 0 0 0 0 0 0 0 0 0 0 0 0 0 0 0 0 0 0 0 0 0 0 0 0 0 0 0 0 0 0 0 0 0 0 0 0 0 0 1 1 1 18 18 18 45 45 47 46 46 47 24 24 24 6 6 6 0 0 0 0 0 0 0 0 0 0 0 0 0 0 0 0 0 1 6 6 5 75 69 34 89 83 44 105 95 54 115 105 66 135 126 88 154 145 106 178 169 127 190 182 138 218 209 166 237 227 184 240 232 187 251 244 203 251 243 198 241 230 179 225 213 163 208 195 147 189 178 129 177 164 105 90 84 70 20 21 32 0 0 0 1 1 1 0 0 0 0 0 0 0 0 0 0 0 0 0 0 0 0 0 0 0 0 0 0 0 0 0 0 0 0 0 0 0 0 0 0 0 0 0 0 0 0 0 0 0 0 0 0 0 0 0 0 0 0 0 0 0 0 0 0 0 0 0 0 0 0 0 0 0 0 0 0 0 0 0 0 0 0 0 0 0 0 0 0 0 0 
0 0 0 0 0 0 0 0 0 0 0 0 0 0 0 0 0 0 0 0 0 0 0 0 0 0 0 0 0 0 0 0 0 0 0 0 1 1 1 0 0 0 19 19 19 44 44 45 44 44 46 27 27 29 7 7 8 0 0 0 0 0 0 1 1 1 0 0 0 0 0 0 0 0 0 1 1 0 0 0 0 35 32 16 92 82 37 95 85 46 106 96 56 119 110 71 136 127 87 154 145 106 174 165 124 201 191 148 225 215 172 244 233 190 248 244 199 237 235 212 242 237 202 239 228 178 235 223 173 211 199 149 194 182 132 183 169 111 85 79 55 16 18 27 0 0 0 1 1 1 0 0 0 0 0 0 0 0 0 0 0 0 0 0 0 0 0 0 0 0 0 0 0 0 0 0 0 0 0 0 0 0 0 0 0 0 0 0 0 0 0 0 0 0 0 0 0 0 0 0 0 0 0 0 0 0 0 0 0 0 0 0 0 0 0 0 0 0 0 0 0 0 0 0 0 0 0 0 0 0 0 0 0 0 
0 0 0 0 0 0 0 0 0 0 0 0 0 0 0 0 0 0 0 0 0 0 0 0 0 0 0 0 0 0 0 0 0 0 0 0 1 1 1 23 22 25 32 32 36 21 22 20 7 7 8 0 0 0 0 0 0 0 0 0 0 0 0 0 0 0 0 0 0 0 0 0 0 0 0 1 1 0 0 0 0 62 56 25 90 83 40 94 86 47 107 98 57 123 114 73 133 124 83 154 145 103 175 166 126 202 192 148 225 213 169 244 233 189 246 242 214 248 246 238 254 250 221 244 234 184 231 219 169 216 204 152 198 186 133 164 153 99 48 44 48 39 41 52 0 0 0 1 1 1 0 0 0 0 0 0 0 0 0 0 0 0 0 0 0 0 0 0 0 0 0 0 0 0 0 0 0 0 0 0 0 0 0 0 0 0 0 0 0 0 0 0 0 0 0 0 0 0 0 0 0 0 0 0 0 0 0 0 0 0 0 0 0 0 0 0 0 0 0 0 0 0 0 0 0 0 0 0 0 0 0 0 0 0 
0 0 0 0 0 0 0 0 0 0 0 0 0 0 0 0 0 0 0 0 0 0 0 0 0 0 0 0 0 0 1 1 1 0 0 0 11 11 12 27 27 32 74 73 83 42 42 44 0 0 0 1 1 2 0 0 0 0 0 0 0 0 0 0 0 0 0 0 0 0 0 0 0 0 0 1 1 0 0 0 0 37 34 23 94 84 39 96 86 46 109 100 58 119 110 69 138 129 89 161 151 111 178 169 128 204 193 150 242 230 181 255 250 205 249 244 216 252 251 237 254 249 221 248 237 186 224 212 161 207 195 145 202 192 131 110 103 73 35 32 43 48 47 62 0 0 0 1 1 1 0 0 0 0 0 0 0 0 0 0 0 0 0 0 0 0 0 0 0 0 0 0 0 0 0 0 0 0 0 0 0 0 0 0 0 0 0 0 0 0 0 0 0 0 0 0 0 0 0 0 0 0 0 0 0 0 0 0 0 0 0 0 0 0 0 0 0 0 0 0 0 0 0 0 0 0 0 0 0 0 0 0 0 0 
0 0 0 0 0 0 0 0 0 0 0 0 0 0 0 0 0 0 0 0 0 0 0 0 0 0 0 0 0 0 2 2 2 0 0 0 32 31 35 39 39 45 61 59 68 60 58 63 3 3 2 1 1 1 0 0 0 0 0 0 0 0 0 0 0 0 0 0 0 0 0 0 0 0 0 1 1 1 0 0 0 15 15 24 73 68 40 99 89 47 105 96 55 116 107 65 139 130 88 164 153 109 201 189 141 181 172 135 132 129 106 118 116 101 207 202 175 254 254 230 253 244 205 246 233 181 221 209 158 206 194 142 196 183 129 132 122 86 35 35 47 53 54 69 0 0 0 1 1 1 0 0 0 0 0 0 0 0 0 0 0 0 0 0 0 0 0 0 0 0 0 0 0 0 0 0 0 0 0 0 0 0 0 0 0 0 0 0 0 0 0 0 0 0 0 0 0 0 0 0 0 0 0 0 0 0 0 0 0 0 0 0 0 0 0 0 0 0 0 0 0 0 0 0 0 0 0 0 0 0 0 0 0 0 
0 0 0 0 0 0 0 0 0 0 0 0 0 0 0 0 0 0 0 0 0 0 0 0 0 0 0 0 0 0 1 1 1 0 0 0 28 27 30 48 47 53 26 24 31 29 28 27 6 5 4 0 0 0 0 0 0 0 0 0 0 0 0 0 0 0 0 0 0 0 0 0 0 0 0 1 1 1 0 0 0 13 12 20 76 68 37 98 88 44 106 98 56 115 106 63 142 133 87 93 87 63 78 74 60 73 70 58 43 42 39 18 19 21 90 89 81 255 255 200 251 238 182 239 226 176 217 206 153 208 196 144 186 173 118 174 160 101 73 69 65 33 34 45 0 0 0 1 1 1 0 0 0 0 0 0 0 0 0 0 0 0 0 0 0 0 0 0 0 0 0 0 0 0 0 0 0 0 0 0 0 0 0 0 0 0 0 0 0 0 0 0 0 0 0 0 0 0 0 0 0 0 0 0 0 0 0 0 0 0 0 0 0 0 0 0 0 0 0 0 0 0 0 0 0 0 0 0 0 0 0 0 0 0 
0 0 0 0 0 0 0 0 0 0 0 0 0 0 0 0 0 0 0 0 0 0 0 0 0 0 0 0 0 0 1 1 1 0 0 0 24 23 27 45 44 51 32 31 39 24 24 22 0 0 0 0 0 0 1 1 1 0 0 0 0 0 0 0 0 0 0 0 0 0 0 0 0 0 0 1 1 0 0 0 0 35 32 19 94 84 35 96 86 40 108 99 53 119 108 65 143 130 86 37 38 31 10 13 16 14 14 13 11 11 11 13 13 13 20 19 26 195 188 150 238 229 167 221 210 157 212 201 147 200 188 135 177 167 111 173 161 97 112 104 69 19 16 27 3 2 2 0 0 0 0 0 0 0 0 0 0 0 0 0 0 0 0 0 0 0 0 0 0 0 0 0 0 0 0 0 0 0 0 0 0 0 0 0 0 0 0 0 0 0 0 0 0 0 0 0 0 0 0 0 0 0 0 0 0 0 0 0 0 0 0 0 0 0 0 0 0 0 0 0 0 0 0 0 0 0 0 0 0 0 0 0 0 0 
0 0 0 0 0 0 0 0 0 0 0 0 0 0 0 0 0 0 0 0 0 0 0 0 0 0 0 0 0 0 1 1 1 0 0 0 21 20 21 37 37 39 45 45 48 43 42 48 26 25 30 9 8 10 0 0 0 0 0 0 0 0 0 1 1 1 0 0 0 0 0 0 0 0 0 1 1 0 0 0 2 59 54 28 93 84 33 95 83 40 106 94 50 117 106 61 132 121 74 109 100 72 56 53 40 18 18 14 20 20 17 15 15 15 26 25 28 198 190 148 234 225 167 211 200 146 202 191 137 196 185 130 175 163 108 167 154 91 70 65 47 36 37 47 1 1 1 1 1 1 0 0 0 0 0 0 0 0 0 0 0 0 0 0 0 0 0 0 0 0 0 0 0 0 0 0 0 0 0 0 0 0 0 0 0 0 0 0 0 0 0 0 0 0 0 0 0 0 0 0 0 0 0 0 0 0 0 0 0 0 0 0 0 0 0 0 0 0 0 0 0 0 0 0 0 0 0 0 0 0 0 0 0 0 
0 0 0 0 0 0 0 0 0 0 0 0 0 0 0 0 0 0 0 0 0 0 0 0 0 0 0 0 0 0 0 0 0 0 0 0 0 0 0 8 8 8 28 28 26 47 46 42 48 46 46 43 40 46 36 34 41 18 17 22 0 0 2 0 0 0 0 0 0 1 1 1 0 0 1 1 1 0 0 0 0 24 21 18 89 80 31 94 83 37 103 93 46 112 101 55 125 115 69 148 139 89 172 162 110 53 50 42 10 10 20 1 2 12 94 91 77 240 227 171 214 200 147 209 197 143 190 179 122 181 171 113 173 158 99 126 113 63 42 38 51 80 80 98 0 0 0 4 4 4 3 3 3 1 1 1 1 1 1 1 1 1 1 1 1 1 1 1 1 1 1 0 0 0 0 0 0 0 0 0 0 0 0 0 0 0 0 0 0 0 0 0 0 0 0 0 0 0 0 0 0 0 0 0 0 0 0 0 0 0 0 0 0 0 0 0 0 0 0 0 0 0 0 0 0 0 0 0 0 0 0 0 0 0 
0 0 0 0 0 0 0 0 0 0 0 0 0 0 0 0 0 0 0 0 0 0 0 0 0 0 0 0 0 0 0 0 0 0 0 0 1 1 1 0 0 0 0 0 0 14 12 11 37 36 33 47 46 43 34 33 35 35 34 37 42 41 47 28 27 33 7 6 8 0 0 0 0 0 0 1 1 1 1 1 1 14 14 22 67 61 30 90 79 29 96 85 40 105 95 46 124 114 65 130 121 72 162 151 100 133 125 88 83 78 66 92 85 71 179 166 122 213 199 145 201 188 136 198 186 132 182 171 114 169 160 101 169 153 90 93 83 58 38 38 51 74 72 93 0 0 0 0 0 0 0 0 0 0 0 0 0 0 0 0 0 0 0 0 0 0 0 0 0 0 0 0 0 0 0 0 0 0 0 0 0 0 0 0 0 0 0 0 0 0 0 0 0 0 0 0 0 0 0 0 0 0 0 0 0 0 0 0 0 0 0 0 0 0 0 0 0 0 0 0 0 0 0 0 0 0 0 0 0 0 0 0 0 0 
0 0 0 0 0 0 0 0 0 0 0 0 0 0 0 0 0 0 0 0 0 0 0 0 0 0 0 0 0 0 0 0 0 0 0 0 0 0 0 0 0 0 0 0 0 0 0 0 0 0 0 21 22 18 46 47 42 35 34 32 17 16 15 27 27 29 44 43 49 37 36 41 16 15 17 0 0 0 0 0 0 23 22 24 80 71 29 90 78 27 99 87 38 103 91 43 118 106 58 133 121 72 143 131 83 163 151 97 188 175 118 203 190 133 191 179 124 187 175 122 193 180 125 183 169 114 174 159 102 170 155 99 157 142 78 127 117 63 50 47 60 72 72 88 7 7 8 52 51 55 93 92 96 88 88 92 89 88 93 91 90 94 86 85 90 96 95 100 87 87 91 6 6 7 0 0 0 1 1 1 0 0 0 0 0 0 0 0 0 0 0 0 0 0 0 0 0 0 0 0 0 0 0 0 0 0 0 0 0 0 0 0 0 0 0 0 0 0 0 0 0 0 0 0 0 0 0 0 0 0 0 0 0 0 
0 0 0 0 0 0 0 0 0 0 0 0 0 0 0 0 0 0 0 0 0 0 0 0 0 0 0 0 0 0 0 0 0 0 0 0 0 0 0 0 0 0 0 0 0 0 0 0 1 1 1 0 0 0 3 3 2 32 30 29 49 49 47 26 26 26 2 2 2 17 16 18 40 39 43 44 44 47 26 25 33 54 47 25 89 76 12 84 73 22 94 81 33 102 90 38 107 94 44 122 110 59 135 123 72 145 133 82 154 142 92 164 152 100 175 164 109 174 163 106 171 159 100 164 151 92 167 153 93 154 139 79 142 128 69 141 126 56 73 65 50 56 58 69 133 132 139 166 164 173 135 134 141 116 115 122 115 114 121 112 111 118 125 124 131 122 121 128 116 115 122 84 83 88 1 1 2 1 1 1 0 0 0 0 0 0 0 0 0 0 0 0 0 0 0 0 0 0 0 0 0 0 0 0 0 0 0 0 0 0 0 0 0 0 0 0 0 0 0 0 0 0 0 0 0 0 0 0 0 0 0 0 0 0 
0 0 0 0 0 0 0 0 0 0 0 0 0 0 0 0 0 0 0 0 0 0 0 0 0 0 0 0 0 0 0 0 0 0 0 0 0 0 0 0 0 0 0 0 0 0 0 0 0 0 0 1 1 1 0 0 0 0 0 0 8 8 8 41 41 41 49 48 49 17 16 16 0 0 0 10 10 10 33 33 35 57 55 48 72 64 42 85 73 28 92 79 22 98 87 31 104 93 41 114 102 53 123 111 61 139 126 74 152 139 86 158 146 92 161 148 93 160 146 90 165 150 94 157 142 84 152 138 78 144 129 69 137 121 61 133 117 47 60 53 27 71 70 83 125 124 129 93 92 98 89 88 94 90 89 94 98 97 103 113 112 118 105 104 110 99 98 104 104 103 109 117 116 122 62 61 64 0 0 0 2 2 2 0 0 0 0 0 0 0 0 0 0 0 0 0 0 0 0 0 0 0 0 0 0 0 0 0 0 0 0 0 0 0 0 0 0 0 0 0 0 0 0 0 0 0 0 0 0 0 0 0 0 0 
0 0 0 0 0 0 0 0 0 0 0 0 0 0 0 0 0 0 0 0 0 0 0 0 0 0 0 0 0 0 0 0 0 0 0 0 0 0 0 0 0 0 0 0 0 0 0 0 0 0 0 0 0 0 0 1 0 2 2 2 0 0 0 0 0 0 15 15 15 47 44 46 43 42 42 10 10 9 0 0 0 25 23 20 62 53 26 57 52 39 72 64 46 86 78 43 106 93 37 116 102 44 121 109 55 123 112 57 136 124 67 144 132 74 145 133 75 154 140 81 152 137 78 148 134 73 139 125 63 139 123 60 134 117 47 104 93 31 44 41 52 119 117 125 104 103 108 99 98 104 99 98 104 110 109 115 112 111 117 99 98 104 102 101 107 107 106 112 102 101 107 101 100 106 110 109 115 26 25 28 0 0 0 1 1 1 0 0 0 0 0 0 0 0 0 0 0 0 0 0 0 0 0 0 0 0 0 0 0 0 0 0 0 0 0 0 0 0 0 0 0 0 0 0 0 0 0 0 0 0 0 0 0 0 
0 0 0 0 0 0 0 0 0 0 0 0 0 0 0 0 0 0 0 0 0 0 0 0 0 0 0 0 0 0 0 0 0 0 0 0 0 0 0 0 0 0 0 0 0 0 0 0 0 0 0 0 0 0 0 0 0 0 0 0 0 0 0 1 1 1 0 0 0 0 0 0 21 21 21 45 45 45 32 32 31 16 14 15 55 48 20 53 46 18 45 43 27 55 51 38 62 57 45 84 76 46 114 101 49 124 108 49 126 111 52 129 115 57 137 123 65 141 127 68 137 123 62 137 121 61 128 112 51 110 99 44 110 97 33 51 45 25 77 76 90 123 122 128 105 104 110 107 106 112 112 111 117 101 100 106 97 96 102 103 102 108 101 100 106 98 97 103 97 96 102 97 96 102 108 107 114 77 76 81 0 0 0 2 2 2 1 1 1 0 0 0 0 0 0 0 0 0 0 0 0 0 0 0 0 0 0 0 0 0 0 0 0 0 0 0 0 0 0 0 0 0 0 0 0 0 0 0 0 0 0 0 0 0 
0 0 0 0 0 0 0 0 0 0 0 0 0 0 0 0 0 0 0 0 0 0 0 0 0 0 0 0 0 0 0 0 0 0 0 0 0 0 0 0 0 0 0 0 0 0 0 0 0 0 0 0 0 0 0 0 0 0 0 0 0 0 0 0 0 0 1 1 1 1 1 1 0 0 0 3 3 4 27 27 27 42 42 40 31 29 33 26 27 38 36 35 39 82 68 10 77 68 21 63 57 35 59 55 44 79 75 52 114 101 58 134 118 54 129 115 49 129 115 54 127 114 56 130 113 49 76 69 38 39 38 51 49 45 54 45 43 51 112 111 119 115 114 122 109 108 114 105 104 110 93 92 98 96 95 101 100 99 105 99 98 104 102 101 107 104 103 109 103 102 108 100 99 105 100 99 106 108 107 112 31 31 32 0 0 0 2 2 2 0 0 0 0 0 0 0 0 0 0 0 0 0 0 0 0 0 0 0 0 0 0 0 0 0 0 0 0 0 0 0 0 0 0 0 0 0 0 0 0 0 0 0 0 0 
0 0 0 0 0 0 0 0 0 0 0 0 0 0 0 0 0 0 0 0 0 0 0 0 0 0 0 0 0 0 0 0 0 0 0 0 0 0 0 0 0 0 0 0 0 0 0 0 0 0 0 0 0 0 0 0 0 0 0 0 1 1 1 1 1 1 2 2 2 2 2 3 1 1 1 0 0 0 0 0 0 3 3 3 36 35 32 39 35 33 38 37 48 61 54 26 92 75 11 95 80 13 94 80 21 75 66 30 62 54 39 71 66 52 99 90 53 119 103 41 124 106 38 109 94 31 38 37 37 38 38 44 42 42 47 71 70 78 113 112 118 111 110 116 98 97 103 88 87 93 93 92 98 95 94 100 99 98 104 103 102 108 102 101 107 99 98 104 99 98 104 102 101 107 99 98 105 103 102 108 82 81 86 3 3 5 1 1 1 0 0 0 0 0 0 0 0 0 0 0 0 0 0 0 0 0 0 0 0 0 0 0 0 0 0 0 0 0 0 0 0 0 0 0 0 0 0 0 0 0 0 0 0 0 
0 0 0 0 0 0 0 0 0 0 0 0 0 0 0 0 0 0 0 0 0 0 0 0 0 0 0 0 0 0 0 0 0 0 0 0 0 0 0 0 0 0 0 0 0 0 0 0 0 0 0 0 0 0 1 1 1 1 1 2 0 0 0 0 0 0 0 0 0 0 0 0 4 4 4 22 23 26 44 47 50 67 69 75 82 84 91 68 70 73 46 46 50 38 36 36 55 50 43 55 51 47 84 74 16 108 91 13 108 90 16 95 79 16 61 58 34 56 51 49 86 77 44 71 63 41 43 42 53 32 32 38 16 15 18 66 65 72 110 109 115 92 91 97 86 85 91 90 89 95 90 89 95 93 92 98 95 94 100 94 93 99 95 94 100 97 96 102 98 97 103 95 94 100 93 92 98 97 96 102 111 110 116 41 40 45 0 0 0 1 1 1 0 0 0 0 0 0 0 0 0 0 0 0 0 0 0 0 0 0 0 0 0 0 0 0 0 0 0 0 0 0 0 0 0 0 0 0 0 0 0 0 0 0 
0 0 0 0 0 0 0 0 0 0 0 0 0 0 0 0 0 0 0 0 0 0 0 0 0 0 0 0 0 0 0 0 0 0 0 0 0 0 0 0 0 0 0 0 0 0 0 0 1 1 1 3 3 5 0 0 0 0 0 0 9 10 11 11 13 16 34 36 41 58 62 70 76 80 86 88 89 95 91 92 99 92 93 100 91 92 99 99 101 106 106 107 112 93 90 102 47 47 56 39 39 58 67 57 31 92 77 5 94 78 17 106 88 16 74 65 31 39 38 52 38 36 49 46 46 56 65 64 74 71 70 78 49 48 55 80 79 86 89 89 95 82 82 88 85 85 91 85 86 91 87 86 92 90 89 95 93 92 98 96 95 101 96 95 101 96 95 101 95 94 100 97 96 102 98 97 103 98 97 103 103 102 110 76 77 81 1 2 1 1 1 1 0 0 0 0 0 0 0 0 0 0 0 0 0 0 0 0 0 0 0 0 0 0 0 0 0 0 0 0 0 0 0 0 0 0 0 0 0 0 0 0 0 0 
0 0 0 0 0 0 0 0 0 0 0 0 0 0 0 0 0 0 0 0 0 0 0 0 0 0 0 0 0 0 0 0 0 0 0 0 0 0 0 0 0 0 0 0 1 2 2 2 0 0 0 0 0 0 16 16 19 67 71 84 112 118 141 114 121 146 116 124 146 108 115 132 97 105 117 88 92 101 93 92 98 110 109 117 131 131 140 151 151 160 163 164 174 198 197 208 135 134 137 30 31 30 54 50 46 74 64 12 83 69 11 77 65 17 50 45 54 49 46 51 57 55 57 46 44 45 87 87 91 115 113 119 91 89 95 72 72 77 77 79 83 82 83 88 83 84 89 85 86 91 86 85 91 89 88 94 91 90 96 95 94 100 98 97 103 102 101 107 104 103 109 105 104 110 104 103 109 105 104 110 113 112 118 108 110 115 17 19 20 0 0 0 1 1 1 0 0 0 0 0 0 0 0 0 0 0 0 0 0 0 0 0 0 0 0 0 0 0 0 0 0 0 0 0 0 0 0 0 0 0 0 0 0 0 
0 0 0 0 0 0 0 0 0 0 0 0 0 0 0 0 0 0 0 0 0 0 0 0 0 0 0 0 0 0 0 0 0 0 0 0 1 1 1 3 3 2 0 0 0 0 0 0 14 14 18 66 69 83 117 123 153 128 135 166 120 128 155 115 120 147 105 112 132 99 106 124 94 103 116 90 98 106 86 89 95 88 90 96 105 104 109 137 136 143 188 188 195 249 248 252 129 129 128 36 35 28 52 52 48 48 47 44 52 51 44 54 53 47 55 54 50 58 57 51 58 57 52 46 44 39 97 94 98 112 112 121 80 83 89 88 90 98 96 97 104 83 84 91 84 84 91 87 88 92 89 88 94 94 93 99 100 98 104 105 104 109 108 107 112 111 110 115 116 116 121 122 120 128 128 125 133 130 129 136 128 127 134 121 121 129 67 68 72 0 0 0 2 2 1 0 0 0 0 0 0 0 0 0 0 0 0 0 0 0 0 0 0 0 0 0 0 0 0 0 0 0 0 0 0 0 0 0 0 0 0 0 0 0 
0 0 0 0 0 0 0 0 0 0 0 0 0 0 0 0 0 0 0 0 0 0 0 0 0 0 0 0 0 0 0 0 0 1 2 2 0 0 0 0 0 0 12 12 16 59 63 73 109 116 138 124 131 159 115 122 150 111 116 141 107 113 135 103 110 130 100 107 126 99 106 125 99 106 122 94 101 114 90 95 106 86 90 98 82 84 89 82 81 86 90 88 94 132 132 138 72 72 68 40 39 32 48 47 42 50 48 43 51 50 45 51 50 44 51 49 44 50 49 44 51 50 46 43 43 36 106 105 112 116 117 131 104 106 115 123 124 138 108 108 115 114 113 122 112 112 120 103 104 108 100 99 105 103 102 108 111 112 119 115 117 124 121 122 130 120 121 129 103 103 111 94 95 106 87 88 98 80 82 87 92 92 98 101 100 108 82 81 87 30 29 32 0 0 0 1 1 1 0 0 0 0 0 0 0 0 0 0 0 0 0 0 0 0 0 0 0 0 0 0 0 0 0 0 0 0 0 0 0 0 0 0 0 0 
0 0 0 0 0 0 0 0 0 0 0 0 0 0 0 0 0 0 0 0 0 0 0 0 1 1 1 2 2 3 2 1 2 0 0 0 11 11 13 56 59 68 99 105 122 117 123 146 113 119 144 109 116 140 108 114 136 106 114 133 104 111 129 102 110 125 100 107 123 98 105 120 97 104 120 98 104 119 99 106 119 103 108 119 103 106 113 107 108 114 102 102 108 91 91 99 81 82 83 66 66 65 63 61 58 48 48 46 42 41 39 43 42 41 44 45 41 48 49 40 52 51 45 52 52 45 115 115 123 118 118 128 117 117 127 132 132 142 130 130 138 120 121 128 109 111 117 104 106 111 105 105 113 104 104 111 104 105 113 102 104 112 100 101 108 96 98 105 104 105 111 103 104 113 88 89 99 97 97 104 115 114 123 152 152 159 81 80 90 58 57 62 3 3 3 1 1 1 0 0 0 0 0 0 0 0 0 0 0 0 0 0 0 0 0 0 0 0 0 0 0 0 0 0 0 0 0 0 0 0 0 0 0 0 
0 0 0 0 0 0 0 0 0 0 0 0 0 0 0 0 0 0 0 0 0 1 1 1 0 0 0 0 0 0 9 9 10 51 55 62 97 103 120 113 120 139 111 118 138 109 115 135 105 112 129 100 107 123 98 105 116 98 104 114 94 101 110 92 101 109 92 100 110 93 98 111 95 100 113 98 103 118 102 108 122 105 110 122 114 116 125 122 122 130 134 134 142 134 135 142 135 135 140 111 110 116 110 109 114 102 97 90 97 91 72 106 98 73 107 101 89 93 92 94 100 99 104 107 106 113 114 114 120 112 111 124 107 107 118 105 105 117 101 104 115 98 101 109 97 100 108 95 98 106 97 97 107 103 103 113 111 111 121 111 111 121 105 107 116 102 105 113 120 123 133 135 137 150 141 143 157 157 161 174 166 168 183 193 195 209 152 151 164 57 55 63 31 30 32 0 0 0 1 1 1 0 0 0 0 0 0 0 0 0 0 0 0 0 0 0 0 0 0 0 0 0 0 0 0 0 0 0 0 0 0 0 0 0 
0 0 0 0 0 0 0 0 0 0 0 0 1 1 1 2 2 2 1 1 0 0 0 0 6 7 8 47 50 55 86 92 102 103 110 120 99 107 118 96 104 119 96 103 116 94 101 112 97 103 114 102 108 120 106 111 126 111 116 136 114 120 143 116 124 147 119 125 153 120 126 156 123 129 159 133 139 165 133 139 160 126 132 147 118 123 137 117 121 136 116 121 136 110 112 123 107 108 116 102 102 111 106 104 106 129 125 104 130 129 113 129 128 119 124 125 127 116 119 129 116 119 130 117 121 132 116 120 133 117 121 132 116 121 132 121 124 136 125 126 138 123 125 134 123 124 134 128 129 140 136 137 147 136 138 145 137 137 143 138 138 144 121 122 131 112 114 123 123 124 133 150 153 162 117 122 132 127 130 141 135 139 151 152 158 170 178 184 195 91 94 103 41 39 45 5 5 5 1 1 1 0 0 0 0 0 0 0 0 0 0 0 0 0 0 0 0 0 0 0 0 0 0 0 0 0 0 0 0 0 0 0 0 0 
0 0 0 0 0 0 0 0 0 0 0 0 2 2 2 2 2 2 5 4 4 43 44 49 80 83 90 93 97 105 93 98 109 100 105 120 106 112 131 109 115 134 115 121 143 120 126 153 123 130 158 124 133 163 123 131 161 126 132 161 126 131 161 125 131 159 123 129 153 121 127 151 119 126 149 117 122 141 112 118 137 113 118 134 113 117 133 110 114 128 111 114 128 113 117 129 115 119 130 120 125 137 124 130 143 123 130 146 128 137 151 130 138 155 133 140 156 137 144 158 139 146 160 143 148 163 146 151 166 147 152 167 147 152 166 145 149 165 141 145 160 132 136 148 130 131 145 133 135 149 137 140 155 127 131 142 120 124 132 118 122 130 102 106 112 90 96 101 96 101 109 126 126 136 111 110 122 118 115 129 134 129 139 152 145 160 188 179 197 208 194 209 84 79 89 8 8 12 0 0 0 1 1 1 0 0 0 0 0 0 0 0 0 0 0 0 0 0 0 0 0 0 0 0 0 0 0 0 0 0 0 0 0 0 
0 0 0 0 0 0 0 0 0 1 1 1 1 1 1 25 25 26 97 94 102 81 82 92 111 113 127 129 135 157 125 132 158 125 129 157 124 129 158 124 132 163 122 129 157 116 123 149 113 119 142 109 115 134 109 116 133 112 117 134 108 112 127 106 110 125 103 108 121 106 111 124 108 112 126 110 114 127 114 118 130 120 123 136 123 125 139 124 127 142 129 132 147 131 136 151 134 140 154 138 144 158 144 149 163 146 153 165 150 156 168 152 157 171 152 157 170 148 153 168 144 150 167 141 148 163 134 141 155 133 139 154 133 140 156 126 133 149 118 125 140 113 120 131 108 113 122 110 111 121 115 115 127 120 119 130 127 125 135 129 125 136 128 119 131 132 118 132 143 121 139 167 145 163 171 149 166 152 130 148 167 137 158 186 155 175 169 145 161 164 147 157 101 99 106 48 47 55 3 2 3 1 1 1 1 1 1 0 0 0 0 0 0 0 0 0 0 0 0 0 0 0 0 0 0 0 0 0 0 0 0 0 0 0 
0 0 0 0 0 0 0 0 0 2 2 2 0 0 0 67 66 70 108 108 115 65 67 77 103 109 125 101 108 125 96 101 119 47 46 55 64 63 74 107 109 129 99 103 116 105 109 123 108 112 125 108 112 122 106 109 121 103 106 121 110 113 128 115 118 133 117 120 135 118 120 136 120 123 138 122 128 143 128 134 148 135 138 154 139 141 156 138 141 156 136 139 154 135 140 155 136 143 156 138 143 157 137 142 157 133 140 154 131 138 152 132 140 154 131 138 152 128 136 150 128 133 148 129 131 146 129 128 144 132 128 144 143 132 149 151 134 153 150 133 147 149 130 144 151 129 146 162 136 154 169 142 161 175 144 164 170 142 160 147 126 142 127 111 122 111 99 108 89 79 88 73 69 74 84 79 85 95 83 95 131 108 125 157 127 147 161 132 151 149 128 142 160 128 148 93 86 96 26 28 30 0 0 0 1 1 1 0 0 0 0 0 0 0 0 0 0 0 0 0 0 0 0 0 0 0 0 0 0 0 0 0 0 0 
0 0 0 0 0 0 0 0 0 2 2 3 0 0 0 98 97 99 81 82 91 73 76 87 91 95 109 97 101 120 87 90 110 33 31 37 56 57 67 103 109 124 105 110 122 118 120 136 118 121 138 117 121 135 121 124 139 123 124 140 126 128 143 124 128 142 123 126 140 123 126 140 125 130 143 128 134 148 129 133 148 126 131 146 124 129 145 121 127 140 119 125 138 120 127 141 125 132 146 130 132 147 138 136 152 144 139 156 147 139 154 155 142 159 165 145 166 169 144 164 175 145 164 180 147 169 180 145 166 178 140 162 171 135 156 167 135 157 158 132 154 122 102 114 94 79 87 85 71 79 61 50 57 44 37 41 30 27 30 13 13 14 3 3 3 0 0 0 0 0 0 0 0 0 0 0 0 0 0 0 0 0 0 0 0 0 11 9 9 26 21 24 50 40 48 36 32 39 35 36 40 6 6 8 0 0 0 0 0 0 0 0 0 0 0 0 0 0 0 0 0 0 0 0 0 0 0 0 0 0 0 0 0 0 
0 0 0 0 0 0 0 0 0 0 0 0 6 7 6 115 115 119 65 67 78 85 90 100 93 98 115 93 98 118 89 94 112 32 30 38 65 66 78 111 117 135 117 121 137 119 121 136 116 120 134 118 122 137 117 121 136 115 122 136 115 122 136 113 118 133 114 119 134 119 125 138 123 125 140 127 126 142 133 129 146 135 130 146 142 130 148 151 134 153 163 138 159 174 147 167 180 150 171 180 146 167 178 143 163 178 144 165 182 142 165 178 138 164 173 137 162 177 141 170 163 135 166 127 103 125 131 110 134 132 129 159 121 125 157 105 113 142 117 122 152 15 13 19 0 0 0 0 0 0 0 0 0 0 0 0 0 0 0 0 0 0 0 0 0 1 1 1 1 1 1 2 2 2 2 2 2 1 1 1 1 0 0 1 1 1 0 0 0 0 0 0 1 3 4 34 34 40 31 29 35 3 3 5 1 1 1 0 0 0 0 0 0 0 0 0 0 0 0 0 0 0 0 0 0 0 0 0 0 0 0 0 0 0 
0 0 0 0 0 0 1 1 1 0 0 0 36 35 35 122 119 125 61 64 74 85 88 102 94 96 115 91 95 115 85 93 109 29 27 35 67 70 82 112 122 135 112 119 132 113 118 132 115 120 135 120 122 137 124 123 137 128 122 138 135 125 139 138 123 139 145 126 143 157 133 150 167 137 156 168 137 156 173 139 161 179 143 167 183 147 170 167 134 156 152 122 142 132 108 126 134 110 128 141 115 132 170 135 158 163 117 143 165 131 157 163 150 172 148 129 154 148 135 174 125 122 167 60 57 71 106 94 118 122 128 161 125 118 156 108 95 125 100 85 108 61 49 56 3 3 3 5 4 4 2 2 2 2 2 2 2 1 2 1 1 1 0 0 0 0 0 0 0 0 0 0 0 0 0 0 0 0 0 0 0 0 0 0 0 0 1 1 1 1 1 1 16 16 19 39 37 46 16 16 19 0 0 0 1 1 1 0 0 0 0 0 0 0 0 0 0 0 0 0 0 0 0 0 0 0 0 0 0 0 0 0 0 0 
0 0 0 0 0 0 3 3 3 0 0 0 71 70 71 118 115 126 71 74 87 92 94 110 91 95 114 105 101 118 100 89 107 24 24 30 90 85 100 142 127 144 141 122 139 146 121 140 146 118 137 147 118 135 148 119 136 155 123 143 165 132 153 171 138 164 177 141 170 166 131 157 156 124 145 150 119 140 137 109 130 113 89 106 65 53 60 19 18 19 2 3 4 0 0 0 0 0 0 5 6 5 51 47 56 88 78 97 90 93 105 120 110 122 130 112 130 156 141 172 130 119 156 126 94 115 162 121 152 84 74 98 51 42 53 23 19 25 1 2 1 29 29 28 0 0 0 0 0 0 0 0 0 0 0 0 0 0 0 0 0 0 0 0 0 0 0 0 0 0 0 0 0 0 0 0 0 0 0 0 0 0 0 0 0 0 0 0 0 0 0 0 0 0 0 6 6 9 3 3 4 0 0 0 0 0 0 0 0 0 0 0 0 0 0 0 0 0 0 0 0 0 0 0 0 0 0 0 0 0 0 0 0 0 
0 0 0 0 0 0 3 3 3 0 0 0 108 105 112 67 61 76 38 39 45 100 88 106 127 113 139 137 114 139 117 89 107 19 22 25 102 91 104 159 127 147 156 127 149 160 132 158 178 148 179 195 158 197 208 166 211 206 162 211 196 149 197 172 130 168 153 114 144 134 98 121 103 75 91 63 46 56 20 15 18 0 0 0 0 0 0 0 0 0 1 1 0 2 2 2 3 2 3 1 0 1 0 0 0 0 0 0 7 8 6 0 1 0 0 1 2 31 26 31 18 16 18 43 30 34 55 39 47 0 0 0 0 0 0 0 0 0 3 2 3 0 0 0 0 0 0 0 0 0 0 0 0 0 0 0 0 0 0 0 0 0 0 0 0 0 0 0 0 0 0 0 0 0 0 0 0 0 0 0 0 0 0 0 0 0 0 0 0 0 0 0 1 1 1 0 0 0 0 0 0 0 0 0 0 0 0 0 0 0 0 0 0 0 0 0 0 0 0 0 0 0 0 0 0 0 0 0 0 0 0 0 0 0 
0 0 0 0 0 0 0 0 0 10 10 9 107 103 115 130 106 132 186 153 184 206 164 208 198 153 203 212 170 214 145 131 152 12 14 20 161 140 170 234 195 240 234 188 250 247 194 255 238 182 248 209 156 212 174 129 170 149 109 136 129 93 115 106 77 94 68 50 62 28 23 26 1 2 1 0 0 0 0 0 0 1 1 1 2 2 2 1 1 1 0 0 0 0 0 0 0 0 0 0 0 0 2 2 2 2 2 2 0 0 0 0 0 0 0 0 0 0 0 0 0 0 0 0 0 0 0 0 0 0 1 1 1 1 2 1 1 1 0 0 0 1 1 1 0 0 0 0 0 0 0 0 0 0 0 0 0 0 0 0 0 0 0 0 0 0 0 0 0 0 0 0 0 0 0 0 0 0 0 0 0 0 0 0 0 0 0 0 0 0 0 0 0 0 0 0 0 0 0 0 0 0 0 0 0 0 0 0 0 0 0 0 0 0 0 0 0 0 0 0 0 0 0 0 0 0 0 0 0 0 0 0 0 0 
0 0 0 1 1 1 0 0 0 31 30 30 156 125 148 159 132 161 160 137 175 247 206 251 248 207 249 245 197 249 152 129 161 19 24 24 226 185 237 231 177 240 199 150 197 162 118 151 115 82 101 113 84 99 104 76 91 74 56 66 36 27 32 6 5 5 0 0 0 0 0 0 1 1 1 2 2 2 1 1 1 0 0 0 0 0 0 0 0 0 0 0 0 0 0 0 0 0 0 0 0 0 0 0 0 0 0 0 0 1 1 0 0 0 0 0 0 1 1 1 1 1 1 2 1 1 2 2 2 0 0 0 0 0 0 0 0 0 0 0 0 0 0 0 0 0 0 0 0 0 0 0 0 0 0 0 0 0 0 0 0 0 0 0 0 0 0 0 0 0 0 0 0 0 0 0 0 0 0 0 0 0 0 0 0 0 0 0 0 0 0 0 0 0 0 0 0 0 0 0 0 0 0 0 0 0 0 0 0 0 0 0 0 0 0 0 0 0 0 0 0 0 0 0 0 0 0 0 0 0 0 0 0 0 
0 0 0 0 0 0 2 2 2 10 8 9 21 15 17 65 61 66 125 118 139 158 138 172 210 181 216 244 191 245 197 154 201 107 79 95 177 135 166 92 71 86 106 79 92 116 90 105 114 91 107 83 70 80 21 17 19 0 0 0 0 0 0 0 0 0 2 2 2 1 1 1 0 0 0 0 0 0 0 0 0 0 0 0 0 0 0 0 0 0 0 0 0 0 0 0 0 0 0 0 0 0 0 0 0 0 0 0 0 0 0 0 0 0 0 0 0 0 0 0 0 0 0 0 0 0 0 0 0 0 0 0 0 0 0 0 0 0 0 0 0 0 0 0 0 0 0 0 0 0 0 0 0 0 0 0 0 0 0 0 0 0 0 0 0 0 0 0 0 0 0 0 0 0 0 0 0 0 0 0 0 0 0 0 0 0 0 0 0 0 0 0 0 0 0 0 0 0 0 0 0 0 0 0 0 0 0 0 0 0 0 0 0 0 0 0 0 0 0 0 0 0 0 0 0 0 0 0 0 0 0 0 0 0 
0 0 0 0 0 0 2 3 2 1 1 1 0 1 0 2 1 0 81 75 82 84 72 99 88 78 103 114 93 130 183 144 180 113 79 95 102 80 95 108 85 103 91 69 86 47 40 47 15 13 15 0 0 0 0 0 0 2 2 2 1 1 1 0 0 0 0 0 0 0 0 0 0 0 0 0 0 0 0 0 0 0 0 0 0 0 0 0 0 0 0 0 0 0 0 0 0 0 0 0 0 0 0 0 0 0 0 0 0 0 0 0 0 0 0 0 0 0 0 0 0 0 0 0 0 0 0 0 0 0 0 0 0 0 0 0 0 0 0 0 0 0 0 0 0 0 0 0 0 0 0 0 0 0 0 0 0 0 0 0 0 0 0 0 0 0 0 0 0 0 0 0 0 0 0 0 0 0 0 0 0 0 0 0 0 0 0 0 0 0 0 0 0 0 0 0 0 0 0 0 0 0 0 0 0 0 0 0 0 0 0 0 0 0 0 0 0 0 0 0 0 0 0 0 0 0 0 0 0 0 0 0 0 0 
0 0 0 0 0 0 0 0 0 0 0 0 1 0 1 0 0 1 0 0 0 11 7 7 37 32 35 36 30 37 3 2 1 0 0 0 0 0 0 0 0 0 0 0 0 0 0 0 0 0 0 2 2 2 1 1 1 0 0 0 0 0 0 0 0 0 0 0 0 0 0 0 0 0 0 0 0 0 0 0 0 0 0 0 0 0 0 0 0 0 0 0 0 0 0 0 0 0 0 0 0 0 0 0 0 0 0 0 0 0 0 0 0 0 0 0 0 0 0 0 0 0 0 0 0 0 0 0 0 0 0 0 0 0 0 0 0 0 0 0 0 0 0 0 0 0 0 0 0 0 0 0 0 0 0 0 0 0 0 0 0 0 0 0 0 0 0 0 0 0 0 0 0 0 0 0 0 0 0 0 0 0 0 0 0 0 0 0 0 0 0 0 0 0 0 0 0 0 0 0 0 0 0 0 0 0 0 0 0 0 0 0 0 0 0 0 0 0 0 0 0 0 0 0 0 0 0 0 0 0 0 0 0 0 
0 0 0 0 0 0 0 0 0 0 0 0 0 0 0 0 0 0 3 3 3 1 1 1 0 0 0 0 0 0 0 0 0 2 2 2 3 2 3 3 2 3 3 2 3 2 2 2 0 0 0 0 0 0 0 0 0 0 0 0 0 0 0 0 0 0 0 0 0 0 0 0 0 0 0 0 0 0 0 0 0 0 0 0 0 0 0 0 0 0 0 0 0 0 0 0 0 0 0 0 0 0 0 0 0 0 0 0 0 0 0 0 0 0 0 0 0 0 0 0 0 0 0 0 0 0 0 0 0 0 0 0 0 0 0 0 0 0 0 0 0 0 0 0 0 0 0 0 0 0 0 0 0 0 0 0 0 0 0 0 0 0 0 0 0 0 0 0 0 0 0 0 0 0 0 0 0 0 0 0 0 0 0 0 0 0 0 0 0 0 0 0 0 0 0 0 0 0 0 0 0 0 0 0 0 0 0 0 0 0 0 0 0 0 0 0 0 0 0 0 0 0 0 0 0 0 0 0 0 0 0 0 0 0 
0 0 0 0 0 0 0 0 0 0 0 0 0 0 0 0 0 0 0 0 0 1 0 0 1 1 1 1 1 1 0 0 0 0 0 0 0 0 0 0 0 0 0 0 0 0 0 0 0 0 0 0 0 0 0 0 0 0 0 0 0 0 0 0 0 0 0 0 0 0 0 0 0 0 0 0 0 0 0 0 0 0 0 0 0 0 0 0 0 0 0 0 0 0 0 0 0 0 0 0 0 0 0 0 0 0 0 0 0 0 0 0 0 0 0 0 0 0 0 0 0 0 0 0 0 0 0 0 0 0 0 0 0 0 0 0 0 0 0 0 0 0 0 0 0 0 0 0 0 0 0 0 0 0 0 0 0 0 0 0 0 0 0 0 0 0 0 0 0 0 0 0 0 0 0 0 0 0 0 0 0 0 0 0 0 0 0 0 0 0 0 0 0 0 0 0 0 0 0 0 0 0 0 0 0 0 0 0 0 0 0 0 0 0 0 0 0 0 0 0 0 0 0 0 0 0 0 0 0 0 0 0 0 0 
0 0 0 0 0 0 0 0 0 0 0 0 0 0 0 0 0 0 0 0 0 0 0 0 0 0 0 0 0 0 0 0 0 0 0 0 0 0 0 0 0 0 0 0 0 0 0 0 0 0 0 0 0 0 0 0 0 0 0 0 0 0 0 0 0 0 0 0 0 0 0 0 0 0 0 0 0 0 0 0 0 0 0 0 0 0 0 0 0 0 0 0 0 0 0 0 0 0 0 0 0 0 0 0 0 0 0 0 0 0 0 0 0 0 0 0 0 0 0 0 0 0 0 0 0 0 0 0 0 0 0 0 0 0 0 0 0 0 0 0 0 0 0 0 0 0 0 0 0 0 0 0 0 0 0 0 0 0 0 0 0 0 0 0 0 0 0 0 0 0 0 0 0 0 0 0 0 0 0 0 0 0 0 0 0 0 0 0 0 0 0 0 0 0 0 0 0 0 0 0 0 0 0 0 0 0 0 0 0 0 0 0 0 0 0 0 0 0 0 0 0 0 0 0 0 0 0 0 0 0 0 0 0 0 
0 0 0 0 0 0 0 0 0 0 0 0 0 0 0 0 0 0 0 0 0 0 0 0 0 0 0 0 0 0 0 0 0 0 0 0 0 0 0 0 0 0 0 0 0 0 0 0 0 0 0 0 0 0 0 0 0 0 0 0 0 0 0 0 0 0 0 0 0 0 0 0 0 0 0 0 0 0 0 0 0 0 0 0 0 0 0 0 0 0 0 0 0 0 0 0 0 0 0 0 0 0 0 0 0 0 0 0 0 0 0 0 0 0 0 0 0 0 0 0 0 0 0 0 0 0 0 0 0 0 0 0 0 0 0 0 0 0 0 0 0 0 0 0 0 0 0 0 0 0 0 0 0 0 0 0 0 0 0 0 0 0 0 0 0 0 0 0 0 0 0 0 0 0 0 0 0 0 0 0 0 0 0 0 0 0 0 0 0 0 0 0 0 0 0 0 0 0 0 0 0 0 0 0 0 0 0 0 0 0 0 0 0 0 0 0 0 0 0 0 0 0 0 0 0 0 0 0 0 0 0 0 0 0 
0 0 0 0 0 0 0 0 0 0 0 0 0 0 0 0 0 0 0 0 0 0 0 0 0 0 0 0 0 0 0 0 0 0 0 0 0 0 0 0 0 0 0 0 0 0 0 0 0 0 0 0 0 0 0 0 0 0 0 0 0 0 0 0 0 0 0 0 0 0 0 0 0 0 0 0 0 0 0 0 0 0 0 0 0 0 0 0 0 0 0 0 0 0 0 0 0 0 0 0 0 0 0 0 0 0 0 0 0 0 0 0 0 0 0 0 0 0 0 0 0 0 0 0 0 0 0 0 0 0 0 0 0 0 0 0 0 0 0 0 0 0 0 0 0 0 0 0 0 0 0 0 0 0 0 0 0 0 0 0 0 0 0 0 0 0 0 0 0 0 0 0 0 0 0 0 0 0 0 0 0 0 0 0 0 0 0 0 0 0 0 0 0 0 0 0 0 0 0 0 0 0 0 0 0 0 0 0 0 0 0 0 0 0 0 0 0 0 0 0 0 0 0 0 0 0 0 0 0 0 0 0 0 0 
