P3
87 70
255
0 0 0 0 0 0 0 0 0 0 0 0 0 0 0 0 0 0 0 0 0 0 0 0 0 0 0 0 0 0 0 0 0 0 0 0 0 0 0 0 0 0 0 0 0 0 0 0 0 0 0 0 0 0 0 0 0 0 0 0 0 0 0 0 0 0 0 0 0 0 0 0 0 0 0 0 0 0 0 0 0 0 0 0 0 0 0 0 0 0 0 0 0 0 0 0 0 0 0 0 0 0 0 0 0 0 0 0 0 0 0 0 0 0 0 0 0 0 0 0 0 0 0 0 0 0 0 0 0 0 0 0 0 0 0 0 0 0 0 0 0 0 0 0 0 0 0 0 0 0 0 0 0 0 0 0 0 0 0 0 0 0 0 0 0 0 0 0 0 0 0 0 0 0 0 0 0 0 0 0 0 0 0 0 0 0 0 0 0 0 0 0 0 0 0 0 0 0 0 0 0 0 0 0 0 0 0 0 0 0 0 0 0 0 0 0 0 0 0 0 0 0 0 0 0 0 0 0 0 0 0 0 0 0 0 0 0 0 0 0 0 0 0 0 0 0 0 0 0 0 0 0 0 0 0 0 0 0 0 0 0 
0 0 0 0 0 0 0 0 0 0 0 0 0 0 0 0 0 0 0 0 0 0 0 0 0 0 0 0 0 0 0 0 0 0 0 0 0 0 0 0 0 0 0 0 0 0 0 0 0 0 0 0 0 0 0 0 0 0 0 0 0 0 0 0 0 0 0 0 0 0 0 0 0 0 0 0 0 0 0 0 0 0 0 0 0 0 0 0 0 0 0 0 0 0 0 0 0 0 0 0 0 0 0 0 0 0 0 0 0 0 0 0 0 0 0 0 0 0 0 0 0 0 0 0 0 0 0 0 0 0 0 0 0 0 0 0 0 0 0 0 0 0 0 0 0 0 0 0 0 0 0 0 0 0 0 0 0 0 0 0 0 0 0 0 0 0 0 0 0 0 0 0 0 0 0 0 0 0 0 0 0 0 0 0 0 0 0 0 0 0 0 0 0 0 0 0 0 0 0 0 0 0 0 0 0 0 0 0 0 0 0 0 0 0 0 0 0 0 0 0 0 0 0 0 0 0 0 0 0 0 0 0 0 0 0 0 0 0 0 0 0 0 0 0 0 0 0 0 0 0 0 0 0 0 0 0 0 0 0 0 0 
0 0 0 0 0 0 0 0 0 0 0 0 0 0 0 0 0 0 0 0 0 0 0 0 0 0 0 0 0 0 0 0 0 0 0 0 0 0 0 0 0 0 0 0 0 0 0 0 0 0 0 0 0 0 0 0 0 0 0 0 0 0 0 0 0 0 0 0 0 0 0 0 0 0 0 0 0 0 0 0 0 0 0 0 0 0 0 0 0 0 0 0 0 0 0 0 0 0 0 0 0 0 0 0 0 0 0 0 0 0 0 0 0 0 0 0 0 0 0 0 0 0 0 0 0 0 0 0 0 0 0 0 0 0 0 0 0 0 0 0 0 0 0 0 0 0 0 0 0 0 0 0 0 0 0 0 0 0 0 0 0 0 0 0 0 0 0 0 0 0 0 0 0 0 0 0 0 0 0 0 0 0 0 0 0 0 0 0 0 0 0 0 0 0 0 0 0 0 0 0 0 0 0 0 0 0 0 0 0 0 0 0 0 0 0 0 0 0 0 0 0 0 0 0 0 0 0 0 0 0 0 0 0 0 0 0 0 0 0 0 0 0 0 0 0 0 0 0 0 0 0 0 0 0 0 0 0 0 0 0 0 
0 0 0 0 0 0 0 0 0 0 0 0 0 0 0 0 0 0 0 0 0 0 0 0 0 0 0 0 0 0 0 0 0 0 0 0 0 0 0 0 0 0 0 0 0 0 0 0 0 0 0 0 0 0 0 0 0 0 0 0 0 0 0 0 0 0 0 0 0 0 0 0 0 0 0 0 0 0 0 0 0 0 0 0 0 0 0 0 0 0 0 0 0 0 0 0 0 0 0 0 0 0 0 0 0 0 0 0 0 0 0 0 0 0 0 0 0 0 0 0 0 0 0 0 0 0 0 0 0 0 0 0 0 0 0 0 0 0 0 0 0 0 0 0 0 0 0 0 0 0 0 0 0 0 0 0 0 0 0 0 0 0 0 0 0 0 0 0 0 0 0 0 0 0 0 0 0 0 0 0 0 0 0 0 0 0 0 0 0 0 0 0 0 0 0 0 0 0 0 0 0 0 0 0 0 0 0 0 0 0 0 0 0 0 0 0 0 0 0 0 0 0 0 0 0 0 0 0 0 0 0 0 0 0 0 0 0 0 0 0 0 0 0 0 0 0 0 0 0 0 0 0 0 0 0 0 0 0 0 0 0 
0 0 0 0 0 0 0 0 0 0 0 0 0 0 0 0 0 0 0 0 0 0 0 0 0 0 0 0 0 0 0 0 0 0 0 0 0 0 0 0 0 0 0 0 0 0 0 0 0 0 0 0 0 0 0 0 0 0 0 0 0 0 0 0 0 0 0 0 0 0 0 0 0 0 0 0 0 0 0 0 0 0 0 0 0 0 0 0 0 0 0 0 0 0 0 0 0 0 0 0 0 0 0 0 0 0 0 0 0 0 0 0 0 0 0 0 0 0 0 0 0 0 0 0 0 0 0 0 0 0 0 0 0 0 0 0 0 0 0 0 0 0 0 0 0 0 0 0 0 0 0 0 0 0 0 0 0 0 0 0 0 0 0 0 0 0 0 0 0 0 0 0 0 0 0 0 0 0 0 0 0 0 0 0 0 0 0 0 0 0 0 0 0 0 0 0 0 0 0 0 0 0 0 0 0 0 0 0 0 0 0 0 0 0 0 0 0 0 0 0 0 0 0 0 0 0 0 0 0 0 0 0 0 0 0 0 0 0 0 0 0 0 0 0 0 0 0 0 0 0 0 0 0 0 0 0 0 0 0 0 0 
0 0 0 0 0 0 0 0 0 0 0 0 0 0 0 0 0 0 0 0 0 0 0 0 0 0 0 0 0 0 0 0 0 0 0 0 0 0 0 0 0 0 0 0 0 0 0 0 0 0 0 0 0 0 0 0 0 0 0 0 0 0 0 0 0 0 0 0 0 0 0 0 0 0 0 0 0 0 0 0 0 0 0 0 0 0 0 0 0 0 0 0 0 0 0 0 0 0 0 0 0 0 0 0 0 0 0 0 0 0 0 0 0 0 0 0 0 0 0 0 0 0 0 0 0 0 0 0 0 0 0 0 0 0 0 0 0 0 0 0 0 0 0 0 0 0 0 0 0 0 0 0 0 0 0 0 0 0 0 0 0 0 0 0 0 0 0 0 0 0 0 0 0 0 0 0 0 0 0 0 0 0 0 0 0 0 0 0 0 0 0 0 0 0 0 0 0 0 0 0 0 0 0 0 0 0 0 0 0 0 0 0 0 0 0 0 0 0 0 0 0 0 0 0 0 0 0 0 0 0 0 0 0 0 0 0 0 0 0 0 0 0 0 0 0 0 0 0 0 0 0 0 0 0 0 0 0 0 0 0 0 
0 0 0 0 0 0 0 0 0 0 0 0 0 0 0 0 0 0 0 0 0 0 0 0 0 0 0 0 0 0 0 0 0 0 0 0 0 0 0 0 0 0 0 0 0 0 0 0 0 0 0 0 0 0 0 0 0 0 0 0 0 0 0 0 0 0 0 0 0 0 0 0 0 0 0 0 0 0 0 0 0 0 0 0 0 0 0 0 0 0 0 0 0 0 0 0 0 0 0 0 0 0 0 0 0 0 0 0 0 0 0 0 0 0 0 0 0 0 0 0 0 0 0 0 0 0 0 0 0 0 0 0 0 0 0 0 0 0 0 0 0 0 0 0 0 0 0 0 0 0 0 0 0 0 0 0 0 0 0 0 0 0 0 0 0 0 0 0 0 0 0 0 0 0 0 0 0 0 0 0 0 0 0 0 0 0 0 0 0 0 0 0 0 0 0 0 0 0 0 0 0 0 0 0 0 0 0 0 0 0 0 0 0 0 0 0 0 0 0 0 0 0 0 0 0 0 0 0 0 0 0 0 0 0 0 0 0 0 0 0 0 0 0 0 0 0 0 0 0 0 0 0 0 0 0 0 0 0 0 0 0 
0 0 0 0 0 0 0 0 0 0 0 0 0 0 0 0 0 0 0 0 0 0 0 0 0 0 0 0 0 0 0 0 0 0 0 0 0 0 0 0 0 0 0 0 0 0 0 0 0 0 0 0 0 0 0 0 0 0 0 0 0 0 0 0 0 0 0 0 0 0 0 0 0 0 0 0 0 0 0 0 0 0 0 0 0 0 0 0 0 0 0 0 0 0 0 0 0 0 0 0 0 0 1 1 1 0 0 0 18 18 18 3 3 3 0 0 0 0 0 0 0 0 0 0 0 0 0 0 0 0 0 0 0 0 0 0 0 0 0 0 0 0 0 0 0 0 0 0 0 0 0 0 0 0 0 0 0 0 0 0 0 0 0 0 0 0 0 0 0 0 0 0 0 0 0 0 0 0 0 0 0 0 0 0 0 0 0 0 0 0 0 0 0 0 0 0 0 0 0 0 0 0 0 0 0 0 0 0 0 0 0 0 0 0 0 0 0 0 0 0 0 0 0 0 0 0 0 0 0 0 0 0 0 0 0 0 0 0 0 0 0 0 0 0 0 0 0 0 0 0 0 0 0 0 0 0 0 0 0 0 0 
0 0 0 0 0 0 0 0 0 0 0 0 0 0 0 0 0 0 0 0 0 0 0 0 0 0 0 0 0 0 0 0 0 0 0 0 0 0 0 0 0 0 0 0 0 0 0 0 0 0 0 0 0 0 0 0 0 0 0 0 0 0 0 0 0 0 0 0 0 0 0 0 0 0 0 0 0 0 0 0 0 0 0 0 0 0 0 0 0 0 0 0 0 0 0 0 0 0 0 0 0 0 1 1 1 1 1 1 7 7 7 3 3 3 0 0 0 0 0 0 0 0 0 0 0 0 0 0 0 0 0 0 0 0 0 0 0 0 0 0 0 0 0 0 0 0 0 0 0 0 0 0 0 0 0 0 0 0 0 0 0 0 0 0 0 0 0 0 0 0 0 0 0 0 0 0 0 0 0 0 0 0 0 0 0 0 0 0 0 0 0 0 0 0 0 0 0 0 0 0 0 0 0 0 0 0 0 0 0 0 0 0 0 0 0 0 0 0 0 0 0 0 0 0 0 0 0 0 0 0 0 0 0 0 0 0 0 0 0 0 0 0 0 0 0 0 0 0 0 0 0 0 0 0 0 0 0 0 0 0 0 
0 0 0 0 0 0 0 0 0 0 0 0 0 0 0 0 0 0 0 0 0 0 0 0 0 0 0 0 0 0 0 0 0 0 0 0 0 0 0 0 0 0 0 0 0 0 0 0 0 0 0 0 0 0 0 0 0 0 0 0 0 0 0 0 0 0 0 0 0 0 0 0 0 0 0 0 0 0 0 0 0 0 0 0 0 0 0 0 0 0 0 0 0 0 0 0 0 0 0 0 0 0 0 0 0 0 0 0 1 1 1 4 4 4 0 0 0 1 1 1 1 1 1 0 0 0 0 0 0 0 0 0 0 0 0 0 0 0 0 0 0 0 0 0 0 0 0 0 0 0 0 0 0 0 0 0 0 0 0 0 0 0 0 0 0 0 0 0 0 0 0 0 0 0 0 0 0 0 0 0 0 0 0 0 0 0 0 0 0 0 0 0 0 0 0 0 0 0 0 0 0 0 0 0 0 0 0 0 0 0 0 0 0 0 0 0 0 0 0 0 0 0 0 0 0 0 0 0 0 0 0 0 0 0 0 0 0 0 0 0 0 0 0 0 0 0 0 0 0 0 0 0 0 0 0 0 0 0 0 0 0 
0 0 0 0 0 0 0 0 0 0 0 0 0 0 0 0 0 0 0 0 0 0 0 0 0 0 0 0 0 0 0 0 0 0 0 0 0 0 0 0 0 0 0 0 0 0 0 0 0 0 0 0 0 0 0 0 0 0 0 0 0 0 0 0 0 0 0 0 0 0 0 0 0 0 0 0 0 0 0 0 0 0 0 0 0 0 0 0 0 0 0 0 0 0 0 0 0 0 0 0 0 0 0 0 0 0 0 0 0 0 0 5 5 5 1 1 1 0 0 0 1 1 0 0 0 0 0 0 1 0 0 0 0 0 0 0 0 0 0 0 0 0 0 0 0 0 0 0 0 0 0 0 0 0 0 0 0 0 0 0 0 0 0 0 0 0 0 0 0 0 0 0 0 0 0 0 0 0 0 0 0 0 0 0 0 0 0 0 0 0 0 0 0 0 0 0 0 0 0 0 0 0 0 0 0 0 0 0 0 0 0 0 0 0 0 0 0 0 0 0 0 0 0 0 0 0 0 0 0 0 0 0 0 0 0 0 0 0 0 0 0 0 0 0 0 0 0 0 0 0 0 0 0 0 0 0 0 0 0 0 0 
0 0 0 0 0 0 0 0 0 0 0 0 0 0 0 0 0 0 0 0 0 0 0 0 0 0 0 0 0 0 0 0 0 0 0 0 0 0 0 0 0 0 0 0 0 0 0 0 0 0 0 0 0 0 0 0 0 0 0 0 0 0 0 0 0 0 0 0 0 0 0 0 0 0 0 0 0 0 0 0 0 0 0 0 0 0 0 0 0 0 0 0 0 0 0 0 0 0 0 0 0 0 0 0 0 1 1 1 0 0 0 1 1 0 3 3 3 19 19 20 20 20 21 4 4 6 1 1 1 1 1 2 0 0 1 0 0 0 0 0 0 0 0 0 0 0 0 0 0 0 0 0 0 0 0 0 0 0 0 0 0 0 0 0 0 0 0 0 0 0 0 0 0 0 0 0 0 0 0 0 0 0 0 0 0 0 0 0 0 0 0 0 0 0 0 0 0 0 0 0 0 0 0 0 0 0 0 0 0 0 0 0 0 0 0 0 0 0 0 0 0 0 0 0 0 0 0 0 0 0 0 0 0 0 0 0 0 0 0 0 0 0 0 0 0 0 0 0 0 0 0 0 0 0 0 0 0 0 0 0 0 
0 0 0 0 0 0 0 0 0 0 0 0 0 0 0 0 0 0 0 0 0 0 0 0 0 0 0 0 0 0 0 0 0 0 0 0 0 0 0 0 0 0 0 0 0 0 0 0 0 0 0 0 0 0 0 0 0 0 0 0 0 0 0 0 0 0 0 0 0 0 0 0 0 0 0 0 0 0 0 0 0 0 0 0 0 0 0 0 0 0 0 0 0 0 0 0 0 0 0 1 1 1 1 1 1 0 0 0 2 2 2 19 19 18 33 33 34 36 35 38 25 25 27 48 46 55 38 35 50 0 0 0 1 1 1 0 0 0 0 0 0 0 0 0 0 0 0 0 0 0 0 0 0 0 0 0 0 0 0 0 0 0 0 0 0 0 0 0 0 0 0 0 0 0 0 0 0 0 0 0 0 0 0 0 0 0 0 0 0 0 0 0 0 0 0 0 0 0 0 0 0 0 0 0 0 0 0 0 0 0 0 0 0 0 0 0 0 0 0 0 0 0 0 0 0 0 0 0 0 0 0 0 0 0 0 0 0 0 0 0 0 0 0 0 0 0 0 0 0 0 0 0 0 0 0 0 0 0 0 0 0 
0 0 0 0 0 0 0 0 0 0 0 0 0 0 0 0 0 0 0 0 0 0 0 0 0 0 0 0 0 0 0 0 0 0 0 0 0 0 0 0 0 0 0 0 0 0 0 0 0 0 0 0 0 0 0 0 0 0 0 0 0 0 0 0 0 0 0 0 0 0 0 0 0 0 0 0 0 0 0 0 0 0 0 0 0 0 0 0 0 0 0 0 0 1 1 1 1 1 1 0 0 0 1 1 1 18 18 18 41 41 41 34 34 34 54 53 59 25 24 30 15 14 22 17 16 25 56 51 68 38 36 49 0 0 0 1 1 2 0 0 1 0 0 0 0 0 0 0 0 0 0 0 0 0 0 0 0 0 0 0 0 0 0 0 0 0 0 0 0 0 0 0 0 0 0 0 0 0 0 0 0 0 0 0 0 0 0 0 0 0 0 0 0 0 0 0 0 0 0 0 0 0 0 0 0 0 0 0 0 0 0 0 0 0 0 0 0 0 0 0 0 0 0 0 0 0 0 0 0 0 0 0 0 0 0 0 0 0 0 0 0 0 0 0 0 0 0 0 0 0 0 0 0 0 0 0 0 0 0 0 0 
0 0 0 0 0 0 0 0 0 0 0 0 0 0 0 0 0 0 0 0 0 0 0 0 0 0 0 0 0 0 0 0 0 0 0 0 0 0 0 0 0 0 0 0 0 0 0 0 0 0 0 0 0 0 0 0 0 0 0 0 0 0 0 0 0 0 0 0 0 0 0 0 0 0 0 0 0 0 0 0 0 0 0 0 0 0 0 1 1 1 2 2 2 0 0 0 1 1 0 18 18 18 39 39 41 39 39 39 20 19 19 3 1 2 27 26 31 43 39 40 59 57 47 68 67 54 27 25 32 39 39 48 2 3 5 2 1 1 3 3 3 1 1 1 2 2 2 0 0 0 0 0 0 0 0 0 0 0 0 0 0 0 0 0 0 0 0 0 0 0 0 0 0 0 0 0 0 0 0 0 0 0 0 0 0 0 0 0 0 0 0 0 0 0 0 0 0 0 0 0 0 0 0 0 0 0 0 0 0 0 0 0 0 0 0 0 0 0 0 0 0 0 0 0 0 0 0 0 0 0 0 0 0 0 0 0 0 0 0 0 0 0 0 0 0 0 0 0 0 0 0 0 0 0 0 0 0 0 0 0 0 
0 0 0 0 0 0 0 0 0 0 0 0 0 0 0 0 0 0 0 0 0 0 0 0 0 0 0 0 0 0 0 0 0 0 0 0 0 0 0 0 0 0 0 0 0 0 0 0 0 0 0 0 0 0 0 0 0 0 0 0 0 0 0 0 0 0 0 0 0 0 0 0 0 0 0 0 0 0 0 0 0 1 1 1 0 0 0 0 0 0 2 2 2 16 16 16 40 40 41 40 40 41 18 18 17 2 2 3 0 1 0 4 5 11 46 43 39 148 139 98 161 152 110 183 176 130 67 65 62 40 35 38 50 45 44 15 14 15 12 13 13 13 13 13 17 17 17 3 3 3 0 0 0 0 0 0 0 0 0 0 0 0 0 0 0 0 0 0 0 0 0 0 0 0 0 0 0 0 0 0 0 0 0 0 0 0 0 0 0 0 0 0 0 0 0 0 0 0 0 0 0 0 0 0 0 0 0 0 0 0 0 0 0 0 0 0 0 0 0 0 0 0 0 0 0 0 0 0 0 0 0 0 0 0 0 0 0 0 0 0 0 0 0 0 0 0 0 0 0 0 0 0 0 0 0 0 0 0 0 0 0 
0 0 0 0 0 0 0 0 0 0 0 0 0 0 0 0 0 0 0 0 0 0 0 0 0 0 0 0 0 0 0 0 0 0 0 0 0 0 0 0 0 0 0 0 0 0 0 0 0 0 0 0 0 0 0 0 0 0 0 0 0 0 0 0 0 0 0 0 0 0 0 0 0 0 0 1 1 1 1 1 1 0 0 0 2 2 2 15 15 16 21 21 21 29 29 29 22 22 23 1 1 2 13 12 11 18 15 13 13 13 11 21 20 32 91 83 67 161 150 108 165 157 117 188 178 132 165 157 122 31 26 39 43 38 37 52 46 45 28 26 32 27 27 30 19 19 19 5 6 4 1 2 2 1 3 2 1 2 2 1 0 0 0 0 0 0 0 0 0 0 0 0 0 0 0 0 0 0 0 0 0 0 0 0 0 0 0 0 0 0 0 0 0 0 0 0 0 0 0 0 0 0 0 0 0 0 0 0 0 0 0 0 0 0 0 0 0 0 0 0 0 0 0 0 0 0 0 0 0 0 0 0 0 0 0 0 0 0 0 0 0 0 0 0 0 0 0 0 0 0 0 0 0 0 0 0 0 0 0 0 0 
0 0 0 0 0 0 0 0 0 0 0 0 0 0 0 0 0 0 0 0 0 0 0 0 0 0 0 0 0 0 0 0 0 0 0 0 0 0 0 0 0 0 0 0 0 0 0 0 0 0 0 0 0 0 0 0 0 0 0 0 0 0 0 0 0 0 0 0 0 1 1 1 1 1 1 0 0 0 1 1 1 17 17 18 44 44 46 40 40 42 12 12 13 4 4 4 0 0 0 0 0 0 12 11 12 42 37 35 33 27 34 32 27 35 134 128 90 171 161 122 181 172 132 191 181 140 207 199 153 158 151 118 159 149 118 194 188 142 92 86 80 19 19 27 44 43 45 18 17 20 0 0 0 1 1 1 2 2 2 0 0 0 0 0 0 0 0 0 0 0 0 0 0 0 0 0 0 0 0 0 0 0 0 0 0 0 0 0 0 0 0 0 0 0 0 0 0 0 0 0 0 0 0 0 0 0 0 0 0 0 0 0 0 0 0 0 0 0 0 0 0 0 0 0 0 0 0 0 0 0 0 0 0 0 0 0 0 0 0 0 0 0 0 0 0 0 0 0 0 0 0 0 0 0 0 0 0 0 0 0 0 
0 0 0 0 0 0 0 0 0 0 0 0 0 0 0 0 0 0 0 0 0 0 0 0 0 0 0 0 0 0 0 0 0 0 0 0 0 0 0 0 0 0 0 0 0 0 0 0 0 0 0 0 0 0 0 0 0 0 0 0 0 0 0 1 1 1 2 2 2 0 0 0 0 0 0 17 17 19 43 43 43 43 43 44 23 23 24 5 5 6 1 1 1 1 1 1 1 1 1 4 4 2 17 18 22 74 68 52 102 96 63 120 116 79 158 150 110 172 163 123 185 176 135 201 192 150 210 200 157 222 209 163 229 216 172 228 217 167 187 176 136 30 27 42 29 28 39 25 26 36 13 13 19 28 24 24 3 3 3 0 1 2 0 0 0 0 0 0 0 0 0 0 0 0 0 0 0 0 0 0 0 0 0 0 0 0 0 0 0 0 0 0 0 0 0 0 0 0 0 0 0 0 0 0 0 0 0 0 0 0 0 0 0 0 0 0 0 0 0 0 0 0 0 0 0 0 0 0 0 0 0 0 0 0 0 0 0 0 0 0 0 0 0 0 0 0 0 0 0 0 0 0 0 0 0 0 0 0 0 0 0 
0 0 0 0 0 0 0 0 0 0 0 0 0 0 0 0 0 0 0 0 0 0 0 0 0 0 0 0 0 0 0 0 0 0 0 0 0 0 0 0 0 0 0 0 0 0 0 0 0 0 0 0 0 0 0 0 0 1 1 1 1 1 1 1 1 1 0 0 0 18 18 18 41 41 44 47 47 50 27 27 28 5 4 5 0 0 0 0 0 0 1 1 1 1 1 0 1 2 0 22 20 25 41 38 36 115 109 67 132 123 82 151 141 102 162 153 114 179 170 130 198 190 148 219 209 168 220 208 166 225 214 169 233 223 177 226 215 171 232 219 168 119 115 95 56 50 49 92 84 65 70 67 62 20 16 25 0 0 0 2 2 2 0 0 0 0 0 0 0 0 0 0 0 0 0 0 0 0 0 0 0 0 0 0 0 0 0 0 0 0 0 0 0 0 0 0 0 0 0 0 0 0 0 0 0 0 0 0 0 0 0 0 0 0 0 0 0 0 0 0 0 0 0 0 0 0 0 0 0 0 0 0 0 0 0 0 0 0 0 0 0 0 0 0 0 0 0 0 0 0 0 0 0 0 0 0 0 0 0 0 0 
0 0 0 0 0 0 0 0 0 0 0 0 0 0 0 0 0 0 0 0 0 0 0 0 0 0 0 0 0 0 0 0 0 0 0 0 0 0 0 0 0 0 0 0 0 0 0 0 0 0 0 1 1 1 1 1 1 0 0 0 0 0 0 16 16 16 42 42 42 47 46 50 26 26 27 7 7 6 1 1 0 1 1 1 1 1 1 1 1 1 1 1 0 2 1 4 17 17 22 18 16 29 65 59 42 121 115 72 131 122 85 148 139 99 172 163 124 181 172 132 199 190 148 216 207 166 228 216 174 242 230 185 242 230 185 238 227 183 229 218 171 218 206 154 207 197 140 204 191 130 155 145 97 36 36 47 26 27 36 0 0 0 0 0 0 0 0 0 0 0 0 0 0 0 0 0 0 0 0 0 0 0 0 0 0 0 0 0 0 0 0 0 0 0 0 0 0 0 0 0 0 0 0 0 0 0 0 0 0 0 0 0 0 0 0 0 0 0 0 0 0 0 0 0 0 0 0 0 0 0 0 0 0 0 0 0 0 0 0 0 0 0 0 0 0 0 0 0 0 0 0 0 0 0 0 0 0 0 0 0 0 
0 0 0 0 0 0 0 0 0 0 0 0 0 0 0 0 0 0 0 0 0 0 0 0 0 0 0 0 0 0 0 0 0 0 0 0 0 0 0 0 0 0 0 0 0 0 0 0 3 3 3 1 1 1 0 0 1 18 18 20 43 43 44 46 46 46 29 29 29 8 8 8 0 0 0 0 0 0 0 0 0 0 0 0 0 0 0 1 1 1 0 0 1 36 34 22 64 62 38 68 63 40 101 92 53 122 113 75 138 129 90 150 141 102 179 170 129 185 176 133 207 198 155 227 217 174 234 223 179 247 238 194 251 240 194 247 237 189 234 223 173 220 207 159 209 197 148 187 175 128 181 169 111 93 86 69 48 51 71 4 4 3 0 0 0 0 0 0 0 0 0 0 0 0 0 0 0 0 0 0 0 0 0 0 0 0 0 0 0 0 0 0 0 0 0 0 0 0 0 0 0 0 0 0 0 0 0 0 0 0 0 0 0 0 0 0 0 0 0 0 0 0 0 0 0 0 0 0 0 0 0 0 0 0 0 0 0 0 0 0 0 0 0 0 0 0 0 0 0 0 0 0 0 0 0 0 0 0 0 0 0 
0 0 0 0 0 0 0 0 0 0 0 0 0 0 0 0 0 0 0 0 0 0 0 0 0 0 0 0 0 0 0 0 0 0 0 0 0 0 0 0 0 0 0 0 0 0 0 0 1 1 1 16 16 15 42 42 42 52 52 55 33 33 35 9 9 9 2 2 2 0 0 0 1 1 1 1 1 1 0 0 0 0 0 0 0 0 0 0 0 0 5 5 5 78 69 32 96 86 42 106 95 51 112 100 61 120 111 72 142 133 94 160 151 112 177 168 127 191 182 139 218 209 166 236 226 184 247 237 191 242 238 196 249 244 211 248 240 195 239 227 177 230 218 168 210 198 148 197 186 135 182 170 114 144 131 83 33 32 37 6 6 8 0 0 0 0 0 0 0 0 0 0 0 0 0 0 0 0 0 0 0 0 0 0 0 0 0 0 0 0 0 0 0 0 0 0 0 0 0 0 0 0 0 0 0 0 0 0 0 0 0 0 0 0 0 0 0 0 0 0 0 0 0 0 0 0 0 0 0 0 0 0 0 0 0 0 0 0 0 0 0 0 0 0 0 0 0 0 0 0 0 0 0 0 0 0 0 0 0 0 0 
0 0 0 0 0 0 0 0 0 0 0 0 0 0 0 0 0 0 0 0 0 0 0 0 0 0 0 0 0 0 0 0 0 0 0 0 0 0 0 0 0 0 1 1 2 8 8 8 44 44 45 51 50 52 30 30 33 11 11 11 1 1 2 0 0 0 0 0 0 1 1 1 0 0 0 0 0 0 0 0 0 0 0 0 1 1 1 0 0 0 34 30 16 88 79 35 90 82 43 99 89 50 113 104 65 126 117 77 138 129 89 153 144 103 174 165 124 202 192 149 222 212 167 239 228 184 252 245 200 241 239 212 238 235 218 244 238 195 236 226 175 235 223 173 211 199 150 196 184 134 189 177 120 109 99 64 33 35 44 11 11 13 0 0 0 0 0 0 0 0 0 0 0 0 0 0 0 0 0 0 0 0 0 0 0 0 0 0 0 0 0 0 0 0 0 0 0 0 0 0 0 0 0 0 0 0 0 0 0 0 0 0 0 0 0 0 0 0 0 0 0 0 0 0 0 0 0 0 0 0 0 0 0 0 0 0 0 0 0 0 0 0 0 0 0 0 0 0 0 0 0 0 0 0 0 0 0 0 0 0 0 
0 0 0 0 0 0 0 0 0 0 0 0 0 0 0 0 0 0 0 0 0 0 0 0 0 0 0 0 0 0 0 0 0 0 0 0 0 0 0 0 0 0 10 10 12 38 37 43 19 19 23 10 11 8 3 3 3 0 0 0 0 0 0 0 0 0 0 0 0 0 0 0 0 0 0 0 0 0 0 0 0 0 0 0 1 1 1 0 0 0 50 46 22 90 83 38 91 84 46 100 91 49 115 106 65 125 116 75 138 129 88 160 151 110 177 168 127 198 188 145 221 209 165 239 228 183 248 241 206 245 243 229 255 254 243 255 249 212 242 231 180 229 216 167 217 206 153 196 184 132 186 175 115 59 52 42 55 55 73 12 12 15 0 0 0 0 0 1 0 0 0 0 0 0 0 0 0 0 0 0 0 0 0 0 0 0 0 0 0 0 0 0 0 0 0 0 0 0 0 0 0 0 0 0 0 0 0 0 0 0 0 0 0 0 0 0 0 0 0 0 0 0 0 0 0 0 0 0 0 0 0 0 0 0 0 0 0 0 0 0 0 0 0 0 0 0 0 0 0 0 0 0 0 0 0 0 0 0 0 0 0 
0 0 0 0 0 0 0 0 0 0 0 0 0 0 0 0 0 0 0 0 0 0 0 0 0 0 0 0 0 0 0 0 0 0 0 0 0 0 0 2 2 2 27 27 30 33 31 40 103 101 111 25 24 25 0 0 0 1 1 1 0 0 0 0 0 0 0 0 0 0 0 0 0 0 0 0 0 0 0 0 0 0 0 0 1 1 0 0 0 0 21 19 19 87 78 36 96 84 42 101 93 52 114 105 64 123 114 73 145 136 95 162 153 112 179 170 129 200 189 147 239 227 177 255 247 199 249 245 212 247 245 224 254 252 237 253 245 208 245 234 181 221 209 158 208 195 145 200 190 130 146 138 97 27 24 26 63 60 78 13 14 19 0 0 0 1 1 1 0 0 0 0 0 0 0 0 0 0 0 0 0 0 0 0 0 0 0 0 0 0 0 0 0 0 0 0 0 0 0 0 0 0 0 0 0 0 0 0 0 0 0 0 0 0 0 0 0 0 0 0 0 0 0 0 0 0 0 0 0 0 0 0 0 0 0 0 0 0 0 0 0 0 0 0 0 0 0 0 0 0 0 0 0 0 0 0 0 0 0 0 0 
0 0 0 0 0 0 0 0 0 0 0 0 0 0 0 0 0 0 0 0 0 0 0 0 0 0 0 0 0 0 0 0 0 1 1 1 0 0 0 13 13 14 46 45 52 35 35 40 75 71 82 46 45 47 0 0 0 1 1 1 0 0 0 0 0 0 0 0 0 0 0 0 0 0 0 0 0 0 0 0 0 0 0 0 0 0 1 0 0 0 9 9 18 58 56 40 96 86 43 101 92 52 108 99 58 123 114 72 145 136 94 167 156 111 202 190 142 191 182 142 133 127 106 125 123 103 153 149 132 255 253 223 252 246 223 254 244 197 243 230 178 219 207 156 207 195 142 194 180 130 164 152 103 40 37 41 61 61 78 20 21 28 0 0 0 1 1 1 0 0 0 0 0 0 0 0 0 0 0 0 0 0 0 0 0 0 0 0 0 0 0 0 0 0 0 0 0 0 0 0 0 0 0 0 0 0 0 0 0 0 0 0 0 0 0 0 0 0 0 0 0 0 0 0 0 0 0 0 0 0 0 0 0 0 0 0 0 0 0 0 0 0 0 0 0 0 0 0 0 0 0 0 0 0 0 0 0 0 0 0 0 
0 0 0 0 0 0 0 0 0 0 0 0 0 0 0 0 0 0 0 0 0 0 0 0 0 0 0 0 0 0 0 0 0 1 1 1 0 0 0 13 13 14 46 45 50 42 41 46 23 21 29 32 31 29 2 1 0 0 0 0 0 0 0 0 0 0 0 0 0 0 0 0 0 0 0 0 0 0 0 0 0 0 0 0 0 0 1 0 0 0 7 7 17 56 51 36 96 86 41 100 91 51 111 102 60 120 111 67 145 136 91 100 94 69 103 97 78 97 93 75 50 48 46 43 44 41 27 26 33 222 219 178 255 251 195 250 237 185 235 222 173 217 205 152 210 198 147 187 175 122 186 171 109 95 89 68 44 45 62 16 16 18 0 0 0 1 1 1 0 0 0 0 0 0 0 0 0 0 0 0 0 0 0 0 0 0 0 0 0 0 0 0 0 0 0 0 0 0 0 0 0 0 0 0 0 0 0 0 0 0 0 0 0 0 0 0 0 0 0 0 0 0 0 0 0 0 0 0 0 0 0 0 0 0 0 0 0 0 0 0 0 0 0 0 0 0 0 0 0 0 0 0 0 0 0 0 0 0 0 0 0 
0 0 0 0 0 0 0 0 0 0 0 0 0 0 0 0 0 0 0 0 0 0 0 0 0 0 0 0 0 0 0 0 0 1 1 1 0 0 0 5 4 5 43 42 48 39 38 44 28 27 32 22 22 17 0 0 0 2 2 2 1 1 1 0 0 0 0 0 0 0 0 0 0 0 0 0 0 0 0 0 0 0 0 0 1 0 0 0 0 0 11 10 11 84 75 35 96 86 38 100 93 47 114 105 60 124 112 70 141 129 88 19 21 19 15 19 18 17 16 16 13 13 12 17 17 17 3 4 8 119 117 101 253 244 183 233 222 164 226 215 162 212 201 147 201 190 136 181 171 114 170 159 99 149 137 84 45 41 50 13 11 13 0 0 0 1 1 1 0 0 0 0 0 0 0 0 0 0 0 0 0 0 0 0 0 0 0 0 0 0 0 0 0 0 0 0 0 0 0 0 0 0 0 0 0 0 0 0 0 0 0 0 0 0 0 0 0 0 0 0 0 0 0 0 0 0 0 0 0 0 0 0 0 0 0 0 0 0 0 0 0 0 0 0 0 0 0 0 0 0 0 0 0 0 0 0 0 0 0 0 0 
0 0 0 0 0 0 0 0 0 0 0 0 0 0 0 0 0 0 0 0 0 0 0 0 0 0 0 0 0 0 0 0 0 1 1 1 0 0 0 10 9 10 42 41 46 39 38 43 42 41 48 30 29 34 5 5 7 0 0 0 0 0 0 0 0 0 1 1 1 0 0 0 0 0 0 0 0 0 0 0 0 0 0 0 1 1 0 0 0 0 46 42 24 92 84 32 92 82 36 101 89 45 113 102 57 123 111 67 135 123 78 58 55 45 30 28 28 19 19 15 14 15 15 14 14 14 9 10 15 74 69 65 237 227 173 221 211 155 210 198 146 208 197 143 198 187 133 180 169 114 170 159 98 133 123 71 32 31 34 16 14 18 0 0 0 1 1 1 0 0 0 0 0 0 0 0 0 0 0 0 0 0 0 0 0 0 0 0 0 0 0 0 0 0 0 0 0 0 0 0 0 0 0 0 0 0 0 0 0 0 0 0 0 0 0 0 0 0 0 0 0 0 0 0 0 0 0 0 0 0 0 0 0 0 0 0 0 0 0 0 0 0 0 0 0 0 0 0 0 0 0 0 0 0 0 0 0 0 0 0 0 
0 0 0 0 0 0 0 0 0 0 0 0 0 0 0 0 0 0 0 0 0 0 0 0 0 0 0 0 0 0 0 0 0 0 0 0 0 0 0 3 3 3 14 14 13 32 32 31 45 45 45 49 48 51 44 42 48 34 32 38 14 13 16 0 0 2 0 0 0 1 1 0 1 1 1 1 1 1 0 0 0 0 0 0 1 1 0 0 0 0 30 27 19 90 82 32 92 81 37 100 87 44 110 99 54 118 107 61 132 121 75 149 137 95 123 116 77 29 28 23 20 19 19 23 23 21 8 9 13 157 151 119 245 233 175 222 210 154 209 198 143 194 183 127 192 181 123 172 159 104 172 158 92 65 58 37 70 70 89 29 29 33 0 0 0 1 1 2 0 0 0 0 0 0 0 0 0 0 0 0 0 0 0 0 0 0 1 0 1 0 0 0 0 0 0 0 0 0 0 0 0 0 0 0 0 0 0 0 0 0 0 0 0 0 0 0 0 0 0 0 0 0 0 0 0 0 0 0 0 0 0 0 0 0 0 0 0 0 0 0 0 0 0 0 0 0 0 0 0 0 0 0 0 0 0 0 0 0 0 0 0 
0 0 0 0 0 0 0 0 0 0 0 0 0 0 0 0 0 0 0 0 0 0 0 0 0 0 0 0 0 0 0 0 0 0 0 0 0 0 0 0 0 0 0 0 0 3 3 3 20 19 17 42 40 35 46 45 41 41 39 41 43 41 49 43 42 48 22 21 28 3 2 6 0 0 0 0 0 0 1 1 1 1 1 1 0 0 1 0 0 0 6 4 14 66 61 29 92 82 31 95 85 39 105 94 47 113 102 55 128 118 70 136 129 79 184 172 118 96 91 69 9 9 24 15 15 26 49 47 46 218 207 157 215 201 147 205 192 140 203 192 138 184 174 116 176 166 106 170 154 96 137 123 73 28 23 27 86 84 109 29 29 36 0 0 0 4 4 4 1 1 1 0 0 0 0 0 0 0 0 0 0 0 0 0 0 0 0 0 0 1 1 1 0 0 0 0 0 0 0 0 0 0 0 0 0 0 0 0 0 0 0 0 0 0 0 0 0 0 0 0 0 0 0 0 0 0 0 0 0 0 0 0 0 0 0 0 0 0 0 0 0 0 0 0 0 0 0 0 0 0 0 0 0 0 0 0 0 0 0 0 0 
0 0 0 0 0 0 0 0 0 0 0 0 0 0 0 0 0 0 0 0 0 0 0 0 0 0 0 0 0 0 0 0 0 0 0 0 0 0 0 0 0 0 1 1 1 1 1 1 0 0 0 6 4 5 29 28 26 49 49 45 36 36 34 21 21 21 38 37 40 48 47 54 33 32 38 9 8 11 0 0 0 0 0 0 1 1 1 0 0 0 12 12 18 54 50 37 86 75 23 91 80 35 100 88 41 109 99 49 128 117 69 134 122 74 152 141 93 157 145 98 132 123 89 143 133 101 171 158 114 206 192 137 199 187 135 201 188 135 191 179 125 178 166 110 171 160 102 166 150 88 130 118 74 28 28 33 84 83 104 29 29 38 0 0 0 1 1 1 0 0 0 4 4 4 5 5 6 5 5 6 8 8 9 7 7 8 9 9 10 3 3 4 1 1 1 0 0 0 0 0 0 0 0 0 0 0 0 0 0 0 0 0 0 0 0 0 0 0 0 0 0 0 0 0 0 0 0 0 0 0 0 0 0 0 0 0 0 0 0 0 0 0 0 0 0 0 0 0 0 0 0 0 0 0 0 0 0 0 0 0 0 
0 0 0 0 0 0 0 0 0 0 0 0 0 0 0 0 0 0 0 0 0 0 0 0 0 0 0 0 0 0 0 0 0 0 0 0 0 0 0 0 0 0 0 0 0 0 0 0 0 0 0 0 0 0 0 0 0 9 10 8 42 43 37 50 48 46 20 19 17 7 7 6 30 29 32 49 48 54 41 41 45 19 19 21 2 2 2 0 0 0 15 13 19 75 68 28 89 77 25 95 83 33 102 90 40 105 93 44 121 109 60 133 121 72 142 130 82 156 144 92 180 168 111 193 181 125 194 183 128 182 170 118 188 175 120 188 175 120 177 163 106 173 157 100 169 154 97 151 137 78 151 138 68 62 55 48 74 73 94 34 35 41 29 28 33 97 97 102 123 123 128 109 108 114 111 110 115 113 112 117 108 107 112 109 108 113 126 125 131 69 68 72 0 0 0 1 1 1 0 0 0 0 0 0 0 0 0 0 0 0 0 0 0 0 0 0 0 0 0 0 0 0 0 0 0 0 0 0 0 0 0 0 0 0 0 0 0 0 0 0 0 0 0 0 0 0 0 0 0 0 0 0 0 0 0 0 0 0 0 0 0 
0 0 0 0 0 0 0 0 0 0 0 0 0 0 0 0 0 0 0 0 0 0 0 0 0 0 0 0 0 0 0 0 0 0 0 0 0 0 0 0 0 0 0 0 0 0 0 0 0 0 0 0 0 0 1 1 2 1 1 2 0 0 0 18 17 16 50 49 47 46 46 46 9 9 9 0 0 0 20 19 21 43 42 47 49 48 51 28 27 36 47 42 29 87 74 11 83 72 20 87 74 27 99 86 37 102 90 38 109 96 46 123 111 60 135 123 71 144 132 81 153 141 90 159 148 96 171 160 105 175 164 108 173 161 103 167 155 96 163 149 89 167 153 92 153 138 78 143 128 69 141 126 58 108 95 52 38 38 49 103 102 110 159 157 167 163 162 170 119 118 125 112 111 118 111 110 117 105 104 111 117 116 123 126 125 132 104 103 111 117 116 123 58 57 61 0 0 0 2 2 2 0 0 0 0 0 0 0 0 0 0 0 0 0 0 0 0 0 0 0 0 0 0 0 0 0 0 0 0 0 0 0 0 0 0 0 0 0 0 0 0 0 0 0 0 0 0 0 0 0 0 0 0 0 0 0 0 0 0 0 0 
0 0 0 0 0 0 0 0 0 0 0 0 0 0 0 0 0 0 0 0 0 0 0 0 0 0 0 0 0 0 0 0 0 0 0 0 0 0 0 0 0 0 0 0 0 0 0 0 0 0 0 0 0 0 0 0 0 0 0 1 1 1 1 0 0 0 1 1 1 28 28 28 56 56 56 38 37 38 4 3 3 0 0 0 13 13 13 36 36 38 57 55 50 72 64 45 84 74 28 90 75 19 94 83 25 99 88 36 106 95 44 115 103 53 123 111 61 139 126 74 151 138 85 157 144 91 162 149 95 159 146 92 163 148 92 164 149 93 155 141 82 154 140 79 144 130 69 140 124 63 134 117 51 99 88 34 33 32 41 113 112 118 112 111 116 87 86 92 93 92 97 90 89 95 94 93 99 115 114 120 112 111 117 97 96 102 105 104 110 107 106 112 114 113 119 33 33 35 0 0 0 2 2 2 0 0 0 0 0 0 0 0 0 0 0 0 0 0 0 0 0 0 0 0 0 0 0 0 0 0 0 0 0 0 0 0 0 0 0 0 0 0 0 0 0 0 0 0 0 0 0 0 0 0 0 0 0 0 0 0 0 
0 0 0 0 0 0 0 0 0 0 0 0 0 0 0 0 0 0 0 0 0 0 0 0 0 0 0 0 0 0 0 0 0 0 0 0 0 0 0 0 0 0 0 0 0 0 0 0 0 0 0 0 0 0 0 0 0 0 0 0 0 0 0 1 1 1 1 1 1 0 0 0 5 5 5 37 36 37 56 53 55 28 26 27 1 1 1 0 0 0 21 20 20 56 48 32 54 49 44 69 63 49 88 77 41 97 88 34 110 96 37 115 103 49 120 109 58 124 113 59 138 126 69 146 134 77 147 135 77 151 139 80 157 143 84 156 141 82 148 134 73 139 126 64 138 123 62 129 113 52 127 113 38 48 42 29 82 79 95 122 121 125 97 96 102 101 100 106 94 93 99 107 106 112 117 116 122 102 101 107 99 98 104 108 107 113 105 104 110 101 100 106 108 107 113 96 95 100 7 6 8 0 0 0 0 0 0 0 0 0 0 0 0 0 0 0 0 0 0 0 0 0 0 0 0 0 0 0 0 0 0 0 0 0 0 0 0 0 0 0 0 0 0 0 0 0 0 0 0 0 0 0 0 0 0 0 0 0 0 0 0 
0 0 0 0 0 0 0 0 0 0 0 0 0 0 0 0 0 0 0 0 0 0 0 0 0 0 0 0 0 0 0 0 0 0 0 0 0 0 0 0 0 0 0 0 0 0 0 0 0 0 0 0 0 0 0 0 0 0 0 0 0 0 0 1 1 1 0 0 0 1 1 1 1 1 1 0 0 0 10 10 10 42 42 42 47 46 46 16 16 16 4 2 9 61 53 17 66 56 8 50 44 21 47 47 42 61 56 52 83 74 45 106 93 41 123 109 48 121 107 49 122 108 53 130 116 59 136 122 64 145 131 73 142 128 67 139 125 64 138 123 62 135 119 55 131 118 49 127 112 36 91 80 27 42 40 52 115 114 122 113 112 117 103 102 108 102 101 107 115 114 120 108 107 113 96 95 101 101 100 106 104 103 109 102 101 107 99 98 104 98 97 102 97 96 102 112 110 117 51 50 54 0 0 0 3 3 3 1 1 1 0 0 0 0 0 0 0 0 0 0 0 0 0 0 0 0 0 0 0 0 0 0 0 0 0 0 0 0 0 0 0 0 0 0 0 0 0 0 0 0 0 0 0 0 0 0 0 0 0 0 0 
0 0 0 0 0 0 0 0 0 0 0 0 0 0 0 0 0 0 0 0 0 0 0 0 0 0 0 0 0 0 0 0 0 0 0 0 0 0 0 0 0 0 0 0 0 0 0 0 0 0 0 0 0 0 0 0 0 0 0 0 0 0 0 0 0 0 0 0 0 0 0 0 0 0 0 1 1 1 0 0 0 0 0 0 18 18 18 44 44 43 39 39 36 28 27 32 33 30 35 31 35 39 62 53 20 73 62 15 55 51 34 54 52 47 78 71 52 108 96 51 128 113 56 133 116 52 130 115 55 132 117 59 135 121 61 131 118 57 135 116 53 92 82 40 58 53 46 64 57 43 40 36 32 67 66 76 130 129 136 106 105 112 109 108 114 112 111 117 96 95 101 94 93 99 102 101 107 101 100 106 99 98 104 98 97 103 101 100 106 102 101 107 101 100 106 104 103 110 94 93 98 9 9 10 1 1 0 1 1 1 0 0 0 0 0 0 0 0 0 0 0 0 0 0 0 0 0 0 0 0 0 0 0 0 0 0 0 0 0 0 0 0 0 0 0 0 0 0 0 0 0 0 0 0 0 0 0 0 0 0 0 
0 0 0 0 0 0 0 0 0 0 0 0 0 0 0 0 0 0 0 0 0 0 0 0 0 0 0 0 0 0 0 0 0 0 0 0 0 0 0 0 0 0 0 0 0 0 0 0 0 0 0 0 0 0 0 0 0 0 0 0 0 0 0 0 0 0 0 0 0 0 0 0 0 0 0 1 1 1 2 2 2 2 2 2 0 0 1 1 1 1 22 21 21 37 36 29 32 30 30 31 29 40 43 40 37 89 75 9 93 80 20 89 75 20 67 59 29 54 54 43 71 64 51 106 94 60 124 111 50 125 110 43 125 110 47 123 107 50 116 103 38 45 44 37 39 38 52 49 48 61 53 51 63 107 106 113 116 115 123 110 109 116 104 103 109 89 88 94 94 93 99 97 96 102 97 96 102 99 98 104 105 104 110 106 105 111 102 101 107 99 98 104 100 99 106 100 99 106 111 110 116 58 58 60 0 0 0 2 2 3 0 0 0 0 0 0 0 0 0 0 0 0 0 0 0 0 0 0 0 0 0 0 0 0 0 0 0 0 0 0 0 0 0 0 0 0 0 0 0 0 0 0 0 0 0 0 0 0 0 0 0 
0 0 0 0 0 0 0 0 0 0 0 0 0 0 0 0 0 0 0 0 0 0 0 0 0 0 0 0 0 0 0 0 0 0 0 0 0 0 0 0 0 0 0 0 0 0 0 0 0 0 0 0 0 0 0 0 0 0 0 0 0 0 0 0 0 0 1 1 1 1 1 1 1 1 2 2 2 3 1 1 1 0 0 0 0 0 0 0 0 0 6 6 8 38 38 41 48 46 47 43 41 43 41 40 48 66 57 23 79 65 16 83 71 18 101 86 20 101 85 22 82 70 25 60 53 34 61 59 49 91 81 54 109 95 37 124 105 31 83 70 28 30 31 41 37 37 40 26 26 27 61 60 66 97 96 102 116 115 121 98 97 103 87 86 92 91 90 96 92 91 97 94 93 99 100 99 105 101 100 106 97 96 102 95 94 100 98 97 103 102 101 107 101 100 106 95 94 100 95 94 100 95 94 100 16 15 19 0 0 0 1 1 0 0 0 0 0 0 0 0 0 0 0 0 0 0 0 0 0 0 0 0 0 0 0 0 0 0 0 0 0 0 0 0 0 0 0 0 0 0 0 0 0 0 0 0 0 0 0 0 0 
0 0 0 0 0 0 0 0 0 0 0 0 0 0 0 0 0 0 0 0 0 0 0 0 0 0 0 0 0 0 0 0 0 0 0 0 0 0 0 0 0 0 0 0 0 0 0 0 0 0 0 0 0 0 0 0 0 0 0 1 0 0 1 2 2 3 0 0 0 0 0 0 0 0 0 0 0 0 2 3 3 19 19 21 42 44 50 65 68 74 85 87 94 92 95 102 88 92 96 63 65 69 48 47 51 34 32 39 52 51 59 47 44 55 78 70 15 100 85 9 109 92 16 114 94 14 94 83 17 42 41 38 50 46 52 70 66 51 56 52 51 50 49 60 39 39 46 13 13 16 55 53 61 104 103 109 96 95 101 84 83 89 88 87 93 89 88 94 90 89 95 92 91 97 92 91 97 93 92 98 97 96 102 98 97 103 96 95 101 94 93 99 93 92 98 95 94 100 102 101 107 115 114 120 63 63 67 0 0 0 1 1 1 0 0 0 0 0 0 0 0 0 0 0 0 0 0 0 0 0 0 0 0 0 0 0 0 0 0 0 0 0 0 0 0 0 0 0 0 0 0 0 0 0 0 0 0 0 0 0 0 
0 0 0 0 0 0 0 0 0 0 0 0 0 0 0 0 0 0 0 0 0 0 0 0 0 0 0 0 0 0 0 0 0 0 0 0 0 0 0 0 0 0 0 0 0 0 0 0 0 0 0 0 0 0 1 1 0 3 3 6 1 1 2 0 0 0 16 16 18 14 17 21 32 35 40 58 62 71 78 83 92 88 92 98 91 91 97 89 90 96 88 89 96 90 90 98 96 97 104 111 112 117 122 121 129 96 93 104 44 43 47 40 40 56 66 56 35 90 75 5 90 75 17 97 81 16 86 73 25 51 48 50 41 39 51 39 37 47 49 48 56 69 67 79 80 79 86 58 57 63 76 75 82 87 88 93 82 83 88 84 85 90 84 85 90 85 85 91 86 85 91 90 89 95 94 93 99 96 95 101 96 95 101 96 95 101 97 96 102 97 96 102 99 98 104 99 98 104 96 95 101 98 96 105 88 89 93 9 10 10 0 0 0 0 0 0 0 0 0 0 0 0 0 0 0 0 0 0 0 0 0 0 0 0 0 0 0 0 0 0 0 0 0 0 0 0 0 0 0 0 0 0 0 0 0 0 0 0 0 0 0 
0 0 0 0 0 0 0 0 0 0 0 0 0 0 0 0 0 0 0 0 0 0 0 0 0 0 0 0 0 0 0 0 0 0 0 0 0 0 0 0 0 0 0 0 0 0 0 0 0 0 0 2 2 2 1 1 1 0 0 0 8 8 11 55 58 69 110 115 137 120 127 154 120 128 153 115 123 143 103 111 126 94 103 113 87 91 100 93 93 98 110 109 117 128 128 137 148 148 157 159 159 170 167 167 178 206 204 216 101 101 102 30 31 31 54 49 47 74 64 12 81 67 9 85 70 10 57 51 40 46 43 56 51 48 49 58 55 60 45 44 44 98 97 102 116 115 121 95 93 99 75 73 79 73 74 79 81 82 87 83 84 89 85 86 91 86 86 91 87 86 92 89 88 94 90 89 95 94 93 99 96 95 101 99 98 104 101 100 106 102 101 107 103 102 108 103 102 108 106 105 111 113 112 118 114 116 121 35 38 40 0 0 0 1 1 1 0 0 0 0 0 0 0 0 0 0 0 0 0 0 0 0 0 0 0 0 0 0 0 0 0 0 0 0 0 0 0 0 0 0 0 0 0 0 0 0 0 0 0 0 0 
0 0 0 0 0 0 0 0 0 0 0 0 0 0 0 0 0 0 0 0 0 0 0 0 0 0 0 0 0 0 0 0 0 0 0 0 0 0 0 0 0 0 0 0 0 3 3 2 2 2 2 0 0 0 6 5 8 53 55 67 111 116 144 130 137 169 121 130 156 117 123 152 110 116 140 103 110 129 99 106 124 94 103 115 91 99 107 87 90 95 88 90 96 101 101 106 128 128 134 172 171 179 226 226 233 254 253 255 81 81 77 43 41 35 50 50 46 48 47 44 52 51 44 55 53 46 55 54 51 58 56 52 60 59 52 57 56 51 46 44 39 101 98 103 108 108 116 82 85 90 78 81 87 101 102 109 88 88 95 80 81 89 83 84 90 86 86 91 90 89 95 94 93 99 100 98 104 105 104 109 110 108 114 113 112 117 119 119 124 124 124 129 130 127 135 133 131 138 134 133 140 131 130 137 123 123 130 83 83 88 4 4 3 2 2 1 0 0 0 0 0 0 0 0 0 0 0 0 0 0 0 0 0 0 0 0 0 0 0 0 0 0 0 0 0 0 0 0 0 0 0 0 0 0 0 0 0 0 0 0 0 
0 0 0 0 0 0 0 0 0 0 0 0 0 0 0 0 0 0 0 0 0 0 0 0 0 0 0 0 0 0 0 0 0 0 0 0 0 0 0 1 2 2 2 2 1 0 0 0 6 6 7 47 50 60 105 111 133 126 132 160 118 126 154 113 118 145 111 116 141 107 113 135 102 109 129 99 105 124 98 105 122 96 103 117 89 95 106 86 90 99 83 87 94 81 83 88 83 82 88 90 89 94 122 121 127 160 161 163 54 53 48 47 46 40 51 50 45 50 49 44 50 49 45 50 49 45 51 50 44 51 50 45 52 51 47 53 52 48 46 45 39 119 118 127 117 117 132 97 101 107 117 119 133 102 102 111 100 100 108 107 107 117 106 107 114 99 99 104 97 96 102 100 99 105 107 108 114 111 112 119 112 113 119 114 115 122 100 101 107 95 96 103 90 90 101 90 91 100 88 90 95 96 96 103 105 103 112 92 91 97 46 46 48 0 0 0 1 1 1 0 0 0 0 0 0 0 0 0 0 0 0 0 0 0 0 0 0 0 0 0 0 0 0 0 0 0 0 0 0 0 0 0 0 0 0 0 0 0 0 0 0 
0 0 0 0 0 0 0 0 0 0 0 0 0 0 0 0 0 0 0 0 0 0 0 0 0 0 0 0 0 0 0 1 0 2 2 3 2 2 3 0 0 0 3 3 4 40 41 50 91 97 113 115 121 142 113 120 144 109 118 142 110 116 140 108 115 136 105 113 132 104 111 128 104 111 129 102 109 128 101 109 127 102 109 129 104 110 128 103 109 123 102 108 118 98 102 108 96 97 102 96 95 100 85 85 92 81 81 89 56 57 54 50 50 45 47 45 39 47 45 38 48 46 40 47 45 39 45 44 39 46 45 38 46 45 37 45 44 37 47 48 41 114 114 125 113 115 124 114 114 124 133 134 145 138 138 147 130 130 138 123 123 131 108 109 115 106 107 112 108 107 113 107 107 113 110 112 120 113 115 123 114 116 124 120 123 130 114 115 123 111 112 120 95 98 108 82 82 92 80 81 85 94 94 100 130 129 137 72 71 79 71 70 76 10 10 11 0 0 0 1 1 1 0 0 0 0 0 0 0 0 0 0 0 0 0 0 0 0 0 0 0 0 0 0 0 0 0 0 0 0 0 0 0 0 0 0 0 0 0 0 0 
0 0 0 0 0 0 0 0 0 0 0 0 0 0 0 0 0 0 0 0 0 0 0 0 0 0 0 2 2 2 2 2 3 0 0 0 2 3 4 39 41 50 93 95 112 113 120 137 113 120 142 112 118 142 111 117 140 107 114 135 104 111 128 103 110 125 100 107 122 97 105 116 93 102 110 91 98 107 90 96 106 89 95 105 88 95 105 92 98 111 98 104 116 108 111 122 116 117 125 125 125 133 125 126 133 123 124 129 120 122 125 98 97 103 100 99 104 73 73 79 57 55 54 63 61 57 69 66 61 69 70 65 72 72 69 82 81 82 87 86 87 127 126 133 116 113 126 113 112 122 113 112 122 110 111 122 102 104 112 101 104 110 99 103 109 97 99 107 97 97 108 98 98 109 100 100 110 96 96 107 92 93 101 84 85 92 86 88 95 117 119 127 108 109 120 124 126 138 143 145 157 157 157 171 187 188 200 149 148 161 52 51 60 48 48 49 0 0 0 2 2 2 0 0 0 0 0 0 0 0 0 0 0 0 0 0 0 0 0 0 0 0 0 0 0 0 0 0 0 0 0 0 0 0 0 0 0 0 0 0 0 
0 0 0 0 0 0 0 0 0 0 0 0 0 0 0 0 0 0 0 0 0 1 1 1 2 1 1 0 0 0 1 1 0 30 32 36 80 85 95 107 114 126 103 111 129 104 111 129 104 111 127 100 108 121 96 104 115 95 102 112 95 102 110 98 104 113 98 104 113 98 106 116 101 109 124 103 109 130 105 110 131 110 115 137 118 123 145 122 128 143 117 123 134 117 121 129 119 120 129 126 127 136 129 130 139 127 127 137 121 122 128 104 103 109 107 104 104 128 119 93 133 123 91 135 126 89 136 127 101 121 117 118 106 107 115 115 115 125 113 115 125 107 109 118 110 112 124 107 110 121 107 111 122 110 112 124 108 111 121 106 108 117 103 105 115 105 107 116 110 110 117 117 118 125 126 127 135 130 131 139 122 124 133 118 121 131 122 125 135 144 147 159 150 152 166 143 146 159 151 154 167 157 160 174 171 174 189 196 197 209 87 85 95 57 55 61 9 9 10 0 0 0 0 0 0 0 0 0 0 0 0 0 0 0 0 0 0 0 0 0 0 0 0 0 0 0 0 0 0 0 0 0 0 0 0 0 0 0 0 0 0 
0 0 0 0 0 0 0 0 0 0 0 0 1 1 1 2 2 2 2 2 2 0 0 0 0 0 0 26 28 31 76 80 87 97 104 114 98 105 115 96 102 112 98 105 117 95 102 115 95 102 115 99 105 119 104 111 126 111 117 135 115 120 143 120 123 151 122 129 158 124 131 160 125 132 160 125 132 161 126 133 163 127 134 163 133 140 165 129 135 159 125 131 150 118 124 142 114 119 137 112 118 136 108 113 129 104 106 115 105 106 115 107 108 119 111 112 120 121 123 120 120 125 126 119 125 135 118 123 137 118 125 137 121 127 138 122 127 139 124 128 141 128 131 146 127 130 143 126 130 142 129 132 145 133 135 148 132 134 144 131 132 143 135 135 147 143 143 156 149 151 164 142 143 154 135 136 142 136 137 142 123 124 131 106 108 115 102 104 112 129 132 139 130 135 142 103 109 119 118 120 131 125 130 140 140 145 157 162 169 182 153 160 170 58 58 65 31 30 35 0 0 0 2 2 2 0 0 0 0 0 0 0 0 0 0 0 0 0 0 0 0 0 0 0 0 0 0 0 0 0 0 0 0 0 0 0 0 0 0 0 0 
0 0 0 0 0 0 0 0 0 0 0 0 1 1 1 3 3 3 4 3 3 25 23 26 70 73 81 94 97 105 92 96 104 91 95 108 103 108 124 111 116 137 114 120 144 119 125 148 125 131 159 127 133 163 127 134 165 124 134 164 121 130 158 123 131 157 124 129 155 121 126 153 121 127 150 117 123 144 115 122 142 113 119 139 110 116 131 108 114 129 112 115 129 113 116 129 112 116 128 112 115 127 115 118 131 119 123 136 121 125 138 125 130 143 128 134 147 128 135 150 135 143 155 139 145 157 139 146 160 142 149 163 143 149 164 145 151 166 147 153 168 149 154 170 151 156 171 152 157 172 147 152 168 142 146 163 132 137 151 125 129 142 124 126 139 126 129 142 125 129 142 118 123 132 117 122 130 114 118 127 105 110 116 89 94 99 95 99 106 106 106 117 136 131 143 113 107 122 131 123 138 145 133 145 164 149 166 190 173 193 233 209 227 166 152 167 39 38 47 3 2 4 1 2 1 0 0 0 0 0 0 0 0 0 0 0 0 0 0 0 0 0 0 0 0 0 0 0 0 0 0 0 0 0 0 0 0 0 0 0 0 
0 0 0 0 0 0 0 0 0 0 0 0 3 3 3 0 0 0 71 70 73 100 97 108 78 80 89 109 112 127 138 144 168 131 138 166 126 132 160 123 125 155 122 130 159 122 129 160 116 123 149 111 118 141 109 115 135 107 111 128 108 113 129 111 116 132 106 110 125 106 110 124 102 106 119 104 108 121 108 112 125 110 114 128 112 117 130 115 121 133 121 124 138 125 127 142 125 128 143 129 132 149 132 136 152 132 139 153 136 142 157 140 146 161 146 151 166 147 154 166 149 156 169 152 157 171 153 158 172 149 154 168 146 150 167 142 148 165 138 145 159 130 137 150 129 134 149 129 136 152 124 131 147 118 125 140 115 121 134 110 117 126 108 111 120 114 112 123 119 117 129 124 121 133 129 126 136 133 128 138 133 122 135 136 121 135 144 122 139 153 128 147 179 157 174 168 145 162 151 129 147 162 132 153 179 149 169 164 141 157 140 124 134 123 118 123 67 67 76 40 38 44 0 0 0 2 2 2 1 1 1 0 0 0 0 0 0 0 0 0 0 0 0 0 0 0 0 0 0 0 0 0 0 0 0 0 0 0 0 0 0 
0 0 0 0 0 0 0 0 0 0 0 0 2 2 2 0 0 0 117 116 120 80 81 89 77 79 90 103 109 125 96 103 119 96 102 119 61 62 73 37 34 40 96 97 114 104 105 123 100 104 116 107 112 125 109 113 125 109 113 123 106 110 121 102 105 119 108 111 126 115 117 132 117 119 135 118 121 136 117 119 135 119 122 138 121 127 142 127 133 147 135 138 153 138 141 156 140 143 158 137 140 155 137 139 154 136 142 156 138 143 157 139 143 158 137 142 156 134 140 154 131 137 151 131 138 152 131 139 152 128 135 149 126 135 148 126 131 146 128 130 145 127 127 143 130 128 144 140 132 149 150 135 154 150 134 150 148 130 143 146 126 141 153 130 148 165 138 157 173 144 163 179 147 167 177 146 166 156 133 150 136 119 131 120 107 116 104 94 103 76 70 77 74 72 77 85 79 86 104 89 103 141 115 133 166 135 155 174 141 162 163 139 156 169 137 157 142 116 134 62 65 70 15 14 15 0 0 0 1 1 1 0 0 0 0 0 0 0 0 0 0 0 0 0 0 0 0 0 0 0 0 0 0 0 0 0 0 0 0 0 0 
0 0 0 0 0 0 0 0 0 0 0 0 0 0 0 12 12 12 132 131 135 56 57 66 79 82 92 89 94 107 99 102 121 92 96 118 50 50 60 31 29 35 91 95 110 101 106 120 108 112 124 118 119 136 117 120 136 115 119 133 119 123 137 121 123 138 123 125 141 124 128 143 123 126 141 124 127 141 124 127 141 129 133 147 131 136 150 131 135 150 130 133 149 127 131 147 124 129 143 121 126 140 120 127 140 120 130 143 124 133 147 127 132 146 132 134 150 137 137 152 140 137 152 147 141 156 156 144 163 162 144 164 165 143 162 173 145 165 177 146 167 180 146 165 179 141 163 176 136 158 175 137 158 171 137 159 156 128 145 126 105 115 110 92 102 101 84 94 74 60 68 57 49 55 42 37 41 22 21 24 10 9 11 1 1 1 0 0 0 0 0 0 0 0 0 0 0 0 0 0 0 1 1 1 0 0 0 12 11 11 28 24 27 54 44 51 59 49 58 31 30 34 32 33 36 0 0 1 1 1 1 0 0 0 0 0 0 0 0 0 0 0 0 0 0 0 0 0 0 0 0 0 0 0 0 0 0 0 0 0 0 
0 0 0 0 0 0 0 0 0 1 1 1 0 0 0 48 48 47 115 115 120 60 63 75 92 96 107 94 99 116 92 97 116 93 99 118 49 50 61 34 32 39 98 104 120 109 114 131 120 123 140 120 122 138 118 121 137 121 123 139 120 122 139 120 123 138 121 124 139 118 122 137 114 118 133 115 121 135 117 124 138 118 124 139 120 126 140 125 127 142 126 128 143 130 129 145 135 129 145 138 129 144 147 131 149 158 139 157 162 140 159 169 141 160 174 145 164 180 150 171 181 145 168 180 140 162 182 142 167 184 145 169 184 145 170 170 136 161 148 119 141 148 122 146 143 130 159 132 126 154 114 117 144 117 126 154 64 66 83 0 0 0 2 2 2 0 0 0 0 0 0 0 0 0 0 0 0 0 0 0 0 0 0 0 0 0 1 1 1 2 2 2 2 2 2 3 2 2 1 1 1 0 0 0 1 0 0 0 0 0 1 0 1 0 0 0 16 17 19 37 36 41 26 25 32 1 1 3 1 1 0 0 0 0 0 0 0 0 0 0 0 0 0 0 0 0 0 0 0 0 0 0 0 0 0 0 0 0 0 0 0 
0 0 0 0 0 0 0 0 0 3 3 3 0 0 0 90 90 90 105 104 113 61 66 75 82 86 100 90 95 114 88 93 114 96 103 122 44 45 54 39 36 45 104 109 124 112 120 134 114 121 134 110 116 129 112 119 131 113 120 132 114 120 132 113 120 133 117 122 136 122 122 137 127 121 139 136 126 143 145 131 147 154 132 150 159 134 154 165 138 158 166 137 157 172 140 163 182 146 170 187 149 173 187 148 172 178 145 168 185 149 172 177 142 164 178 139 161 163 121 143 169 126 151 170 145 169 147 128 155 142 118 147 152 142 188 104 98 132 69 61 77 107 97 122 115 128 159 122 127 166 109 105 138 122 115 146 102 81 103 2 0 0 4 4 4 3 2 3 3 2 2 2 2 2 2 2 2 1 1 1 1 1 1 0 0 0 0 0 0 0 0 0 0 0 0 0 0 0 0 0 0 0 0 0 0 0 0 1 1 1 0 0 0 6 6 7 37 36 43 39 38 45 12 12 13 0 0 0 1 1 1 0 0 0 0 0 0 0 0 0 0 0 0 0 0 0 0 0 0 0 0 0 0 0 0 0 0 0 0 0 0 
0 0 0 0 0 0 0 0 0 2 2 2 0 0 0 117 116 117 82 80 88 74 77 88 93 93 108 102 101 121 96 96 114 96 100 116 39 39 49 40 39 48 107 114 128 120 122 134 126 121 139 131 122 141 135 122 142 141 124 143 144 124 142 149 122 142 152 124 139 153 124 140 159 129 147 169 136 157 171 138 159 169 137 157 163 131 150 165 131 154 169 134 159 154 124 144 107 88 101 67 57 67 46 39 46 31 26 33 39 34 40 55 46 52 125 107 124 147 114 140 135 116 142 153 147 161 162 142 166 163 143 167 158 148 196 119 111 145 90 74 90 139 113 143 117 112 145 106 90 118 83 67 88 35 27 39 52 47 49 28 26 28 0 0 0 1 1 1 0 0 0 0 0 0 0 0 0 0 0 0 0 0 0 0 0 0 0 0 0 0 0 0 0 0 0 0 0 0 0 0 0 0 0 0 0 0 0 0 0 0 0 0 0 0 0 0 11 11 15 22 21 27 1 1 2 0 0 0 0 0 0 0 0 0 0 0 0 0 0 0 0 0 0 0 0 0 0 0 0 0 0 0 0 0 0 0 0 0 0 0 0 
0 0 0 0 0 0 0 0 0 0 0 0 11 12 10 142 137 146 72 72 86 72 78 91 88 89 107 87 94 112 101 96 114 128 99 121 33 32 38 56 54 63 150 123 144 153 121 138 151 121 138 150 118 135 150 119 135 152 120 138 157 125 145 166 134 160 183 146 179 186 149 186 181 143 181 169 131 165 148 112 138 140 107 125 125 95 116 93 72 88 50 38 48 9 6 8 0 0 0 0 0 0 0 0 0 0 0 0 0 0 0 0 0 0 3 5 8 19 22 30 42 51 55 55 52 56 60 54 63 89 76 89 116 107 134 84 70 88 143 99 119 141 102 128 32 27 38 11 9 10 0 0 0 0 0 0 6 7 5 3 3 3 0 0 0 0 0 0 0 0 0 0 0 0 0 0 0 0 0 0 0 0 0 0 0 0 0 0 0 0 0 0 0 0 0 0 0 0 0 0 0 0 0 0 0 0 0 0 0 0 0 0 0 0 0 0 0 0 0 0 0 1 0 0 0 0 0 0 0 0 0 0 0 0 0 0 0 0 0 0 0 0 0 0 0 0 0 0 0 0 0 0 0 0 0 0 0 0 0 0 0 
0 0 0 0 0 0 3 3 3 0 0 0 49 49 49 124 119 135 21 12 22 69 58 67 133 107 130 164 132 168 160 129 160 147 119 140 30 28 33 54 53 61 156 136 155 165 134 163 173 146 180 185 154 194 209 174 221 225 180 235 229 180 239 214 166 220 188 139 189 163 119 155 142 104 130 127 92 113 103 75 92 60 43 54 19 13 16 0 0 0 0 0 0 0 0 0 2 3 3 3 3 3 2 2 2 2 1 2 2 2 3 3 2 4 2 1 2 0 0 0 1 0 0 1 0 0 0 0 0 2 2 2 2 1 1 0 0 0 2 2 2 9 7 7 0 0 0 0 1 1 3 2 3 2 2 2 1 0 2 0 0 0 0 0 0 0 0 0 0 0 0 0 0 0 0 0 0 0 0 0 0 0 0 0 0 0 0 0 0 0 0 0 0 0 0 0 0 0 0 0 0 0 0 0 0 0 0 0 0 0 0 0 0 0 0 0 1 1 1 1 1 1 0 0 0 0 0 0 0 0 0 0 0 0 0 0 0 0 0 0 0 0 0 0 0 0 0 0 0 0 0 0 0 0 0 0 0 0 0 0 0 
0 0 0 0 0 0 3 3 3 0 0 0 71 72 74 129 109 134 185 155 185 225 185 228 221 178 228 201 159 209 213 170 217 185 165 194 22 24 31 97 85 104 250 207 255 246 195 253 249 197 254 251 193 255 223 166 228 186 135 182 147 107 139 132 96 115 121 89 106 104 76 92 69 52 63 26 19 25 1 1 2 0 0 0 0 0 0 1 1 1 2 2 2 1 0 1 0 0 0 0 0 0 0 0 0 0 0 0 0 0 0 0 0 0 0 0 0 1 1 1 0 1 1 1 1 1 2 2 2 1 1 1 1 1 1 2 1 2 0 0 1 1 1 1 1 1 2 0 0 0 0 0 0 0 0 0 0 0 0 0 0 0 0 0 0 0 0 0 0 0 0 0 0 0 0 0 0 0 0 0 0 0 0 0 0 0 0 0 0 0 0 0 0 0 0 0 0 0 0 0 0 0 0 0 0 0 0 0 0 0 0 0 0 0 0 0 0 0 0 0 0 0 0 0 0 0 0 0 0 0 0 0 0 0 0 0 0 0 0 0 0 0 0 0 0 0 0 0 0 0 0 0 0 0 0 0 0 0 0 0 0 
0 0 0 0 0 0 2 3 3 0 0 0 113 96 109 175 135 163 126 112 139 169 140 181 249 211 253 251 211 251 243 192 252 205 169 214 6 12 11 158 136 165 247 194 255 208 158 214 179 134 172 138 99 124 97 70 83 110 82 95 110 81 97 75 56 69 34 27 32 5 4 4 0 0 0 0 0 0 1 1 1 3 2 3 1 1 1 0 0 0 0 0 0 0 0 0 0 0 0 0 0 0 0 0 0 0 0 0 0 0 0 0 0 0 0 0 0 0 0 0 0 0 0 0 0 0 0 0 0 0 0 0 0 0 0 0 0 0 0 0 0 1 0 0 0 0 0 0 0 0 0 0 0 0 0 0 0 0 0 0 0 0 0 0 0 0 0 0 0 0 0 0 0 0 0 0 0 0 0 0 0 0 0 0 0 0 0 0 0 0 0 0 0 0 0 0 0 0 0 0 0 0 0 0 0 0 0 0 0 0 0 0 0 0 0 0 0 0 0 0 0 0 0 0 0 0 0 0 0 0 0 0 0 0 0 0 0 0 0 0 0 0 0 0 0 0 0 0 0 0 0 0 0 0 0 0 0 0 0 0 0 
0 0 0 0 0 0 2 2 2 2 3 2 19 13 16 9 8 7 114 108 119 112 106 130 175 152 186 223 190 227 249 194 253 224 175 231 87 66 81 169 126 155 117 90 111 79 60 69 99 75 87 124 97 114 119 95 113 93 78 90 24 18 22 0 0 0 1 1 1 1 0 1 2 2 2 1 1 1 0 0 0 0 0 0 0 0 0 0 0 0 0 0 0 0 0 0 0 0 0 0 0 0 0 0 0 0 0 0 0 0 0 0 0 0 0 0 0 0 0 0 0 0 0 0 0 0 0 0 0 0 0 0 0 0 0 0 0 0 0 0 0 0 0 0 0 0 0 0 0 0 0 0 0 0 0 0 0 0 0 0 0 0 0 0 0 0 0 0 0 0 0 0 0 0 0 0 0 0 0 0 0 0 0 0 0 0 0 0 0 0 0 0 0 0 0 0 0 0 0 0 0 0 0 0 0 0 0 0 0 0 0 0 0 0 0 0 0 0 0 0 0 0 0 0 0 0 0 0 0 0 0 0 0 0 0 0 0 0 0 0 0 0 0 0 0 0 0 0 0 0 0 0 0 0 0 0 0 0 0 0 0 
0 0 0 0 0 0 1 2 2 3 3 3 2 2 2 0 0 0 27 24 23 119 110 125 83 72 104 91 83 110 110 88 125 210 169 214 160 114 138 122 91 108 134 105 127 134 102 127 99 75 93 59 48 57 16 12 16 0 0 0 2 2 1 3 2 2 1 1 1 0 0 0 0 0 0 0 0 0 0 0 0 0 0 0 0 0 0 0 0 0 0 0 0 0 0 0 0 0 0 0 0 0 0 0 0 0 0 0 0 0 0 0 0 0 0 0 0 0 0 0 0 0 0 0 0 0 0 0 0 0 0 0 0 0 0 0 0 0 0 0 0 0 0 0 0 0 0 0 0 0 0 0 0 0 0 0 0 0 0 0 0 0 0 0 0 0 0 0 0 0 0 0 0 0 0 0 0 0 0 0 0 0 0 0 0 0 0 0 0 0 0 0 0 0 0 0 0 0 0 0 0 0 0 0 0 0 0 0 0 0 0 0 0 0 0 0 0 0 0 0 0 0 0 0 0 0 0 0 0 0 0 0 0 0 0 0 0 0 0 0 0 0 0 0 0 0 0 0 0 0 0 0 0 0 0 0 0 0 0 0 0 
0 0 0 0 0 0 0 1 0 0 0 0 1 0 0 1 1 1 0 1 1 3 2 3 34 24 29 67 58 66 62 52 67 39 30 36 0 0 0 0 2 2 0 0 0 0 0 0 0 0 0 0 0 0 0 0 0 2 2 2 1 1 1 0 0 0 0 0 0 0 0 0 0 0 0 0 0 0 0 0 0 0 0 0 0 0 0 0 0 0 0 0 0 0 0 0 0 0 0 0 0 0 0 0 0 0 0 0 0 0 0 0 0 0 0 0 0 0 0 0 0 0 0 0 0 0 0 0 0 0 0 0 0 0 0 0 0 0 0 0 0 0 0 0 0 0 0 0 0 0 0 0 0 0 0 0 0 0 0 0 0 0 0 0 0 0 0 0 0 0 0 0 0 0 0 0 0 0 0 0 0 0 0 0 0 0 0 0 0 0 0 0 0 0 0 0 0 0 0 0 0 0 0 0 0 0 0 0 0 0 0 0 0 0 0 0 0 0 0 0 0 0 0 0 0 0 0 0 0 0 0 0 0 0 0 0 0 0 0 0 0 0 0 0 0 0 0 0 0 0 0 0 0 0 0 0 0 0 0 0 0 
0 0 0 0 0 0 0 0 0 0 0 0 0 0 0 0 0 0 1 1 1 2 2 2 0 0 0 0 0 0 0 0 0 0 0 0 0 0 0 2 1 1 1 1 1 1 1 1 2 2 2 2 2 2 0 0 0 0 0 0 0 0 0 0 0 0 0 0 0 0 0 0 0 0 0 0 0 0 0 0 0 0 0 0 0 0 0 0 0 0 0 0 0 0 0 0 0 0 0 0 0 0 0 0 0 0 0 0 0 0 0 0 0 0 0 0 0 0 0 0 0 0 0 0 0 0 0 0 0 0 0 0 0 0 0 0 0 0 0 0 0 0 0 0 0 0 0 0 0 0 0 0 0 0 0 0 0 0 0 0 0 0 0 0 0 0 0 0 0 0 0 0 0 0 0 0 0 0 0 0 0 0 0 0 0 0 0 0 0 0 0 0 0 0 0 0 0 0 0 0 0 0 0 0 0 0 0 0 0 0 0 0 0 0 0 0 0 0 0 0 0 0 0 0 0 0 0 0 0 0 0 0 0 0 0 0 0 0 0 0 0 0 0 0 0 0 0 0 0 0 0 0 0 0 0 0 0 0 0 0 0 
0 0 0 0 0 0 0 0 0 0 0 0 0 0 0 0 0 0 0 0 0 0 0 1 3 1 2 4 3 4 3 3 3 2 2 2 0 0 0 0 0 0 0 0 0 0 0 0 0 0 0 0 0 0 0 0 0 0 0 0 0 0 0 0 0 0 0 0 0 0 0 0 0 0 0 0 0 0 0 0 0 0 0 0 0 0 0 0 0 0 0 0 0 0 0 0 0 0 0 0 0 0 0 0 0 0 0 0 0 0 0 0 0 0 0 0 0 0 0 0 0 0 0 0 0 0 0 0 0 0 0 0 0 0 0 0 0 0 0 0 0 0 0 0 0 0 0 0 0 0 0 0 0 0 0 0 0 0 0 0 0 0 0 0 0 0 0 0 0 0 0 0 0 0 0 0 0 0 0 0 0 0 0 0 0 0 0 0 0 0 0 0 0 0 0 0 0 0 0 0 0 0 0 0 0 0 0 0 0 0 0 0 0 0 0 0 0 0 0 0 0 0 0 0 0 0 0 0 0 0 0 0 0 0 0 0 0 0 0 0 0 0 0 0 0 0 0 0 0 0 0 0 0 0 0 0 0 0 0 0 0 
0 0 0 0 0 0 0 0 0 0 0 0 0 0 0 0 0 0 0 0 0 0 0 0 0 0 0 0 0 0 0 0 0 0 0 0 0 0 0 0 0 0 0 0 0 0 0 0 0 0 0 0 0 0 0 0 0 0 0 0 0 0 0 0 0 0 0 0 0 0 0 0 0 0 0 0 0 0 0 0 0 0 0 0 0 0 0 0 0 0 0 0 0 0 0 0 0 0 0 0 0 0 0 0 0 0 0 0 0 0 0 0 0 0 0 0 0 0 0 0 0 0 0 0 0 0 0 0 0 0 0 0 0 0 0 0 0 0 0 0 0 0 0 0 0 0 0 0 0 0 0 0 0 0 0 0 0 0 0 0 0 0 0 0 0 0 0 0 0 0 0 0 0 0 0 0 0 0 0 0 0 0 0 0 0 0 0 0 0 0 0 0 0 0 0 0 0 0 0 0 0 0 0 0 0 0 0 0 0 0 0 0 0 0 0 0 0 0 0 0 0 0 0 0 0 0 0 0 0 0 0 0 0 0 0 0 0 0 0 0 0 0 0 0 0 0 0 0 0 0 0 0 0 0 0 0 0 0 0 0 0 
0 0 0 0 0 0 0 0 0 0 0 0 0 0 0 0 0 0 0 0 0 0 0 0 0 0 0 0 0 0 0 0 0 0 0 0 0 0 0 0 0 0 0 0 0 0 0 0 0 0 0 0 0 0 0 0 0 0 0 0 0 0 0 0 0 0 0 0 0 0 0 0 0 0 0 0 0 0 0 0 0 0 0 0 0 0 0 0 0 0 0 0 0 0 0 0 0 0 0 0 0 0 0 0 0 0 0 0 0 0 0 0 0 0 0 0 0 0 0 0 0 0 0 0 0 0 0 0 0 0 0 0 0 0 0 0 0 0 0 0 0 0 0 0 0 0 0 0 0 0 0 0 0 0 0 0 0 0 0 0 0 0 0 0 0 0 0 0 0 0 0 0 0 0 0 0 0 0 0 0 0 0 0 0 0 0 0 0 0 0 0 0 0 0 0 0 0 0 0 0 0 0 0 0 0 0 0 0 0 0 0 0 0 0 0 0 0 0 0 0 0 0 0 0 0 0 0 0 0 0 0 0 0 0 0 0 0 0 0 0 0 0 0 0 0 0 0 0 0 0 0 0 0 0 0 0 0 0 0 0 0 
0 0 0 0 0 0 0 0 0 0 0 0 0 0 0 0 0 0 0 0 0 0 0 0 0 0 0 0 0 0 0 0 0 0 0 0 0 0 0 0 0 0 0 0 0 0 0 0 0 0 0 0 0 0 0 0 0 0 0 0 0 0 0 0 0 0 0 0 0 0 0 0 0 0 0 0 0 0 0 0 0 0 0 0 0 0 0 0 0 0 0 0 0 0 0 0 0 0 0 0 0 0 0 0 0 0 0 0 0 0 0 0 0 0 0 0 0 0 0 0 0 0 0 0 0 0 0 0 0 0 0 0 0 0 0 0 0 0 0 0 0 0 0 0 0 0 0 0 0 0 0 0 0 0 0 0 0 0 0 0 0 0 0 0 0 0 0 0 0 0 0 0 0 0 0 0 0 0 0 0 0 0 0 0 0 0 0 0 0 0 0 0 0 0 0 0 0 0 0 0 0 0 0 0 0 0 0 0 0 0 0 0 0 0 0 0 0 0 0 0 0 0 0 0 0 0 0 0 0 0 0 0 0 0 0 0 0 0 0 0 0 0 0 0 0 0 0 0 0 0 0 0 0 0 0 0 0 0 0 0 0 
0 0 0 0 0 0 0 0 0 0 0 0 0 0 0 0 0 0 0 0 0 0 0 0 0 0 0 0 0 0 0 0 0 0 0 0 0 0 0 0 0 0 0 0 0 0 0 0 0 0 0 0 0 0 0 0 0 0 0 0 0 0 0 0 0 0 0 0 0 0 0 0 0 0 0 0 0 0 0 0 0 0 0 0 0 0 0 0 0 0 0 0 0 0 0 0 0 0 0 0 0 0 0 0 0 0 0 0 0 0 0 0 0 0 0 0 0 0 0 0 0 0 0 0 0 0 0 0 0 0 0 0 0 0 0 0 0 0 0 0 0 0 0 0 0 0 0 0 0 0 0 0 0 0 0 0 0 0 0 0 0 0 0 0 0 0 0 0 0 0 0 0 0 0 0 0 0 0 0 0 0 0 0 0 0 0 0 0 0 0 0 0 0 0 0 0 0 0 0 0 0 0 0 0 0 0 0 0 0 0 0 0 0 0 0 0 0 0 0 0 0 0 0 0 0 0 0 0 0 0 0 0 0 0 0 0 0 0 0 0 0 0 0 0 0 0 0 0 0 0 0 0 0 0 0 0 0 0 0 0 0 
