P3
66 53
255
0 0 0 0 0 0 0 0 0 0 0 0 0 0 0 0 0 0 0 0 0 0 0 0 0 0 0 0 0 0 0 0 0 0 0 0 0 0 0 0 0 0 0 0 0 0 0 0 0 0 0 0 0 0 0 0 0 0 0 0 0 0 0 0 0 0 0 0 0 0 0 0 0 0 0 0 0 0 0 0 0 0 0 0 0 0 0 0 0 0 0 0 0 0 0 0 0 0 0 0 0 0 0 0 0 0 0 0 0 0 0 0 0 0 0 0 0 0 0 0 0 0 0 0 0 0 0 0 0 0 0 0 0 0 0 0 0 0 0 0 0 0 0 0 0 0 0 0 0 0 0 0 0 0 0 0 0 0 0 0 0 0 0 0 0 0 0 0 0 0 0 0 0 0 0 0 0 0 0 0 0 0 0 0 0 0 0 0 0 0 0 0 0 0 0 0 0 0 
0 0 0 0 0 0 0 0 0 0 0 0 0 0 0 0 0 0 0 0 0 0 0 0 0 0 0 0 0 0 0 0 0 0 0 0 0 0 0 0 0 0 0 0 0 0 0 0 0 0 0 0 0 0 0 0 0 0 0 0 0 0 0 0 0 0 0 0 0 0 0 0 0 0 0 0 0 0 0 0 0 0 0 0 0 0 0 0 0 0 0 0 0 0 0 0 0 0 0 0 0 0 0 0 0 0 0 0 0 0 0 0 0 0 0 0 0 0 0 0 0 0 0 0 0 0 0 0 0 0 0 0 0 0 0 0 0 0 0 0 0 0 0 0 0 0 0 0 0 0 0 0 0 0 0 0 0 0 0 0 0 0 0 0 0 0 0 0 0 0 0 0 0 0 0 0 0 0 0 0 0 0 0 0 0 0 0 0 0 0 0 0 0 0 0 0 0 0 
0 0 0 0 0 0 0 0 0 0 0 0 0 0 0 0 0 0 0 0 0 0 0 0 0 0 0 0 0 0 0 0 0 0 0 0 0 0 0 0 0 0 0 0 0 0 0 0 0 0 0 0 0 0 0 0 0 0 0 0 0 0 0 0 0 0 0 0 0 0 0 0 0 0 0 0 0 0 0 0 0 0 0 0 0 0 0 0 0 0 0 0 0 0 0 0 0 0 0 0 0 0 0 0 0 0 0 0 0 0 0 0 0 0 0 0 0 0 0 0 0 0 0 0 0 0 0 0 0 0 0 0 0 0 0 0 0 0 0 0 0 0 0 0 0 0 0 0 0 0 0 0 0 0 0 0 0 0 0 0 0 0 0 0 0 0 0 0 0 0 0 0 0 0 0 0 0 0 0 0 0 0 0 0 0 0 0 0 0 0 0 0 0 0 0 0 0 0 
0 0 0 0 0 0 0 0 0 0 0 0 0 0 0 0 0 0 0 0 0 0 0 0 0 0 0 0 0 0 0 0 0 0 0 0 0 0 0 0 0 0 0 0 0 0 0 0 0 0 0 0 0 0 0 0 0 0 0 0 0 0 0 0 0 0 0 0 0 0 0 0 0 0 0 0 0 0 0 0 0 0 0 0 0 0 0 0 0 0 0 0 0 0 0 0 0 0 0 0 0 0 0 0 0 0 0 0 0 0 0 0 0 0 0 0 0 0 0 0 0 0 0 0 0 0 0 0 0 0 0 0 0 0 0 0 0 0 0 0 0 0 0 0 0 0 0 0 0 0 0 0 0 0 0 0 0 0 0 0 0 0 0 0 0 0 0 0 0 0 0 0 0 0 0 0 0 0 0 0 0 0 0 0 0 0 0 0 0 0 0 0 0 0 0 0 0 0 
0 0 0 0 0 0 0 0 0 0 0 0 0 0 0 0 0 0 0 0 0 0 0 0 0 0 0 0 0 0 0 0 0 0 0 0 0 0 0 0 0 0 0 0 0 0 0 0 0 0 0 0 0 0 0 0 0 0 0 0 0 0 0 0 0 0 0 0 0 0 0 0 0 0 0 0 0 0 0 0 0 0 0 0 0 0 0 0 0 0 0 0 0 0 0 0 0 0 0 0 0 0 0 0 0 0 0 0 0 0 0 0 0 0 0 0 0 0 0 0 0 0 0 0 0 0 0 0 0 0 0 0 0 0 0 0 0 0 0 0 0 0 0 0 0 0 0 0 0 0 0 0 0 0 0 0 0 0 0 0 0 0 0 0 0 0 0 0 0 0 0 0 0 0 0 0 0 0 0 0 0 0 0 0 0 0 0 0 0 0 0 0 0 0 0 0 0 0 
0 0 0 0 0 0 0 0 0 0 0 0 0 0 0 0 0 0 0 0 0 0 0 0 0 0 0 0 0 0 0 0 0 0 0 0 0 0 0 0 0 0 0 0 0 0 0 0 0 0 0 0 0 0 0 0 0 0 0 0 0 0 0 0 0 0 0 0 0 0 0 0 0 0 0 0 0 0 0 0 0 9 9 9 4 4 4 0 0 0 0 0 0 0 0 0 0 0 0 0 0 0 0 0 0 0 0 0 0 0 0 0 0 0 0 0 0 0 0 0 0 0 0 0 0 0 0 0 0 0 0 0 0 0 0 0 0 0 0 0 0 0 0 0 0 0 0 0 0 0 0 0 0 0 0 0 0 0 0 0 0 0 0 0 0 0 0 0 0 0 0 0 0 0 0 0 0 0 0 0 0 0 0 0 0 0 0 0 0 0 0 0 0 0 0 0 0 0 
0 0 0 0 0 0 0 0 0 0 0 0 0 0 0 0 0 0 0 0 0 0 0 0 0 0 0 0 0 0 0 0 0 0 0 0 0 0 0 0 0 0 0 0 0 0 0 0 0 0 0 0 0 0 0 0 0 0 0 0 0 0 0 0 0 0 0 0 0 0 0 0 0 0 0 0 0 0 0 0 0 6 6 6 3 3 3 0 0 0 1 1 1 0 0 0 0 0 0 0 0 0 0 0 0 0 0 0 0 0 0 0 0 0 0 0 0 0 0 0 0 0 0 0 0 0 0 0 0 0 0 0 0 0 0 0 0 0 0 0 0 0 0 0 0 0 0 0 0 0 0 0 0 0 0 0 0 0 0 0 0 0 0 0 0 0 0 0 0 0 0 0 0 0 0 0 0 0 0 0 0 0 0 0 0 0 0 0 0 0 0 0 0 0 0 0 0 0 
0 0 0 0 0 0 0 0 0 0 0 0 0 0 0 0 0 0 0 0 0 0 0 0 0 0 0 0 0 0 0 0 0 0 0 0 0 0 0 0 0 0 0 0 0 0 0 0 0 0 0 0 0 0 0 0 0 0 0 0 0 0 0 0 0 0 0 0 0 0 0 0 0 0 0 0 0 0 0 0 0 1 1 1 4 4 4 0 0 0 0 0 0 0 0 0 0 0 1 0 0 0 0 0 0 0 0 0 0 0 0 0 0 0 0 0 0 0 0 0 0 0 0 0 0 0 0 0 0 0 0 0 0 0 0 0 0 0 0 0 0 0 0 0 0 0 0 0 0 0 0 0 0 0 0 0 0 0 0 0 0 0 0 0 0 0 0 0 0 0 0 0 0 0 0 0 0 0 0 0 0 0 0 0 0 0 0 0 0 0 0 0 0 0 0 0 0 0 
0 0 0 0 0 0 0 0 0 0 0 0 0 0 0 0 0 0 0 0 0 0 0 0 0 0 0 0 0 0 0 0 0 0 0 0 0 0 0 0 0 0 0 0 0 0 0 0 0 0 0 0 0 0 0 0 0 0 0 0 0 0 0 0 0 0 0 0 0 0 0 0 0 0 0 0 0 0 1 1 1 0 0 0 1 0 0 5 5 5 14 14 15 4 4 4 0 0 0 0 0 1 0 0 0 0 0 0 0 0 0 0 0 0 0 0 0 0 0 0 0 0 0 0 0 0 0 0 0 0 0 0 0 0 0 0 0 0 0 0 0 0 0 0 0 0 0 0 0 0 0 0 0 0 0 0 0 0 0 0 0 0 0 0 0 0 0 0 0 0 0 0 0 0 0 0 0 0 0 0 0 0 0 0 0 0 0 0 0 0 0 0 0 0 0 0 0 0 
0 0 0 0 0 0 0 0 0 0 0 0 0 0 0 0 0 0 0 0 0 0 0 0 0 0 0 0 0 0 0 0 0 0 0 0 0 0 0 0 0 0 0 0 0 0 0 0 0 0 0 0 0 0 0 0 0 0 0 0 0 0 0 0 0 0 0 0 0 0 0 0 1 1 1 0 0 0 0 0 0 5 5 5 24 24 24 37 37 39 27 27 29 40 38 48 27 25 36 0 0 0 1 1 1 0 0 0 0 0 0 0 0 0 0 0 0 0 0 0 0 0 0 0 0 0 0 0 0 0 0 0 0 0 0 0 0 0 0 0 0 0 0 0 0 0 0 0 0 0 0 0 0 0 0 0 0 0 0 0 0 0 0 0 0 0 0 0 0 0 0 0 0 0 0 0 0 0 0 0 0 0 0 0 0 0 0 0 0 0 0 0 0 0 0 0 0 0 
0 0 0 0 0 0 0 0 0 0 0 0 0 0 0 0 0 0 0 0 0 0 0 0 0 0 0 0 0 0 0 0 0 0 0 0 0 0 0 0 0 0 0 0 0 0 0 0 0 0 0 0 0 0 0 0 0 0 0 0 0 0 0 0 0 0 1 1 1 0 0 0 0 0 0 3 3 4 23 23 24 36 35 35 29 28 29 37 36 44 18 17 22 27 25 30 48 45 61 13 13 18 0 0 0 1 1 1 0 0 0 0 0 0 0 0 0 0 0 0 0 0 0 0 0 0 0 0 0 0 0 0 0 0 0 0 0 0 0 0 0 0 0 0 0 0 0 0 0 0 0 0 0 0 0 0 0 0 0 0 0 0 0 0 0 0 0 0 0 0 0 0 0 0 0 0 0 0 0 0 0 0 0 0 0 0 0 0 0 0 0 0 0 0 0 0 0 0 
0 0 0 0 0 0 0 0 0 0 0 0 0 0 0 0 0 0 0 0 0 0 0 0 0 0 0 0 0 0 0 0 0 0 0 0 0 0 0 0 0 0 0 0 0 0 0 0 0 0 0 0 0 0 0 0 0 0 0 0 1 1 1 0 0 0 0 0 0 4 4 4 23 23 24 37 37 37 23 23 24 5 6 5 0 0 5 66 61 51 134 126 91 135 131 98 38 36 41 35 31 34 7 7 8 8 8 8 11 11 10 3 3 3 0 0 0 0 0 0 0 0 0 0 0 0 0 0 0 0 0 0 0 0 0 0 0 0 0 0 0 0 0 0 0 0 0 0 0 0 0 0 0 0 0 0 0 0 0 0 0 0 0 0 0 0 0 0 0 0 0 0 0 0 0 0 0 0 0 0 0 0 0 0 0 0 0 0 0 0 0 0 0 0 0 0 0 0 
0 0 0 0 0 0 0 0 0 0 0 0 0 0 0 0 0 0 0 0 0 0 0 0 0 0 0 0 0 0 0 0 0 0 0 0 0 0 0 0 0 0 0 0 0 0 0 0 0 0 0 0 0 0 1 1 1 0 0 0 0 0 0 5 5 6 18 18 19 22 22 22 26 26 26 6 6 7 15 13 11 10 9 10 21 19 30 128 118 87 173 164 120 197 187 139 116 110 93 42 37 40 62 57 52 27 26 32 25 25 26 8 8 7 0 0 0 1 2 1 1 1 1 0 0 0 0 0 0 0 0 0 0 0 0 0 0 0 0 0 0 0 0 0 0 0 0 0 0 0 0 0 0 0 0 0 0 0 0 0 0 0 0 0 0 0 0 0 0 0 0 0 0 0 0 0 0 0 0 0 0 0 0 0 0 0 0 0 0 0 0 0 0 0 0 0 0 0 
0 0 0 0 0 0 0 0 0 0 0 0 0 0 0 0 0 0 0 0 0 0 0 0 0 0 0 0 0 0 0 0 0 0 0 0 0 0 0 0 0 0 0 0 0 0 0 0 1 1 1 0 0 0 0 0 0 4 4 4 24 24 24 40 40 42 25 25 27 4 4 4 0 0 0 0 0 0 30 28 28 54 48 43 72 67 54 159 151 110 177 168 129 196 187 145 202 193 149 184 173 136 211 201 154 84 78 72 24 23 34 22 22 29 3 3 3 8 7 7 0 0 0 0 0 0 0 0 0 0 0 0 0 0 0 0 0 0 0 0 0 0 0 0 0 0 0 0 0 0 0 0 0 0 0 0 0 0 0 0 0 0 0 0 0 0 0 0 0 0 0 0 0 0 0 0 0 0 0 0 0 0 0 0 0 0 0 0 0 0 0 0 0 0 0 0 0 0 
0 0 0 0 0 0 0 0 0 0 0 0 0 0 0 0 0 0 0 0 0 0 0 0 0 0 0 0 0 0 0 0 0 0 0 0 0 0 0 0 0 0 1 1 1 0 0 0 0 0 0 4 4 3 24 24 26 42 42 44 30 30 31 7 7 7 0 0 0 1 1 1 1 2 0 12 11 16 62 59 46 127 119 76 148 140 98 167 158 119 188 180 139 211 202 161 219 207 164 232 220 175 236 224 175 182 172 136 41 38 45 58 54 50 43 40 44 9 7 9 0 0 0 0 0 0 0 0 0 0 0 0 0 0 0 0 0 0 0 0 0 0 0 0 0 0 0 0 0 0 0 0 0 0 0 0 0 0 0 0 0 0 0 0 0 0 0 0 0 0 0 0 0 0 0 0 0 0 0 0 0 0 0 0 0 0 0 0 0 0 0 0 0 0 0 0 0 0 
0 0 0 0 0 0 0 0 0 0 0 0 0 0 0 0 0 0 0 0 0 0 0 0 0 0 0 0 0 0 0 0 0 0 0 0 1 1 1 1 1 1 0 0 0 2 2 2 24 24 23 42 41 43 31 31 33 10 10 9 0 0 0 0 0 0 1 1 1 1 1 1 13 13 16 26 23 31 94 88 55 131 123 83 150 140 102 176 166 127 194 185 144 218 208 167 232 221 178 242 231 185 237 226 181 226 215 166 195 185 136 195 183 125 116 109 80 21 23 38 6 7 6 0 0 0 0 0 0 0 0 0 0 0 0 0 0 0 0 0 0 0 0 0 0 0 0 0 0 0 0 0 0 0 0 0 0 0 0 0 0 0 0 0 0 0 0 0 0 0 0 0 0 0 0 0 0 0 0 0 0 0 0 0 0 0 0 0 0 0 0 0 0 0 0 0 0 0 
0 0 0 0 0 0 0 0 0 0 0 0 0 0 0 0 0 0 0 0 0 0 0 0 0 0 0 0 0 0 0 0 0 0 0 0 0 0 0 3 3 3 26 26 27 44 44 45 33 33 33 11 11 11 0 0 0 0 0 0 0 0 0 1 1 0 0 0 0 20 19 12 75 70 39 86 78 45 113 103 63 134 125 87 158 149 109 181 172 130 202 193 150 230 220 177 240 231 186 251 243 200 248 239 191 232 220 170 218 206 156 197 185 134 169 157 102 71 68 69 8 9 15 0 0 0 0 0 1 0 0 0 0 0 0 0 0 0 0 0 0 0 0 0 0 0 0 0 0 0 0 0 0 0 0 0 0 0 0 0 0 0 0 0 0 0 0 0 0 0 0 0 0 0 0 0 0 0 0 0 0 0 0 0 0 0 0 0 0 0 0 0 0 0 0 0 0 0 
0 0 0 0 0 0 0 0 0 0 0 0 0 0 0 0 0 0 0 0 0 0 0 0 0 0 0 0 0 0 1 1 1 0 0 0 22 22 23 43 43 44 36 36 37 14 14 15 0 0 0 0 0 0 0 0 0 0 0 0 0 0 0 1 1 0 0 0 0 55 49 23 97 87 42 104 94 53 117 107 68 135 127 87 157 148 109 184 174 132 214 205 161 239 228 185 248 242 199 240 237 213 243 236 195 238 227 175 220 208 158 196 185 135 181 167 109 70 65 51 6 7 14 0 0 0 1 1 1 0 0 0 0 0 0 0 0 0 0 0 0 0 0 0 0 0 0 0 0 0 0 0 0 0 0 0 0 0 0 0 0 0 0 0 0 0 0 0 0 0 0 0 0 0 0 0 0 0 0 0 0 0 0 0 0 0 0 0 0 0 0 0 0 0 0 0 0 0 
0 0 0 0 0 0 0 0 0 0 0 0 0 0 0 0 0 0 0 0 0 0 0 0 0 0 0 0 0 0 1 1 1 26 25 30 35 34 38 13 13 12 0 0 1 0 0 0 0 0 0 0 0 0 0 0 0 0 0 0 0 0 0 0 0 0 2 2 2 74 67 30 92 84 43 101 92 52 120 111 70 135 126 85 158 149 109 183 174 133 218 207 162 247 236 189 248 243 214 249 247 238 253 247 212 237 226 174 221 209 159 205 193 138 149 138 90 47 45 54 22 23 29 0 0 0 1 1 1 0 0 0 0 0 0 0 0 0 0 0 0 0 0 0 0 0 0 0 0 0 0 0 0 0 0 0 0 0 0 0 0 0 0 0 0 0 0 0 0 0 0 0 0 0 0 0 0 0 0 0 0 0 0 0 0 0 0 0 0 0 0 0 0 0 0 0 0 0 
0 0 0 0 0 0 0 0 0 0 0 0 0 0 0 0 0 0 0 0 0 0 0 0 1 1 1 0 0 0 15 15 16 35 34 41 86 83 93 19 19 19 0 0 0 1 1 1 0 0 0 0 0 0 0 0 0 0 0 0 0 0 0 1 1 0 0 0 1 47 44 29 97 86 42 103 94 53 116 107 66 138 129 89 170 160 117 197 187 142 213 202 158 227 219 178 243 238 208 254 252 236 254 246 208 238 226 173 209 197 147 204 193 135 106 100 71 40 38 54 29 29 38 0 0 0 1 1 1 0 0 0 0 0 0 0 0 0 0 0 0 0 0 0 0 0 0 0 0 0 0 0 0 0 0 0 0 0 0 0 0 0 0 0 0 0 0 0 0 0 0 0 0 0 0 0 0 0 0 0 0 0 0 0 0 0 0 0 0 0 0 0 0 0 0 0 0 0 
0 0 0 0 0 0 0 0 0 0 0 0 0 0 0 0 0 0 0 0 0 0 0 0 1 1 1 0 0 0 28 28 31 44 43 49 43 40 48 27 26 25 0 0 0 1 1 1 0 0 0 0 0 0 0 0 0 0 0 0 0 0 0 1 0 0 0 0 0 26 25 29 89 80 42 103 94 52 113 104 62 139 130 86 140 131 95 159 150 116 99 95 80 52 51 49 136 135 119 255 255 218 251 239 191 232 219 168 211 200 148 198 184 130 150 137 92 50 50 62 26 27 35 0 0 0 1 1 1 0 0 0 0 0 0 0 0 0 0 0 0 0 0 0 0 0 0 0 0 0 0 0 0 0 0 0 0 0 0 0 0 0 0 0 0 0 0 0 0 0 0 0 0 0 0 0 0 0 0 0 0 0 0 0 0 0 0 0 0 0 0 0 0 0 0 0 0 0 
0 0 0 0 0 0 0 0 0 0 0 0 0 0 0 0 0 0 0 0 0 0 0 0 1 1 1 0 0 0 21 20 23 45 44 51 28 27 31 14 14 11 0 0 0 1 1 1 1 1 1 0 0 0 0 0 0 0 0 0 0 0 0 1 1 0 0 0 0 45 40 24 97 87 38 102 94 49 117 107 63 138 126 83 32 33 28 19 21 21 21 20 19 12 13 14 33 33 36 223 215 165 242 230 171 221 209 157 207 196 143 183 173 117 174 162 98 86 80 65 9 8 16 0 0 0 1 1 1 0 0 0 0 0 0 0 0 0 0 0 0 0 0 0 0 0 0 0 0 0 0 0 0 0 0 0 0 0 0 0 0 0 0 0 0 0 0 0 0 0 0 0 0 0 0 0 0 0 0 0 0 0 0 0 0 0 0 0 0 0 0 0 0 0 0 0 0 0 
0 0 0 0 0 0 0 0 0 0 0 0 0 0 0 0 0 0 0 0 0 0 0 0 1 1 1 0 0 0 19 18 20 40 40 43 44 43 49 29 28 33 8 8 10 0 0 0 0 0 0 0 0 0 1 1 1 0 0 0 0 0 0 0 0 0 1 1 4 73 67 30 95 85 35 102 90 46 117 105 61 132 121 75 84 78 59 30 29 24 14 14 12 15 15 13 20 19 23 195 186 146 232 222 163 206 195 142 201 190 136 180 169 114 165 153 90 71 66 52 17 17 25 0 0 0 1 1 1 0 0 0 0 0 0 0 0 0 0 0 1 1 1 1 0 0 0 0 0 0 0 0 0 0 0 0 0 0 0 0 0 0 0 0 0 0 0 0 0 0 0 0 0 0 0 0 0 0 0 0 0 0 0 0 0 0 0 0 0 0 0 0 0 0 0 0 0 0 
0 0 0 0 0 0 0 0 0 0 0 0 0 0 0 0 0 0 0 0 0 0 0 0 0 0 0 0 0 0 1 1 1 11 11 10 34 33 31 50 49 48 45 42 46 33 31 37 18 18 23 3 3 5 0 0 0 0 0 0 1 1 1 1 1 0 0 0 1 46 41 24 94 84 33 98 87 43 110 99 53 124 114 67 158 148 97 132 125 86 16 16 23 0 1 12 83 80 68 236 223 167 214 201 148 200 189 134 183 174 115 178 164 104 117 104 59 55 52 69 46 46 56 0 0 0 3 3 4 0 0 0 0 0 0 0 0 0 0 0 0 0 0 0 1 1 1 0 0 0 0 0 0 0 0 0 0 0 0 0 0 0 0 0 0 0 0 0 0 0 0 0 0 0 0 0 0 0 0 0 0 0 0 0 0 0 0 0 0 0 0 0 0 0 0 0 0 0 
0 0 0 0 0 0 0 0 0 0 0 0 0 0 0 0 0 0 0 0 0 0 0 0 0 0 0 0 0 0 0 0 0 0 0 0 1 1 1 17 16 15 42 41 37 43 42 41 32 32 33 35 34 40 28 28 33 8 8 9 0 0 0 1 1 0 0 0 0 29 27 29 83 74 28 94 83 36 103 92 44 123 112 63 136 125 77 163 151 102 119 111 82 113 106 84 176 164 120 209 195 141 200 187 135 189 176 122 173 162 105 171 156 93 93 84 54 54 54 73 46 44 57 0 0 0 2 2 3 6 6 6 7 7 8 9 9 10 9 9 9 10 10 11 1 1 1 1 1 1 0 0 0 0 0 0 0 0 0 0 0 0 0 0 0 0 0 0 0 0 0 0 0 0 0 0 0 0 0 0 0 0 0 0 0 0 0 0 0 0 0 0 0 0 0 0 0 0 
0 0 0 0 0 0 0 0 0 0 0 0 0 0 0 0 0 0 0 0 0 0 0 0 0 0 0 0 0 0 0 0 0 0 0 0 0 0 0 0 0 0 4 4 4 29 29 25 41 40 37 25 24 23 20 19 21 35 34 39 35 35 38 17 17 18 0 0 6 49 44 22 89 77 23 93 81 33 102 90 41 114 102 53 133 120 71 145 133 83 172 159 103 193 180 122 188 177 121 183 171 116 184 171 114 173 159 101 169 154 97 155 141 79 129 116 59 62 59 70 54 55 65 75 74 80 127 126 132 112 111 117 111 110 115 107 106 112 113 112 117 118 117 123 45 44 47 0 0 0 1 1 1 0 0 0 0 0 0 0 0 0 0 0 0 0 0 0 0 0 0 0 0 0 0 0 0 0 0 0 0 0 0 0 0 0 0 0 0 0 0 0 0 0 0 0 0 0 
0 0 0 0 0 0 0 0 0 0 0 0 0 0 0 0 0 0 0 0 0 0 0 0 0 0 0 0 0 0 0 0 0 0 0 0 0 0 0 1 1 1 1 1 1 0 0 0 10 10 9 38 38 38 37 37 38 10 9 9 9 8 10 33 32 34 42 41 46 71 63 35 85 74 22 90 77 22 99 87 33 104 93 42 118 106 56 134 122 71 148 135 84 157 144 92 167 155 100 167 154 98 164 150 93 160 146 86 154 139 79 140 125 66 139 122 53 58 52 34 92 93 105 148 146 153 114 113 119 100 99 105 102 101 108 114 113 120 113 112 119 105 104 111 114 113 119 29 29 31 0 0 0 1 1 1 0 0 0 0 0 0 0 0 0 0 0 0 0 0 0 0 0 0 0 0 0 0 0 0 0 0 0 0 0 0 0 0 0 0 0 0 0 0 0 0 0 0 
0 0 0 0 0 0 0 0 0 0 0 0 0 0 0 0 0 0 0 0 0 0 0 0 0 0 0 0 0 0 0 0 0 0 0 0 0 0 0 0 0 0 0 0 0 1 1 1 0 0 0 0 0 0 18 18 18 44 43 44 31 29 30 2 2 1 2 3 4 45 41 35 64 57 39 76 67 39 91 81 37 108 95 38 118 105 49 122 111 59 136 124 69 149 136 80 150 138 81 156 142 84 158 142 84 147 133 72 141 127 65 139 122 56 110 97 33 54 50 54 113 112 119 95 94 99 91 90 96 101 100 106 110 109 114 104 103 109 102 101 107 104 103 109 107 106 112 96 95 100 7 7 8 0 0 0 0 0 0 0 0 0 0 0 0 0 0 0 0 0 0 0 0 0 0 0 0 0 0 0 0 0 0 0 0 0 0 0 0 0 0 0 0 0 0 0 0 0 
0 0 0 0 0 0 0 0 0 0 0 0 0 0 0 0 0 0 0 0 0 0 0 0 0 0 0 0 0 0 0 0 0 0 0 0 0 0 0 0 0 0 0 0 0 0 0 0 1 1 1 1 1 1 0 0 0 1 1 1 24 23 24 42 42 41 17 18 21 29 25 15 60 51 18 47 44 29 57 53 41 70 63 44 95 86 46 121 107 50 126 111 51 130 116 57 137 123 66 143 129 69 138 124 63 136 120 58 122 109 49 116 103 36 60 53 25 84 83 99 120 119 124 103 102 108 110 109 115 106 105 111 100 99 105 101 100 106 102 101 107 98 97 103 97 96 102 110 109 116 52 51 55 0 0 0 2 2 2 0 0 0 0 0 0 0 0 0 0 0 0 0 0 0 0 0 0 0 0 0 0 0 0 0 0 0 0 0 0 0 0 0 0 0 0 0 0 0 
0 0 0 0 0 0 0 0 0 0 0 0 0 0 0 0 0 0 0 0 0 0 0 0 0 0 0 0 0 0 0 0 0 0 0 0 0 0 0 0 0 0 0 0 0 0 0 0 0 0 0 0 0 0 1 1 1 1 1 1 0 0 0 6 6 7 28 28 27 34 34 33 29 27 32 30 31 40 71 60 17 78 68 20 65 59 36 68 63 45 94 86 55 125 110 57 131 116 50 130 116 53 131 116 55 112 98 42 47 45 44 50 46 53 51 49 56 115 114 122 112 111 118 107 106 112 97 96 102 95 94 100 99 98 104 101 100 106 103 102 108 102 101 107 100 99 105 103 102 109 97 96 101 11 11 12 0 0 0 0 0 0 0 0 0 0 0 0 0 0 0 0 0 0 0 0 0 0 0 0 0 0 0 0 0 0 0 0 0 0 0 0 0 0 0 0 0 0 
0 0 0 0 0 0 0 0 0 0 0 0 0 0 0 0 0 0 0 0 0 0 0 0 0 0 0 0 0 0 0 0 0 0 0 0 0 0 0 0 0 0 0 0 0 0 0 0 1 1 1 2 2 2 2 2 2 0 0 0 0 0 0 0 0 0 0 0 0 23 23 24 47 45 43 36 34 43 50 46 33 87 73 17 90 76 16 91 78 22 76 66 29 70 62 41 85 78 51 109 95 42 124 106 35 69 61 32 30 32 43 34 33 38 71 70 77 115 114 120 103 102 108 89 88 94 91 90 96 95 94 100 99 98 104 101 100 106 99 98 104 99 98 104 101 100 106 96 95 101 105 104 110 58 58 62 0 0 0 1 1 1 0 0 0 0 0 0 0 0 0 0 0 0 0 0 0 0 0 0 0 0 0 0 0 0 0 0 0 0 0 0 0 0 0 0 0 0 
0 0 0 0 0 0 0 0 0 0 0 0 0 0 0 0 0 0 0 0 0 0 0 0 0 0 0 0 0 0 0 0 0 0 0 0 0 0 0 0 0 0 1 1 2 2 2 3 0 0 0 0 0 0 0 0 0 3 4 4 21 22 24 46 47 52 68 71 76 83 84 92 84 87 93 70 71 74 49 47 52 40 38 46 51 49 51 90 78 11 106 89 14 108 90 15 72 65 27 44 42 50 65 60 48 53 50 54 47 46 56 20 20 23 71 70 77 102 102 108 84 83 89 87 87 92 89 88 94 91 90 96 94 93 99 95 94 100 97 96 102 97 96 102 96 95 101 95 94 100 103 102 108 100 99 106 13 13 15 0 0 0 1 1 1 0 0 0 0 0 0 0 0 0 0 0 0 0 0 0 0 0 0 0 0 0 0 0 0 0 0 0 0 0 0 0 0 0 
0 0 0 0 0 0 0 0 0 0 0 0 0 0 0 0 0 0 0 0 0 0 0 0 0 0 0 0 0 0 0 0 0 0 0 0 1 1 1 1 1 1 0 1 1 0 0 0 25 26 29 63 66 80 71 77 92 91 97 111 95 102 112 93 95 102 95 94 101 105 105 113 118 119 127 132 133 141 148 146 158 92 91 97 34 33 45 71 61 26 88 73 6 93 77 12 64 56 40 43 41 53 43 41 51 56 56 63 98 96 104 82 81 87 76 75 81 79 80 85 83 84 89 85 86 91 86 85 91 89 88 94 92 91 97 95 94 100 96 95 101 97 96 102 98 97 103 98 97 103 96 95 101 108 108 115 45 48 49 0 0 0 1 2 2 0 0 0 0 0 0 0 0 0 0 0 0 0 0 0 0 0 0 0 0 0 0 0 0 0 0 0 0 0 0 0 0 0 
0 0 0 0 0 0 0 0 0 0 0 0 0 0 0 0 0 0 0 0 0 0 0 0 0 0 0 0 0 0 1 1 1 2 2 2 1 1 0 0 0 0 18 19 23 77 80 100 120 127 154 128 136 165 121 128 154 108 115 135 97 105 120 89 97 105 89 91 96 102 102 109 133 133 140 176 175 185 246 246 254 145 144 143 33 33 28 54 52 46 59 54 33 62 57 36 53 51 52 58 56 53 55 54 50 62 60 58 117 116 123 88 90 95 80 81 87 88 89 95 80 81 88 84 84 90 87 86 92 91 90 96 97 95 101 103 102 107 107 106 111 113 113 118 120 118 124 125 123 130 128 127 134 130 130 136 90 91 97 4 4 4 0 0 0 0 0 0 0 0 0 0 0 0 0 0 0 0 0 0 0 0 0 0 0 0 0 0 0 0 0 0 0 0 0 0 0 0 
0 0 0 0 0 0 0 0 0 0 0 0 0 0 0 0 0 0 0 0 0 0 0 0 0 0 1 1 1 1 0 1 0 0 0 0 15 16 19 67 72 85 116 122 147 124 131 160 114 120 147 107 113 135 102 108 129 99 106 125 99 106 123 94 101 114 89 93 103 83 87 93 83 83 88 95 94 99 148 148 154 82 82 79 38 37 30 48 47 42 49 48 46 49 49 46 51 50 44 52 51 45 45 44 38 66 65 63 122 122 136 99 102 110 118 119 131 108 108 116 109 109 118 104 104 110 99 98 103 101 100 106 110 111 118 115 116 123 120 121 128 109 110 116 99 99 109 93 93 103 87 89 93 101 100 108 95 94 102 43 43 45 0 0 0 1 1 1 0 0 0 0 0 0 0 0 0 0 0 0 0 0 0 0 0 0 0 0 0 0 0 0 0 0 0 0 0 0 
0 0 0 0 0 0 0 0 0 0 0 0 0 0 0 0 0 0 0 0 1 2 2 2 1 1 1 0 0 0 14 14 17 61 64 75 105 111 131 119 126 150 112 119 144 106 113 135 105 112 131 102 109 125 99 107 121 97 104 118 96 103 117 95 102 117 98 104 117 101 106 116 104 106 113 105 104 110 94 94 101 84 85 87 70 69 68 62 61 60 46 45 43 46 44 42 48 47 44 52 52 45 52 51 44 81 81 81 123 123 135 115 114 124 129 129 139 124 125 133 115 116 123 104 107 112 103 104 111 103 103 111 103 105 113 102 104 112 100 102 108 102 102 109 105 106 115 92 94 104 101 102 110 137 137 146 123 122 132 59 58 65 13 13 12 0 0 0 1 1 1 0 0 0 0 0 0 0 0 0 0 0 0 0 0 0 0 0 0 0 0 0 0 0 0 0 0 0 
0 0 0 0 0 0 0 0 0 0 0 0 0 0 0 2 1 2 1 0 1 0 0 0 10 11 12 55 58 65 99 105 121 112 119 138 107 114 132 102 109 124 98 105 118 97 104 114 98 104 114 96 104 113 96 104 115 97 103 119 99 105 121 106 112 129 111 117 131 112 117 128 119 120 129 130 131 140 133 133 142 129 129 135 108 107 114 112 108 104 110 103 82 114 106 79 114 108 95 99 99 103 106 106 113 110 111 118 113 113 123 107 108 119 105 107 118 103 106 116 101 104 112 100 103 111 102 103 111 109 109 118 118 118 127 116 116 126 107 109 118 116 118 127 141 143 155 141 144 157 157 159 173 171 173 188 189 191 204 83 82 91 32 32 35 0 0 0 1 1 1 0 0 0 0 0 0 0 0 0 0 0 0 0 0 0 0 0 0 0 0 0 0 0 0 0 0 0 
0 0 0 0 0 0 0 0 0 1 1 1 3 3 3 0 0 0 7 7 9 44 47 50 84 89 96 99 106 116 98 105 116 97 104 117 99 106 120 103 110 126 110 117 135 115 121 143 119 124 151 122 129 157 125 131 160 125 132 161 125 132 162 130 136 162 127 133 154 120 126 142 114 119 135 112 117 133 108 111 123 106 108 117 106 108 119 116 117 118 127 130 124 126 130 133 124 128 138 123 128 141 125 130 142 127 131 145 129 133 147 129 133 145 133 136 150 134 136 149 130 131 142 134 134 147 144 145 158 140 142 152 134 135 141 129 131 138 106 110 117 103 107 115 132 137 144 110 116 125 116 120 131 131 135 146 167 171 184 159 160 171 57 54 62 6 6 7 0 0 0 0 0 0 0 0 0 0 0 0 0 0 0 0 0 0 0 0 0 0 0 0 0 0 0 0 0 0 
0 0 0 0 0 0 0 0 0 0 0 0 8 8 8 51 48 53 80 82 91 111 114 126 111 117 135 116 122 145 123 129 156 121 129 156 125 131 161 123 129 159 120 127 155 117 125 150 120 126 149 116 121 143 112 118 137 110 116 133 111 117 133 109 115 129 110 115 128 115 118 132 116 119 132 118 121 135 122 127 140 126 131 145 132 138 151 136 143 158 139 148 162 145 152 166 147 153 168 147 153 168 147 153 169 145 152 167 145 150 165 144 151 167 136 144 160 126 134 149 117 124 135 113 119 129 116 121 133 114 119 129 115 120 128 115 117 126 107 105 114 114 107 119 145 132 147 148 134 150 141 126 142 161 139 156 176 156 174 201 181 196 113 109 118 16 17 23 0 0 0 1 1 1 0 0 0 0 0 0 0 0 0 0 0 0 0 0 0 0 0 0 0 0 0 0 0 0 
0 0 0 0 0 0 1 1 1 0 0 0 40 39 41 111 111 118 74 77 87 113 120 138 116 123 145 84 86 104 80 80 97 112 116 139 104 109 126 106 111 126 107 110 122 105 108 120 103 107 121 108 111 125 110 113 127 113 115 130 115 118 132 118 123 137 125 130 144 134 136 151 136 139 154 137 139 155 136 141 156 138 144 158 141 146 161 141 147 161 137 145 158 138 146 160 137 144 158 132 140 154 129 136 151 126 132 146 124 127 141 132 131 147 138 131 148 136 128 141 136 126 138 143 127 142 156 136 153 166 142 160 166 144 161 149 131 146 137 120 133 124 107 120 113 100 111 123 112 121 127 108 123 165 133 155 177 145 165 151 131 144 144 122 137 81 77 86 8 10 10 0 0 0 1 1 1 0 0 0 0 0 0 0 0 0 0 0 0 0 0 0 0 0 0 0 0 0 
0 0 0 0 0 0 2 2 2 0 0 0 70 70 71 89 90 98 75 78 89 94 98 114 92 96 116 43 43 51 47 46 53 103 108 122 108 111 123 118 120 136 116 119 134 118 121 135 120 122 137 124 127 142 123 126 142 122 125 140 123 128 142 127 134 148 128 134 149 127 133 148 125 130 145 120 126 139 120 127 141 125 132 146 130 133 147 138 137 153 141 138 154 147 139 154 158 143 162 162 142 160 170 144 163 174 144 165 173 140 161 169 135 156 168 137 158 154 129 148 119 99 109 104 86 96 89 72 82 68 56 64 53 45 50 30 26 30 16 14 15 5 6 6 0 0 0 0 0 0 9 8 9 16 15 17 27 22 25 47 39 44 72 57 67 47 43 50 27 28 31 0 0 0 1 1 0 0 0 0 0 0 0 0 0 0 0 0 0 0 0 0 0 0 0 0 0 0 
0 0 0 0 0 0 1 1 1 0 0 0 96 95 98 75 77 87 83 88 100 92 97 116 96 102 123 47 48 59 58 58 69 112 119 136 117 121 136 115 120 134 116 121 136 116 122 137 116 123 137 116 123 137 115 118 134 119 122 137 126 126 141 131 127 143 136 130 146 140 130 148 153 136 155 165 142 162 175 148 169 182 153 174 182 148 170 178 143 163 180 140 162 179 140 165 169 134 160 174 141 172 147 122 151 121 99 119 133 124 152 126 128 161 115 120 151 107 106 132 3 1 2 0 0 0 0 0 0 0 0 0 0 0 0 0 0 0 0 0 0 0 0 0 1 1 1 1 1 1 0 0 0 0 0 0 0 0 0 0 0 0 3 4 6 35 34 40 22 21 26 0 0 0 0 0 0 0 0 0 0 0 0 0 0 0 0 0 0 0 0 0 0 0 0 0 0 0 
0 0 0 0 0 0 0 0 0 14 13 13 116 114 118 73 75 85 91 93 109 94 96 116 96 102 120 42 42 52 62 64 75 119 126 139 119 120 135 122 119 136 125 120 137 128 120 135 132 119 133 138 122 136 147 126 144 159 134 153 167 137 156 169 137 157 175 139 163 177 141 165 153 123 142 121 98 114 99 80 94 95 78 91 114 93 107 158 123 147 153 118 145 162 149 170 157 137 161 159 147 190 109 106 143 92 75 94 126 122 154 116 111 145 89 77 103 77 64 79 32 28 30 0 0 0 4 3 4 3 2 2 2 2 2 1 1 1 1 1 1 0 0 0 0 0 0 0 0 0 0 0 1 1 1 1 2 1 2 0 0 0 12 11 14 31 30 37 7 7 9 0 0 0 0 0 0 0 0 0 0 0 0 0 0 0 0 0 0 0 0 0 0 0 0 0 0 0 
0 0 0 2 2 2 0 0 0 44 44 44 111 107 119 48 53 63 89 90 106 97 98 116 120 100 120 40 36 43 81 75 87 149 123 140 143 118 134 147 119 137 156 125 145 167 133 158 180 142 174 185 145 180 178 140 174 169 130 160 149 114 136 126 97 116 89 69 84 44 35 42 7 7 6 0 0 0 0 0 0 0 0 0 0 1 1 24 23 30 46 50 58 62 61 66 77 66 76 110 99 122 87 75 94 137 97 117 78 61 79 19 15 20 3 2 2 4 5 5 9 9 9 0 0 0 0 0 0 0 0 0 0 0 0 0 0 0 0 0 0 0 0 0 0 0 0 0 0 0 0 0 0 0 0 0 0 0 0 0 0 0 0 0 0 1 1 2 0 0 1 0 0 0 0 0 0 0 0 0 0 0 0 0 0 0 0 0 0 0 0 0 0 0 0 0 0 0 
0 0 0 2 2 3 0 0 0 68 69 72 99 88 106 105 85 102 162 129 163 174 137 178 170 141 167 36 34 40 108 96 112 200 165 202 201 164 211 220 178 233 226 178 236 209 162 214 186 141 184 163 119 155 131 96 121 92 67 84 50 36 44 11 7 9 0 0 0 0 0 0 0 0 0 2 2 2 3 3 3 3 3 3 2 1 2 0 0 0 0 0 0 0 0 0 0 0 0 1 1 1 0 0 0 3 2 2 2 1 1 0 0 0 1 0 0 2 2 3 0 0 0 0 0 0 0 0 0 0 0 0 0 0 0 0 0 0 0 0 0 0 0 0 0 0 0 0 0 0 0 0 0 0 0 0 0 0 0 0 0 0 0 0 0 1 1 0 0 0 0 0 0 0 0 0 0 0 0 0 0 0 0 0 0 0 0 0 0 0 0 0 0 0 0 0 0 0 
0 0 0 1 1 2 0 0 0 107 93 105 171 140 170 194 162 204 248 204 252 238 192 242 214 177 223 28 32 35 185 154 194 254 199 255 218 166 221 179 131 173 140 101 130 124 89 110 91 67 79 54 40 47 18 14 16 1 0 0 0 0 0 0 0 0 1 1 1 2 1 2 1 0 0 0 0 0 0 0 0 0 0 0 0 0 0 1 1 1 1 1 2 2 2 2 2 2 2 1 1 2 1 1 2 0 0 0 1 1 2 1 1 1 0 0 0 0 0 0 0 0 0 0 0 0 0 0 0 0 0 0 0 0 0 0 0 0 0 0 0 0 0 0 0 0 0 0 0 0 0 0 0 0 0 0 0 0 0 0 0 0 0 0 0 0 0 0 0 0 0 0 0 0 0 0 0 0 0 0 0 0 0 0 0 0 0 0 0 0 0 0 0 0 0 0 0 0 
0 0 0 1 1 1 3 3 3 32 23 27 66 58 64 123 115 138 184 161 196 233 191 237 236 184 244 112 87 105 173 132 164 119 90 113 114 85 100 112 87 100 92 75 86 42 33 38 0 0 0 1 0 0 0 0 0 1 1 1 2 2 2 1 1 1 0 0 0 0 0 0 0 0 0 0 0 0 0 0 0 0 0 0 0 0 0 0 0 0 0 0 0 0 0 0 0 0 0 0 0 0 0 0 0 0 0 0 0 0 0 0 0 0 0 0 0 0 0 0 0 0 0 0 0 0 0 0 0 0 0 0 0 0 0 0 0 0 0 0 0 0 0 0 0 0 0 0 0 0 0 0 0 0 0 0 0 0 0 0 0 0 0 0 0 0 0 0 0 0 0 0 0 0 0 0 0 0 0 0 0 0 0 0 0 0 0 0 0 0 0 0 0 0 0 0 0 0 
0 0 0 0 1 1 2 2 2 0 0 1 0 0 0 65 60 67 79 68 92 90 78 104 149 119 155 121 88 107 82 63 74 90 70 85 66 51 63 30 24 30 3 2 3 0 0 0 1 1 1 2 2 2 1 1 1 0 0 0 0 0 0 0 0 0 0 0 0 0 0 0 0 0 0 0 0 0 0 0 0 0 0 0 0 0 0 0 0 0 0 0 0 0 0 0 0 0 0 0 0 0 0 0 0 0 0 0 0 0 0 0 0 0 0 0 0 0 0 0 0 0 0 0 0 0 0 0 0 0 0 0 0 0 0 0 0 0 0 0 0 0 0 0 0 0 0 0 0 0 0 0 0 0 0 0 0 0 0 0 0 0 0 0 0 0 0 0 0 0 0 0 0 0 0 0 0 0 0 0 0 0 0 0 0 0 0 0 0 0 0 0 0 0 0 0 0 0 
0 0 0 0 0 0 0 0 0 1 1 1 2 1 2 0 0 0 8 5 4 23 20 22 9 6 8 0 0 0 0 0 0 0 0 0 0 0 0 0 0 0 1 1 1 1 1 1 0 0 0 0 0 0 0 0 0 0 0 0 0 0 0 0 0 0 0 0 0 0 0 0 0 0 0 0 0 0 0 0 0 0 0 0 0 0 0 0 0 0 0 0 0 0 0 0 0 0 0 0 0 0 0 0 0 0 0 0 0 0 0 0 0 0 0 0 0 0 0 0 0 0 0 0 0 0 0 0 0 0 0 0 0 0 0 0 0 0 0 0 0 0 0 0 0 0 0 0 0 0 0 0 0 0 0 0 0 0 0 0 0 0 0 0 0 0 0 0 0 0 0 0 0 0 0 0 0 0 0 0 0 0 0 0 0 0 0 0 0 0 0 0 0 0 0 0 0 0 
0 0 0 0 0 0 0 0 0 0 0 0 0 0 0 3 2 3 1 1 1 0 0 0 1 1 1 3 2 2 3 2 3 3 2 3 2 2 2 1 1 1 0 0 0 0 0 0 0 0 0 0 0 0 0 0 0 0 0 0 0 0 0 0 0 0 0 0 0 0 0 0 0 0 0 0 0 0 0 0 0 0 0 0 0 0 0 0 0 0 0 0 0 0 0 0 0 0 0 0 0 0 0 0 0 0 0 0 0 0 0 0 0 0 0 0 0 0 0 0 0 0 0 0 0 0 0 0 0 0 0 0 0 0 0 0 0 0 0 0 0 0 0 0 0 0 0 0 0 0 0 0 0 0 0 0 0 0 0 0 0 0 0 0 0 0 0 0 0 0 0 0 0 0 0 0 0 0 0 0 0 0 0 0 0 0 0 0 0 0 0 0 0 0 0 0 0 0 
0 0 0 0 0 0 0 0 0 0 0 0 0 0 0 0 0 0 0 0 0 1 0 1 0 0 0 0 0 0 0 0 0 0 0 0 0 0 0 0 0 0 0 0 0 0 0 0 0 0 0 0 0 0 0 0 0 0 0 0 0 0 0 0 0 0 0 0 0 0 0 0 0 0 0 0 0 0 0 0 0 0 0 0 0 0 0 0 0 0 0 0 0 0 0 0 0 0 0 0 0 0 0 0 0 0 0 0 0 0 0 0 0 0 0 0 0 0 0 0 0 0 0 0 0 0 0 0 0 0 0 0 0 0 0 0 0 0 0 0 0 0 0 0 0 0 0 0 0 0 0 0 0 0 0 0 0 0 0 0 0 0 0 0 0 0 0 0 0 0 0 0 0 0 0 0 0 0 0 0 0 0 0 0 0 0 0 0 0 0 0 0 0 0 0 0 0 0 
0 0 0 0 0 0 0 0 0 0 0 0 0 0 0 0 0 0 0 0 0 0 0 0 0 0 0 0 0 0 0 0 0 0 0 0 0 0 0 0 0 0 0 0 0 0 0 0 0 0 0 0 0 0 0 0 0 0 0 0 0 0 0 0 0 0 0 0 0 0 0 0 0 0 0 0 0 0 0 0 0 0 0 0 0 0 0 0 0 0 0 0 0 0 0 0 0 0 0 0 0 0 0 0 0 0 0 0 0 0 0 0 0 0 0 0 0 0 0 0 0 0 0 0 0 0 0 0 0 0 0 0 0 0 0 0 0 0 0 0 0 0 0 0 0 0 0 0 0 0 0 0 0 0 0 0 0 0 0 0 0 0 0 0 0 0 0 0 0 0 0 0 0 0 0 0 0 0 0 0 0 0 0 0 0 0 0 0 0 0 0 0 0 0 0 0 0 0 
0 0 0 0 0 0 0 0 0 0 0 0 0 0 0 0 0 0 0 0 0 0 0 0 0 0 0 0 0 0 0 0 0 0 0 0 0 0 0 0 0 0 0 0 0 0 0 0 0 0 0 0 0 0 0 0 0 0 0 0 0 0 0 0 0 0 0 0 0 0 0 0 0 0 0 0 0 0 0 0 0 0 0 0 0 0 0 0 0 0 0 0 0 0 0 0 0 0 0 0 0 0 0 0 0 0 0 0 0 0 0 0 0 0 0 0 0 0 0 0 0 0 0 0 0 0 0 0 0 0 0 0 0 0 0 0 0 0 0 0 0 0 0 0 0 0 0 0 0 0 0 0 0 0 0 0 0 0 0 0 0 0 0 0 0 0 0 0 0 0 0 0 0 0 0 0 0 0 0 0 0 0 0 0 0 0 0 0 0 0 0 0 0 0 0 0 0 0 
